<svg width="27" height="27" viewBox="0 0 27 27" fill="none" xmlns="http://www.w3.org/2000/svg">
<path d="M5.0625 10.125H3.375" stroke="#2468FF" stroke-width="1.5" stroke-linecap="round" stroke-linejoin="round"/>
<path d="M5.0625 16.875H3.375" stroke="#2468FF" stroke-width="1.5" stroke-linecap="round" stroke-linejoin="round"/>
<path d="M4.5 13.5H2.25" stroke="#2468FF" stroke-width="1.5" stroke-linecap="round" stroke-linejoin="round"/>
<path d="M6.3418 6.34055C7.7578 4.92454 9.56191 3.96023 11.526 3.56955C13.49 3.17888 15.5258 3.37939 17.3759 4.14572C19.226 4.91206 20.8073 6.20981 21.9199 7.87486C23.0324 9.5399 23.6263 11.4975 23.6263 13.5C23.6263 15.5025 23.0324 17.4601 21.9199 19.1252C20.8073 20.7902 19.226 22.0879 17.3759 22.8543C15.5258 23.6206 13.49 23.8211 11.526 23.4305C9.56191 23.0398 7.7578 22.0755 6.3418 20.6595" stroke="#2468FF" stroke-width="1.5" stroke-linecap="round" stroke-linejoin="round"/>
<path d="M13.5 8.4375V9.45995" stroke="#2468FF" stroke-width="1.5" stroke-linecap="round" stroke-linejoin="round"/>
<path d="M10.9688 11.5047C11.0398 10.9007 11.3445 10.3485 11.8176 9.96632C12.2907 9.58414 12.8946 9.40231 13.5 9.45975" stroke="#2468FF" stroke-width="1.5" stroke-linecap="round" stroke-linejoin="round"/>
<path d="M13.5 18.5627V17.5403" stroke="#2468FF" stroke-width="1.5" stroke-linecap="round" stroke-linejoin="round"/>
<path d="M16.0312 15.4951C15.9602 16.0991 15.6555 16.6513 15.1824 17.0335C14.7093 17.4156 14.1054 17.5975 13.5 17.54" stroke="#2468FF" stroke-width="1.5" stroke-linecap="round" stroke-linejoin="round"/>
<path d="M15.9668 11.0585C15.7813 10.5628 15.4414 10.1398 14.9973 9.85194C14.5531 9.56408 14.0282 9.42656 13.5 9.45967" stroke="#2468FF" stroke-width="1.5" stroke-linecap="round" stroke-linejoin="round"/>
<path d="M11.0322 15.9412C11.2177 16.4369 11.5576 16.8598 12.0018 17.1477C12.4459 17.4356 12.9708 17.5731 13.499 17.54" stroke="#2468FF" stroke-width="1.5" stroke-linecap="round" stroke-linejoin="round"/>
<path d="M10.9688 11.5049C10.9688 11.9247 11.1142 12.3316 11.3804 12.6563C11.6466 12.981 12.017 13.2034 12.4287 13.2858L14.5713 13.7143C14.983 13.7966 15.3534 14.019 15.6196 14.3437C15.8858 14.6684 16.0312 15.0753 16.0312 15.4951" stroke="#2468FF" stroke-width="1.5" stroke-linecap="round" stroke-linejoin="round"/>
</svg>
