<svg width="23" height="23" viewBox="0 0 23 23" fill="none" xmlns="http://www.w3.org/2000/svg">
<g clip-path="url(#clip0_1_16487)">
<path fill-rule="evenodd" clip-rule="evenodd" d="M11.4997 2.87504C6.73622 2.87504 2.87467 6.73658 2.87467 11.5C2.87467 16.2635 6.73622 20.125 11.4997 20.125C16.2631 20.125 20.1247 16.2635 20.1247 11.5C20.1247 6.73658 16.2631 2.87504 11.4997 2.87504ZM0.958008 11.5C0.958008 5.67804 5.67767 0.958374 11.4997 0.958374C17.3217 0.958374 22.0413 5.67804 22.0413 11.5C22.0413 17.322 17.3217 22.0417 11.4997 22.0417C5.67767 22.0417 0.958008 17.322 0.958008 11.5Z" fill="#2468FF"/>
<path fill-rule="evenodd" clip-rule="evenodd" d="M9.67889 5.07952C9.04077 6.6748 8.62467 8.94438 8.62467 11.5C8.62467 14.0557 9.04077 16.3253 9.67889 17.9206C9.99901 18.7209 10.3562 19.3042 10.7038 19.6718C11.0496 20.0374 11.3188 20.125 11.4997 20.125C11.6805 20.125 11.9498 20.0374 12.2955 19.6718C12.6431 19.3042 13.0003 18.7209 13.3205 17.9206C13.9586 16.3253 14.3747 14.0557 14.3747 11.5C14.3747 8.94438 13.9586 6.6748 13.3205 5.07952C13.0003 4.27922 12.6431 3.69588 12.2955 3.32829C11.9498 2.96273 11.6805 2.87504 11.4997 2.87504C11.3188 2.87504 11.0496 2.96273 10.7038 3.32829C10.3562 3.69588 9.99901 4.27922 9.67889 5.07952ZM9.31129 2.01133C9.8828 1.40701 10.622 0.958374 11.4997 0.958374C12.3774 0.958374 13.1166 1.40701 13.6881 2.01133C14.2577 2.61363 14.7265 3.43374 15.1 4.36768C15.8493 6.24088 16.2913 8.76297 16.2913 11.5C16.2913 14.2371 15.8493 16.7592 15.1 18.6324C14.7265 19.5663 14.2577 20.3864 13.6881 20.9887C13.1166 21.5931 12.3774 22.0417 11.4997 22.0417C10.622 22.0417 9.8828 21.5931 9.31129 20.9887C8.74169 20.3864 8.27288 19.5663 7.89931 18.6324C7.15003 16.7592 6.70801 14.2371 6.70801 11.5C6.70801 8.76297 7.15003 6.24088 7.89931 4.36768C8.27288 3.43374 8.74169 2.61363 9.31129 2.01133Z" fill="#2468FF"/>
<path fill-rule="evenodd" clip-rule="evenodd" d="M1.91602 10.5417H21.0827V12.4584H1.91602V10.5417Z" fill="#2468FF"/>
</g>
<defs>
<clipPath id="clip0_1_16487">
<rect width="23" height="23" fill="white"/>
</clipPath>
</defs>
</svg>
