<svg width="18" height="18" viewBox="0 0 18 18" fill="none" xmlns="http://www.w3.org/2000/svg">
<g clip-path="url(#clip0_1_16486)">
<path d="M18 0H0V18H18V0Z" fill="white" fill-opacity="0.01"/>
<path d="M13.5 3H4.875C3.75 3 1.5 3.75 1.5 6C1.5 8.25 3.75 9 4.875 9H13.125C14.25 9 16.5 9.75 16.5 12C16.5 14.25 14.25 15 13.125 15H4.5" stroke="#2468FF" stroke-width="2" stroke-linecap="round" stroke-linejoin="round"/>
<path d="M15 4.5C15.8284 4.5 16.5 3.82841 16.5 3C16.5 2.17157 15.8284 1.5 15 1.5C14.1716 1.5 13.5 2.17157 13.5 3C13.5 3.82841 14.1716 4.5 15 4.5Z" stroke="#2468FF" stroke-width="2" stroke-linejoin="round"/>
<path d="M3 16.5C3.82841 16.5 4.5 15.8284 4.5 15C4.5 14.1716 3.82841 13.5 3 13.5C2.17157 13.5 1.5 14.1716 1.5 15C1.5 15.8284 2.17157 16.5 3 16.5Z" stroke="#2468FF" stroke-width="2" stroke-linejoin="round"/>
</g>
<defs>
<clipPath id="clip0_1_16486">
<rect width="18" height="18" fill="white"/>
</clipPath>
</defs>
</svg>
