<svg width="16" height="18" viewBox="0 0 16 18" fill="none" xmlns="http://www.w3.org/2000/svg">
<path d="M14.4411 8.17301L11.1591 14.0691C10.5788 15.1117 9.54971 15.8285 8.29819 16.0619C7.04666 16.2954 5.67524 16.0263 4.48563 15.3139C3.29602 14.6016 2.38565 13.5042 1.95481 12.2633C1.52397 11.0224 1.60794 9.73954 2.18825 8.69701L4.15772 5.15882C4.22069 5.06384 4.32306 5.00078 4.4441 4.98241C4.56513 4.96404 4.69578 4.99174 4.80959 5.05989C4.9234 5.12804 5.01185 5.23156 5.05703 5.34946C5.10221 5.46736 5.10074 5.59085 5.05292 5.6949L3.08345 9.23309C2.8432 9.6457 2.69939 10.1123 2.6604 10.6058C2.62141 11.0993 2.68802 11.6097 2.85635 12.1073C3.02467 12.6049 3.29135 13.0798 3.64083 13.5042C3.99031 13.9286 4.41561 14.2941 4.89192 14.5793C5.36823 14.8645 5.88602 15.0638 6.41512 15.1655C6.94422 15.2672 7.47404 15.2694 7.97368 15.1718C8.47333 15.0742 8.9328 14.8788 9.32533 14.597C9.71785 14.3153 10.0356 13.9528 10.26 13.5307L13.5419 7.63455C13.6938 7.37675 13.7852 7.08477 13.8107 6.77572C13.8363 6.46667 13.7954 6.14677 13.6906 5.83477C13.5858 5.52277 13.4192 5.22495 13.2004 4.95877C12.9816 4.69258 12.7152 4.46338 12.4167 4.28462C12.1181 4.10585 11.7935 3.9811 11.4619 3.91769C11.1303 3.85428 10.7983 3.85348 10.4854 3.91534C10.1725 3.9772 9.88494 4.10047 9.63966 4.27793C9.39439 4.45539 9.19629 4.68347 9.05699 4.94879L6.21267 10.0586C6.09686 10.2667 6.0801 10.5227 6.16608 10.7704C6.25207 11.018 6.43376 11.2371 6.67118 11.3792C6.9086 11.5214 7.18231 11.5751 7.43209 11.5285C7.68186 11.4819 7.88725 11.3389 8.00307 11.1308L10.4102 6.80634C10.436 6.75018 10.4745 6.70142 10.5234 6.66308C10.5723 6.62474 10.6304 6.59765 10.6943 6.58347C10.7581 6.56928 10.8263 6.56832 10.8946 6.58064C10.9629 6.59296 11.0298 6.6183 11.0912 6.65508C11.1526 6.69187 11.2072 6.73931 11.2517 6.79448C11.2961 6.84965 11.3294 6.91137 11.3495 6.97581C11.3695 7.04025 11.376 7.10604 11.3684 7.1691C11.3608 7.23217 11.3394 7.29116 11.3054 7.34242L8.89876 11.666C8.66661 12.0831 8.25491 12.3698 7.75425 12.4632C7.25358 12.5566 6.70496 12.449 6.22906 12.164C5.75316 11.879 5.38897 11.44 5.21662 10.9436C5.04426 10.4472 5.07785 9.93398 5.31 9.51692L8.15383 4.40795C8.34983 4.03805 8.62766 3.72031 8.9711 3.47328C9.31454 3.22624 9.71671 3.05487 10.1541 2.96915C10.5915 2.88344 11.0555 2.8851 11.5188 2.97404C11.9821 3.06299 12.4355 3.23743 12.8526 3.48719C13.2696 3.73695 13.642 4.05702 13.9479 4.42872C14.2538 4.80042 14.4872 5.21629 14.6343 5.65206C14.7815 6.08784 14.8395 6.53477 14.8049 6.96679C14.7704 7.3988 14.644 7.80724 14.4332 8.16824L14.4411 8.17301Z" fill="#2468FF"/>
</svg>
