<svg width="19" height="24" viewBox="0 0 19 24" fill="none" xmlns="http://www.w3.org/2000/svg">
<path fill-rule="evenodd" clip-rule="evenodd" d="M8.3125 6.1C8.3125 5.21634 9.02138 4.5 9.89583 4.5C10.7703 4.5 11.4792 5.21634 11.4792 6.1C11.4792 6.98366 10.7703 7.7 9.89583 7.7C9.02138 7.7 8.3125 6.98366 8.3125 6.1ZM8.3125 12.5C8.3125 11.6163 9.02138 10.9 9.89583 10.9C10.7703 10.9 11.4792 11.6163 11.4792 12.5C11.4792 13.3837 10.7703 14.1 9.89583 14.1C9.02138 14.1 8.3125 13.3837 8.3125 12.5ZM8.3125 18.9C8.3125 18.0163 9.02138 17.3 9.89583 17.3C10.7703 17.3 11.4792 18.0163 11.4792 18.9C11.4792 19.7837 10.7703 20.5 9.89583 20.5C9.02138 20.5 8.3125 19.7837 8.3125 18.9Z" fill="#2468FF"/>
</svg>
