<svg width="18" height="20" viewBox="0 0 18 20" fill="none" xmlns="http://www.w3.org/2000/svg">
<path fill-rule="evenodd" clip-rule="evenodd" d="M9.28298 1.03027C6.04019 1.03027 3.24821 3.31915 2.61225 6.49897L1.57533 11.6835C1.23019 13.4092 2.14613 15.1425 3.74511 15.8532C4.29507 16.0976 4.85904 16.3037 5.43261 16.4713L5.49422 16.61C6.15927 18.1063 7.64318 19.0707 9.28067 19.0707C10.9182 19.0707 12.4021 18.1063 13.0671 16.61L13.128 16.4729C13.7034 16.3049 14.2692 16.0984 14.8208 15.8532C16.4198 15.1425 17.3358 13.4092 16.9906 11.6835L15.9537 6.49897C15.3177 3.31915 12.5258 1.03027 9.28298 1.03027ZM12.4766 15.0979C12.4236 15.106 12.3718 15.1197 12.322 15.1386C10.3292 15.6493 8.22128 15.6481 6.22906 15.1348C6.18599 15.1191 6.14148 15.1074 6.09611 15.0998C5.50268 14.9397 4.92004 14.7339 4.35432 14.4825C3.38747 14.0528 2.84067 13.0054 3.0462 11.9777L4.08312 6.79314C4.57885 4.31446 6.75522 2.53027 9.28298 2.53027C11.8107 2.53027 13.9871 4.31446 14.4828 6.79314L15.5198 11.9777C15.7253 13.0054 15.1785 14.0528 14.2116 14.4825C13.6481 14.733 13.0677 14.9381 12.4766 15.0979ZM7.53131 16.9091C8.6917 17.0577 9.86881 17.0579 11.0293 16.9098C10.5554 17.3275 9.9374 17.5707 9.28067 17.5707C8.62359 17.5707 8.00526 17.3273 7.53131 16.9091Z" fill="black"/>
<circle cx="4.46755" cy="4.46755" r="4.46755" fill="#2468FF"/>
</svg>
