<svg width="17" height="19" viewBox="0 0 17 19" fill="none" xmlns="http://www.w3.org/2000/svg">
<path fill-rule="evenodd" clip-rule="evenodd" d="M8.7156 0.0302734C5.47281 0.0302734 2.68083 2.31915 2.04486 5.49897L1.00795 10.6835C0.66281 12.4092 1.57875 14.1425 3.17773 14.8532C3.72769 15.0976 4.29166 15.3037 4.86523 15.4713L4.92684 15.61C5.59189 17.1063 7.0758 18.0707 8.71329 18.0707C10.3508 18.0707 11.8347 17.1063 12.4997 15.61L12.5607 15.4729C13.1361 15.3049 13.7018 15.0984 14.2535 14.8532C15.8524 14.1425 16.7684 12.4092 16.4232 10.6835L15.3863 5.49897C14.7504 2.31915 11.9584 0.0302734 8.7156 0.0302734ZM11.9092 14.0979C11.8563 14.106 11.8044 14.1197 11.7546 14.1386C9.76183 14.6493 7.6539 14.6481 5.66168 14.1348C5.61861 14.1191 5.5741 14.1074 5.52873 14.0998C4.9353 13.9397 4.35266 13.7339 3.78694 13.4825C2.82008 13.0528 2.27329 12.0054 2.47882 10.9777L3.51573 5.79314C4.01147 3.31446 6.18783 1.53027 8.7156 1.53027C11.2434 1.53027 13.4197 3.31446 13.9155 5.79314L14.9524 10.9777C15.1579 12.0054 14.6111 13.0528 13.6443 13.4825C13.0807 13.733 12.5003 13.9381 11.9092 14.0979ZM6.96393 15.9091C8.12431 16.0577 9.30143 16.0579 10.4619 15.9098C9.98802 16.3275 9.37002 16.5707 8.71329 16.5707C8.0562 16.5707 7.43788 16.3273 6.96393 15.9091Z" fill="black"/>
</svg>
