<svg width="34" height="34" viewBox="0 0 34 34" fill="none" xmlns="http://www.w3.org/2000/svg">
<rect width="34" height="34" rx="17" fill="#2468FF" fill-opacity="0.06"/>
<path d="M9 20V14C9 12.8954 9.89543 12 11 12H18C19.1046 12 20 12.8954 20 14V20C20 21.1046 19.1046 22 18 22H11C9.89543 22 9 21.1046 9 20Z" stroke="#2468FF" stroke-width="1.5" stroke-linecap="round" stroke-linejoin="round"/>
<path d="M23.3753 13.2998L20.3753 15.6998C20.1381 15.8895 20 16.1768 20 16.4806V17.5194C20 17.8232 20.1381 18.1105 20.3753 18.3002L23.3753 20.7002C24.0301 21.2241 25 20.7579 25 19.9194V14.0806C25 13.2421 24.0301 12.7759 23.3753 13.2998Z" stroke="#2468FF" stroke-width="1.5" stroke-linecap="round" stroke-linejoin="round"/>
</svg>
