<svg width="20" height="20" viewBox="0 0 20 20" fill="none" xmlns="http://www.w3.org/2000/svg">
<path d="M5.83317 8.95817H4.1665C2.14984 8.95817 1.0415 7.84984 1.0415 5.83317V4.1665C1.0415 2.14984 2.14984 1.0415 4.1665 1.0415H5.83317C7.84984 1.0415 8.95817 2.14984 8.95817 4.1665V5.83317C8.95817 7.84984 7.84984 8.95817 5.83317 8.95817ZM4.1665 2.2915C2.84984 2.2915 2.2915 2.84984 2.2915 4.1665V5.83317C2.2915 7.14984 2.84984 7.70817 4.1665 7.70817H5.83317C7.14984 7.70817 7.70817 7.14984 7.70817 5.83317V4.1665C7.70817 2.84984 7.14984 2.2915 5.83317 2.2915H4.1665Z" fill="#2468FF"/>
<path d="M15.8332 8.95817H14.1665C12.1498 8.95817 11.0415 7.84984 11.0415 5.83317V4.1665C11.0415 2.14984 12.1498 1.0415 14.1665 1.0415H15.8332C17.8498 1.0415 18.9582 2.14984 18.9582 4.1665V5.83317C18.9582 7.84984 17.8498 8.95817 15.8332 8.95817ZM14.1665 2.2915C12.8498 2.2915 12.2915 2.84984 12.2915 4.1665V5.83317C12.2915 7.14984 12.8498 7.70817 14.1665 7.70817H15.8332C17.1498 7.70817 17.7082 7.14984 17.7082 5.83317V4.1665C17.7082 2.84984 17.1498 2.2915 15.8332 2.2915H14.1665Z" fill="#2468FF"/>
<path d="M15.8332 18.9582H14.1665C12.1498 18.9582 11.0415 17.8498 11.0415 15.8332V14.1665C11.0415 12.1498 12.1498 11.0415 14.1665 11.0415H15.8332C17.8498 11.0415 18.9582 12.1498 18.9582 14.1665V15.8332C18.9582 17.8498 17.8498 18.9582 15.8332 18.9582ZM14.1665 12.2915C12.8498 12.2915 12.2915 12.8498 12.2915 14.1665V15.8332C12.2915 17.1498 12.8498 17.7082 14.1665 17.7082H15.8332C17.1498 17.7082 17.7082 17.1498 17.7082 15.8332V14.1665C17.7082 12.8498 17.1498 12.2915 15.8332 12.2915H14.1665Z" fill="#2468FF"/>
<path d="M5.83317 18.9582H4.1665C2.14984 18.9582 1.0415 17.8498 1.0415 15.8332V14.1665C1.0415 12.1498 2.14984 11.0415 4.1665 11.0415H5.83317C7.84984 11.0415 8.95817 12.1498 8.95817 14.1665V15.8332C8.95817 17.8498 7.84984 18.9582 5.83317 18.9582ZM4.1665 12.2915C2.84984 12.2915 2.2915 12.8498 2.2915 14.1665V15.8332C2.2915 17.1498 2.84984 17.7082 4.1665 17.7082H5.83317C7.14984 17.7082 7.70817 17.1498 7.70817 15.8332V14.1665C7.70817 12.8498 7.14984 12.2915 5.83317 12.2915H4.1665Z" fill="#2468FF"/>
</svg>
