<svg width="31" height="30" viewBox="0 0 31 30" fill="none" xmlns="http://www.w3.org/2000/svg">
<rect width="31" height="30" rx="4" fill="#F26798"/>
<path fill-rule="evenodd" clip-rule="evenodd" d="M26.0003 14.958C26.0003 15.6324 25.9317 16.3058 25.7968 16.9623C25.6653 17.6031 25.4705 18.2323 25.2154 18.8337C24.9661 19.4246 24.6569 19.9939 24.2956 20.5248C23.9397 21.0524 23.5297 21.5474 23.0792 21.9986C22.6279 22.4479 22.1312 22.8568 21.6038 23.2142C21.0712 23.573 20.501 23.8818 19.9098 24.1322C19.3075 24.386 18.6769 24.5805 18.0366 24.7118C17.3793 24.847 16.7034 24.916 16.028 24.916C15.3522 24.916 14.6763 24.847 14.0199 24.7118C13.3787 24.5805 12.7481 24.386 12.1462 24.1322C11.5551 23.8818 10.9844 23.573 10.4517 23.2142C9.92436 22.8568 9.42769 22.4479 8.97727 21.9986C8.52639 21.5474 8.11637 21.0524 7.75994 20.5248C7.40059 19.9939 7.09088 19.4245 6.84061 18.8337C6.58543 18.2323 6.3902 17.6031 6.25823 16.9623C6.12483 16.3058 6.05664 15.6324 6.05664 14.958C6.05664 14.2831 6.12479 13.6082 6.25827 12.9532C6.39024 12.3124 6.58547 11.6822 6.84065 11.0818C7.09092 10.4905 7.40063 9.92068 7.75998 9.38969C8.11641 8.86167 8.52643 8.36763 8.97731 7.91591C9.42773 7.46661 9.9244 7.05871 10.4517 6.70182C10.9844 6.3415 11.5551 6.03278 12.1463 5.78187C12.7481 5.52752 13.3787 5.33257 14.02 5.20228C14.6764 5.06809 15.3522 5 16.0281 5C16.7034 5 17.3793 5.06809 18.0366 5.20228C18.6769 5.33261 19.3075 5.52756 19.9099 5.78187C20.501 6.03275 21.0712 6.3415 21.6039 6.70182C22.1312 7.05871 22.6279 7.46661 23.0793 7.91591C23.5297 8.36763 23.9397 8.86167 24.2956 9.38969C24.6569 9.92068 24.9661 10.4906 25.2154 11.0818C25.4705 11.6822 25.6653 12.3124 25.7968 12.9532C25.9317 13.6082 26.0003 14.2831 26.0003 14.958ZM12.3972 7.26611C10.0224 8.38593 8.24994 10.571 7.69727 13.2045L7.70545 13.2045C7.99652 13.2072 11.5136 13.2397 15.5593 12.1663C14.0854 9.55138 12.5106 7.41737 12.3972 7.26611ZM7.52246 14.6863C7.67339 14.6921 11.881 14.7864 16.2658 13.4756C16.5097 13.9531 16.743 14.4374 16.9567 14.9206C16.8448 14.9527 16.7318 14.9858 16.6208 15.0228C12.0251 16.5067 9.69463 20.6353 9.69756 20.6397C8.34097 19.1338 7.51562 17.1422 7.51562 14.9576C7.51562 14.8945 7.5177 14.8329 7.5198 14.7707C7.52075 14.7427 7.52169 14.7146 7.52246 14.6863ZM21.6522 8.57599C20.1529 7.25585 18.1843 6.45508 16.0281 6.45508C15.3362 6.45508 14.6647 6.53872 14.0215 6.69333L14.0353 6.71185C14.237 6.98153 15.7887 9.05694 17.205 11.6538C20.392 10.4608 21.6112 8.63727 21.6514 8.57712L21.6522 8.57599ZM17.5119 16.3367L17.5326 16.3301C18.7309 19.44 19.2256 22.0442 19.3517 22.7872C18.3297 23.2213 17.2063 23.4611 16.027 23.4611C14.052 23.4611 12.2387 22.7838 10.793 21.6611C10.8107 21.6226 12.4516 18.0977 17.4761 16.3486C17.4879 16.3442 17.4998 16.3405 17.5118 16.3367L17.5119 16.3367ZM20.7845 22.0102C22.6967 20.7217 24.0547 18.6757 24.4335 16.3057C24.2583 16.2493 21.8757 15.4961 19.127 15.9362C20.244 19.0014 20.6978 21.4977 20.7845 22.0102ZM18.4273 14.1538C18.2506 13.739 18.0592 13.3262 17.8615 12.9207C21.2022 11.5583 22.572 9.60402 22.6052 9.55668L22.6057 9.55601C23.8006 11.0045 24.5227 12.8546 24.5422 14.8704C24.5398 14.87 24.5365 14.8693 24.5321 14.8684C24.3086 14.8219 21.4808 14.2337 18.6114 14.5943C18.5515 14.4485 18.4901 14.3026 18.4273 14.1538Z" fill="white"/>
</svg>
