<svg width="30" height="29" viewBox="0 0 30 29" fill="none" xmlns="http://www.w3.org/2000/svg">
<g filter="url(#filter0_d_1_10573)">
<rect x="6" y="3.70312" width="17.8051" height="17.8051" rx="5" fill="white"/>
</g>
<g clip-path="url(#clip0_1_10573)">
<path d="M11.8159 14.4755V15.5164C11.8159 15.6123 11.8912 15.6876 11.9871 15.6876H13.028C13.0726 15.6876 13.1171 15.6705 13.1479 15.6363L16.887 11.9006L15.6029 10.6166L11.8673 14.3522C11.833 14.3865 11.8159 14.4276 11.8159 14.4755ZM17.8799 10.9076C18.0135 10.7741 18.0135 10.5584 17.8799 10.4248L17.0787 9.62359C16.9452 9.49005 16.7295 9.49005 16.5959 9.62359L15.9693 10.2502L17.2533 11.5342L17.8799 10.9076Z" fill="#2468FF"/>
</g>
<defs>
<filter id="filter0_d_1_10573" x="0.5" y="0.203125" width="28.8052" height="28.8052" filterUnits="userSpaceOnUse" color-interpolation-filters="sRGB">
<feFlood flood-opacity="0" result="BackgroundImageFix"/>
<feColorMatrix in="SourceAlpha" type="matrix" values="0 0 0 0 0 0 0 0 0 0 0 0 0 0 0 0 0 0 127 0" result="hardAlpha"/>
<feOffset dy="2"/>
<feGaussianBlur stdDeviation="2.75"/>
<feColorMatrix type="matrix" values="0 0 0 0 0 0 0 0 0 0 0 0 0 0 0 0 0 0 0.06 0"/>
<feBlend mode="normal" in2="BackgroundImageFix" result="effect1_dropShadow_1_10573"/>
<feBlend mode="normal" in="SourceGraphic" in2="effect1_dropShadow_1_10573" result="shape"/>
</filter>
<clipPath id="clip0_1_10573">
<rect width="8.21776" height="8.21776" fill="white" transform="translate(10.7891 8.49707)"/>
</clipPath>
</defs>
</svg>
