<svg width="16" height="16" viewBox="0 0 16 16" fill="none" xmlns="http://www.w3.org/2000/svg">
<path d="M7.39909 2.53583H3.60809C2.35187 2.53583 1.3335 3.55417 1.3335 4.81036V12.3922C1.3335 13.6484 2.35187 14.6667 3.60809 14.6667H11.1901C12.4463 14.6667 13.4647 13.6484 13.4647 12.3922L13.4647 8.60127M5.12449 10.8758L7.88306 10.3199C8.02951 10.2904 8.16397 10.2183 8.26958 10.1127L14.4449 3.93415C14.741 3.63792 14.7408 3.15775 14.4445 2.86177L13.1363 1.55514C12.8401 1.25928 12.3602 1.25948 12.0642 1.55559L5.88823 7.73475C5.78283 7.8402 5.71086 7.97439 5.68133 8.12052L5.12449 10.8758Z" stroke="#2468FF" stroke-linecap="round" stroke-linejoin="round"/>
</svg>
