<svg width="10" height="10" viewBox="0 0 10 10" fill="none" xmlns="http://www.w3.org/2000/svg">
<path d="M10 5.01961C10 2.24737 7.76141 0 5 0C2.23859 0 0 2.24737 0 5.01961C0 7.52502 1.82844 9.60169 4.21875 9.97823V6.47059H2.94922V5.01961H4.21875V3.91373C4.21875 2.65569 4.96523 1.96078 6.10734 1.96078C6.65438 1.96078 7.22656 2.05882 7.22656 2.05882V3.29412H6.59609C5.97496 3.29412 5.78125 3.68106 5.78125 4.07804V5.01961H7.16797L6.94629 6.47059H5.78125V9.97823C8.17156 9.60169 10 7.52506 10 5.01961Z" fill="#1877F2"/>
<path d="M6.86816 6.43131L7.08984 4.98033H5.70312V4.03876C5.70312 3.64174 5.89684 3.25484 6.51797 3.25484H7.14844V2.01955C7.14844 2.01955 6.57625 1.92151 6.02918 1.92151C4.88711 1.92151 4.14062 2.61641 4.14062 3.87445V4.98033H2.87109V6.43131H4.14062V9.93896C4.39907 9.97962 4.66028 10 4.92188 9.99994C5.18347 10 5.44468 9.97963 5.70312 9.93896V6.43131H6.86816Z" fill="white"/>
</svg>
