<svg width="11" height="11" viewBox="0 0 11 11" fill="none" xmlns="http://www.w3.org/2000/svg">
<path d="M7.68729 0.666687H3.64522C2.85541 0.667615 2.09823 0.98181 1.5398 1.54033C0.981366 2.09886 0.667299 2.85609 0.666504 3.6459L0.666504 7.68797C0.667432 8.47778 0.981627 9.23496 1.54015 9.79339C2.09868 10.3518 2.85591 10.6659 3.64572 10.6667H7.68779C8.4776 10.6658 9.23478 10.3516 9.79321 9.79304C10.3516 9.23452 10.6657 8.47728 10.6665 7.68747V3.6454C10.6656 2.85559 10.3514 2.09841 9.79286 1.53998C9.23433 0.98155 8.4771 0.667482 7.68729 0.666687ZM9.66074 7.68747C9.66074 7.94663 9.6097 8.20325 9.51052 8.44268C9.41135 8.68211 9.26599 8.89966 9.08273 9.08292C8.89948 9.26617 8.68193 9.41153 8.4425 9.51071C8.20307 9.60988 7.94645 9.66093 7.68729 9.66093H3.64522C3.12191 9.66079 2.62008 9.45282 2.2501 9.08274C1.88011 8.71266 1.67226 8.21078 1.67226 7.68747V3.6454C1.6724 3.12209 1.88037 2.62027 2.25045 2.25028C2.62053 1.8803 3.12241 1.67245 3.64572 1.67245H7.68779C8.2111 1.67258 8.71292 1.88056 9.08291 2.25064C9.4529 2.62072 9.66074 3.12259 9.66074 3.6459V7.68747Z" fill="#2468FF"/>
<path d="M5.66609 3.08038C4.98061 3.08144 4.32351 3.35426 3.83884 3.83901C3.35418 4.32377 3.08149 4.98092 3.08057 5.66641C3.08136 6.35207 3.35406 7.00942 3.83884 7.4943C4.32363 7.97919 4.98093 8.25201 5.66659 8.25294C6.35234 8.25214 7.00977 7.97938 7.49466 7.49448C7.97956 7.00959 8.25232 6.35215 8.25312 5.66641C8.25206 4.98075 7.97911 4.3235 7.49413 3.83881C7.00916 3.35411 6.35175 3.08155 5.66609 3.08088V3.08038ZM5.66609 7.24718C5.24698 7.24718 4.84503 7.08068 4.54867 6.78433C4.25232 6.48797 4.08583 6.08602 4.08583 5.66691C4.08583 5.2478 4.25232 4.84585 4.54867 4.54949C4.84503 4.25314 5.24698 4.08664 5.66609 4.08664C6.0852 4.08664 6.48715 4.25314 6.78351 4.54949C7.07986 4.84585 7.24636 5.2478 7.24636 5.66691C7.24636 6.08602 7.07986 6.48797 6.78351 6.78433C6.48715 7.08068 6.0852 7.24718 5.66609 7.24718Z" fill="#2468FF"/>
<path d="M8.25777 3.71951C8.59995 3.71951 8.87735 3.44212 8.87735 3.09993C8.87735 2.75774 8.59995 2.48035 8.25777 2.48035C7.91558 2.48035 7.63818 2.75774 7.63818 3.09993C7.63818 3.44212 7.91558 3.71951 8.25777 3.71951Z" fill="#2468FF"/>
</svg>
