<svg width="31" height="30" viewBox="0 0 31 30" fill="none" xmlns="http://www.w3.org/2000/svg">
<rect width="31" height="30" rx="4" fill="url(#paint0_linear_1336_27750)"/>
<path fill-rule="evenodd" clip-rule="evenodd" d="M19.8503 3H10.1497C6.20735 3 3 6.20735 3 10.1497V19.8503C3 23.7926 6.20735 27 10.1497 27H19.8503C23.7926 27 27 23.7926 27 19.8503V10.1497C27 6.20735 23.7926 3 19.8503 3ZM24.5856 19.8503C24.5856 22.4655 22.4655 24.5856 19.8503 24.5856H10.1497C7.5345 24.5856 5.4144 22.4655 5.4144 19.8503V10.1497C5.4144 7.53446 7.5345 5.4144 10.1497 5.4144H19.8503C22.4655 5.4144 24.5856 7.53446 24.5856 10.1497V19.8503ZM15.0002 8.79297C11.5775 8.79297 8.79297 11.5775 8.79297 15.0002C8.79297 18.4228 11.5775 21.2074 15.0002 21.2074C18.4229 21.2074 21.2075 18.4229 21.2075 15.0002C21.2075 11.5775 18.4229 8.79297 15.0002 8.79297ZM15.0002 18.7931C12.9055 18.7931 11.2074 17.095 11.2074 15.0002C11.2074 12.9055 12.9055 11.2074 15.0002 11.2074C17.095 11.2074 18.7931 12.9055 18.7931 15.0002C18.7931 17.0949 17.0949 18.7931 15.0002 18.7931ZM22.7072 8.83944C22.7072 9.6609 22.0413 10.3268 21.2198 10.3268C20.3983 10.3268 19.7324 9.6609 19.7324 8.83944C19.7324 8.01798 20.3983 7.35205 21.2198 7.35205C22.0413 7.35205 22.7072 8.01798 22.7072 8.83944Z" fill="white"/>
<defs>
<linearGradient id="paint0_linear_1336_27750" x1="0.837838" y1="29.1667" x2="30.0231" y2="3.17715" gradientUnits="userSpaceOnUse">
<stop stop-color="#FBD06F"/>
<stop offset="0.304316" stop-color="#F16C2E"/>
<stop offset="0.646271" stop-color="#C82E96"/>
<stop offset="1" stop-color="#4E6AD6"/>
</linearGradient>
</defs>
</svg>
