<svg width="19" height="18" viewBox="0 0 19 18" fill="none" xmlns="http://www.w3.org/2000/svg">
<path fill-rule="evenodd" clip-rule="evenodd" d="M9.5 0.75C7.01472 0.75 5 2.76472 5 5.25V8.25C5 10.7353 7.01472 12.75 9.5 12.75C11.9853 12.75 14 10.7353 14 8.25V5.25C14 2.76472 11.9853 0.75 9.5 0.75ZM6.5 5.25C6.5 3.59315 7.84315 2.25 9.5 2.25C11.1569 2.25 12.5 3.59315 12.5 5.25V8.25C12.5 9.90685 11.1569 11.25 9.5 11.25C7.84315 11.25 6.5 9.90685 6.5 8.25V5.25ZM4.25 8.25C4.25 7.83579 3.91421 7.5 3.5 7.5C3.08579 7.5 2.75 7.83579 2.75 8.25C2.75 10.3726 3.72564 12.069 5.04184 13.2207C6.12816 14.1712 7.47217 14.7744 8.75 14.948V16.5C8.75 16.9142 9.08578 17.25 9.5 17.25C9.91421 17.25 10.25 16.9142 10.25 16.5V14.948C11.5278 14.7744 12.8718 14.1712 13.9582 13.2207C15.2744 12.069 16.25 10.3726 16.25 8.25C16.25 7.83579 15.9142 7.5 15.5 7.5C15.0858 7.5 14.75 7.83579 14.75 8.25C14.75 9.87742 14.0114 11.181 12.9704 12.0918C11.9151 13.0153 10.5869 13.5 9.5 13.5C8.41312 13.5 7.08495 13.0153 6.02959 12.0918C4.98864 11.181 4.25 9.87742 4.25 8.25Z" fill="#2468FF"/>
</svg>
