<svg width="14" height="14" viewBox="0 0 14 14" fill="none" xmlns="http://www.w3.org/2000/svg">
<path fill-rule="evenodd" clip-rule="evenodd" d="M6.24915 0.663488C6.74373 0.554879 7.25599 0.554879 7.75057 0.663488C8.31067 0.786487 8.82574 1.09566 9.64635 1.58824L9.72669 1.63646L10.76 2.25646L10.8358 2.3019L10.8358 2.30191C11.613 2.76801 12.1009 3.06066 12.4616 3.47086C12.7802 3.83324 13.0205 4.2576 13.1673 4.71728C13.3335 5.23762 13.3334 5.8066 13.3332 6.71284L13.3332 6.80117V7.19908L13.3332 7.28742C13.3334 8.19365 13.3335 8.76263 13.1673 9.28297C13.0205 9.74265 12.7802 10.167 12.4616 10.5294C12.1009 10.9396 11.613 11.2322 10.8358 11.6983L10.8358 11.6984L10.76 11.7438L9.72668 12.3638L9.64635 12.412C8.82574 12.9046 8.31067 13.2138 7.75057 13.3368C7.64189 13.3606 7.53236 13.3793 7.42236 13.3926C7.33369 13.5324 7.17761 13.6251 6.99986 13.6251C6.82211 13.6251 6.66602 13.5324 6.57736 13.3926C6.46735 13.3793 6.35782 13.3606 6.24915 13.3368C5.68904 13.2138 5.17397 12.9046 4.35336 12.412L4.27303 12.3638L3.2397 11.7438L3.16394 11.6984L3.16393 11.6983C2.38676 11.2322 1.89881 10.9396 1.53812 10.5294C1.21948 10.167 0.979211 9.74265 0.832412 9.28297C0.666242 8.76263 0.666347 8.19365 0.666514 7.28741L0.666525 7.19908V6.80117L0.666514 6.71285C0.666347 5.80661 0.666242 5.23762 0.832412 4.71728C0.979211 4.2576 1.21948 3.83324 1.53812 3.47086C1.89882 3.06066 2.38677 2.76801 3.16395 2.3019L3.16395 2.3019L3.16395 2.3019L3.2397 2.25646L4.27303 1.63646L4.35337 1.58824C5.17398 1.09566 5.68904 0.786487 6.24915 0.663488ZM7.49986 12.3677C7.51195 12.3652 7.52402 12.3627 7.53608 12.36C7.91644 12.2765 8.28417 12.0631 9.21219 11.5063L10.2455 10.8863C11.1237 10.3594 11.4656 10.1477 11.7106 9.86906C11.9382 9.61021 12.1098 9.3071 12.2147 8.97876C12.3276 8.62531 12.3332 8.22315 12.3332 7.19908V6.80117C12.3332 5.77711 12.3276 5.37494 12.2147 5.0215C12.1855 4.93015 12.1512 4.84076 12.1119 4.75373L7.49986 7.57221V12.3677ZM11.5195 3.94379C11.2787 3.73771 10.9205 3.51892 10.2455 3.11395L9.77172 2.82967L5.21437 5.61469L6.99986 6.70582L11.5195 3.94379ZM4.25551 5.02872L8.80313 2.24964C8.16478 1.87146 7.85487 1.71022 7.53608 1.64021C7.18281 1.56264 6.81691 1.56264 6.46364 1.64021C6.08327 1.72374 5.71555 1.93714 4.78753 2.49395L3.75419 3.11395C3.07925 3.51892 2.72106 3.73771 2.48018 3.94379L4.25551 5.02872ZM1.8878 4.75373L6.49986 7.57221V12.3677C6.48777 12.3652 6.4757 12.3627 6.46364 12.36C6.08327 12.2765 5.71555 12.0631 4.78753 11.5063L3.75419 10.8863C2.87606 10.3594 2.5341 10.1477 2.2891 9.86906C2.06149 9.61021 1.88987 9.3071 1.78502 8.97876C1.67214 8.62531 1.66653 8.22315 1.66653 7.19908V6.80117C1.66653 5.77711 1.67214 5.37494 1.78502 5.0215C1.81419 4.93015 1.84852 4.84076 1.8878 4.75373Z" fill="#0055FF"/>
</svg>
