<svg width="15" height="15" viewBox="0 0 15 15" fill="none" xmlns="http://www.w3.org/2000/svg">
<g clip-path="url(#clip0_1_10914)">
<path d="M10.2719 2.46428L10.2719 2.46433L10.2719 2.46428ZM6.70364 3.20483C7.59911 2.37526 9.02625 2.10634 10.1856 2.54482L8.47956 4.13743C8.47953 4.13745 8.47951 4.13748 8.47949 4.1375C8.38807 4.22281 8.31357 4.32598 8.26203 4.44209C8.21043 4.55834 8.18334 4.68428 8.18334 4.81239C8.18334 4.94051 8.21043 5.06645 8.26203 5.18269C8.31358 5.29883 8.38811 5.40202 8.47956 5.48735L9.25737 6.2144L9.25735 6.21441L9.26031 6.21713C9.4443 6.38636 9.68546 6.47596 9.93029 6.47596C10.1751 6.47596 10.4163 6.38636 10.6003 6.21713L10.6003 6.21714L10.6031 6.21455L12.3877 4.54778C12.5889 4.93269 12.6736 5.49956 12.5728 6.1043C12.4706 6.71772 12.185 7.32143 11.7061 7.76182L11.706 7.76184C11.1969 8.2301 10.4681 8.49474 9.58941 8.49503C9.17295 8.49238 8.75886 8.43902 8.35774 8.33644L8.35774 8.33643L8.35456 8.33564C8.19012 8.29473 8.01733 8.29644 7.85369 8.34071C7.68996 8.38499 7.53822 8.47117 7.41662 8.59394L7.41596 8.5946L3.18951 12.8773C3.24352 12.7559 3.27964 12.6261 3.29534 12.4914C3.32929 12.2002 3.26504 11.9084 3.11536 11.6573C2.96605 11.4069 2.74084 11.2118 2.47589 11.0933C2.21119 10.975 1.91603 10.937 1.62985 10.9826C1.53747 10.9974 1.44693 11.0207 1.35952 11.0522L5.81691 7.25257L5.81692 7.25258L5.81948 7.25037C5.95186 7.13597 6.0518 6.98594 6.10331 6.81461C6.15484 6.64321 6.15462 6.46108 6.10269 6.28984C5.70776 4.97674 5.97286 3.88208 6.70364 3.20483ZM12.3721 4.51868L12.3722 4.51884L12.3721 4.51868Z" stroke="#2468FF"/>
</g>
<defs>
<clipPath id="clip0_1_10914">
<rect width="15" height="14" fill="white" transform="translate(-0.946289 0.981445)"/>
</clipPath>
</defs>
</svg>
