<svg width="24" height="21" viewBox="0 0 24 21" fill="none" xmlns="http://www.w3.org/2000/svg">
<path d="M11.5625 13.125C13.1503 13.125 14.4375 11.9497 14.4375 10.5C14.4375 9.05025 13.1503 7.875 11.5625 7.875C9.97468 7.875 8.6875 9.05025 8.6875 10.5C8.6875 11.9497 9.97468 13.125 11.5625 13.125Z" stroke="black" stroke-width="1.5" stroke-miterlimit="10" stroke-linecap="round" stroke-linejoin="round"/>
<path d="M1.979 11.2698V9.72976C1.979 8.81976 2.79359 8.06726 3.79984 8.06726C5.53442 8.06726 6.24359 6.94726 5.3715 5.57351C4.87317 4.78601 5.17025 3.76226 6.04234 3.30726L7.70025 2.44101C8.45734 2.02976 9.43484 2.27476 9.88525 2.96601L9.99067 3.13226C10.8532 4.50601 12.2715 4.50601 13.1436 3.13226L13.249 2.96601C13.6994 2.27476 14.6769 2.02976 15.434 2.44101L17.0919 3.30726C17.964 3.76226 18.2611 4.78601 17.7628 5.57351C16.8907 6.94726 17.5998 8.06726 19.3344 8.06726C20.3311 8.06726 21.1553 8.81101 21.1553 9.72976V11.2698C21.1553 12.1798 20.3407 12.9323 19.3344 12.9323C17.5998 12.9323 16.8907 14.0523 17.7628 15.426C18.2611 16.2223 17.964 17.2373 17.0919 17.6923L15.434 18.5585C14.6769 18.9698 13.6994 18.7248 13.249 18.0335L13.1436 17.8673C12.2811 16.4935 10.8628 16.4935 9.99067 17.8673L9.88525 18.0335C9.43484 18.7248 8.45734 18.9698 7.70025 18.5585L6.04234 17.6923C5.17025 17.2373 4.87317 16.2135 5.3715 15.426C6.24359 14.0523 5.53442 12.9323 3.79984 12.9323C2.79359 12.9323 1.979 12.1798 1.979 11.2698Z" stroke="black" stroke-width="1.5" stroke-miterlimit="10" stroke-linecap="round" stroke-linejoin="round"/>
</svg>
