<svg width="25" height="26" viewBox="0 0 25 26" fill="none" xmlns="http://www.w3.org/2000/svg">
<path d="M21.875 14.5H19.7083C18.6038 14.5 17.7083 15.3954 17.7083 16.5V18.75C17.7083 19.8546 18.6038 20.75 19.7083 20.75H19.875C20.9796 20.75 21.875 19.8546 21.875 18.75V14.5C21.875 9.32233 17.6777 5.125 12.5 5.125C7.32233 5.125 3.125 9.32233 3.125 14.5V18.75C3.125 19.8546 4.02043 20.75 5.125 20.75H5.29167C6.39624 20.75 7.29167 19.8546 7.29167 18.75V16.5C7.29167 15.3954 6.39624 14.5 5.29167 14.5H3.125" stroke="#2468FF" stroke-width="1.7"/>
</svg>
