<svg width="17" height="17" viewBox="0 0 17 17" fill="none" xmlns="http://www.w3.org/2000/svg">
<path d="M7.43783 14.0957V2.904C7.43783 1.8415 6.98449 1.4165 5.85824 1.4165H2.99658C1.87033 1.4165 1.41699 1.8415 1.41699 2.904V14.0957C1.41699 15.1582 1.87033 15.5832 2.99658 15.5832H5.85824C6.98449 15.5832 7.43783 15.1582 7.43783 14.0957Z" stroke="black" stroke-width="1.5" stroke-linecap="round" stroke-linejoin="round"/>
<path d="M15.5833 6.03484V2.819C15.5833 1.82025 15.13 1.4165 14.0038 1.4165H11.1421C10.0158 1.4165 9.5625 1.82025 9.5625 2.819V6.02775C9.5625 7.03359 10.0158 7.43025 11.1421 7.43025H14.0038C15.13 7.43734 15.5833 7.03359 15.5833 6.03484Z" stroke="black" stroke-width="1.5" stroke-linecap="round" stroke-linejoin="round"/>
<path d="M15.5833 14.0038V11.1421C15.5833 10.0158 15.13 9.5625 14.0038 9.5625H11.1421C10.0158 9.5625 9.5625 10.0158 9.5625 11.1421V14.0038C9.5625 15.13 10.0158 15.5833 11.1421 15.5833H14.0038C15.13 15.5833 15.5833 15.13 15.5833 14.0038Z" stroke="black" stroke-width="1.5" stroke-linecap="round" stroke-linejoin="round"/>
</svg>
