<svg width="31" height="30" viewBox="0 0 31 30" fill="none" xmlns="http://www.w3.org/2000/svg">
<rect width="31" height="30" rx="4" fill="black"/>
<path fill-rule="evenodd" clip-rule="evenodd" d="M13.8851 12.8699V12.0881C13.6062 12.0497 13.325 12.0297 13.0434 12.0284C9.59905 12.0284 6.79688 14.7554 6.79688 18.1066C6.79688 20.1623 7.85282 21.9821 9.46364 23.0825C8.38506 21.9602 7.78543 20.4809 7.7863 18.9444C7.7863 15.6409 10.5087 12.947 13.8851 12.8699Z" fill="#00F2EA"/>
<path fill-rule="evenodd" clip-rule="evenodd" d="M14.0331 21.72C15.5699 21.72 16.8235 20.5305 16.8806 19.0482L16.8858 5.81535H19.3704C19.3174 5.53906 19.2905 5.25861 19.2902 4.97754H15.8968L15.8912 18.2108C15.8346 19.6927 14.5804 20.8817 13.0442 20.8817C12.5829 20.8819 12.1286 20.7725 11.7207 20.5631C11.9841 20.9207 12.3312 21.2121 12.7333 21.4132C13.1354 21.6144 13.581 21.7195 14.0331 21.72ZM24.0124 10.3073V9.57181C23.0993 9.57265 22.2057 9.3142 21.4414 8.82812C22.1115 9.57887 23.0138 10.0978 24.0129 10.3073" fill="#00F2EA"/>
<path fill-rule="evenodd" clip-rule="evenodd" d="M21.4395 8.82757C20.6904 7.99364 20.2779 6.92357 20.2783 5.81604H19.3691C19.4869 6.4282 19.731 7.01073 20.0869 7.52838C20.4428 8.04603 20.9029 8.48801 21.4395 8.82757ZM13.0421 15.3308C12.2858 15.3316 11.5607 15.6243 11.0259 16.1447C10.4912 16.665 10.1904 17.3705 10.1895 18.1063C10.19 18.6125 10.3326 19.109 10.6021 19.542C10.8715 19.975 11.2574 20.3282 11.7182 20.5633C11.3674 20.0926 11.1785 19.526 11.1784 18.9446C11.1792 18.2087 11.4799 17.5031 12.0147 16.9827C12.5495 16.4622 13.2747 16.1695 14.0311 16.1686C14.325 16.1686 14.6067 16.2159 14.8728 16.2971V12.9261C14.594 12.8877 14.3127 12.8678 14.0311 12.8665C13.9815 12.8665 13.9329 12.8692 13.8839 12.8701V15.4593C13.6116 15.375 13.3278 15.3317 13.0421 15.3308Z" fill="#FF004F"/>
<path fill-rule="evenodd" clip-rule="evenodd" d="M24.0122 10.3066V12.8728C22.2523 12.8728 20.6221 12.3252 19.2906 11.3955V18.1059C19.2906 21.4571 16.4889 24.1835 13.0446 24.1835C11.7136 24.1835 10.4793 23.775 9.46484 23.0818C10.0481 23.6937 10.7549 24.1819 11.5411 24.5156C12.3273 24.8494 13.1758 25.0215 14.0335 25.0213C17.4779 25.0213 20.2801 22.2949 20.2801 18.9441V12.2338C21.6556 13.1962 23.3074 13.713 25.0016 13.7111V10.4085C24.6619 10.4085 24.3316 10.3727 24.0122 10.3062" fill="#FF004F"/>
<path fill-rule="evenodd" clip-rule="evenodd" d="M19.2902 18.1064V11.3961C20.6657 12.3586 22.3176 12.8754 24.0118 12.8734V10.3072C23.0129 10.0975 22.1108 9.57839 21.4408 8.82757C20.9043 8.48801 20.4441 8.04603 20.0882 7.52838C19.7324 7.01073 19.4882 6.4282 19.3704 5.81604H16.8858L16.8806 19.0489C16.8235 20.5307 15.5699 21.7202 14.0331 21.7202C13.581 21.7198 13.1355 21.6146 12.7334 21.4134C12.3313 21.2123 11.9842 20.9209 11.7207 20.5634C11.2599 20.3283 10.8739 19.9752 10.6043 19.5422C10.3348 19.1091 10.1921 18.6127 10.1916 18.1064C10.1924 17.3705 10.4932 16.665 11.028 16.1447C11.5628 15.6244 12.2879 15.3317 13.0442 15.3308C13.3377 15.3308 13.6194 15.3777 13.8859 15.4594V12.8702C10.5095 12.9473 7.78711 15.6412 7.78711 18.9447C7.78711 20.5422 8.42502 21.9966 9.46446 23.0827C10.5123 23.8005 11.7628 24.1852 13.0442 24.1841C16.4886 24.1841 19.2902 21.4576 19.2902 18.1064Z" fill="white"/>
</svg>
