<svg width="19" height="18" viewBox="0 0 19 18" fill="none" xmlns="http://www.w3.org/2000/svg">
<path d="M4.74984 4.5V13.35C4.74984 14.1901 4.74984 14.6098 4.92241 14.9307C5.07421 15.2129 5.31625 15.4429 5.61418 15.5867C5.95254 15.75 6.39571 15.75 7.28072 15.75H11.7189C12.604 15.75 13.0465 15.75 13.3849 15.5867C13.6828 15.4429 13.9256 15.2129 14.0774 14.9307C14.2498 14.6101 14.2498 14.1908 14.2498 13.3523V4.5M4.74984 4.5H6.33317M4.74984 4.5H3.1665M6.33317 4.5H12.6665M6.33317 4.5C6.33317 3.80109 6.33317 3.4518 6.45369 3.17615C6.61439 2.80861 6.92242 2.51642 7.31038 2.36418C7.60135 2.25 7.97043 2.25 8.70817 2.25H10.2915C11.0292 2.25 11.3981 2.25 11.6891 2.36418C12.077 2.51642 12.3852 2.80861 12.5459 3.17615C12.6664 3.4518 12.6665 3.80109 12.6665 4.5M12.6665 4.5H14.2498M14.2498 4.5H15.8332" stroke="#2468FF" stroke-linecap="round" stroke-linejoin="round"/>
</svg>
