<svg width="51" height="66" viewBox="0 0 51 66" fill="none" xmlns="http://www.w3.org/2000/svg">
<g clip-path="url(#clip0_292_5820)">
<g opacity="0.2">
<path d="M26.0091 65.9999C15.8832 65.9999 7.67447 64.8963 7.67447 63.535C7.67447 62.1736 15.8832 61.0701 26.0091 61.0701C36.1351 61.0701 44.3438 62.1736 44.3438 63.535C44.3438 64.8963 36.1351 65.9999 26.0091 65.9999Z" fill="black"/>
</g>
<path d="M32.0852 45.6374C33.2689 43.1231 37.3321 42.0108 38.1989 45.7198C38.9504 48.9361 35.2223 50.8522 32.3515 50.2625C31.3139 50.0494 30.627 48.7351 32.0854 45.6374H32.0852Z" fill="black"/>
<g opacity="0.2">
<path d="M32.3512 50.262C35.2218 50.8518 38.9501 48.936 38.199 45.7199C37.8827 44.367 37.142 43.6554 36.2697 43.4207C36.2921 43.4956 36.2725 43.5952 36.3308 43.6521C39.1233 46.3735 36.2086 49.9603 33.6553 46.3286C32.6743 46.9796 32.4758 48.3568 31.262 48.2926C31.1588 49.53 31.6829 50.1253 32.3512 50.262Z" fill="black"/>
</g>
<path d="M33.42 50.7091C34.9869 50.7091 36.589 50.099 37.5849 49.0639C38.489 48.1242 38.8239 46.9088 38.5278 45.6414C38.0368 43.5402 36.6736 43.0882 35.9047 43.0058C34.2996 42.8342 32.5273 43.9028 31.7794 45.4911C30.9094 47.3389 30.6894 48.7993 31.1429 49.7145C31.3735 50.1795 31.7784 50.4926 32.2835 50.5965C32.6539 50.6724 33.036 50.7091 33.42 50.7091ZM35.5656 43.6698C35.6556 43.6698 35.7447 43.6743 35.8333 43.6839C36.555 43.7612 37.4939 44.1908 37.8696 45.7976C38.179 47.1218 37.6216 48.0467 37.0995 48.5892C36.0112 49.7201 34.0867 50.2706 32.4188 49.9282C32.1133 49.8654 31.8877 49.691 31.7483 49.4097C31.5445 48.9982 31.3567 47.9799 32.3907 45.7835C32.9692 44.5547 34.3232 43.6698 35.5658 43.6698H35.5656Z" fill="black"/>
<g opacity="0.3">
<path d="M33.8709 45.1018C33.9852 44.6812 35.1802 43.9629 36.1814 44.4458C37.272 44.972 36.1891 45.102 35.4627 45.2431C34.7199 45.3874 33.7567 45.5225 33.8709 45.1018Z" fill="white"/>
</g>
<path d="M34.3905 44.106C35.7169 46.3646 37.0341 52.2786 37.688 56.1566C37.688 56.1566 38.7078 56.1627 39.3901 57.0001C39.9397 57.6745 40.156 59.0159 38.7076 59.6075C37.4968 60.1019 34.343 61.6251 32.8782 60.7724C30.2161 59.2228 29.2331 53.3841 26.7836 51.5078L34.3907 44.106H34.3905Z" fill="#686779"/>
<path d="M26.7835 51.5077C29.2332 53.3838 30.2157 59.2229 32.8775 60.7725C34.3429 61.625 37.4969 60.1016 38.7077 59.6073C40.1561 59.0158 39.9396 57.675 39.39 56.9999C38.7077 56.1628 37.6879 56.1569 37.6879 56.1569C37.5002 55.0393 37.2567 53.7522 36.9725 52.4327C36.5878 50.6341 36.1287 48.7751 35.6358 47.1998C35.2358 45.9194 34.8131 44.8268 34.3902 44.1064L26.7835 51.5079V51.5077Z" fill="black"/>
<g opacity="0.2">
<path d="M26.7835 51.5075C29.2332 53.3836 30.2157 59.2227 32.8775 60.7723C34.3429 61.6248 37.4969 60.1014 38.7077 59.6071C40.1561 59.0156 39.9396 57.6748 39.39 56.9997C38.7077 56.1626 37.6879 56.1567 37.6879 56.1567C37.5002 55.0391 37.2567 53.752 36.9725 52.4325C35.7499 53.4596 33.9792 54.7519 32.5704 54.9923C29.9432 55.4407 30.6477 53.6242 31.2827 52.9858C31.8239 52.4419 35.2704 50.444 35.6358 47.1998C35.2358 45.9194 34.8131 44.8268 34.3902 44.1064L26.7835 51.5079V51.5075Z" fill="black"/>
</g>
<path d="M33.9956 61.3636C35.4512 61.3636 37.2765 60.5855 38.3847 60.1131C38.5541 60.041 38.7057 59.9762 38.835 59.9234C39.6868 59.5756 39.9889 59.0133 40.0925 58.6027C40.274 57.883 39.9838 57.191 39.6518 56.7836C39.1051 56.1127 38.3762 55.9068 37.9784 55.8437C37.3864 52.4113 36.0738 46.3018 34.6823 43.9324L34.1002 44.2798C35.3047 46.3309 36.6031 51.7516 37.3552 56.2138C37.3826 56.3768 37.5224 56.4966 37.6865 56.4976C37.6936 56.4976 38.5612 56.5195 39.1292 57.2165C39.3459 57.4824 39.5567 57.961 39.4371 58.4347C39.3424 58.8098 39.0543 59.098 38.581 59.2914C38.4491 59.3452 38.2943 59.4113 38.1213 59.4851C36.8514 60.0264 34.2089 61.1531 33.0478 60.4771C31.7391 59.7153 30.814 57.7359 29.9193 55.8217C29.0818 54.0293 28.2156 52.1759 26.9886 51.2364L26.5795 51.7795C27.6745 52.6182 28.5047 54.3945 29.3076 56.1125C30.2465 58.1218 31.2175 60.1992 32.7097 61.0678C33.0713 61.2783 33.5134 61.3638 33.9958 61.3638L33.9956 61.3636Z" fill="black"/>
<path d="M35.5541 58.3788C36.1773 58.6883 36.6935 59.4814 36.2739 60.1357C36.1482 60.3307 35.9544 60.5033 35.7407 60.6593C35.6284 60.7387 35.6023 60.8957 35.683 61.0075C35.7573 61.1108 35.8971 61.1387 36.0045 61.0769C36.4114 60.8479 36.8277 60.4517 36.93 59.9494C37.097 59.1163 36.4707 58.1749 35.6063 58.1368C35.4665 58.1313 35.4271 58.325 35.5541 58.3788Z" fill="#232333"/>
<path d="M37.5735 57.6076C38.1967 57.9173 38.713 58.7102 38.2934 59.3645C38.1675 59.5594 37.9739 59.732 37.7602 59.8881C37.6481 59.9674 37.6218 60.1245 37.7025 60.2363C37.7768 60.3395 37.9166 60.3674 38.0241 60.3056C38.431 60.0766 38.8474 59.6804 38.9494 59.1781C39.1167 58.345 38.4901 57.4037 37.6257 57.3656C37.486 57.36 37.4466 57.5537 37.5735 57.6076Z" fill="#232333"/>
<path d="M30.911 60.353C30.8912 61.0923 31.0729 62.4514 31.4953 62.7962C32.1819 63.3572 34.4527 63.0772 36.3171 62.8191C38.885 62.4637 41.0203 61.808 41.7202 61.2997C42.2596 60.7851 41.8474 59.3297 41.4039 58.5608" fill="white"/>
<path d="M31.0298 61.6852C31.1245 62.1749 31.2777 62.619 31.4942 62.7959C32.1811 63.357 34.452 63.0774 36.3165 62.8193C38.8848 62.4639 41.0201 61.8082 41.72 61.3001C41.8715 61.1556 41.9474 60.9382 41.9688 60.6816C41.1041 61.2012 38.9615 61.8331 36.4187 62.1851C34.4499 62.4573 32.0536 62.7529 31.3282 62.1609C31.2113 62.0655 31.1125 61.897 31.03 61.6854L31.0298 61.6852Z" fill="#E8E8E8"/>
<path d="M33.0875 63.3794C34.0081 63.3794 35.1552 63.2379 36.3502 63.0723C38.7959 62.7336 41.0645 62.0901 41.867 61.5069C41.8761 61.5001 41.8848 61.4929 41.8931 61.4851C42.5485 60.8599 42.1187 59.2935 41.6217 58.4319C41.5513 58.3097 41.3959 58.2684 41.2749 58.3394C41.1539 58.4104 41.1127 58.567 41.1831 58.689C41.6452 59.49 41.9097 60.7349 41.5554 61.1027C40.9125 61.5573 38.9055 62.2023 36.2814 62.5654C34.8871 62.7583 32.2913 63.1177 31.6537 62.5971C31.3555 62.3533 31.1416 61.1736 31.1634 60.3594C31.1671 60.2183 31.0566 60.1007 30.9166 60.0969C30.777 60.0969 30.66 60.2046 30.6562 60.3457C30.639 60.9879 30.7859 62.5465 31.3344 62.9945C31.6784 63.2758 32.3002 63.3794 33.0877 63.3794H33.0875Z" fill="black"/>
<path d="M29.7831 56.9629C29.8956 57.2322 30.0559 57.5554 30.2064 57.9712C32.4948 57.2102 36.2017 55.246 38.2969 54.1091C38.0768 53.4971 37.7838 52.879 37.1523 52.6514C36.939 52.5744 35.9749 52.4642 33.8645 53.8349C31.2385 55.5408 29.9336 55.8184 29.7958 55.9861C29.5573 56.2781 29.6168 56.5609 29.7831 56.9631V56.9629Z" fill="#FFCE31"/>
<path d="M9.82382 45.4021C9.82382 45.4021 8.79492 47.4016 11.7741 48.5969C15.2558 49.9929 18.2229 46.0916 14.4296 41.8863C14.4296 41.8863 14.7625 41.202 16.1534 40.6629L18.4598 36.0387L19.9375 33.0757C19.9375 33.0757 17.402 33.4972 15.0872 34.718C14.9193 34.8065 14.7532 34.8992 14.5889 34.9963C13.2739 35.7724 3.40463 42.015 9.82382 45.4021Z" fill="#686779"/>
<path d="M9.82362 45.4019C9.82362 45.4019 8.79531 47.4016 11.7743 48.5967C15.2564 49.9928 18.2233 46.0915 14.4294 41.8866C14.4294 41.8866 14.7625 41.2022 16.1534 40.6627L18.4602 36.0384L18.6488 35.6599L19.9375 33.0754C19.9375 33.0754 17.4024 33.4974 15.0874 34.718C14.9199 34.8067 14.7534 34.8995 14.5893 34.9966C14.5421 35.0247 14.4828 35.0596 14.4134 35.1022C12.5802 36.2214 3.63734 42.138 9.82362 45.4019Z" fill="black"/>
<g opacity="0.2">
<path d="M14.4134 35.1024C15.7434 35.4094 17.1657 35.6011 18.6488 35.6599L19.9375 33.0754C19.9375 33.0754 17.4024 33.4974 15.0874 34.718C14.9199 34.8067 14.7534 34.8995 14.5893 34.9966C14.5421 35.0247 14.4828 35.0596 14.4134 35.1022V35.1024Z" fill="black"/>
</g>
<path d="M25.7093 34.9294C29.921 33.8485 33.2602 31.6912 34.8516 29.0547C32.4814 30.1926 29.6242 31.4311 26.7409 32.4191C25.9503 32.6901 25.6509 33.7122 25.7093 34.9294Z" fill="#545468"/>
<path d="M16.9659 35.5338C18.1903 35.6693 19.4679 35.7135 20.7794 35.6547C24.4213 35.4919 27.7359 34.5611 30.3242 33.1358C29.531 31.53 27.5703 29.0511 23.1369 29.606C18.165 30.2283 17.1638 33.8868 16.9661 35.5336L16.9659 35.5338Z" fill="#545468"/>
<g opacity="0.2">
<path d="M11.7764 48.5966C14.2488 49.588 16.4626 47.9078 16.1785 45.3438C16.1743 45.3063 16.1692 45.2697 16.164 45.2322C16.1599 45.1981 16.1547 45.164 16.1488 45.1292C16.1421 45.0839 16.1336 45.0389 16.1243 44.9936C15.9552 44.1216 15.5019 43.1627 14.6843 42.1799C13.9552 43.7407 13.8911 45.2589 13.8077 47.4017C13.7875 47.9185 12.776 48.0539 12.4039 47.9745C10.5072 47.5705 11.5482 45.8154 11.5482 45.8154C11.5482 45.8154 10.7018 45.6799 9.81305 45.3934C9.8172 45.396 9.82155 45.3994 9.8257 45.402C9.8257 45.402 8.79739 47.4025 11.7764 48.5968V48.5966Z" fill="black"/>
</g>
<g opacity="0.2">
<path d="M14.1734 41.7728C14.1572 41.7539 14.2737 41.7896 14.4526 41.851C14.541 41.7053 14.9524 41.1296 16.1569 40.6625L16.6328 39.6039L16.5474 39.4429C16.395 38.9914 16.2071 38.7022 15.9867 38.6893C15.2451 38.6426 13.9884 40.6832 12.4053 40.5602C12.4053 40.5602 13.2373 40.9839 14.1736 41.7726L14.1734 41.7728Z" fill="black"/>
</g>
<path d="M13.1923 49.221C14.3024 49.221 15.3124 48.7315 15.935 47.8254C16.8112 46.55 16.9716 44.3309 14.8651 41.8662C15.0514 41.6585 15.4652 41.2962 16.2766 40.9815C16.451 40.9139 16.538 40.7166 16.4708 40.5408C16.4036 40.3652 16.208 40.2773 16.0336 40.3451C14.5618 40.9159 14.1678 41.6541 14.1277 41.7363C14.0664 41.8618 14.0875 42.0125 14.181 42.1159C16.2124 44.368 16.1317 46.3414 15.3788 47.4372C14.6467 48.5029 13.2814 48.8336 11.901 48.2803C10.9332 47.8922 10.3254 47.3856 10.0947 46.7745C9.85032 46.1275 10.1158 45.5804 10.1273 45.5575C10.21 45.3912 10.1463 45.1867 9.98298 45.1004C8.69942 44.4232 8.03708 43.5887 8.01414 42.62C7.95266 40.0086 12.401 36.6843 14.7615 35.2911C17.113 33.9035 19.9656 33.4178 19.994 33.413C20.1783 33.3823 20.3031 33.2069 20.2728 33.0211C20.2424 32.8354 20.069 32.7098 19.8841 32.7401C19.7625 32.7604 16.8783 33.2519 14.4199 34.7025C14.2079 34.8275 12.2982 35.9698 10.5053 37.5551C8.36865 39.4444 7.30296 41.1539 7.33796 42.6361C7.36524 43.7985 8.0614 44.7811 9.40823 45.5605C9.31708 45.8811 9.23938 46.4131 9.45726 47.0023C9.75462 47.8063 10.4927 48.4493 11.6513 48.9139C12.1677 49.1212 12.6905 49.2212 13.1927 49.2212L13.1923 49.221Z" fill="black"/>
<path d="M9.69791 45.7176C10.3005 45.8914 10.9095 45.9811 11.5329 45.9851C11.6266 45.9853 11.7029 45.9089 11.7031 45.8145C11.7033 45.73 11.6426 45.6596 11.5629 45.6455C11.2808 45.5896 11.0032 45.5137 10.7327 45.4178C10.472 45.3262 10.1938 45.212 9.95414 45.0866C9.50889 44.8743 9.23209 45.5538 9.69791 45.7176Z" fill="black"/>
<path d="M14.651 41.6284C13.9635 41.1363 13.2703 40.6452 12.4534 40.3979C12.3628 40.3742 12.2703 40.4288 12.2468 40.5201C12.2246 40.6052 12.2707 40.6921 12.35 40.7226C13.0525 41.051 13.6505 41.6127 14.2095 42.1452C14.5626 42.4709 15.0235 41.9336 14.651 41.6284Z" fill="black"/>
<path d="M26.7431 32.4195C33.3264 30.1629 39.7741 26.6034 40.5982 25.9176C40.7664 25.4486 41.1901 24.8493 41.6233 24.621C42.1407 24.3486 42.858 24.4983 43.3681 25.267C44.0855 24.6272 45.3384 24.3195 46.0355 24.8885C46.4288 25.2096 46.5877 25.6435 46.5986 26.0318C47.7797 26.1717 48.2153 27.4658 47.7612 28.4735C48.0554 29.6608 47.589 30.9914 45.7037 31.8092C39.537 36.7524 33.3828 39.0488 29.3257 40.1042C26.4292 40.8576 24.365 33.2345 26.7431 32.4193V32.4195Z" fill="black"/>
<g opacity="0.2">
<path d="M25.7093 34.9294C29.921 33.8485 33.2602 31.6912 34.8516 29.0547C32.4814 30.1926 29.6242 31.4311 26.7409 32.4191C25.9503 32.6901 25.6509 33.7122 25.7093 34.9294Z" fill="black"/>
</g>
<g opacity="0.2">
<path d="M30.8037 34.4177C31.2494 36.6135 27.6786 40.5322 29.325 40.1043C33.3821 39.0489 39.5362 36.7526 45.7029 31.8095C46.0665 31.6518 46.3777 31.4745 46.6406 31.2827C45.7485 31.5205 44.4312 31.7405 43.2836 31.4115C43.2836 31.4115 35.7222 38.3248 30.8037 34.4177Z" fill="black"/>
</g>
<path d="M28.9165 40.4985C29.0772 40.4985 29.2415 40.4778 29.4088 40.4344C33.5052 39.3688 39.6848 37.0586 45.878 32.1041C47.6015 31.3407 48.4295 30.004 48.1139 28.5043C48.3579 27.8775 48.321 27.1598 48.0101 26.6043C47.766 26.168 47.3804 25.8694 46.9077 25.7445C46.8312 25.3046 46.6024 24.9135 46.2471 24.6235C45.4788 23.9965 44.2646 24.2133 43.4275 24.7886C42.8043 24.0824 42.0174 24.0282 41.4654 24.3188C40.9668 24.5813 40.5227 25.1972 40.3149 25.707C39.2386 26.522 32.9663 29.9256 26.6329 32.0965C25.1739 32.5966 25.1338 34.9326 25.7139 36.8912C26.2697 38.7675 27.4471 40.4985 28.9163 40.4985H28.9165ZM45.1026 24.9317C45.3788 24.9317 45.6328 24.9992 45.8214 25.1533C46.1892 25.4535 46.2537 25.8383 46.2592 26.0412C46.2639 26.2105 46.3911 26.3506 46.5577 26.3703C47.0398 26.4275 47.2932 26.7113 47.421 26.9393C47.6462 27.3416 47.658 27.8755 47.4518 28.3325C47.4202 28.4027 47.413 28.4814 47.4316 28.5562C47.6096 29.2751 47.6044 30.6129 45.5688 31.4962C45.5413 31.5082 45.5154 31.5237 45.4919 31.5425C39.3801 36.4417 33.2806 38.7231 29.2399 39.774C27.9858 40.1003 26.8692 38.4074 26.3622 36.6961C25.8618 35.0063 25.9077 33.0654 26.8508 32.7421C33.4056 30.4953 39.9375 26.9082 40.8122 26.1802C40.8588 26.1413 40.8942 26.0907 40.915 26.0333C41.0544 25.6446 41.4243 25.1097 41.7786 24.9231C42.1042 24.7515 42.6424 24.7882 43.0857 25.4563C43.1399 25.538 43.2266 25.5922 43.3235 25.6047C43.421 25.6173 43.5179 25.5872 43.591 25.522C43.9859 25.1698 44.5838 24.9317 45.1028 24.9317H45.1026Z" fill="black"/>
<path d="M43.0786 29.269C43.407 29.7667 43.688 30.7865 44.431 30.2739C45.174 29.7615 45.364 28.7388 44.8557 27.9898C44.3472 27.2408 43.3329 27.0492 42.5899 27.5617C41.8469 28.0741 42.7237 28.731 43.0786 29.269Z" fill="white"/>
<path d="M41.7954 26.8056C41.5419 26.5501 41.5419 26.1359 41.7954 25.8805C42.0488 25.625 42.4596 25.625 42.713 25.8805C42.9664 26.1359 42.9664 26.5501 42.713 26.8056C42.4596 27.061 42.0488 27.061 41.7954 26.8056Z" fill="white"/>
<path d="M44.5055 26.7128C44.27 26.4405 44.2981 26.0273 44.5682 25.7899C44.8384 25.5525 45.2483 25.5808 45.4838 25.8531C45.7193 26.1254 45.6912 26.5386 45.421 26.776C45.1509 27.0134 44.741 26.9851 44.5055 26.7128Z" fill="white"/>
<path d="M45.7345 27.9035C45.6258 27.5592 45.8145 27.1913 46.1559 27.0817C46.4974 26.9721 46.8624 27.1623 46.9711 27.5066C47.0798 27.8508 46.8911 28.2187 46.5497 28.3283C46.2082 28.4379 45.8432 28.2477 45.7345 27.9035Z" fill="white"/>
<path d="M45.7641 30.0692C45.5107 29.8138 45.5107 29.3996 45.7641 29.1441C46.0175 28.8887 46.4284 28.8887 46.6818 29.1441C46.9352 29.3996 46.9352 29.8138 46.6818 30.0692C46.4284 30.3247 46.0175 30.3247 45.7641 30.0692Z" fill="white"/>
<path d="M15.5318 48.7083C15.0632 51.0516 15.2666 55.332 15.7293 59.8121C15.7293 59.8121 14.7674 60.1535 14.3935 61.1694C14.0924 61.9878 14.3222 63.3268 15.8829 63.4095C17.1874 63.4785 20.7081 63.9195 21.7703 62.5923C23.0568 60.9851 22.878 57.0648 24.2031 51.5082L15.5318 48.7083Z" fill="#686779"/>
<path d="M15.8827 63.4098C17.1874 63.4787 20.7083 63.9194 21.7705 62.5924C22.4654 61.723 22.7327 60.1775 23.0414 58.0628C23.3035 56.2668 23.5944 54.0608 24.2031 51.5086L15.5318 48.7085C15.4311 49.2124 15.3609 49.8063 15.3186 50.473C15.163 52.9024 15.3669 56.2957 15.7295 59.812C15.7295 59.812 14.7672 60.1538 14.3935 61.1699C14.0924 61.9883 14.3226 63.3272 15.8825 63.41L15.8827 63.4098Z" fill="black"/>
<g opacity="0.2">
<path d="M21.6732 54.7742C22.134 55.8772 19.9406 55.9804 19.9406 55.9804L19.7986 57.6843C19.7986 57.6843 21.5937 57.8872 23.0414 58.0628C23.3035 56.2668 23.5944 54.0608 24.2031 51.5086L15.5318 48.7085C15.4311 49.2124 15.3609 49.8063 15.3186 50.473C16.5625 53.5424 21.2242 53.6985 21.673 54.7742H21.6732Z" fill="black"/>
</g>
<path d="M18.4001 63.878C19.8326 63.878 21.3352 63.6779 22.0327 62.8065C22.8453 61.7912 23.101 60.0176 23.4549 57.5626C23.692 55.9175 23.9869 53.8702 24.5312 51.5879L23.8737 51.4284C23.322 53.741 23.0247 55.8055 22.7856 57.4644C22.4473 59.8119 22.2028 61.508 21.5064 62.378C20.6804 63.4104 17.824 63.2044 16.4513 63.1055C16.2417 63.0904 16.0554 63.077 15.9 63.0686C15.3899 63.0417 15.0246 62.8641 14.8134 62.5407C14.5471 62.1323 14.5912 61.6105 14.71 61.2878C15.0212 60.4419 15.8344 60.136 15.8425 60.133C15.9884 60.0795 16.0811 59.9323 16.0651 59.7766C15.5299 54.5941 15.4599 50.79 15.8627 48.7754L15.1995 48.6406C14.7839 50.7193 14.8405 54.4073 15.3674 59.6038C15.0143 59.7905 14.3792 60.2256 14.0757 61.0506C13.8938 61.5451 13.8436 62.2947 14.2483 62.9152C14.4791 63.2689 14.9469 63.701 15.8644 63.7497C16.0161 63.7576 16.1982 63.7708 16.4028 63.7856C16.9764 63.827 17.6795 63.8776 18.4003 63.8776L18.4001 63.878Z" fill="black"/>
<path d="M18.2843 60.8794C17.316 61.2559 17.1302 62.7698 17.9776 63.3756C18.2485 63.5795 18.5529 63.6827 18.8487 63.7397C18.982 63.7654 19.1107 63.6773 19.1362 63.5428C19.1603 63.4158 19.0834 63.2928 18.9628 63.2582C18.7157 63.1822 18.482 63.0848 18.3044 62.9454C17.7103 62.4755 17.9373 61.5802 18.4118 61.091C18.5146 60.9976 18.4126 60.8284 18.2841 60.8796L18.2843 60.8794Z" fill="#232333"/>
<path d="M16.1671 60.8164C15.1989 61.1929 15.013 62.7069 15.8604 63.3126C16.1313 63.5165 16.4358 63.6197 16.7315 63.6767C16.8648 63.7024 16.9937 63.6143 17.019 63.4798C17.0431 63.3528 16.9662 63.2299 16.8456 63.1952C16.5985 63.1192 16.3648 63.0218 16.187 62.8825C15.5929 62.4125 15.8199 61.5172 16.2944 61.0281C16.3972 60.9346 16.2952 60.7654 16.1667 60.8166L16.1671 60.8164Z" fill="#232333"/>
<path d="M17.927 59.7966C16.9246 59.5511 15.8079 59.4112 14.862 59.9457C14.4826 60.1845 14.815 60.7549 15.2071 60.5355C15.5483 60.2409 16.0058 60.0796 16.4625 60.0085C16.9293 59.9324 17.4209 59.9226 17.8938 59.9638C17.9958 59.9778 18.0275 59.8235 17.9272 59.7966H17.927Z" fill="#232333"/>
<path d="M16.6255 51.4763C16.6255 51.4763 17.4282 52.0928 19.0278 52.7673C20.4398 53.3626 21.7376 53.5175 21.7376 53.5175C23.3318 53.7299 24.7555 53.6759 25.4094 53.6072C26.0591 53.539 27.4508 53.2992 28.9568 52.7671C28.9568 52.7671 30.3117 52.3164 31.8216 51.3573C32.8369 50.7124 33.5698 49.6999 33.5698 49.6999C35.4465 47.1082 35.318 44.3358 34.5885 41.6528C34.1545 40.0581 33.2537 38.3116 32.4383 36.9337C31.5711 35.466 30.802 34.4176 30.802 34.4176L23.1341 29.6062L16.9162 36.3368C16.7728 37.0415 16.4757 37.9331 16.1372 38.94C14.8773 42.6954 13.0574 48.0713 16.6255 51.4763Z" fill="white"/>
<g opacity="0.2">
<path d="M14.5388 46.1196C14.5244 48.0836 15.0495 49.9725 16.6257 51.4761C16.6257 51.4761 17.4282 52.0932 19.0279 52.7675C20.44 53.3624 21.738 53.5177 21.738 53.5177C23.332 53.7299 24.7559 53.6761 25.4095 53.6072C26.059 53.539 27.4507 53.2994 28.9567 52.7675C28.9567 52.7675 30.3123 52.3166 31.8216 51.3575C32.8371 50.7124 33.5702 49.6996 33.5702 49.6996C35.1531 47.5132 35.3095 45.1982 34.8808 42.9163C34.8893 44.5307 32.8464 51.1369 25.2051 51.5885C17.5286 52.0422 14.8156 47.3384 14.5392 46.1196H14.5388Z" fill="black"/>
</g>
<path d="M16.1403 38.94C22.9337 40.7572 29.174 38.5267 32.4414 36.9338C31.5742 35.466 30.8051 34.4177 30.8051 34.4177C30.8051 34.4177 29.5906 28.7986 23.1372 29.6063C16.6838 30.4139 16.9193 36.3368 16.9193 36.3368C16.7759 37.0416 16.4787 37.9331 16.1403 38.94Z" fill="black"/>
<g opacity="0.2">
<path d="M16.9659 35.5338C18.1903 35.6693 19.4679 35.7135 20.7794 35.6547C24.4213 35.4919 27.7359 34.5611 30.3242 33.1358C29.531 31.53 27.5703 29.0511 23.1369 29.606C18.165 30.2283 17.1638 33.8868 16.9661 35.5336L16.9659 35.5338Z" fill="black"/>
</g>
<path d="M33.7067 49.8003C34.6328 48.7178 35.2305 47.3296 35.3819 45.9015C35.6661 43.1257 34.6451 40.1524 33.3063 37.7662C32.6139 36.5488 31.8367 35.3902 30.9383 34.3167C30.8049 34.1623 30.5538 34.3373 30.6665 34.5194C31.3757 35.6974 32.0669 36.8891 32.7045 38.0985C33.3251 39.3037 33.9307 40.5321 34.2872 41.8408C35.0148 44.4964 34.9122 47.2349 33.4333 49.5996C33.3263 49.772 33.5683 49.9615 33.7065 49.8007L33.7067 49.8003Z" fill="black"/>
<path d="M21.7161 53.6867C23.5307 54.1102 25.4754 54.1122 27.2689 53.583C27.8675 53.4156 28.4544 53.2025 29.0135 52.9285C29.0981 52.887 29.1333 52.7844 29.0922 52.6991C29.057 52.6261 28.9769 52.5895 28.9016 52.6068C27.725 52.8655 26.5535 53.1324 25.3613 53.2711C24.1742 53.3863 22.9607 53.3725 21.7603 53.3488C21.5607 53.344 21.5197 53.6386 21.7159 53.6869L21.7161 53.6867Z" fill="black"/>
<path d="M16.7533 36.3026C16.3573 37.5643 15.8227 38.7916 15.4069 40.0555C14.1807 43.7645 13.042 48.7502 16.5121 51.6002C16.5845 51.66 16.6914 51.6492 16.7506 51.5761C16.8045 51.5095 16.8004 51.4141 16.7444 51.3527C16.3138 50.862 15.9476 50.329 15.6645 49.7584C13.8861 46.0791 15.5752 42.0051 16.6432 38.3547C16.8261 37.7096 16.9967 37.0522 17.0845 36.371C17.0966 36.2773 17.0311 36.1916 16.9382 36.1794C16.8536 36.1683 16.7755 36.2225 16.7531 36.3026H16.7533Z" fill="black"/>
<path d="M29.7098 57.2618C29.8425 57.5801 30.0424 57.9729 30.2136 58.5045C30.2211 58.529 30.2286 58.5535 30.2371 58.5791V58.5816C30.2808 58.7206 30.3219 58.8695 30.3589 59.0287C30.6217 60.1478 30.7199 61.212 31.1181 61.5853C31.302 61.7589 31.6951 61.835 32.2073 61.8512C32.5676 61.8629 32.9875 61.8444 33.4343 61.8071C34.0945 61.7529 34.8132 61.659 35.486 61.5667C35.4912 61.5659 35.4953 61.5651 35.5003 61.5651C35.6934 61.5388 35.8824 61.5127 36.0655 61.4872C38.6336 61.1316 40.9455 60.3274 41.645 59.8194C42.059 59.3707 42.0128 58.2889 41.4787 57.6437C40.8834 56.8961 39.2954 56.34 38.7645 55.6948C38.259 55.0801 38.2313 53.3666 37.079 52.9503C36.8657 52.8731 35.9016 52.7631 33.7912 54.1338C31.1652 55.8397 29.7167 55.8381 29.5791 56.0057C29.3407 56.2977 29.5437 56.8598 29.71 57.2618H29.7098Z" fill="white"/>
<path d="M29.7096 57.2618C29.7549 57.3718 29.8087 57.4904 29.8676 57.6208C29.9767 57.8679 30.1011 58.1567 30.2136 58.5045C30.2211 58.529 30.2286 58.5535 30.2371 58.5791V58.5816C30.2808 58.7206 30.3219 58.8695 30.3589 59.0287C30.6217 60.1478 30.7199 61.212 31.1181 61.5853C31.302 61.7589 31.6951 61.835 32.2073 61.8512C32.5676 61.8629 32.9875 61.8444 33.4343 61.8071C34.0945 61.7529 34.8132 61.659 35.486 61.5667C35.4912 61.5659 35.4953 61.5651 35.5003 61.5651C35.6934 61.5388 35.8824 61.5127 36.0655 61.4872C38.6336 61.1316 40.9455 60.3274 41.645 59.8194C42.059 59.3707 42.0128 58.2889 41.4787 57.6437C40.8834 56.8961 39.2954 56.34 38.7645 55.6948C38.4294 55.2876 38.3042 54.3995 37.9231 53.724C37.7291 53.3794 37.4687 53.0908 37.079 52.9503C36.8657 52.8731 35.9016 52.7631 33.7912 54.1338C31.1652 55.8397 29.7165 55.8379 29.5789 56.0055C29.3405 56.2975 29.5437 56.8598 29.71 57.2618H29.7096Z" fill="white"/>
<path d="M29.7096 57.2618C29.7549 57.3718 29.8087 57.4904 29.8676 57.6208C29.9767 57.8679 30.1011 58.1567 30.2136 58.5045C30.2211 58.529 30.2286 58.5535 30.2371 58.5791V58.5816C30.2808 58.7206 30.3219 58.8695 30.3589 59.0287C30.6217 60.1478 30.7199 61.212 31.1181 61.5853C31.302 61.7589 31.6951 61.835 32.2073 61.8512C32.5676 61.8629 32.9875 61.8444 33.4343 61.8071C34.0945 61.7529 34.8132 61.659 35.486 61.5667C35.4912 61.5659 35.4953 61.5651 35.5003 61.5651C35.6934 61.5388 35.8824 61.5127 36.0655 61.4872C38.6336 61.1316 40.9455 60.3274 41.645 59.8194C42.059 59.3707 42.0128 58.2889 41.4787 57.6437C40.8834 56.8961 39.2954 56.34 38.7645 55.6948C38.4294 55.2876 38.3042 54.3995 37.9231 53.724C37.7291 53.3794 37.4687 53.0908 37.079 52.9503C36.8657 52.8731 35.9016 52.7631 33.7912 54.1338C31.1652 55.8397 29.7165 55.8379 29.5789 56.0055C29.3405 56.2975 29.5437 56.8598 29.71 57.2618H29.7096Z" fill="white"/>
<path d="M29.7096 57.2615C29.7549 57.3719 29.8085 57.4907 29.8678 57.6208C29.9765 57.8682 30.1009 58.1562 30.2136 58.505C30.2211 58.5291 30.2284 58.554 30.2375 58.5789V58.5815C30.2812 58.721 30.3223 58.8695 30.3585 59.029C30.622 60.1479 30.7199 61.2122 31.1177 61.5857C31.3022 61.7591 31.695 61.8357 32.2071 61.8514C32.5678 61.863 32.9877 61.8448 33.4341 61.8074C34.0945 61.7534 34.8134 61.6587 35.4862 61.5666C35.4912 61.5658 35.4953 61.565 35.5003 61.565C35.693 61.5393 35.8824 61.5128 36.0651 61.4869C38.6334 61.1315 40.9449 60.3273 41.6448 59.8192C42.059 59.371 42.013 58.2893 41.4785 57.6435C41.234 57.3372 40.8239 57.0633 40.3876 56.8018C39.8573 56.4839 39.2883 56.1852 38.9357 55.8712C38.8707 55.8131 38.813 55.7543 38.7645 55.6953C38.4294 55.2877 38.3042 54.3995 37.923 53.7247C37.7295 53.3802 37.4685 53.0912 37.079 52.9501C36.8657 52.8738 35.9014 52.7634 33.7918 54.1338C31.1658 55.8398 29.7165 55.838 29.5789 56.0058C29.3401 56.298 29.5435 56.86 29.7098 57.2617L29.7096 57.2615Z" fill="white"/>
<path d="M33.5851 54.2632C33.7613 54.8028 34.1302 55.3009 34.4637 55.7583C35.2839 55.32 36.0727 54.8618 36.7578 54.4476L36.2003 52.9858C35.6674 53.1112 34.8819 53.4241 33.7891 54.1339C33.7561 54.1546 33.7241 54.1753 33.6921 54.1961C33.6559 54.2194 33.6205 54.2417 33.5851 54.2632Z" fill="#FFB522"/>
<path d="M34.1164 55.2684C34.3979 55.6818 34.7117 56.0661 34.9143 56.4214C35.2536 56.1825 35.5583 55.9268 35.8086 55.6569L35.5187 54.1335C35.0972 54.5511 34.6187 54.9296 34.1164 55.2682V55.2684Z" fill="#FFB522"/>
<path d="M35.8075 57.161L36.4819 58.6603C37.349 57.5513 39.2874 57.0191 40.3867 56.8017C39.8564 56.4838 39.2874 56.185 38.9349 55.8711L35.8075 57.161Z" fill="#E5E5E5"/>
<path d="M29.4721 56.4314C29.4893 56.7013 29.6063 57.0124 29.7101 57.2615C29.7554 57.3719 29.809 57.4907 29.8683 57.6209C29.977 57.8682 30.1014 58.1562 30.2141 58.505C30.2216 58.5292 30.2289 58.5541 30.238 58.579V58.5816C30.2817 58.7211 30.3228 58.8696 30.359 59.029C30.6226 60.148 30.7204 61.2123 31.1182 61.5858C31.3027 61.7592 31.6956 61.8357 32.2076 61.8515C32.5683 61.863 32.9882 61.8449 33.4346 61.8074C34.095 61.7534 34.8139 61.6588 35.4867 61.5667C35.4917 61.5659 35.4958 61.5651 35.5008 61.5651C35.6935 61.5394 35.8829 61.5129 36.0656 61.4869C38.6339 61.1316 40.9454 60.3273 41.6453 59.8193C41.8421 59.606 41.9352 59.2499 41.9203 58.8656C41.9089 58.8805 41.8972 58.8939 41.885 58.9071C41.1858 59.4151 38.8761 60.2345 36.3061 60.5755C29.6385 61.4586 31.4172 60.8244 29.4723 56.4316L29.4721 56.4314Z" fill="#E8E8E8"/>
<path d="M35.3291 61.5854C35.5159 61.5613 35.7022 61.5364 35.8841 61.5115C35.945 61.5031 36.0051 61.495 36.0652 61.4866C36.7075 61.3977 37.3333 61.2807 37.9221 61.148C38.0696 61.1139 38.2145 61.0798 38.3569 61.0451C38.4984 61.0094 38.6384 60.9738 38.7752 60.9373C38.9111 60.9008 39.0453 60.8633 39.1754 60.8253C39.9898 60.5887 40.6741 60.333 41.1484 60.104C41.1864 60.0856 41.2233 60.0675 41.2587 60.0492C41.3115 60.0218 41.3608 59.9951 41.407 59.9694C41.4375 59.9521 41.4679 59.9353 41.496 59.918C41.5379 59.8923 41.5759 59.8674 41.6113 59.8433C41.6227 59.8359 41.6344 59.8275 41.6451 59.8191C41.7143 59.7444 41.7702 59.6531 41.8131 59.5485C41.828 59.5136 41.8412 59.4771 41.8527 59.4397C41.9055 59.2678 41.9284 59.0703 41.9203 58.8652C41.9088 58.8802 41.8972 58.8935 41.8849 58.9067C41.1858 59.4147 38.8761 60.2341 36.306 60.5751C35.9956 60.6166 35.7024 60.6541 35.4273 60.6879C35.3459 61.0017 35.3022 61.3122 35.3293 61.5852L35.3291 61.5854Z" fill="#FFB522"/>
<path d="M33.4328 61.807C34.0932 61.753 34.8121 61.6583 35.4849 61.5663C35.4899 61.5655 35.494 61.5647 35.4989 61.5647C35.5245 61.5605 35.5508 61.5563 35.5765 61.5531C35.7427 61.2675 35.891 60.9412 36.0195 60.6125C35.2166 60.7172 34.543 60.7977 33.975 60.8499C33.8136 61.182 33.6333 61.5075 33.4332 61.807H33.4328Z" fill="#FFB522"/>
<path d="M29.4712 56.4314C29.4884 56.7013 29.6054 57.0124 29.7092 57.2615C29.7545 57.3719 29.8081 57.4907 29.8674 57.6209C29.9761 57.8682 30.1005 58.1562 30.2132 58.505C30.2207 58.5292 30.228 58.5541 30.2371 58.579V58.5816C30.2808 58.7211 30.3219 58.8696 30.3581 59.029C30.6217 60.148 30.7195 61.2123 31.1174 61.5858C31.3018 61.7592 31.6947 61.8357 32.2068 61.8515C32.5237 61.8224 32.8359 61.7943 33.0977 61.7867C32.8762 61.5328 32.6949 61.2207 32.5361 60.9159C30.9115 60.8677 30.788 60.2088 30.2733 58.5884C30.0881 58.0014 29.85 57.2884 29.4712 56.4318V56.4314Z" fill="#FFB522"/>
<path d="M29.7088 57.2614C29.7541 57.371 29.8077 57.4888 29.8652 57.6192C29.866 57.62 29.8668 57.62 29.8668 57.6208C32.2548 57.1859 36.0436 54.9205 37.9219 53.7242C37.9096 53.7027 37.8972 53.682 37.8849 53.6602C37.8469 53.5971 37.8058 53.5365 37.7631 53.4777C37.7342 53.4394 37.7038 53.4013 37.6726 53.3657C37.6569 53.3473 37.6405 53.3292 37.6239 53.3116C37.6099 53.2967 37.5951 53.2817 37.5802 53.2676C37.567 53.2542 37.5539 53.2419 37.5407 53.2303C37.5292 53.2196 37.5168 53.2088 37.5045 53.1988C37.3817 53.0942 37.2409 53.0087 37.078 52.9499C36.8647 52.8736 35.9004 52.7631 33.7908 54.1336C33.7578 54.1543 33.7258 54.1751 33.6938 54.1958C31.127 55.8311 29.6268 55.5182 29.4751 55.6701C28.9589 56.1865 29.5427 56.8596 29.709 57.2614H29.7088Z" fill="#2468FF"/>
<g opacity="0.2">
<path d="M33.5851 54.2632C33.7613 54.8028 34.1302 55.3009 34.4637 55.7583C35.2839 55.32 36.0727 54.8618 36.7578 54.4476L36.2003 52.9858C35.6674 53.1112 34.8819 53.4241 33.7891 54.1339C33.7561 54.1546 33.7241 54.1753 33.6921 54.1961C33.6559 54.2194 33.6205 54.2417 33.5851 54.2632Z" fill="black"/>
</g>
<g opacity="0.7">
<path d="M29.298 56.3859C29.3292 56.2896 29.3852 56.1949 29.4749 56.1052C29.6264 55.9534 31.1268 56.2663 33.6936 54.6309C33.7256 54.6102 33.7578 54.5895 33.7906 54.5687C35.9002 53.1983 36.8645 53.3087 37.0778 53.385C37.2409 53.444 37.3817 53.5295 37.5043 53.634C37.5166 53.6439 37.529 53.6547 37.5405 53.6655C37.5537 53.677 37.5668 53.6896 37.58 53.7027C37.5949 53.7169 37.6097 53.7318 37.6237 53.7468C37.6401 53.7641 37.6567 53.7825 37.6724 53.8008C37.688 53.8181 37.7028 53.8365 37.7176 53.8548C37.7876 53.81 37.856 53.7669 37.9219 53.7245C37.9096 53.7029 37.8972 53.6822 37.8849 53.6605C37.8469 53.5973 37.8058 53.5367 37.7631 53.4779C37.7342 53.4396 37.7038 53.4016 37.6726 53.3659C37.6569 53.3476 37.6405 53.3294 37.6239 53.3119C37.6099 53.2969 37.5951 53.282 37.5802 53.2678C37.567 53.2545 37.5539 53.2421 37.5407 53.2306C37.5292 53.2198 37.5168 53.209 37.5045 53.1991C37.3817 53.0944 37.2409 53.0089 37.078 52.9501C36.8647 52.8738 35.9004 52.7634 33.7908 54.1338C33.7578 54.1546 33.7258 54.1753 33.6938 54.196C31.127 55.8314 29.6268 55.5185 29.4751 55.6703C29.2545 55.8912 29.2347 56.1409 29.2982 56.3859H29.298Z" fill="white"/>
</g>
<path d="M8.80937 12.931C10.9502 10.1404 10.4073 8.32648 9.48852 7.25298C8.32793 5.89686 6.5062 4.47019 4.26926 5.08806C1.08171 5.96862 -0.642756 9.12612 0.928282 12.0351C1.86703 13.7733 3.25775 14.6006 4.47784 14.9881C5.8482 15.4232 7.22291 14.9988 8.80937 12.931Z" fill="black"/>
<g opacity="0.2">
<path d="M8.81338 12.9307C7.22652 14.9986 5.85142 15.4231 4.48185 14.988C3.26097 14.6002 1.87084 13.773 0.931894 12.0348C0.911135 11.9958 0.890372 11.9575 0.870403 11.9182C1.44733 12.5333 2.42464 13.145 3.83197 12.5981C5.52005 11.9423 6.47165 7.94773 9.27781 7.00977C9.35195 7.09128 9.42352 7.1724 9.49233 7.25293C10.4111 8.32582 10.9542 10.1396 8.81338 12.9307Z" fill="black"/>
</g>
<g opacity="0.3">
<path d="M10.4922 8.6213C9.30195 7.11151 7.2732 5.29897 4.73376 6.00095C2.07727 6.73561 0.389975 8.97847 0.6387 11.3997C-0.385263 8.6813 1.3131 5.90528 4.26913 5.0885C7.33311 4.24242 9.6179 7.2313 10.4922 8.6215V8.6213Z" fill="white"/>
</g>
<path d="M10.5898 8.45962C9.82429 6.73697 8.12968 5.10819 6.26741 4.67768C5.26994 4.44548 4.22225 4.63562 3.29754 5.05139C1.45445 5.84325 -0.00764751 7.67453 0.00204086 9.75097C-0.0191145 11.2857 0.75731 12.7159 1.80717 13.7797C2.87127 14.8328 4.31953 15.4505 5.78558 15.6113C6.23063 15.6494 6.30497 14.9981 5.86288 14.9339C4.52713 14.785 3.24198 14.2399 2.2803 13.2923C0.635912 11.647 0.0554199 9.28836 1.51613 7.31617C2.2973 6.2636 3.55852 5.55086 4.83912 5.34019C6.16459 5.14646 7.41079 5.75735 8.41024 6.6407C9.10144 7.25378 9.67719 7.95875 10.3055 8.64399C10.4309 8.78809 10.6685 8.63542 10.5898 8.45942V8.45962Z" fill="black"/>
<path d="M29.4532 9.87581C26.6071 7.82309 26.61 5.92863 27.184 4.6341C27.909 2.99895 29.2473 1.10468 31.5659 1.04848C34.8699 0.968553 37.4218 3.49324 36.7464 6.73465C36.3427 8.67157 35.2466 9.86684 34.1886 10.5913C33.0002 11.4051 31.5624 11.397 29.4534 9.87581H29.4532Z" fill="#686779"/>
<path d="M29.4523 9.87622C31.5617 11.3972 32.9999 11.4053 34.1876 10.592C35.2463 9.86685 36.3421 8.67178 36.746 6.73486C36.7549 6.69141 36.7638 6.64876 36.7717 6.60531C36.7717 6.60451 36.7715 6.60352 36.7723 6.60352C37.352 3.42549 34.8248 0.969363 31.5649 1.04849C29.3845 1.10171 28.0715 2.77971 27.3196 4.33973C27.2717 4.43939 27.2263 4.53765 27.1834 4.63471C26.6092 5.92865 26.6062 7.82311 29.4523 9.87642V9.87622Z" fill="black"/>
<g opacity="0.2">
<path d="M29.4541 9.87629C31.5635 11.3972 33.0016 11.4054 34.1893 10.592C35.2481 9.86692 36.3438 8.67185 36.7477 6.73493C36.7566 6.69148 36.7655 6.64883 36.7734 6.60538C36.3962 7.36177 35.6346 8.23057 34.1306 8.11457C32.3266 7.97545 30.2764 4.4251 27.3213 4.3396C27.2735 4.43926 27.228 4.53752 27.1851 4.63458C26.6109 5.92852 26.608 7.82298 29.4541 9.87629Z" fill="black"/>
</g>
<g opacity="0.3">
<path d="M26.6135 6.23542C27.3231 4.4446 28.7496 2.12062 31.382 2.05724C34.1359 1.99127 36.3915 3.65054 36.8432 6.04189C37.0491 3.1415 34.631 0.974578 31.5668 1.04872C28.391 1.12586 27.0546 4.65069 26.6135 6.23562V6.23542Z" fill="white"/>
</g>
<path d="M26.7975 6.20352C27.553 4.61022 28.2879 2.75363 29.8856 1.87287C30.6504 1.43099 31.5292 1.34788 32.4013 1.44833C34.1368 1.62432 35.8251 2.75761 36.3356 4.48007C36.8507 6.17542 36.1941 8.13366 35.0313 9.41284C34.4312 10.0722 33.6714 10.583 32.848 10.94C32.6751 11.0135 32.5945 11.2152 32.6686 11.3888C32.7426 11.5618 32.9413 11.6417 33.1129 11.5674C34.0149 11.1766 34.8551 10.6141 35.5284 9.87525C35.8651 9.50712 36.1579 9.09773 36.4013 8.66044C37.1036 7.3376 37.4395 5.74251 36.9818 4.27876C36.3228 2.02793 33.9899 0.662244 31.7409 0.685763C29.8668 0.637729 28.3701 1.79932 27.4547 3.3707C26.9456 4.21418 26.5871 5.14099 26.4721 6.10924C26.4513 6.30258 26.7147 6.37792 26.7971 6.20352H26.7975Z" fill="black"/>
<path d="M20.1093 33.8578C20.1093 33.8578 9.37556 35.2985 5.86574 29.6039C4.02522 26.618 4.47343 22.7015 4.47324 22.6972C4.48372 22.5198 2.28296 12.374 10.8647 6.81219C13.2844 5.244 15.6739 4.56714 18.0714 4.18326C20.4772 3.85639 22.9591 3.81254 25.7236 4.61338C35.529 7.45437 36.3133 17.8098 36.374 17.9767C36.375 17.981 37.9208 21.6023 37.0091 24.9956C35.2706 31.4667 24.579 33.1965 24.579 33.1965" fill="white"/>
<path d="M20.1093 33.8578C20.1093 33.8578 9.37556 35.2985 5.86574 29.6039C4.02522 26.618 4.47343 22.7015 4.47324 22.6972C4.48372 22.5198 2.28296 12.374 10.8647 6.81219C13.2844 5.244 15.6739 4.56714 18.0714 4.18326C20.4772 3.85639 22.9591 3.81254 25.7236 4.61338C35.529 7.45437 36.3133 17.8098 36.374 17.9767C36.375 17.981 37.9208 21.6023 37.0091 24.9956C35.2706 31.4667 24.579 33.1965 24.579 33.1965L20.1091 33.858L20.1093 33.8578Z" fill="white"/>
<g opacity="0.2">
<path d="M4.44503 24.5488C4.51937 25.9544 4.83136 27.926 5.86561 29.6036C9.37563 35.2985 20.1091 33.8579 20.1091 33.8579L24.5789 33.1964C24.5789 33.1964 35.2711 31.467 37.0088 24.9955C37.4746 23.2625 37.2996 21.4699 37.0163 20.1299C37.0568 21.025 36.9926 21.9847 36.7399 22.9266C35.0014 29.3981 24.31 31.1275 24.31 31.1275L19.8403 31.789C19.8403 31.789 9.10654 33.2297 5.59671 27.5355C5.00911 26.5826 4.6548 25.534 4.44503 24.5486V24.5488Z" fill="black"/>
</g>
<path d="M20.0836 33.6887C16.4051 33.7134 12.5228 33.792 9.15945 32.0845C8.05205 31.5033 7.04766 30.72 6.34677 29.682C4.98867 27.7259 4.64959 24.869 4.83445 22.7188C4.16875 18.5428 4.82575 13.9837 7.37903 10.5436C8.31244 9.2738 9.48607 8.18037 10.7894 7.3026C12.9613 5.78863 15.5231 4.94035 18.1197 4.53714C20.2042 4.24754 22.3428 4.21326 24.4074 4.65255C26.4571 5.07848 28.4481 5.89964 30.1296 7.16488C33.5578 9.71986 35.5037 13.8964 36.0498 18.0946C36.8578 20.1724 37.3288 23.0594 36.511 25.3708C35.442 28.2981 32.5961 30.0696 29.87 31.2555C28.1487 31.9858 26.3428 32.5046 24.5489 33.0278C24.3477 33.076 24.3975 33.3814 24.6025 33.3644C27.471 33.087 30.2322 32.0504 32.7209 30.6054C34.5952 29.4805 36.3183 27.8883 37.1214 25.7888C38.0425 23.2539 37.6449 20.404 36.7212 17.9313L36.7044 17.8891C36.7056 17.8922 36.7054 17.896 36.7036 17.9L36.6914 17.8582C36.6957 17.8639 36.6987 17.8707 36.6999 17.8777C36.7003 17.8805 36.7005 17.8835 36.6999 17.8769L36.6931 17.8285L36.6793 17.7288C35.8995 11.9928 32.4955 6.61996 26.9195 4.64338C25.1205 3.9703 23.1995 3.62928 21.2831 3.60775C17.47 3.59739 13.5655 4.51681 10.3861 6.69908C9.01314 7.6215 7.78138 8.76794 6.79637 10.1067C4.18654 13.6369 3.4291 18.2662 4.07938 22.553L4.0948 22.6522L4.10231 22.7005C4.1035 22.7072 4.10271 22.7036 4.10231 22.7005C4.10133 22.6919 4.10231 22.6833 4.10488 22.6751V22.7218C4.10231 22.7172 4.10113 22.7122 4.10133 22.7076L4.09737 22.7531L4.08946 22.8468C3.93149 25.555 4.42716 28.563 6.21786 30.6843C8.85616 33.7152 13.4823 34.3696 17.2774 34.3524C18.2371 34.3285 19.1887 34.2468 20.128 34.0266C20.326 33.9747 20.2823 33.6839 20.0834 33.6885L20.0836 33.6887Z" fill="black"/>
<path d="M26.7224 23.0197C25.7394 22.9598 23.4053 22.3373 22.9439 18.889C22.4909 15.5051 23.6294 14.2185 25.7556 13.8546C27.882 13.4906 31.0114 14.1607 32.9168 15.8714C34.2743 17.0902 34.8939 19.3895 34.523 20.4365C33.7899 22.5059 27.7054 23.0795 26.7224 23.0195V23.0197Z" fill="#B6B6B6"/>
<path d="M15.3481 24.7032C16.2724 24.361 18.3307 23.0888 17.7897 19.652C17.2588 16.2795 15.8017 15.3772 13.6614 15.6447C11.521 15.9122 8.71462 17.4606 7.37728 19.651C6.4245 21.2117 6.48638 23.5934 7.14022 24.489C8.43229 26.2586 14.4238 25.0454 15.3481 24.7032Z" fill="#B6B6B6"/>
<path d="M13.539 23.4091C12.1432 23.4091 11.0116 22.1296 11.0116 20.5513C11.0116 18.9731 12.1432 17.6936 13.539 17.6936C14.9349 17.6936 16.0664 18.9731 16.0664 20.5513C16.0664 22.1296 14.9349 23.4091 13.539 23.4091Z" fill="black"/>
<path d="M14.1053 22.2662C13.6358 22.2464 13.2767 21.7163 13.303 21.0823C13.3294 20.4483 13.7313 19.9504 14.2008 19.9702C14.6702 19.99 15.0294 20.5201 15.0031 21.1541C14.9767 21.7882 14.5748 22.2861 14.1053 22.2662Z" fill="white"/>
<g opacity="0.35">
<path d="M12.1609 20.3878C11.8828 20.3075 11.7535 19.9042 11.8721 19.4871C11.9907 19.07 12.3122 18.7969 12.5903 18.8773C12.8683 18.9576 12.9976 19.3609 12.8791 19.778C12.7605 20.1951 12.4389 20.4682 12.1609 20.3878Z" fill="white"/>
</g>
<path d="M29.5137 9.96072C29.6722 9.60674 27.8851 6.91842 25.4398 8.15495C24.5589 8.60042 24.6052 9.52323 25.3514 9.61073C26.0624 9.69404 26.3484 9.49892 27.4634 9.71716C28.0943 9.84074 29.3553 10.3147 29.5137 9.96072Z" fill="black"/>
<path d="M9.05098 13.0074C8.7977 12.7148 9.73764 9.62052 12.4331 10.0917C13.4039 10.2613 13.6245 11.1584 12.9351 11.4594C12.2783 11.7462 11.9487 11.6427 10.9439 12.1767C10.3755 12.4787 9.30425 13.3 9.05098 13.0074Z" fill="black"/>
<path d="M35.3289 61.5852C35.5784 61.5533 35.8254 61.5202 36.0652 61.4868C38.6331 61.132 40.9452 60.3276 41.6453 59.8189C42.0415 59.3896 42.0158 58.3791 41.5437 57.7275C40.5976 58.6149 38.331 59.5821 36.2894 58.7221C36.2894 58.7221 35.2176 60.4717 35.3289 61.5854V61.5852Z" fill="#2468FF"/>
<g opacity="0.2">
<path d="M35.3293 61.5854C35.5161 61.5613 35.7024 61.5364 35.8843 61.5115C35.9452 61.5031 36.0053 61.495 36.0654 61.4866C36.7077 61.3977 37.3335 61.2807 37.9223 61.148C38.0698 61.1139 38.2147 61.0798 38.3571 61.0451C38.4986 61.0102 38.6386 60.9746 38.7754 60.9373C38.9113 60.9008 39.0455 60.8633 39.1756 60.8253C39.99 60.5895 40.6743 60.3338 41.1486 60.104C41.1866 60.0856 41.2235 60.0675 41.2589 60.0492C41.3117 60.0226 41.361 59.9959 41.4072 59.9694C41.4377 59.9521 41.4681 59.9353 41.4962 59.918C41.5381 59.8931 41.5761 59.8682 41.6115 59.8433C41.6229 59.8359 41.6346 59.8275 41.6453 59.8191H41.6461C41.7145 59.7452 41.7704 59.6531 41.8131 59.5485C41.828 59.5136 41.8412 59.4771 41.8527 59.4397C41.9055 59.2678 41.9284 59.0703 41.9203 58.8652C41.9088 58.8802 41.8972 58.8935 41.8849 58.9067C41.1858 59.4147 38.8761 60.2341 36.306 60.5751C35.9956 60.6166 35.7024 60.6541 35.4273 60.6879C35.3459 61.0017 35.3022 61.3122 35.3293 61.5852V61.5854Z" fill="black"/>
</g>
<path d="M29.7101 57.2618C29.8428 57.5801 30.0427 57.9729 30.2139 58.5045C31.676 58.0989 34.4942 57.0738 35.8086 55.6567L35.5189 54.1338C33.7848 55.8499 31.0925 56.9096 29.7101 57.2618Z" fill="#2468FF"/>
<g opacity="0.2">
<path d="M34.1164 55.2684C34.3979 55.6818 34.7117 56.0661 34.9143 56.4214C35.2536 56.1825 35.5583 55.9268 35.8086 55.6569L35.5187 54.1335C35.0972 54.5511 34.6187 54.9296 34.1164 55.2682V55.2684Z" fill="black"/>
</g>
<path d="M30.2139 58.7605C30.2363 58.7605 30.2588 58.7575 30.2814 58.7513C32.1476 58.2337 34.7635 57.1584 35.9941 55.8316C36.0495 55.772 36.0732 55.6891 36.058 55.6088L35.7683 54.0858C35.7507 53.9933 35.6839 53.918 35.5947 53.8899C35.5056 53.8616 35.4083 53.8855 35.3415 53.9515C33.6095 55.6652 30.9479 56.683 29.6483 57.0141C29.5767 57.0324 29.5166 57.0813 29.4836 57.1478C29.4506 57.2144 29.448 57.2923 29.4767 57.3611C29.5138 57.4498 29.5558 57.5445 29.601 57.6459C29.7191 57.9106 29.8529 58.2106 29.9731 58.5839C30.0077 58.6915 30.107 58.7607 30.2143 58.7607L30.2139 58.7605ZM35.5348 55.5747C34.3918 56.7303 32.1106 57.6856 30.3757 58.1928C30.2689 57.8969 30.157 57.6459 30.0633 57.436C30.0627 57.4345 30.0619 57.4329 30.0611 57.4313C31.3939 57.048 33.6838 56.119 35.3559 54.6353L35.5346 55.5747H35.5348Z" fill="black"/>
<path d="M36.604 58.9161C36.6325 58.9161 36.661 58.9113 36.6885 58.9015C36.7709 58.8722 36.8326 58.8019 36.8516 58.7156L36.8696 58.6326C36.8921 58.5244 36.8431 58.4138 36.748 58.3586L36.6066 58.2765C36.5133 58.2221 36.3962 58.2332 36.3144 58.3042C36.2327 58.3751 36.2045 58.4903 36.2438 58.5914C36.2685 58.655 36.2869 58.6895 36.2869 58.6895C36.2926 58.7004 36.3005 58.7132 36.3077 58.7229C36.3185 58.7377 36.3607 58.7913 36.4455 58.8599C36.4911 58.8967 36.5471 58.9159 36.6038 58.9159L36.604 58.9161Z" fill="#232333"/>
<path d="M36.4798 58.7538C36.5112 58.7538 36.5431 58.7481 36.5739 58.7355C36.704 58.6829 36.7673 58.5342 36.7153 58.4031C36.6475 58.2322 36.5152 57.78 36.7513 57.2728C37.0279 56.6786 37.7096 56.2007 38.7774 55.8525C38.9107 55.809 38.9839 55.6649 38.9408 55.5304C38.8977 55.396 38.7547 55.3223 38.6213 55.3657C37.4144 55.7592 36.6307 56.3278 36.292 57.0555C35.9715 57.7441 36.1518 58.3602 36.2443 58.593C36.2841 58.6929 36.3794 58.7538 36.48 58.7538H36.4798Z" fill="#232333"/>
<path d="M38.0441 59.2853C38.4444 59.2853 38.9294 59.2369 39.5151 59.1133C40.6436 58.8746 41.3878 58.4321 41.7273 57.7981C41.7939 57.6737 41.7478 57.5186 41.6245 57.4517C41.5013 57.3845 41.3475 57.4309 41.2808 57.5553C41.0193 58.0438 40.3727 58.4096 39.4109 58.6129C37.6085 58.9934 36.928 58.5919 36.7623 58.4598C36.6526 58.3723 36.493 58.3908 36.406 58.5016C36.3192 58.6125 36.3378 58.7731 36.4475 58.8608C36.6777 59.0444 37.1502 59.2853 38.0439 59.2853H38.0441Z" fill="black"/>
<path d="M32.4346 62.1103C32.7284 62.1103 33.0644 62.0942 33.4535 62.0619C34.1142 62.0077 34.8365 61.9136 35.5182 61.8201C35.5192 61.8201 35.5204 61.8197 35.5216 61.8197C35.5251 61.8193 35.5287 61.8189 35.532 61.8185C35.707 61.7948 35.8786 61.7711 36.0457 61.748L36.0981 61.7406C38.6421 61.3882 41.034 60.5768 41.7913 60.0269C41.8047 60.0172 41.8174 60.006 41.8286 59.9936C42.3498 59.4288 42.2735 58.207 41.6713 57.4799C41.3338 57.0562 40.7325 56.7064 40.151 56.3682C39.6747 56.0911 39.1824 55.8047 38.9578 55.5318C38.8097 55.3519 38.6965 55.0158 38.5766 54.6599C38.3307 53.9298 38.0246 53.0213 37.1628 52.7098C36.9858 52.6456 35.9852 52.4036 33.652 53.919C31.6968 55.189 30.3579 55.3044 29.7863 55.3537C29.535 55.3752 29.3964 55.3871 29.2951 55.4886C28.7506 56.0333 29.1206 56.7028 29.3414 57.1028C29.3946 57.1989 29.4446 57.2898 29.4739 57.3603C29.4739 57.3603 29.4739 57.3607 29.4739 57.3609C29.511 57.4496 29.553 57.5443 29.5982 57.6457C29.7163 57.9104 29.8501 58.2104 29.9703 58.5837C29.9759 58.6016 29.9822 58.6218 29.9889 58.6429C29.9903 58.6483 29.9917 58.6537 29.9933 58.6591C30.0368 58.7976 30.0759 58.9415 30.1099 59.087C30.1773 59.3742 30.2335 59.6566 30.2879 59.9297C30.4561 60.7736 30.5888 61.4403 30.9431 61.7727C31.1635 61.9806 31.5621 62.087 32.1972 62.1068C32.2731 62.1093 32.352 62.1105 32.4341 62.1105L32.4346 62.1103ZM35.4743 61.3101C35.4638 61.3109 35.4537 61.3123 35.4427 61.3143C34.7752 61.4058 34.0612 61.4986 33.4119 61.5521C32.94 61.5915 32.5371 61.6059 32.2138 61.5953C31.5698 61.575 31.3585 61.4632 31.2897 61.3984C31.0544 61.1778 30.9237 60.5222 30.7857 59.8286C30.7305 59.5514 30.6734 59.2648 30.604 58.9696C30.5686 58.8173 30.5277 58.666 30.4822 58.5201C30.4804 58.5126 30.4785 58.5052 30.4761 58.4982C30.4682 58.4747 30.4613 58.4518 30.4541 58.429C30.3244 58.0262 30.1785 57.699 30.0613 57.4361C30.018 57.3388 29.9776 57.2483 29.9421 57.1632C29.9017 57.0659 29.8448 56.9629 29.7847 56.8537C29.5512 56.4313 29.4122 56.131 29.6222 55.8844C29.6684 55.8769 29.753 55.8697 29.8296 55.8631C30.4389 55.8105 31.8658 55.6877 33.927 54.3487C36.1426 52.9099 36.9835 53.1881 36.9918 53.1909C37.6233 53.4191 37.8639 54.1335 38.0966 54.8243C38.232 55.2261 38.3599 55.6054 38.5675 55.8581C38.8503 56.2017 39.3592 56.4977 39.898 56.811C40.4389 57.1255 40.9982 57.4508 41.2792 57.8036C41.7424 58.3633 41.7695 59.2743 41.4734 59.6271C40.8266 60.0783 38.6055 60.8768 36.0293 61.2336L35.9767 61.2409C35.8134 61.2637 35.6455 61.2868 35.4743 61.3101Z" fill="black"/>
<path d="M30.2363 58.5791V58.5817C30.28 58.7206 30.3212 58.8695 30.3581 59.0288C30.6209 60.1479 30.7192 61.212 31.1173 61.5853C31.3012 61.7589 31.6943 61.8351 32.2066 61.8512C32.5231 61.8225 32.8355 61.7936 33.0977 61.7868C32.6575 61.2824 32.3754 60.5491 32.1168 60.0971C31.5794 59.1573 30.8597 58.723 30.2365 58.5791H30.2363Z" fill="#2468FF"/>
<g opacity="0.2">
<path d="M30.2371 58.5789V58.5814C30.2808 58.721 30.3219 58.8695 30.3581 59.0289C30.6217 60.1478 30.7195 61.2122 31.1174 61.5857C31.3018 61.7591 31.6947 61.8356 32.2068 61.8514C32.5237 61.8223 32.8359 61.7942 33.0977 61.7866C32.8762 61.5327 32.6949 61.2205 32.5361 60.9158C30.9115 60.8676 30.788 60.2086 30.2733 58.5882C30.261 58.5848 30.2494 58.5816 30.2371 58.5791V58.5789Z" fill="black"/>
</g>
<path d="M32.2067 62.1068C32.2145 62.1068 32.222 62.1064 32.2295 62.1058L32.2552 62.1034C32.565 62.0753 32.8576 62.0488 33.1044 62.0424C33.2028 62.0398 33.2908 61.98 33.3304 61.8891C33.3697 61.798 33.3535 61.6924 33.2884 61.6178C33.0018 61.2892 32.7809 60.8435 32.5862 60.4505C32.4996 60.2761 32.4179 60.1112 32.3368 59.9691C31.6674 58.7988 30.7694 58.4396 30.2937 58.3298C30.2187 58.3122 30.1392 58.3304 30.0789 58.379C30.0184 58.4275 29.9833 58.5012 29.9833 58.5789V58.5815C29.9833 58.6076 29.9874 58.6337 29.9951 58.6589C30.0386 58.7974 30.0778 58.9413 30.1118 59.0868C30.1792 59.374 30.2353 59.6564 30.2897 59.9295C30.458 60.7734 30.5906 61.4401 30.9449 61.7725C31.1654 61.9804 31.564 62.0868 32.199 62.1066C32.2018 62.1066 32.2044 62.1066 32.2069 62.1066L32.2067 62.1068ZM32.6117 61.5588C32.482 61.5692 32.3475 61.5814 32.2095 61.5939L32.1994 61.5949C31.5677 61.5734 31.3591 61.4628 31.2909 61.3986C31.0557 61.178 30.925 60.5224 30.787 59.8288C30.7322 59.5536 30.6754 59.2691 30.6068 58.9762C31.0003 59.1583 31.4924 59.5171 31.8971 60.2248C31.9709 60.3536 32.0492 60.5117 32.132 60.6791C32.2724 60.9627 32.4256 61.2718 32.6117 61.5592V61.5588Z" fill="black"/>
<path d="M33.4327 61.807C34.0929 61.7528 34.8116 61.6589 35.4844 61.5666C35.4896 61.5658 35.4937 61.565 35.4987 61.565C35.5248 61.5609 35.5507 61.5567 35.576 61.5533C36.1663 60.54 36.5258 59.022 36.6055 58.6605C36.54 58.6071 36.5131 58.5716 36.5131 58.5716C36.5131 58.5716 36.4997 58.5453 36.4813 58.4978L35.057 57.6665C35.057 57.6665 34.5481 60.1376 33.4327 61.807Z" fill="#2468FF"/>
<g opacity="0.2">
<path d="M33.4328 61.807C34.0932 61.753 34.8121 61.6583 35.4849 61.5663C35.4899 61.5655 35.494 61.5647 35.4989 61.5647C35.5245 61.5605 35.5508 61.5563 35.5765 61.5531C35.7427 61.2675 35.891 60.9412 36.0195 60.6125C35.2166 60.7172 34.543 60.7977 33.975 60.8499C33.8136 61.182 33.6333 61.5075 33.4332 61.807H33.4328Z" fill="black"/>
</g>
<path d="M33.4331 62.0628C33.44 62.0628 33.447 62.0626 33.4537 62.062C34.1148 62.0078 34.8371 61.9137 35.5188 61.8202C35.5198 61.8202 35.521 61.8198 35.5222 61.8198C35.5277 61.8192 35.5332 61.8186 35.5388 61.8176C35.5688 61.8129 35.5898 61.8093 35.6099 61.8067C35.6873 61.7963 35.7555 61.7505 35.795 61.6827C36.4137 60.6206 36.7852 59.0251 36.8534 58.716C36.8741 58.6213 36.8401 58.5228 36.7654 58.4618C36.7486 58.4481 36.7359 58.4367 36.727 58.4281C36.7243 58.4214 36.7211 58.4136 36.7175 58.4046C36.6966 58.3506 36.6582 58.3056 36.6086 58.2767L35.1843 57.4453C35.1137 57.4041 35.0279 57.3997 34.9535 57.4332C34.8792 57.4667 34.8254 57.5342 34.8088 57.6146C34.8039 57.6389 34.2961 60.0573 33.2227 61.6644C33.1684 61.7459 33.165 61.8515 33.2142 61.9364C33.2599 62.0152 33.3436 62.063 33.4331 62.063V62.0628ZM35.5079 61.8204C35.505 61.8204 35.5022 61.8204 35.4992 61.8204C35.5022 61.8204 35.5052 61.8204 35.5079 61.8204ZM35.4174 61.318C34.9272 61.3849 34.413 61.4527 33.9183 61.5045C34.6425 60.2367 35.0635 58.7277 35.227 58.061L36.2822 58.6769C36.2859 58.6847 36.2879 58.6886 36.2879 58.6886C36.2944 58.7012 36.3033 58.7156 36.3118 58.7269C36.3146 58.7305 36.3193 58.7365 36.3263 58.7447C36.2165 59.2108 35.9 60.4364 35.4172 61.3182L35.4174 61.318Z" fill="black"/>
<path d="M38.2305 55.2337C38.2305 55.2337 37.9972 55.0027 37.6684 53.6438C37.4813 52.8702 36.9793 51.848 35.1366 52.6753C34.0172 53.1778 34.2811 53.9656 34.6125 54.7226C34.9124 55.4077 35.4411 56.0405 35.6863 56.2741C36.0386 56.6097 38.2303 55.2337 38.2303 55.2337H38.2305Z" fill="white"/>
<path d="M34.6123 54.7228C34.6955 54.9122 34.7952 55.0971 34.9021 55.2707C35.1821 55.7266 35.5081 56.105 35.6861 56.2743C36.0386 56.6097 38.2305 55.2333 38.2305 55.2333C38.2305 55.2333 38.0361 55.0415 37.752 53.9756C37.7249 53.8735 37.6968 53.7631 37.668 53.6435C37.4811 52.8698 36.9787 51.8479 35.1366 52.6749C34.0168 53.1772 34.2811 53.9656 34.6121 54.7228H34.6123Z" fill="white"/>
<path d="M34.9021 55.2707C35.1821 55.7265 35.5081 56.105 35.6861 56.2742C36.0386 56.6097 38.2305 55.2332 38.2305 55.2332C38.2305 55.2332 38.0361 55.0415 37.752 53.9756C36.7524 54.0105 35.383 54.3947 34.9019 55.2705L34.9021 55.2707Z" fill="#E5E5E5"/>
<path d="M35.8526 56.5842C36.1009 56.5842 36.5025 56.4666 37.2056 56.1078C37.8007 55.8043 38.3422 55.4648 38.365 55.4507C38.4355 55.4064 38.4913 55.3401 38.4956 55.2564C38.4998 55.175 38.4757 55.1063 38.414 55.0555C38.3788 55.0056 38.1842 54.6957 37.9153 53.5831C37.7532 52.9128 37.4604 52.4813 37.0203 52.2635C36.5185 52.0151 35.8502 52.0749 35.0339 52.4415C33.6159 53.0781 34.1135 54.215 34.381 54.8256C34.6875 55.5256 35.2256 56.1863 35.5127 56.4598C35.5863 56.5298 35.6841 56.5842 35.8528 56.5842H35.8526ZM37.8849 55.1471C36.9663 55.7026 36.0717 56.1094 35.8435 56.0715C35.5912 55.825 35.1129 55.2314 34.845 54.6194C34.4571 53.7334 34.4221 53.276 35.2403 52.9087C35.9125 52.6069 36.4366 52.5441 36.7969 52.7227C37.0936 52.8696 37.2983 53.1907 37.4226 53.7043C37.6097 54.478 37.7704 54.909 37.8851 55.1469L37.8849 55.1471Z" fill="black"/>
<path d="M36.6681 57.5439C36.6681 57.5439 37.2673 58.3505 36.7637 58.8974C36.1736 59.5384 34.9355 58.9042 34.4778 57.8411C33.8803 56.4533 35.3384 55.193 36.6777 54.6959C38.4255 54.0474 38.9271 54.9222 38.9178 55.5689C38.9087 56.2159 36.6679 57.5439 36.6679 57.5439H36.6681Z" fill="#2468FF"/>
<g opacity="0.7">
<path d="M34.4797 57.841C34.5686 58.0485 34.688 58.2394 34.8262 58.408C34.7909 58.344 34.7578 58.2785 34.7292 58.2105C34.1321 56.8225 35.5896 55.5624 36.9295 55.0659C37.9268 54.6956 38.518 54.821 38.8398 55.1182C38.6405 54.6059 38.0346 54.1934 36.68 54.6956C35.3403 55.1929 33.8828 56.453 34.4797 57.841Z" fill="white"/>
</g>
<path d="M36.1548 59.4099C36.4686 59.4099 36.7452 59.2933 36.9498 59.0711C37.402 58.5799 37.1908 57.9639 37.0174 57.6304C37.7227 57.1951 39.1624 56.2267 39.1717 55.5723C39.1782 55.1195 38.9813 54.7057 38.6454 54.4659C38.1727 54.1287 37.4813 54.1253 36.5904 54.4558C35.7265 54.7763 34.6575 55.4631 34.2474 56.429C34.0321 56.9364 34.0313 57.4457 34.2453 57.9425C34.5622 58.6788 35.2516 59.2737 35.9219 59.3894C36.0012 59.4029 36.0791 59.4099 36.1546 59.4099H36.1548ZM36.4646 57.6964C36.4694 57.7028 36.93 58.3408 36.5779 58.7233C36.4407 58.8723 36.2483 58.9267 36.0075 58.8853C35.5047 58.7986 34.9592 58.3165 34.7105 57.739C34.5543 57.3763 34.5555 57.0032 34.7139 56.6303C34.9994 55.9576 35.8048 55.2923 36.7655 54.9359C37.4801 54.6706 38.0285 54.6529 38.352 54.8835C38.6397 55.0888 38.6662 55.4286 38.6644 55.5652C38.6606 55.833 37.6677 56.6544 36.5393 57.3233C36.4773 57.3602 36.4334 57.4221 36.4193 57.4935C36.4051 57.5645 36.4215 57.6384 36.4646 57.6966V57.6964Z" fill="black"/>
<path d="M39.9805 56.5672C39.9805 56.5672 38.0559 56.4871 36.4315 58.1246C36.4315 58.1246 35.3326 58.3945 35.538 57.3666C35.7541 56.2862 38.2018 55.3006 38.8363 55.4574C39.4453 55.6079 39.9467 56.0446 39.9803 56.5674L39.9805 56.5672Z" fill="white"/>
<path d="M35.517 57.634C35.5425 58.3438 36.4352 58.1245 36.4352 58.1245C38.059 56.4868 39.9844 56.5673 39.9844 56.5673C39.967 56.3058 39.8337 56.0668 39.6287 55.8733C39.6526 55.9454 39.6674 56.0194 39.6724 56.0957C39.6724 56.0957 37.9034 56.0218 36.3265 57.4582C36.1347 57.633 35.8727 57.7185 35.6198 57.6641C35.585 57.6565 35.5506 57.6468 35.5172 57.634H35.517Z" fill="#E5E5E5"/>
<path d="M36.1413 58.4125C36.3195 58.4125 36.4612 58.3802 36.4917 58.3729C36.537 58.3617 36.5781 58.3384 36.6111 58.3053C38.1388 56.7654 39.9517 56.8226 39.9703 56.8226C40.0424 56.827 40.1118 56.7977 40.1623 56.7459C40.2125 56.6941 40.2386 56.6231 40.2338 56.5508C40.1943 55.9361 39.6573 55.3967 38.8971 55.209C38.3609 55.0764 37.1778 55.5155 36.4081 56.0082C35.9598 56.2952 35.4019 56.755 35.2896 57.3161C35.2137 57.6958 35.2781 57.9884 35.4816 58.1851C35.6706 58.3681 35.9312 58.4129 36.1413 58.4129V58.4125ZM36.3082 57.8879C36.1651 57.9099 35.9331 57.9135 35.8327 57.8154C35.7461 57.7309 35.7601 57.5519 35.7872 57.4168C35.8471 57.117 36.1643 56.7698 36.6803 56.4395C37.499 55.9153 38.5011 55.6373 38.7765 55.7053C39.1877 55.8069 39.5139 56.0437 39.6541 56.3225C39.0159 56.3738 37.5864 56.6335 36.3082 57.8879Z" fill="black"/>
<path d="M34.0781 58.5472L33.3713 59.9514L30.9214 58.363L33.2042 59.1465L34.0781 58.5472Z" fill="black"/>
<path d="M30.9021 19.6201C30.8058 18.1253 29.686 16.6994 28.1857 16.4255C26.4725 16.1114 24.9651 17.091 24.7852 18.8791C24.7431 19.3004 24.7779 19.7136 24.8827 20.1038C24.9203 20.2436 25.063 20.3263 25.2016 20.2884C25.3014 20.2611 25.3718 20.179 25.3896 20.0827C25.5852 19.1655 25.7959 18.0912 26.6938 17.6684C28.3601 16.9794 29.8117 18.1374 30.4045 19.72C30.5035 20 30.9177 19.9155 30.9019 19.6197L30.9021 19.6201Z" fill="black"/>
<path d="M23.6821 23.838C23.4096 24.6466 22.0572 24.7875 21.6059 24.078C21.3682 23.7605 21.2881 23.3104 21.2013 22.9268C21.0457 22.9503 20.7377 22.9949 20.5821 23.0184C20.5981 23.2624 20.6337 23.5745 20.6076 23.8173C20.5679 24.6121 19.9607 25.0452 19.2019 24.986C18.9144 24.9607 18.6479 24.8513 18.4681 24.6095C18.4132 24.5294 18.3023 24.5107 18.2249 24.5695C18.0116 24.7401 18.3798 25.1569 18.5314 25.2768C19.3988 25.9517 20.8662 25.5567 21.2061 24.4832C21.3492 24.0744 21.3593 23.6586 21.2703 23.2417L20.9882 23.6477L20.9937 23.6469L20.6078 23.3397C20.6121 23.4069 20.6175 23.4513 20.6246 23.5046C20.7822 24.6012 21.6418 25.3801 22.7653 25.1321C23.3626 25.0116 23.9776 24.5496 24.0154 23.895C24.0201 23.8003 23.948 23.7196 23.8541 23.7148C23.7738 23.7107 23.7034 23.7635 23.6819 23.838H23.6821Z" fill="black"/>
<path d="M18.9 22.1944C18.9611 22.6116 19.555 22.8998 20.0874 23.0764C20.6442 23.2612 21.2251 23.1746 21.7049 22.8354C22.1638 22.5111 22.6496 22.0621 22.5885 21.6449C22.4041 20.3865 18.7155 20.9358 18.9 22.1944Z" fill="black"/>
<g opacity="0.5">
<path d="M19.9778 21.7818C19.9954 21.9022 20.2252 21.9765 20.4322 22.0194C20.6489 22.0642 20.879 22.0299 21.0736 21.9239C21.2594 21.8224 21.4579 21.6843 21.4403 21.5639C21.3871 21.201 19.9246 21.4188 19.9778 21.7818Z" fill="white"/>
</g>
<path d="M19.4725 25.2959C18.4635 25.2014 18.5509 24.096 17.4146 24.0005C16.7986 23.9487 16.3739 24.5815 16.6661 25.1868C16.9836 25.8442 18.008 26.0405 18.5725 25.8779C19.1711 25.7055 19.4727 25.2959 19.4727 25.2959H19.4725Z" fill="#FF8080"/>
<path d="M18.1464 26.2302C18.3314 26.2302 18.5052 26.2078 18.6547 26.1648C19.3419 25.9669 19.6964 25.4937 19.7113 25.4736C19.7749 25.3871 19.7874 25.2725 19.7439 25.1742C19.7004 25.0758 19.6075 25.0088 19.5011 24.9988C19.1351 24.9645 18.9712 24.7644 18.7442 24.4874C18.4799 24.1647 18.1509 23.7631 17.4403 23.7033C17.0486 23.67 16.6848 23.8424 16.467 24.1633C16.2388 24.4991 16.2143 24.9305 16.4011 25.3175C16.7072 25.9515 17.4941 26.2302 18.1466 26.2302H18.1464ZM18.8803 25.4194C18.7739 25.4847 18.6444 25.5471 18.4922 25.591C18.0323 25.7233 17.1752 25.5571 16.9332 25.0562C16.8406 24.8647 16.849 24.657 16.9553 24.5003C17.053 24.3566 17.2116 24.2825 17.3913 24.2978C17.8533 24.3367 18.0451 24.5707 18.2879 24.8671C18.4413 25.0544 18.6183 25.2705 18.8805 25.4192L18.8803 25.4194Z" fill="black"/>
<path d="M11.8604 6.85388C12.2379 5.51211 9.41054 5.94522 9.53194 4.74337C9.62032 3.86938 12.8399 1.97592 15.5595 4.0677C15.5595 4.0677 15.531 3.38824 15.3548 2.51007C15.1439 1.45771 15.1543 0.569371 15.5887 0.387997C16.4689 0.0206652 18.195 1.76485 21.4917 3.24494C22.7667 3.81736 25.1874 4.59209 26.293 4.80834L18.8706 11.2593L11.8602 6.85408L11.8604 6.85388Z" fill="white"/>
<path d="M12.0261 6.90048C12.368 6.15166 11.6253 5.68507 11.0223 5.47639L10.7165 5.36677C10.5189 5.29462 10.3258 5.22864 10.1696 5.14454C10.0502 5.08155 9.93469 5.00382 9.89713 4.89579C9.89179 4.87726 9.88803 4.85792 9.88724 4.83441C9.88684 4.81388 9.8906 4.77162 9.89238 4.77262C9.97147 4.57709 10.1749 4.4029 10.3685 4.25919C11.1714 3.69454 12.1954 3.43982 13.1669 3.50998C13.9633 3.56858 14.7214 3.86954 15.3669 4.34609C15.5854 4.5179 15.9242 4.32756 15.9001 4.0535C15.8677 3.37923 15.7443 2.74243 15.6257 2.08549C15.5794 1.78015 15.55 1.47101 15.5672 1.18819C15.582 1.00821 15.601 0.839594 15.6937 0.723196C15.7129 0.702866 15.7267 0.70167 15.7514 0.693099C15.9533 0.643072 16.2384 0.758275 16.4506 0.854941C17.3017 1.27051 18.0989 1.82778 18.9352 2.30195C19.4991 2.63021 20.0751 2.94313 20.6637 3.23114C21.8357 3.81393 23.0813 4.24444 24.3269 4.6339C24.958 4.82663 25.5786 5.0098 26.2313 5.14334C26.6625 5.21928 26.8058 4.57849 26.3626 4.47445C26.0605 4.41446 25.751 4.33513 25.444 4.25082C23.9137 3.81552 22.3909 3.32163 20.9592 2.61786C19.8004 2.05699 18.7217 1.38352 17.6139 0.713629C16.9945 0.376991 16.1184 -0.258616 15.3807 0.1135C14.6265 0.583079 14.9169 1.96272 15.0462 2.68184C15.133 3.13866 15.1982 3.62558 15.2243 4.0822L15.7675 3.79679H15.7673C14.3328 2.59215 12.1841 2.42253 10.535 3.28994C9.88981 3.63534 8.94493 4.25959 9.22984 5.13138C9.51969 5.86864 10.4693 5.95873 11.1067 6.18594C11.444 6.30035 11.7426 6.42272 11.7007 6.8076C11.6787 7.00133 11.945 7.07926 12.0261 6.90067V6.90048Z" fill="black"/>
<path d="M23.4484 60.8003C23.603 61.5084 23.6771 62.851 23.3339 63.262C22.7755 63.9303 20.5376 64.084 18.6947 64.1828C16.1567 64.3191 13.9802 64.0858 13.2131 63.7268C12.5994 63.3318 12.7295 61.8535 13.0154 61.0303L23.4482 60.8005L23.4484 60.8003Z" fill="white"/>
<path d="M23.3337 63.2621C22.7754 63.9304 20.5372 64.0839 18.6943 64.1827C16.1565 64.3189 13.98 64.0857 13.2135 63.7269C12.8454 63.4903 12.7449 62.8645 12.7853 62.2235C12.8173 62.6668 12.9442 63.0495 13.2135 63.2231C13.98 63.5824 16.1565 63.8158 18.6943 63.6797C20.5372 63.5808 22.7754 63.4266 23.3337 62.7583C23.4828 62.5799 23.5536 62.2253 23.5725 61.8235C23.5973 62.4129 23.5437 63.0114 23.3337 63.2621Z" fill="#E8E8E8"/>
<path d="M17.2399 64.4776C17.7162 64.4776 18.2087 64.4648 18.7064 64.4381C20.8992 64.3203 22.9179 64.1543 23.5259 63.4266C23.9729 62.8916 23.8286 61.3613 23.6941 60.7452C23.6641 60.6073 23.5288 60.52 23.3918 60.5505C23.255 60.5808 23.1686 60.7171 23.1986 60.8553C23.3687 61.6344 23.3795 62.8081 23.1377 63.0971C22.6209 63.7158 20.0568 63.8535 18.6793 63.9275C16.087 64.0662 14.0373 63.8198 13.3349 63.5025C12.9282 63.2151 12.9557 61.9702 13.2528 61.1148C13.2991 60.9814 13.2295 60.8355 13.0972 60.7889C12.9647 60.742 12.8202 60.8124 12.774 60.9457C12.5246 61.6635 12.254 63.4142 13.0745 63.9424C13.084 63.9486 13.0939 63.954 13.1041 63.9587C13.8034 64.2862 15.4008 64.4778 17.2397 64.4778L17.2399 64.4776Z" fill="black"/>
<path d="M15.5826 55.0637C15.7687 54.9421 16.8634 54.2653 19.5365 55.1879C22.434 56.188 23.1104 55.7354 23.2842 55.858C23.9394 56.3194 23.437 57.7359 23.437 59.4183C23.437 60.5458 23.6763 61.5212 23.333 61.932C22.7747 62.6003 20.5368 62.754 18.6939 62.8528C16.1558 62.9892 13.7817 62.6458 13.0145 62.2866C12.5335 61.932 12.3801 60.8814 12.7755 60.1605C13.2122 59.3296 14.6397 58.4983 15.0324 57.7778C15.4061 57.0919 14.8635 55.5339 15.5822 55.0635L15.5826 55.0637Z" fill="#FCFCFC"/>
<path d="M23.4369 59.4184C23.4369 60.5457 23.6765 61.5211 23.3331 61.9319C22.8465 62.5139 21.0851 62.7056 19.4209 62.8101C19.1748 62.8258 18.931 62.8399 18.6937 62.8523C16.1559 62.9892 13.7819 62.6456 13.0144 62.2863C12.5541 61.9468 12.3936 60.9688 12.7287 60.2533C12.7435 60.2218 12.7591 60.1911 12.7756 60.1604C13.2119 59.3295 14.6398 58.4985 15.0327 57.778C15.4065 57.0924 14.8638 55.5342 15.5827 55.0636C15.7687 54.9416 16.8631 54.2649 19.5362 55.1882C22.4339 56.1885 23.1101 55.7353 23.2847 55.858C23.9393 56.3197 23.4369 57.7358 23.4369 59.4184Z" fill="#FCFCFC"/>
<path d="M23.4371 59.4184C23.4371 60.5457 23.6767 61.5211 23.3333 61.9319C22.8467 62.5139 21.0853 62.7056 19.4211 62.8101C19.1749 62.8258 18.9312 62.8399 18.6939 62.8523C16.156 62.9892 13.7821 62.6456 13.0146 62.2863C12.5543 61.9468 12.3937 60.9688 12.7289 60.2533C12.7437 60.2218 12.7593 60.1911 12.7757 60.1604C13.2121 59.3295 14.64 58.4985 15.0328 57.778C15.2131 57.4476 15.1803 56.9138 15.1785 56.3968C15.177 55.8423 15.2106 55.3077 15.5829 55.0636C15.7689 54.9416 16.8633 54.2649 19.5364 55.1882C22.4341 56.1885 23.1102 55.7353 23.2848 55.858C23.7576 56.1917 23.6265 57.0226 23.5179 58.0935C23.476 58.5045 23.4373 58.951 23.4373 59.4184H23.4371Z" fill="#FCFCFC"/>
<path d="M23.4371 59.4184C23.4371 60.5457 23.6767 61.5211 23.3333 61.9319C22.8467 62.5139 21.0853 62.7056 19.4211 62.8101C19.1749 62.8258 18.9312 62.8399 18.6939 62.8523C16.156 62.9892 13.7821 62.6456 13.0146 62.2863C12.5543 61.9468 12.3937 60.9688 12.7289 60.2533C12.7437 60.2218 12.7593 60.1911 12.7757 60.1604C13.2121 59.3295 14.64 58.4985 15.0328 57.778C15.2131 57.4476 15.1803 56.9138 15.1785 56.3968C15.177 55.8423 15.2106 55.3077 15.5829 55.0636C15.7689 54.9416 16.8633 54.2649 19.5364 55.1882C22.4341 56.1885 23.1102 55.7353 23.2848 55.858C23.7576 56.1917 23.6265 57.0226 23.5179 58.0935C23.476 58.5045 23.4373 58.951 23.4373 59.4184H23.4371Z" fill="#FCFCFC"/>
<path d="M23.4373 59.4186C23.4373 60.5459 23.6769 61.5213 23.3335 61.9321C22.8469 62.5141 21.0855 62.7059 19.4213 62.8103C19.1751 62.826 18.9314 62.8402 18.6941 62.8525C16.1562 62.9895 13.7823 62.6459 13.0148 62.2865C12.5545 61.9471 12.3939 60.9691 12.7291 60.2535C12.7439 60.222 12.7595 60.1913 12.7759 60.1606C12.9357 59.8561 13.2289 59.5513 13.5557 59.2516C14.0415 58.8075 14.6014 58.3742 14.9061 57.9716C14.9555 57.906 14.9982 57.842 15.0328 57.7783C15.2131 57.4478 15.1801 56.914 15.1785 56.397C15.177 55.8425 15.2106 55.308 15.5829 55.0638C15.7689 54.9419 16.8633 54.2652 19.5364 55.1884C22.4341 56.1887 23.1102 55.7355 23.2848 55.8583C23.7576 56.1919 23.6265 57.0229 23.5179 58.0938C23.476 58.5048 23.4373 58.9512 23.4373 59.4186Z" fill="#FCFCFC"/>
<path d="M19.2647 57.2454C18.8694 57.13 18.5335 57.0196 18.2905 56.9275C17.9341 56.7922 17.5157 56.6893 17.089 56.612C17.1286 56.1695 17.2035 55.3378 17.2594 54.7144C17.8407 54.7343 18.5901 54.8605 19.5379 55.1883C19.5915 55.2067 19.6441 55.2248 19.6961 55.2423C19.7291 55.9927 19.496 56.7198 19.2647 57.2454Z" fill="#FFB522"/>
<path d="M19.5156 56.5614C19.3525 57.1151 19.1162 57.5733 18.9697 57.8283C18.5769 57.6457 18.2048 57.4348 17.8728 57.1907V55.6699C18.4098 56.0293 18.9656 56.3225 19.5156 56.5614Z" fill="#FFB522"/>
<path d="M17.2388 59.9315C16.1123 59.152 14.369 59.1853 13.5538 59.2517C14.0396 58.8076 14.5996 58.3743 14.9042 57.9717C16.1823 58.1194 18.0218 58.7237 18.0845 59.0824C18.1685 59.5664 17.2388 59.9317 17.2388 59.9317V59.9315Z" fill="#E8E8E8"/>
<path d="M23.3343 61.9321C22.8477 62.5141 21.0862 62.7059 19.4221 62.8103C19.1759 62.8261 18.9322 62.8402 18.6949 62.8526C16.157 62.9895 13.7831 62.6459 13.0156 62.2865C12.6945 62.0499 12.5191 61.5028 12.5569 60.9501C12.6326 61.1178 12.7356 61.2557 12.8599 61.3478C13.6275 61.7071 16.0014 62.0509 18.5393 61.9138C18.7764 61.9014 19.0201 61.8873 19.2665 61.8715C20.9306 61.7669 22.6921 61.5752 23.1787 60.9934C23.2882 60.863 23.3912 60.6514 23.4818 60.3865C23.5296 61.0829 23.5739 61.6449 23.3345 61.9321H23.3343Z" fill="#E8E8E8"/>
<path d="M23.5177 58.0933C21.8164 57.9745 19.2754 57.3022 18.2888 56.9269C17.3591 56.5741 16.0127 56.4446 15.1785 56.3965C15.177 55.8421 15.2106 55.3075 15.5829 55.0633C15.7689 54.9414 16.8633 54.2647 19.5364 55.1879C22.4341 56.1883 23.1102 55.735 23.2848 55.8578C23.7576 56.1915 23.6265 57.0224 23.5179 58.0933H23.5177Z" fill="#2468FF"/>
<g opacity="0.2">
<path d="M19.2647 57.2454C18.8694 57.13 18.5335 57.0196 18.2905 56.9275C17.9341 56.7922 17.5157 56.6893 17.089 56.612C17.1286 56.1695 17.2035 55.3378 17.2594 54.7144C17.8407 54.7343 18.5901 54.8605 19.5379 55.1883C19.5915 55.2067 19.6441 55.2248 19.6961 55.2423C19.7291 55.9927 19.496 56.7198 19.2647 57.2454Z" fill="black"/>
</g>
<g opacity="0.7">
<path d="M23.614 57.0562C23.5908 56.7191 23.5011 56.4618 23.2846 56.3091C23.11 56.1864 22.434 56.6396 19.5361 55.6392C16.8632 54.7162 15.7689 55.3927 15.5826 55.5147C15.3133 55.6915 15.2212 56.0201 15.1915 56.3978C15.1866 56.3978 15.1825 56.397 15.1783 56.397C15.1767 55.8425 15.2103 55.308 15.5826 55.0638C15.7687 54.9419 16.863 54.2652 19.5361 55.1884C22.4338 56.1887 23.11 55.7355 23.2846 55.8583C23.5893 56.0733 23.6436 56.4959 23.614 57.0562Z" fill="white"/>
</g>
<path d="M19.4219 62.81C19.1757 62.8257 18.9319 62.8399 18.6947 62.8522C16.1568 62.9892 13.7829 62.6456 13.0153 62.2862C12.5551 61.9468 12.3945 60.9687 12.7296 60.2532C13.8034 60.9315 16.1635 61.4403 17.9718 60.2317C17.9718 60.2317 19.3248 61.7168 19.4219 62.81Z" fill="#2468FF"/>
<g opacity="0.2">
<path d="M19.4219 62.8104C19.1757 62.8261 18.9319 62.8403 18.6947 62.8526C16.1568 62.9896 13.7829 62.6459 13.0153 62.2866C12.6943 62.05 12.5189 61.5029 12.5566 60.9502C12.6324 61.1178 12.7354 61.2557 12.8597 61.3478C13.6273 61.7072 16.0012 62.051 18.5391 61.9139C18.7301 61.9039 18.9252 61.8931 19.1221 61.8806C19.2793 62.1943 19.3956 62.5164 19.4219 62.8104Z" fill="black"/>
</g>
<path d="M23.5703 57.5817C23.53 57.9768 23.4772 58.4168 23.4517 58.8858C22.0904 58.8095 19.5016 58.3877 17.8712 57.1907V55.6699C19.9933 57.091 22.4133 57.4771 23.5703 57.5817Z" fill="#2468FF"/>
<g opacity="0.2">
<path d="M19.5156 56.5614C19.3525 57.1151 19.1162 57.5733 18.9697 57.8283C18.5769 57.6457 18.2048 57.4348 17.8728 57.1907V55.6699C18.4098 56.0293 18.9656 56.3225 19.5156 56.5614Z" fill="black"/>
</g>
<path d="M23.4522 59.1416C23.5145 59.1416 23.5748 59.1185 23.6214 59.0765C23.6714 59.0312 23.7019 58.9676 23.7055 58.8999C23.7254 58.5315 23.762 58.1859 23.7974 57.8521L23.8229 57.6079C23.8298 57.54 23.8094 57.4718 23.7663 57.4192C23.7232 57.3664 23.6608 57.3333 23.5933 57.3271C22.3891 57.2183 20.0626 56.8304 18.0119 55.4569C17.9338 55.4049 17.8339 55.4001 17.7517 55.4446C17.6692 55.4892 17.6178 55.5757 17.6178 55.67V57.1908C17.6178 57.2725 17.6566 57.3492 17.7222 57.3974C19.2711 58.5347 21.7694 59.0476 23.4381 59.1412C23.4429 59.1412 23.4476 59.1416 23.4522 59.1416ZM23.2916 57.8108C23.2655 58.058 23.2369 58.33 23.2157 58.6137C21.665 58.4929 19.5157 58.0249 18.1254 57.0586V56.1338C20.0254 57.2824 22.07 57.6763 23.2916 57.8108Z" fill="black"/>
<path d="M17.6528 60.4873C17.7265 60.4873 17.7971 60.455 17.8457 60.3976C17.9153 60.3155 17.9462 60.2555 17.9539 60.2392C17.9588 60.2284 17.9642 60.2147 17.9677 60.2035C17.9677 60.2035 17.9796 60.166 17.9919 60.0987C18.0114 59.9918 17.962 59.8842 17.8685 59.8304C17.775 59.7764 17.6579 59.7881 17.5765 59.8589L17.4555 59.9643C17.3726 60.0365 17.3451 60.1543 17.3872 60.2561C17.3872 60.2561 17.3983 60.2828 17.4199 60.333C17.4547 60.414 17.5284 60.4712 17.615 60.4843C17.6277 60.4863 17.6401 60.4873 17.6528 60.4873Z" fill="#232333"/>
<path d="M17.7463 60.3079C17.8655 60.3079 17.9717 60.223 17.995 60.1006C18.0415 59.8584 18.1024 59.2298 17.6662 58.6249C17.2057 57.9861 16.3457 57.5841 15.11 57.4298C14.9692 57.4131 14.8442 57.5121 14.827 57.6523C14.8098 57.7926 14.9087 57.9201 15.0477 57.9375C16.1385 58.0734 16.8813 58.4059 17.2558 58.9255C17.5751 59.3683 17.5308 59.8268 17.4968 60.0033C17.4703 60.1421 17.56 60.2762 17.6977 60.3029C17.7141 60.3061 17.7303 60.3075 17.7461 60.3075L17.7463 60.3079Z" fill="#232333"/>
<path d="M15.0962 61.2165C16.8741 61.2165 17.5799 60.7079 17.8447 60.3983C17.9362 60.2913 17.9243 60.1298 17.8182 60.0376C17.712 59.9455 17.5518 59.9572 17.4603 60.0643C17.3255 60.2221 16.7448 60.7338 14.9416 60.7037C13.9797 60.6871 13.2913 60.4561 12.951 60.0356C12.8623 59.9263 12.7025 59.91 12.594 59.9991C12.4854 60.0884 12.4694 60.2494 12.5578 60.3591C13.002 60.9074 13.801 61.1956 14.9329 61.2149C14.9881 61.2159 15.0426 61.2163 15.096 61.2163L15.0962 61.2165Z" fill="black"/>
<path d="M17.5562 63.1387C17.935 63.1387 18.3206 63.1291 18.7079 63.1082C20.9007 62.9904 22.9196 62.8243 23.5274 62.0967C23.8287 61.7359 23.7878 61.1499 23.7359 60.4079C23.7138 60.0916 23.6911 59.7645 23.6911 59.4183C23.6911 58.8696 23.7468 58.3404 23.7961 57.8736C23.9038 56.8504 23.989 56.042 23.4297 55.6483C23.3124 55.5658 23.1875 55.575 23.0141 55.5871C22.6337 55.6146 21.7418 55.6786 19.6187 54.9459C17.0649 54.0642 15.8489 54.5846 15.4446 54.8493C14.911 55.1983 14.9191 55.9421 14.9264 56.5984C14.9307 57.0048 14.9355 57.4252 14.8103 57.6548C14.6445 57.9591 14.2227 58.3267 13.8148 58.682C13.3166 59.1161 12.8016 59.565 12.5514 60.0409C12.1066 60.8519 12.2578 62.0456 12.8648 62.4931C12.8783 62.503 12.8927 62.5116 12.9077 62.5186C13.6104 62.8475 15.4749 63.1387 17.5556 63.1387H17.5562ZM23.1687 56.0904C23.4483 56.3321 23.3787 56.9917 23.2917 57.8194C23.2413 58.299 23.1839 58.8425 23.1839 59.4181C23.1839 59.7824 23.2084 60.1336 23.2302 60.4438C23.2705 61.0204 23.3085 61.5651 23.1396 61.7672C22.623 62.3859 20.0587 62.5234 18.6812 62.5975C16.1366 62.7345 13.852 62.3795 13.1466 62.066C12.7986 61.7827 12.6586 60.904 12.9985 60.2845C13.2061 59.8895 13.6847 59.4723 14.1474 59.0691C14.6095 58.6663 15.046 58.286 15.2556 57.9011C15.4448 57.5539 15.4395 57.0654 15.4343 56.593C15.4282 56.0431 15.4221 55.4745 15.7214 55.2786C15.9883 55.1038 17.0457 54.5985 19.455 55.4303C21.6756 56.1968 22.6394 56.1277 23.0509 56.0978C23.0932 56.0948 23.1396 56.0914 23.1691 56.0908L23.1687 56.0904Z" fill="black"/>
<path d="M23.3344 61.9315C23.0677 62.252 22.4162 62.4529 21.6068 62.588C21.7509 62.0617 21.9658 61.2889 22.1141 60.8C22.3957 59.872 22.8741 59.2701 23.4481 59.0154C23.4416 59.1473 23.4382 59.2819 23.4382 59.418C23.4382 60.5461 23.6778 61.5215 23.3344 61.9315Z" fill="#2468FF"/>
<g opacity="0.2">
<path d="M23.3343 61.9313C23.0675 62.2518 22.4161 62.4527 21.6066 62.5878C21.6873 62.293 21.7903 61.9221 21.8907 61.566C22.4928 61.434 22.9622 61.253 23.1787 60.9931C23.2882 60.8628 23.3912 60.6511 23.4818 60.3862C23.5296 61.0826 23.5739 61.6447 23.3345 61.9311L23.3343 61.9313Z" fill="black"/>
</g>
<path d="M21.6071 62.8441C21.621 62.8441 21.6348 62.8429 21.6486 62.8405C22.6475 62.6737 23.245 62.4371 23.5289 62.096C23.83 61.7359 23.7889 61.1503 23.7371 60.4089C23.715 60.0922 23.692 59.7649 23.692 59.4181C23.692 59.2877 23.6952 59.1566 23.7015 59.0282C23.7059 58.9395 23.6645 58.855 23.592 58.8048C23.5194 58.7546 23.4263 58.7458 23.3458 58.7813C22.6772 59.0783 22.1673 59.7503 21.8715 60.7252C21.7119 61.2516 21.484 62.0757 21.3624 62.52C21.3394 62.6041 21.3604 62.6944 21.4183 62.7592C21.4669 62.8134 21.5356 62.8439 21.6069 62.8439L21.6071 62.8441ZM23.1849 59.4813C23.1875 59.8235 23.2104 60.1527 23.231 60.4449C23.2713 61.0212 23.3094 61.5653 23.1408 61.7666C23.1408 61.7666 23.1406 61.767 23.1404 61.7672C23.0239 61.9071 22.7224 62.0978 21.9604 62.2613C22.0824 61.8208 22.239 61.2643 22.3571 60.8749C22.5439 60.259 22.8312 59.779 23.1851 59.4811L23.1849 59.4813Z" fill="black"/>
<path d="M21.2148 62.6455C20.5717 62.7326 19.8585 62.7859 19.1742 62.8257C18.42 61.9599 17.7958 60.5653 17.6524 60.2317C17.706 60.1685 17.725 60.1288 17.725 60.1288C17.725 60.1288 17.7333 60.1015 17.7422 60.0525L18.9617 58.9866C18.9617 58.9866 19.8453 61.3399 21.2146 62.6457L21.2148 62.6455Z" fill="#2468FF"/>
<g opacity="0.2">
<path d="M21.2148 62.6454C20.5717 62.7325 19.8585 62.7857 19.1742 62.8255C18.9403 62.5567 18.7189 62.2378 18.5204 61.9149C18.5261 61.9149 18.5311 61.9141 18.5368 61.9141C18.7739 61.9017 19.0176 61.8876 19.264 61.8718C19.665 61.8469 20.0719 61.8162 20.4655 61.7764C20.6937 62.0893 20.9448 62.3883 21.2148 62.6456V62.6454Z" fill="black"/>
</g>
<path d="M19.1747 63.0814C19.1795 63.0814 19.1844 63.0814 19.1894 63.081C19.7297 63.0496 20.531 62.9963 21.2489 62.8991C21.3458 62.8859 21.4265 62.818 21.4565 62.7241C21.4864 62.6304 21.4605 62.5276 21.3895 62.4598C20.0775 61.2089 19.2081 58.9188 19.1994 58.8959C19.1702 58.8178 19.1047 58.759 19.0243 58.7384C18.9446 58.7181 18.8588 58.7384 18.7961 58.7932L17.5766 59.8592C17.5331 59.897 17.5036 59.9489 17.4934 60.0059C17.4918 60.0146 17.4902 60.0224 17.4888 60.0292C17.4827 60.0376 17.4732 60.0503 17.4601 60.0657C17.3973 60.14 17.3819 60.2436 17.4204 60.3333C17.5924 60.7339 18.2132 62.1096 18.9843 62.9945C19.0326 63.05 19.1022 63.0816 19.1749 63.0816L19.1747 63.0814ZM20.6785 62.4522C20.1801 62.5046 19.6781 62.5393 19.2858 62.563C18.6621 61.8058 18.1346 60.6901 17.9432 60.2608C17.9487 60.2508 17.9523 60.2436 17.9544 60.2395C17.9594 60.2287 17.9647 60.2149 17.9683 60.2038C17.9683 60.2038 17.9697 60.1994 17.972 60.1908L18.8615 59.4135C19.1287 60.0425 19.772 61.419 20.6787 62.4526L20.6785 62.4522Z" fill="black"/>
<path d="M15.4624 57.2344C15.4624 57.2344 15.6447 56.9685 15.7122 55.5987C15.7505 54.8188 16.0463 53.7411 17.9726 54.1941C19.1429 54.4694 19.0332 55.2774 18.8528 56.0681C18.6897 56.7836 18.2967 57.4915 18.1033 57.7622C17.8255 58.1511 15.4626 57.2344 15.4626 57.2344H15.4624Z" fill="white"/>
<path d="M18.8527 56.0685C18.8412 56.1207 18.828 56.1723 18.8139 56.2237C18.6336 56.8844 18.2829 57.5121 18.1033 57.7628C17.8258 58.1513 15.4625 57.2348 15.4625 57.2348C15.4625 57.2348 15.61 57.0206 15.6889 55.9863C15.698 55.8685 15.7061 55.739 15.7128 55.5987C15.7507 54.8192 16.0463 53.7417 17.9733 54.1941C19.1433 54.4698 19.033 55.2774 18.8527 56.0685Z" fill="white"/>
<path d="M18.8125 56.2237C18.6322 56.8845 18.2814 57.5121 18.1019 57.7628C17.8243 58.1513 15.461 57.2349 15.461 57.2349C15.461 57.2349 15.6085 57.0206 15.6874 55.9864C16.2341 55.8502 17.2428 55.7175 18.0861 56.267C18.3603 56.4464 18.6033 56.3947 18.8123 56.2237H18.8125Z" fill="#E5E5E5"/>
<path d="M17.7842 58.1141C18.0468 58.1141 18.213 58.0465 18.3093 57.9118C18.5359 57.5947 18.9333 56.8574 19.1002 56.1256C19.2461 55.486 19.5176 54.2951 18.0303 53.9453C17.1752 53.7444 16.5194 53.8115 16.0805 54.1452C15.6953 54.438 15.4921 54.9094 15.4589 55.5862C15.4039 56.7038 15.2742 57.0394 15.2491 57.0946C15.1981 57.1562 15.1874 57.2282 15.2066 57.3073C15.2264 57.3888 15.2938 57.4432 15.3713 57.4733C15.396 57.4829 15.9798 57.7087 16.6088 57.8901C17.1264 58.0396 17.508 58.1141 17.7838 58.1141H17.7842ZM17.9123 57.5921C17.6968 57.6698 16.7662 57.4446 15.7861 57.0837C15.8527 56.8317 15.9278 56.3869 15.966 55.6115C15.9913 55.0953 16.1289 54.7491 16.3863 54.5534C16.6995 54.3152 17.214 54.2781 17.9155 54.4432C18.7666 54.6433 18.8165 55.0885 18.6061 56.0108C18.4608 56.6484 18.1104 57.3071 17.9125 57.5921H17.9123Z" fill="black"/>
<path d="M17.3894 59.1685C17.3894 59.1685 16.9603 60.0568 17.5454 60.4897C18.2312 60.997 19.3072 60.1555 19.553 59.0465C19.8738 57.5987 18.2386 56.657 16.8577 56.4279C15.0558 56.1292 14.7333 57.065 14.8606 57.6862C14.9879 58.3075 17.3896 59.1687 17.3896 59.1687L17.3894 59.1685Z" fill="#2468FF"/>
<g opacity="0.7">
<path d="M19.5527 59.0466C19.4885 59.3354 19.3682 59.606 19.2134 59.8392C19.2769 59.6989 19.3279 59.5504 19.3617 59.396C19.6747 57.9822 18.078 57.0626 16.73 56.8384C15.5524 56.6433 15.0213 56.9887 14.836 57.4194C14.8475 56.8334 15.2997 56.1693 16.8577 56.4274C18.2385 56.6566 19.874 57.5978 19.5529 59.0464L19.5527 59.0466Z" fill="white"/>
</g>
<path d="M18.0054 60.8966C18.1488 60.8966 18.2975 60.8683 18.4475 60.8117C19.0735 60.5749 19.6297 59.8721 19.8001 59.1024C19.9154 58.5826 19.8208 58.0909 19.5197 57.6412C18.9469 56.786 17.7901 56.3236 16.8986 56.1755C15.9783 56.023 15.3118 56.1556 14.9173 56.5699C14.6366 56.8647 14.5225 57.3014 14.6121 57.7381C14.7412 58.3675 16.3015 59.0314 17.0627 59.3204C16.9572 59.676 16.8696 60.3072 17.3953 60.6961C17.5754 60.8292 17.784 60.8966 18.0056 60.8968L18.0054 60.8966ZM16.2161 56.6259C16.397 56.6259 16.5975 56.6439 16.8162 56.6802C17.8053 56.8442 18.7016 57.3337 19.0992 57.9273C19.3192 58.2557 19.3884 58.6135 19.305 58.9906C19.1718 59.5915 18.7364 60.156 18.2694 60.3325C18.0468 60.4169 17.8534 60.4001 17.6952 60.2833C17.2893 59.9832 17.6142 59.2866 17.6175 59.2796C17.6486 59.2142 17.6507 59.1383 17.6235 59.0713C17.596 59.0043 17.5418 58.9517 17.4742 58.9274C16.2665 58.4941 15.1611 57.8898 15.1087 57.6343C15.082 57.5039 15.0455 57.1735 15.2831 56.9239C15.4713 56.7262 15.7891 56.6257 16.2161 56.6257V56.6259Z" fill="black"/>
<path d="M14.0171 58.8453C14.0171 58.8453 15.8557 58.4096 17.7203 59.6836C17.7203 59.6836 18.8281 59.7386 18.4416 58.7871C18.0353 57.7869 15.4974 57.294 14.9153 57.5633C14.3566 57.8216 13.9537 58.3356 14.0173 58.8455L14.0171 58.8453Z" fill="white"/>
<path d="M18.0352 59.6543C17.8663 59.6908 17.7198 59.6834 17.7198 59.6834C15.8556 58.4092 14.0168 58.8449 14.0168 58.8449C14.0069 58.7678 14.0085 58.6912 14.0192 58.6149C14.1501 58.4995 14.3049 58.404 14.4761 58.3385C15.3992 57.9865 17.5962 58.5627 18.0021 59.5628C18.0154 59.5943 18.0261 59.6242 18.0352 59.6541V59.6543Z" fill="white"/>
<path d="M18.0352 59.6543C17.8663 59.6908 17.7198 59.6834 17.7198 59.6834C15.8556 58.4092 14.0168 58.8449 14.0168 58.8449C14.0069 58.7678 14.0085 58.6912 14.0192 58.6149C14.1501 58.4995 14.3049 58.404 14.4761 58.3385C15.3992 57.9865 17.5962 58.5627 18.0021 59.5628C18.0154 59.5943 18.0261 59.6242 18.0352 59.6541V59.6543Z" fill="#E8E8E8"/>
<path d="M17.7625 59.94C17.9288 59.94 18.4139 59.9093 18.654 59.5673C18.8145 59.3383 18.8232 59.0431 18.6799 58.6899C18.4683 58.1691 17.8453 57.8295 17.3601 57.6362C16.5278 57.3047 15.3053 57.1026 14.813 57.3306C14.1135 57.6541 13.6939 58.2756 13.769 58.8771C13.7779 58.949 13.8169 59.0138 13.876 59.0553C13.9351 59.0965 14.0087 59.1107 14.0785 59.0943C14.1028 59.0888 15.8417 58.7063 17.5816 59.8952C17.6199 59.9215 17.665 59.9366 17.7115 59.9388C17.7202 59.9392 17.738 59.94 17.7627 59.94H17.7625ZM15.396 57.7458C15.8344 57.7458 16.5378 57.8588 17.1737 58.1119C17.7299 58.3334 18.098 58.6074 18.2103 58.8839C18.2607 59.008 18.3068 59.1759 18.2402 59.2715C18.1627 59.3827 17.942 59.4218 17.8008 59.4278C16.3466 58.4629 14.9288 58.4743 14.2991 58.543C14.3875 58.2532 14.6582 57.965 15.0245 57.7956C15.0951 57.7629 15.2256 57.7458 15.396 57.7458Z" fill="black"/>
<path d="M20.0682 59.6515L21.0063 60.8717L23.0742 58.8857L21.0196 60.0657L20.0682 59.6515Z" fill="black"/>
<path d="M17.3697 24.914C17.5356 25.5589 18.1117 26.0674 18.7964 25.9853C18.8913 25.9779 18.9817 25.956 19.0758 25.9402C19.2148 25.9169 19.3087 25.7845 19.2856 25.6444C19.2624 25.5043 19.1309 25.4096 18.9922 25.433C18.9714 25.436 18.9394 25.4471 18.919 25.4539C18.6709 25.5581 18.3868 25.6068 18.1343 25.4888C17.8713 25.376 17.6556 25.121 17.5305 24.8607C17.4927 24.7615 17.341 24.8113 17.3697 24.914Z" fill="black"/>
<path d="M42.4657 11.3173C41.9815 10.5186 41.7426 9.55993 41.8449 8.55699C42.0928 6.12259 44.2514 4.3517 46.6663 4.60164C49.0812 4.85158 50.8379 7.02767 50.59 9.46206C50.342 11.8965 48.1834 13.6673 45.7685 13.4174C45.0969 13.3479 44.4762 13.129 43.9355 12.7974L41.9014 13.2572L42.4659 11.3173H42.4657Z" fill="white"/>
<g opacity="0.5">
<path d="M46.5817 5.44926C44.3258 5.21586 42.2941 6.74578 41.834 8.93283C41.8334 8.77657 41.8402 8.61912 41.8564 8.46007C42.1043 6.02567 44.263 4.25478 46.6778 4.50472C49.0929 4.75465 50.8496 6.93074 50.6017 9.36514C50.5855 9.52479 50.5605 9.68125 50.5283 9.83472C50.5198 7.59824 48.8385 5.68265 46.5819 5.44906L46.5817 5.44926Z" fill="white"/>
</g>
<path d="M46.2266 13.8307C47.3218 13.8307 48.375 13.4548 49.2362 12.7487C50.2268 11.9359 50.8444 10.7827 50.9747 9.50188C51.244 6.85761 49.3292 4.4854 46.7061 4.21394C44.0826 3.94247 41.7298 5.87301 41.4603 8.51728C41.3585 9.51703 41.5614 10.4992 42.0477 11.3694L41.5303 13.1477C41.4918 13.28 41.5256 13.4232 41.6193 13.5238C41.713 13.6245 41.8526 13.6679 41.9861 13.6376L43.8717 13.2113C44.4444 13.5372 45.0686 13.7369 45.7292 13.8052C45.8955 13.8224 46.0615 13.8309 46.2266 13.8309V13.8307ZM46.2148 4.96773C46.351 4.96773 46.4886 4.97471 46.6272 4.98906C48.8262 5.21668 50.4314 7.20521 50.2056 9.42196C50.0963 10.4959 49.5787 11.4623 48.7481 12.1438C47.9175 12.825 46.8732 13.1399 45.8083 13.0293C45.2098 12.9673 44.6475 12.7772 44.1366 12.4639C44.051 12.4114 43.9488 12.3945 43.8511 12.4166L42.4572 12.7317L42.837 11.4266C42.8677 11.321 42.8528 11.2074 42.7959 11.1137C42.3352 10.3539 42.1395 9.48335 42.2298 8.59641C42.4414 6.51938 44.1868 4.96753 46.215 4.96753L46.2148 4.96773Z" fill="black"/>
<g opacity="0.3">
<path d="M42.4411 11.2745C43.645 12.3012 45.3036 12.7506 46.9508 12.3375C48.7775 11.8792 50.1233 10.4769 50.6073 8.77515C50.619 9.00077 50.6137 9.23018 50.5901 9.46198C50.3422 11.8964 48.1835 13.6673 45.7687 13.4173C45.097 13.3478 44.4764 13.1289 43.9357 12.7973L41.9016 13.2571L42.466 11.3172C42.4575 11.3032 42.4496 11.2887 42.4413 11.2747L42.4411 11.2745Z" fill="black"/>
</g>
<path d="M44.8103 7.76505C45.1907 7.38157 45.8073 7.45033 46.1877 7.83381L46.2469 7.8934L46.306 7.83381C46.6864 7.45033 47.303 7.38157 47.6834 7.76505C48.0639 8.14852 48.0639 8.77018 47.6834 9.15365L47.6243 9.21325L46.4284 10.4189C46.3281 10.5199 46.1654 10.5199 46.0652 10.4189L44.8692 9.21325L44.8101 9.15365C44.4297 8.77018 44.4297 8.14852 44.8101 7.76505H44.8103Z" fill="#2468FF"/>
</g>
<defs>
<clipPath id="clip0_292_5820">
<rect width="51" height="66" fill="white" transform="matrix(-1 0 0 1 51 0)"/>
</clipPath>
</defs>
</svg>
