<svg width="200" height="159" viewBox="0 0 200 159" fill="none" xmlns="http://www.w3.org/2000/svg">
<path d="M45.8333 42.3334C45.8333 39.0504 46.48 35.7995 47.7363 32.7663C48.9927 29.7332 50.8342 26.9772 53.1557 24.6557C55.4771 22.3343 58.2331 20.4928 61.2662 19.2364C64.2994 17.9801 67.5503 17.3334 70.8333 17.3334C74.1164 17.3334 77.3673 17.9801 80.4004 19.2364C83.4336 20.4928 86.1895 22.3343 88.511 24.6557C90.8325 26.9772 92.674 29.7332 93.9303 32.7663C95.1867 35.7995 95.8333 39.0504 95.8333 42.3334C95.8333 48.9638 93.1994 55.3227 88.511 60.0111C83.8226 64.6995 77.4637 67.3334 70.8333 67.3334C64.2029 67.3334 57.8441 64.6995 53.1557 60.0111C48.4673 55.3227 45.8333 48.9638 45.8333 42.3334ZM70.8333 0.666748C59.7826 0.666748 49.1846 5.05662 41.3705 12.8706C33.5565 20.6846 29.1667 31.2827 29.1667 42.3334C29.1667 53.3841 33.5565 63.9822 41.3705 71.7962C49.1846 79.6102 59.7826 84.0001 70.8333 84.0001C81.884 84.0001 92.4821 79.6102 100.296 71.7962C108.11 63.9822 112.5 53.3841 112.5 42.3334C112.5 31.2827 108.11 20.6846 100.296 12.8706C92.4821 5.05662 81.884 0.666748 70.8333 0.666748ZM129.167 0.666748H120.833V17.3334H129.167C132.45 17.3334 135.701 17.9801 138.734 19.2364C141.767 20.4928 144.523 22.3343 146.844 24.6557C149.166 26.9772 151.007 29.7332 152.264 32.7663C153.52 35.7995 154.167 39.0504 154.167 42.3334C154.167 45.6165 153.52 48.8674 152.264 51.9005C151.007 54.9336 149.166 57.6896 146.844 60.0111C144.523 62.3325 141.767 64.174 138.734 65.4304C135.701 66.6868 132.45 67.3334 129.167 67.3334H120.833V84.0001H129.167C140.217 84.0001 150.815 79.6102 158.629 71.7962C166.443 63.9822 170.833 53.3841 170.833 42.3334C170.833 31.2827 166.443 20.6846 158.629 12.8706C150.815 5.05662 140.217 0.666748 129.167 0.666748ZM0 142.333C0 131.283 4.38987 120.685 12.2039 112.871C20.0179 105.057 30.616 100.667 41.6667 100.667H100C111.051 100.667 121.649 105.057 129.463 112.871C137.277 120.685 141.667 131.283 141.667 142.333V159H125V142.333C125 135.703 122.366 129.344 117.678 124.656C112.989 119.967 106.63 117.333 100 117.333H41.6667C35.0363 117.333 28.6774 119.967 23.989 124.656C19.3006 129.344 16.6667 135.703 16.6667 142.333V159H0V150.667V142.333ZM200 142.333C200 136.862 198.922 131.443 196.828 126.388C194.734 121.333 191.665 116.74 187.796 112.871C183.927 109.002 179.334 105.932 174.278 103.838C169.223 101.744 163.805 100.667 158.333 100.667H150V117.333H158.333C164.964 117.333 171.323 119.967 176.011 124.656C180.699 129.344 183.333 135.703 183.333 142.333V159H200V150.667V142.333Z" fill="black"/>
</svg>
