<svg width="22" height="22" viewBox="0 0 22 22" fill="none" xmlns="http://www.w3.org/2000/svg">
<path d="M8.39635 9.96409C8.30469 9.95492 8.19469 9.95492 8.09385 9.96409C5.91219 9.89075 4.17969 8.10325 4.17969 5.90325C4.17969 3.65742 5.99469 1.83325 8.24969 1.83325C10.4955 1.83325 12.3197 3.65742 12.3197 5.90325C12.3105 8.10325 10.578 9.89075 8.39635 9.96409Z" stroke="black" stroke-width="1.5" stroke-linecap="round" stroke-linejoin="round"/>
<path d="M15.042 3.66675C16.8204 3.66675 18.2504 5.10591 18.2504 6.87508C18.2504 8.60758 16.8754 10.0192 15.1612 10.0834C15.0879 10.0742 15.0054 10.0742 14.9229 10.0834" stroke="black" stroke-width="1.5" stroke-linecap="round" stroke-linejoin="round"/>
<path d="M3.81316 13.3467C1.59483 14.8317 1.59483 17.2517 3.81316 18.7276C6.334 20.4142 10.4682 20.4142 12.989 18.7276C15.2073 17.2426 15.2073 14.8226 12.989 13.3467C10.4773 11.6692 6.34316 11.6692 3.81316 13.3467Z" stroke="black" stroke-width="1.5" stroke-linecap="round" stroke-linejoin="round"/>
<path d="M16.8115 18.3333C17.4715 18.1958 18.0949 17.9299 18.6082 17.5358C20.0382 16.4633 20.0382 14.6941 18.6082 13.6216C18.104 13.2366 17.4899 12.9799 16.839 12.8333" stroke="black" stroke-width="1.5" stroke-linecap="round" stroke-linejoin="round"/>
</svg>
