<svg width="150" height="150" viewBox="0 0 150 150" fill="none" xmlns="http://www.w3.org/2000/svg">
<path d="M0 31.25C0 22.962 3.2924 15.0134 9.15291 9.15291C15.0134 3.2924 22.962 0 31.25 0H118.75C127.038 0 134.987 3.2924 140.847 9.15291C146.708 15.0134 150 22.962 150 31.25V118.75C150 127.038 146.708 134.987 140.847 140.847C134.987 146.708 127.038 150 118.75 150H31.25C22.962 150 15.0134 146.708 9.15291 140.847C3.2924 134.987 0 127.038 0 118.75V31.25ZM31.25 12.5C26.2772 12.5 21.5081 14.4754 17.9917 17.9917C14.4754 21.5081 12.5 26.2772 12.5 31.25V118.75C12.5 123.723 14.4754 128.492 17.9917 132.008C21.5081 135.525 26.2772 137.5 31.25 137.5H118.75C123.723 137.5 128.492 135.525 132.008 132.008C135.525 128.492 137.5 123.723 137.5 118.75V31.25C137.5 26.2772 135.525 21.5081 132.008 17.9917C128.492 14.4754 123.723 12.5 118.75 12.5H31.25ZM81.25 106.25C81.25 104.592 81.9085 103.003 83.0806 101.831C84.2527 100.658 85.8424 100 87.5 100H115.625C117.283 100 118.872 100.658 120.044 101.831C121.217 103.003 121.875 104.592 121.875 106.25C121.875 107.908 121.217 109.497 120.044 110.669C118.872 111.842 117.283 112.5 115.625 112.5H87.5C85.8424 112.5 84.2527 111.842 83.0806 110.669C81.9085 109.497 81.25 107.908 81.25 106.25ZM87.5 50C85.8424 50 84.2527 50.6585 83.0806 51.8306C81.9085 53.0027 81.25 54.5924 81.25 56.25C81.25 57.9076 81.9085 59.4973 83.0806 60.6694C84.2527 61.8415 85.8424 62.5 87.5 62.5H115.625C117.283 62.5 118.872 61.8415 120.044 60.6694C121.217 59.4973 121.875 57.9076 121.875 56.25C121.875 54.5924 121.217 53.0027 120.044 51.8306C118.872 50.6585 117.283 50 115.625 50H87.5ZM66.925 89.325C67.507 89.9056 67.9688 90.5953 68.2839 91.3546C68.599 92.1139 68.7612 92.9279 68.7612 93.75C68.7612 94.5721 68.599 95.3861 68.2839 96.1454C67.9688 96.9047 67.507 97.5944 66.925 98.175L48.175 116.925C47.5944 117.507 46.9047 117.969 46.1454 118.284C45.3861 118.599 44.5721 118.761 43.75 118.761C42.9279 118.761 42.1139 118.599 41.3546 118.284C40.5953 117.969 39.9056 117.507 39.325 116.925L29.975 107.575C29.3939 106.994 28.9329 106.304 28.6185 105.545C28.304 104.786 28.1421 103.972 28.1421 103.15C28.1421 102.328 28.304 101.514 28.6185 100.755C28.9329 99.996 29.3939 99.3061 29.975 98.725C31.1486 97.5514 32.7403 96.8921 34.4 96.8921C35.2218 96.8921 36.0356 97.054 36.7948 97.3685C37.554 97.6829 38.2439 98.1439 38.825 98.725L43.75 103.663L58.075 89.325C58.6556 88.743 59.3453 88.2812 60.1046 87.9661C60.8639 87.651 61.6779 87.4888 62.5 87.4888C63.3221 87.4888 64.1361 87.651 64.8954 87.9661C65.6547 88.2812 66.3444 88.743 66.925 89.325ZM66.925 48.175C67.5061 47.5939 67.9671 46.904 68.2815 46.1448C68.596 45.3856 68.7579 44.5718 68.7579 43.75C68.7579 42.9282 68.596 42.1144 68.2815 41.3552C67.9671 40.596 67.5061 39.9061 66.925 39.325C66.3439 38.7439 65.654 38.2829 64.8948 37.9685C64.1356 37.654 63.3218 37.4921 62.5 37.4921C61.6782 37.4921 60.8644 37.654 60.1052 37.9685C59.346 38.2829 58.6561 38.7439 58.075 39.325L43.75 53.6625L38.825 48.725C37.6514 47.5514 36.0597 46.8921 34.4 46.8921C32.7403 46.8921 31.1486 47.5514 29.975 48.725C28.8014 49.8986 28.1421 51.4903 28.1421 53.15C28.1421 54.8097 28.8014 56.4014 29.975 57.575L39.325 66.925C39.9056 67.507 40.5953 67.9688 41.3546 68.2839C42.1139 68.599 42.9279 68.7612 43.75 68.7612C44.5721 68.7612 45.3861 68.599 46.1454 68.2839C46.9047 67.9688 47.5944 67.507 48.175 66.925L66.925 48.175Z" fill="black"/>
</svg>
