<svg width="22" height="22" viewBox="0 0 22 22" fill="none" xmlns="http://www.w3.org/2000/svg">
<path d="M4.58331 1.80776C4.91659 1.6528 5.22831 1.54989 5.49998 1.48193C5.77165 1.54989 6.08337 1.6528 6.41665 1.80776C6.93015 2.04651 7.49483 2.40879 8.0431 2.95705C8.59136 3.50531 8.95364 4.06999 9.19238 4.5835C9.34734 4.91677 9.45026 5.22849 9.51821 5.50016C9.45026 5.77184 9.34734 6.08355 9.19239 6.41683C8.95364 6.93033 8.59136 7.49502 8.0431 8.04328C7.49483 8.59154 6.93015 8.95382 6.41665 9.19257C6.08337 9.34752 5.77165 9.45044 5.49998 9.51839C5.22831 9.45044 4.91659 9.34752 4.58331 9.19257C4.06981 8.95382 3.50513 8.59154 2.95686 8.04328C2.4086 7.49502 2.04632 6.93033 1.80757 6.41683C1.65262 6.08355 1.5497 5.77184 1.48175 5.50016C1.5497 5.22849 1.65262 4.91677 1.80757 4.5835C2.04632 4.06999 2.4086 3.50531 2.95686 2.95705C3.50513 2.40879 4.06981 2.04651 4.58331 1.80776ZM4.58331 2.521C3.13498 2.521 2.52081 3.13516 2.52081 4.5835V6.41683C2.52081 7.86516 3.13498 8.47933 4.58331 8.47933H6.41665C7.86498 8.47933 8.47915 7.86516 8.47915 6.41683V4.5835C8.47915 3.13516 7.86498 2.521 6.41665 2.521H4.58331Z" fill="black" stroke="black" stroke-width="17"/>
<path d="M15.5833 1.80776C15.9166 1.6528 16.2283 1.54989 16.5 1.48193C16.7717 1.54989 17.0834 1.6528 17.4166 1.80776C17.9301 2.04651 18.4948 2.40879 19.0431 2.95705C19.5914 3.50531 19.9536 4.06999 20.1924 4.5835C20.3473 4.91677 20.4503 5.22849 20.5182 5.50016C20.4503 5.77184 20.3473 6.08355 20.1924 6.41683C19.9536 6.93033 19.5914 7.49502 19.0431 8.04328C18.4948 8.59154 17.9301 8.95382 17.4166 9.19257C17.0834 9.34752 16.7717 9.45044 16.5 9.51839C16.2283 9.45044 15.9166 9.34752 15.5833 9.19257C15.0698 8.95382 14.5051 8.59154 13.9569 8.04328C13.4086 7.49502 13.0463 6.93033 12.8076 6.41683C12.6526 6.08355 12.5497 5.77184 12.4817 5.50016C12.5497 5.22849 12.6526 4.91677 12.8076 4.5835C13.0463 4.06999 13.4086 3.50531 13.9569 2.95705C14.5051 2.40879 15.0698 2.04651 15.5833 1.80776ZM15.5833 2.521C14.135 2.521 13.5208 3.13516 13.5208 4.5835V6.41683C13.5208 7.86516 14.135 8.47933 15.5833 8.47933H17.4166C18.865 8.47933 19.4791 7.86516 19.4791 6.41683V4.5835C19.4791 3.13516 18.865 2.521 17.4166 2.521H15.5833Z" fill="black" stroke="black" stroke-width="17"/>
<path d="M15.5833 12.8078C15.9166 12.6528 16.2283 12.5499 16.5 12.4819C16.7717 12.5499 17.0834 12.6528 17.4166 12.8078C17.9301 13.0465 18.4948 13.4088 19.0431 13.957C19.5914 14.5053 19.9536 15.07 20.1924 15.5835C20.3473 15.9168 20.4503 16.2285 20.5182 16.5002C20.4503 16.7718 20.3473 17.0836 20.1924 17.4168C19.9536 17.9303 19.5914 18.495 19.0431 19.0433C18.4948 19.5915 17.9301 19.9538 17.4166 20.1926C17.0834 20.3475 16.7717 20.4504 16.5 20.5184C16.2283 20.4504 15.9166 20.3475 15.5833 20.1926C15.0698 19.9538 14.5051 19.5915 13.9569 19.0433C13.4086 18.495 13.0463 17.9303 12.8076 17.4168C12.6526 17.0836 12.5497 16.7718 12.4817 16.5002C12.5497 16.2285 12.6526 15.9168 12.8076 15.5835C13.0463 15.07 13.4086 14.5053 13.9569 13.957C14.5051 13.4088 15.0698 13.0465 15.5833 12.8078ZM15.5833 13.521C14.135 13.521 13.5208 14.1352 13.5208 15.5835V17.4168C13.5208 18.8652 14.135 19.4793 15.5833 19.4793H17.4166C18.865 19.4793 19.4791 18.8652 19.4791 17.4168V15.5835C19.4791 14.1352 18.865 13.521 17.4166 13.521H15.5833Z" fill="black" stroke="black" stroke-width="17"/>
<path d="M4.58331 12.8078C4.91659 12.6528 5.22831 12.5499 5.49998 12.4819C5.77165 12.5499 6.08337 12.6528 6.41665 12.8078C6.93015 13.0465 7.49483 13.4088 8.0431 13.957C8.59136 14.5053 8.95364 15.07 9.19239 15.5835C9.34734 15.9168 9.45026 16.2285 9.51821 16.5002C9.45026 16.7718 9.34734 17.0836 9.19239 17.4168C8.95364 17.9303 8.59136 18.495 8.0431 19.0433C7.49483 19.5915 6.93015 19.9538 6.41665 20.1926C6.08337 20.3475 5.77165 20.4504 5.49998 20.5184C5.22831 20.4504 4.91659 20.3475 4.58331 20.1926C4.06981 19.9538 3.50513 19.5915 2.95686 19.0433C2.4086 18.495 2.04632 17.9303 1.80757 17.4168C1.65262 17.0836 1.5497 16.7718 1.48175 16.5002C1.5497 16.2285 1.65262 15.9168 1.80757 15.5835C2.04632 15.07 2.4086 14.5053 2.95686 13.957C3.50513 13.4088 4.06981 13.0465 4.58331 12.8078ZM4.58331 13.521C3.13498 13.521 2.52081 14.1352 2.52081 15.5835V17.4168C2.52081 18.8652 3.13498 19.4793 4.58331 19.4793H6.41665C7.86498 19.4793 8.47915 18.8652 8.47915 17.4168V15.5835C8.47915 14.1352 7.86498 13.521 6.41665 13.521H4.58331Z" fill="black" stroke="black" stroke-width="17"/>
</svg>
