<svg width="88" height="72" viewBox="0 0 88 72" fill="none" xmlns="http://www.w3.org/2000/svg">
<g clip-path="url(#clip0_194_6052)">
<g opacity="0.2">
<path d="M85.2353 51.4435C80.6098 55.4333 75.6637 59.5805 69.5926 60.6754C66.0941 61.3066 62.4325 60.8683 58.9953 61.7633C54.8447 62.8441 51.4897 65.7284 47.8416 67.9415C44.304 70.0876 40.3242 71.6564 36.1693 71.9519C32.0147 72.2473 27.6749 71.1805 24.4844 68.5674C25.1524 69.1144 36.4789 63.0938 37.8828 62.4916C42.5444 60.4918 47.2499 58.5896 51.9953 56.7869C61.4083 53.2112 70.9771 50.027 80.6681 47.2467C82.0922 46.8381 86.5869 44.8252 87.5704 45.9862C89.0403 47.7213 86.3733 50.4617 85.2353 51.4435Z" fill="#020000"/>
</g>
<path d="M55.5674 60.5675L29.2236 70.6934L0.625 63.425L27.7002 53.7637L55.5674 60.5675Z" fill="white"/>
<path d="M35.5146 62.2285C35.4621 62.4148 35.3089 62.5727 35.0923 62.6037C29.4686 63.4232 24.3016 63.9486 18.6032 64.5495C17.9738 64.6164 17.326 64.1767 17.1963 63.5724C17.0677 62.9681 17.4595 62.2059 18.0876 62.1283C23.1714 61.4987 26.4857 60.9875 31.5035 60.3424C32.7046 59.7499 34.5964 60.696 35.4289 61.7758C35.5341 61.9131 35.5562 62.0804 35.5146 62.2285Z" fill="#C6FF00"/>
<path d="M18.4721 64.938C17.6957 64.938 16.9722 64.39 16.8133 63.6507C16.7195 63.2095 16.8349 62.6991 17.114 62.3176C17.3495 61.9959 17.6777 61.7943 18.0385 61.7496C20.856 61.4008 23.0889 61.0937 25.4531 60.7688C27.2861 60.5168 29.1811 60.2563 31.3903 59.9722C32.8341 59.3213 34.886 60.4368 35.7417 61.5465C35.914 61.7715 35.9688 62.0564 35.8922 62.3295C35.8922 62.3295 35.8922 62.3295 35.8922 62.3297C35.7948 62.6747 35.5033 62.9304 35.1495 62.9812C29.9302 63.7418 25.0521 64.2548 19.8876 64.7981L18.6455 64.9288C18.5878 64.9349 18.5298 64.938 18.4724 64.938H18.4721ZM32.3487 60.5418C32.1049 60.5418 31.8773 60.5857 31.6802 60.683C31.6408 60.7025 31.5984 60.7151 31.5548 60.7209C29.3224 61.008 27.411 61.2705 25.5624 61.5247C23.1954 61.8501 20.9598 62.1574 18.1369 62.5071C17.9454 62.5307 17.8128 62.6765 17.7505 62.7615C17.5965 62.9719 17.5291 63.26 17.5789 63.4952C17.6661 63.9009 18.1242 64.2169 18.5606 64.1703L19.8032 64.0396C24.9596 63.4971 29.8299 62.9848 35.0343 62.2263C35.1072 62.2158 35.1317 62.1479 35.1374 62.1274C35.1446 62.1014 35.1514 62.0511 35.1155 62.0046C34.5079 61.2163 33.3033 60.5415 32.3484 60.5415L32.3487 60.5418Z" fill="#020000"/>
<path d="M23.4184 63.6953C23.6042 63.3864 23.6333 62.9434 23.4505 62.5706L23.4489 62.5674C23.4149 62.4977 23.4448 62.4143 23.5163 62.3809C23.5772 62.3525 23.6481 62.3698 23.6891 62.4185C24.0179 62.8105 24.1546 63.3735 24.002 63.9163L23.9971 63.9337C23.951 64.0981 23.7765 64.1949 23.608 64.1499C23.4394 64.1049 23.3402 63.9347 23.3863 63.7703C23.3936 63.744 23.4052 63.7182 23.4187 63.6956L23.4184 63.6953Z" fill="#020000"/>
<path d="M27.4372 60.7399C27.7211 60.8873 27.9528 61.1156 28.096 61.3816C28.2403 61.6473 28.2964 61.9491 28.2637 62.2332C28.2532 62.3237 28.1699 62.3887 28.0771 62.3785C27.9954 62.3695 27.9336 62.3048 27.9277 62.2277V62.2243C27.9099 62.0022 27.8233 61.7947 27.6896 61.6326C27.5558 61.47 27.3765 61.355 27.185 61.2985C27.0184 61.2493 26.9243 61.078 26.9744 60.9154C27.0248 60.7528 27.2004 60.661 27.3671 60.7099C27.3865 60.7157 27.4051 60.7231 27.4223 60.732L27.4372 60.7399Z" fill="#020000"/>
<path d="M35.0425 62.5686C34.5989 62.5686 33.9037 62.5004 33.0402 62.1889C31.4572 61.6175 31.2072 60.4504 31.1973 60.401C31.1703 60.2668 31.2383 60.1318 31.3631 60.07C32.774 59.3741 34.8281 60.4878 35.6798 61.5925C35.8375 61.7982 35.8874 62.0592 35.8173 62.3094C35.7863 62.4194 35.6949 62.5036 35.5805 62.5275C35.563 62.5312 35.3723 62.5688 35.0428 62.5688L35.0425 62.5686ZM31.9019 60.5204C32.0475 60.8132 32.4084 61.3099 33.257 61.6162C34.1407 61.9348 34.8201 61.9692 35.176 61.955C34.4571 61.0261 32.9221 60.2557 31.9017 60.5204H31.9019Z" fill="#020000"/>
<path d="M29.2245 71.3043C29.1717 71.3043 29.1185 71.298 29.0668 71.2846L0.4682 64.0159C0.203381 63.9485 0.0140708 63.7209 0.000856788 63.4542C-0.0123572 63.1874 0.153761 62.9435 0.41103 62.8517L27.4862 53.1907C27.6035 53.1483 27.7313 53.142 27.853 53.1717L55.7202 59.9755C55.9842 60.04 56.1751 60.2634 56.1926 60.528C56.2104 60.7927 56.0508 61.0384 55.7976 61.1358L29.454 71.2617C29.3807 71.2899 29.3027 71.3041 29.2245 71.3041V71.3043ZM2.7224 63.3271L29.1849 70.0528L53.5229 60.6977L27.7354 54.4017L2.7224 63.3271Z" fill="#020000"/>
<path d="M29.8838 55.4074C29.6257 55.4577 24.5114 60.1344 18.3709 59.5787C14.5254 59.2322 12.8704 57.2785 12.7091 55.3035C12.6466 54.5602 12.7984 53.8123 13.1252 53.1485C13.3677 52.651 13.7088 52.1992 14.1311 51.8299C15.5172 50.6165 17.2458 51.0819 18.4068 51.6483C19.1826 52.0269 19.7069 52.4497 19.7069 52.4497L19.7756 52.3766L22.8043 49.1621C22.8043 49.1621 30.1416 55.3558 29.8835 55.4077L29.8838 55.4074Z" fill="black"/>
<g opacity="0.2">
<path d="M29.8838 55.4074C29.6257 55.4577 24.5114 60.1344 18.3709 59.5787C14.5254 59.2322 12.8704 57.2785 12.7091 55.3035C12.6466 54.5602 12.7984 53.8123 13.1252 53.1485C13.2425 54.0567 13.8776 54.922 14.7727 55.2395C16.0711 55.7021 17.6544 55.0075 18.2458 53.7896C18.6166 53.0264 18.4977 52.3245 18.4071 51.6483C19.1829 52.0269 19.7071 52.4497 19.7071 52.4497L19.7759 52.3766L22.8046 49.1621C22.8046 49.1621 30.1419 55.3558 29.8838 55.4077V55.4074Z" fill="#020000"/>
</g>
<path d="M78.8644 31.0416C78.2166 32.7083 75.8387 33.4821 73.5343 32.7878C71.2189 32.0872 69.8155 30.1566 70.4164 28.4578C70.4509 28.3586 70.4929 28.2623 70.5399 28.1694C71.3049 26.6477 73.5858 25.9639 75.8136 26.6538C77.2717 27.1055 78.3464 28.035 78.797 29.079C79.0723 29.7185 79.1147 30.4007 78.8641 31.0419L78.8644 31.0416Z" fill="black"/>
<g opacity="0.2">
<path d="M78.8644 31.0411C78.2166 32.7078 75.8387 33.4816 73.5343 32.7873C71.2189 32.0867 69.8155 30.1561 70.4164 28.4573C70.4509 28.3581 70.4929 28.2618 70.5399 28.1689C71.0795 28.6407 71.7445 28.9993 72.4235 29.2466C74.4652 29.9914 76.793 29.9014 78.7973 29.0787C79.0726 29.7183 79.1149 30.4005 78.8644 31.0417V31.0411Z" fill="#020000"/>
</g>
<g opacity="0.6">
<path d="M70.4159 29.8193C71.0248 28.0981 73.45 27.2831 75.8136 28.0158C77.4516 28.5235 78.6064 29.6348 78.9343 30.833C79.4076 29.1947 78.0681 27.3528 75.8136 26.654C73.45 25.9216 71.0248 26.7364 70.4159 28.4575C70.2419 28.9495 70.2368 29.4609 70.3724 29.9563C70.3857 29.9106 70.3997 29.8648 70.4159 29.8193Z" fill="white"/>
</g>
<path d="M75.2573 33.6571C74.6379 33.6571 73.9928 33.5648 73.3491 33.3703C71.8562 32.9194 70.6535 31.9941 70.0497 30.8315C69.6136 29.9925 69.5335 29.0788 69.824 28.2582C70.5448 26.2203 73.3165 25.2395 76.003 26.0719C77.5083 26.5383 78.7062 27.4821 79.29 28.6612C79.7126 29.5147 79.7693 30.4374 79.4494 31.2587C78.8648 32.7605 77.1869 33.6568 75.2576 33.6568L75.2573 33.6571ZM74.074 26.999C72.6291 26.999 71.3722 27.6239 71.0065 28.6568C70.7775 29.3042 70.9666 29.8967 71.1656 30.2798C71.6106 31.1361 72.5649 31.8557 73.7189 32.204C75.7045 32.8036 77.7497 32.1851 78.279 30.8254C78.4783 30.3135 78.4381 29.7489 78.1628 29.1927C77.7343 28.3274 76.785 27.596 75.6236 27.2361C75.1042 27.075 74.5775 26.9993 74.074 26.9993V26.999Z" fill="#020000"/>
<path d="M86.8592 48.1193C86.4414 48.9664 85.6529 49.635 84.8318 50.2011C82.9044 51.529 80.6545 52.4432 78.3394 52.8431C74.8522 55.2273 70.8878 56.7992 66.8421 57.4967C64.1201 57.9668 61.34 58.0431 58.6147 57.7027C54.6831 61.079 49.3107 62.7775 43.9979 62.4205C42.9027 62.3473 41.7811 62.184 40.789 61.7214C39.7955 61.256 38.9444 60.4378 38.774 59.4975C38.5596 58.3191 39.456 57.2278 40.6294 56.6616C41.8105 56.0939 43.2217 55.9489 44.5952 55.7947C45.9702 55.639 47.3863 55.4483 48.5375 54.8026C49.8845 48.0427 51.7008 40.9974 53.6236 33.5368C55.0377 32.45 56.6148 31.5297 58.2967 30.817C60.5418 29.8662 62.9667 29.2892 65.4369 29.184C69.7767 28.9948 74.154 30.3026 77.2955 32.9646C78.0856 33.6331 78.7878 34.3856 79.3871 35.1991C81.1267 37.554 82.0137 40.4204 81.7321 43.2534C81.8667 43.2458 81.998 43.2413 82.128 43.2397C83.6627 43.2092 84.897 43.5312 85.8045 44.18C85.9374 44.2747 86.0625 44.3755 86.1815 44.4836C87.3111 45.5155 87.4675 46.8846 86.8589 48.1193H86.8592Z" fill="white"/>
<path d="M84.8306 50.2012C82.8549 51.4704 80.1884 52.2012 77.8711 52.6017C81.2612 48.7618 81.201 43.2353 81.201 43.2353C83.1513 43.1261 85.193 43.5586 86.1808 44.4826C87.5836 45.7947 87.5348 48.4632 84.8306 50.201V50.2012Z" fill="black"/>
<path d="M66.8421 57.4971C64.3814 57.9214 61.875 58.0251 59.4032 57.7886C59.1403 57.7641 58.8776 57.7352 58.6147 57.7031C54.6831 61.0794 49.3107 62.7779 43.9979 62.4209C42.9027 62.3477 41.7811 62.1843 40.789 61.7218C39.7955 61.2564 38.9444 60.4382 38.774 59.4979C38.5596 58.3195 39.456 57.2282 40.6294 56.662C41.8105 56.0943 43.2217 55.9493 44.5952 55.7951C45.9702 55.6394 47.3863 55.4486 48.5375 54.803C48.5626 54.6778 48.5877 54.5528 48.6141 54.4276C49.9517 47.7821 51.7367 40.8604 53.6236 33.5372C55.0377 32.4504 56.6148 31.5301 58.2967 30.8174C63.8067 33.7966 73.9647 44.7005 66.8419 57.4968L66.8421 57.4971Z" fill="black"/>
<g opacity="0.2">
<path d="M86.1813 44.4835C86.0624 44.3751 85.9373 44.2743 85.8043 44.1799C85.1124 45.5167 83.7432 46.9216 81.2304 45.5177C81.5767 44.7779 81.7129 43.4327 81.732 43.2535C82.0135 40.4208 81.1266 37.5544 79.3869 35.1992C79.484 35.5228 79.5808 35.8327 79.6153 36.0693C79.7281 36.8278 79.7952 37.5926 79.8171 38.3587C79.8985 41.2998 79.2866 44.2762 77.8568 46.8784C76.6538 49.07 72.8077 52.8848 66.7317 53.8091C65.7714 53.9551 64.9462 53.1342 65.0495 52.1913C65.3348 49.5878 64.5946 47.3423 64.5946 47.3423C63.6936 50.3799 62.4547 52.7228 61.6023 54.118C61.0699 54.5052 55.7946 58.3466 50.9121 58.6734C49.9246 58.7394 48.7391 58.8612 48.1806 58.0628C47.6674 57.3287 48.0272 56.2893 48.6515 55.642C49.2774 54.9948 50.1174 54.5873 50.7948 53.9938C50.4915 54.2592 49.1334 54.3997 48.614 54.4273C48.5873 54.5526 48.5625 54.6775 48.5374 54.8028C47.3859 55.4484 45.9701 55.6392 44.5951 55.7949C43.2213 55.9491 41.8104 56.094 40.6292 56.6618C39.4559 57.228 38.5595 58.3193 38.7739 59.4977C38.9443 60.438 39.7954 61.2559 40.7889 61.7216C41.7807 62.1841 42.9026 62.3475 43.9977 62.4206C49.3106 62.7779 54.683 61.0791 58.6146 57.7029C61.3399 58.0433 64.1199 57.967 66.842 57.4968C70.8876 56.7994 74.8521 55.2271 78.3392 52.8433C80.6547 52.4434 82.9043 51.5291 84.8316 50.2013C85.6531 49.6351 86.4416 48.9666 86.859 48.1194C87.4677 46.8847 87.3113 45.5156 86.1816 44.4838L86.1813 44.4835Z" fill="#020000"/>
</g>
<path d="M45.406 63.0785C44.9233 63.0785 44.4395 63.0624 43.9549 63.0298C42.9698 62.964 41.6886 62.818 40.5187 62.2713C39.2348 61.6712 38.3519 60.674 38.1575 59.6043C37.9142 58.2665 38.7963 56.8637 40.3529 56.1141C41.5907 55.5177 43.0121 55.3577 44.3866 55.203L44.5234 55.1875C45.7835 55.0449 46.9968 54.8757 47.9803 54.4014C49.3181 47.7386 51.1042 40.8082 52.9938 33.4774L53.0167 33.3877C53.0504 33.2566 53.1278 33.1403 53.2365 33.0567C54.7062 31.9283 56.3245 30.9861 58.0469 30.2569C60.4316 29.2476 62.9086 28.6812 65.4087 28.5733C70.0363 28.3723 74.5202 29.8049 77.7056 32.5029C80.8203 35.1409 82.5432 38.8813 82.4016 42.6256C84.1836 42.639 85.5965 43.1126 86.6088 44.0374C87.8846 45.2026 88.1888 46.8272 87.423 48.3831C87.423 48.3831 87.423 48.3831 87.423 48.3834C86.902 49.4403 85.9004 50.2116 85.1922 50.6999C83.2282 52.0525 80.9462 52.9912 78.5847 53.4193C75.1186 55.7658 71.0986 57.3828 66.9505 58.0981C64.2281 58.5675 61.4923 58.649 58.8139 58.3417C55.1555 61.3907 50.3494 63.0782 45.406 63.0782V63.0785ZM54.1779 33.8891C52.2767 41.266 50.4823 48.2361 49.1518 54.9194C49.1172 55.0936 49.0067 55.2441 48.8489 55.3325C47.6195 56.0213 46.1692 56.2307 44.6671 56.4006L44.5298 56.4162C43.2613 56.559 41.9499 56.7066 40.9065 57.2091C40.0306 57.6311 39.2216 58.4696 39.3893 59.3912C39.512 60.0645 40.1517 60.7461 41.0591 61.1705C42.0372 61.6278 43.1661 61.7535 44.0401 61.8119C49.2526 62.1613 54.4125 60.4965 58.2001 57.2446C58.3352 57.1289 58.5159 57.0749 58.6931 57.0973C61.335 57.4278 64.0396 57.3601 66.7323 56.8958C70.7469 56.2036 74.6359 54.629 77.979 52.3424C78.0537 52.2911 78.1392 52.2567 78.2293 52.2411C80.4595 51.8562 82.6174 50.9783 84.4698 49.7028C85.0639 49.2932 85.8996 48.6557 86.2946 47.8546C86.8194 46.7885 86.622 45.7222 85.7534 44.9287C84.8708 44.1224 83.5297 43.764 81.7676 43.8622C81.5835 43.8735 81.4074 43.8043 81.2806 43.6759C81.1541 43.5475 81.0913 43.3715 81.1088 43.1939C81.4635 39.6172 79.8842 35.9652 76.8847 33.4248C73.939 30.9298 69.7766 29.6057 65.4637 29.793C63.1165 29.8946 60.7887 30.4273 58.5445 31.3768C56.986 32.0369 55.5177 32.8815 54.1771 33.8891H54.1779Z" fill="#020000"/>
<path d="M19.3991 60.236C19.0354 60.236 18.6743 60.2197 18.3151 60.1873C15.2135 59.9071 13.0246 58.5369 12.3097 56.428C11.7121 54.6647 12.2773 52.6342 13.7163 51.3747C15.8505 49.507 18.5435 50.9191 19.6289 51.6339L22.3461 48.7483C22.5754 48.5052 22.9605 48.4836 23.2166 48.6996C23.2344 48.7146 25.0251 50.2266 26.7858 51.7452C27.8216 52.6384 28.6454 53.3598 29.2339 53.8889C30.4026 54.9399 30.6132 55.1291 30.4984 55.5566C30.4512 55.7323 30.3231 55.8791 30.158 55.957C30.1046 55.9931 29.9825 56.0844 29.8733 56.1659C26.2548 58.87 22.7366 60.2357 19.3991 60.236ZM16.1895 51.6849C15.6221 51.6849 15.0526 51.8457 14.5518 52.2837C13.4777 53.2238 13.054 54.735 13.4979 56.0444C14.0575 57.695 15.8093 58.7348 18.4305 58.9713C21.7181 59.268 25.2605 58.0362 28.9599 55.3096C27.958 54.3737 25.3476 52.1196 22.8566 50.0109L20.1718 52.8623C19.9463 53.1017 19.5682 53.1267 19.3115 52.9194C19.291 52.903 17.7501 51.6849 16.1895 51.6849ZM30.0116 56.0052C30.0116 56.0052 30.0113 56.0052 30.0111 56.0052C30.0111 56.0052 30.0113 56.0052 30.0116 56.0052Z" fill="#020000"/>
<path d="M18.7409 61.8376L12.2865 45.2225C12.0948 44.7289 12.3494 44.1772 12.8553 43.9901C13.3612 43.8028 13.9267 44.0514 14.1184 44.545L20.5728 61.1601C20.8899 62.1035 20.7036 63.3417 20.4374 63.4185C20.1718 63.4953 19.0305 62.6121 18.7409 61.8373V61.8376Z" fill="white"/>
<path d="M20.4241 63.8778C19.7281 63.8778 18.5793 62.7337 18.3023 61.9978L11.8488 45.3851C11.7115 45.032 11.7236 44.6479 11.8825 44.3037C12.0413 43.9596 12.3282 43.6963 12.6901 43.5624C13.0515 43.4284 13.4455 43.44 13.7985 43.5952C14.1515 43.7505 14.4212 44.0301 14.5584 44.3832L21.0128 60.9983C21.0152 61.0046 21.0176 61.0112 21.0198 61.0178C21.3178 61.9041 21.239 63.0183 20.9788 63.5027C20.8785 63.6892 20.7418 63.8089 20.5719 63.8578C20.5258 63.8713 20.4761 63.8776 20.4241 63.8776V63.8778ZM13.2041 44.3858C13.1429 44.3858 13.082 44.3966 13.0232 44.4185C12.8954 44.4655 12.7945 44.5584 12.7384 44.6794C12.6823 44.8007 12.6783 44.936 12.7265 45.0601L19.1809 61.6752C19.1814 61.6771 19.1822 61.6789 19.1831 61.6808C19.35 62.1277 19.8866 62.6187 20.2213 62.8457C20.2914 62.495 20.3127 61.8604 20.1312 61.3124L13.6809 44.7076C13.6326 44.5831 13.5374 44.4848 13.4131 44.43C13.3462 44.4006 13.2753 44.3858 13.2041 44.3858Z" fill="#020000"/>
<path d="M31.0621 27.2071C31.0621 30.8489 28.0347 33.8023 24.3006 33.8023C20.5664 33.8023 17.5391 30.8489 17.5391 27.2071C17.5391 27.0103 17.5485 26.8149 17.5658 26.6225C17.6283 25.9267 17.802 25.261 18.0695 24.6444C19.0943 22.2741 21.4989 20.6104 24.3008 20.6104C25.7072 20.6104 27.0151 21.03 28.0962 21.7474C28.4482 21.9795 28.7769 22.2449 29.0757 22.5365C30.3038 23.7301 31.0626 25.3815 31.0626 27.2069L31.0621 27.2071Z" fill="black"/>
<g opacity="0.6">
<path d="M18.2936 28.6983C18.2936 28.5016 18.303 28.3061 18.3203 28.1138C18.3829 27.4179 18.5565 26.7523 18.8241 26.1356C19.8488 23.7654 22.2535 22.1016 25.0554 22.1016C26.4617 22.1016 27.7697 22.5212 28.8508 23.2386C29.2027 23.4707 29.5314 23.7362 29.8302 24.0277C30.1528 24.341 30.4416 24.6867 30.694 25.0579C30.3553 24.0979 29.7973 23.2379 29.0757 22.5365C28.7769 22.2449 28.4484 21.9792 28.0962 21.7474C27.0151 21.03 25.7072 20.6104 24.3008 20.6104C21.4989 20.6104 19.0943 22.2739 18.0695 24.6444C17.802 25.261 17.6283 25.9264 17.5658 26.6225C17.5485 26.8149 17.5391 27.0103 17.5391 27.2071C17.5391 28.5523 17.953 29.8028 18.6623 30.846C18.4244 30.1725 18.2936 29.4505 18.2936 28.6983Z" fill="white"/>
</g>
<path d="M24.3009 34.4135C20.2278 34.4135 16.9141 31.1806 16.9141 27.2066C16.9141 23.2326 20.2278 20 24.3009 20C28.3741 20 31.6878 23.2329 31.6878 27.2066C31.6878 31.1804 28.3741 34.4135 24.3009 34.4135ZM24.3009 21.221C20.9179 21.221 18.1656 23.9061 18.1656 27.2066C18.1656 30.5071 20.9182 33.1923 24.3009 33.1923C27.6837 33.1923 30.4363 30.5071 30.4363 27.2066C30.4363 23.9061 27.6837 21.221 24.3009 21.221Z" fill="#020000"/>
<path d="M23.3769 29.7701C24.9678 29.7701 26.2575 28.5119 26.2575 26.9598C26.2575 25.4077 24.9678 24.1494 23.3769 24.1494C21.7859 24.1494 20.4962 25.4077 20.4962 26.9598C20.4962 28.5119 21.7859 29.7701 23.3769 29.7701Z" fill="#020000"/>
<g opacity="0.2">
<path d="M31.0621 27.2074C31.0621 30.8491 28.0347 33.8026 24.3006 33.8026C20.5664 33.8026 17.5391 30.8491 17.5391 27.2074C17.5391 27.0106 17.5485 26.8151 17.5658 26.6228C19.8202 27.0792 22.2325 26.7954 24.2852 25.7788C25.9561 24.9529 27.3686 23.6556 28.3543 22.1021C28.6029 22.2349 28.844 22.3799 29.0754 22.5369C30.3035 23.7306 31.0624 25.382 31.0624 27.2074H31.0621Z" fill="#020000"/>
</g>
<path d="M54.5359 52.4004C52.1674 54.5112 47.7118 57.7377 33.4251 56.6464C16.0487 55.317 9.84084 41.5194 23.8161 27.8851C32.0171 19.8829 40.9846 20.3759 47.3863 24.3152C50.9816 26.5284 53.7679 29.8281 55.1554 33.3204C55.4401 34.0378 55.6982 34.7305 55.9282 35.4022C59.198 44.8851 57.3254 49.9126 54.5359 52.4004Z" fill="white"/>
<g opacity="0.2">
<path d="M33.494 55.543C47.7907 56.4967 52.2134 53.2275 54.5601 51.0928C56.2089 49.5932 57.5213 47.1901 57.5979 43.4894C57.5855 43.1884 57.5658 42.8804 57.5378 42.5638C57.2875 45.7704 56.0562 47.9088 54.5417 49.2861C52.1953 51.4209 47.7727 54.6901 33.4757 53.7363C23.364 53.0607 16.9879 48.133 16.1408 41.4199C16.1101 41.7288 16.0915 42.0345 16.082 42.3376C16.4588 49.5013 22.9414 54.8379 33.4943 55.543H33.494Z" fill="#020000"/>
</g>
<path d="M38.9061 57.4816C37.2406 57.4816 35.4052 57.4103 33.3778 57.2554C29.0414 56.9236 25.3261 55.8449 22.3344 54.049C19.4357 52.3095 17.3497 49.9253 16.3015 47.1547C14.0538 41.2133 16.6321 34.0327 23.3751 27.4543C26.226 24.6726 29.3173 22.7531 32.5631 21.7489C35.4998 20.8402 38.5034 20.6913 41.4906 21.3058C44.6655 21.9591 47.7109 23.4693 50.2976 25.6734C52.7624 27.7732 54.6442 30.3415 55.7399 33.1006C60.358 44.7314 57.8641 50.2605 54.9589 52.8509C52.3315 55.1943 48.3384 57.4816 38.9061 57.4816ZM37.8611 22.1556C34.0115 22.1556 29.1935 23.504 24.2601 28.3178C17.8772 34.5449 15.4043 41.2567 17.4757 46.7322C19.4767 52.0214 25.3083 55.4134 33.4757 56.0383C35.4799 56.1914 37.2888 56.2619 38.9233 56.2619C47.9153 56.2619 51.6662 54.1335 54.1146 51.9498C55.732 50.5076 56.6886 48.4607 56.9577 45.8658C57.3024 42.5419 56.4998 38.3956 54.5727 33.542C52.4269 28.1386 47.0661 23.7016 41.2323 22.5011C40.2267 22.2943 39.0932 22.1559 37.8611 22.1559V22.1556Z" fill="#020000"/>
<path d="M39.0336 37.3864C41.8363 36.9089 42.6151 39.2062 44.2679 40.6969C46.3493 42.5738 47.7122 42.9337 48.5242 45.1468C49.227 47.0622 47.915 49.4426 45.9297 50.2874C43.9322 51.1372 40.6209 51.209 37.8662 48.7004C33.6342 44.8469 34.9081 38.0896 39.0339 37.3864H39.0336Z" fill="#878787"/>
<path d="M27.3453 36.573C24.8414 36.1423 24.1457 38.2136 22.6689 39.5575C20.8095 41.2497 19.592 41.5739 18.8665 43.5692C18.2387 45.2958 19.4107 47.4419 21.1844 48.2033C22.9691 48.9694 25.9271 49.0341 28.3884 46.7726C32.1692 43.2987 31.0312 37.207 27.3453 36.573Z" fill="#878787"/>
<path d="M31.6752 50.2104C32.3259 50.3067 33.9842 49.3864 33.7218 48.2624C33.4594 47.1388 30.6084 47.0619 30.0267 47.9322C29.445 48.8026 30.8093 50.0825 31.6752 50.2104Z" fill="#020000"/>
<path d="M36.8911 51.2238C36.8379 51.4487 36.7489 51.596 36.6543 51.7392C36.558 51.8799 36.4499 52.0007 36.3347 52.1127C36.1007 52.3348 35.8326 52.5169 35.5378 52.6468C35.2444 52.7778 34.9281 52.8615 34.6094 52.8902C34.2903 52.9191 33.9716 52.8973 33.6671 52.8376C33.0493 52.7234 32.4382 52.3835 32.0359 51.9086C31.8301 51.6752 31.6635 51.4192 31.5289 51.1527C31.4601 51.0199 31.4032 50.8828 31.3498 50.7441C31.3253 50.6736 31.2997 50.6044 31.2784 50.5318C31.2552 50.4576 31.2374 50.3929 31.2163 50.299V50.2979L32.0787 50.4342C32.0423 50.5026 32.0156 50.5479 31.9836 50.6018C31.9517 50.6521 31.9199 50.7028 31.8854 50.751C31.8182 50.8491 31.7446 50.942 31.6661 51.0328C31.5087 51.2132 31.3331 51.385 31.1238 51.531C30.9151 51.6755 30.6853 51.8102 30.4165 51.8841C30.1538 51.962 29.8626 51.9986 29.5848 51.9546C29.4411 51.9438 29.3186 51.9028 29.1903 51.8702C29.1266 51.8552 29.0651 51.822 29.0031 51.7978C28.9419 51.7699 28.8788 51.7486 28.8214 51.7115C28.5797 51.5887 28.3786 51.3985 28.2173 51.1974C28.0601 50.9904 27.9492 50.7626 27.8845 50.5313C27.8206 50.2961 27.7915 50.0738 27.8104 49.8223C27.8193 49.7018 27.9269 49.6115 28.0501 49.6202C28.1399 49.6265 28.2135 49.6839 28.2435 49.761L28.2559 49.7933C28.3182 49.9551 28.3993 50.1388 28.4934 50.289C28.5889 50.4424 28.6987 50.5771 28.823 50.6815C28.9451 50.7881 29.0767 50.8702 29.2221 50.9246C29.2553 50.943 29.2965 50.9486 29.3335 50.9604C29.3723 50.9691 29.4057 50.9867 29.4478 50.9893C29.5271 51.0007 29.6091 51.0243 29.6797 51.0193C29.968 51.0343 30.2487 50.9278 30.5257 50.732C30.663 50.6363 30.7959 50.5176 30.9216 50.3882C30.9855 50.3248 31.0454 50.2553 31.1052 50.1869C31.1362 50.153 31.1624 50.1164 31.1921 50.0822L31.2676 49.9864L31.328 49.9101C31.4795 49.7181 31.7621 49.6826 31.959 49.8307C32.0572 49.9046 32.1157 50.0114 32.1305 50.1227C32.1386 50.1574 32.1543 50.2203 32.1712 50.2719C32.1869 50.3261 32.2074 50.3805 32.2263 50.4347C32.2681 50.5423 32.3123 50.65 32.3654 50.752C32.4692 50.9575 32.5952 51.1485 32.7413 51.3145C32.8867 51.4819 33.0544 51.621 33.2408 51.7236L33.3095 51.7641L33.3845 51.7968C33.4347 51.8165 33.484 51.8457 33.5339 51.8594C33.5846 51.8746 33.6313 51.8933 33.6849 51.9078L33.8529 51.947C34.3017 52.0367 34.755 52.0007 35.149 51.8212C35.3469 51.7349 35.5271 51.6105 35.6802 51.4661C35.756 51.3921 35.8261 51.3135 35.8792 51.2348C35.9329 51.1593 35.9734 51.0698 35.979 51.037C36.0222 50.7891 36.2627 50.6226 36.5168 50.6644C36.7705 50.7063 36.9415 50.9412 36.8986 51.1888C36.8973 51.1972 36.8956 51.2053 36.8935 51.2135L36.8911 51.224V51.2238Z" fill="#020000"/>
<path d="M42.0215 47.7436C41.9962 47.6336 41.9733 47.4974 41.9409 47.3784C41.9093 47.2564 41.8746 47.138 41.8338 47.0248C41.7532 46.7983 41.6513 46.5944 41.5315 46.4197C41.2921 46.0685 40.9752 45.8475 40.5747 45.6868L40.5017 45.6552L40.4243 45.632L40.2705 45.5834C40.2193 45.5671 40.1702 45.5634 40.1201 45.5507C40.0704 45.5423 40.0195 45.5231 39.9715 45.5247C39.9229 45.5207 39.8741 45.515 39.8253 45.5086C39.7765 45.5047 39.7299 45.5121 39.681 45.5092C39.657 45.5094 39.6322 45.5065 39.6082 45.5089L39.5368 45.5186C39.489 45.5257 39.4386 45.5231 39.3914 45.5384C39.1967 45.5721 38.9966 45.6444 38.7941 45.7502C38.6935 45.8041 38.5921 45.8636 38.4912 45.9306C38.4403 45.9638 38.3901 45.9985 38.3421 46.0356C38.2922 46.068 38.241 46.1148 38.2019 46.1356L38.0781 46.2019C37.9034 46.2956 37.6838 46.2335 37.5876 46.063C37.5358 45.9714 37.5309 45.8657 37.5641 45.7741C37.5997 45.677 37.6304 45.6102 37.6674 45.5326C37.7051 45.4592 37.7467 45.3882 37.7909 45.3179C37.833 45.2458 37.8864 45.1824 37.9352 45.1137C37.9891 45.0496 38.0452 44.9861 38.1029 44.923C38.34 44.6775 38.6428 44.4689 38.9909 44.3366C39.3369 44.2042 39.7236 44.1424 40.0936 44.1692C40.1886 44.169 40.2757 44.19 40.3663 44.2027C40.455 44.2192 40.5488 44.2282 40.633 44.2545L40.8854 44.3334L41.0111 44.3742C41.0518 44.3913 41.0914 44.4108 41.1316 44.4292C41.2913 44.5052 41.4528 44.5739 41.6 44.6833C41.6739 44.7354 41.7516 44.7804 41.8206 44.8399C41.8899 44.8993 41.9565 44.9619 42.0232 45.0238C42.278 45.2819 42.4902 45.5886 42.6083 45.9175C42.7302 46.2445 42.7839 46.5805 42.7774 46.9038C42.7734 47.0656 42.7588 47.2245 42.7248 47.38C42.6936 47.5384 42.6523 47.6799 42.5833 47.8439C42.5226 47.9878 42.354 48.0564 42.2065 47.9972C42.1165 47.9612 42.055 47.8857 42.0347 47.7999L42.0218 47.7428L42.0215 47.7436Z" fill="black"/>
<path d="M36.0904 51.7051C35.6325 52.1984 34.7461 52.6667 33.5425 52.3418C33.4678 52.3215 33.3969 52.2989 33.3281 52.2713C33.3734 52.2092 33.4187 52.1495 33.4468 52.1005C33.5679 51.8914 33.6709 51.6717 33.7626 51.4483C33.9573 50.979 34.1005 50.4928 34.2571 50.01C34.3782 49.6348 34.5497 49.2181 34.9257 49.0734C35.2245 48.9576 35.5807 49.0615 35.8183 49.2752C36.0545 49.4878 36.1869 49.7911 36.2579 50.0981C36.3803 50.6322 36.3191 51.2092 36.0901 51.7048L36.0904 51.7051Z" fill="#FF67A0"/>
<path d="M36.3072 51.842C36.2605 51.9096 36.1947 51.993 36.1546 52.0383C36.1093 52.092 36.0602 52.1417 36.0097 52.1912C35.9078 52.288 35.7967 52.3772 35.6772 52.4558C35.4383 52.6126 35.1681 52.73 34.8841 52.8007C34.6002 52.8705 34.3041 52.8944 34.0147 52.8749C33.9416 52.872 33.8704 52.8628 33.7992 52.8528C33.7275 52.8439 33.656 52.8339 33.5865 52.8181L33.4813 52.7963C33.4468 52.7884 33.4106 52.785 33.3745 52.7657C33.3044 52.7308 33.2402 52.6747 33.2092 52.5603V52.5595L33.0703 52.0912C33.1043 52.037 33.1393 51.9875 33.1736 51.931C33.2065 51.8691 33.2386 51.8081 33.2691 51.7449C33.3303 51.6189 33.3861 51.4892 33.4384 51.3561C33.5447 51.0896 33.6396 50.8173 33.7289 50.536L33.8623 50.1106C33.9074 49.9693 33.9532 49.8244 34.0142 49.6678C34.0754 49.5137 34.1498 49.3542 34.2609 49.1982C34.3715 49.0438 34.5292 48.8888 34.7339 48.7957C34.937 48.6978 35.1773 48.6765 35.3833 48.7131C35.5923 48.7504 35.7797 48.8391 35.9348 48.9654C36.2484 49.225 36.3819 49.5726 36.4652 49.8891C36.5488 50.2093 36.5796 50.536 36.5507 50.8599C36.5397 51.0217 36.5146 51.1827 36.4755 51.3408C36.4569 51.42 36.4356 51.499 36.4102 51.5768C36.3981 51.6158 36.3832 51.6542 36.3698 51.6929C36.3533 51.7376 36.3293 51.7936 36.3067 51.8426L36.3072 51.842ZM35.8784 51.5682C35.8852 51.5484 35.8922 51.5363 35.9043 51.5118C35.917 51.4808 35.9315 51.45 35.9434 51.4185C35.9674 51.3553 35.9909 51.2916 36.0084 51.2261C36.0432 51.0951 36.0667 50.9607 36.0782 50.8254C36.0955 50.555 36.0666 50.2793 35.9809 50.027C35.8957 49.7757 35.7323 49.5655 35.5535 49.4626C35.3728 49.3582 35.1624 49.3208 35.0289 49.394C34.8847 49.4568 34.7544 49.6557 34.6627 49.9065C34.6161 50.0288 34.5751 50.1698 34.5284 50.3127L34.3882 50.7405C34.2919 51.027 34.1913 51.3198 34.0659 51.6047C34.0034 51.7476 33.9357 51.8907 33.8607 52.0315C33.8232 52.1017 33.7841 52.1725 33.7426 52.2406C33.6962 52.3103 33.6415 52.3819 33.591 52.4519L33.4524 51.9836L33.453 51.983C33.5404 51.9075 33.5946 51.8904 33.6428 51.8944C33.6876 51.9041 33.7437 51.9207 33.7936 51.9339C33.8448 51.9496 33.8966 51.9596 33.9484 51.9694C34.0001 51.9802 34.0519 51.9907 34.104 51.9954C34.3116 52.0249 34.5201 52.0315 34.7264 52.0073C34.9329 51.9849 35.1376 51.9333 35.3358 51.8549C35.4353 51.816 35.5327 51.7697 35.6271 51.7157C35.6745 51.6892 35.722 51.6618 35.7668 51.6308C35.8212 51.5958 35.838 51.5876 35.879 51.5684L35.8784 51.5682Z" fill="#020000"/>
<path d="M56.8589 27.7446C56.8589 28.5962 56.6741 29.4097 56.3427 30.1485C55.401 32.2379 53.2733 33.7107 50.8015 33.6558C48.5392 33.6055 47.0905 32.5629 46.2081 31.5342C45.329 30.5071 45.0113 29.492 45.0113 29.492C44.836 28.9396 44.7422 28.3534 44.7422 27.7443C44.7422 26.5736 45.0911 25.4809 45.6949 24.562C45.6949 24.562 45.6949 24.5604 45.6966 24.5588C46.7744 22.9195 48.6581 21.8345 50.8015 21.8345C52.6946 21.8345 54.3857 22.6816 55.4981 24.011C56.3476 25.0292 56.8591 26.3278 56.8591 27.7443L56.8589 27.7446Z" fill="black"/>
<g opacity="0.6">
<path d="M56.8618 27.7448C56.8618 28.5964 56.6771 29.4099 56.3456 30.1487C56.0609 30.6828 55.6949 31.1698 55.2661 31.5925C55.7168 30.7577 55.9732 29.8067 55.9732 28.804C55.9732 27.3875 55.4617 26.0886 54.6122 25.0707C53.4998 23.7413 51.8087 22.8942 49.9156 22.8942C48.2759 22.8942 46.7882 23.529 45.6992 24.5593C46.7771 22.92 48.6608 21.835 50.8041 21.835C52.6972 21.835 54.3884 22.6821 55.5008 24.0115C56.3502 25.0297 56.8618 26.3283 56.8618 27.7448Z" fill="white"/>
</g>
<path d="M51.0907 31.9776C52.6316 31.9776 53.8807 30.7589 53.8807 29.2556C53.8807 27.7524 52.6316 26.5337 51.0907 26.5337C49.5498 26.5337 48.3007 27.7524 48.3007 29.2556C48.3007 30.7589 49.5498 31.9776 51.0907 31.9776Z" fill="#020000"/>
<path d="M50.8009 33.3474C51.1002 33.3119 51.3985 33.2943 51.6878 33.2196L51.9057 33.1762C51.9785 33.1625 52.0478 33.1348 52.119 33.1149C52.2595 33.0685 52.4033 33.0351 52.5394 32.9801C53.0928 32.7802 53.6025 32.4863 54.0601 32.1383L54.23 32.0051C54.2869 31.9612 54.3444 31.918 54.3942 31.8662L54.7055 31.5705L54.9862 31.2485L55.0563 31.1682L55.1178 31.0814L55.2408 30.9083L55.3643 30.7362L55.4708 30.5536C55.5387 30.4305 55.6218 30.3155 55.6736 30.1848C55.731 30.0569 55.7925 29.9312 55.8478 29.803L55.984 29.4076C56.139 28.8733 56.2245 28.3224 56.2232 27.7683C56.2073 27.2145 56.1126 26.668 55.9414 26.1447C55.5827 25.1055 54.8999 24.1697 53.9873 23.5285L53.8193 23.4046C53.7611 23.3665 53.6998 23.3333 53.6402 23.297L53.4606 23.1899L53.3708 23.136C53.3401 23.1197 53.3077 23.106 53.2765 23.091L52.8978 22.9116L52.503 22.7698L52.4043 22.734L52.3024 22.7085L52.0988 22.6572L51.8952 22.6048L51.6873 22.5733L51.4794 22.5412C51.41 22.5296 51.341 22.5164 51.2704 22.5159L50.8489 22.4904C50.2852 22.4878 49.7224 22.5593 49.1799 22.7116C48.6421 22.8777 48.1262 23.1144 47.6557 23.4246C47.18 23.7293 46.7701 24.1258 46.4144 24.5607C46.0619 24.9984 45.7655 25.4875 45.5722 26.0177C45.169 27.0695 45.0892 28.2592 45.3783 29.3818C45.4298 29.5823 45.3052 29.7859 45.0994 29.8362C44.908 29.883 44.7133 29.7788 44.6458 29.6026C44.178 28.3658 44.1623 26.969 44.5609 25.6838C44.7529 25.0369 45.0805 24.4317 45.478 23.88C45.8774 23.3283 46.3677 22.8329 46.9346 22.4364C47.4984 22.0379 48.1225 21.7127 48.7896 21.4993C49.4595 21.2952 50.159 21.1918 50.8605 21.1836C51.5627 21.1825 52.2638 21.3023 52.9332 21.5125L53.4288 21.6895L53.9051 21.9118C53.9444 21.9308 53.9846 21.9484 54.0232 21.9687L54.1362 22.035L54.3619 22.1681C54.4366 22.2131 54.5132 22.256 54.5863 22.3033L54.7982 22.4567C55.0876 22.653 55.344 22.8892 55.597 23.1271L55.9495 23.5096C56.0646 23.639 56.1622 23.7824 56.2685 23.9187C56.6711 24.4796 56.9939 25.0968 57.2042 25.7514C57.4049 26.4089 57.4966 27.0924 57.4939 27.7733C57.4758 28.4544 57.3526 29.1316 57.125 29.7731L56.9348 30.2469C56.861 30.4 56.7795 30.5497 56.7013 30.7007C56.6288 30.8546 56.5247 30.9912 56.4349 31.1351L56.2949 31.3479C56.2434 31.4155 56.1892 31.4813 56.1358 31.5473L55.9745 31.7449L55.8939 31.8433L55.8044 31.9344C55.6846 32.0551 55.5665 32.1772 55.4452 32.2956L55.0541 32.6226C54.991 32.6792 54.9201 32.7265 54.85 32.7744L54.6399 32.9186C54.5693 32.9654 54.501 33.0162 54.4272 33.0578L54.2033 33.1798C54.0537 33.2598 53.9086 33.3469 53.7492 33.4077C53.5922 33.4724 53.4393 33.5447 53.28 33.6018L52.7956 33.7531C52.6338 33.8005 52.4653 33.8252 52.3013 33.8618C52.2185 33.8768 52.1374 33.8994 52.0535 33.9076L51.8024 33.9341C51.4691 33.9796 51.1328 33.9639 50.8009 33.9641C50.6269 33.9641 50.4859 33.8268 50.4859 33.6571C50.4859 33.5 50.6067 33.3703 50.7626 33.3519L50.8011 33.3474H50.8009Z" fill="#020000"/>
<path d="M19.6885 55.8974C19.1144 56.4254 18.3493 56.7233 17.5686 56.8466C16.3483 57.0405 13.6449 56.8282 13.4135 55.7461C13.2884 55.1584 13.1115 55.1463 12.9316 54.5038C12.8768 53.8445 12.8143 53.8108 13.03 53.3483C13.0567 53.2888 13.088 53.2231 13.1255 53.1484C13.3679 52.6508 13.709 52.1991 14.1314 51.8297C15.5175 50.6163 17.2461 51.0818 18.407 51.6482C19.1829 52.0268 19.7071 52.4496 19.7071 52.4496L19.7759 52.3764C20.1591 52.7932 20.4455 53.2754 20.5175 53.8248C20.5221 53.8629 20.5269 53.9026 20.5285 53.9408C20.5817 54.6672 20.233 55.3954 19.6885 55.8974Z" fill="black"/>
<g opacity="0.6">
<path d="M20.5295 53.9403C19.3874 53.1497 17.9528 52.7406 16.5402 52.7224C15.3418 52.7071 14.1606 52.9468 13.0312 53.3483C13.0579 53.2888 13.0892 53.2231 13.1267 53.1484C13.3692 52.6508 13.7103 52.1991 14.1326 51.8297C15.5187 50.6163 17.2473 51.0818 18.4083 51.6482C19.1841 52.0268 19.7084 52.4496 19.7084 52.4496L19.7771 52.3764C20.1603 52.7932 20.4467 53.2754 20.5187 53.8248C20.5233 53.8629 20.5282 53.9026 20.5298 53.9408L20.5295 53.9403Z" fill="white"/>
</g>
<g opacity="0.2">
<path d="M19.6883 55.8974C19.1141 56.4254 18.3491 56.7232 17.5684 56.8466C16.3481 57.0405 15.0103 56.955 13.9294 56.3673C13.4928 56.1307 13.102 55.6759 12.7091 55.3036C12.6466 54.5603 12.7984 53.8124 13.1252 53.1486C13.2425 54.0568 13.8776 54.9221 14.7727 55.2397C16.0711 55.7022 17.6544 55.0076 18.2458 53.7897C18.6166 53.0265 18.4977 52.3246 18.4071 51.6484C19.1829 52.027 19.7071 52.4498 19.7071 52.4498L19.7759 52.3767C20.1591 52.7934 20.4455 53.2757 20.5175 53.825C20.6176 54.5895 20.2611 55.3696 19.6883 55.8976V55.8974Z" fill="#020000"/>
</g>
<path d="M14.9248 56.3109C15.2492 56.4446 15.5963 56.5137 15.9487 56.5422C16.3009 56.5711 16.6574 56.5593 17.0072 56.5151C17.7038 56.4256 18.3879 56.2104 18.9162 55.8602C19.1808 55.6874 19.3949 55.4769 19.5443 55.2472L19.5955 55.1591C19.613 55.1288 19.6308 55.0909 19.6486 55.0575C19.685 54.9886 19.7142 54.9181 19.7428 54.8486C19.8024 54.71 19.8447 54.5698 19.8754 54.4295C19.9369 54.1488 19.9407 53.8623 19.8811 53.5605C19.8501 53.4108 19.8069 53.2556 19.7463 53.1017C19.7142 53.0259 19.6832 52.9465 19.6454 52.8702L19.588 52.7555C19.5702 52.7189 19.544 52.6771 19.5338 52.6486L19.5022 52.561C19.4537 52.4258 19.5265 52.2777 19.6651 52.2303C19.7406 52.2046 19.8212 52.2143 19.8857 52.2503C19.948 52.2853 19.99 52.3111 20.0389 52.3437C20.0866 52.3745 20.1308 52.4077 20.174 52.4426C20.2603 52.5124 20.3447 52.586 20.4194 52.6689C20.5725 52.8315 20.7082 53.0162 20.8128 53.2222C21.0261 53.631 21.1192 54.1217 21.0685 54.5926C21.0461 54.8284 20.9889 55.0575 20.9104 55.2733C20.8705 55.3809 20.8255 55.4866 20.7748 55.5871C20.7486 55.6382 20.7268 55.6871 20.6963 55.7395L20.6009 55.8971C20.4655 56.1012 20.3064 56.2851 20.1324 56.4464C19.958 56.6082 19.7668 56.7411 19.5715 56.8602C19.1778 57.0936 18.7587 57.2494 18.3356 57.3488C17.9119 57.4488 17.4821 57.4911 17.0549 57.4846C16.628 57.4761 16.2025 57.418 15.7918 57.297C15.5866 57.2378 15.3859 57.1578 15.1939 57.0605C15.0016 56.9644 14.8183 56.8468 14.6556 56.7045C14.5551 56.6166 14.5467 56.4656 14.6368 56.3675C14.7082 56.2896 14.8204 56.2683 14.9137 56.3067L14.9245 56.3112L14.9248 56.3109Z" fill="#020000"/>
<path d="M12.0886 55.3528C12.0346 54.8837 12.0532 54.4059 12.1463 53.9421C12.2417 53.4788 12.4057 53.0286 12.6328 52.6093C12.865 52.1931 13.1541 51.8034 13.5035 51.4672C13.8455 51.1254 14.2899 50.8273 14.7737 50.6384C15.2599 50.448 15.7858 50.3696 16.2858 50.3898C16.7876 50.4064 17.2652 50.5077 17.7126 50.6519C18.1608 50.7971 18.5777 50.9936 18.9731 51.2138C19.1707 51.3243 19.3627 51.4425 19.5502 51.5674C19.6437 51.63 19.7362 51.6942 19.8279 51.7611C19.9226 51.8303 20.0043 51.8918 20.1103 51.9786L20.1246 51.9902C20.1437 52.006 20.1629 52.0249 20.1785 52.0428C20.2176 52.0881 20.2362 52.1128 20.2624 52.1462L20.3317 52.2396C20.3767 52.3017 20.4182 52.3641 20.459 52.4272C20.5399 52.5538 20.6143 52.6837 20.6814 52.8184C20.8141 53.0884 20.9223 53.3765 20.9837 53.6851C21.046 53.9918 21.0576 54.322 21.0013 54.6453C20.9417 54.9687 20.8117 55.2805 20.6288 55.543C20.4474 55.8072 20.2219 56.024 19.9838 56.2021C19.7462 56.3718 19.496 56.5159 19.2352 56.6343C18.7123 56.8669 18.1519 56.9956 17.5983 57.0032C17.5068 57.0045 17.4319 56.9332 17.4305 56.844C17.4294 56.7722 17.4766 56.7106 17.543 56.6888L17.5459 56.688C18.0338 56.5283 18.4885 56.316 18.8806 56.0326C19.0782 55.8953 19.26 55.739 19.4221 55.572C19.5828 55.4136 19.7144 55.241 19.8023 55.0616C19.8897 54.8813 19.9385 54.698 19.9517 54.5112C19.9582 54.3231 19.9382 54.131 19.8762 53.9371C19.8188 53.7435 19.7298 53.549 19.6176 53.3628C19.5626 53.2694 19.5022 53.1773 19.4372 53.0892C19.4045 53.0452 19.3714 53.0015 19.3371 52.9605L19.2861 52.9003C19.271 52.8832 19.2484 52.8582 19.2441 52.8545L19.312 52.9187C19.2549 52.8766 19.168 52.8158 19.092 52.7656C19.013 52.7132 18.9318 52.6619 18.8498 52.6124C18.6856 52.5132 18.5173 52.4198 18.3461 52.3341C18.0047 52.1615 17.6511 52.0215 17.2987 51.9168C16.9465 51.8124 16.5918 51.7497 16.2531 51.7474C15.9139 51.745 15.5932 51.7992 15.2988 51.9134C15.0027 52.0313 14.7411 52.207 14.4914 52.4467C14.2373 52.6811 14.0254 52.9608 13.8487 53.2594C13.6702 53.558 13.5426 53.8853 13.4523 54.2207C13.3676 54.5577 13.3288 54.9058 13.3366 55.2541V55.2707C13.3447 55.608 13.071 55.8874 12.7253 55.895C12.3995 55.9021 12.1258 55.6625 12.0891 55.3525L12.0886 55.3528Z" fill="#020000"/>
<path d="M58.1899 57.2549C58.5238 56.98 58.8679 56.6701 59.1942 56.362C59.5226 56.0513 59.8414 55.7306 60.1502 55.4015C60.4581 55.0718 60.751 54.7306 61.0315 54.3807C61.3079 54.0284 61.5646 53.6643 61.7968 53.2872L61.8014 53.2801C61.8966 53.126 62.1018 53.076 62.2598 53.1686C62.4073 53.2551 62.4613 53.4367 62.3906 53.5856C62.1854 54.0152 61.9535 54.4301 61.7019 54.8308C61.4468 55.2286 61.1779 55.6175 60.8934 55.9939C60.6083 56.3696 60.3122 56.7369 60.0051 57.0955C59.695 57.4557 59.3862 57.7998 59.0399 58.1513C58.8002 58.3949 58.4032 58.4026 58.1535 58.1687C57.9038 57.9348 57.896 57.5475 58.1357 57.3039C58.1508 57.2886 58.1665 57.2741 58.1829 57.2607L58.1899 57.2552V57.2549Z" fill="#020000"/>
<g opacity="0.2">
<path d="M56.8619 27.745C56.8619 31.0097 54.1493 33.7311 50.8043 33.6564C48.542 33.6062 47.0933 32.5635 46.2109 31.5349C47.63 31.6401 49.063 31.5088 50.4068 31.0647C52.4078 30.4022 54.1911 28.9997 55.05 27.1162C55.5257 26.0707 55.6492 25.0283 55.5006 24.0117C56.3501 25.0299 56.8617 26.3285 56.8617 27.745H56.8619Z" fill="#020000"/>
</g>
<path d="M28.5262 44.0645C29.0864 42.4091 28.5304 40.7419 27.2844 40.3406C26.0384 39.9393 24.5743 40.9559 24.0141 42.6112C23.454 44.2665 24.0099 45.9337 25.2559 46.335C26.5019 46.7363 27.9661 45.7198 28.5262 44.0645Z" fill="#020000"/>
<path d="M27.0996 41.0543C26.6603 41.0993 26.3412 41.6263 26.3871 42.2317C26.4329 42.8368 26.8261 43.2909 27.2657 43.2459C27.705 43.2009 28.024 42.6739 27.9781 42.0686C27.9323 41.4635 27.5391 41.0094 27.0998 41.0543H27.0996Z" fill="white"/>
<path d="M24.8255 44.3128C24.603 44.3906 24.4989 44.7008 24.5933 45.0058C24.6874 45.3107 24.9441 45.4948 25.1666 45.417C25.3891 45.3391 25.4932 45.0289 25.3988 44.724C25.3047 44.4191 25.048 44.2349 24.8255 44.3128Z" fill="#B199C5"/>
<path d="M31.8508 48.1723C32.3746 48.1723 32.7992 48.0876 32.7992 47.9831C32.7992 47.8786 32.3746 47.7939 31.8508 47.7939C31.327 47.7939 30.9023 47.8786 30.9023 47.9831C30.9023 48.0876 31.327 48.1723 31.8508 48.1723Z" fill="white"/>
</g>
<path d="M67.5 11C67.5 8.80212 66.7379 6.67224 65.3436 4.97326C63.9493 3.27428 62.009 2.11132 59.8534 1.68254C57.6977 1.25376 55.4601 1.58568 53.5217 2.62175C51.5834 3.65782 50.0642 5.33393 49.2231 7.36451C48.3821 9.39508 48.2711 11.6545 48.9091 13.7577C49.5471 15.8609 50.8946 17.6779 52.7221 18.899C54.5495 20.12 56.7439 20.6697 58.9312 20.4543C61.1185 20.2388 63.1634 19.2716 64.7175 17.7175" stroke="#2468FF" stroke-linecap="round" stroke-dasharray="20 20"/>
<defs>
<clipPath id="clip0_194_6052">
<rect width="88" height="52" fill="white" transform="translate(0 20)"/>
</clipPath>
</defs>
</svg>
