<svg width="76" height="23" viewBox="0 0 76 23" fill="none" xmlns="http://www.w3.org/2000/svg">
<rect width="76" height="23" rx="7" fill="#83C29D" fill-opacity="0.2"/>
<path d="M14.2074 10.1108H12.8778C12.8267 9.8267 12.7315 9.5767 12.5923 9.3608C12.4531 9.14489 12.2827 8.96165 12.081 8.81108C11.8793 8.66051 11.6534 8.54687 11.4034 8.47017C11.1563 8.39347 10.8935 8.35511 10.6151 8.35511C10.1122 8.35511 9.66193 8.48153 9.2642 8.73438C8.86932 8.98722 8.55682 9.35795 8.3267 9.84659C8.09943 10.3352 7.9858 10.9318 7.9858 11.6364C7.9858 12.3466 8.09943 12.946 8.3267 13.4347C8.55682 13.9233 8.87074 14.2926 9.26847 14.5426C9.66619 14.7926 10.1136 14.9176 10.6108 14.9176C10.8864 14.9176 11.1477 14.8807 11.3949 14.8068C11.6449 14.7301 11.8707 14.6179 12.0724 14.4702C12.2741 14.3224 12.4446 14.142 12.5838 13.929C12.7259 13.7131 12.8239 13.4659 12.8778 13.1875L14.2074 13.1918C14.1364 13.6207 13.9986 14.0156 13.794 14.3764C13.5923 14.7344 13.3324 15.044 13.0142 15.3054C12.6989 15.5639 12.3381 15.7642 11.9318 15.9062C11.5256 16.0483 11.0824 16.1193 10.6023 16.1193C9.84659 16.1193 9.1733 15.9403 8.58239 15.5824C7.99148 15.2216 7.52557 14.706 7.18466 14.0355C6.84659 13.3651 6.67756 12.5653 6.67756 11.6364C6.67756 10.7045 6.84801 9.90483 7.18892 9.23722C7.52983 8.56676 7.99574 8.05256 8.58665 7.6946C9.17756 7.33381 9.84943 7.15341 10.6023 7.15341C11.0653 7.15341 11.4972 7.22017 11.8977 7.35369C12.3011 7.48437 12.6634 7.67756 12.9844 7.93324C13.3054 8.18608 13.571 8.49574 13.7812 8.86222C13.9915 9.22585 14.1335 9.64205 14.2074 10.1108ZM18.4379 16.1321C17.8242 16.1321 17.2887 15.9915 16.8313 15.7102C16.3739 15.429 16.0188 15.0355 15.766 14.5298C15.5131 14.0241 15.3867 13.4332 15.3867 12.7571C15.3867 12.0781 15.5131 11.4844 15.766 10.9759C16.0188 10.4673 16.3739 10.0724 16.8313 9.79119C17.2887 9.50994 17.8242 9.36932 18.4379 9.36932C19.0515 9.36932 19.587 9.50994 20.0444 9.79119C20.5018 10.0724 20.8569 10.4673 21.1097 10.9759C21.3626 11.4844 21.489 12.0781 21.489 12.7571C21.489 13.4332 21.3626 14.0241 21.1097 14.5298C20.8569 15.0355 20.5018 15.429 20.0444 15.7102C19.587 15.9915 19.0515 16.1321 18.4379 16.1321ZM18.4421 15.0625C18.8398 15.0625 19.1694 14.9574 19.4308 14.7472C19.6921 14.5369 19.8853 14.2571 20.0103 13.9077C20.1381 13.5582 20.2021 13.1733 20.2021 12.7528C20.2021 12.3352 20.1381 11.9517 20.0103 11.6023C19.8853 11.25 19.6921 10.9673 19.4308 10.7543C19.1694 10.5412 18.8398 10.4347 18.4421 10.4347C18.0415 10.4347 17.7092 10.5412 17.445 10.7543C17.1836 10.9673 16.989 11.25 16.8612 11.6023C16.7362 11.9517 16.6737 12.3352 16.6737 12.7528C16.6737 13.1733 16.7362 13.5582 16.8612 13.9077C16.989 14.2571 17.1836 14.5369 17.445 14.7472C17.7092 14.9574 18.0415 15.0625 18.4421 15.0625ZM22.9112 16V9.45455H24.1342V10.5199H24.2152C24.3516 10.1591 24.5746 9.87784 24.8842 9.67614C25.1939 9.47159 25.5646 9.36932 25.9964 9.36932C26.4339 9.36932 26.8004 9.47159 27.0959 9.67614C27.3942 9.88068 27.6143 10.1619 27.7564 10.5199H27.8246C27.9808 10.1705 28.2294 9.89205 28.5703 9.68466C28.9112 9.47443 29.3175 9.36932 29.7891 9.36932C30.3828 9.36932 30.8672 9.5554 31.2422 9.92756C31.62 10.2997 31.8089 10.8608 31.8089 11.6108V16H30.5348V11.7301C30.5348 11.2869 30.4141 10.9659 30.1726 10.767C29.9311 10.5682 29.6428 10.4688 29.3075 10.4688C28.8928 10.4688 28.5703 10.5966 28.3402 10.8523C28.1101 11.1051 27.995 11.4304 27.995 11.8281V16H26.7251V11.6491C26.7251 11.294 26.6143 11.0085 26.3928 10.7926C26.1712 10.5767 25.8828 10.4688 25.5277 10.4688C25.2862 10.4688 25.0632 10.5327 24.8587 10.6605C24.657 10.7855 24.4936 10.9602 24.3686 11.1847C24.2464 11.4091 24.1854 11.669 24.1854 11.9645V16H22.9112ZM33.5167 18.4545V9.45455H34.761V10.5156H34.8675C34.9414 10.3793 35.0479 10.2216 35.1871 10.0426C35.3263 9.86364 35.5195 9.70739 35.7667 9.57386C36.0138 9.4375 36.3406 9.36932 36.7468 9.36932C37.2752 9.36932 37.7468 9.50284 38.1616 9.76989C38.5763 10.0369 38.9016 10.4219 39.1374 10.9247C39.3761 11.4276 39.4954 12.0327 39.4954 12.7401C39.4954 13.4474 39.3775 14.054 39.1417 14.5597C38.9059 15.0625 38.582 15.4503 38.1701 15.723C37.7582 15.9929 37.288 16.1278 36.7596 16.1278C36.3619 16.1278 36.0366 16.0611 35.7837 15.9276C35.5337 15.794 35.3377 15.6378 35.1957 15.4588C35.0536 15.2798 34.9442 15.1207 34.8675 14.9815H34.7908V18.4545H33.5167ZM34.7653 12.7273C34.7653 13.1875 34.832 13.5909 34.9656 13.9375C35.0991 14.2841 35.2923 14.5554 35.5451 14.7514C35.7979 14.9446 36.1076 15.0412 36.4741 15.0412C36.8548 15.0412 37.1729 14.9403 37.4286 14.7386C37.6843 14.5341 37.8775 14.2571 38.0082 13.9077C38.1417 13.5582 38.2085 13.1648 38.2085 12.7273C38.2085 12.2955 38.1431 11.9077 38.0124 11.5639C37.8846 11.2202 37.6914 10.9489 37.4329 10.75C37.1772 10.5511 36.8576 10.4517 36.4741 10.4517C36.1048 10.4517 35.7923 10.5469 35.5366 10.7372C35.2837 10.9276 35.092 11.1932 34.9613 11.5341C34.8306 11.875 34.7653 12.2727 34.7653 12.7273ZM42.1971 7.27273V16H40.9229V7.27273H42.1971ZM46.7322 16.1321C46.0874 16.1321 45.532 15.9943 45.0661 15.7188C44.603 15.4403 44.245 15.0497 43.9922 14.5469C43.7422 14.0412 43.6172 13.4489 43.6172 12.7699C43.6172 12.0994 43.7422 11.5085 43.9922 10.9972C44.245 10.4858 44.5973 10.0866 45.049 9.79972C45.5036 9.51278 46.0348 9.36932 46.6428 9.36932C47.0121 9.36932 47.37 9.4304 47.7166 9.55256C48.0632 9.67472 48.3743 9.86648 48.6499 10.1278C48.9254 10.3892 49.1428 10.7287 49.3018 11.1463C49.4609 11.5611 49.5405 12.0653 49.5405 12.6591V13.1108H44.3374V12.1562H48.2919C48.2919 11.821 48.2237 11.5241 48.0874 11.2656C47.951 11.0043 47.7592 10.7983 47.5121 10.6477C47.2678 10.4972 46.9808 10.4219 46.6513 10.4219C46.2933 10.4219 45.9808 10.5099 45.7138 10.6861C45.4496 10.8594 45.245 11.0866 45.1001 11.3679C44.9581 11.6463 44.8871 11.9489 44.8871 12.2756V13.0213C44.8871 13.4588 44.9638 13.831 45.1172 14.1378C45.2734 14.4446 45.4908 14.679 45.7692 14.8409C46.0476 15 46.3729 15.0795 46.745 15.0795C46.9865 15.0795 47.2067 15.0455 47.4055 14.9773C47.6044 14.9062 47.7763 14.8011 47.9212 14.6619C48.0661 14.5227 48.1768 14.3509 48.2536 14.1463L49.4595 14.3636C49.3629 14.7187 49.1896 15.0298 48.9396 15.2969C48.6925 15.5611 48.3814 15.767 48.0064 15.9148C47.6342 16.0597 47.2095 16.1321 46.7322 16.1321ZM54.0096 9.45455V10.4773H50.4343V9.45455H54.0096ZM51.3931 7.88636H52.6673V14.0781C52.6673 14.3253 52.7042 14.5114 52.7781 14.6364C52.8519 14.7585 52.9471 14.8423 53.0636 14.8878C53.1829 14.9304 53.3121 14.9517 53.4513 14.9517C53.5536 14.9517 53.6431 14.9446 53.7198 14.9304C53.7965 14.9162 53.8562 14.9048 53.8988 14.8963L54.1289 15.9489C54.055 15.9773 53.9499 16.0057 53.8136 16.0341C53.6772 16.0653 53.5067 16.0824 53.3022 16.0852C52.967 16.0909 52.6545 16.0312 52.3647 15.9062C52.0749 15.7812 51.8406 15.5881 51.6616 15.3267C51.4826 15.0653 51.3931 14.7372 51.3931 14.3423V7.88636ZM58.1697 16.1321C57.5249 16.1321 56.9695 15.9943 56.5036 15.7188C56.0405 15.4403 55.6825 15.0497 55.4297 14.5469C55.1797 14.0412 55.0547 13.4489 55.0547 12.7699C55.0547 12.0994 55.1797 11.5085 55.4297 10.9972C55.6825 10.4858 56.0348 10.0866 56.4865 9.79972C56.9411 9.51278 57.4723 9.36932 58.0803 9.36932C58.4496 9.36932 58.8075 9.4304 59.1541 9.55256C59.5007 9.67472 59.8118 9.86648 60.0874 10.1278C60.3629 10.3892 60.5803 10.7287 60.7393 11.1463C60.8984 11.5611 60.978 12.0653 60.978 12.6591V13.1108H55.7749V12.1562H59.7294C59.7294 11.821 59.6612 11.5241 59.5249 11.2656C59.3885 11.0043 59.1967 10.7983 58.9496 10.6477C58.7053 10.4972 58.4183 10.4219 58.0888 10.4219C57.7308 10.4219 57.4183 10.5099 57.1513 10.6861C56.8871 10.8594 56.6825 11.0866 56.5376 11.3679C56.3956 11.6463 56.3246 11.9489 56.3246 12.2756V13.0213C56.3246 13.4588 56.4013 13.831 56.5547 14.1378C56.7109 14.4446 56.9283 14.679 57.2067 14.8409C57.4851 15 57.8104 15.0795 58.1825 15.0795C58.424 15.0795 58.6442 15.0455 58.843 14.9773C59.0419 14.9062 59.2138 14.8011 59.3587 14.6619C59.5036 14.5227 59.6143 14.3509 59.6911 14.1463L60.897 14.3636C60.8004 14.7187 60.6271 15.0298 60.3771 15.2969C60.13 15.5611 59.8189 15.767 59.4439 15.9148C59.0717 16.0597 58.647 16.1321 58.1697 16.1321ZM64.842 16.1278C64.3136 16.1278 63.842 15.9929 63.4272 15.723C63.0153 15.4503 62.6914 15.0625 62.4556 14.5597C62.2227 14.054 62.1062 13.4474 62.1062 12.7401C62.1062 12.0327 62.2241 11.4276 62.4599 10.9247C62.6985 10.4219 63.0252 10.0369 63.44 9.76989C63.8548 9.50284 64.3249 9.36932 64.8505 9.36932C65.2567 9.36932 65.5835 9.4375 65.8306 9.57386C66.0806 9.70739 66.2738 9.86364 66.4102 10.0426C66.5494 10.2216 66.6573 10.3793 66.734 10.5156H66.8107V7.27273H68.0849V16H66.8406V14.9815H66.734C66.6573 15.1207 66.5465 15.2798 66.4016 15.4588C66.2596 15.6378 66.0636 15.794 65.8136 15.9276C65.5636 16.0611 65.2397 16.1278 64.842 16.1278ZM65.1232 15.0412C65.4897 15.0412 65.7994 14.9446 66.0522 14.7514C66.3079 14.5554 66.5011 14.2841 66.6317 13.9375C66.7653 13.5909 66.832 13.1875 66.832 12.7273C66.832 12.2727 66.7667 11.875 66.636 11.5341C66.5053 11.1932 66.3136 10.9276 66.0607 10.7372C65.8079 10.5469 65.4954 10.4517 65.1232 10.4517C64.7397 10.4517 64.4201 10.5511 64.1644 10.75C63.9087 10.9489 63.7156 11.2202 63.5849 11.5639C63.457 11.9077 63.3931 12.2955 63.3931 12.7273C63.3931 13.1648 63.4585 13.5582 63.5891 13.9077C63.7198 14.2571 63.913 14.5341 64.1687 14.7386C64.4272 14.9403 64.7454 15.0412 65.1232 15.0412Z" fill="#68B266"/>
</svg>
