<svg width="13" height="13" viewBox="0 0 13 13" fill="none" xmlns="http://www.w3.org/2000/svg">
<path d="M11.6458 5.95837V9.20837C11.6458 11.375 11.1042 11.9167 8.9375 11.9167H3.52083C1.35417 11.9167 0.8125 11.375 0.8125 9.20837V3.79171C0.8125 1.62504 1.35417 1.08337 3.52083 1.08337H4.33333C5.14583 1.08337 5.32458 1.32171 5.63333 1.73337L6.44583 2.81671C6.65167 3.08754 6.77083 3.25004 7.3125 3.25004H8.9375C11.1042 3.25004 11.6458 3.79171 11.6458 5.95837Z" stroke="#A7A7A7" stroke-miterlimit="10"/>
<path d="M4.33301 1.08337H9.20801C10.2913 1.08337 10.833 1.62504 10.833 2.70837V3.45587" stroke="#A7A7A7" stroke-miterlimit="10" stroke-linecap="round" stroke-linejoin="round"/>
<path d="M7.58333 8.125H4.875" stroke="#A7A7A7" stroke-miterlimit="10" stroke-linecap="round" stroke-linejoin="round"/>
</svg>
