<svg width="17" height="17" viewBox="0 0 17 17" fill="none" xmlns="http://www.w3.org/2000/svg">
<path d="M5.66665 9.13783V12.1128C5.66665 14.592 6.65831 15.5837 9.13748 15.5837H12.1125C14.5916 15.5837 15.5833 14.592 15.5833 12.1128V9.13783C15.5833 6.65866 14.5916 5.66699 12.1125 5.66699H9.13748C6.65831 5.66699 5.66665 6.65866 5.66665 9.13783Z" stroke="white" stroke-linecap="round" stroke-linejoin="round"/>
<path d="M1.41665 4.88783V7.86283C1.41665 10.342 2.40831 11.3337 4.88748 11.3337H5.66665V9.13783C5.66665 6.65866 6.65831 5.66699 9.13748 5.66699H11.3333V4.88783C11.3333 2.40866 10.3416 1.41699 7.86248 1.41699H4.88748C2.40831 1.41699 1.41665 2.40866 1.41665 4.88783Z" stroke="white" stroke-linecap="round" stroke-linejoin="round"/>
</svg>
