<svg width="22" height="22" viewBox="0 0 22 22" fill="none" xmlns="http://www.w3.org/2000/svg">
<rect width="22" height="22" rx="4" fill="url(#paint0_linear_339_15720)"/>
<path fill-rule="evenodd" clip-rule="evenodd" d="M14.0873 2.2002H7.20303C4.40521 2.2002 2.12903 4.55225 2.12903 7.44333V14.5571C2.12903 17.4481 4.40521 19.8002 7.20303 19.8002H14.0873C16.8851 19.8002 19.1613 17.4481 19.1613 14.5571V7.44333C19.1613 4.55225 16.8851 2.2002 14.0873 2.2002ZM17.4478 14.5571C17.4478 16.4749 15.9433 18.0296 14.0873 18.0296H7.20303C5.34706 18.0296 3.84247 16.4749 3.84247 14.5571V7.44333C3.84247 5.52546 5.34706 3.97075 7.20303 3.97075H14.0873C15.9433 3.97075 17.4478 5.52546 17.4478 7.44333V14.5571ZM10.6452 6.4485C8.2162 6.4485 6.24005 8.49052 6.24005 11.0005C6.24005 13.5104 8.2162 15.5524 10.6452 15.5524C13.0742 15.5524 15.0503 13.5104 15.0503 11.0005C15.0503 8.49049 13.0742 6.4485 10.6452 6.4485ZM10.6452 13.7819C9.1586 13.7819 7.95349 12.5366 7.95349 11.0005C7.95349 9.46434 9.15863 8.21906 10.6452 8.21906C12.1318 8.21906 13.3369 9.46434 13.3369 11.0005C13.3369 12.5366 12.1318 13.7819 10.6452 13.7819ZM16.1147 6.48253C16.1147 7.08494 15.6421 7.57328 15.0591 7.57328C14.4761 7.57328 14.0035 7.08494 14.0035 6.48253C14.0035 5.88013 14.4761 5.39178 15.0591 5.39178C15.6421 5.39178 16.1147 5.88013 16.1147 6.48253Z" fill="white"/>
<defs>
<linearGradient id="paint0_linear_339_15720" x1="0.594595" y1="21.3889" x2="21.905" y2="3.02412" gradientUnits="userSpaceOnUse">
<stop stop-color="#FBD06F"/>
<stop offset="0.304316" stop-color="#F16C2E"/>
<stop offset="0.646271" stop-color="#C82E96"/>
<stop offset="1" stop-color="#4E6AD6"/>
</linearGradient>
</defs>
</svg>
