<svg width="22" height="22" viewBox="0 0 22 22" fill="none" xmlns="http://www.w3.org/2000/svg">
<rect width="22" height="22" rx="4" fill="#0077B5"/>
<path fill-rule="evenodd" clip-rule="evenodd" d="M8.89711 7.06273C8.89711 7.72786 8.4126 8.26008 7.63464 8.26008H7.62038C6.87133 8.26008 6.38708 7.72786 6.38708 7.06273C6.38708 6.38353 6.88608 5.86621 7.64934 5.86621C8.4126 5.86621 8.88263 6.38353 8.89711 7.06273ZM8.75015 9.20557V16.1327H6.519V9.20557H8.75015ZM16.7946 16.1327L16.7947 12.1609C16.7947 10.0331 15.694 9.04287 14.2258 9.04287C13.0413 9.04287 12.5109 9.71522 12.2148 10.1869V9.20572H9.98336C10.0128 9.85573 9.98336 16.1328 9.98336 16.1328H12.2148V12.2642C12.2148 12.0571 12.2292 11.8506 12.2882 11.7024C12.4495 11.2888 12.8166 10.8606 13.433 10.8606C14.2407 10.8606 14.5636 11.4958 14.5636 12.4266V16.1327H16.7946Z" fill="white"/>
</svg>
