<svg width="18" height="19" viewBox="0 0 18 19" fill="none" xmlns="http://www.w3.org/2000/svg">
<path d="M14.25 7.25C14.25 8.3375 13.9275 9.33501 13.3725 10.1675C12.5625 11.3675 11.28 12.215 9.7875 12.4325C9.5325 12.4775 9.27 12.5 9 12.5C8.73 12.5 8.4675 12.4775 8.2125 12.4325C6.72 12.215 5.4375 11.3675 4.6275 10.1675C4.0725 9.33501 3.75 8.3375 3.75 7.25C3.75 4.3475 6.0975 2 9 2C11.9025 2 14.25 4.3475 14.25 7.25Z" stroke="#2468FF" stroke-linecap="round" stroke-linejoin="round"/>
<path d="M15.9375 14.3523L14.7 14.6448C14.4225 14.7123 14.205 14.9223 14.145 15.1998L13.8825 16.3023C13.74 16.9023 12.975 17.0823 12.5775 16.6098L9 12.4998L5.4225 16.6173C5.025 17.0898 4.26 16.9098 4.1175 16.3098L3.855 15.2073C3.7875 14.9298 3.57 14.7123 3.3 14.6523L2.0625 14.3598C1.4925 14.2248 1.29 13.5123 1.7025 13.0998L4.6275 10.1748C5.4375 11.3748 6.72 12.2223 8.2125 12.4398C8.4675 12.4848 8.73 12.5073 9 12.5073C9.27 12.5073 9.5325 12.4848 9.7875 12.4398C11.28 12.2223 12.5625 11.3748 13.3725 10.1748L16.2975 13.0998C16.71 13.5048 16.5075 14.2173 15.9375 14.3523Z" stroke="#2468FF" stroke-linecap="round" stroke-linejoin="round"/>
<path d="M9.43498 4.985L9.87748 5.86999C9.93748 5.98999 10.095 6.11 10.2375 6.1325L11.04 6.26749C11.55 6.34999 11.67 6.725 11.3025 7.0925L10.68 7.71499C10.575 7.81999 10.515 8.0225 10.5525 8.1725L10.7325 8.945C10.875 9.5525 10.5525 9.79249 10.0125 9.46999L9.26248 9.02749C9.12748 8.94499 8.90248 8.94499 8.76748 9.02749L8.01748 9.46999C7.47748 9.78499 7.15498 9.5525 7.29748 8.945L7.47748 8.1725C7.50748 8.03 7.45498 7.81999 7.34998 7.71499L6.72748 7.0925C6.35998 6.725 6.47998 6.35749 6.98998 6.26749L7.79248 6.1325C7.92748 6.11 8.08498 5.98999 8.14498 5.86999L8.58748 4.985C8.80498 4.505 9.19498 4.505 9.43498 4.985Z" stroke="#2468FF" stroke-linecap="round" stroke-linejoin="round"/>
</svg>
