<svg width="22" height="22" viewBox="0 0 22 22" fill="none" xmlns="http://www.w3.org/2000/svg">
<rect x="0.5" y="0.5" width="21" height="21" rx="2.5" fill="#25D366" stroke="#25D366"/>
<path fill-rule="evenodd" clip-rule="evenodd" d="M11.7291 17.5274H11.7263C10.5963 17.527 9.48591 17.234 8.49971 16.6781L4.92041 17.6484L5.87829 14.0329C5.28742 12.9748 4.97651 11.7746 4.97702 10.5449C4.9785 6.69808 8.00742 3.56836 11.729 3.56836C13.5353 3.56916 15.2305 4.29576 16.5053 5.61456C17.78 6.93329 18.4817 8.68621 18.481 10.5504C18.4795 14.3964 15.4518 17.5258 11.7291 17.5274ZM8.66552 15.4151L8.87045 15.5408C9.73208 16.0692 10.7198 16.3487 11.7268 16.3491H11.7291C14.8222 16.3491 17.3397 13.7477 17.3409 10.5501C17.3415 9.00058 16.7583 7.54363 15.6988 6.44749C14.6393 5.35135 13.2302 4.7474 11.7313 4.74687C8.63575 4.74687 6.11821 7.34808 6.11698 10.5454C6.11655 11.6411 6.41325 12.7083 6.97501 13.6315L7.10844 13.851L6.54151 15.9909L8.66552 15.4151ZM14.8997 12.0526C15.0174 12.1113 15.0968 12.151 15.1308 12.2095C15.1729 12.2822 15.1729 12.6313 15.0324 13.0386C14.8918 13.4458 14.2178 13.8174 13.8936 13.8675C13.603 13.9124 13.2352 13.9311 12.831 13.7984C12.586 13.718 12.2718 13.6108 11.8692 13.4312C10.2876 12.7255 9.2188 11.1414 9.01679 10.8421C9.00264 10.8211 8.99274 10.8064 8.98722 10.7988L8.98586 10.7969C8.89658 10.6738 8.29834 9.84904 8.29834 8.99541C8.29834 8.19239 8.68007 7.77149 8.85578 7.57775C8.86782 7.56448 8.87889 7.55227 8.88881 7.54108C9.04344 7.36654 9.22623 7.32291 9.33869 7.32291C9.45115 7.32291 9.56374 7.32399 9.66204 7.32909C9.67417 7.32972 9.68678 7.32964 9.69982 7.32956C9.79814 7.32897 9.92071 7.32822 10.0416 7.62834C10.0881 7.74384 10.1562 7.91507 10.228 8.09566C10.3732 8.46087 10.5336 8.86439 10.5618 8.92278C10.604 9.01004 10.6321 9.11181 10.5758 9.22821C10.5674 9.24566 10.5596 9.26213 10.5521 9.27787C10.5099 9.36697 10.4788 9.43252 10.4071 9.51901C10.379 9.55302 10.3498 9.58968 10.3207 9.62634C10.2626 9.69939 10.2046 9.77242 10.1541 9.82444C10.0696 9.91137 9.98169 10.0057 10.0801 10.1802C10.1785 10.3548 10.5171 10.9256 11.0186 11.3879C11.5578 11.8848 12.0263 12.0948 12.2639 12.2013C12.3102 12.2221 12.3478 12.2389 12.3754 12.2532C12.544 12.3405 12.6424 12.3259 12.7408 12.2095C12.8393 12.0932 13.1626 11.7005 13.275 11.526C13.3875 11.3515 13.5 11.3806 13.6546 11.4387C13.8093 11.497 14.6387 11.9186 14.8074 12.0059C14.8404 12.0229 14.8712 12.0383 14.8997 12.0526Z" fill="white"/>
</svg>
