<svg id="Calque_1" data-name="Calque 1" xmlns="http://www.w3.org/2000/svg" viewBox="0 0 110.48 110.48"><path d="M87.71,145A55.24,55.24,0,1,1,143,89.76,55.3,55.3,0,0,1,87.71,145Zm0-107.48A52.24,52.24,0,1,0,140,89.76,52.3,52.3,0,0,0,87.71,37.52Z" transform="translate(-32.47 -34.52)"/><path d="M87.71,123.25a1.5,1.5,0,0,1-1.5-1.5V58.52a1.5,1.5,0,1,1,3,0v63.23A1.5,1.5,0,0,1,87.71,123.25Z" transform="translate(-32.47 -34.52)"/><path d="M119.33,91.64H56.09a1.5,1.5,0,0,1,0-3h63.24a1.5,1.5,0,0,1,0,3Z" transform="translate(-32.47 -34.52)"/></svg>