<svg width="159" height="28" viewBox="0 0 159 28" fill="none" xmlns="http://www.w3.org/2000/svg">
<g clip-path="url(#clip0_23_7973)">
<path d="M28.4365 14.5635C30.2935 16.4204 30.1895 19.5258 28.204 21.5114C26.2185 23.4969 23.1131 23.6008 21.2561 21.7439C19.3992 19.887 19.5031 16.7816 21.4886 14.796" stroke="#292D32" stroke-width="1.5" stroke-linecap="round" stroke-linejoin="round"/>
<path d="M26.2507 16.7488C24.3179 14.8159 24.4267 11.5655 26.4934 9.49881C28.5601 7.4321 31.8105 7.32332 33.7433 9.25617C35.6762 11.189 35.5674 14.4394 33.5007 16.5061" stroke="#292D32" stroke-width="1.5" stroke-linecap="round" stroke-linejoin="round"/>
<path d="M49.9688 19V11H52.6719C53.2995 11 53.8125 11.1133 54.2109 11.3398C54.612 11.5638 54.9089 11.8672 55.1016 12.25C55.2943 12.6328 55.3906 13.0599 55.3906 13.5312C55.3906 14.0026 55.2943 14.431 55.1016 14.8164C54.9115 15.2018 54.6172 15.5091 54.2188 15.7383C53.8203 15.9648 53.3099 16.0781 52.6875 16.0781H50.75V15.2188H52.6563C53.0859 15.2188 53.431 15.1445 53.6914 14.9961C53.9518 14.8477 54.1406 14.6471 54.2578 14.3945C54.3776 14.1393 54.4375 13.8516 54.4375 13.5312C54.4375 13.2109 54.3776 12.9245 54.2578 12.6719C54.1406 12.4193 53.9505 12.2214 53.6875 12.0781C53.4245 11.9323 53.0755 11.8594 52.6406 11.8594H50.9375V19H49.9688ZM56.8262 19V13H57.748V19H56.8262ZM57.2949 12C57.1152 12 56.9603 11.9388 56.8301 11.8164C56.7025 11.694 56.6387 11.5469 56.6387 11.375C56.6387 11.2031 56.7025 11.056 56.8301 10.9336C56.9603 10.8112 57.1152 10.75 57.2949 10.75C57.4746 10.75 57.6283 10.8112 57.7559 10.9336C57.8861 11.056 57.9512 11.2031 57.9512 11.375C57.9512 11.5469 57.8861 11.694 57.7559 11.8164C57.6283 11.9388 57.4746 12 57.2949 12ZM61.9521 19.125C61.374 19.125 60.8753 18.9974 60.4561 18.7422C60.0394 18.4844 59.7178 18.125 59.4912 17.6641C59.2673 17.2005 59.1553 16.6615 59.1553 16.0469C59.1553 15.4323 59.2673 14.8906 59.4912 14.4219C59.7178 13.9505 60.0329 13.5833 60.4365 13.3203C60.8428 13.0547 61.3167 12.9219 61.8584 12.9219C62.1709 12.9219 62.4795 12.974 62.7842 13.0781C63.0889 13.1823 63.3662 13.3516 63.6162 13.5859C63.8662 13.8177 64.0654 14.125 64.2139 14.5078C64.3623 14.8906 64.4365 15.362 64.4365 15.9219V16.3125H59.8115V15.5156H63.499C63.499 15.1771 63.4313 14.875 63.2959 14.6094C63.1631 14.3437 62.973 14.1341 62.7256 13.9805C62.4808 13.8268 62.1917 13.75 61.8584 13.75C61.4912 13.75 61.1735 13.8411 60.9053 14.0234C60.6396 14.2031 60.4352 14.4375 60.292 14.7266C60.1488 15.0156 60.0771 15.3255 60.0771 15.6562V16.1875C60.0771 16.6406 60.1553 17.0247 60.3115 17.3398C60.4704 17.6523 60.6904 17.8906 60.9717 18.0547C61.2529 18.2161 61.5798 18.2969 61.9521 18.2969C62.1943 18.2969 62.4131 18.263 62.6084 18.1953C62.8063 18.125 62.9769 18.0208 63.1201 17.8828C63.2633 17.7422 63.374 17.5677 63.4521 17.3594L64.3428 17.6094C64.249 17.9115 64.0915 18.1771 63.8701 18.4062C63.6488 18.6328 63.3753 18.8099 63.0498 18.9375C62.7243 19.0625 62.3584 19.125 61.9521 19.125ZM61.4209 12.1875L60.2021 10.375H61.2803L62.2334 12.1875H61.4209ZM68.2764 19.125C67.7139 19.125 67.2295 18.9922 66.8232 18.7266C66.417 18.4609 66.1045 18.0951 65.8857 17.6289C65.667 17.1628 65.5576 16.6302 65.5576 16.0312C65.5576 15.4219 65.6696 14.8841 65.8936 14.418C66.1201 13.9492 66.4352 13.5833 66.8389 13.3203C67.2451 13.0547 67.7191 12.9219 68.2607 12.9219C68.6826 12.9219 69.0628 13 69.4014 13.1562C69.7399 13.3125 70.0173 13.5312 70.2334 13.8125C70.4495 14.0937 70.5837 14.4219 70.6357 14.7969H69.7139C69.6436 14.5234 69.4873 14.2812 69.2451 14.0703C69.0055 13.8568 68.6826 13.75 68.2764 13.75C67.917 13.75 67.6019 13.8437 67.3311 14.0312C67.0628 14.2161 66.8532 14.4779 66.7021 14.8164C66.5537 15.1523 66.4795 15.5469 66.4795 16C66.4795 16.4635 66.5524 16.8672 66.6982 17.2109C66.8467 17.5547 67.055 17.8216 67.3232 18.0117C67.5941 18.2018 67.9118 18.2969 68.2764 18.2969C68.516 18.2969 68.7334 18.2552 68.9287 18.1719C69.124 18.0885 69.2894 17.9688 69.4248 17.8125C69.5602 17.6562 69.6566 17.4687 69.7139 17.25H70.6357C70.5837 17.6042 70.4548 17.9232 70.249 18.207C70.0459 18.4883 69.7764 18.7122 69.4404 18.8789C69.1071 19.043 68.7191 19.125 68.2764 19.125ZM74.499 19.125C73.9209 19.125 73.4222 18.9974 73.0029 18.7422C72.5863 18.4844 72.2646 18.125 72.0381 17.6641C71.8141 17.2005 71.7021 16.6615 71.7021 16.0469C71.7021 15.4323 71.8141 14.8906 72.0381 14.4219C72.2646 13.9505 72.5798 13.5833 72.9834 13.3203C73.3896 13.0547 73.8636 12.9219 74.4053 12.9219C74.7178 12.9219 75.0264 12.974 75.3311 13.0781C75.6357 13.1823 75.9131 13.3516 76.1631 13.5859C76.4131 13.8177 76.6123 14.125 76.7607 14.5078C76.9092 14.8906 76.9834 15.362 76.9834 15.9219V16.3125H72.3584V15.5156H76.0459C76.0459 15.1771 75.9782 14.875 75.8428 14.6094C75.71 14.3437 75.5199 14.1341 75.2725 13.9805C75.0277 13.8268 74.7386 13.75 74.4053 13.75C74.0381 13.75 73.7204 13.8411 73.4521 14.0234C73.1865 14.2031 72.9821 14.4375 72.8389 14.7266C72.6956 15.0156 72.624 15.3255 72.624 15.6562V16.1875C72.624 16.6406 72.7021 17.0247 72.8584 17.3398C73.0173 17.6523 73.2373 17.8906 73.5186 18.0547C73.7998 18.2161 74.1266 18.2969 74.499 18.2969C74.7412 18.2969 74.96 18.263 75.1553 18.1953C75.3532 18.125 75.5238 18.0208 75.667 17.8828C75.8102 17.7422 75.9209 17.5677 75.999 17.3594L76.8896 17.6094C76.7959 17.9115 76.6383 18.1771 76.417 18.4062C76.1956 18.6328 75.9222 18.8099 75.5967 18.9375C75.2712 19.0625 74.9053 19.125 74.499 19.125ZM82.6357 14.3437L81.8076 14.5781C81.7555 14.4401 81.6787 14.306 81.5771 14.1758C81.4782 14.043 81.3428 13.9336 81.1709 13.8477C80.999 13.7617 80.779 13.7187 80.5107 13.7187C80.1436 13.7187 79.8376 13.8034 79.5928 13.9727C79.3506 14.1393 79.2295 14.3516 79.2295 14.6094C79.2295 14.8385 79.3128 15.0195 79.4795 15.1523C79.6462 15.2852 79.9066 15.3958 80.2607 15.4844L81.1514 15.7031C81.6878 15.8333 82.0876 16.0326 82.3506 16.3008C82.6136 16.5664 82.7451 16.9089 82.7451 17.3281C82.7451 17.6719 82.6462 17.9792 82.4482 18.25C82.2529 18.5208 81.9795 18.7344 81.6279 18.8906C81.2764 19.0469 80.8675 19.125 80.4014 19.125C79.7894 19.125 79.2829 18.9922 78.8818 18.7266C78.4808 18.4609 78.2269 18.0729 78.1201 17.5625L78.9951 17.3437C79.0785 17.6667 79.236 17.9089 79.4678 18.0703C79.7021 18.2318 80.0081 18.3125 80.3857 18.3125C80.8154 18.3125 81.1566 18.2214 81.4092 18.0391C81.6644 17.8542 81.792 17.6328 81.792 17.375C81.792 17.1667 81.7191 16.9922 81.5732 16.8516C81.4274 16.7083 81.2035 16.6016 80.9014 16.5312L79.9014 16.2969C79.3519 16.1667 78.9482 15.9648 78.6904 15.6914C78.4352 15.4154 78.3076 15.0703 78.3076 14.6562C78.3076 14.3177 78.4027 14.0182 78.5928 13.7578C78.7855 13.4974 79.0472 13.293 79.3779 13.1445C79.7113 12.9961 80.0889 12.9219 80.5107 12.9219C81.1045 12.9219 81.5706 13.0521 81.9092 13.3125C82.2503 13.5729 82.4925 13.9167 82.6357 14.3437ZM87.2266 13H88.1484V19.4375C88.1484 19.8073 88.0846 20.1276 87.957 20.3984C87.832 20.6693 87.6419 20.8789 87.3867 21.0273C87.1341 21.1758 86.8151 21.25 86.4297 21.25C86.3984 21.25 86.3672 21.25 86.3359 21.25C86.3047 21.25 86.2734 21.25 86.2422 21.25V20.3906C86.2734 20.3906 86.3021 20.3906 86.3281 20.3906C86.3542 20.3906 86.3828 20.3906 86.4141 20.3906C86.6953 20.3906 86.901 20.3073 87.0313 20.1406C87.1615 19.9766 87.2266 19.7422 87.2266 19.4375V13ZM87.6797 12C87.5 12 87.3451 11.9388 87.2148 11.8164C87.0872 11.694 87.0234 11.5469 87.0234 11.375C87.0234 11.2031 87.0872 11.056 87.2148 10.9336C87.3451 10.8112 87.5 10.75 87.6797 10.75C87.8594 10.75 88.013 10.8112 88.1406 10.9336C88.2708 11.056 88.3359 11.2031 88.3359 11.375C88.3359 11.5469 88.2708 11.694 88.1406 11.8164C88.013 11.9388 87.8594 12 87.6797 12ZM92.2744 19.125C91.7327 19.125 91.2575 18.9961 90.8486 18.7383C90.4424 18.4805 90.1247 18.1198 89.8955 17.6562C89.6689 17.1927 89.5557 16.651 89.5557 16.0312C89.5557 15.4062 89.6689 14.8607 89.8955 14.3945C90.1247 13.9284 90.4424 13.5664 90.8486 13.3086C91.2575 13.0508 91.7327 12.9219 92.2744 12.9219C92.8161 12.9219 93.29 13.0508 93.6963 13.3086C94.1051 13.5664 94.4229 13.9284 94.6494 14.3945C94.8786 14.8607 94.9932 15.4062 94.9932 16.0312C94.9932 16.651 94.8786 17.1927 94.6494 17.6562C94.4229 18.1198 94.1051 18.4805 93.6963 18.7383C93.29 18.9961 92.8161 19.125 92.2744 19.125ZM92.2744 18.2969C92.6859 18.2969 93.0244 18.1914 93.29 17.9805C93.5557 17.7695 93.7523 17.4922 93.8799 17.1484C94.0075 16.8047 94.0713 16.4323 94.0713 16.0312C94.0713 15.6302 94.0075 15.2565 93.8799 14.9102C93.7523 14.5638 93.5557 14.2839 93.29 14.0703C93.0244 13.8568 92.6859 13.75 92.2744 13.75C91.863 13.75 91.5244 13.8568 91.2588 14.0703C90.9932 14.2839 90.7965 14.5638 90.6689 14.9102C90.5413 15.2565 90.4775 15.6302 90.4775 16.0312C90.4775 16.4323 90.5413 16.8047 90.6689 17.1484C90.7965 17.4922 90.9932 17.7695 91.2588 17.9805C91.5244 18.1914 91.863 18.2969 92.2744 18.2969ZM96.4004 19V13H97.3223V19H96.4004ZM96.8691 12C96.6895 12 96.5345 11.9388 96.4043 11.8164C96.2767 11.694 96.2129 11.5469 96.2129 11.375C96.2129 11.2031 96.2767 11.056 96.4043 10.9336C96.5345 10.8112 96.6895 10.75 96.8691 10.75C97.0488 10.75 97.2025 10.8112 97.3301 10.9336C97.4603 11.056 97.5254 11.2031 97.5254 11.375C97.5254 11.5469 97.4603 11.694 97.3301 11.8164C97.2025 11.9388 97.0488 12 96.8691 12ZM99.9326 15.3906V19H99.0107V13H99.9014V13.9375H99.9795C100.12 13.6328 100.334 13.388 100.62 13.2031C100.907 13.0156 101.276 12.9219 101.729 12.9219C102.136 12.9219 102.491 13.0052 102.796 13.1719C103.101 13.3359 103.338 13.5859 103.507 13.9219C103.676 14.2552 103.761 14.6771 103.761 15.1875V19H102.839V15.25C102.839 14.7786 102.716 14.4115 102.472 14.1484C102.227 13.8828 101.891 13.75 101.464 13.75C101.17 13.75 100.907 13.8138 100.675 13.9414C100.446 14.069 100.265 14.2552 100.132 14.5C99.999 14.7448 99.9326 15.0417 99.9326 15.3906ZM108.055 13V13.7812H104.945V13H108.055ZM105.852 11.5625H106.773V17.2812C106.773 17.5417 106.811 17.737 106.887 17.8672C106.965 17.9948 107.064 18.0807 107.184 18.125C107.306 18.1667 107.435 18.1875 107.57 18.1875C107.672 18.1875 107.755 18.1823 107.82 18.1719C107.885 18.1589 107.938 18.1484 107.977 18.1406L108.164 18.9687C108.102 18.9922 108.014 19.0156 107.902 19.0391C107.79 19.0651 107.648 19.0781 107.477 19.0781C107.216 19.0781 106.961 19.0221 106.711 18.9102C106.464 18.7982 106.258 18.6276 106.094 18.3984C105.932 18.1693 105.852 17.8802 105.852 17.5312V11.5625ZM111.893 19.125C111.314 19.125 110.816 18.9974 110.396 18.7422C109.98 18.4844 109.658 18.125 109.432 17.6641C109.208 17.2005 109.096 16.6615 109.096 16.0469C109.096 15.4323 109.208 14.8906 109.432 14.4219C109.658 13.9505 109.973 13.5833 110.377 13.3203C110.783 13.0547 111.257 12.9219 111.799 12.9219C112.111 12.9219 112.42 12.974 112.725 13.0781C113.029 13.1823 113.307 13.3516 113.557 13.5859C113.807 13.8177 114.006 14.125 114.154 14.5078C114.303 14.8906 114.377 15.362 114.377 15.9219V16.3125H109.752V15.5156H113.439C113.439 15.1771 113.372 14.875 113.236 14.6094C113.104 14.3437 112.913 14.1341 112.666 13.9805C112.421 13.8268 112.132 13.75 111.799 13.75C111.432 13.75 111.114 13.8411 110.846 14.0234C110.58 14.2031 110.376 14.4375 110.232 14.7266C110.089 15.0156 110.018 15.3255 110.018 15.6562V16.1875C110.018 16.6406 110.096 17.0247 110.252 17.3398C110.411 17.6523 110.631 17.8906 110.912 18.0547C111.193 18.2161 111.52 18.2969 111.893 18.2969C112.135 18.2969 112.354 18.263 112.549 18.1953C112.747 18.125 112.917 18.0208 113.061 17.8828C113.204 17.7422 113.314 17.5677 113.393 17.3594L114.283 17.6094C114.189 17.9115 114.032 18.1771 113.811 18.4062C113.589 18.6328 113.316 18.8099 112.99 18.9375C112.665 19.0625 112.299 19.125 111.893 19.125ZM120.029 14.3437L119.201 14.5781C119.149 14.4401 119.072 14.306 118.971 14.1758C118.872 14.043 118.736 13.9336 118.564 13.8477C118.393 13.7617 118.173 13.7187 117.904 13.7187C117.537 13.7187 117.231 13.8034 116.986 13.9727C116.744 14.1393 116.623 14.3516 116.623 14.6094C116.623 14.8385 116.706 15.0195 116.873 15.1523C117.04 15.2852 117.3 15.3958 117.654 15.4844L118.545 15.7031C119.081 15.8333 119.481 16.0326 119.744 16.3008C120.007 16.5664 120.139 16.9089 120.139 17.3281C120.139 17.6719 120.04 17.9792 119.842 18.25C119.646 18.5208 119.373 18.7344 119.021 18.8906C118.67 19.0469 118.261 19.125 117.795 19.125C117.183 19.125 116.676 18.9922 116.275 18.7266C115.874 18.4609 115.62 18.0729 115.514 17.5625L116.389 17.3437C116.472 17.6667 116.63 17.9089 116.861 18.0703C117.096 18.2318 117.402 18.3125 117.779 18.3125C118.209 18.3125 118.55 18.2214 118.803 18.0391C119.058 17.8542 119.186 17.6328 119.186 17.375C119.186 17.1667 119.113 16.9922 118.967 16.8516C118.821 16.7083 118.597 16.6016 118.295 16.5312L117.295 16.2969C116.745 16.1667 116.342 15.9648 116.084 15.6914C115.829 15.4154 115.701 15.0703 115.701 14.6562C115.701 14.3177 115.796 14.0182 115.986 13.7578C116.179 13.4974 116.441 13.293 116.771 13.1445C117.105 12.9961 117.482 12.9219 117.904 12.9219C118.498 12.9219 118.964 13.0521 119.303 13.3125C119.644 13.5729 119.886 13.9167 120.029 14.3437Z" fill="black"/>
</g>
<rect x="0.25" y="0.25" width="158.5" height="27.5" rx="1.75" stroke="black" stroke-width="0.5"/>
<defs>
<clipPath id="clip0_23_7973">
<rect width="159" height="28" rx="2" fill="white"/>
</clipPath>
</defs>
</svg>
