<svg width="28" height="21" viewBox="0 0 28 21" fill="none" xmlns="http://www.w3.org/2000/svg">
<path d="M18.1848 10.2173C19.4699 9.14376 20.7832 7.98603 22.1663 6.91785C22.9124 6.34101 23.8206 5.9969 24.804 6.02463C25.2169 6.03641 25.6873 6.14854 26.0308 6.37262C26.812 6.88286 26.946 7.57873 26.5134 8.46769C25.7854 9.96658 24.7638 11.2402 23.4583 12.2641C21.8487 13.5257 20.2465 14.802 18.5659 15.9653C17.4782 16.7176 16.2607 17.2907 15.0874 17.9194C14.8065 18.0701 14.479 18.1498 14.1608 18.2137C13.5592 18.3357 12.774 17.7952 12.8722 17.0093C13.1548 14.7496 13.3638 12.4794 13.6553 10.2225C13.8099 9.02711 14.0054 7.82958 14.3149 6.67352C14.528 5.87544 14.9204 5.1156 15.3259 4.39283C15.7204 3.68964 16.4059 3.32409 17.2375 3.44922C18.0632 3.57437 18.5287 4.16615 18.7847 4.9357C19.3252 6.5587 19.0353 8.08783 18.4245 9.58228C18.324 9.82695 18.2364 10.0784 18.1848 10.2154L18.1848 10.2173ZM14.6399 16.6476C14.8038 16.5863 14.9096 16.5653 14.9937 16.5122C16.547 15.5282 18.1537 14.6143 19.6319 13.53C21.0978 12.4546 22.489 11.2624 23.8036 10.0079C24.4505 9.39051 24.8925 8.54254 25.3483 7.75116C25.624 7.27319 25.4925 7.12629 24.9125 7.08988C24.0053 7.03347 23.1734 7.32448 22.4932 7.83654C20.9694 8.98254 19.5081 10.2093 18.0283 11.4108C17.7995 11.5965 17.6208 11.8132 17.2729 11.5774C16.9431 11.3533 17.0122 11.1048 17.0842 10.8026C17.3188 9.81789 17.622 8.83867 17.7161 7.83404C17.7961 6.976 17.6578 6.0838 17.5437 5.21298C17.5136 4.97867 17.218 4.5971 17.0448 4.59106C16.7953 4.58341 16.4937 4.81044 16.3059 5.02035C15.7314 5.66575 15.6533 6.51987 15.561 7.33596C15.2204 10.3335 14.9163 13.3378 14.6022 16.3401C14.5935 16.4202 14.621 16.5051 14.639 16.6486L14.6399 16.6476Z" fill="black"/>
<path d="M14.7388 16.7241C14.7221 16.578 14.6949 16.4918 14.7047 16.41C15.0565 13.3466 15.3992 10.2823 15.777 7.22251C15.8796 6.38975 15.9692 5.51935 16.5602 4.85444C16.7517 4.63853 17.0631 4.40389 17.3172 4.40902C17.4935 4.41334 17.7894 4.79812 17.8186 5.03759C17.9255 5.92395 18.0579 6.83282 17.9663 7.70723C17.8598 8.73219 17.5405 9.73347 17.2911 10.7397C17.2146 11.0484 17.1416 11.3024 17.4751 11.5273C17.8268 11.7639 18.0102 11.5422 18.2461 11.3495C19.7658 10.1091 21.267 8.84319 22.8311 7.65893C23.5301 7.12878 24.3804 6.82331 25.3027 6.87215C25.893 6.90309 26.0243 7.05044 25.7394 7.54151C25.2669 8.35297 24.8077 9.22196 24.1424 9.85812C22.7903 11.1507 21.3608 12.3807 19.8566 13.4924C18.3397 14.6132 16.6938 15.5618 15.1015 16.5812C15.0153 16.6363 14.9074 16.6588 14.7398 16.7231L14.7388 16.7241Z" fill="black"/>
<path d="M5.53998 11.5055C5.34188 10.3982 5.1041 9.24643 4.94179 8.0838C4.85391 7.45638 4.95575 6.81198 5.29955 6.24759C5.444 6.01064 5.66612 5.77362 5.91127 5.6479C6.46916 5.36222 6.91973 5.51587 7.29413 6.06441C7.92593 6.98841 8.32847 8.00868 8.49076 9.1113C8.69046 10.4705 8.90114 11.8303 9.01981 13.1982C9.09624 14.0833 9.02495 14.9844 9.00071 15.8783C8.99507 16.0923 8.93243 16.3099 8.86372 16.5169C8.73442 16.9084 8.15753 17.1864 7.73187 16.8672C6.50788 15.9495 5.25327 15.0713 4.03393 14.1493C3.38813 13.6609 2.75473 13.1479 2.18349 12.5822C1.78896 12.192 1.47648 11.71 1.18998 11.2326C0.911235 10.7682 0.926384 10.2466 1.27641 9.80321C1.62451 9.36327 2.12478 9.2889 2.65897 9.39595C3.78576 9.62139 4.58114 10.2999 5.24937 11.1541C5.35861 11.2943 5.47612 11.4291 5.53882 11.5049L5.53998 11.5055ZM8.10981 15.7156C8.12865 15.5996 8.15165 15.5309 8.14866 15.4641C8.09219 14.2302 8.09439 12.9886 7.95443 11.765C7.81551 10.5517 7.58352 9.34298 7.28977 8.15821C7.14516 7.57515 6.79778 7.03482 6.488 6.5053C6.30105 6.18524 6.17156 6.21299 5.95708 6.53919C5.62193 7.0496 5.51451 7.63182 5.58662 8.19914C5.74739 9.46985 5.97615 10.731 6.18397 11.9944C6.21606 12.1897 6.28292 12.3662 6.0295 12.4905C5.78887 12.6083 5.66697 12.4852 5.51469 12.3425C5.01843 11.8776 4.54827 11.3745 3.9936 10.9849C3.51973 10.6524 2.95322 10.4358 2.40725 10.2122C2.26055 10.1517 1.93951 10.197 1.87827 10.296C1.79067 10.439 1.82264 10.6906 1.88252 10.87C2.06758 11.4202 2.53977 11.7503 2.98508 12.076C4.62012 13.2734 6.2712 14.4517 7.91787 15.6351C7.96169 15.6669 8.02036 15.6791 8.11007 15.7165L8.10981 15.7156Z" fill="black"/>
<path d="M8.18799 15.6843C8.09719 15.6454 8.03787 15.6325 7.99343 15.5995C6.3237 14.3738 4.65045 13.1529 2.99147 11.9132C2.53989 11.5759 2.06205 11.2336 1.87107 10.6674C1.80892 10.4837 1.77583 10.2239 1.86346 10.0774C1.92473 9.97596 2.24775 9.93157 2.39716 9.99433C2.9498 10.2273 3.52406 10.4529 4.00361 10.7976C4.56599 11.2012 5.04369 11.721 5.54753 12.2017C5.70214 12.3492 5.82595 12.4764 6.06827 12.3568C6.32347 12.2305 6.25519 12.0496 6.22139 11.8478C6.00421 10.5481 5.76591 9.25069 5.59619 7.9438C5.51983 7.35943 5.62493 6.76168 5.9607 6.23995C6.1754 5.90595 6.3051 5.87844 6.49666 6.20819C6.81255 6.7542 7.16647 7.31152 7.31588 7.91159C7.61939 9.13092 7.86065 10.3745 8.00796 11.6223C8.15638 12.8806 8.16134 14.1567 8.22551 15.4251C8.22891 15.4937 8.20609 15.5642 8.18773 15.6834L8.18799 15.6843Z" fill="black"/>
</svg>
