<svg width="90" height="110" viewBox="0 0 90 110" fill="none" xmlns="http://www.w3.org/2000/svg">
<path d="M45 92.5005C20.1472 92.5005 0 71.7937 0 46.2505C0 20.7073 20.1472 0.000488281 45 0.000488281C69.8528 0.000488281 90 20.7073 90 46.2505C90 71.7937 69.8528 92.5005 45 92.5005Z" fill="black"/>
<g opacity="0.3">
<path d="M0.55304 46.5447C0.55304 46.9318 0.557184 47.3189 0.568242 47.7046C1.16227 22.8503 20.8264 2.89123 45.0008 2.89123C46.4375 2.89123 47.8568 2.96081 49.2589 3.09996C49.2437 4.72408 50.8319 6.3196 53.0446 6.79676C55.3011 7.28392 57.4129 6.4354 57.9779 4.88134C75.8544 10.5168 88.95 27.4914 89.4334 47.7046C89.4445 47.3189 89.4486 46.9318 89.4486 46.5447C89.4486 25.6857 76.0171 8.07239 57.6126 2.45124C55.2972 1.74298 52.9293 1.23324 50.533 0.927203C48.6978 0.690682 46.8502 0.572387 45.0008 0.573C20.4521 0.573 0.55304 21.1547 0.55304 46.5447Z" fill="white"/>
</g>
<path d="M7.48092e-07 46.6574C7.48092e-07 71.9764 20.1463 92.5005 44.9993 92.5005C69.8523 92.5005 90 71.9764 90 46.6574C90 45.2555 89.9394 43.8699 89.8181 42.5005C87.7557 65.8741 68.4756 84.187 45 84.187C21.5244 84.187 2.24435 65.8741 0.182977 42.5005C0.0619252 43.8694 0.000933707 45.255 7.48092e-07 46.6574Z" fill="#0F0F0F"/>
<path d="M45.0002 92.5005C57.02 92.5005 68.3206 87.6895 76.8198 78.9543C85.319 70.2192 90 58.6037 90 46.2512C90 33.8987 85.319 22.2836 76.8195 13.5466C68.3199 4.80971 57.0186 0.000488281 44.9998 0.000488281C32.9811 0.000488281 21.6797 4.81255 13.1802 13.5466C4.68067 22.2807 -3.93557e-06 33.8973 -3.93557e-06 46.2498C-3.93557e-06 58.6022 4.68102 70.2174 13.1802 78.9529C21.6794 87.6884 32.98 92.5005 45.0002 92.5005ZM45.0002 1.13735C69.2039 1.13735 88.8952 21.3754 88.8952 46.2512C88.8952 71.127 69.2036 91.3647 45.0002 91.3647C20.7968 91.3647 1.10546 71.127 1.10546 46.2512C1.10546 21.3754 20.7961 1.13735 45.0002 1.13735Z" fill="black"/>
<path d="M23.9432 85.5392C21.1178 83.7239 14.1961 79.8256 11.7131 74.9409C7.67502 66.999 3.28805 63.4891 2.03015 56.988C0.310106 48.1007 1.77522 46.2188 3.15112 34.6108C4.17848 25.9393 7.80868 18.7492 14.3159 14.8373C20.8232 10.9253 25.3821 4.17658 31.7765 2.4252C41.3203 -0.188827 46.2321 2.25879 52.3194 3.07681C58.5987 3.92055 65.3624 6.42603 69.883 9.68033C74.9816 13.3487 76.12 18.5189 81.5956 24.5638C86.4756 29.9519 88.3767 35.0733 87.1268 44.9992C86.1435 52.8053 87.44 57.2652 85.2086 63.6615C83.1193 69.6516 79.2841 71.1356 74.5919 79.6354C71.7829 84.7246 66.2961 86.2275 59.3176 89.0957C54.4714 91.0872 56.218 99.9962 51.646 100.263C46.2051 100.58 48.2555 91.6742 44.0295 91.2317C38.0109 90.602 43.221 108.443 36.4908 108.745C28.7464 109.093 34.5894 93.5473 29.5436 88.8605C27.5989 87.0542 25.4604 86.5134 23.9432 85.5392Z" fill="#2468FF"/>
<path d="M3.83976 47.752C3.94508 49.0465 4.1523 50.4836 4.48542 52.197C5.67141 58.2953 9.803 61.586 13.6076 69.0379C15.9467 73.6192 22.4664 77.2771 25.1279 78.9785C25.1801 79.0111 25.2308 79.0452 25.2844 79.0793L29.2605 65.39C23.1275 61.5321 19.1716 55.4509 19.1716 48.6084C19.1716 36.9511 30.6548 27.5005 44.8201 27.5005C58.9855 27.5005 70.4701 36.9504 70.4701 48.6084C70.4701 54.9744 67.0449 60.6828 61.6288 64.5535L65.9028 79.2605C68.9194 77.85 71.3051 76.2121 72.8407 73.4426C77.2598 65.4688 80.873 64.0771 82.8419 58.4574C84.9439 52.4585 83.7222 48.276 84.6488 40.9513C84.7751 39.9477 84.8684 38.9977 84.926 38.0931C85.0821 40.1574 84.9919 42.4871 84.6488 45.1992C83.7225 52.5209 84.9439 56.7049 82.8419 62.7052C80.873 68.3242 77.2598 69.7166 72.8407 77.689C70.1943 82.4629 65.0252 83.8734 58.452 86.5631C53.8861 88.432 55.5315 96.7886 51.2249 97.0383C46.0994 97.336 48.0313 88.9822 44.0496 88.5664C38.38 87.9768 43.2887 104.712 36.9481 104.995C29.6537 105.321 35.1576 90.7386 30.4037 86.3436C28.572 84.6493 26.5575 84.1416 25.1276 83.227C22.466 81.5242 15.9463 77.8678 13.6073 73.2851C9.80231 65.8352 5.67107 62.5438 4.48508 56.4456C3.75537 52.6934 3.63392 50.2729 3.83976 47.752ZM30.8514 83.1266C35.2114 91.0331 30.1546 101.969 36.522 102.177C42.6729 102.377 38.38 83.7297 44.0496 84.3204C48.0313 84.7344 45.6428 95.5044 51.2276 95.2706C55.5369 95.0904 53.8861 84.1845 58.452 82.3157C59.0651 82.0649 59.2582 80.5476 58.8565 79.7749C57.1549 76.497 58.0914 72.3059 55.962 67.6271C52.5917 68.9666 48.8128 69.7169 44.8201 69.7169C41.3267 69.7169 37.9975 69.1426 34.963 68.1021C33.1012 72.5894 33.3678 76.3636 32.2772 79.7735C31.7063 81.5586 30.6253 82.7169 30.8514 83.1266Z" fill="#0048E7"/>
<g opacity="0.5">
<path d="M3.65191 50.7297C3.7732 47.1913 4.62399 43.9245 5.44021 37.062C6.4154 28.8667 9.86001 22.0714 16.0349 18.3743C22.2099 14.6771 26.5357 8.29933 32.6028 6.64376C41.6587 4.17363 46.3186 6.4865 52.0958 7.25924C58.0541 8.05629 64.4706 10.4249 68.7604 13.5005C73.5983 16.9675 74.6786 21.8541 79.8742 27.5668C83.3768 31.4194 85.265 35.1248 85.4596 40.7631C85.6417 34.0393 83.7469 29.9522 79.87 25.6882C74.6744 19.9759 73.5942 15.0903 68.7549 11.6219C64.4664 8.5481 58.0486 6.17804 52.0903 5.38099C46.3131 4.6079 41.6542 2.29539 32.5972 4.76516C26.5301 6.42073 22.2043 12.7975 16.0294 16.496C9.85447 20.1946 6.40987 26.9881 5.43296 35.1841C4.47781 43.2314 3.4736 46.3313 3.65191 50.7297Z" fill="white"/>
</g>
<g opacity="0.5">
<path d="M10.7007 58.0722C9.46604 59.82 11.0422 65.9233 14.3499 64.7273C17.4942 63.5907 11.8231 56.4856 10.7007 58.0722Z" fill="white"/>
</g>
<g opacity="0.5">
<path d="M15.2586 26.9966C10.563 31.5494 6.41209 46.0063 9.04427 53.0646C12.0358 61.0862 9.40297 47.4403 14.6013 35.431C16.9011 30.1186 18.557 23.7984 15.2586 26.9966Z" fill="white"/>
</g>
<g opacity="0.5">
<path d="M75.4543 34.1963C73.2807 23.5387 63.3111 15.8335 55.4405 15.0561C49.1771 14.4374 60.681 17.8883 68.4777 29.0516C71.773 33.7699 76.3877 38.772 75.4543 34.1963Z" fill="white"/>
</g>
<path d="M36.3508 108.75C36.4392 108.75 36.5286 108.748 36.6192 108.744C40.5354 108.568 40.8738 103.405 41.1709 98.8493C41.3653 95.8695 41.5661 92.7884 42.7227 91.772C43.0503 91.484 43.4599 91.3696 43.9733 91.4242C45.4202 91.576 45.9451 92.972 46.6374 95.2532C47.3538 97.6137 48.2477 100.555 51.5772 100.356C54.2625 100.199 55.0476 97.5322 55.8067 94.9529C56.503 92.5861 57.2234 90.1385 59.3248 89.2727C60.3064 88.8685 61.2585 88.4915 62.1794 88.1269C67.7799 85.9089 72.2034 84.1572 74.6807 79.6595C76.8522 75.7164 78.816 73.3432 80.5485 71.2493C82.4426 68.9599 84.0785 66.9827 85.1965 63.77C86.5733 59.813 86.62 56.6272 86.6743 52.9391C86.7102 50.5898 86.7461 48.1602 87.118 45.1894C88.2979 35.7979 86.8306 30.3825 81.5103 24.4951C79.194 21.9319 77.644 19.4798 76.2762 17.3149C74.408 14.3605 72.7969 11.8105 69.8637 9.69417C65.3824 6.46046 58.6458 3.91972 52.2832 3.06259C50.8777 2.87336 49.5609 2.59961 48.1666 2.30979C43.7114 1.38384 39.1065 0.426485 31.7965 2.4332C27.9345 3.4934 24.8062 6.2761 21.4944 9.22184C19.2862 11.1859 17.0033 13.2166 14.4297 14.7674C8.1376 18.5591 4.2311 25.4741 3.13277 34.765C2.76307 37.8936 2.39409 40.2563 2.06857 42.3412C1.21096 47.8348 0.78054 50.5921 2.03265 57.0834C2.80942 61.1054 4.76321 64.013 7.0267 67.3791C8.46384 69.5171 10.0914 71.9415 11.6417 74.9972C13.8941 79.4389 19.5025 82.9444 22.8535 85.0387C23.2487 85.2859 23.6059 85.5087 23.9134 85.7069C24.4664 86.0626 25.0822 86.3558 25.7343 86.6658C26.8779 87.2095 28.1738 87.8251 29.358 88.9283C31.3822 90.8131 31.4713 94.8239 31.5576 98.7031C31.6402 102.429 31.7185 105.948 33.5063 107.689C34.2288 108.394 35.1849 108.75 36.3508 108.75ZM43.7323 90.2155C43.0557 90.2155 42.4679 90.4309 41.9815 90.8584C40.4531 92.202 40.2451 95.3916 40.0248 98.7682C39.7474 103.022 39.4604 107.42 36.5696 107.55C35.5877 107.595 34.8421 107.354 34.291 106.817C32.8556 105.42 32.782 102.143 32.7058 98.6773C32.6142 94.5434 32.5194 90.269 30.1236 88.039C28.8097 86.8158 27.429 86.1591 26.2114 85.5802C25.5934 85.2859 25.0092 85.0084 24.5174 84.6916C24.2062 84.4912 23.8448 84.2653 23.4449 84.0155C20.41 82.1187 14.7607 78.5873 12.6578 74.4419C11.0737 71.3185 9.4242 68.863 7.96766 66.6966C5.68908 63.3059 3.88942 60.6275 3.16008 56.8504C1.94785 50.5719 2.36713 47.8864 3.20247 42.5357C3.51361 40.5439 3.90056 38.0649 4.27314 34.9138C5.32548 26.0093 9.03689 19.4016 15.0053 15.8041C17.6694 14.1975 19.9933 12.1317 22.2395 10.1328C25.449 7.27796 28.4803 4.58165 32.0886 3.59138C39.141 1.65497 43.6144 2.58503 47.9406 3.48405C49.2936 3.76378 50.6912 4.05585 52.1359 4.24994C58.3275 5.08389 64.8697 7.54684 69.2095 10.6785C71.9594 12.6627 73.5155 15.1238 75.3173 17.9734C76.7106 20.1776 78.2897 22.6757 80.6742 25.3141C85.0018 30.1031 87.257 34.8652 85.9794 45.0345C85.5979 48.073 85.5598 50.6485 85.5267 52.9208C85.4739 56.5019 85.4286 59.5942 84.1169 63.3627C83.071 66.3687 81.5739 68.1779 79.6787 70.4681C77.9124 72.6027 75.9108 75.0219 73.6847 79.0641C71.4122 83.1909 67.158 84.8756 61.7716 87.0083C60.8471 87.3745 59.8914 87.7529 58.9027 88.1602C56.2875 89.2376 55.4489 92.0868 54.7088 94.6022C53.8943 97.3695 53.2716 99.0591 51.5136 99.1619C49.2351 99.2951 48.5675 97.6377 47.7336 94.8923C47.1052 92.8221 46.3928 90.4754 44.0894 90.2335C43.9675 90.2217 43.8484 90.2158 43.7323 90.2155Z" fill="#2468FF"/>
<path d="M34.219 12.6118C33.9789 11.9555 35.4835 10.7586 37.5795 9.93853C39.6756 9.11847 41.5693 8.98577 41.8094 9.64213C42.0494 10.2985 40.5449 11.4954 38.4488 12.3154C36.3528 13.1355 34.459 13.2682 34.219 12.6118Z" fill="white"/>
<path d="M41.2065 9.09574C41.5335 10.2793 39.9743 11.4817 37.934 12.5372C35.8937 13.5928 34.2389 14.4495 33.8164 12.9202C33.6768 12.4139 33.7639 11.9844 34.0152 11.5949C34.5481 12.772 36.1255 11.9554 38.043 10.9629C39.3765 10.2724 40.5048 9.52017 41.037 8.75049C41.1131 8.8451 41.1713 8.96357 41.2065 9.09574Z" fill="#D8D8D8"/>
<path d="M35.1961 13.7505C36.1067 13.7505 37.3499 13.2634 38.7013 12.7339C41.6281 11.5864 42.8142 10.5615 42.4297 9.50807C42.0452 8.45504 40.5028 8.49863 37.5749 9.64604C35.2719 10.5486 33.2831 11.3279 33.8465 12.8715C34.0792 13.5086 34.5555 13.7505 35.1961 13.7505ZM41.8828 9.72261C41.99 10.0164 41.8744 10.8424 38.495 12.1668C36.1649 13.0799 34.7268 13.5693 34.3935 12.6573C34.0602 11.7453 35.4515 11.1259 37.7812 10.2131C41.161 8.88869 41.7756 9.42884 41.8828 9.72261Z" fill="black"/>
<path d="M7.81373 34.6901C7.34242 34.1854 8.26715 32.4709 9.87918 30.8608C11.4912 29.2507 13.1801 28.3546 13.6514 28.8594C14.1227 29.3642 13.198 31.0787 11.5859 32.6888C9.97392 34.2989 8.28504 35.1949 7.81373 34.6901Z" fill="white"/>
<path d="M13.5585 28.9237C14.2128 29.6243 13.107 31.123 11.5083 32.718C9.90954 34.313 8.61245 35.6073 7.76681 34.7016C7.48744 34.4023 7.4422 34.0619 7.56286 33.6821C8.40781 34.2921 9.64422 33.0587 11.147 31.5594C12.1921 30.5166 13.0265 29.5149 13.2966 28.7505C13.3963 28.7851 13.4862 28.8446 13.5585 28.9237Z" fill="#D8D8D8"/>
<path d="M8.58912 35.0005C9.43489 35.0005 10.4654 33.9811 11.6143 32.8448C12.4516 32.0169 13.0264 31.3358 13.371 30.7626C13.8278 30.0028 13.8718 29.419 13.5023 29.027C13.1328 28.6353 12.5615 28.6598 11.8041 29.1005C11.2325 29.4331 10.5476 29.9973 9.71031 30.8255C8.18653 32.3322 6.87049 33.6336 7.82171 34.6433C8.05684 34.8918 8.31307 35.0005 8.58912 35.0005ZM12.8356 29.2665C12.964 29.2665 13.0656 29.3059 13.1403 29.3848C13.3292 29.5859 13.2634 29.9586 12.9426 30.4925C12.6247 31.0208 12.0613 31.6878 11.2649 32.4741C9.72259 33.9986 8.74681 34.8819 8.18432 34.2855C7.62184 33.6891 8.51798 32.7207 10.06 31.1962C10.8551 30.4096 11.5256 29.8551 12.0528 29.5485C12.3758 29.3606 12.6373 29.2665 12.8356 29.2665Z" fill="black"/>
<path d="M19.0874 58.6256C16.8512 58.4749 15.0741 57.7849 15.1183 57.0847C15.1624 56.3844 17.011 55.939 19.2472 56.0898C21.4834 56.2406 23.2605 56.9305 23.2163 57.6307C23.1722 58.331 21.3236 58.7764 19.0874 58.6256Z" fill="white"/>
<path d="M23.748 57.6817C23.6812 58.6872 21.7032 58.8547 19.2894 58.7008C16.8755 58.5468 14.9165 58.4207 15.0027 57.1215C15.0315 56.6922 15.2639 56.4191 15.6483 56.2505C15.7916 57.344 17.6584 57.4635 19.9274 57.6087C21.5054 57.7099 22.8973 57.6732 23.6909 57.3543C23.737 57.4571 23.7566 57.5696 23.748 57.6817Z" fill="#D8D8D8"/>
<path d="M20.6307 58.7505C21.2793 58.7505 21.8183 58.718 22.2581 58.6528C23.2079 58.5118 23.7092 58.2049 23.7476 57.7405C23.815 56.9246 22.4576 56.4742 19.4748 56.3198C17.1291 56.1995 15.1034 56.0952 15.0035 57.2915C14.9036 58.4879 16.93 58.5917 19.2753 58.7122C19.7731 58.7376 20.2237 58.7505 20.6307 58.7505ZM17.512 56.6931C18.0555 56.6931 18.7021 56.7206 19.4381 56.7591C22.8813 56.9359 23.2107 57.4845 23.1905 57.7121C23.1705 57.9503 22.8223 58.1212 22.1547 58.2203C21.4938 58.318 20.5378 58.3362 19.3134 58.2732C16.9381 58.1509 15.5031 58.0254 15.5614 57.3202C15.6019 56.8332 16.3023 56.6931 17.5123 56.6931H17.512Z" fill="black"/>
<path d="M32.6417 71.3662C30.99 69.7997 30.0227 68.1105 30.4813 67.5933C30.9398 67.076 32.6505 67.9267 34.3022 69.4932C35.9539 71.0597 36.9211 72.7489 36.4626 73.2661C36.004 73.7833 34.2933 72.9327 32.6417 71.3662Z" fill="white"/>
<path d="M36.0999 73.5171C35.472 74.2438 33.9779 73.1809 32.362 71.6084C30.7462 70.0359 29.4357 68.7602 30.2475 67.8208C30.5156 67.5104 30.8375 67.4422 31.2064 67.5452C30.6759 68.4656 31.9252 69.6814 33.4437 71.1595C34.4999 72.1872 35.5041 72.9979 36.25 73.2329C36.2225 73.3392 36.171 73.4368 36.0999 73.5171Z" fill="#D8D8D8"/>
<path d="M36.4252 73.7502C36.575 73.7537 36.7238 73.7283 36.8613 73.6759C36.9988 73.6235 37.1218 73.5453 37.2217 73.4467C37.9673 72.7285 37.2239 71.511 34.8825 69.6126C33.0409 68.1205 31.4506 66.8317 30.3578 67.8846C29.2651 68.9374 30.8554 70.2265 32.697 71.7186C34.3809 73.0835 35.5969 73.7502 36.4252 73.7502ZM36.785 73.094C36.5771 73.2938 35.8015 73.5238 33.0991 71.3338C31.2356 69.8246 30.151 68.8623 30.7971 68.2406C31.4431 67.6188 32.6198 68.4912 34.483 70.0008C37.186 72.1911 36.9941 72.8935 36.785 73.094Z" fill="black"/>
<path d="M69.3688 45.7478C67.6813 44.2226 66.6753 42.5578 67.1218 42.0294C67.5682 41.501 69.2981 42.3091 70.9855 43.8343C72.673 45.3595 73.679 47.0243 73.2325 47.5527C72.7861 48.0811 71.0562 47.2731 69.3688 45.7478Z" fill="white"/>
<path d="M73.61 47.2483C73.0085 48.0056 71.5152 46.9607 69.8925 45.4C68.2699 43.8392 66.9522 42.573 67.7292 41.595C67.9859 41.2716 68.3008 41.1926 68.6659 41.2888C68.1648 42.24 69.4201 43.4474 70.9459 44.9148C72.0073 45.9348 73.0125 46.735 73.75 46.9552C73.7258 47.064 73.6777 47.1647 73.61 47.2483Z" fill="#D8D8D8"/>
<path d="M72.6828 47.5005C73.0165 47.5005 73.2846 47.3911 73.4924 47.1737C74.2075 46.4252 73.4426 45.2004 71.0857 43.3171C70.1986 42.6084 69.3609 41.9395 68.6421 41.5699C67.7616 41.1178 67.0691 41.1455 66.5826 41.6539C65.5345 42.7506 67.1357 44.0285 68.9896 45.5105C70.6617 46.8463 71.8682 47.5005 72.6828 47.5005ZM73.0505 46.8225C72.8511 47.0312 72.0935 47.2818 69.3726 45.1085C67.4971 43.6101 66.403 42.6536 67.0215 42.0064C67.229 41.7893 67.5494 41.6231 68.3542 42.0368C69.0203 42.379 69.8357 43.0305 70.6994 43.7205C73.42 45.8944 73.2499 46.6138 73.0505 46.8225Z" fill="black"/>
<path d="M48.3434 82.3654C48.029 81.7436 49.3838 80.3687 51.3696 79.2945C53.3554 78.2203 55.2201 77.8535 55.5345 78.4754C55.849 79.0972 54.4941 80.4721 52.5083 81.5463C50.5225 82.6205 48.6578 82.9873 48.3434 82.3654Z" fill="white"/>
<path d="M54.9341 78.9469C55.3066 79.6475 54.0527 80.5531 52.3726 81.4173C50.6925 82.2816 49.3295 82.9824 48.8481 82.0771C48.689 81.7783 48.7311 81.5019 48.9186 81.235C49.4681 81.91 50.7674 81.2419 52.3466 80.4297C53.4447 79.8649 54.3612 79.2823 54.7604 78.7505C54.8338 78.801 54.8934 78.8684 54.9341 78.9469Z" fill="#D8D8D8"/>
<path d="M48.886 83.7505C49.8559 83.7505 51.1948 82.9896 52.6634 82.1552C55.5473 80.5161 56.6465 79.2461 56.1247 78.1579C55.6009 77.0706 54.0137 77.3268 51.1301 78.9655C48.8613 80.2549 46.9032 81.3679 47.6688 82.9624C47.9393 83.5244 48.3581 83.7505 48.886 83.7505ZM55.5838 78.4646C55.7299 78.7675 55.7101 79.6776 52.3815 81.5696C50.0868 82.8739 48.6604 83.598 48.2074 82.6561C47.7544 81.7142 49.1146 80.8554 51.4089 79.5515C54.7386 77.6595 55.4377 78.1612 55.5838 78.4646Z" fill="black"/>
<path d="M58.2073 14.386C56.4145 12.9953 55.2912 11.4128 55.6983 10.8514C56.1054 10.29 57.8887 10.9623 59.6815 12.353C61.4743 13.7437 62.5976 15.3262 62.1905 15.8876C61.7834 16.449 60.0001 15.7767 58.2073 14.386Z" fill="white"/>
<path d="M62.3626 15.9313C61.7343 16.7898 59.9505 15.8068 57.9776 14.2876C56.0047 12.7684 54.404 11.5352 55.2158 10.4269C55.4841 10.0609 55.8377 9.95042 56.2616 10.0203C55.7627 11.0763 57.2892 12.2517 59.1426 13.6796C60.4323 14.6728 61.6414 15.4357 62.5 15.607C62.4809 15.725 62.4337 15.8364 62.3626 15.9313Z" fill="#D8D8D8"/>
<path d="M61.4441 16.2505C61.8149 16.2505 62.0972 16.1143 62.2987 15.8428C62.9252 15.0002 62.0979 13.7585 59.6957 11.9356C58.7919 11.2495 57.94 10.6017 57.2212 10.2625C56.3433 9.84668 55.6818 9.92615 55.2548 10.4984C54.8278 11.0707 54.9388 11.7345 55.5779 12.471C56.1 13.072 56.954 13.7198 57.8578 14.406C59.4889 15.6431 60.6624 16.2505 61.4441 16.2505ZM61.85 15.5012C61.6744 15.7364 60.9693 16.0557 58.1981 13.9515C57.3181 13.2835 56.487 12.6526 56.0031 12.096C55.4184 11.4219 55.5252 11.0824 55.7071 10.8379C55.889 10.5935 56.1825 10.3955 56.9849 10.7748C57.6493 11.0891 58.4804 11.7199 59.3604 12.388C62.1344 14.4922 62.0263 15.2663 61.8517 15.5012H61.85Z" fill="black"/>
<path d="M16.3023 20.9491C16.0152 20.3132 17.4286 19.0028 19.4591 18.0221C21.4896 17.0415 23.3683 16.7619 23.6554 17.3978C23.9425 18.0336 22.5291 19.3441 20.4986 20.3247C18.4681 21.3054 16.5893 21.5849 16.3023 20.9491Z" fill="#3FE8BE"/>
<path d="M16.3133 20.7548C16.7144 21.7287 18.4755 21.1434 20.5018 20.071C22.5282 18.9986 24.1716 18.1287 23.6536 16.8706C23.4811 16.455 23.1886 16.272 22.7999 16.2505C23.0503 17.3917 21.4834 18.221 19.5789 19.2289C18.2544 19.9295 17.0431 20.4225 16.2506 20.408C16.2462 20.5277 16.2677 20.6468 16.3133 20.7548Z" fill="#EEEEEE"/>
<path d="M17.3913 21.2505C18.1048 21.2505 19.1533 20.8936 20.5742 20.1754C22.532 19.1861 24.2214 18.3316 23.6303 16.9608C23.3565 16.3252 22.7801 16.1146 21.9167 16.3353C21.2126 16.5142 20.3688 16.9409 19.3921 17.4347C18.3166 17.9782 17.5422 18.4664 17.0242 18.9289C16.338 19.5395 16.1063 20.1187 16.3357 20.6511C16.5091 21.0489 16.8557 21.2505 17.3913 21.2505ZM22.5317 16.8026C22.9299 16.8026 23.0773 16.9934 23.1655 17.196C23.5144 18.0053 22.3375 18.6714 20.3572 19.6722C17.4851 21.124 16.9135 20.674 16.8008 20.413C16.683 20.1403 16.8679 19.7841 17.3499 19.3553C17.832 18.9265 18.5875 18.4518 19.6091 17.9368C20.5206 17.4761 21.3817 17.041 22.0342 16.8749C22.1969 16.8304 22.3638 16.8061 22.5317 16.8023V16.8026Z" fill="black"/>
<path d="M30.9141 23.244C30.627 22.6081 32.0404 21.2977 34.0709 20.317C36.1014 19.3364 37.9802 19.0568 38.2672 19.6927C38.5543 20.3285 37.1409 21.639 35.1104 22.6196C33.0799 23.6003 31.2011 23.8798 30.9141 23.244Z" fill="#35DCFF"/>
<path d="M31.3144 23.2548C31.7155 24.2287 33.4764 23.6434 35.5028 22.571C37.5292 21.4986 39.1711 20.6287 38.6537 19.3706C38.4813 18.9546 38.1891 18.772 37.8 18.7505C38.0504 19.8917 36.4834 20.721 34.5791 21.7285C33.2542 22.4295 32.0432 22.9225 31.2505 22.908C31.2462 23.0278 31.2681 23.147 31.3144 23.2548Z" fill="#EEEEEE"/>
<path d="M31.3324 23.7505C32.1654 23.7505 33.3896 23.3939 35.0489 22.6762C36.1895 22.1824 37.1743 21.7564 37.8503 21.2873C38.6788 20.7123 38.937 20.0987 38.617 19.464C37.9268 18.0935 35.9531 18.9477 33.6684 19.9362C32.4127 20.4793 31.5085 20.9671 30.9037 21.4272C30.1026 22.0376 29.832 22.6165 30.1003 23.1481C30.3023 23.5491 30.707 23.7505 31.3324 23.7505ZM37.3227 19.3091C37.6847 19.3091 37.9365 19.4275 38.0721 19.6987C38.2078 19.9699 38.246 20.3175 37.4895 20.8446C36.8633 21.2793 35.8579 21.7126 34.7933 22.1744C31.44 23.6251 30.7726 23.1755 30.641 22.9147C30.5035 22.6418 30.7194 22.2862 31.2822 21.8578C31.845 21.4293 32.7271 20.955 33.9199 20.4404C35.4581 19.773 36.6066 19.3091 37.3227 19.3091Z" fill="#2468FF"/>
<path d="M6.98631 56.7618C6.96715 54.4441 7.50161 52.5603 8.18006 52.5543C8.85851 52.5483 9.42404 54.4223 9.4432 56.7401C9.46237 59.0578 8.92791 60.9416 8.24946 60.9476C7.57101 60.9536 7.00548 59.0796 6.98631 56.7618Z" fill="#2468FF"/>
<path d="M8.2052 52.5006C7.64406 52.5092 7.48933 54.4711 7.50056 56.8869C7.51179 59.3026 7.52097 61.262 8.24582 61.2504C8.48525 61.2471 8.64426 61.031 8.75 60.6573C8.14661 60.4516 8.13763 58.5839 8.12742 56.3135C8.12007 54.7345 8.18355 53.3493 8.38543 52.5762C8.32966 52.5244 8.26777 52.4985 8.2052 52.5006Z" fill="#EEEEEE"/>
<path d="M8.1519 61.2505H8.16824C9.03563 61.2446 9.59355 60.762 9.82651 59.8172C10.0169 59.0461 10.0066 58.0339 9.99414 56.8619C9.96319 53.886 9.35756 52.5005 8.08872 52.5005H8.07711C6.80009 52.5092 6.21983 53.9038 6.25121 56.8891C6.26281 58.0122 6.27356 59.0733 6.48031 59.8416C6.73133 60.7746 7.29396 61.2505 8.1519 61.2505ZM8.08614 53.0567C8.44419 53.0567 9.27117 53.4317 9.30685 56.8668C9.31845 57.9603 9.3292 58.9934 9.15297 59.7076C8.93805 60.5712 8.53273 60.6901 8.16437 60.6926C7.796 60.695 7.38423 60.582 7.15298 59.7212C6.96214 59.0094 6.95139 57.9767 6.93807 56.8828C6.90196 53.437 7.72681 53.0591 8.0827 53.0567H8.08614Z" fill="black"/>
<path d="M79.2789 47.5528C78.0908 45.5875 77.5939 43.6928 78.1691 43.3207C78.7444 42.9486 80.1739 44.2401 81.3621 46.2053C82.5503 48.1706 83.0472 50.0653 82.472 50.4374C81.8967 50.8095 80.4671 49.518 79.2789 47.5528Z" fill="#3FE8BE"/>
<path d="M77.8342 43.838C77.0425 44.2792 77.7584 45.7585 78.9261 47.4231C80.0938 49.0876 81.041 50.4379 82.0637 49.8677C82.4033 49.6793 82.5242 49.4062 82.4961 49.0655C81.5424 49.3914 80.6393 48.1041 79.5412 46.5394C78.7777 45.4514 78.2074 44.4424 78.1249 43.7505C78.0214 43.7579 77.9215 43.788 77.8342 43.838Z" fill="#EEEEEE"/>
<path d="M82.3976 51.2505C82.6302 51.2505 82.8674 51.1786 83.1114 51.022C84.5237 50.1154 83.3448 48.181 81.9799 45.9412C80.244 43.0923 78.9871 42.0543 78.0235 42.6726C77.0603 43.291 77.4199 44.9054 79.1554 47.7539C80.283 49.6066 81.2849 51.2505 82.3976 51.2505ZM78.5762 43.1418C78.9909 43.1418 79.85 43.6294 81.4612 46.2737C82.8425 48.5403 83.6206 49.9549 82.787 50.49C81.9535 51.0251 81.055 49.6875 79.6737 47.4209C77.6704 44.1332 78.0793 43.377 78.3479 43.2046C78.4165 43.1626 78.4952 43.1414 78.5751 43.1434L78.5762 43.1418Z" fill="black"/>
<path d="M70.6971 62.4978C70.3624 61.8874 71.6713 60.4656 73.6206 59.3221C75.5699 58.1786 77.4214 57.7465 77.7561 58.3569C78.0908 58.9673 76.782 60.3891 74.8327 61.5326C72.8834 62.6761 71.0318 63.1082 70.6971 62.4978Z" fill="#3FE8BE"/>
<path d="M70.0897 62.1172C70.5726 62.9683 72.3429 62.2934 74.3511 61.1561C76.3593 60.0189 77.9889 59.0941 77.365 57.9942C77.1588 57.6308 76.8436 57.4888 76.4419 57.5012C76.7817 58.5164 75.2286 59.3967 73.3408 60.467C72.0281 61.2113 70.8169 61.7573 70 61.809C70.0043 61.9175 70.0352 62.0233 70.0897 62.1172Z" fill="#EEEEEE"/>
<path d="M71.2788 63.7505C71.5851 63.7442 71.8893 63.6963 72.1836 63.6079C72.961 63.3893 73.9426 62.9286 75.1835 62.1999C76.2639 61.5654 77.2848 60.9661 77.9373 60.3708C78.7371 59.6413 78.9478 58.9161 78.5639 58.2134C78.18 57.5106 77.4704 57.3276 76.4553 57.6636C75.6272 57.9381 74.6534 58.5098 73.5259 59.1722C70.6541 60.8587 69.5799 62.1252 70.1455 63.1576C70.3624 63.5527 70.7421 63.7505 71.2788 63.7505ZM77.3481 58.1359C77.7432 58.1359 77.9157 58.3244 78.028 58.5294C78.1919 58.8287 78.2595 59.2246 77.5302 59.891C76.9256 60.4428 75.9321 61.0261 74.8802 61.6442C73.7011 62.3365 72.74 62.7896 72.0227 62.991C71.2988 63.1947 70.8482 63.1448 70.683 62.8432C70.5252 62.5551 70.5159 61.6753 73.8307 59.7288C74.8833 59.1107 75.8757 58.527 76.6439 58.2729C76.9368 58.1758 77.166 58.1359 77.3481 58.1359Z" fill="black"/>
<path d="M55.175 71.1238C52.9834 70.6399 51.3216 69.6913 51.4632 69.005C51.6048 68.3187 53.4963 68.1546 55.6879 68.6385C57.8795 69.1224 59.5413 70.071 59.3997 70.7573C59.258 71.4436 57.3666 71.6076 55.175 71.1238Z" fill="#3FE8BE"/>
<path d="M51.2671 69.0048C51.0495 69.8404 52.9348 70.4257 55.339 70.8466C57.7431 71.2675 59.6917 71.6085 59.973 70.5289C60.0658 70.172 59.9153 69.8966 59.5867 69.6719C59.1395 70.5317 57.2811 70.2062 55.0221 69.8108C53.4514 69.5357 52.1013 69.1891 51.4149 68.7505C51.341 68.824 51.2902 68.9113 51.2671 69.0048Z" fill="#EEEEEE"/>
<path d="M58.2846 71.2505C59.2536 71.2505 59.82 70.9071 59.9685 70.2303C60.117 69.5535 59.7396 69.0082 58.8439 68.6223C58.1134 68.3079 57.0592 68.0887 55.9431 67.8568C54.6618 67.5904 53.68 67.4772 52.9392 67.5044C51.9591 67.5434 51.3987 67.8523 51.2733 68.4228C51.1478 68.9933 51.5302 69.4983 52.4075 69.9235C53.0703 70.2444 54.0156 70.5299 55.2976 70.7963C56.4134 71.0282 57.4676 71.2474 58.2665 71.2505H58.2846ZM53.1657 68.0522C53.831 68.0522 54.7252 68.1674 55.824 68.3973C56.9104 68.623 57.9365 68.8363 58.6135 69.1279C59.4319 69.4803 59.4769 69.8248 59.4131 70.1157C59.3493 70.4066 59.165 70.6993 58.2853 70.6993H58.2693C57.5289 70.6966 56.5028 70.4833 55.416 70.2572C54.1985 70.0042 53.2713 69.726 52.6602 69.4289C52.0431 69.13 51.7628 68.8301 51.8269 68.5374C51.8911 68.2447 52.2728 68.0825 52.9611 68.0542C53.0288 68.0532 53.0965 68.0522 53.1671 68.0522H53.1657Z" fill="black"/>
<path d="M19.3462 36.964C17.4326 35.7577 16.1676 34.2941 16.5206 33.6949C16.8737 33.0956 18.7112 33.5877 20.6248 34.7939C22.5384 36.0002 23.8035 37.4638 23.4504 38.063C23.0973 38.6623 21.2598 38.1702 19.3462 36.964Z" fill="#2468FF"/>
<path d="M16.3541 33.9773C15.8377 34.8052 17.3086 36.0126 19.3083 37.2027C21.308 38.3929 22.9299 39.358 23.5973 38.2881C23.818 37.9354 23.7884 37.5936 23.5796 37.2518C22.8469 38.0349 21.3008 37.1146 19.4214 35.996C18.1144 35.2182 17.0331 34.4327 16.5849 33.7505C16.4902 33.8066 16.411 33.8845 16.3541 33.9773Z" fill="#EEEEEE"/>
<path d="M22.5435 38.7505C22.9967 38.7505 23.3405 38.5323 23.5697 38.0968C23.9216 37.4296 23.7578 36.7198 23.0828 35.9875C22.5318 35.39 21.7016 34.805 20.7401 34.1277C19.6817 33.3822 18.8418 32.9049 18.1722 32.6685C17.2851 32.3555 16.6859 32.4802 16.3913 33.0397C15.8731 34.0227 16.7723 35.2839 19.2212 37.0092C20.1828 37.6865 21.0133 38.2716 21.7248 38.5637C22.0284 38.6881 22.3019 38.7505 22.5435 38.7505ZM17.3364 33.118C17.5189 33.118 17.7455 33.1656 18.016 33.261C18.6334 33.4787 19.4572 33.9483 20.4626 34.6558C21.3598 35.2878 22.207 35.8848 22.7175 36.4381C23.3341 37.1069 23.2638 37.4885 23.1136 37.7733C22.9635 38.0581 22.7027 38.3057 21.9054 37.9787C21.2458 37.7074 20.3973 37.1111 19.5018 36.4792C16.6748 34.4876 16.7056 33.6348 16.8501 33.3609C16.9345 33.1993 17.0977 33.118 17.3364 33.118Z" fill="black"/>
<path d="M45.7771 17.9192C45.7138 17.2205 47.4551 16.4805 49.6664 16.2663C51.8776 16.0521 53.7215 16.4449 53.7847 17.1436C53.848 17.8423 52.1067 18.5823 49.8955 18.7965C47.6842 19.0107 45.8403 18.6179 45.7771 17.9192Z" fill="#C6FF00"/>
<path d="M46.2531 17.8111C46.3362 18.7606 48.038 18.8696 50.1063 18.6617C52.1747 18.4538 53.8522 18.2855 53.7451 17.058C53.7096 16.6527 53.5033 16.3987 53.1691 16.2505C53.074 17.2888 51.4744 17.4495 49.5309 17.6449C48.1789 17.7806 46.9834 17.7813 46.2939 17.4998C46.2571 17.5985 46.2431 17.7053 46.2531 17.8111Z" fill="#688602"/>
<path d="M47.7858 18.7501C48.2872 18.7501 48.8621 18.7269 49.5174 18.6804C50.6871 18.5975 51.6978 18.5258 52.4512 18.3483C53.375 18.1309 53.8098 17.7483 53.7434 17.2114C53.6001 16.0521 51.5753 16.1954 49.2308 16.3622C47.9428 16.4534 46.9826 16.5895 46.2949 16.7775C45.3834 17.0269 44.949 17.3815 45.0048 17.8312C45.0605 18.2809 45.5736 18.5683 46.5306 18.6852C46.9461 18.7318 47.3658 18.7536 47.7858 18.7501ZM51.4942 16.6802C52.5288 16.6802 53.1283 16.8178 53.1816 17.2513C53.2102 17.4807 53.1255 17.7419 52.2836 17.9403C51.5866 18.1044 50.5545 18.1774 49.4648 18.255C48.2421 18.3416 47.285 18.3443 46.6202 18.2633C45.9498 18.1812 45.5948 18.0226 45.5665 17.7913C45.5383 17.5601 45.8488 17.3545 46.4865 17.1796C47.1217 17.0063 48.0607 16.8745 49.2834 16.7879C50.1515 16.7261 50.896 16.6802 51.4942 16.6802Z" fill="black"/>
<path d="M10.772 49.4768C10.2483 49.0306 10.9685 47.2316 12.3806 45.4586C13.7927 43.6856 15.362 42.61 15.8857 43.0561C16.4093 43.5023 15.6891 45.3013 14.277 47.0744C12.865 48.8474 11.2957 49.923 10.772 49.4768Z" fill="#C6FF00"/>
<path d="M10.2091 49.8217C11.0203 50.5089 12.5241 49.1274 14.0857 47.1761C15.6473 45.2249 16.9145 43.6423 15.8663 42.754C15.52 42.4606 15.1507 42.437 14.755 42.6057C15.4871 43.5176 14.2791 45.0263 12.8116 46.8599C11.7906 48.1352 10.7944 49.1675 10 49.5377C10.0464 49.6483 10.1181 49.7458 10.2091 49.8217Z" fill="#688602"/>
<path d="M10.9715 50.0004C11.3194 50.0004 11.7251 49.8239 12.1848 49.4719C12.7616 49.0304 13.4319 48.3171 14.2337 47.2916C15.6937 45.4245 16.9546 43.8118 15.7984 42.8084C14.6421 41.8051 13.381 43.4174 11.9209 45.2842C11.1188 46.31 10.5827 47.1397 10.2816 47.8216C9.8824 48.7241 9.90786 49.3802 10.3566 49.7684C10.5287 49.9206 10.7468 50.0029 10.9715 50.0004ZM15.0437 43.0937C15.1925 43.0945 15.3361 43.1515 15.4484 43.2543C16.1311 43.8466 15.2846 45.0348 13.8094 46.9215C13.0479 47.8951 12.3927 48.5951 11.8614 49.0018C11.3301 49.4085 10.9368 49.5191 10.7062 49.3186C10.4756 49.1185 10.4997 48.6962 10.7802 48.0637C11.0606 47.4312 11.584 46.625 12.3452 45.6514C13.5496 44.113 14.4006 43.0937 15.0437 43.0937Z" fill="black"/>
<path d="M72.8257 28.9956C70.8484 27.9495 69.496 26.595 69.805 25.9702C70.1139 25.3455 71.9673 25.687 73.9446 26.7331C75.9219 27.7792 77.2743 29.1337 76.9653 29.7584C76.6564 30.3832 74.803 30.0416 72.8257 28.9956Z" fill="#C6FF00"/>
<path d="M70.0771 26.4528C69.636 27.1702 71.1435 28.0756 73.1606 28.9335C75.1777 29.7914 76.8147 30.4875 77.3849 29.5601C77.5736 29.2537 77.521 28.9737 77.295 28.7037C76.6415 29.3979 75.0815 28.733 73.1853 27.9284C71.8668 27.3676 70.7655 26.785 70.2841 26.2505C70.1964 26.303 70.1254 26.3724 70.0771 26.4528Z" fill="#688602"/>
<path d="M76.276 30.0005C76.7843 30.0005 77.1493 29.7837 77.3647 29.3518C77.666 28.7468 77.4631 28.1482 76.7656 27.5681C76.196 27.0952 75.3556 26.6553 74.3844 26.1454C72.8255 25.3284 70.6863 24.3779 70.1032 25.5455C69.5206 26.7134 71.5254 27.9345 73.0839 28.7515C74.0561 29.2611 74.8959 29.7014 75.6035 29.898C75.8223 29.9623 76.0484 29.9968 76.276 30.0005ZM71.1466 25.5428C71.6385 25.5428 72.532 25.7781 74.1457 26.624C75.0523 27.0993 75.9088 27.548 76.4357 27.9856C77.0725 28.5142 77.026 28.849 76.8981 29.1071C76.7702 29.3653 76.5315 29.5988 75.7406 29.3794C75.0848 29.1972 74.2293 28.7485 73.3226 28.2733C70.4669 26.7763 70.4466 26.0379 70.5702 25.7902C70.6226 25.6823 70.7672 25.5428 71.1453 25.5428H71.1466Z" fill="black"/>
<path d="M41.741 76.5968C41.187 76.1915 41.7776 74.3427 43.06 72.4672C44.3425 70.5918 45.8311 69.3999 46.3851 69.8051C46.939 70.2103 46.3484 72.0592 45.066 73.9346C43.7836 75.8101 42.2949 77.002 41.741 76.5968Z" fill="#C6FF00"/>
<path d="M41.447 76.1358C42.1852 76.6344 43.3909 75.4431 44.6116 73.7951C45.8324 72.147 46.8222 70.8106 45.8682 70.1659C45.5531 69.9529 45.2347 69.9564 44.9054 70.1147C45.5893 70.7967 44.6455 72.0713 43.4984 73.6201C42.7007 74.6973 41.9092 75.5798 41.25 75.9225C41.2966 76.0079 41.3642 76.0811 41.447 76.1358Z" fill="#688602"/>
<path d="M42.2837 77.5005C43.3679 77.5005 44.6732 75.6735 45.621 74.1834C47.0299 71.9682 48.2468 70.0553 46.9469 69.0333C45.647 68.0112 44.4301 69.924 43.0212 72.1385C41.8939 73.9111 40.53 76.3727 41.695 77.2891C41.8661 77.4272 42.0723 77.5013 42.2837 77.5005ZM46.217 69.4175C46.3585 69.4187 46.4959 69.47 46.6094 69.5638C47.3772 70.1671 46.5673 71.5697 45.1435 73.8082C43.0783 77.0553 42.2804 76.9533 42.0325 76.7585C41.7846 76.5638 41.4332 75.7613 43.4984 72.5142C44.6882 70.6436 45.5263 69.4175 46.217 69.4175Z" fill="black"/>
<path d="M34.1922 83.0044C32.0748 82.3113 30.5242 81.2071 30.7289 80.5381C30.9336 79.869 32.816 79.8885 34.9335 80.5815C37.0509 81.2746 38.6015 82.3788 38.3968 83.0478C38.1921 83.7169 36.3096 83.6974 34.1922 83.0044Z" fill="#C6FF00"/>
<path d="M31.2817 80.2975C31.0042 81.3022 32.5856 82.1983 34.6331 82.9423C36.6807 83.6863 38.3443 84.288 38.7011 82.9902C38.8194 82.5613 38.7175 82.2094 38.455 81.9024C37.9752 82.9151 36.3911 82.3401 34.4663 81.6418C33.1273 81.1561 31.9881 80.6049 31.4368 80.0005C31.365 80.0838 31.3118 80.1857 31.2817 80.2975Z" fill="#688602"/>
<path d="M37.228 83.7505C37.9448 83.7505 38.4651 83.5432 38.6787 82.9746C39.1568 81.7057 37.1578 81.1741 34.8432 80.5597C32.9904 80.0669 30.4786 79.5442 30.05 80.682C29.6217 81.8194 32.0345 82.6057 33.8862 83.0969C35.1638 83.4353 36.3452 83.7505 37.228 83.7505ZM31.6011 80.4909C32.2012 80.4909 33.1541 80.6214 34.666 81.0237C37.0057 81.6458 38.4054 82.0774 38.1227 82.8273C37.84 83.5772 36.3998 83.2528 34.0605 82.6307C30.6675 81.7286 30.5125 81.0696 30.6038 80.8272C30.6551 80.6936 30.8556 80.4909 31.6011 80.4909Z" fill="black"/>
<path d="M55 62.6067C59.7177 65.215 58.9662 71.9015 60.1588 77.1683C61.5196 83.1803 68.0199 84.3278 71.627 79.4863C72.1901 78.7297 72.6349 77.8701 72.9671 76.9327C75.0219 71.1549 72.8555 62.4668 68.5282 57.2199C67.3107 55.7435 65.9227 54.5395 64.4076 53.7505L55 62.6067Z" fill="black"/>
<g opacity="0.2">
<path d="M55.4392 62.4491C60.1704 65.0887 59.4167 71.8554 60.6127 77.1852C61.9773 83.2692 68.4961 84.4305 72.1135 79.5309C72.6781 78.7654 73.1243 77.8954 73.4574 76.9468C71.1729 79.695 67.4618 80.5878 65.0657 79.0466C61.4593 76.7281 60.1268 67.8544 63.2342 64.9975C66.5005 61.9952 68.1813 58.9571 69.0051 56.9978C67.7842 55.5037 66.3923 54.2853 64.8728 53.4868L55.4392 62.4491Z" fill="black"/>
</g>
<path d="M66.7701 83.7505C68.9937 83.7505 71.1953 82.532 72.7461 80.3674C74.9735 77.2605 75.5852 72.3672 74.4238 66.9421C73.0367 60.4698 69.4542 54.8306 65.2922 52.5782C65.2269 52.5385 65.1548 52.5134 65.0802 52.5043C65.0056 52.4952 64.93 52.5024 64.858 52.5253C64.7861 52.5482 64.7193 52.5865 64.6616 52.6377C64.604 52.689 64.5567 52.7522 64.5226 52.8235C64.4886 52.8947 64.4685 52.9726 64.4635 53.0524C64.4586 53.1322 64.4689 53.2123 64.4939 53.2877C64.5189 53.3631 64.558 53.4324 64.6088 53.4912C64.6596 53.5501 64.7212 53.5974 64.7897 53.6302C68.6701 55.7323 72.0276 61.061 73.3429 67.2054C74.4308 72.2878 73.8922 76.8248 71.865 79.6522C70.2393 81.9197 67.9176 82.9632 65.6556 82.4452C63.5056 81.9519 61.8778 80.086 61.3042 77.4532C60.9966 76.0416 60.8156 74.4881 60.6405 72.9853C60.1252 68.5679 59.5925 63.9999 55.8362 61.8427C55.7719 61.8024 55.7006 61.7763 55.6267 61.7661C55.5527 61.7558 55.4775 61.7615 55.4056 61.7829C55.3337 61.8042 55.2667 61.8408 55.2084 61.8904C55.1501 61.94 55.1018 62.0017 55.0664 62.0716C55.031 62.1416 55.0092 62.2184 55.0024 62.2975C54.9955 62.3766 55.0037 62.4564 55.0264 62.5321C55.0492 62.6078 55.0861 62.6778 55.1348 62.7379C55.1836 62.7981 55.2432 62.8471 55.3102 62.8822C58.563 64.7498 59.0373 68.8208 59.5409 73.1308C59.7195 74.6632 59.9043 76.2476 60.2251 77.7195C60.8981 80.809 62.8411 83.0068 65.4229 83.5984C65.8656 83.6998 66.3172 83.7508 66.7701 83.7505Z" fill="black"/>
<g opacity="0.5">
<path d="M36.7159 91.751C37.5362 91.751 38.8445 99.9856 36.2445 99.6142C34.3104 99.3401 35.8951 91.751 36.7159 91.751Z" fill="white"/>
</g>
<g opacity="0.5">
<path d="M51.4492 87.5505C52.2695 87.5505 53.7454 94.0556 51.1457 93.6846C49.2113 93.4079 50.6284 87.5505 51.4492 87.5505Z" fill="white"/>
</g>
<g opacity="0.5">
<path d="M36.732 87.5505C37.6581 87.5505 38.6972 90.728 36.5792 90.5854C35.0038 90.4792 36.0636 87.5505 36.732 87.5505Z" fill="white"/>
</g>
<path d="M62.9977 77.7122C62.5052 79.1537 62.0069 81.0018 63.4665 82.2837C64.2821 82.9023 65.5901 82.0582 64.7038 81.4833C63.5185 80.6171 63.6857 78.9516 63.8357 77.8313C63.914 77.474 63.1391 77.3643 62.9977 77.7122Z" fill="black"/>
<path d="M69.5281 78.9427C69.2403 79.9223 68.7907 81.1337 67.8145 81.547C67.2271 81.779 67.5366 82.6733 68.1359 82.4709C68.4988 82.3032 68.7919 82.02 69.017 81.7362C69.4222 81.2026 69.6524 80.5916 69.8191 79.9606C69.899 79.6539 69.9587 79.3421 69.998 79.0272C70.006 78.9644 69.99 78.9009 69.9534 78.85C69.9168 78.799 69.8624 78.7646 69.8016 78.754C69.7408 78.7433 69.6784 78.7573 69.6274 78.7928C69.5764 78.8284 69.5408 78.8829 69.5281 78.9448V78.9427Z" fill="black"/>
<g opacity="0.3">
<path d="M71.1769 65.1994C72.0356 66.9354 72.2979 71.1822 71.6316 71.787C70.4747 72.8378 69.8768 69.1135 69.552 70.0392C69.2272 70.9649 68.3494 71.1829 67.8135 69.1317C67.2606 67.0168 67.5208 64.7118 68.7883 65.7873C70.1174 66.9153 69.7804 62.3757 71.1769 65.1994Z" fill="white"/>
</g>
<path d="M36.25 62.6067C31.5316 65.215 32.2835 71.9019 31.0908 77.1683C29.7301 83.1803 23.2298 84.3278 19.623 79.4863C19.0596 78.7297 18.6147 77.8701 18.2829 76.9327C16.2281 71.1549 18.3945 62.4668 22.7215 57.2199C23.9389 55.7435 25.3273 54.5395 26.8421 53.7505L36.25 62.6067Z" fill="black"/>
<g opacity="0.2">
<path d="M35.7133 62.4491C30.9814 65.0887 31.7354 71.8557 30.5394 77.1852C29.1748 83.2692 22.656 84.4305 19.039 79.5309C18.474 78.7654 18.0279 77.8954 17.6951 76.9468C19.9793 79.695 23.6907 80.5878 26.0868 79.0466C29.6928 76.7281 31.0257 67.8544 27.9166 64.9975C24.6503 61.9952 22.9695 58.9571 22.1456 56.9978C23.3665 55.5037 24.7588 54.2853 26.2779 53.4868L35.7133 62.4491Z" fill="black"/>
</g>
<path d="M24.4934 83.7505C24.9473 83.7507 25.3999 83.6997 25.8437 83.5984C28.4299 83.0075 30.3766 80.8086 31.0508 77.719C31.3722 76.2472 31.5573 74.6627 31.7362 73.1303C32.2396 68.8203 32.7151 64.7481 35.9742 62.8815C36.0988 62.8043 36.1902 62.6786 36.2292 62.5311C36.2683 62.3835 36.2518 62.2256 36.1834 62.0907C36.115 61.9558 35.9999 61.8545 35.8625 61.8081C35.725 61.7617 35.576 61.7738 35.4469 61.842C31.6841 63.9992 31.1505 68.5673 30.6347 72.9848C30.4593 74.4869 30.2779 76.0404 29.9695 77.4528C29.3949 80.0856 27.7654 81.9518 25.6109 82.4448C23.3443 82.9618 21.0193 81.9193 19.3908 79.6517C17.36 76.8243 16.8202 72.2876 17.9103 67.2051C19.2275 61.0603 22.5908 55.7315 26.4783 53.6294C26.5467 53.5964 26.6081 53.549 26.6588 53.4901C26.7095 53.4312 26.7484 53.362 26.7733 53.2867C26.7981 53.2114 26.8083 53.1315 26.8033 53.0518C26.7983 52.9722 26.7782 52.8945 26.7441 52.8233C26.71 52.7522 26.6628 52.6891 26.6051 52.6379C26.5475 52.5867 26.4807 52.5485 26.4088 52.5255C26.3369 52.5025 26.2614 52.4953 26.1867 52.5042C26.1121 52.5131 26.04 52.538 25.9746 52.5773C21.8061 54.8317 18.2149 60.4706 16.8272 66.9415C15.6638 72.3666 16.2766 77.26 18.5078 80.367C20.0605 82.5297 22.2664 83.7505 24.4934 83.7505Z" fill="black"/>
<path d="M27.4184 77.8359C27.5668 78.9536 27.7368 80.6197 26.5477 81.4842C25.6463 82.0683 27.0043 82.9148 27.8088 82.2677C28.9753 81.2376 28.8162 79.9721 28.5908 78.7964C28.5091 78.4329 28.3985 78.0726 28.2595 77.717C28.2319 77.645 28.1639 77.583 28.0697 77.5438C27.9756 77.5047 27.8625 77.4914 27.7541 77.5067C27.6456 77.522 27.5502 77.5648 27.4877 77.6262C27.4251 77.6875 27.4003 77.7626 27.4184 77.8359Z" fill="black"/>
<path d="M21.2507 79.0229C21.3863 79.9937 21.6414 80.9412 22.2308 81.7379C22.5262 82.1019 23.292 82.9188 23.6961 82.2381C23.7251 82.1808 23.7428 82.1183 23.7482 82.054C23.7536 81.9897 23.7467 81.9249 23.7278 81.8634C23.7088 81.8018 23.6783 81.7448 23.6379 81.6954C23.5975 81.646 23.548 81.6054 23.4923 81.5757C23.2541 81.4873 23.0367 81.3485 22.854 81.1682C22.2818 80.5834 21.9388 79.7349 21.7215 78.9404C21.6536 78.6402 21.2179 78.7171 21.2519 79.0229H21.2507Z" fill="black"/>
<g opacity="0.3">
<path d="M19.978 65.1994C19.1193 66.9354 18.857 71.1822 19.5229 71.787C20.6802 72.8378 21.2777 69.1135 21.6029 70.0392C21.928 70.9649 22.8051 71.1829 23.3414 69.1317C23.8943 67.0168 23.6337 64.7118 22.3665 65.7873C21.0372 66.9153 21.3744 62.3757 19.978 65.1994Z" fill="white"/>
</g>
<g opacity="0.2">
<path d="M21.6573 53.7739C22.2554 55.6379 23.2389 57.5351 24.9747 59.3193C26.2979 60.6822 27.8958 61.7576 30.4329 62.925C32.7907 64.009 38.6643 65.586 45.6447 65.5077C52.6276 65.4505 58.4753 63.7592 60.8151 62.6304C63.3329 61.4152 64.9142 60.3072 66.2153 58.9208C67.8671 57.1623 68.8119 55.3108 69.3876 53.4966C68.8773 54.2966 68.2947 55.0447 67.6476 55.7308C66.2554 57.2138 64.5648 58.3979 61.8743 59.6982C59.3703 60.9038 53.1197 62.7123 45.6534 62.7738C38.1891 62.8581 31.9112 61.1711 29.3893 60.0123C26.6766 58.7653 24.9695 57.6141 23.5527 56.1583C22.8441 55.4323 22.2089 54.6334 21.6573 53.7739Z" fill="black"/>
</g>
<g opacity="0.6">
<path d="M36.5429 37.6376C36.5429 37.6376 37.712 19.4924 50.6566 19.4976C54.8487 19.4992 56.7896 22.5922 56.0348 24.996C55.3199 27.274 53.5736 28.0531 52.3148 27.9166C47.8876 27.4323 42.7034 22.0938 36.5429 37.6376Z" fill="white"/>
</g>
<path d="M63.1907 52.23C62.5027 50.8355 61.7246 49.4871 60.8615 48.1935C60.5926 47.8096 60.0137 47.7087 59.5829 47.9573C59.1516 48.206 58.9495 48.7567 59.1471 49.1817C59.8353 50.5762 60.6133 51.9245 61.4764 53.2182C61.7453 53.6021 62.3241 53.7028 62.7549 53.4544C63.1865 53.205 63.3886 52.6537 63.1907 52.23Z" fill="#9CEF43"/>
<path d="M61.8612 53.5901C62.1083 53.5904 62.3512 53.5416 62.5654 53.4487C63.165 53.1889 63.4319 52.6173 63.1612 52.178C62.2659 50.8076 61.2536 49.4826 60.1306 48.2113C59.7607 47.8128 58.9731 47.7018 58.3742 47.9627C57.7754 48.2235 57.5071 48.7941 57.7781 49.2337C58.6746 50.6044 59.6878 51.9298 60.8115 53.2017C61.0425 53.4529 61.4451 53.5901 61.8612 53.5901ZM63.0321 52.224C63.2731 52.6137 63.0321 53.1219 62.4945 53.3555C61.9569 53.589 61.2547 53.4921 60.9265 53.1396C59.8068 51.8724 58.7972 50.5517 57.9042 49.1859C57.6631 48.7962 57.9042 48.2887 58.4424 48.0552C58.9807 47.8216 59.6822 47.9182 60.0101 48.2711C61.1296 49.538 62.1389 50.8584 63.0317 52.224H63.0321Z" fill="black"/>
<path d="M61.6587 55.0322C61.9403 55.033 62.217 54.9609 62.4612 54.823C63.1554 54.4293 63.4598 53.5586 63.1396 52.8796C63.1378 52.8764 63.1361 52.8727 63.1346 52.8695C62.3662 51.3379 61.4977 49.8569 60.5346 48.4357C60.0922 47.8145 59.1726 47.6369 58.4782 48.0306C57.7837 48.4242 57.4796 49.295 57.7998 49.974C58.5695 51.5092 59.4395 52.9937 60.4045 54.4181C60.6885 54.8164 61.1682 55.0322 61.6587 55.0322ZM62.2614 53.2862C62.3678 53.5184 62.2354 53.8491 61.9763 53.996C61.7171 54.1428 61.3558 54.0897 61.2062 53.881C60.2687 52.4969 59.4233 51.0544 58.6754 49.5628C58.5705 49.3407 58.7025 49.007 58.9634 48.859C59.2243 48.711 59.5839 48.7656 59.7335 48.974C60.6696 50.3564 61.514 51.7968 62.2614 53.2862Z" fill="black"/>
<path d="M61.2644 39.7786C61.577 38.0328 61.7785 36.2681 61.8677 34.4956C61.8825 33.9609 61.432 33.4749 60.8801 33.409C60.3286 33.3431 59.7805 33.7098 59.6744 34.2336C59.3615 35.9793 59.16 37.744 59.0711 39.5166C59.056 40.0512 59.5068 40.5376 60.0587 40.6047C60.6103 40.6693 61.1583 40.3024 61.2644 39.7786Z" fill="#FFF61E"/>
<path d="M60.2012 40.6117C60.7174 40.6117 61.19 40.2446 61.2889 39.7438C61.5888 38.025 61.7822 36.2875 61.8677 34.5424C61.883 33.9863 61.4353 33.4787 60.8698 33.4094C60.3043 33.3402 59.7572 33.7257 59.6502 34.2693C59.3503 35.989 59.1568 37.7273 59.0711 39.4733C59.0561 40.0297 59.5038 40.5374 60.069 40.6067C60.1129 40.6112 60.1571 40.6128 60.2012 40.6117ZM61.1736 39.72C61.0779 40.2021 60.5883 40.5428 60.0829 40.4818C59.5774 40.4209 59.1767 39.9685 59.1889 39.476C59.2743 37.7362 59.467 36.004 59.766 34.2904C59.8609 33.8092 60.3488 33.4697 60.8565 33.5295C61.3642 33.5892 61.7626 34.0425 61.7504 34.535C61.6653 36.2746 61.4726 38.0066 61.1736 39.72Z" fill="black"/>
<path d="M60.2595 42.0559C60.8065 42.0559 61.3073 41.4144 61.4138 40.541C61.4138 40.5362 61.4152 40.5314 61.4156 40.5265C61.6499 38.3548 61.8009 36.1596 61.8676 33.9547C61.884 32.9744 61.4121 32.0925 60.8156 31.9744C60.2192 31.8563 59.6405 32.5297 59.5247 33.4759C59.2897 35.6522 59.1381 37.8521 59.0712 40.0618C59.0545 41.0418 59.5265 41.924 60.1227 42.0425C60.1681 42.0514 60.2138 42.0559 60.2595 42.0559ZM60.7014 40.2966C60.6601 40.6183 60.4297 40.8631 60.2076 40.8166C59.9855 40.7702 59.7919 40.4426 59.7978 40.1108C59.8632 37.9637 60.0104 35.8259 60.2385 33.711C60.2765 33.4005 60.5071 33.1538 60.7314 33.1995C60.9557 33.2452 61.1471 33.5732 61.1414 33.9053C61.0761 36.0496 60.9291 38.1845 60.7014 40.2966Z" fill="black"/>
<path d="M50.6777 36.512C50.7103 34.3905 50.615 32.269 50.3927 30.1608C50.3119 29.5273 49.72 29.0442 49.0912 29.0767C48.4624 29.1096 47.9163 29.652 47.8929 30.2912C47.8603 32.4127 47.9556 34.5343 48.178 36.6425C48.2587 37.2759 48.8507 37.759 49.4798 37.7265C50.1086 37.6936 50.6546 37.1512 50.6777 36.512Z" fill="#39D5FF"/>
<path d="M49.4115 37.728C49.4323 37.728 49.4527 37.728 49.4735 37.728C50.1141 37.6925 50.6545 37.1264 50.6781 36.4634V36.4616C50.709 34.3727 50.618 32.2837 50.4058 30.2078C50.3244 29.5487 49.7413 29.043 49.0971 29.0768C48.453 29.1105 47.9161 29.6787 47.8925 30.3418C47.8617 32.4317 47.9526 34.5216 48.1648 36.5984C48.2427 37.233 48.7952 37.728 49.4115 37.728ZM50.5456 36.4556C50.5242 37.0436 50.0407 37.5472 49.4668 37.5777C48.8929 37.6083 48.3678 37.1591 48.2957 36.576C48.0843 34.5065 47.9937 32.424 48.0243 30.3414C48.0454 29.7548 48.529 29.2509 49.1032 29.22C49.6723 29.188 50.2025 29.6382 50.2743 30.222C50.4857 32.2912 50.5763 34.3734 50.5456 36.4556Z" fill="black"/>
<path d="M49.3817 37.728C49.4023 37.728 49.423 37.728 49.4438 37.7261C50.1005 37.6839 50.6548 36.9788 50.6795 36.154C50.6795 36.1499 50.6795 36.1457 50.6795 36.1416C50.703 34.2558 50.634 32.37 50.4729 30.4961C50.3869 29.6659 49.7841 29.0382 49.127 29.0769C48.4698 29.1156 47.916 29.8242 47.8913 30.649C47.8674 32.5389 47.9363 34.4289 48.0976 36.307C48.181 37.1111 48.7495 37.728 49.3817 37.728ZM49.8838 36.1175C49.8728 36.3983 49.6504 36.657 49.4045 36.6732C49.1586 36.6893 48.9161 36.4567 48.8868 36.1762C48.7304 34.3512 48.6635 32.5147 48.6865 30.6782C48.6946 30.4078 48.9182 30.1457 49.1658 30.1302C49.4172 30.1114 49.6542 30.3463 49.6832 30.6271C49.8394 32.4496 49.9064 34.2836 49.8838 36.1175Z" fill="black"/>
<path d="M39.4783 33.8321C39.5272 32.0642 39.3842 30.2962 39.0502 28.5394C38.9296 28.0112 38.0412 27.609 37.098 27.6361C36.1548 27.6635 35.3357 28.1154 35.3011 28.6478C35.2522 30.4158 35.3951 32.1839 35.7287 33.9408C35.8498 34.4687 36.7377 34.8713 37.6809 34.8442C38.6241 34.8168 39.4432 34.3645 39.4783 33.8321Z" fill="#FFF61E"/>
<path d="M37.5791 34.8454C37.6098 34.8454 37.6409 34.8454 37.672 34.844C38.6329 34.8144 39.4435 34.3424 39.4789 33.7899C39.525 32.0491 39.3886 30.3084 39.0705 28.5786C38.9484 28.0296 38.0723 27.6077 37.1075 27.6361C36.1428 27.6645 35.336 28.1395 35.3006 28.6902C35.2541 30.4318 35.3905 32.1735 35.709 33.9042C35.8258 34.4327 36.6546 34.8454 37.5791 34.8454ZM39.2802 33.7857C39.2482 34.2758 38.5228 34.6953 37.6619 34.7211C36.8088 34.748 36.013 34.3723 35.9053 33.8861C35.5883 32.1617 35.4523 30.4264 35.4983 28.6911C35.5299 28.2023 36.2553 27.7824 37.1166 27.7563C37.9779 27.7303 38.7651 28.1051 38.8733 28.5913C39.1903 30.3155 39.3262 32.0506 39.2802 33.7857Z" fill="black"/>
<path d="M37.5344 34.8454C37.5653 34.8454 37.5962 34.8454 37.6275 34.8439C38.6125 34.8087 39.444 34.2208 39.481 33.5335C39.481 33.5301 39.481 33.5267 39.481 33.5232C39.516 31.9518 39.4125 30.3803 39.1711 28.8188C39.0424 28.127 38.1369 27.6042 37.1522 27.6362C36.1676 27.6682 35.3357 28.2592 35.2987 28.9465C35.2628 30.5213 35.3662 32.0963 35.6082 33.6613C35.7333 34.3311 36.586 34.8454 37.5344 34.8454ZM38.2893 33.5031C38.2728 33.7374 37.9392 33.9527 37.5703 33.9662C37.2015 33.9797 36.838 33.7858 36.7942 33.5523C36.5595 32.0315 36.459 30.5012 36.4933 28.9708C36.5055 28.7455 36.8413 28.5271 37.2123 28.5139C37.5833 28.5006 37.9446 28.6939 37.9884 28.928C38.2221 30.4467 38.322 31.9749 38.2875 33.5031H38.2893Z" fill="black"/>
<path d="M38.0912 26.7098C38.0912 26.7098 36.1425 18.8319 30.124 18.9834C25.2747 19.1053 21.721 22.7178 22.9514 27.0797C24.5352 32.6907 30.5675 33.4026 30.5675 33.4026" fill="black"/>
<g opacity="0.3">
<path d="M23.1856 26.3752C23.3491 22.8506 26.2871 20.1938 30.0757 20.0886C33.2015 20.0011 35.1464 22.5088 36.2532 24.7385C35.3748 22.4335 33.3977 18.7812 29.7129 18.8845C25.5684 19.0016 22.4834 22.2929 23.1856 26.3752Z" fill="white"/>
</g>
<path d="M29.0566 33.4026C29.185 33.4025 29.3092 33.3599 29.4075 33.2822C29.5059 33.2046 29.5721 33.0968 29.5945 32.9778C29.6169 32.8589 29.5942 32.7362 29.5303 32.6314C29.4664 32.5267 29.3653 32.4464 29.2449 32.4047C27.3506 31.7502 24.9057 30.3023 24.0141 27.1209C23.5419 25.4356 23.8588 23.7826 24.906 22.4662C26.1013 20.9638 28.0766 20.0694 30.3247 20.0121C34.3638 19.912 36.3617 24.1582 37.0308 25.9897C37.0798 26.1166 37.1797 26.2202 37.309 26.2784C37.4384 26.3365 37.5868 26.3445 37.7223 26.3006C37.8578 26.2567 37.9696 26.1645 38.0336 26.0438C38.0976 25.923 38.1087 25.7834 38.0645 25.655C37.3168 23.6097 35.0644 18.8614 30.2954 18.9835C27.7113 19.0489 25.428 20.0936 24.0309 21.8495C22.7803 23.4228 22.3979 25.3882 22.9571 27.384C24.0234 31.1855 27.1169 32.7676 28.8684 33.3716C28.9287 33.3922 28.9925 33.4027 29.0566 33.4026Z" fill="black"/>
<path d="M47.8005 65.1151C56.0532 64.8928 69.0596 63.1729 68.8604 49.5571C68.7321 40.7768 66.5253 29.8147 56.7375 22.6672C56.0897 22.3582 55.4394 21.9847 53.295 20.6324C51.074 19.2723 48.4337 17.993 45.4146 14.8663C42.7293 13.6161 42.0418 18.1937 43.7061 20.4907C41.1781 20.893 35.8752 15.5439 34.4327 18.1093C33.9492 18.9692 34.2751 21.1162 35.8096 22.4079C33.065 23.3706 31.1633 25.207 31.1633 25.207C25.9128 29.2959 25.0812 35.5115 23.7002 40.2543C22.7328 43.5762 20.9995 46.6883 21.3563 50.8786C22.2294 61.1388 37.136 65.4021 47.8005 65.1151Z" fill="white"/>
<g opacity="0.15">
<path d="M68.0769 52.6512C66.474 63.3347 55.0733 64.7828 47.6232 64.9839C37.6323 65.2542 23.8424 61.4371 21.8975 52.2917C26.7369 58.9625 38.5395 61.7843 47.4962 61.5417C54.3371 61.3563 64.2899 60.1885 68.0769 52.6512Z" fill="black"/>
</g>
<path d="M47.7787 53.2563C47.7787 53.2563 42.4641 52.0442 43.95 45.6086C45.4358 39.1729 46.8967 38.8718 50.0564 39.2987C53.2161 39.7255 57.8484 43.2165 59.3247 45.6312C60.801 48.0459 60.7244 52.1273 59.8169 53.5806C59.0715 54.7723 56.875 55.3444 53.767 54.8638C50.6591 54.3833 48.9308 53.7158 47.7787 53.2563Z" fill="#B3B3B3"/>
<path d="M31.5546 50.4069C31.5546 50.4069 35.0048 50.3474 35.2532 45.0999C35.5016 39.8524 34.6665 39.3764 32.6677 39.1837C30.6689 38.9909 27.2261 40.9352 25.8954 42.5672C24.5647 44.1991 23.8809 47.3824 24.1735 48.6622C24.4134 49.712 25.6475 50.5208 27.6243 50.6633C29.6011 50.8058 30.7715 50.5726 31.5546 50.4069Z" fill="#B3B3B3"/>
<path d="M57.6464 37.627C57.9684 37.0889 55.6533 30.9357 51.7398 32.1094C50.306 32.5396 50.5037 33.985 51.3122 34.4664C52.0817 34.9249 53.293 34.9387 54.2821 35.4542C56.2101 36.4596 57.3238 38.1647 57.6464 37.627Z" fill="black"/>
<path d="M28.3148 33.33C28.1145 33.005 30.3352 29.7373 33.1916 30.6904C34.238 31.0389 33.9773 31.8317 33.3308 32.0411C32.7155 32.2398 31.8023 32.1547 31.0173 32.3695C29.4868 32.785 28.5155 33.6549 28.3148 33.33Z" fill="black"/>
<path d="M45.858 47.6986C45.2713 45.6224 46.2104 43.5056 47.9555 42.9707C49.7007 42.4357 51.5911 43.6852 52.1778 45.7614C52.7645 47.8376 51.8254 49.9544 50.0802 50.4894C48.335 51.0243 46.4447 49.7749 45.858 47.6986Z" fill="black"/>
<path d="M48.5784 48.0769C48.1922 48.0769 47.8791 47.1084 47.8791 45.9137C47.8791 44.719 48.1922 43.7505 48.5784 43.7505C48.9646 43.7505 49.2777 44.719 49.2777 45.9137C49.2777 47.1084 48.9646 48.0769 48.5784 48.0769Z" fill="white"/>
<g opacity="0.35">
<path d="M49.6175 49.4824C49.3282 49.3555 49.2927 48.76 49.5383 48.1523C49.784 47.5446 50.2177 47.1549 50.507 47.2817C50.7964 47.4086 50.8319 48.0041 50.5863 48.6118C50.3406 49.2195 49.9069 49.6093 49.6175 49.4824Z" fill="white"/>
</g>
<path d="M30.8486 49.4693C29.1034 48.9343 28.1643 46.8175 28.751 44.7413C29.3378 42.6651 31.2281 41.4156 32.9733 41.9506C34.7184 42.4855 35.6576 44.6023 35.0708 46.6785C34.4841 48.7548 32.5938 50.0042 30.8486 49.4693Z" fill="black"/>
<g opacity="0.35">
<path d="M30.3513 47.5933C30.1057 46.9856 30.1411 46.3901 30.4305 46.2632C30.7199 46.1363 31.1536 46.5261 31.3992 47.1338C31.6449 47.7415 31.6094 48.337 31.32 48.4639C31.0306 48.5907 30.5969 48.201 30.3513 47.5933Z" fill="white"/>
</g>
<path d="M46.7375 65.1286C47.0784 65.1286 47.4176 65.1241 47.7553 65.1151C51.4693 65.0152 56.9213 64.621 61.3709 62.3631C66.4291 59.7963 68.9492 55.4164 68.8604 49.3445C68.6846 37.3216 64.6205 28.323 56.781 22.5937C56.7554 22.5753 56.7284 22.5592 56.7002 22.5456C56.108 22.263 55.5161 21.9278 53.384 20.5826C53.0105 20.3534 52.6382 20.1339 52.2428 19.9026C50.3374 18.781 48.1781 17.513 45.7693 15.0157C45.7253 14.9702 45.6737 14.9334 45.617 14.9071C44.606 14.436 43.6717 14.628 43.0524 15.4336C42.1771 16.5728 42.1185 18.6669 42.8091 20.2919C41.9714 20.0676 40.9144 19.4908 39.8828 18.9246C37.7269 17.7447 35.2835 16.4068 34.2201 18.299C33.6649 19.2863 33.9589 21.1921 35.0794 22.5694C32.8565 23.5204 31.3403 24.9125 31.1355 25.106C26.685 28.5852 25.4106 33.4874 24.2858 37.8131C24.0782 38.612 23.882 39.3664 23.6708 40.0919C23.4351 40.9016 23.1566 41.6861 22.8615 42.517C21.9889 44.973 21.0868 47.5125 21.3576 50.6933C21.7601 55.4283 25.0978 59.3294 31.0094 61.9757C35.4692 63.9715 41.2778 65.1286 46.7375 65.1286ZM47.7284 64.0509C37.7007 64.3185 23.206 60.3257 22.3785 50.5994C22.1283 47.6567 22.9901 45.2309 23.8231 42.8852C24.1103 42.0764 24.4076 41.2397 24.6522 40.3998C24.8681 39.6589 25.0658 38.8969 25.2755 38.0903C26.3587 33.9245 27.5865 29.2014 31.7715 25.9411C31.786 25.9301 31.7999 25.9181 31.8128 25.9052C31.8304 25.8883 33.6325 24.1713 36.174 23.2791C36.2608 23.2487 36.3382 23.1945 36.398 23.1223C36.4579 23.0502 36.498 22.9627 36.5142 22.8689C36.5304 22.7752 36.5221 22.6786 36.4901 22.5894C36.4581 22.5001 36.4037 22.4214 36.3325 22.3614C35.0029 21.2414 34.779 19.4161 35.1053 18.8364C35.6339 17.8975 37.2204 18.6708 39.4056 19.867C41.0504 20.7675 42.6049 21.6195 43.8142 21.425C43.9018 21.4112 43.9845 21.3739 44.0541 21.3169C44.1237 21.26 44.1779 21.1852 44.2113 21.0999C44.2447 21.0147 44.2563 20.9218 44.2449 20.8305C44.2335 20.7392 44.1994 20.6526 44.1461 20.579C43.1702 19.2312 43.1699 16.99 43.854 16.0982C44.1606 15.6992 44.5742 15.615 45.1164 15.8418C47.5952 18.3929 49.7955 19.6872 51.7386 20.829C52.1287 21.0581 52.4973 21.2747 52.8572 21.4955C54.9779 22.8334 55.613 23.1955 56.2289 23.4919C63.7606 29.0139 67.6653 37.7167 67.8352 49.3606C67.9176 54.9838 65.5911 59.0381 60.9207 61.4063C56.6505 63.5731 51.3463 63.9535 47.7284 64.0509Z" fill="black"/>
<path d="M58.0813 30.0569C54.3168 27.1661 54.5142 24.7478 55.448 23.1497C56.6277 21.1311 58.6901 18.8396 61.9338 18.988C66.5558 19.2009 69.8616 22.665 68.5872 26.7388C67.8256 29.1735 66.1727 30.5952 64.6212 31.4199C62.8782 32.3459 60.8713 32.199 58.0813 30.0569Z" fill="black"/>
<g opacity="0.3">
<path d="M55.4025 25.2429C56.5015 22.8938 58.5889 19.8989 62.0373 20.0778C65.6442 20.2635 68.4348 22.7329 68.7978 26.0075C69.3444 22.1099 66.39 18.9399 62.3762 18.7321C58.2153 18.5174 56.1301 23.1448 55.4025 25.2429Z" fill="white"/>
</g>
<path d="M55.4051 25.7654C56.7081 23.7852 57.8828 21.4962 60.2344 20.5096C62.4201 19.5792 65.3336 20.2443 67.122 21.6363C69.7224 23.693 69.6312 26.8226 67.8703 29.3381C66.8311 30.7985 65.2297 31.8424 63.4335 32.4051C62.7476 32.6417 63.0926 33.5774 63.7972 33.3738C65.7982 32.7509 67.638 31.5472 68.8029 29.898C69.9477 28.2368 70.594 26.1847 70.0918 24.2254C69.3859 21.2161 66.1807 19.197 62.9622 19.0094C61.1251 18.8354 59.2669 19.4765 57.9307 20.6321C56.4078 21.9537 55.2489 23.6967 54.8831 25.5877C54.8328 25.8706 55.2469 26.0088 55.4051 25.7654Z" fill="black"/>
<path d="M42.2855 51.4466C42.2855 51.4466 41.3278 55.2596 38.4445 55.0258C35.3648 54.7757 35.2923 50.7097 35.2923 50.7097L42.2855 51.4466Z" fill="black"/>
<path d="M39.3844 55.0361C42.5638 55.0361 43.6617 51.7242 43.6726 51.6897C43.6843 51.6532 43.6874 51.6147 43.6816 51.5769C43.6759 51.5391 43.6615 51.503 43.6394 51.4714C43.6174 51.4397 43.5883 51.4132 43.5542 51.3938C43.5201 51.3744 43.482 51.3627 43.4427 51.3594L35.5792 50.7107C35.5422 50.7076 35.505 50.7121 35.47 50.7238C35.4349 50.7356 35.4028 50.7544 35.3757 50.779C35.3487 50.8035 35.3273 50.8333 35.313 50.8664C35.2987 50.8995 35.2917 50.9352 35.2926 50.971C35.2926 51.0095 35.42 54.7945 39.0841 55.0278C39.186 55.0331 39.2866 55.0361 39.3844 55.0361ZM43.051 51.8402C42.7103 52.6318 41.5901 54.6717 39.1188 54.5178C36.4609 54.3486 35.9445 52.0658 35.8448 51.2459L43.051 51.8402Z" fill="black"/>
<path d="M41.9967 52.1853C41.9967 52.1853 42.9002 54.7398 41.5112 55.188C40.7592 55.4306 40.3369 54.9608 39.9653 56.3774C39.8066 56.983 39.8091 57.5887 39.1444 57.8242C38.7494 57.9642 37.467 58.1361 36.9862 56.8566C36.5976 55.8224 37.0049 54.9673 36.2619 54.7795C35.5189 54.5918 35.1745 53.7499 35.3282 52.8164C38.2563 51.9306 41.9967 52.1853 41.9967 52.1853Z" fill="#39D5FF"/>
<path d="M38.5382 57.9199C38.7591 57.9215 38.9789 57.8876 39.1898 57.8195C39.8156 57.6019 39.9294 57.0806 40.03 56.6206C40.0506 56.5262 40.0715 56.4303 40.0975 56.3341C40.3143 55.5212 40.4854 55.5079 40.8601 55.4785C41.0463 55.47 41.2309 55.4388 41.4101 55.3854C41.5635 55.3399 41.7058 55.2611 41.8276 55.1542C41.9495 55.0473 42.048 54.9149 42.1166 54.7656C42.546 53.8637 42.0238 52.3868 42.0015 52.3263L41.9539 52.1941L41.8189 52.185C41.6734 52.1752 38.2344 51.9565 35.4793 52.7762L35.3527 52.8136L35.3301 52.9479C35.1583 53.9683 35.5836 54.817 36.3648 55.0118C36.6146 55.0741 36.6497 55.2 36.6903 55.7115C36.7142 56.0151 36.7443 56.3926 36.8996 56.7994C37.2412 57.6963 37.9646 57.9199 38.5382 57.9199ZM41.6504 52.6121C41.7608 52.9724 42.0235 53.9764 41.7389 54.5711C41.6954 54.6668 41.6325 54.7517 41.5544 54.82C41.4763 54.8882 41.3849 54.9381 41.2865 54.9664C41.1371 55.01 40.9832 55.0354 40.8281 55.0419C40.3051 55.0828 39.9676 55.1818 39.6921 56.2159C39.6644 56.3187 39.6418 56.4216 39.6198 56.5223C39.5162 56.9963 39.4392 57.2713 39.0561 57.4042C39.0432 57.4088 37.7432 57.824 37.2895 56.6367C37.1571 56.2904 37.1311 55.963 37.1085 55.674C37.0714 55.2084 37.0336 54.7274 36.462 54.5854C35.9391 54.4553 35.6464 53.8767 35.7248 53.155C38.0815 52.4911 40.9847 52.581 41.6504 52.6121Z" fill="#3BB4FF"/>
<path d="M42.2701 51.4304C42.4367 53.087 41.2288 53.8312 39.939 53.5213C38.6492 53.2114 38.2875 51.6821 38.2638 51.1736C38.2638 51.1736 37.8481 53.9744 36.1818 52.959C35.4627 52.522 34.9915 51.3917 35.5152 50.3058C35.5152 50.3058 34.7839 47.5161 38.5064 47.8492C42.2288 48.1822 42.2701 51.4304 42.2701 51.4304Z" fill="white"/>
<g opacity="0.15">
<path d="M42.7522 51.9134C42.6539 53.1684 41.52 53.7155 40.3172 53.4497C38.9806 53.1536 38.5984 51.6878 38.5743 51.2013C38.5743 51.2013 38.1418 53.8831 36.4078 52.9103C35.8047 52.5728 35.3697 51.804 35.5094 50.9744C35.6533 51.1201 35.8156 51.2448 35.9916 51.3451C38.193 52.5782 38.7415 49.1753 38.7415 49.1753C38.7724 49.7918 39.2565 51.6531 40.9546 52.0283C41.6007 52.1709 42.2313 52.1293 42.7522 51.9134Z" fill="black"/>
</g>
<path d="M41.8985 51.6922C41.9235 52.5883 41.1814 53.0622 40.2636 52.957C39.4051 52.9166 38.8107 52.1981 38.6996 51.4674C38.6927 51.0897 38.0945 51.0482 38.0232 51.4174C37.9682 51.7377 37.8213 52.1222 37.5686 52.3485C37.2198 52.6635 36.6224 52.6383 36.2805 52.3215C35.8893 51.9495 35.8165 51.4312 35.9625 50.9083C36.0112 50.7504 35.7779 50.6395 35.6621 50.7619C35.32 51.1064 35.2042 51.6455 35.3612 52.1179C35.8321 53.5751 37.9864 53.6518 38.5329 52.1999C38.6257 51.9782 38.6814 51.7451 38.698 51.5084L38.0144 51.4999C38.0664 52.2895 38.5527 53.0715 39.3622 53.4085C40.3928 53.8391 41.9706 53.5261 42.2423 52.4057C42.2916 52.2128 42.3653 51.4676 42.0316 51.5378C41.9931 51.5456 41.9586 51.5651 41.934 51.5932C41.9094 51.6212 41.8962 51.6561 41.8966 51.692L41.8985 51.6922Z" fill="black"/>
<path d="M39.2484 49.3011C38.5304 50.0719 38.2857 50.9297 38.0914 51.7818C38.0294 52.2227 39.197 52.2911 39.2993 51.8504C39.2871 51.6298 39.2276 51.4033 39.2193 51.1749C39.181 50.5686 39.1786 49.9419 39.4805 49.3574C39.5289 49.2769 39.3201 49.226 39.2484 49.3011Z" fill="black"/>
<path d="M42.2845 48.7886C42.1431 50.2507 38.259 50.7058 38.259 50.7058C38.259 50.7058 35.0459 49.7295 35.3074 48.4208C35.4565 47.6742 38.537 47.8364 38.537 47.8364C38.537 47.8364 42.3569 48.0374 42.2845 48.7886Z" fill="black"/>
<g opacity="0.5">
<path d="M40.1422 47.8603C40.1156 48.2848 39.4165 48.4196 38.9104 48.3781C38.4043 48.3366 37.7292 48.0904 37.7557 47.666C37.7696 47.4481 38.9629 47.5453 38.9629 47.5453C38.9629 47.5453 40.1558 47.6425 40.1422 47.8603Z" fill="white"/>
</g>
<path d="M41.0563 53.5814C41.0563 53.5814 41.3867 53.6257 41.829 53.5482C42.2425 53.4761 42.6197 53.3226 42.9184 53.1051C43.1493 52.9394 43.3692 52.718 43.5526 52.4239C43.7011 52.1868 43.725 51.919 43.62 51.6701C43.3624 51.0381 42.384 50.5679 41.6965 50.7489C40.5907 51.0393 40.8718 51.8311 41.0805 52.5333C41.2076 52.9585 41.3071 53.3513 41.0563 53.5814Z" fill="#FF8080"/>
<g opacity="0.5">
<path d="M41.0684 53.5176C41.1486 53.5303 41.2298 53.5361 41.3109 53.535C41.3366 53.2531 41.2726 52.9056 41.1982 52.541C41.0069 51.6078 40.7489 50.5552 41.7626 50.1678C42.3497 49.9425 43.1675 50.4712 43.4675 51.2233C43.4571 51.1397 43.4408 51.0571 43.4187 50.9761C43.1827 50.1356 42.286 49.5104 41.656 49.7511C40.6426 50.1372 40.9003 51.1901 41.0916 52.124C41.2071 52.6893 41.2983 53.2116 41.0684 53.5176Z" fill="white"/>
</g>
<path d="M40.8872 53.5751C40.8872 53.5751 41.2388 53.6415 41.7096 53.5254C42.1497 53.4172 42.5512 53.1872 42.8691 52.8611C43.1149 52.6126 43.3489 52.2806 43.5441 51.8398C43.7022 51.4842 43.7276 51.0828 43.6158 50.7097C43.4149 51.308 43.0514 51.8344 42.4643 50.9209C42.4643 50.9209 42.7711 53.6418 40.9309 52.0191C40.9253 52.0136 40.9193 52.0085 40.913 52.0038C41.0483 52.6413 41.1541 53.2301 40.8872 53.5751Z" fill="#E85B5B"/>
<path d="M41.4489 53.5895C41.9121 53.5895 42.9552 53.4087 43.5547 51.894C43.8142 51.239 43.6785 50.4714 43.2006 49.8911C42.7678 49.3652 42.17 49.1401 41.7126 49.3295C40.6321 49.7788 40.8629 50.996 41.0312 51.8847C41.128 52.3949 41.2282 52.9243 41.0737 53.1481C41.0489 53.1839 41.0327 53.2263 41.0266 53.2713C41.0205 53.3162 41.0247 53.3622 41.0389 53.4047C41.053 53.4473 41.0766 53.485 41.1074 53.5142C41.1381 53.5435 41.175 53.5632 41.2144 53.5716C41.292 53.5846 41.3704 53.5905 41.4489 53.5895ZM42.0605 49.7916C42.3138 49.7916 42.6197 49.9615 42.859 50.2524C42.991 50.4118 43.4005 50.9896 43.1283 51.6775C42.6895 52.7859 41.9969 53.0206 41.6014 53.0582C41.6617 52.6877 41.5767 52.2396 41.4888 51.7734C41.2938 50.7431 41.222 50.098 41.8741 49.8282C41.9339 49.8037 41.9969 49.7913 42.0605 49.7916Z" fill="black"/>
<path d="M39.4877 55.0359C39.4877 55.0359 39.4695 57.9202 38.7534 57.9202C38.1075 57.9202 38.089 55.6838 38.089 55.6838C38.089 55.6838 38.9667 58.0692 39.4877 55.0359Z" fill="white"/>
<path d="M32.9632 48.0769C32.5769 48.0769 32.2638 47.1084 32.2638 45.9137C32.2638 44.719 32.5769 43.7505 32.9632 43.7505C33.3494 43.7505 33.6625 44.719 33.6625 45.9137C33.6625 47.1084 33.3494 48.0769 32.9632 48.0769Z" fill="white"/>
</svg>
