<svg width="157" height="176" viewBox="0 0 157 176" fill="none" xmlns="http://www.w3.org/2000/svg">
<path d="M8.39033 57.5523C8.65266 54.2317 9.12251 50.9275 9.95147 47.7039C11.2316 42.7409 13.6589 38.4427 17.1354 34.7496C19.6997 32.0285 22.5472 29.6953 25.5375 27.53C33.0091 22.1685 41.2603 18.1738 49.8214 14.8824C61.6062 10.4359 73.7622 7.89834 86.2978 7.16578C91.0166 6.91207 95.7872 6.66245 100.517 6.93167C106.077 7.26648 111.535 8.21978 116.696 10.2982C118.212 10.94 119.719 11.6855 121.166 12.5308C124.703 14.6896 127.335 17.7168 128.963 21.5522C130.548 25.2798 132.082 29.0033 133.075 32.9451C133.155 33.2647 133.234 33.5842 133.365 33.9078C135.72 39.7845 136.849 45.982 137.926 52.1754C139.441 60.7528 141.647 69.1759 143.749 77.5908C145.376 84.0887 146.895 90.6303 147.728 97.2743C148.262 101.754 148.536 106.213 148.231 110.731C147.988 114.471 147.226 118.17 145.905 121.668C142.594 130.543 137.544 138.288 130.271 144.449C127.303 146.981 124.058 149.074 120.442 150.564C118.66 151.31 116.831 152.001 115.001 152.692C108.545 155.106 102.098 157.415 95.6905 159.885C86.5423 163.339 77.2439 166.05 67.6124 167.691C63.8549 168.334 60.0305 168.501 56.191 168.198C50.847 167.776 46.0846 165.938 41.9163 162.528C35.6399 157.386 30.3713 151.384 26.4462 144.234C23.2529 138.396 20.8146 132.251 18.8597 125.936C14.3793 111.278 11.2761 96.3619 9.60701 81.142C8.96012 75.4524 8.47298 69.7233 8.35313 63.9709C8.31364 61.8273 8.37794 59.6918 8.39033 57.5523Z" fill="#2468FF"/>
<path fill-rule="evenodd" clip-rule="evenodd" d="M80.0312 149.389C79.5391 153.172 76.7877 154.937 73.2663 153.595C71.8104 153.045 70.9249 152.007 70.6099 150.483C70.2657 148.714 70.5467 146.995 71.4892 145.473C72.4837 143.907 73.9094 143.004 75.8284 143.204C77.6991 143.4 78.9094 144.609 79.4494 146.344C79.7082 147.066 79.8115 147.827 79.9109 148.565C79.9489 148.844 79.9861 149.12 80.0312 149.389ZM123.751 58.2271C123.743 58.323 123.72 58.6115 123.653 58.8479C123.3 59.6428 123.136 60.5002 123.064 61.4138C122.972 62.5672 121.895 63.3529 120.689 63.3062C120.16 63.2645 119.591 63.1224 119.174 62.8962C117.693 62.0535 116.323 61.0264 115.32 59.641C113.262 56.9145 114.602 52.8123 117.869 51.8608C119.605 51.3208 121.345 51.9423 122.485 53.4351C123.315 54.5647 123.884 56.5445 123.751 58.2271ZM106.162 31.6838C106.992 30.9756 107.356 30.037 107.406 29.4118C107.611 26.816 106.58 24.558 104.929 23.4116C102.865 21.9909 100.36 22.4702 98.9836 24.5865C97.0026 27.6225 98.6758 32.1569 102.124 33.203C103.447 33.5978 104.624 33.4005 105.584 32.2672C105.747 32.0383 105.955 31.8611 106.162 31.6838ZM33.7548 61.0823C33.8208 60.8615 33.8763 60.6346 33.9318 60.4082C34.0428 59.9544 34.1538 59.5011 34.347 59.0972C35.6284 56.3447 39.0019 55.8855 40.994 58.2195C42.0161 59.3647 42.3387 60.7925 42.4134 62.2983C42.427 62.7348 42.4855 63.2229 42.5951 63.667C43.1313 65.4505 42.3406 66.8879 40.517 67.3244C38.2449 67.9187 35.4003 66.5814 34.4059 64.4714C33.9087 63.4162 33.7081 62.2878 33.7548 61.0823ZM126.352 129.885L126.352 129.884C126.382 129.776 126.408 129.678 126.432 129.594C126.543 127.572 126.321 126.103 125.402 124.869C124.444 123.536 123.095 122.849 121.438 123.008C119.781 123.168 118.64 124.142 117.986 125.686C116.801 128.446 118.069 131.981 121.044 132.894C121.138 132.933 121.232 132.967 121.326 133.001C121.514 133.07 121.702 133.139 121.887 133.25C123.187 133.933 124.915 133.49 125.725 131.812C126.018 131.119 126.216 130.386 126.352 129.885ZM50.5568 40.6421C50.7125 38.671 51.8437 37.2124 53.5198 36.8128C55.0517 36.4019 56.5516 37.0038 57.5547 38.3893C58.6831 40.0264 59.0713 41.8467 58.8711 43.7657C58.7132 45.1561 57.8526 46.2492 56.9519 47.2421C56.3701 47.8732 55.5377 48.0012 54.6842 47.7886C54.2108 47.6541 53.7455 47.4242 53.3839 47.1053C51.7447 45.8147 50.3898 42.7569 50.5568 40.6421ZM128.755 95.2886L128.793 94.8076C128.916 92.6407 128.395 90.6648 126.571 89.263C125.341 88.295 123.963 87.9929 122.464 88.5997C121.013 89.2107 120.289 90.4113 120.123 91.8976C119.826 94.438 120.976 96.4151 122.984 97.9286C123.165 98.088 123.35 98.1992 123.586 98.2664C125.977 99.229 128.41 97.8252 128.755 95.2886ZM68.6226 40.3276C68.5612 40.1536 68.5149 39.9735 68.469 39.7945C68.3967 39.5131 68.3252 39.2349 68.1965 38.9883C67.6109 37.8294 67.1695 36.682 67.2281 35.3319C67.2938 33.8862 67.9098 32.8223 69.2606 32.2519C70.612 31.681 71.8428 32.0204 72.8796 32.9727C74.1018 34.0366 74.6164 35.4801 74.7795 37.0895C74.852 37.8048 74.8819 38.5166 74.9118 39.2285C74.9265 39.5841 74.9412 39.9403 74.9616 40.2964C75.0044 40.9769 74.8032 41.6867 74.2441 42.0294L74.1596 42.0812C73.27 42.6228 72.3327 43.1935 71.3788 43.3996C69.5589 43.7878 68.0461 42.1203 68.6226 40.3276ZM66.9398 72.6524C68.3513 71.313 69.2537 69.6912 69.3346 68.053C69.5158 66.3743 69.3591 65.2974 68.9465 64.3945C68.2801 63.0356 66.9836 62.3046 65.5743 62.3864C63.825 62.4899 62.1249 63.807 61.6515 65.5113C61.1113 67.4514 61.4513 69.268 62.5281 70.9496C62.6566 71.1529 62.7742 71.3428 62.8918 71.5333L62.8927 71.5349L62.8937 71.536C63.0112 71.7265 63.1288 71.9164 63.2574 72.1197C64.1087 73.5898 65.6877 73.8111 66.9398 72.6524ZM100.48 50.3419C97.314 50.6244 95.0546 46.7694 96.0633 43.8017C96.8817 41.3995 99.4281 40.391 101.656 41.583C103.883 42.7749 105.13 45.9688 104.215 48.3639C103.773 49.6832 102.516 50.8902 100.48 50.3419ZM32.3287 87.0903C33.2484 85.8568 33.7951 84.4491 33.8683 82.9069C33.9595 81.753 33.8028 80.6766 33.3018 79.6696C32.5508 78.1589 31.2137 77.3276 29.7046 77.4506C28.2475 77.5287 26.9547 78.5876 26.5811 80.2512C25.94 82.8611 26.7191 85.2444 28.2976 87.3039C29.3929 88.7452 31.2458 88.5527 32.3287 87.0903ZM107.856 76.3316C107.784 76.0497 107.712 75.7716 107.584 75.5249C106.961 74.2181 106.727 72.8933 107.082 71.4705C107.373 70.2358 108.122 69.327 109.402 69.0413C110.734 68.7111 111.805 69.2311 112.642 70.2647C113.387 71.2429 113.733 72.3828 113.93 73.5589C114.029 74.1473 114.175 74.7394 114.422 75.2909C114.94 76.6867 114.505 77.91 113.239 78.6322C112.987 78.7575 112.746 78.9075 112.504 79.0576C112.263 79.2077 112.021 79.3582 111.769 79.4835C110.81 79.9883 109.841 80.0083 108.922 79.4037C108.05 78.8023 107.73 77.9548 108.01 76.8643C107.948 76.6903 107.902 76.5102 107.856 76.3316ZM48.5763 141.632C47.2255 142.202 46.6534 143.318 46.5069 144.564C46.2916 146.675 47.5436 149.193 49.3042 150.783C51.1093 152.425 53.5885 151.654 54.0707 149.225C54.3022 148.131 54.349 146.925 54.2443 145.804C54.1143 144.391 53.488 143.132 52.3509 142.22C51.2138 141.308 49.9309 141.013 48.5763 141.632ZM87.5019 65.2312C87.4727 65.6001 87.4494 65.9689 87.4254 66.3377C87.3776 67.0758 87.3302 67.814 87.2398 68.5482C87.0261 70.0307 85.556 70.8825 84.1039 70.2838C83.4944 70.042 82.944 69.6602 82.4978 69.1895C81.4719 68.0925 80.7979 66.8301 80.3311 65.3904C79.9819 64.2988 79.9733 63.1856 80.4933 62.1141C81.0839 60.758 82.1137 59.9685 83.5745 59.8422C85.0837 59.7192 86.192 60.3873 86.9619 61.6577C87.5996 62.7721 87.7449 63.9927 87.5019 65.2312ZM37.1715 118.237C35.3364 118.818 34.0382 120.554 33.8787 122.573C33.723 124.544 34.6513 126.262 36.1961 126.916C37.8288 127.674 39.801 127.2 41.0683 125.85C42.4956 124.318 42.6866 121.286 41.4661 119.593C40.5074 118.259 38.8074 117.738 37.1715 118.237ZM84.8594 109.09C84.9239 108.272 85.1848 107.422 85.7222 106.739C87.2351 104.731 89.9903 104.754 91.4245 106.803C92.4683 108.288 92.6716 109.997 92.4828 111.772C92.4515 112.168 92.3392 112.559 92.227 112.949C92.1895 113.079 92.1521 113.209 92.1173 113.339C91.5251 115.324 89.6824 116.001 87.8795 114.94C86.0255 113.922 84.6847 111.301 84.8594 109.09ZM64.5254 125.717C64.4709 125.859 64.4153 126 64.3587 126.142C64.3966 127.499 64.89 128.602 65.9235 129.603C65.9893 129.669 66.0602 129.736 66.1316 129.804C66.3987 130.058 66.6809 130.325 66.8085 130.64C67.5117 132.147 69.7485 132.614 71.2826 130.945C72.9246 129.14 73.2083 126.164 71.8739 124.075C70.2375 121.527 67.0496 121.469 65.3544 123.947C64.9963 124.507 64.7619 125.109 64.5259 125.717L64.5254 125.717ZM40.41 99.2897C40.5944 97.5631 41.4371 96.0817 43.103 95.1974C45.3285 93.9704 47.9036 95.0446 48.5347 97.4647C49.3198 100.38 48.0421 103.085 44.5938 103.877C43.2621 104.207 42.0946 103.68 41.2645 102.55C40.5639 101.624 40.359 100.543 40.41 99.2897ZM63.8264 96.0373C63.7346 96.3005 63.6433 96.5637 63.5319 96.8112C63.4233 99.4146 66.0276 102.571 68.5751 102.772C70.1574 102.946 71.4985 101.891 71.5197 100.393C71.5441 99.4756 71.5198 98.5548 71.3999 97.6265C71.2254 96.1613 70.6512 94.8583 69.4659 93.9424C67.7822 92.6002 65.4814 92.9505 64.3681 94.7973C64.1283 95.1694 63.977 95.6039 63.8264 96.0373ZM86.9655 135.087C87.0947 133.452 88.0176 132.171 89.4058 131.748C90.7934 131.326 92.3009 131.832 93.2634 133.117C94.5728 134.914 94.8493 136.919 94.2462 139.048C93.9892 139.85 93.5033 140.489 92.8368 140.968C91.4112 141.871 89.7075 141.398 88.9039 139.932C88.6501 139.477 88.3476 139.017 88.0455 138.558L88.0456 138.558C87.2154 137.428 86.8668 136.337 86.9655 135.087ZM112.405 118.138C112.469 117.952 112.525 117.791 112.574 117.664C112.645 115.541 112.326 114.065 111.16 112.909C109.414 111.126 106.721 111.542 105.63 113.729C104.935 115.174 105.017 116.584 105.88 117.91C106.223 118.469 106.473 118.972 106.568 119.608C106.798 120.981 108.087 121.808 109.511 121.534C110.444 121.365 111.214 120.798 111.667 119.963C112 119.318 112.233 118.64 112.405 118.138ZM84.9311 90.4236C85.0033 89.5105 85.3162 88.6158 86.0093 87.7997C87.4918 86.1757 89.9065 86.2213 91.4155 87.9366C92.8361 89.5487 93.0562 92.2747 91.9429 94.1215C91.219 95.322 90.0682 95.8117 88.6893 95.5096C88.641 95.5058 88.6062 95.4905 88.5708 95.4757C88.536 95.4609 88.5006 95.4461 88.4529 95.4423C85.8392 94.849 84.7071 93.2596 84.9311 90.4236ZM56.2608 82.9342L56.5 79.9058C56.5722 78.9926 56.3786 77.7682 55.4932 76.7308C54.0319 75.0189 51.4946 75.3024 50.4697 77.2528C49.3341 79.3882 50.7341 83.7073 52.8727 84.7951C54.4539 85.5971 56.124 84.6651 56.2608 82.9342Z" fill="black"/>
<path d="M141.815 73.2729C142.092 72.855 142.303 72.3639 142.662 72.0307C143.572 71.189 144.475 70.3034 145.517 69.6428C146.962 68.7251 148.495 68.8303 149.834 69.941C151.143 71.0253 151.173 72.5188 150.778 73.9773C150.525 74.9126 150.087 75.8596 149.507 76.637C146.965 80.0508 144.366 83.4266 141.724 86.7615C141.168 87.463 140.391 88.0446 139.614 88.5123C137.948 89.5148 136.306 88.9273 135.544 87.159C135.456 86.9573 135.362 86.7527 135.32 86.5394C134.535 82.5206 133.623 78.5193 133.046 74.4713C132.846 73.0742 133.34 71.5134 133.784 70.1076C134.241 68.6666 135.544 68.1025 137.007 68.009C138.434 67.9184 139.54 68.5117 140.161 69.7977C140.65 70.8061 141.02 71.8729 141.441 72.9134C141.568 73.0303 141.691 73.1502 141.818 73.2671L141.815 73.2729ZM138.805 85.2387C139.476 84.7594 139.846 84.5373 140.17 84.2596C142.83 81.9711 145.261 79.4663 147.171 76.523C147.8 75.5556 148.209 74.4362 148.636 73.3548C148.766 73.0274 148.745 72.3669 148.56 72.2587C148.242 72.0775 147.671 72.0746 147.33 72.2441C146.679 72.5627 146.032 72.9777 145.534 73.495C144.649 74.4186 143.972 75.5527 143.027 76.4003C142.25 77.0988 141.212 77.5139 140.291 78.0546C139.964 77.3473 139.608 76.6487 139.32 75.9268C139.161 75.5234 139.149 75.0646 139.008 74.6525C138.675 73.685 138.325 72.7234 137.931 71.7823C137.839 71.5631 137.536 71.4286 137.33 71.2533C137.151 71.4637 136.865 71.6537 136.812 71.8934C136.695 72.4224 136.571 73.0011 136.662 73.5214C137.327 77.3239 138.042 81.1176 138.805 85.2417V85.2387Z" fill="black"/>
</svg>
