<svg width="20" height="20" viewBox="0 0 20 20" fill="none" xmlns="http://www.w3.org/2000/svg">
<path d="M7.49998 10.8334C6.94998 11.1084 6.49164 11.5167 6.14998 12.025C5.95831 12.3167 5.95831 12.6834 6.14998 12.975C6.49164 13.4834 6.94998 13.8917 7.49998 14.1667" stroke="#2468FF" stroke-width="2" stroke-linecap="round" stroke-linejoin="round"/>
<path d="M12.675 10.8334C13.225 11.1084 13.6833 11.5167 14.025 12.025C14.2167 12.3167 14.2167 12.6834 14.025 12.975C13.6833 13.4834 13.225 13.8917 12.675 14.1667" stroke="#2468FF" stroke-width="2" stroke-linecap="round" stroke-linejoin="round"/>
<path d="M7.50002 18.3333H12.5C16.6667 18.3333 18.3334 16.6666 18.3334 12.5V7.49996C18.3334 3.33329 16.6667 1.66663 12.5 1.66663H7.50002C3.33335 1.66663 1.66669 3.33329 1.66669 7.49996V12.5C1.66669 16.6666 3.33335 18.3333 7.50002 18.3333Z" stroke="#2468FF" stroke-width="2" stroke-linecap="round" stroke-linejoin="round"/>
<path d="M1.85834 6.67496L17.875 6.66663" stroke="#2468FF" stroke-width="2" stroke-linecap="round" stroke-linejoin="round"/>
</svg>
