<svg width="150" height="150" viewBox="0 0 150 150" fill="none" xmlns="http://www.w3.org/2000/svg">
<path d="M8.33301 8.33325H58.333V58.3333H8.33301V8.33325ZM91.6663 8.33325H141.666V58.3333H91.6663V8.33325ZM8.33301 91.6666H58.333V141.667H8.33301V91.6666ZM91.6663 116.667C91.6663 123.297 94.3003 129.656 98.9887 134.344C103.677 139.033 110.036 141.667 116.666 141.667C123.297 141.667 129.656 139.033 134.344 134.344C139.032 129.656 141.666 123.297 141.666 116.667C141.666 110.036 139.032 103.677 134.344 98.9889C129.656 94.3005 123.297 91.6666 116.666 91.6666C110.036 91.6666 103.677 94.3005 98.9887 98.9889C94.3003 103.677 91.6663 110.036 91.6663 116.667Z" stroke="black" stroke-width="16.6667" stroke-linecap="round" stroke-linejoin="round"/>
</svg>
