<svg width="180" height="180" viewBox="0 0 180 180" fill="none" xmlns="http://www.w3.org/2000/svg">
<path d="M104.434 171.417L108.95 163.783L98.2003 157.417L93.6753 165.05L104.434 171.417ZM71.0503 163.783L75.567 171.417L86.317 165.05L81.8087 157.417L71.0503 163.783ZM93.6753 165.05C93.2858 165.673 92.7442 166.188 92.1013 166.544C91.4584 166.9 90.7354 167.087 90.0003 167.087C89.2653 167.087 88.5423 166.9 87.8994 166.544C87.2565 166.188 86.7148 165.673 86.3253 165.05L75.567 171.417C82.0087 182.308 97.9837 182.308 104.434 171.417L93.6753 165.05ZM77.5003 12.9168H102.5V0.416752H77.5003V12.9168ZM167.084 77.5001V85.8334H179.584V77.5001H167.084ZM12.917 85.8334V77.5001H0.416992V85.8334H12.917ZM0.416992 85.8334C0.416992 95.4584 0.416992 102.983 0.833658 109.058C1.25033 115.183 2.10866 120.283 4.06699 125L15.617 120.217C14.392 117.283 13.6753 113.7 13.3003 108.208C12.917 102.658 12.917 95.6251 12.917 85.8334H0.416992ZM55.0253 142.017C44.5587 141.833 39.0753 141.167 34.7753 139.383L30.0003 150.933C36.7087 153.717 44.342 154.342 54.8087 154.525L55.0253 142.017ZM4.06699 125C6.47504 130.814 10.0047 136.096 14.4543 140.546C18.904 144.996 24.1865 148.525 30.0003 150.933L34.7753 139.383C26.0976 135.789 19.2116 128.894 15.617 120.217L4.06699 125ZM167.084 85.8334C167.084 95.6251 167.084 102.658 166.7 108.208C166.325 113.7 165.609 117.283 164.392 120.217L175.934 125C177.892 120.283 178.75 115.183 179.175 109.058C179.592 102.983 179.584 95.4584 179.584 85.8334H167.084ZM125.192 154.508C135.659 154.333 143.292 153.717 150 150.933L145.217 139.383C140.925 141.167 135.442 141.833 124.984 142.017L125.192 154.508ZM164.392 120.217C160.797 128.894 153.903 135.789 145.225 139.383L150 150.933C155.814 148.525 161.097 144.996 165.546 140.546C169.996 136.096 173.526 130.814 175.934 125L164.392 120.217ZM102.5 12.9168C116.259 12.9168 126.142 12.9168 133.85 13.6584C141.467 14.3834 146.309 15.7668 150.175 18.1334L156.7 7.47508C150.542 3.70842 143.559 2.02509 135.034 1.20842C126.6 0.408418 116.017 0.416752 102.5 0.416752V12.9168ZM179.584 77.5001C179.584 63.9834 179.584 53.4084 178.784 44.9668C177.975 36.4418 176.292 29.4501 172.525 23.3001L161.859 29.8251C164.234 33.6917 165.617 38.5334 166.342 46.1584C167.075 53.8584 167.084 63.7417 167.084 77.5001H179.584ZM150.167 18.1334C154.935 21.0526 158.944 25.059 161.867 29.8251L172.525 23.3001C168.573 16.8499 163.151 11.427 156.7 7.47508L150.167 18.1334ZM77.5003 0.416752C63.9837 0.416752 53.4087 0.416752 44.967 1.20842C36.442 2.02509 29.4503 3.70842 23.3003 7.47508L29.8253 18.1418C33.692 15.7668 38.5337 14.3834 46.1587 13.6584C53.8587 12.9251 63.742 12.9168 77.5003 12.9168V0.416752ZM12.917 77.5001C12.917 63.7417 12.917 53.8584 13.6587 46.1501C14.3837 38.5334 15.767 33.6917 18.1337 29.8251L7.47532 23.3084C3.70866 29.4584 2.02533 36.4418 1.20866 44.9668C0.416992 53.4168 0.416992 63.9834 0.416992 77.5001H12.917ZM23.3003 7.47508C16.8501 11.427 11.4272 16.8582 7.47532 23.3084L18.142 29.8251C21.0598 25.0609 25.0633 21.0546 29.8253 18.1334L23.3003 7.47508ZM81.8003 157.417C80.117 154.558 78.6337 152.033 77.1837 150.05C75.6922 147.875 73.7548 146.043 71.5003 144.675L65.217 155.483C65.6087 155.717 66.1503 156.133 67.0837 157.417C68.092 158.8 69.2337 160.717 71.0503 163.783L81.8003 157.417ZM54.8087 154.508C58.4753 154.575 60.7837 154.625 62.5503 154.817C64.2003 155 64.842 155.267 65.217 155.483L71.5003 144.675C69.1671 143.382 66.5843 142.604 63.9253 142.392C61.442 142.117 58.4587 142.075 55.0253 142.017L54.8087 154.508ZM108.95 163.783C110.767 160.725 111.909 158.8 112.917 157.417C113.85 156.133 114.392 155.717 114.784 155.483L108.5 144.675C106.084 146.092 104.334 147.967 102.817 150.05C101.375 152.033 99.8837 154.55 98.192 157.417L108.95 163.783ZM124.984 142.017C121.55 142.075 118.559 142.117 116.075 142.392C113.484 142.683 110.942 143.258 108.5 144.675L114.784 155.483C115.159 155.267 115.8 155 117.45 154.817C119.217 154.625 121.534 154.567 125.2 154.508L124.984 142.017Z" fill="black"/>
<path opacity="0.5" d="M56.667 81.6667H56.742M89.9253 81.6667H90.0003M123.259 81.6667H123.334" stroke="black" stroke-width="16.6667" stroke-linecap="round" stroke-linejoin="round"/>
</svg>
