<svg width="183" height="173" viewBox="0 0 183 173" fill="none" xmlns="http://www.w3.org/2000/svg">
<path d="M60.0555 82.8635C59.9902 91.4145 61.8654 98.6353 66.6764 104.887C73.6451 114.147 83.4286 118.9 96.0483 118.578C100.844 118.444 105.069 116.703 108.703 113.923C115.058 109.145 118.318 102.823 119.601 95.4363C119.753 94.7551 119.774 94.1854 119.673 93.4992C118.562 86.0654 117.321 78.7431 113.409 72.0525C108.057 63.395 99.781 58.7853 88.6901 58.6814C75.9572 58.6593 63.6545 67.426 60.7287 78.3155C60.283 80.1312 60.2154 81.9544 60.0555 82.8635ZM73.7582 83.9309C74.1954 82.3431 74.3849 80.6363 75.0698 79.1674C78.4775 72.2785 88.8007 69.2884 95.8422 73.1898C98.3153 74.4927 100.133 76.4669 101.308 78.7706C103.541 83.1476 104.88 87.8492 105.206 92.6449C105.373 94.9288 104.776 97.4257 103.688 99.5709C101.226 104.768 96.736 106.846 90.983 105.593C85.7297 104.464 81.2831 101.982 78.2858 97.8175C75.4102 93.77 74.0718 89.0684 73.7582 83.9309Z" fill="#2468FF"/>
<path d="M29.3886 93.8964C29.7191 98.5782 29.6674 103.366 30.2498 108.053C31.7377 118.915 37.5852 127.81 46.9147 134.607C58.9397 143.51 72.8765 148.459 88.6077 149.224C94.6465 149.571 100.484 148.545 106.108 146.489C111.349 144.539 116.356 142.129 120.888 138.911C135.912 128.145 146.742 114.903 150.035 97.5209C152.235 85.8189 151.91 74.1814 147.785 63.0394C144.793 55.3406 140.39 48.2982 134.697 42.0288C132.757 39.9381 130.175 38.1769 127.584 36.6436C120.299 32.5094 112.199 29.9557 104.091 27.6298C101.596 26.8966 98.6944 26.9536 96.0488 26.9017C79.1668 26.57 64.6015 31.7573 52.7139 42.9269C39.2552 55.6619 31.2594 70.6709 29.9696 88.4344C29.9019 90.2575 29.8342 92.0807 29.7665 93.9038C29.6405 93.9014 29.5146 93.8989 29.3886 93.8964ZM43.5073 93.9457C43.5575 79.0087 49.2136 65.8923 59.8499 54.4701C64.311 49.7685 69.3767 45.7629 75.7775 43.1519C90.4984 37.1694 104.436 38.6975 117.772 46.2575C119.871 47.439 121.572 49.1829 123.016 51.0357C125.425 54.0479 127.579 57.169 129.602 60.4016C135.08 69.0615 138.017 78.2417 137.133 88.487C135.389 108.294 124.395 122.56 105.994 132.575C103.806 133.786 101.504 134.653 99.085 135.29C96.4098 136.036 93.491 136.548 90.8411 136.61C77.1087 136.341 65.0405 131.998 54.8714 124.045C48.3804 118.9 44.59 112.326 44.0042 104.332C43.6272 100.904 43.6324 97.3691 43.5073 93.9457Z" fill="#C6FF00"/>
<path d="M180.064 79.8614C180.415 70.4038 179.322 62.5142 176.199 54.9268C174.113 49.9825 171.129 45.4767 167.115 41.5208C161.64 36.1679 156.174 30.587 150.83 25.1226C150.343 24.6569 149.986 24.0797 149.499 23.614C147.677 21.7538 145.993 19.5541 143.781 18.0282C132.599 10.1685 120.343 4.11216 105.909 2.34622C93.7354 0.852724 81.9512 2.44571 70.582 6.44149C61.5144 9.57024 53.0429 13.623 45.5285 19.0629C37.8839 24.6142 31.5955 30.9904 26.6464 38.6473C21.0124 47.7731 15.6261 57.0178 11.2308 66.738C5.04117 80.6422 2.23195 95.1829 2.3077 110.122C2.35662 115.596 3.54786 120.865 6.26784 125.708C9.45789 131.472 12.774 137.239 16.6108 142.56C24.5155 153.776 36.3604 160.736 49.806 165.334C68.9792 171.868 88.8594 172.943 108.947 168.434C113.142 167.49 117.351 166.204 121.194 164.569C138.876 156.935 153.279 145.929 162.942 130.154C172.874 113.929 178.552 96.8223 180.064 79.8614ZM166.089 79.3588C164.501 94.9498 159.26 110.469 150.273 125.002C142.9 136.83 132 145.168 119.03 151.527C115.179 153.39 110.958 155.018 106.636 155.959C88.5815 160.052 70.7129 159.131 53.5469 152.864C43.3473 149.128 34.3408 143.82 28.2329 135.148C25.0005 130.523 22.1588 125.564 19.3171 120.605C17.1889 116.8 16.3333 112.679 16.3639 108.46C16.5984 95.3511 19.0922 82.5147 24.7144 70.3098C28.6895 61.7216 33.538 53.3786 38.63 45.2684C42.6464 38.9616 47.7587 33.7026 53.9794 29.1495C60.2001 24.5965 67.1302 21.3117 74.543 18.6066C85.7904 14.4944 97.1841 13.2358 108.942 15.7474C114.195 16.8769 119.058 18.3408 122.82 22.2917C124.642 24.152 127.111 25.5689 129.328 26.9808C131.297 28.2738 133.27 29.4529 135.374 30.5205C138.586 32.2941 141.277 34.5135 143.704 37.0698C147.587 41.1372 151.593 45.321 155.737 49.1654C159.998 53.2402 162.722 57.969 164.291 63.2452C165.869 68.2935 166.313 73.3196 166.089 79.3588Z" fill="#3FE8BE"/>
<path d="M125.287 17.741C125.659 17.7922 126.251 17.9592 126.827 17.9351C127.525 17.9049 127.827 17.5343 127.452 17.071C126.172 15.4976 125.021 13.849 123.502 12.4009C121.901 10.8752 119.436 10.6545 116.955 10.9874C113.374 11.4674 110.542 12.8537 109.279 15.3075C107.892 17.9987 108.134 20.7219 110.871 23.0314C112.749 24.6166 115.198 25.5207 118.176 25.1132C121.788 24.6202 124.009 22.9484 124.92 20.4455C125.244 19.5569 125.182 18.595 125.29 17.7411L125.287 17.741ZM120.177 16.165C121.956 16.8381 122.61 18.4803 121.923 19.9628C121.064 21.8218 118.622 23.1684 116.507 22.9513C114.707 22.7674 112.751 21.6922 112.704 20.7407C114.902 21.9591 117.127 22.2763 119.336 20.9267C121.489 19.6115 121.806 18.0357 120.175 16.1666L120.177 16.165ZM118.127 18.1626C118.094 18.91 117.198 19.5508 116.203 19.5381C115.458 19.5285 114.587 18.9812 114.592 18.5254C114.599 18.0207 116.117 17.0662 116.883 17.0863C117.856 17.1105 118.158 17.373 118.124 18.1643L118.127 18.1626Z" fill="black"/>
<path d="M125.849 43.4983C125.867 41.8311 125.122 40.6673 123.229 40.0581C121.528 39.5097 119.876 39.5481 118.396 40.4833C117.425 41.0967 116.762 42.4264 117.325 43.1097C117.935 43.8492 118.384 44.5372 118.258 45.4229C118.237 45.5659 118.475 45.7814 118.665 45.8819C120.157 46.6699 121.788 46.8419 123.472 46.3272C125.218 45.7929 125.74 44.6454 125.848 43.5018L125.849 43.4983ZM118.472 43.8304C118.478 43.6629 118.493 43.4489 118.494 43.2346C118.492 42.4258 119.04 41.8767 119.957 41.5405C120.892 41.1977 121.677 41.512 122.399 41.9531C123.073 42.3655 123.293 43.1457 122.913 43.712C122.575 44.2151 121.835 44.3941 120.894 44.227C120.127 44.0893 119.353 43.9755 118.474 43.8321L118.472 43.8304Z" fill="black"/>
<path d="M130.086 53.0194C130.285 52.6457 130.423 52.2433 130.698 51.9055C131.2 51.2871 132.066 51.0621 132.898 51.2587C133.627 51.4309 133.809 51.8293 133.353 52.2958C133.221 52.4322 133.036 52.5418 132.858 52.6465C132.287 52.9837 132.065 53.3569 132.56 53.8507C133.119 54.4075 133.622 54.4912 134.367 54.1231C135.646 53.4908 136.197 52.3602 135.727 51.3246C135.296 50.3738 133.769 49.6298 132.457 49.731C131.012 49.8434 129.681 50.7527 129.53 51.8345C129.475 52.2367 129.697 52.6599 129.792 53.0737C129.888 53.055 129.986 53.0363 130.082 53.0176L130.086 53.0194Z" fill="black"/>
<path d="M118.02 18.1561C118.051 17.4181 117.778 17.1728 116.896 17.1492C116.201 17.1308 114.825 18.0239 114.821 18.4957C114.816 18.9217 115.604 19.4328 116.278 19.4413C117.179 19.4527 117.992 18.8531 118.022 18.1546L118.02 18.1561Z" fill="white"/>
</svg>
