<svg width="14" height="13" viewBox="0 0 14 13" fill="none" xmlns="http://www.w3.org/2000/svg">
<path d="M6.99967 12.3555C6.62592 12.3555 6.27384 12.1659 6.02467 11.8355L5.21217 10.7521C5.19592 10.7305 5.13092 10.7034 5.10384 10.698H4.83301C2.57426 10.698 1.17676 10.0859 1.17676 7.04171V4.33337C1.17676 1.93921 2.43884 0.677124 4.83301 0.677124H9.16634C11.5605 0.677124 12.8226 1.93921 12.8226 4.33337V7.04171C12.8226 9.43587 11.5605 10.698 9.16634 10.698H8.89551C8.85217 10.698 8.81426 10.7196 8.78717 10.7521L7.97467 11.8355C7.72551 12.1659 7.37342 12.3555 6.99967 12.3555ZM4.83301 1.48962C2.89384 1.48962 1.98926 2.39421 1.98926 4.33337V7.04171C1.98926 9.49004 2.82884 9.88546 4.83301 9.88546H5.10384C5.38009 9.88546 5.69426 10.0425 5.86217 10.2646L6.67467 11.348C6.86426 11.5971 7.13509 11.5971 7.32467 11.348L8.13717 10.2646C8.31592 10.0263 8.59759 9.88546 8.89551 9.88546H9.16634C11.1055 9.88546 12.0101 8.98087 12.0101 7.04171V4.33337C12.0101 2.39421 11.1055 1.48962 9.16634 1.48962H4.83301Z" fill="#A7A7A7"/>
<path d="M6.99967 6.49996C6.69634 6.49996 6.45801 6.25621 6.45801 5.95829C6.45801 5.66038 6.70176 5.41663 6.99967 5.41663C7.29759 5.41663 7.54134 5.66038 7.54134 5.95829C7.54134 6.25621 7.30301 6.49996 6.99967 6.49996Z" fill="#A7A7A7"/>
<path d="M9.16667 6.49996C8.86333 6.49996 8.625 6.25621 8.625 5.95829C8.625 5.66038 8.86875 5.41663 9.16667 5.41663C9.46458 5.41663 9.70833 5.66038 9.70833 5.95829C9.70833 6.25621 9.47 6.49996 9.16667 6.49996Z" fill="#A7A7A7"/>
<path d="M4.83366 6.49996C4.53033 6.49996 4.29199 6.25621 4.29199 5.95829C4.29199 5.66038 4.53574 5.41663 4.83366 5.41663C5.13158 5.41663 5.37533 5.66038 5.37533 5.95829C5.37533 6.25621 5.13699 6.49996 4.83366 6.49996Z" fill="#A7A7A7"/>
</svg>
