<svg width="21" height="21" viewBox="0 0 21 21" fill="none" xmlns="http://www.w3.org/2000/svg">
<path d="M2.62504 14.8751C2.625 14.8186 2.625 14.7603 2.625 14.7002V6.30017C2.625 5.32008 2.625 4.82967 2.81574 4.45532C2.98352 4.12604 3.25104 3.85852 3.58032 3.69074C3.95467 3.5 4.44508 3.5 5.42517 3.5H15.5752C16.5553 3.5 17.0451 3.5 17.4194 3.69074C17.7487 3.85852 18.0167 4.12604 18.1844 4.45532C18.375 4.8293 18.375 5.31912 18.375 6.2973V14.7027C18.375 15.1271 18.375 15.4594 18.3594 15.7302M2.62504 14.8751C2.62572 15.7399 2.6367 16.1926 2.81574 16.544C2.98352 16.8733 3.25104 17.1417 3.58032 17.3094C3.9543 17.5 4.44412 17.5 5.4223 17.5H15.5781C16.5563 17.5 17.0454 17.5 17.4194 17.3094C17.7487 17.1417 18.0167 16.8733 18.1844 16.544C18.2923 16.3322 18.3391 16.0836 18.3594 15.7302M2.62504 14.8751L6.79698 10.0078L6.79821 10.0065C7.16824 9.57477 7.35355 9.35857 7.57336 9.28064C7.76645 9.21219 7.97726 9.21378 8.16937 9.28491C8.38831 9.36597 8.57068 9.58464 8.93542 10.0223L11.2727 12.8271C11.6103 13.2322 11.7801 13.436 11.9863 13.5178C12.1682 13.5899 12.3687 13.598 12.5563 13.5427C12.7699 13.4796 12.9579 13.2916 13.3339 12.9156L13.7689 12.4807C14.1517 12.0979 14.3431 11.9066 14.5597 11.8441C14.75 11.7892 14.9534 11.801 15.1365 11.8766C15.3449 11.9627 15.5139 12.1733 15.8521 12.5961L18.3594 15.7302M18.3594 15.7302L18.375 15.7497M13.125 8.75C12.6418 8.75 12.25 8.35825 12.25 7.875C12.25 7.39175 12.6418 7 13.125 7C13.6082 7 14 7.39175 14 7.875C14 8.35825 13.6082 8.75 13.125 8.75Z" stroke="#525252" stroke-width="1.5" stroke-linecap="round" stroke-linejoin="round"/>
</svg>
