<svg width="17" height="19" viewBox="0 0 17 19" fill="none" xmlns="http://www.w3.org/2000/svg">
<g clip-path="url(#clip0_89_9574)">
<path d="M5.15728 10.8454V13.9553M12.1593 9.29043V13.9553M8.65836 6.18049V13.9553M15.6604 5.24751V13.3333C15.6604 14.6395 15.6604 15.2927 15.3742 15.7917C15.1224 16.2305 14.7207 16.5873 14.2267 16.8109C13.665 17.0652 12.9297 17.0652 11.4592 17.0652H5.85749C4.38692 17.0652 3.65163 17.0652 3.08995 16.8109C2.59588 16.5873 2.19419 16.2305 1.94244 15.7917C1.65625 15.2927 1.65625 14.6395 1.65625 13.3333V5.24751C1.65625 3.94124 1.65625 3.28809 1.94244 2.78916C2.19419 2.35028 2.59588 1.99347 3.08995 1.76985C3.65163 1.51563 4.38692 1.51562 5.85749 1.51562H11.4592C12.9297 1.51562 13.665 1.51563 14.2267 1.76985C14.7207 1.99347 15.1224 2.35028 15.3742 2.78916C15.6604 3.28809 15.6604 3.94124 15.6604 5.24751Z" stroke="#2468FF" stroke-width="2.2" stroke-linecap="round" stroke-linejoin="round"/>
</g>
<defs>
<clipPath id="clip0_89_9574">
<rect width="16.1468" height="17.9684" fill="white" transform="translate(0.450195 0.274414)"/>
</clipPath>
</defs>
</svg>
