<svg width="18" height="22" viewBox="0 0 18 22" fill="none" xmlns="http://www.w3.org/2000/svg">
<path d="M8.88376 5.43901C9.1181 4.99597 9.28087 4.48655 9.60551 4.1198C10.428 3.19303 11.2403 2.2232 12.2123 1.4638C13.5604 0.408947 15.0964 0.363509 16.5377 1.33768C17.9471 2.28856 18.1227 3.77203 17.8731 5.26211C17.7128 6.21768 17.3692 7.20306 16.8684 8.03355C14.6725 11.68 12.4173 15.294 10.1141 18.8717C9.62932 19.6243 8.91314 20.2792 8.18581 20.8207C6.62645 21.9815 4.93481 21.5577 4.00313 19.8725C3.89552 19.6805 3.78176 19.4861 3.71987 19.2778C2.54433 15.3552 1.2446 11.4626 0.274128 7.49047C-0.0618474 6.1197 0.277283 4.51802 0.581797 3.07541C0.89459 1.59674 2.13666 0.907668 3.58298 0.671346C4.99445 0.441391 6.15368 0.923501 6.89756 2.14252C7.48245 3.09819 7.95593 4.12355 8.47662 5.11784C8.614 5.22179 8.74874 5.32895 8.88612 5.43291L8.88376 5.43901ZM7.05985 17.6422C7.68061 17.0994 8.02785 16.842 8.32279 16.534C10.746 13.9959 12.9197 11.2651 14.532 8.14895C15.064 7.12449 15.3614 5.97039 15.6801 4.85237C15.7769 4.51391 15.6917 3.85856 15.4966 3.76909C15.1626 3.61988 14.5942 3.67289 14.2711 3.87503C13.6551 4.25577 13.0514 4.73222 12.6072 5.29577C11.8162 6.30168 11.2537 7.49655 10.3966 8.4326C9.6919 9.20387 8.6988 9.71865 7.83513 10.347C7.44079 9.67506 7.018 9.01474 6.6603 8.32453C6.46265 7.93869 6.40601 7.48318 6.22508 7.08688C5.7994 6.15666 5.35672 5.23399 4.87212 4.336C4.75986 4.12679 4.44504 4.02267 4.22287 3.86832C4.06484 4.09533 3.79938 4.31236 3.77014 4.55606C3.70481 5.09407 3.63849 5.6821 3.78023 6.19092C4.81451 9.91003 5.89773 13.6155 7.06014 17.6451L7.05985 17.6422Z" fill="#3FE8BE"/>
</svg>
