<svg width="173" height="399" viewBox="0 0 173 399" fill="none" xmlns="http://www.w3.org/2000/svg">
<path d="M-152.958 158.222C-147.033 146.964 -141.147 135.78 -135.115 124.676C-130.681 116.513 -125.879 108.551 -120.161 101.181C-110.245 88.187 -98.2345 77.4733 -84.2096 69.1875C-70.0312 60.7946 -54.6661 54.9509 -38.5558 51.4168C-22.9725 47.977 -7.4501 48.5051 8.13713 51.5441C24.2454 54.6757 39.0899 60.8351 53.11 69.2132C66.3211 77.152 77.0792 87.8534 86.7841 99.792C92.8612 107.189 96.6895 115.745 99.2966 124.97C104.935 145.271 103.506 165.257 96.694 184.985C93.5375 194.128 90.4143 203.384 86.9229 212.439C83.4381 221.308 79.5861 229.977 75.8073 238.686C73.5722 243.852 71.2631 248.979 68.8807 254.067C62.4194 267.89 54.815 281.187 46.5878 294.052C40.9725 302.81 34.7017 311.023 28.2442 319.229C25.5447 322.62 23.0265 326.204 20.4734 329.675C20.0406 330.297 19.5745 330.805 19.0676 331.387C17.5017 333.393 15.3793 334.145 12.8412 333.909C8.5121 333.462 4.38857 332.461 0.479179 330.718C-6.23819 327.831 -12.9617 325.129 -19.3934 321.542C-20.7169 320.822 -22.0864 320.363 -23.4503 319.718C-26.6192 318.187 -27.8523 315.898 -27.2834 312.398C-26.7946 309.044 -25.6377 305.863 -24.0401 302.922C-21.0844 297.48 -17.9413 292.044 -14.6909 286.762C-5.69262 272.127 2.53667 256.978 10.3989 241.63C14.7322 233.127 19.0989 224.737 23.0255 216.108C28.9278 203.314 34.0142 190.269 36.8831 176.398C38.3076 169.743 38.9839 163.063 38.5786 156.271C38.0766 147.904 35.5254 140.327 30.8188 133.389C25.8571 126.218 19.6952 120.204 12.561 115.28C7.5859 111.816 2.48462 108.759 -3.20968 106.618C-6.46438 105.421 -9.87907 104.519 -13.3927 104.325C-32.2352 103.422 -49.8882 107.165 -65.7863 117.672C-72.7979 122.339 -78.7656 128.24 -84.2978 134.568C-94.2765 146.099 -104.075 157.824 -113.07 170.175C-124.778 186.292 -134.794 203.327 -142.717 221.594C-145.032 226.908 -147.381 232.108 -149.917 237.302C-151.002 239.474 -152.268 241.454 -153.573 243.506C-154.086 244.275 -154.673 245.004 -155.406 245.653C-156.793 246.805 -158.067 247.922 -158.732 249.847C-159.357 251.698 -161.252 252.383 -163.189 252.092C-167.886 251.445 -172.576 250.612 -176.595 247.667C-178.24 246.487 -180.085 245.676 -181.85 244.717C-182.585 244.317 -183.394 243.878 -184.129 243.478C-186.991 241.733 -188.404 239.251 -187.729 235.904C-187.1 232.817 -186.47 229.73 -185.36 226.81C-182.973 220.487 -180.439 214.245 -177.645 208.049C-174.85 201.853 -171.868 195.663 -168.78 189.627C-163.521 179.245 -158.189 168.904 -152.857 158.562C-152.884 158.262 -152.958 158.222 -152.958 158.222Z" fill="#C6FF00"/>
<path d="M-141.763 254.897C-141.81 255.158 -141.89 255.305 -141.895 255.492C-142.785 258.532 -144.734 259.665 -147.86 259.109C-152.177 258.288 -156.166 256.692 -160.19 254.982C-162.035 254.171 -163.84 253.286 -165.685 252.474C-168.599 251.176 -169.718 248.854 -169.837 245.742C-170.066 240.379 -168.773 235.368 -166.55 230.575C-163.929 225.047 -161.119 219.525 -158.31 214.004C-154.969 207.152 -151.554 200.341 -148.287 193.449C-144.892 186.149 -141.759 178.804 -138.292 171.545C-130.632 155.516 -121.507 140.472 -109.488 127.288C-95.9151 112.471 -80.2267 100.422 -61.8204 92.1351C-36.2595 80.4966 -10.0132 79.5169 16.4257 89.4033C30.1798 94.5894 42.5758 102.276 53.6661 112.015C58.0674 115.834 61.6552 120.45 64.3224 125.708C73.1011 142.858 73.5594 149.203 72.1927 166.27C71.2645 178.146 68.179 189.613 64.7979 200.919C61.4579 212.152 56.7539 222.74 51.2349 233.075C44.9568 244.807 38.6047 256.5 31.9588 268.032C23.2824 283.128 13.4682 297.512 2.63173 311.148C-0.18756 314.76 -3.22697 318.251 -6.26638 321.743C-6.96681 322.505 -7.78009 323.302 -8.58694 323.91C-10.895 325.704 -13.4925 326.103 -16.1863 324.926C-19.0666 323.741 -21.9137 322.671 -24.595 321.12C-29.6284 318.29 -34.5094 315.353 -39.3839 312.229C-42.0579 310.49 -44.6134 308.53 -47.1676 306.571C-50.3444 304.178 -51.0773 301.495 -49.3462 297.959C-48.2155 295.526 -46.937 293.173 -45.5108 290.9C-41.2749 284.153 -37.1122 277.367 -32.5815 270.781C-29.9432 266.976 -26.9038 263.484 -23.9376 259.953C-20.2319 255.585 -16.9672 250.978 -14.2505 245.977C-9.82253 238.001 -5.61551 229.906 -1.37471 221.924C0.622783 218.247 1.91825 214.285 3.10065 210.355C4.73496 205.243 6.58956 200.251 8.22389 195.139C10.0314 189.358 11.6508 183.571 13.4178 177.864C14.686 173.601 16.2148 169.384 17.3361 165.041C19.4402 157.136 18.4252 149.537 14.7794 142.223C12.5339 137.766 9.23601 134.545 4.89138 132.375C0.17882 130.005 -4.75314 128.565 -10.137 128.307C-14.5118 128.121 -18.8067 127.787 -23.1023 127.454C-27.7709 127.108 -32.4328 127.624 -36.9988 128.667C-46.319 130.746 -55.2637 133.887 -63.8659 137.976C-72.2009 141.924 -78.8831 147.913 -84.849 154.863C-92.8812 164.214 -99.4093 174.478 -104.987 185.447C-111.651 198.589 -117.685 211.977 -123.466 225.599C-126.559 232.871 -129.873 240.023 -133.113 247.215C-134.777 250.978 -137.377 253.661 -141.53 254.644C-141.496 254.757 -141.536 254.83 -141.763 254.897Z" fill="#3FE8BE"/>
<path d="M-31.4675 247.87C-25.5558 236.987 -19.423 226.223 -13.8041 215.179C-7.91307 203.809 -2.87012 192.072 1.24956 179.929C2.74542 175.598 3.97972 171.222 5.21487 166.845C6.28347 162.949 6.53035 158.988 5.92257 154.848C5.46254 151.837 4.31629 149.214 2.33516 146.9C-2.13449 141.804 -7.52369 138.401 -14.2524 136.937C-23.8463 134.962 -33.2418 135.953 -42.5206 139.008C-53.6547 142.674 -62.9404 149.249 -70.9744 157.551C-77.3018 164.114 -82.385 171.543 -86.9203 179.365C-95.9967 195.196 -104.224 211.394 -111.79 227.95C-114.538 233.886 -117.546 239.775 -120.295 245.711C-121.506 248.291 -122.684 250.984 -123.748 253.645C-124.486 255.529 -125.037 257.42 -125.702 259.345C-126.692 262.045 -128.787 263.097 -131.607 262.327C-132.423 262.075 -133.238 261.823 -134.087 261.457C-135.751 260.838 -137.455 260.293 -139.286 260.156C-142.084 259.874 -144.745 258.81 -147.205 257.378C-149.484 256.14 -150.423 254.011 -150.073 251.439C-149.835 249.949 -149.411 248.465 -148.986 246.982C-145.971 236.524 -142.662 226.226 -138.612 216.141C-135.826 209.083 -132.705 202.111 -129.585 195.14C-125.419 186.069 -120.96 177.159 -115.838 168.608C-106.787 153.525 -95.2683 140.735 -80.6645 130.858C-67.5158 121.906 -53.3949 115.197 -37.6441 112.325C-33.7644 111.67 -29.8516 111.129 -25.8777 111.002C-20.1409 110.785 -14.4107 110.755 -8.61273 110.952C-0.383575 111.232 7.60079 113.189 15.1333 116.329C26.7696 121.031 33.651 130.102 36.7638 142.079C38.021 146.952 38.1901 151.901 37.7973 156.831C37.137 165.234 35.141 173.292 32.6565 181.372C25.6296 204.125 15.7611 225.621 3.75328 246.146C-1.73344 255.547 -7.88242 264.587 -13.6638 273.827C-17.5875 280.172 -21.4034 286.671 -25.1793 293.096C-27.4433 296.913 -29.4135 300.891 -31.5647 304.674C-32.0436 305.557 -32.5239 306.439 -33.1498 307.242C-35.1153 309.984 -37.6522 310.796 -40.7138 309.419C-45.1777 307.47 -49.5627 305.373 -53.9819 303.163C-58.2868 300.92 -59.2214 297.555 -56.8639 293.217C-54.8666 289.54 -52.7615 286.017 -50.691 282.379C-44.1588 270.88 -37.74 259.415 -31.2077 247.916C-31.3943 247.909 -31.3943 247.909 -31.4675 247.87Z" fill="#2468FF"/>
<path d="M77.2087 258.145C75.3493 260.059 73.91 261.702 72.3326 263.315C71.9666 263.67 71.5709 264.163 71.205 264.518C70.5572 265.174 69.6925 265.494 68.7844 265.009C67.8763 264.524 67.7787 263.635 68.0416 262.751C68.8302 260.1 69.7029 257.395 70.4915 254.744C70.6947 254.137 70.814 253.584 71.0226 252.616C68.9328 253.25 67.095 253.722 65.2572 254.194C63.7257 254.587 62.1644 255.118 60.6086 255.289C59.996 255.446 59.0581 255.1 58.7029 254.734C58.0767 253.948 58.6703 253.208 59.2883 252.69C61.0284 251.329 62.9068 249.998 64.647 248.637C65.7691 247.794 66.8913 246.951 68.2953 245.807C67.417 245.184 66.8694 244.704 66.2378 244.278C64.427 242.947 62.5322 241.671 60.7757 240.424C60.144 239.999 59.5965 239.519 59.1329 238.985C58.3685 238.169 57.7179 237.161 58.2626 235.976C58.6935 234.984 59.8645 234.585 61.4394 234.997C64.0362 235.702 66.465 236.515 69.0321 237.358C69.7775 237.591 70.5229 237.824 71.4066 238.087C71.1083 235.78 70.81 233.473 70.6201 231.335C70.376 229.112 70.8909 228.066 72.1161 227.751C73.3413 227.437 74.4419 228.036 75.4124 229.909C76.4914 231.95 77.4863 234.045 78.5653 236.086C79.0234 236.98 79.6496 237.766 80.3545 238.859C81.5064 237.877 82.5147 237.227 83.4146 236.408C84.8783 234.988 86.2037 233.537 87.6673 232.117C88.2013 231.653 88.7353 231.19 89.3234 230.81C90.2179 230.352 91.191 230.2 92.0395 230.962C92.8338 231.64 92.9314 232.529 92.5303 233.383C91.7471 235.673 90.8012 237.712 89.9935 239.78C89.5924 240.634 89.1913 241.488 89.1453 242.707C91.2108 241.851 93.138 240.964 95.2034 240.107C96.0681 239.788 96.9625 239.329 97.8814 239.093C99.1906 238.725 100.129 239.072 100.587 239.966C101.015 240.999 100.614 241.853 99.8821 242.563C97.9441 244.171 96.0359 245.64 94.0437 247.163C93.5938 247.573 93.0056 247.952 92.2494 248.44C92.9352 248.95 93.5126 249.291 94.0899 249.633C95.5754 250.459 97.0609 251.286 98.4624 252.167C100.195 253.191 100.737 254.032 100.276 255.162C99.845 256.154 98.8963 256.528 96.9311 256.249C95.1041 256 93.2772 255.751 91.4502 255.501C90.1219 255.287 88.7639 255.212 87.2134 255.022C87.0102 255.629 86.8069 256.236 86.7419 256.873C85.918 260.023 85.1484 263.257 84.3246 266.407C84.0319 267.429 83.5766 268.198 82.411 268.237C81.2455 268.275 80.7575 267.518 80.3834 266.57C79.3694 263.892 78.3555 261.214 77.2087 258.145Z" fill="black"/>
<path d="M72.0849 99.3427C71.6503 99.3473 70.9246 99.5791 70.462 99.2931C69.9995 99.007 69.7255 98.2249 69.5055 97.6182C69.376 97.2617 69.4452 96.8098 69.5252 96.4298C71.1304 88.8723 72.75 81.3186 74.3767 73.7669C74.6881 72.3247 75.6015 71.8339 77.0502 72.0353C79.2855 72.3465 80.7048 73.6572 80.2644 75.8526C78.6954 83.6954 76.9819 91.5067 72.9873 98.2941C72.8003 98.6184 72.4986 98.8656 72.0819 99.3381L72.0849 99.3427Z" fill="black"/>
<path d="M78.9605 105.624C84.5677 102.755 91.0212 101.268 97.7513 100.681C99.771 100.506 101.024 101.818 101.376 104.025C101.736 106.306 100.998 107.446 98.8633 107.753C92.2462 108.696 85.6356 109.648 78.9932 110.472C78.3227 110.554 77.0348 109.9 76.8333 109.338C76.5747 108.627 77.0167 107.599 77.3718 106.827C77.5801 106.379 78.2109 106.164 78.9605 105.624Z" fill="black"/>
<path d="M55.8718 145.5C54.5748 145.201 53.1254 145.197 52.0733 144.518C51.3796 144.073 50.8046 142.551 50.9568 141.696C51.845 136.757 52.9242 131.863 54.0416 126.979C54.3123 125.777 54.8257 124.601 55.4435 123.547C56.3438 121.999 57.7979 122.021 58.6664 123.657C59.2418 124.739 59.729 126.134 59.5861 127.274C58.9168 132.593 58.0382 137.877 57.1566 143.157C57.0431 143.852 56.4653 144.448 55.8749 145.505L55.8718 145.5Z" fill="black"/>
<path d="M47.5703 112.78C46.3573 113.287 45.1811 114.125 43.9321 114.242C38.399 114.771 32.8528 115.138 27.2995 115.463C24.8849 115.605 23.6499 114.521 23.4413 112.407C23.2606 110.61 24.2003 109.446 26.569 109.091C32.6233 108.187 38.6357 108.634 44.5396 110.278C45.6384 110.585 46.5841 111.423 47.6015 112.019C47.5951 112.272 47.5812 112.523 47.5749 112.777L47.5703 112.78Z" fill="black"/>
<path d="M81.0446 126.958C82.4793 129.915 84.0109 132.815 85.3222 135.832C86.3777 138.258 84.9954 140.491 82.145 141.307C80.7662 141.701 79.573 141.639 79.0105 140.343C77.0639 135.849 75.1358 131.349 73.221 126.847C73.0156 126.357 72.9284 125.809 72.8123 125.274C72.5279 124.009 72.4916 122.705 74.0423 121.901C75.5616 121.118 76.9214 121.53 77.7639 122.607C78.8721 124.027 79.752 125.619 80.7333 127.14C80.8353 127.081 80.9373 127.021 81.0394 126.962L81.0446 126.958Z" fill="black"/>
<path d="M46.8763 93.5928C45.073 89.7129 43.2442 85.8429 41.4798 81.9444C41.0874 81.0797 40.8358 80.1176 40.6771 79.1811C40.3911 77.485 40.965 76.1349 42.6533 75.6834C44.2997 75.2457 45.9685 75.701 46.6006 77.4106C48.3169 82.0634 49.8071 86.7898 51.3721 91.4941C51.459 91.7471 51.4439 92.0396 51.4409 92.3111C51.4093 93.7913 51.3103 95.532 49.646 95.7248C48.7516 95.8284 47.6731 94.6108 46.68 93.9891C46.7459 93.8545 46.8118 93.7199 46.8777 93.5853L46.8763 93.5928Z" fill="black"/>
</svg>
