<svg width="29" height="28" viewBox="0 0 29 28" fill="none" xmlns="http://www.w3.org/2000/svg">
<path d="M12.3258 12.0173L11.8894 12.0559C11.8768 11.9134 11.8628 11.7695 11.8487 11.625C11.8189 11.3183 11.7888 11.0087 11.7713 10.7046L11.7713 10.7039C11.7463 10.2584 11.7289 9.82091 11.7116 9.38834C11.6775 8.53197 11.6442 7.69477 11.5544 6.85204C11.4341 5.73656 10.9814 4.7671 10.1901 3.99969L12.3258 12.0173ZM12.3258 12.0173L12.4277 12.5107C13.4911 12.4207 14.1758 11.9093 14.7977 11.3626L12.3258 12.0173ZM18.8291 8.10618C17.4462 9.14106 16.0947 10.2239 14.798 11.3624L18.8291 8.10618ZM18.8291 8.10618C19.568 7.55364 20.4377 7.2438 21.3554 7.19938C21.902 7.17352 22.0102 7.29348 22.0238 7.31324C22.0529 7.35531 22.1179 7.54318 21.9439 8.10471L18.8291 8.10618ZM8.48016 20.5098L8.48063 20.5094C10.1784 19.3436 11.8694 18.1786 13.5324 16.9744L8.48016 20.5098ZM8.48016 20.5098C8.35264 20.5975 8.2053 20.6728 8.02061 20.7573M8.48016 20.5098L8.02061 20.7573M7.72136 4.04339L7.72085 4.04394C7.38429 4.40575 7.121 4.93641 6.95753 5.47029L7.72136 4.04339ZM7.72136 4.04339C8.1355 3.59684 8.55826 3.41936 8.94265 3.41573M7.72136 4.04339L8.94265 3.41573M8.02061 20.7573C8.02004 20.7576 8.01948 20.7578 8.01891 20.7581M8.02061 20.7573L8.01891 20.7581M8.01891 20.7581C7.94699 17.7394 7.50594 14.7816 7.06943 11.8543C7.04324 11.6787 7.01706 11.5031 6.99098 11.3276C6.98058 11.2575 6.97016 11.1874 6.95976 11.1175C6.66884 9.16193 6.39386 7.31348 6.95749 5.47043L8.01891 20.7581ZM8.94265 3.41573C9.33066 3.41207 9.76223 3.58487 10.1901 3.99965L8.94265 3.41573ZM21.9438 8.1052C21.5984 9.21529 20.9203 10.1435 20.1209 11.063L21.9438 8.1052ZM20.1208 11.0632C18.1701 13.3046 15.935 15.2334 13.5325 16.9743L20.1208 11.0632Z" stroke="black"/>
<path d="M18.2882 20.9122C19.5485 20.6198 20.7328 21.0152 21.9883 21.3248C22.0897 20.697 22.1782 20.084 22.29 19.477C22.3642 19.0779 22.4531 18.6779 22.5714 18.2893C22.6792 17.938 22.9433 17.8055 23.3092 17.8844C23.6678 17.9614 23.9924 18.0878 23.991 18.518C23.9902 18.8748 23.9582 19.2332 23.9072 19.5876C23.8264 20.1529 23.7464 20.7223 23.6115 21.2785C23.5154 21.6767 23.67 21.8606 24.0126 21.9707C24.901 22.2575 25.7919 22.5383 26.6771 22.8329C27.0654 22.9614 27.4551 23.0922 27.8236 23.2634C28.3153 23.4921 28.3906 23.7291 28.2117 24.2539C28.0787 24.6435 27.7025 24.8837 27.272 24.7959C26.8557 24.7117 26.4416 24.5965 26.0429 24.4501C25.2907 24.1744 24.5431 23.8828 23.81 23.5634C23.4576 23.4097 23.3375 23.5115 23.2806 23.853C23.184 24.4333 23.0905 25.0164 22.9511 25.5886C22.8121 26.1591 22.6382 26.7243 22.4377 27.278C22.3821 27.4307 22.173 27.5316 22.0353 27.6556C21.9463 27.5114 21.8071 27.3783 21.7789 27.223C21.7113 26.8429 21.6497 26.4519 21.6663 26.0667C21.7095 25.1069 21.7863 24.1472 21.8768 23.1901C21.9031 22.92 21.7952 22.8226 21.5729 22.7253C20.6752 22.3321 19.7828 21.9268 18.8964 21.5107C18.6563 21.3983 18.443 21.2317 18.2179 21.0898C18.2404 21.0307 18.2633 20.9698 18.2858 20.9106L18.2882 20.9122Z" fill="black"/>
</svg>
