<svg width="36" height="23" viewBox="0 0 36 23" fill="none" xmlns="http://www.w3.org/2000/svg">
<rect width="36" height="23" rx="7" fill="#D8727D" fill-opacity="0.21"/>
<path d="M6.768 15V6.6H8.148V10.128H12.048V6.6H13.428V15H12.048V11.352H8.148V15H6.768ZM16.0514 7.776C15.8994 7.92 15.7114 7.992 15.4874 7.992C15.2634 7.992 15.0754 7.92 14.9234 7.776C14.7714 7.624 14.6954 7.436 14.6954 7.212C14.6954 6.988 14.7714 6.804 14.9234 6.66C15.0754 6.508 15.2634 6.432 15.4874 6.432C15.7114 6.432 15.8994 6.508 16.0514 6.66C16.2034 6.804 16.2794 6.988 16.2794 7.212C16.2794 7.436 16.2034 7.624 16.0514 7.776ZM14.8274 15V8.856H16.1234V15H14.8274ZM22.0858 9.816L22.2298 8.856H23.3578V14.748C23.3578 15.612 23.1018 16.28 22.5898 16.752C22.0778 17.232 21.2858 17.472 20.2138 17.472C19.3818 17.472 18.7058 17.284 18.1858 16.908C17.6658 16.54 17.3778 16.016 17.3218 15.336H18.6418C18.7218 15.68 18.9058 15.944 19.1938 16.128C19.4818 16.32 19.8538 16.416 20.3098 16.416C21.4858 16.416 22.0738 15.844 22.0738 14.7V14.016C21.6258 14.688 20.9578 15.024 20.0698 15.024C19.2138 15.024 18.5138 14.744 17.9698 14.184C17.4338 13.624 17.1658 12.864 17.1658 11.904C17.1658 10.976 17.4378 10.224 17.9818 9.648C18.5258 9.072 19.2218 8.784 20.0698 8.784C20.9658 8.784 21.6378 9.128 22.0858 9.816ZM18.9898 13.368C19.3178 13.744 19.7498 13.932 20.2858 13.932C20.8218 13.932 21.2538 13.748 21.5818 13.38C21.9098 13.004 22.0738 12.52 22.0738 11.928C22.0738 11.32 21.9098 10.828 21.5818 10.452C21.2538 10.068 20.8218 9.876 20.2858 9.876C19.7498 9.876 19.3178 10.064 18.9898 10.44C18.6618 10.816 18.4978 11.304 18.4978 11.904C18.4978 12.504 18.6618 12.992 18.9898 13.368ZM27.8523 8.784C28.5963 8.784 29.1963 9.008 29.6523 9.456C30.1083 9.904 30.3363 10.612 30.3363 11.58V15H29.0403V11.688C29.0403 11.104 28.9123 10.66 28.6563 10.356C28.4083 10.052 28.0443 9.9 27.5643 9.9C27.0523 9.9 26.6483 10.08 26.3523 10.44C26.0643 10.792 25.9203 11.276 25.9203 11.892V15H24.6243V6.6H25.9203V9.744C26.3843 9.104 27.0283 8.784 27.8523 8.784Z" fill="#D8727D"/>
</svg>
