<svg width="39" height="39" viewBox="0 0 39 39" fill="none" xmlns="http://www.w3.org/2000/svg">
<mask id="mask0_4_1630" style="mask-type:alpha" maskUnits="userSpaceOnUse" x="-2" y="-4" width="44" height="44">
<rect width="19.5063" height="40.445" transform="matrix(0.741116 0.671376 -0.690438 0.723392 26.8238 -3.14482)" fill="#D9D9D9"/>
</mask>
<g mask="url(#mask0_4_1630)">
<path d="M25.8433 2.28747C26.0648 2.41256 26.2362 2.60712 26.3295 2.83937C26.4228 3.07162 26.4325 3.32783 26.357 3.56615L22.2814 16.4676H29.8011C30.0221 16.4675 30.2383 16.5305 30.423 16.6487C30.6077 16.767 30.7528 16.9353 30.8404 17.133C30.928 17.3306 30.9542 17.5489 30.9159 17.761C30.8776 17.973 30.7764 18.1695 30.6249 18.3261L12.5214 37.0654C12.3463 37.2469 12.1132 37.3652 11.8602 37.4011C11.6071 37.437 11.3491 37.3883 11.1281 37.263C10.9071 37.1377 10.7362 36.9432 10.6432 36.7111C10.5502 36.4791 10.5407 36.2232 10.6161 35.9852L14.6916 23.0815H7.17189C6.95091 23.0816 6.73473 23.0186 6.55005 22.9004C6.36538 22.7821 6.22028 22.6138 6.13268 22.4162C6.04508 22.2185 6.0188 22.0002 6.0571 21.7881C6.0954 21.5761 6.19659 21.3796 6.34819 21.223L24.4516 2.48368C24.6265 2.30246 24.8593 2.18422 25.1119 2.1482C25.3646 2.11218 25.6224 2.16048 25.8433 2.28527V2.28747ZM9.7901 20.8769H16.2236C16.4007 20.8768 16.5753 20.9173 16.7334 20.995C16.8915 21.0727 17.0286 21.1854 17.1339 21.3242C17.2391 21.4629 17.3094 21.6238 17.3392 21.7938C17.3689 21.9639 17.3573 22.1384 17.3053 22.3033L14.2096 32.0984L27.1807 18.6722H20.7494C20.5724 18.6723 20.3978 18.6318 20.2397 18.5541C20.0816 18.4764 19.9444 18.3637 19.8392 18.2249C19.734 18.0862 19.6636 17.9253 19.6339 17.7553C19.6041 17.5852 19.6157 17.4107 19.6678 17.2459L22.7634 7.4507L9.7901 20.8769Z" fill="#2468FF"/>
<path d="M25.8433 2.28747C26.0648 2.41256 26.2362 2.60712 26.3295 2.83937C26.4228 3.07162 26.4325 3.32783 26.357 3.56615L22.2814 16.4676H29.8011C30.0221 16.4675 30.2383 16.5305 30.423 16.6487C30.6077 16.767 30.7528 16.9353 30.8404 17.133C30.928 17.3306 30.9542 17.5489 30.9159 17.761C30.8776 17.973 30.7764 18.1695 30.6249 18.3261L12.5214 37.0654C12.3463 37.2469 12.1132 37.3652 11.8602 37.4011C11.6071 37.437 11.3491 37.3883 11.1281 37.263C10.9071 37.1377 10.7362 36.9432 10.6432 36.7111C10.5502 36.4791 10.5407 36.2232 10.6161 35.9852L14.6916 23.0815H7.17189C6.95091 23.0816 6.73473 23.0186 6.55005 22.9004C6.36538 22.7821 6.22028 22.6138 6.13268 22.4162C6.04508 22.2185 6.0188 22.0002 6.0571 21.7881C6.0954 21.5761 6.19659 21.3796 6.34819 21.223L24.4516 2.48368C24.6265 2.30246 24.8593 2.18422 25.1119 2.1482C25.3646 2.11218 25.6224 2.16048 25.8433 2.28527V2.28747ZM9.7901 20.8769H16.2236C16.4007 20.8768 16.5753 20.9173 16.7334 20.995C16.8915 21.0727 17.0286 21.1854 17.1339 21.3242C17.2391 21.4629 17.3094 21.6238 17.3392 21.7938C17.3689 21.9639 17.3573 22.1384 17.3053 22.3033L14.2096 32.0984L27.1807 18.6722H20.7494C20.5724 18.6723 20.3978 18.6318 20.2397 18.5541C20.0816 18.4764 19.9444 18.3637 19.8392 18.2249C19.734 18.0862 19.6636 17.9253 19.6339 17.7553C19.6041 17.5852 19.6157 17.4107 19.6678 17.2459L22.7634 7.4507L9.7901 20.8769Z" stroke="white"/>
</g>
</svg>
