<svg width="69" height="10" viewBox="0 0 69 10" fill="none" xmlns="http://www.w3.org/2000/svg">
<path d="M68.9981 0.180574C68.8757 0.431764 68.8126 0.702136 68.6494 0.870874C65.9299 3.68765 63.1585 6.41239 59.4948 7.95788C55.9535 9.45351 52.2935 9.8351 48.5334 9.4842C45.3705 9.1889 42.3283 8.27427 39.2656 7.45934C35.2142 6.38171 31.1795 5.20246 27.0836 4.35302C23.4959 3.60903 19.8322 3.48249 16.1611 3.89475C11.1877 4.45273 6.64289 6.24173 2.33178 8.77473C1.61574 9.19466 0.886708 9.59158 0.163243 10C0.109447 9.95206 0.0556512 9.90413 0 9.85619C0.148403 9.58966 0.270835 9.30204 0.450774 9.05852C2.12402 6.79781 4.3816 5.28875 6.82469 4.13251C11.8537 1.75675 17.1888 0.899639 22.6871 1.24479C28.4433 1.60527 33.9491 3.25047 39.4622 4.86307C42.0315 5.61472 44.6433 6.24558 47.2701 6.74604C53.299 7.89269 58.9513 6.64058 64.1825 3.44797C65.4624 2.66564 66.5013 1.45954 67.644 0.437522C68.0076 0.11155 68.3507 -0.21251 69 0.180574H68.9981Z" fill="black"/>
</svg>
