<svg width="24" height="25" viewBox="0 0 24 25" fill="none" xmlns="http://www.w3.org/2000/svg">
<path d="M8.17997 16.5204C7.41997 16.4504 6.66998 16.1004 6.08998 15.4904C4.76998 14.1004 4.76998 11.8204 6.08998 10.4304L8.27998 8.13039C9.59998 6.74039 11.77 6.74039 13.1 8.13039C14.42 9.52039 14.42 11.8004 13.1 13.1904L12.01 14.3404" stroke="#2468FF" stroke-linecap="round" stroke-linejoin="round"/>
<path d="M15.82 8.48047C16.58 8.55047 17.33 8.90047 17.91 9.51047C19.23 10.9005 19.23 13.1805 17.91 14.5705L15.72 16.8705C14.4 18.2605 12.23 18.2605 10.9 16.8705C9.57997 15.4805 9.57997 13.2005 10.9 11.8105L11.99 10.6605" stroke="#2468FF" stroke-linecap="round" stroke-linejoin="round"/>
<path d="M9 22.5H15C20 22.5 22 20.5 22 15.5V9.5C22 4.5 20 2.5 15 2.5H9C4 2.5 2 4.5 2 9.5V15.5C2 20.5 4 22.5 9 22.5Z" stroke="#2468FF" stroke-linecap="round" stroke-linejoin="round"/>
</svg>
