<svg width="36" height="23" viewBox="0 0 36 23" fill="none" xmlns="http://www.w3.org/2000/svg">
<rect width="36" height="23" rx="7" fill="#DFA874" fill-opacity="0.21"/>
<path d="M11.76 15H6.768V6.6H8.148V13.776H11.76V15ZM17.5385 14.208C16.9625 14.784 16.2065 15.072 15.2705 15.072C14.3345 15.072 13.5785 14.784 13.0025 14.208C12.4265 13.632 12.1385 12.872 12.1385 11.928C12.1385 10.992 12.4265 10.236 13.0025 9.66C13.5785 9.076 14.3345 8.784 15.2705 8.784C16.2065 8.784 16.9625 9.076 17.5385 9.66C18.1145 10.236 18.4025 10.992 18.4025 11.928C18.4025 12.872 18.1145 13.632 17.5385 14.208ZM13.9625 13.404C14.2905 13.78 14.7265 13.968 15.2705 13.968C15.8145 13.968 16.2505 13.78 16.5785 13.404C16.9145 13.02 17.0825 12.528 17.0825 11.928C17.0825 11.328 16.9145 10.84 16.5785 10.464C16.2505 10.08 15.8145 9.888 15.2705 9.888C14.7265 9.888 14.2905 10.08 13.9625 10.464C13.6345 10.84 13.4705 11.328 13.4705 11.928C13.4705 12.528 13.6345 13.02 13.9625 13.404ZM20.6497 15L18.6457 8.856H20.0137L21.4177 13.56L22.8217 8.856H24.0097L25.3537 13.56L26.8057 8.856H28.1257L26.0857 15H24.6937L23.3977 10.824L22.0537 15H20.6497Z" fill="#D58D49"/>
</svg>
