<svg width="179" height="107" viewBox="0 0 179 107" fill="none" xmlns="http://www.w3.org/2000/svg">
<path d="M111.186 22.4721C113.839 20.0507 116.547 17.4478 119.408 15.0265C120.951 13.719 122.85 12.8856 124.93 12.831C125.803 12.8083 126.803 12.9915 127.542 13.4264C129.221 14.4168 129.544 15.8748 128.681 17.8071C127.23 21.0649 125.144 23.8796 122.445 26.1981C119.117 29.0552 115.805 31.9424 112.322 34.5995C110.067 36.3178 107.528 37.6718 105.085 39.1382C104.5 39.4898 103.813 39.6962 103.144 39.8684C101.88 40.1959 100.19 39.1419 100.352 37.4666C100.819 32.649 101.13 27.8178 101.617 23.0053C101.874 20.4562 102.219 17.8979 102.806 15.4143C103.21 13.6998 103.996 12.0456 104.811 10.4683C105.604 8.93386 107.031 8.08078 108.795 8.24987C110.547 8.4197 111.565 9.61912 112.15 11.2191C113.385 14.5935 112.86 17.8648 111.656 21.0998C111.458 21.6294 111.287 22.172 111.186 22.468L111.186 22.4721ZM104.066 36.4968C104.409 36.3481 104.631 36.2914 104.806 36.1692C108.031 33.9066 111.373 31.7862 114.434 29.3199C117.469 26.8738 120.34 24.1887 123.045 21.3809C124.376 19.999 125.261 18.1524 126.179 16.4241C126.734 15.3803 126.448 15.0844 125.22 15.0741C123.3 15.0593 121.559 15.7714 120.152 16.9341C116.998 19.5364 113.981 22.3026 110.924 25.0173C110.451 25.4368 110.086 25.9163 109.338 25.4572C108.628 25.0206 108.759 24.4866 108.894 23.8384C109.333 21.7261 109.918 19.6177 110.059 17.4795C110.178 15.6534 109.835 13.7801 109.544 11.9493C109.467 11.4567 108.82 10.6828 108.454 10.6899C107.926 10.7025 107.302 11.218 106.918 11.6841C105.741 13.117 105.625 14.9346 105.477 16.6733C104.93 23.0599 104.46 29.4564 103.969 35.85C103.955 36.0207 104.018 36.1972 104.064 36.499L104.066 36.4968Z" fill="black"/>
<path d="M104.067 36.6104C104.027 36.311 103.968 36.1367 103.985 35.9666C104.599 29.5964 105.195 23.2256 105.862 16.8594C106.044 15.1268 106.197 13.3182 107.388 11.8674C107.774 11.3963 108.406 10.8706 108.929 10.8475C109.292 10.8331 109.914 11.5881 109.982 12.0785C110.234 13.894 110.538 15.7526 110.381 17.5697C110.199 19.6995 109.578 21.8087 109.101 23.9188C108.955 24.5663 108.814 25.1002 109.508 25.5203C110.239 25.9621 110.608 25.48 111.087 25.0509C114.167 22.2891 117.209 19.4768 120.383 16.8249C121.801 15.6378 123.539 14.8945 125.437 14.873C126.652 14.8586 126.927 15.1453 126.359 16.1968C125.416 17.9345 124.503 19.7891 123.158 21.1906C120.423 24.038 117.528 26.7666 114.475 29.2608C111.396 31.7756 108.045 33.9519 104.807 36.2674C104.632 36.3925 104.411 36.4533 104.069 36.6081L104.067 36.6104Z" fill="white"/>
<path d="M163.588 100.927C163.564 100.735 163.51 100.542 163.52 100.352C163.626 98.2699 163.785 96.189 163.847 94.1067C163.957 90.2628 163.61 86.4482 162.792 82.6948C161.209 75.4395 157.575 69.4112 152.04 64.4661C148.934 61.6904 145.688 59.1541 142.004 57.2078C139.756 56.0196 137.467 54.9077 135.001 54.2375C130.494 53.0126 125.999 51.7133 121.3 51.4061C121.105 51.3937 120.902 51.4873 120.704 51.5308C120.855 51.6984 120.986 51.9003 121.166 52.0244C121.329 52.1362 121.547 52.1757 121.746 52.2308C124.743 53.0888 127.758 53.8854 130.73 54.8146C134.661 56.0441 138.611 57.237 142.176 59.3982C147.241 62.4675 151.702 66.2053 155.189 71.0415C157.963 74.8884 160.154 79.0228 161.32 83.6561C162.56 88.5801 162.963 93.6006 162.93 98.6634C162.927 99.0551 162.733 99.4468 162.599 99.9492C162.113 98.6664 161.771 97.4996 161.241 96.4267C160.766 95.471 160.112 94.5981 159.477 93.734C159.301 93.4954 158.911 93.4173 158.619 93.2652C158.574 93.3271 158.529 93.3908 158.484 93.4527C158.766 94.0478 159.023 94.655 159.334 95.2351C160.825 98.0122 161.494 101.02 161.863 104.118C161.879 104.255 161.892 104.392 161.902 104.529C161.937 104.999 162.07 105.387 162.613 105.476C163.129 105.561 163.269 105.185 163.447 104.829C163.94 103.844 164.377 102.824 164.963 101.899C166.098 100.102 167.624 98.7001 169.515 97.7015C169.797 97.5532 170.141 97.2207 170.165 96.9466C170.219 96.3715 169.669 96.0781 169.118 96.3287C167.114 97.2402 165.412 98.5131 164.26 100.442C164.14 100.645 163.957 100.812 163.804 100.995C163.734 100.976 163.663 100.953 163.593 100.932L163.588 100.927Z" fill="black"/>
<path d="M9.42 36.9297H12.69V47.4297H10.41V39.6147H10.185L8.19 47.4297H4.905L2.91 39.6147H2.685L2.685 47.4297H0.405L0.405 36.9297H3.765V36.9447H4.32L6.405 45.3447H6.615L8.715 36.9447H9.42V36.9297ZM20.5054 40.2597H20.6104V39.0147H22.8904V47.4297H20.6104V46.2597H20.5354C19.9654 46.9947 19.0054 47.4297 17.4154 47.4297C13.8904 47.4297 13.5004 44.3547 13.5004 43.2297C13.5004 41.9997 13.8754 39.0147 17.4304 39.0147C18.9904 39.0147 19.9354 39.5097 20.5054 40.2597ZM18.0904 45.4797C20.0554 45.4797 20.4604 44.5047 20.4604 43.2297C20.4604 42.0897 20.0554 40.9797 18.0904 40.9797C15.9004 40.9797 15.6754 42.5697 15.6754 43.2297C15.6754 43.8297 15.9154 45.4797 18.0904 45.4797ZM32.8603 39.0147L29.2903 42.5397L32.8303 47.4297H29.9953L27.6253 44.1597L25.9903 45.7797V47.4147H23.7253V36.5997H25.9903V42.6747L29.6953 39.0147H32.8603ZM40.6191 43.7547H33.8991C34.0641 44.8797 34.7391 45.4347 36.2091 45.4347C37.5741 45.4347 38.2491 45.0597 38.4591 44.5047H40.6641C40.4391 46.3197 38.9691 47.4297 36.2091 47.4297C33.3291 47.4297 31.6941 45.9897 31.6941 43.1847C31.6941 40.4397 33.3741 38.9397 36.2091 38.9397C37.3941 38.9397 38.3541 39.2397 39.0591 39.7347V39.7197C40.6791 40.8297 40.8291 42.5997 40.7091 43.7547H40.6191ZM36.2091 40.9347C34.9491 40.9347 34.2591 41.3997 33.9891 42.2547H38.4291C38.2491 41.6247 37.8291 40.9347 36.2091 40.9347ZM46.4304 39.0147V36.9297H56.6454V39.0147H52.6704V47.4297H50.3904V39.0147H46.4304ZM62.8007 39.0147C66.3707 39.0147 66.5957 41.9997 66.5957 43.2297V47.4297H64.3307V43.2297C64.3307 42.5697 64.3307 40.9797 62.1407 40.9797C60.1757 40.9797 59.7407 42.2397 59.7407 43.3797V47.4297H57.4607V36.5997H59.7407V40.2597H59.8457C60.3857 39.5097 61.3007 39.0147 62.8007 39.0147ZM76.1269 43.7547L69.4069 43.7547C69.5719 44.8797 70.2469 45.4347 71.7169 45.4347C73.0819 45.4347 73.7569 45.0597 73.9669 44.5047H76.1719C75.9469 46.3197 74.4769 47.4297 71.7169 47.4297C68.8369 47.4297 67.2019 45.9897 67.2019 43.1847C67.2019 40.4397 68.8819 38.9397 71.7169 38.9397C72.9019 38.9397 73.8619 39.2397 74.5669 39.7347V39.7197C76.1869 40.8297 76.3369 42.5997 76.2169 43.7547H76.1269ZM71.7169 40.9347C70.4569 40.9347 69.7669 41.3997 69.4969 42.2547L73.9369 42.2547C73.7569 41.6247 73.3369 40.9347 71.7169 40.9347ZM5.34 55.0697C7.695 55.4597 10.38 55.8047 10.38 58.1747C10.38 60.7847 8.64 61.4297 5.565 61.4297C0.39 61.4297 0.405 58.5647 0.405 57.5597C0.87 57.5597 1.455 57.5597 2.745 57.5597C2.745 59.1347 4.14 59.3897 5.505 59.3897C7.23 59.3897 7.95 58.9847 7.95 58.1747C7.95 57.4697 7.23 57.3347 5.175 57.0347C2.025 56.5697 0.615 55.9247 0.615 54.0047C0.615 52.5197 1.71 50.8097 5.145 50.8097C9.225 50.8097 10.035 53.0897 10.035 54.6797C10.035 54.6797 8.445 54.6797 7.635 54.6797C7.635 53.9597 7.32 52.8797 5.145 52.8797C3.375 52.8797 2.97 53.5097 2.97 54.0197C2.97 54.5747 3.585 54.7847 5.34 55.0697ZM22.6459 53.0147C26.2009 53.0147 26.2909 55.9997 26.3059 57.2297V61.4297H24.0259V57.2297C24.0259 56.5697 24.0559 54.9797 21.9859 54.9797C20.0209 54.9797 19.8859 56.2397 19.8859 57.3797L19.8709 57.3347V61.4297H17.6059V57.2297C17.6059 56.5697 17.6359 54.9797 15.5659 54.9797C13.6009 54.9797 13.4659 56.2397 13.4659 57.3797V61.4297H11.2009L11.2009 53.0897H13.4659L13.4659 54.2597H13.5709C14.1109 53.5097 14.8609 53.0147 16.3609 53.0147C17.8759 53.0147 18.7309 53.5547 19.2109 54.2597H19.3159C19.8709 53.5097 20.5459 53.0147 22.6459 53.0147ZM33.894 54.2597H33.999V53.0147H36.279V61.4297H33.999V60.2597H33.924C33.354 60.9947 32.394 61.4297 30.804 61.4297C27.279 61.4297 26.889 58.3547 26.889 57.2297C26.889 55.9997 27.264 53.0147 30.819 53.0147C32.379 53.0147 33.324 53.5097 33.894 54.2597ZM31.479 59.4797C33.444 59.4797 33.849 58.5047 33.849 57.2297C33.849 56.0897 33.444 54.9797 31.479 54.9797C29.289 54.9797 29.064 56.5697 29.064 57.2297C29.064 57.8297 29.304 59.4797 31.479 59.4797ZM41.974 53.0147C42.574 53.0147 43.069 53.1497 43.459 53.2397L43.099 55.3847C42.889 55.3247 42.304 55.2047 41.584 55.2047C39.889 55.2047 39.394 56.5247 39.394 57.6647V61.4297H37.114V53.0147H39.394V54.2597H39.529C40.009 53.4497 40.519 53.0147 41.974 53.0147ZM47.3012 54.9647V57.9497V58.1297C47.3012 59.3447 47.8412 59.1797 50.0312 59.0597V61.2797C50.0312 61.2797 49.5812 61.4297 47.3012 61.4297C45.0062 61.4297 45.0062 59.5547 45.0062 58.3397V54.9647H43.8962V53.0447H45.0062V50.6147H47.3012V53.0447H50.0312V54.9647H47.3012ZM63.8325 57.4397H66.2025C65.9925 59.7797 63.9525 61.4297 61.0275 61.4297C58.0125 61.4297 55.7175 59.6147 55.7175 56.1047C55.7175 52.6547 58.0125 50.7647 61.0275 50.7647C63.9525 50.7647 66.0525 52.5197 66.2025 54.7697H63.8325C63.5025 53.6297 62.7225 53.0897 61.0275 53.0897C59.2275 53.0897 57.9825 54.0197 57.9825 56.1047C57.9825 58.1897 59.2275 59.1047 61.0275 59.1047C62.7825 59.1047 63.5475 58.4747 63.8325 57.4397ZM72.2196 53.0147C75.7896 53.0147 76.0146 55.9997 76.0146 57.2297V61.4297H73.7496V57.2297C73.7496 56.5697 73.7496 54.9797 71.5596 54.9797C69.5946 54.9797 69.1596 56.2397 69.1596 57.3797V61.4297H66.8796V50.5997H69.1596V54.2597H69.2646C69.8046 53.5097 70.7196 53.0147 72.2196 53.0147ZM81.3741 52.8647C83.9391 52.8647 86.0691 54.2297 86.0691 57.1547C86.0691 60.1097 83.9391 61.4297 81.3741 61.4297C78.8241 61.4297 76.6941 60.0647 76.6941 57.1547C76.6941 54.2597 78.8241 52.8647 81.3741 52.8647ZM81.3741 59.3597C82.8141 59.3597 83.8341 58.6697 83.8341 57.1547C83.8341 55.5947 82.8141 54.9497 81.3741 54.9497C79.9491 54.9497 78.9291 55.5647 78.9291 57.1547C78.9291 58.7297 79.9491 59.3597 81.3741 59.3597ZM89.0079 61.4297H86.7429V53.0747H89.0079V61.4297ZM89.0079 52.4747H86.7429V50.4347H89.0079V52.4747ZM96.3169 58.2797H98.5669C98.3869 60.3047 96.6019 61.4297 94.1869 61.4297C91.7119 61.4297 89.7019 60.0047 89.7019 57.2147C89.7019 54.4997 91.7119 52.9997 94.1869 52.9997C96.6019 52.9997 98.3719 54.1697 98.5669 56.1647H96.3319C96.1369 55.5347 95.5819 55.0547 94.1869 55.0547C92.7019 55.0547 91.9219 55.7897 91.9219 57.2147C91.9219 58.7147 92.7019 59.3897 94.1869 59.3897C95.6269 59.3897 96.1519 58.8647 96.3169 58.2797ZM107.958 57.7547H101.238C101.403 58.8797 102.078 59.4347 103.548 59.4347C104.913 59.4347 105.588 59.0597 105.798 58.5047H108.003C107.778 60.3197 106.308 61.4297 103.548 61.4297C100.668 61.4297 99.0329 59.9897 99.0329 57.1847C99.0329 54.4397 100.713 52.9397 103.548 52.9397C104.733 52.9397 105.693 53.2397 106.398 53.7347V53.7197C108.018 54.8297 108.168 56.5997 108.048 57.7547H107.958ZM103.548 54.9347C102.288 54.9347 101.598 55.3997 101.328 56.2547H105.768C105.588 55.6247 105.168 54.9347 103.548 54.9347Z" fill="black"/>
<path d="M85.9718 33.5637C86.1798 31.6331 86.345 29.6094 86.6372 27.6047C86.7944 26.5227 87.266 25.5053 88.0902 24.7388C88.4364 24.417 88.9081 24.1331 89.3638 24.0448C90.4008 23.8445 91.0551 24.3192 91.3981 25.4107C91.9777 27.2498 92.1413 29.1363 91.8777 31.0416C91.5521 33.3902 91.244 35.7451 90.7835 38.0684C90.485 39.5716 89.9403 41.029 89.475 42.4974C89.3638 42.8492 89.159 43.1788 88.9493 43.488C88.5539 44.0732 87.4899 44.2514 86.9548 43.5148C85.416 41.3965 83.8089 39.3287 82.2796 37.2056C81.4697 36.081 80.6916 34.9217 80.0389 33.7056C79.5879 32.8665 79.3132 31.9154 79.0781 30.9848C78.8495 30.0795 79.1226 29.223 79.8992 28.6599C80.6709 28.1016 81.5142 28.223 82.3257 28.6615C84.0375 29.5858 84.9983 31.0984 85.6701 32.8397C85.7796 33.1252 85.9051 33.406 85.9702 33.5621L85.9718 33.5637ZM88.114 41.7924C88.1998 41.6094 88.2697 41.5069 88.2967 41.3949C88.7937 39.3239 89.3892 37.2687 89.7465 35.1741C90.1007 33.0968 90.3023 30.9817 90.3929 28.876C90.4373 27.8397 90.134 26.7751 89.8863 25.7467C89.737 25.1252 89.5147 25.1079 89.0129 25.5432C88.2284 26.2246 87.7774 27.1363 87.6233 28.111C87.2772 30.294 87.0453 32.4943 86.7785 34.6883C86.7372 35.0274 86.761 35.3523 86.2926 35.4344C85.8479 35.5116 85.7098 35.2482 85.5319 34.9375C84.9523 33.9249 84.433 32.8618 83.7231 31.9454C83.1165 31.1631 82.305 30.5274 81.5301 29.8902C81.322 29.7183 80.7821 29.6362 80.636 29.7703C80.4264 29.9643 80.3581 30.3965 80.3692 30.723C80.4057 31.7246 81.0108 32.5022 81.5745 33.2593C83.6437 36.0416 85.7479 38.8003 87.8425 41.5653C87.8981 41.6394 87.987 41.6883 88.114 41.794V41.7924Z" fill="black"/>
<path d="M88.1554 41.8388C88.0319 41.7318 87.9455 41.6823 87.8914 41.6072C85.8552 38.8076 83.8112 36.0144 81.7981 33.1973C81.2501 32.4307 80.6635 31.6434 80.6264 30.6293C80.6141 30.3003 80.682 29.8611 80.8858 29.6647C81.0278 29.5289 81.5511 29.612 81.7549 29.7861C82.5083 30.4313 83.2987 31.0749 83.8869 31.867C84.5769 32.7949 85.0818 33.8712 85.6452 34.8965C85.8181 35.2111 85.9525 35.4779 86.3847 35.3996C86.8401 35.3166 86.817 34.9892 86.8571 34.6442C87.1165 32.4228 87.3419 30.1949 87.6784 27.9846C87.8281 26.9961 88.2666 26.073 89.0292 25.3847C89.517 24.9439 89.7316 24.9615 89.8783 25.5907C90.1191 26.632 90.414 27.7099 90.3707 28.7592C90.2828 30.8912 90.0867 33.0328 89.7424 35.1361C89.3951 37.2569 88.8162 39.3378 88.333 41.4347C88.3067 41.5481 88.2388 41.6519 88.1554 41.8372V41.8388Z" fill="white"/>
</svg>
