<svg width="18" height="18" viewBox="0 0 18 18" fill="none" xmlns="http://www.w3.org/2000/svg">
<path d="M6.375 13.6021H6C3 13.6021 1.5 12.8862 1.5 9.30664V5.7271C1.5 2.86346 3 1.43164 6 1.43164H12C15 1.43164 16.5 2.86346 16.5 5.7271V9.30664C16.5 12.1703 15 13.6021 12 13.6021H11.625C11.3925 13.6021 11.1675 13.7095 11.025 13.8885L9.9 15.3203C9.405 15.9503 8.595 15.9503 8.1 15.3203L6.975 13.8885C6.855 13.731 6.5775 13.6021 6.375 13.6021Z" stroke="#686868" stroke-miterlimit="10" stroke-linecap="round" stroke-linejoin="round"/>
<path d="M11.9973 7.87504H12.0041" stroke="#686868" stroke-width="1.5" stroke-linecap="round" stroke-linejoin="round"/>
<path d="M8.99686 7.87504H9.00359" stroke="#686868" stroke-width="1.5" stroke-linecap="round" stroke-linejoin="round"/>
<path d="M5.99588 7.87504H6.00262" stroke="#686868" stroke-width="1.5" stroke-linecap="round" stroke-linejoin="round"/>
</svg>
