<svg width="13" height="18" viewBox="0 0 13 18" fill="none" xmlns="http://www.w3.org/2000/svg">
<g clip-path="url(#clip0_1336_27480)">
<g opacity="0.2">
<path d="M6.63115 18C4.05003 18 1.95762 17.699 1.95762 17.3278C1.95762 16.9565 4.05003 16.6555 6.63115 16.6555C9.21227 16.6555 11.3047 16.9565 11.3047 17.3278C11.3047 17.699 9.21227 18 6.63115 18Z" fill="black"/>
</g>
<path d="M8.17835 12.4464C8.48008 11.7607 9.5158 11.4573 9.73675 12.4689C9.92831 13.3461 8.97801 13.8687 8.24623 13.7078C7.98175 13.6497 7.80666 13.2913 8.1784 12.4464H8.17835Z" fill="black"/>
<g opacity="0.2">
<path d="M8.24616 13.7078C8.97788 13.8686 9.92823 13.3461 9.73677 12.469C9.65614 12.1 9.46735 11.906 9.24499 11.8419C9.25069 11.8624 9.2457 11.8895 9.26056 11.905C9.97238 12.6472 9.22942 13.6255 8.57858 12.635C8.32851 12.8125 8.27791 13.1881 7.96852 13.1706C7.94221 13.5081 8.07581 13.6705 8.24616 13.7078Z" fill="black"/>
</g>
<path d="M8.5189 13.8297C8.9183 13.8297 9.32668 13.6633 9.58053 13.381C9.811 13.1247 9.89637 12.7932 9.82088 12.4476C9.69574 11.8745 9.34825 11.7513 9.15225 11.7288C8.74312 11.682 8.29135 11.9734 8.1007 12.4066C7.87895 12.9105 7.82286 13.3088 7.93847 13.5584C7.99723 13.6852 8.10045 13.7706 8.22921 13.799C8.32361 13.8197 8.42103 13.8297 8.5189 13.8297ZM9.06582 11.9099C9.08875 11.9099 9.11148 11.9111 9.13406 11.9137C9.31801 11.9348 9.55735 12.052 9.6531 12.4902C9.73197 12.8513 9.5899 13.1036 9.4568 13.2515C9.17941 13.56 8.68884 13.7101 8.26369 13.6167C8.18582 13.5996 8.12832 13.552 8.09279 13.4753C8.04083 13.3631 7.99295 13.0854 8.25653 12.4863C8.40399 12.1512 8.74912 11.9099 9.06587 11.9099H9.06582Z" fill="black"/>
<g opacity="0.3">
<path d="M8.63285 12.3004C8.66198 12.1857 8.96658 11.9898 9.2218 12.1215C9.49979 12.265 9.22376 12.3005 9.0386 12.339C8.84926 12.3783 8.60372 12.4152 8.63285 12.3004Z" fill="white"/>
</g>
<path d="M8.76735 12.0289C9.10547 12.6449 9.44122 14.2578 9.60788 15.3155C9.60788 15.3155 9.86784 15.3171 10.0418 15.5455C10.1819 15.7295 10.237 16.0953 9.86778 16.2566C9.55915 16.3915 8.75525 16.8069 8.38186 16.5743C7.7033 16.1517 7.45272 14.5593 6.82835 14.0476L8.7674 12.0289H8.76735Z" fill="#686779"/>
<path d="M6.82833 14.0476C7.45275 14.5592 7.70318 16.1517 8.38169 16.5743C8.75523 16.8068 9.55918 16.3914 9.86781 16.2566C10.237 16.0952 10.1818 15.7296 10.0417 15.5455C9.86781 15.3172 9.60786 15.3155 9.60786 15.3155C9.56004 15.0107 9.49795 14.6597 9.42552 14.2999C9.32745 13.8093 9.21043 13.3023 9.08478 12.8727C8.98283 12.5235 8.87508 12.2255 8.76728 12.0291L6.82833 14.0476V14.0476Z" fill="black"/>
<g opacity="0.2">
<path d="M6.82833 14.0475C7.45275 14.5592 7.70318 16.1517 8.38169 16.5743C8.75523 16.8068 9.55918 16.3913 9.86781 16.2565C10.237 16.0952 10.1818 15.7295 10.0417 15.5454C9.86781 15.3171 9.60786 15.3155 9.60786 15.3155C9.56004 15.0107 9.49795 14.6596 9.42552 14.2998C9.11386 14.5799 8.6625 14.9324 8.30342 14.9979C7.63373 15.1202 7.8133 14.6248 7.97518 14.4507C8.11312 14.3024 8.99165 13.7575 9.08478 12.8727C8.98283 12.5235 8.87508 12.2255 8.76728 12.0291L6.82833 14.0476V14.0475Z" fill="black"/>
</g>
<path d="M8.666 16.7355C9.03703 16.7355 9.5023 16.5233 9.78478 16.3945C9.82797 16.3748 9.86663 16.3572 9.89959 16.3428C10.1167 16.2479 10.1937 16.0946 10.2201 15.9826C10.2664 15.7863 10.1924 15.5976 10.1078 15.4865C9.96843 15.3035 9.78262 15.2473 9.68122 15.2301C9.53033 14.294 9.19573 12.6278 8.84103 11.9816L8.69266 12.0763C8.99969 12.6357 9.33065 14.1141 9.52236 15.331C9.52937 15.3755 9.565 15.4082 9.60683 15.4084C9.60864 15.4084 9.82979 15.4144 9.97458 15.6045C10.0298 15.677 10.0835 15.8075 10.0531 15.9368C10.0289 16.0391 9.95548 16.1177 9.83483 16.1704C9.80121 16.1851 9.76175 16.2031 9.71765 16.2232C9.39395 16.3709 8.72038 16.6781 8.4244 16.4938C8.09081 16.286 7.855 15.7462 7.62695 15.2241C7.41347 14.7353 7.19268 14.2298 6.87991 13.9736L6.77563 14.1217C7.05474 14.3504 7.26636 14.8349 7.47102 15.3034C7.71036 15.8514 7.95786 16.418 8.33822 16.6549C8.43039 16.7123 8.54308 16.7356 8.66605 16.7356L8.666 16.7355Z" fill="black"/>
<path d="M9.06426 15.9215C9.22311 16.0059 9.3547 16.2222 9.24775 16.4007C9.2157 16.4538 9.16631 16.5009 9.11183 16.5435C9.08321 16.5651 9.07655 16.6079 9.09712 16.6384C9.11607 16.6666 9.1517 16.6742 9.17906 16.6573C9.28278 16.5949 9.38892 16.4868 9.41497 16.3498C9.45756 16.1226 9.2979 15.8659 9.07756 15.8555C9.04193 15.854 9.0319 15.9068 9.06426 15.9215Z" fill="#232333"/>
<path d="M9.57596 15.7112C9.73482 15.7956 9.8664 16.0119 9.75946 16.1903C9.72736 16.2435 9.67802 16.2906 9.62354 16.3331C9.59496 16.3548 9.58826 16.3976 9.60882 16.4281C9.62777 16.4562 9.6634 16.4639 9.69082 16.447C9.79454 16.3845 9.90067 16.2765 9.92668 16.1395C9.96932 15.9123 9.80961 15.6556 9.58927 15.6452C9.55364 15.6437 9.54361 15.6965 9.57596 15.7112Z" fill="#232333"/>
<path d="M7.87859 16.46C7.87355 16.6616 7.91986 17.0323 8.02751 17.1263C8.20254 17.2793 8.78136 17.2029 9.25661 17.1325C9.91118 17.0356 10.4555 16.8568 10.6339 16.7182C10.7714 16.5778 10.6663 16.1809 10.5532 15.9712" fill="white"/>
<path d="M7.91086 16.8233C7.935 16.9568 7.97406 17.0779 8.02925 17.1262C8.20433 17.2792 8.7832 17.2029 9.25845 17.1325C9.91311 17.0356 10.4574 16.8568 10.6358 16.7182C10.6744 16.6788 10.6938 16.6195 10.6992 16.5496C10.4788 16.6913 9.93267 16.8636 9.2845 16.9596C8.78264 17.0338 8.17182 17.1144 7.98691 16.953C7.95713 16.927 7.93193 16.881 7.91091 16.8233L7.91086 16.8233Z" fill="#E8E8E8"/>
<path d="M8.43216 17.2853C8.66681 17.2853 8.95922 17.2467 9.26382 17.2015C9.88724 17.1091 10.4655 16.9336 10.6701 16.7746C10.6724 16.7727 10.6746 16.7708 10.6767 16.7686C10.8438 16.5981 10.7342 16.1709 10.6075 15.9359C10.5896 15.9026 10.55 15.8914 10.5191 15.9107C10.4883 15.9301 10.4778 15.9728 10.4957 16.0061C10.6135 16.2245 10.681 16.564 10.5906 16.6643C10.4268 16.7883 9.91516 16.9642 9.24628 17.0633C8.89088 17.1159 8.22921 17.2139 8.06667 17.0719C7.99067 17.0054 7.93614 16.6837 7.94169 16.4616C7.94264 16.4231 7.91447 16.3911 7.87879 16.39C7.84321 16.39 7.81337 16.4194 7.81242 16.4579C7.80803 16.633 7.84548 17.0581 7.98528 17.1803C8.07297 17.257 8.23147 17.2853 8.43221 17.2853H8.43216Z" fill="black"/>
<path d="M7.59154 15.5354C7.62022 15.6088 7.66109 15.697 7.69944 15.8104C8.28275 15.6028 9.22765 15.0671 9.76172 14.7571C9.70563 14.5901 9.63094 14.4216 9.46997 14.3595C9.41559 14.3385 9.16985 14.3085 8.6319 14.6823C7.96252 15.1475 7.62989 15.2232 7.59477 15.269C7.53399 15.3486 7.54916 15.4257 7.59154 15.5354V15.5354Z" fill="#FFCE31"/>
<path d="M2.50403 12.3824C2.50403 12.3824 2.24176 12.9277 3.00116 13.2537C3.88866 13.6344 4.64498 12.5704 3.67805 11.4235C3.67805 11.4235 3.76292 11.2369 4.11747 11.0899L4.70536 9.82871L5.08203 9.02063C5.08203 9.02063 4.43573 9.1356 3.84567 9.46854C3.80289 9.49267 3.76055 9.51795 3.71867 9.54442C3.38348 9.75609 0.867771 11.4586 2.50403 12.3824Z" fill="#686779"/>
<path d="M2.50398 12.3824C2.50398 12.3824 2.24187 12.9278 3.00121 13.2537C3.88881 13.6345 4.64508 12.5705 3.678 11.4237C3.678 11.4237 3.76292 11.237 4.11747 11.0899L4.70546 9.82871L4.75354 9.72549L5.08203 9.02063C5.08203 9.02063 4.43583 9.13571 3.84572 9.46859C3.80304 9.49278 3.7606 9.51811 3.71877 9.54459C3.70673 9.55225 3.69161 9.56176 3.67392 9.5734C3.20663 9.87861 0.927089 11.4922 2.50398 12.3824Z" fill="black"/>
<g opacity="0.2">
<path d="M3.67392 9.57345C4.01294 9.65716 4.3755 9.70945 4.75354 9.72549L5.08203 9.02063C5.08203 9.02063 4.43583 9.13571 3.84572 9.46859C3.80304 9.49278 3.7606 9.51811 3.71877 9.54459C3.70673 9.55225 3.69161 9.56176 3.67392 9.5734V9.57345Z" fill="black"/>
</g>
<path d="M6.55242 9.52627C7.62599 9.23149 8.47716 8.64312 8.88281 7.92407C8.27864 8.2344 7.55035 8.57218 6.8154 8.84163C6.61386 8.91556 6.53755 9.19431 6.55242 9.52627Z" fill="#545468"/>
<path d="M4.3254 9.69105C4.63751 9.72801 4.96318 9.74008 5.29747 9.72404C6.22579 9.67963 7.07071 9.42578 7.73047 9.03707C7.52827 8.59911 7.02848 7.92306 5.89841 8.07439C4.63106 8.2441 4.37584 9.24189 4.32545 9.69099L4.3254 9.69105Z" fill="#545468"/>
<g opacity="0.2">
<path d="M3.00051 13.2537C3.63074 13.524 4.19504 13.0658 4.12262 12.3665C4.12156 12.3563 4.12025 12.3463 4.11894 12.3361C4.11788 12.3268 4.11657 12.3175 4.11506 12.308C4.11335 12.2957 4.11118 12.2834 4.10881 12.271C4.06572 12.0332 3.95016 11.7717 3.74176 11.5037C3.5559 11.9293 3.53957 12.3434 3.5183 12.9278C3.51316 13.0687 3.25532 13.1056 3.16048 13.084C2.67701 12.9738 2.94235 12.4951 2.94235 12.4951C2.94235 12.4951 2.7266 12.4582 2.50006 12.3801C2.50112 12.3808 2.50223 12.3817 2.50329 12.3824C2.50329 12.3824 2.24117 12.928 3.00051 13.2537V13.2537Z" fill="black"/>
</g>
<g opacity="0.2">
<path d="M3.61138 11.3926C3.60725 11.3874 3.63694 11.3971 3.68255 11.4139C3.70507 11.3741 3.80995 11.2172 4.11697 11.0897L4.23828 10.8011L4.21651 10.7571C4.17765 10.634 4.12978 10.5551 4.07358 10.5516C3.88454 10.5389 3.56421 11.0954 3.16068 11.0619C3.16068 11.0619 3.37275 11.1774 3.61143 11.3925L3.61138 11.3926Z" fill="black"/>
</g>
<path d="M3.36197 13.4239C3.64496 13.4239 3.90239 13.2904 4.06109 13.0433C4.28445 12.6954 4.32533 12.0902 3.78839 11.418C3.83586 11.3614 3.94134 11.2626 4.14818 11.1767C4.19263 11.1583 4.2148 11.1045 4.19767 11.0565C4.18053 11.0087 4.13069 10.9847 4.08624 11.0032C3.71108 11.1588 3.61063 11.3602 3.6004 11.3826C3.58478 11.4168 3.59017 11.4579 3.61401 11.4861C4.1318 12.1003 4.11124 12.6385 3.91932 12.9374C3.7327 13.228 3.3847 13.3182 3.03282 13.1673C2.78613 13.0615 2.63121 12.9233 2.57239 12.7566C2.5101 12.5802 2.57778 12.431 2.58071 12.4247C2.60177 12.3794 2.58554 12.3236 2.54392 12.3001C2.21673 12.1154 2.0479 11.8878 2.04206 11.6236C2.02638 10.9114 3.16028 10.0048 3.76198 9.62481C4.36136 9.24637 5.0885 9.1139 5.09576 9.1126C5.14273 9.10423 5.17453 9.05639 5.16682 9.00573C5.15906 8.95507 5.11486 8.92082 5.06773 8.92909C5.03674 8.93463 4.30154 9.06868 3.67489 9.46429C3.62087 9.49838 3.13407 9.8099 2.67707 10.2423C2.13242 10.7575 1.86077 11.2237 1.86969 11.628C1.87665 11.945 2.0541 12.213 2.39741 12.4255C2.37418 12.513 2.35437 12.6581 2.40991 12.8188C2.48571 13.038 2.67384 13.2134 2.96917 13.3401C3.10081 13.3966 3.23406 13.4239 3.36207 13.4239L3.36197 13.4239Z" fill="black"/>
<path d="M2.47324 12.4685C2.62685 12.5159 2.78208 12.5403 2.94098 12.5414C2.96487 12.5415 2.98432 12.5207 2.98437 12.4949C2.98443 12.4718 2.96895 12.4527 2.94864 12.4488C2.87672 12.4336 2.80597 12.4129 2.73702 12.3867C2.67055 12.3617 2.59964 12.3306 2.53856 12.2964C2.42506 12.2385 2.3545 12.4238 2.47324 12.4685Z" fill="black"/>
<path d="M3.73433 11.3532C3.5591 11.219 3.3824 11.0851 3.17416 11.0176C3.15108 11.0112 3.12749 11.026 3.1215 11.0509C3.11585 11.0742 3.12759 11.0979 3.1478 11.1062C3.32687 11.1958 3.47932 11.3489 3.62179 11.4942C3.7118 11.583 3.82928 11.4365 3.73433 11.3532Z" fill="black"/>
<path d="M6.81627 8.84162C8.49436 8.22618 10.1379 7.2554 10.3479 7.06836C10.3908 6.94046 10.4988 6.777 10.6093 6.71476C10.7411 6.64046 10.924 6.68128 11.054 6.89094C11.2369 6.71645 11.5562 6.63252 11.7339 6.78771C11.8342 6.87528 11.8747 6.99362 11.8775 7.09951C12.1785 7.13767 12.2896 7.49061 12.1738 7.76544C12.2488 8.08925 12.1299 8.45215 11.6494 8.67518C10.0775 10.0233 8.50873 10.6496 7.47456 10.9374C6.73624 11.1429 6.21008 9.06389 6.81627 8.84157V8.84162Z" fill="black"/>
<g opacity="0.2">
<path d="M6.55242 9.52627C7.62599 9.23149 8.47716 8.64312 8.88281 7.92407C8.27864 8.2344 7.55035 8.57218 6.8154 8.84163C6.61386 8.91556 6.53755 9.19431 6.55242 9.52627Z" fill="black"/>
</g>
<g opacity="0.2">
<path d="M7.85377 9.38661C7.96736 9.98547 7.05718 11.0542 7.47684 10.9375C8.511 10.6497 10.0797 10.0234 11.6516 8.67528C11.7443 8.63229 11.8236 8.58391 11.8906 8.53162C11.6632 8.59647 11.3274 8.65648 11.0349 8.56673C11.0349 8.56673 9.10751 10.4522 7.85377 9.38661Z" fill="black"/>
</g>
<path d="M7.37056 11.0451C7.41153 11.0451 7.45342 11.0394 7.49605 11.0276C8.54024 10.737 10.1154 10.1069 11.6941 8.75568C12.1334 8.54749 12.3445 8.18291 12.264 7.77392C12.3262 7.60297 12.3168 7.40722 12.2376 7.25573C12.1753 7.13674 12.0771 7.05531 11.9566 7.02123C11.9371 6.90126 11.8787 6.79461 11.7882 6.71552C11.5923 6.54451 11.2828 6.60365 11.0695 6.76053C10.9106 6.56794 10.71 6.55315 10.5693 6.63241C10.4422 6.704 10.329 6.87196 10.276 7.01101C10.0017 7.23328 8.40286 8.16155 6.78847 8.75361C6.41658 8.89 6.40635 9.52707 6.55422 10.0612C6.69589 10.573 6.99601 11.0451 7.37051 11.0451H7.37056ZM11.4964 6.79956C11.5668 6.79956 11.6316 6.81798 11.6797 6.86C11.7734 6.94187 11.7898 7.04683 11.7913 7.10217C11.7925 7.14832 11.8249 7.18653 11.8674 7.19191C11.9902 7.20751 12.0548 7.28492 12.0874 7.3471C12.1448 7.4568 12.1478 7.60242 12.0953 7.72706C12.0872 7.7462 12.0854 7.76767 12.0901 7.78805C12.1355 7.98412 12.1342 8.34897 11.6153 8.58989C11.6083 8.59315 11.6017 8.59739 11.5957 8.6025C10.0378 9.93867 8.48299 10.5608 7.45301 10.8475C7.13334 10.9365 6.84869 10.4747 6.71947 10.008C6.59192 9.54718 6.60361 9.01785 6.84401 8.92968C8.51484 8.3169 10.1798 7.33862 10.4028 7.14005C10.4147 7.12945 10.4237 7.11565 10.429 7.09999C10.4645 6.994 10.5588 6.8481 10.6491 6.79722C10.7321 6.75042 10.8693 6.76042 10.9823 6.94263C10.9961 6.96491 11.0183 6.9797 11.0429 6.98312C11.0678 6.98655 11.0925 6.97834 11.1111 6.96056C11.2118 6.86451 11.3642 6.79956 11.4965 6.79956H11.4964Z" fill="black"/>
<path d="M10.9822 7.98245C11.0659 8.11818 11.1375 8.39633 11.3269 8.25652C11.5163 8.11677 11.5648 7.83786 11.4352 7.63358C11.3056 7.4293 11.047 7.37706 10.8576 7.51682C10.6682 7.65657 10.8917 7.83574 10.9822 7.98245Z" fill="white"/>
<path d="M10.653 7.3106C10.5884 7.24093 10.5884 7.12797 10.653 7.0583C10.7176 6.98863 10.8224 6.98863 10.8869 7.0583C10.9515 7.12797 10.9515 7.24093 10.8869 7.3106C10.8224 7.38027 10.7176 7.38027 10.653 7.3106Z" fill="white"/>
<path d="M11.3451 7.28529C11.285 7.21101 11.2922 7.09832 11.3611 7.03358C11.4299 6.96883 11.5344 6.97655 11.5944 7.05082C11.6545 7.12509 11.6473 7.23779 11.5784 7.30253C11.5096 7.36728 11.4051 7.35956 11.3451 7.28529Z" fill="white"/>
<path d="M11.658 7.61C11.6303 7.51612 11.6784 7.41577 11.7655 7.38588C11.8525 7.35599 11.9455 7.40787 11.9733 7.50176C12.001 7.59564 11.9529 7.69598 11.8658 7.72587C11.7788 7.75576 11.6858 7.70389 11.658 7.61Z" fill="white"/>
<path d="M11.6647 8.20073C11.6002 8.13106 11.6002 8.01811 11.6647 7.94844C11.7293 7.87876 11.8341 7.87876 11.8987 7.94844C11.9633 8.01811 11.9633 8.13106 11.8987 8.20073C11.8341 8.2704 11.7293 8.27041 11.6647 8.20073Z" fill="white"/>
<path d="M3.95762 13.2841C3.83818 13.9231 3.89004 15.0905 4.00797 16.3124C4.00797 16.3124 3.76279 16.4055 3.66748 16.6826C3.59073 16.9058 3.64929 17.2709 4.04713 17.2935C4.37966 17.3123 5.27709 17.4326 5.54782 17.0706C5.87576 16.6323 5.8302 15.5631 6.16797 14.0477L3.95762 13.2841Z" fill="#686779"/>
<path d="M4.04708 17.2936C4.37966 17.3124 5.27714 17.4326 5.54788 17.0707C5.72502 16.8336 5.79316 16.4121 5.87183 15.8354C5.93866 15.3455 6.01279 14.7439 6.16797 14.0479L3.95762 13.2842C3.93197 13.4216 3.91408 13.5836 3.9033 13.7654C3.86363 14.428 3.91559 15.3534 4.00802 16.3124C4.00802 16.3124 3.76274 16.4056 3.66748 16.6827C3.59073 16.9059 3.64939 17.2711 4.04703 17.2937L4.04708 17.2936Z" fill="black"/>
<g opacity="0.2">
<path d="M5.52308 14.9385C5.64056 15.2393 5.08144 15.2674 5.08144 15.2674L5.04526 15.7321C5.04526 15.7321 5.50282 15.7875 5.87183 15.8354C5.93866 15.3455 6.01279 14.7439 6.16797 14.0479L3.95762 13.2842C3.93197 13.4216 3.91408 13.5836 3.9033 13.7654C4.22035 14.6025 5.40863 14.6451 5.52303 14.9385H5.52308Z" fill="black"/>
</g>
<path d="M4.69107 17.4213C5.0562 17.4213 5.43923 17.3667 5.61703 17.1291C5.82416 16.8522 5.88933 16.3684 5.97954 15.6989C6.03997 15.2502 6.11516 14.6919 6.25391 14.0694L6.08628 14.0259C5.94567 14.6566 5.86988 15.2197 5.80894 15.6721C5.72271 16.3123 5.66037 16.7749 5.48287 17.0122C5.27231 17.2938 4.54421 17.2376 4.1943 17.2106C4.14088 17.2065 4.09341 17.2028 4.05379 17.2005C3.92377 17.1932 3.83063 17.1448 3.77681 17.0565C3.70892 16.9452 3.72016 16.8029 3.75045 16.7148C3.82977 16.4842 4.03706 16.4007 4.03913 16.3999C4.07632 16.3853 4.09996 16.3452 4.09587 16.3027C3.95945 14.8893 3.94161 13.8518 4.04427 13.3024L3.87523 13.2656C3.7693 13.8325 3.78371 14.8384 3.91802 16.2556C3.82801 16.3065 3.66613 16.4252 3.58877 16.6502C3.54241 16.785 3.52961 16.9895 3.63277 17.1587C3.69158 17.2552 3.81082 17.373 4.04472 17.3863C4.08338 17.3884 4.12979 17.392 4.18195 17.3961C4.32816 17.4074 4.50737 17.4212 4.69112 17.4212L4.69107 17.4213Z" fill="black"/>
<path d="M4.66062 16.6035C4.41382 16.7062 4.36644 17.1191 4.58245 17.2843C4.65149 17.3399 4.72911 17.368 4.8045 17.3836C4.83847 17.3906 4.87128 17.3666 4.87778 17.3299C4.88393 17.2952 4.86432 17.2617 4.83358 17.2522C4.77058 17.2315 4.71101 17.2049 4.66576 17.1669C4.51431 17.0388 4.57217 16.7946 4.69312 16.6612C4.71933 16.6357 4.69332 16.5896 4.66056 16.6035L4.66062 16.6035Z" fill="#232333"/>
<path d="M4.12155 16.5863C3.87476 16.6889 3.82738 17.1018 4.04339 17.267C4.11243 17.3227 4.19004 17.3508 4.26544 17.3664C4.29941 17.3734 4.33227 17.3493 4.33872 17.3126C4.34487 17.278 4.32526 17.2445 4.29452 17.235C4.23152 17.2143 4.17195 17.1877 4.12664 17.1497C3.9752 17.0216 4.03305 16.7774 4.15401 16.644C4.18022 16.6185 4.15421 16.5723 4.12145 16.5863L4.12155 16.5863Z" fill="#232333"/>
<path d="M4.57032 16.3082C4.3148 16.2413 4.03016 16.2031 3.78905 16.3489C3.69234 16.414 3.77706 16.5696 3.877 16.5097C3.96398 16.4294 4.0806 16.3854 4.19702 16.366C4.31601 16.3453 4.4413 16.3426 4.56185 16.3538C4.58786 16.3576 4.59592 16.3156 4.57037 16.3082H4.57032Z" fill="#232333"/>
<path d="M4.23972 14.039C4.23972 14.039 4.44433 14.2072 4.85205 14.3911C5.21199 14.5535 5.5428 14.5957 5.5428 14.5957C5.94916 14.6537 6.31207 14.6389 6.47874 14.6202C6.64435 14.6016 6.99909 14.5362 7.38297 14.3911C7.38297 14.3911 7.72835 14.2682 8.11324 14.0066C8.37203 13.8307 8.55885 13.5545 8.55885 13.5545C9.03723 12.8477 9.00447 12.0916 8.8185 11.3599C8.70788 10.925 8.47827 10.4487 8.27043 10.0729C8.04938 9.67258 7.85334 9.38666 7.85334 9.38666L5.89876 8.07446L4.3138 9.91007C4.27726 10.1023 4.20152 10.3454 4.11523 10.62C3.7941 11.6443 3.33019 13.1104 4.23972 14.039Z" fill="white"/>
<g opacity="0.2">
<path d="M3.70781 12.5781C3.70413 13.1137 3.83799 13.6289 4.23976 14.039C4.23976 14.039 4.44432 14.2073 4.85209 14.3912C5.21203 14.5534 5.54289 14.5958 5.54289 14.5958C5.9492 14.6537 6.31216 14.639 6.47878 14.6202C6.64433 14.6016 6.99908 14.5362 7.38296 14.3912C7.38296 14.3912 7.72849 14.2682 8.11323 14.0066C8.37207 13.8307 8.55894 13.5545 8.55894 13.5545C8.96243 12.9582 9.00229 12.3268 8.89303 11.7045C8.8952 12.1448 8.37444 13.9465 6.42667 14.0696C4.46992 14.1934 3.77836 12.9105 3.70791 12.5781H3.70781Z" fill="black"/>
</g>
<path d="M4.11434 10.62C5.846 11.1155 7.43666 10.5072 8.26953 10.0728C8.04849 9.67251 7.85244 9.38659 7.85244 9.38659C7.85244 9.38659 7.54285 7.85413 5.89786 8.07439C4.25288 8.29465 4.3129 9.91 4.3129 9.91C4.27637 10.1022 4.20062 10.3454 4.11434 10.62Z" fill="black"/>
<g opacity="0.2">
<path d="M4.3254 9.69105C4.63751 9.72801 4.96318 9.74008 5.29747 9.72404C6.22579 9.67963 7.07071 9.42578 7.73047 9.03707C7.52827 8.59911 7.02848 7.92306 5.89841 8.07439C4.63106 8.2441 4.37584 9.24189 4.32545 9.69099L4.3254 9.69105Z" fill="black"/>
</g>
<path d="M8.59206 13.5819C8.82812 13.2867 8.98047 12.9081 9.01908 12.5186C9.0915 11.7616 8.83125 10.9506 8.49 10.2999C8.31351 9.96785 8.1154 9.65187 7.88639 9.3591C7.85237 9.31697 7.78837 9.3647 7.81709 9.41438C7.99787 9.73563 8.17406 10.0606 8.33659 10.3905C8.49479 10.7192 8.64916 11.0542 8.74003 11.4111C8.92549 12.1354 8.89933 12.8822 8.52236 13.5271C8.49509 13.5742 8.55678 13.6259 8.59201 13.582L8.59206 13.5819Z" fill="black"/>
<path d="M5.53731 14.6419C5.99986 14.7574 6.49557 14.7579 6.95273 14.6136C7.10533 14.5679 7.25491 14.5098 7.39744 14.4351C7.41901 14.4238 7.42798 14.3958 7.41749 14.3725C7.40852 14.3526 7.38811 14.3426 7.36891 14.3474C7.06899 14.4179 6.77039 14.4907 6.46649 14.5285C6.1639 14.5599 5.85456 14.5562 5.54859 14.5497C5.49769 14.5484 5.48726 14.6288 5.53725 14.6419L5.53731 14.6419Z" fill="black"/>
<path d="M4.27069 9.90069C4.16974 10.2448 4.03346 10.5795 3.92748 10.9242C3.61491 11.9357 3.32467 13.2955 4.2092 14.0728C4.22765 14.0891 4.25491 14.0861 4.26998 14.0662C4.28374 14.048 4.28268 14.022 4.26842 14.0052C4.15865 13.8714 4.06532 13.7261 3.99315 13.5704C3.53982 12.567 3.97037 11.4559 4.24262 10.4604C4.28923 10.2844 4.33273 10.1051 4.3551 9.91933C4.35818 9.89379 4.3415 9.87041 4.31781 9.8671C4.29624 9.86405 4.27633 9.87884 4.27064 9.90069H4.27069Z" fill="black"/>
<path d="M7.57462 15.6168C7.60844 15.7036 7.65939 15.8108 7.70303 15.9557C7.70495 15.9624 7.70686 15.9691 7.70903 15.9761V15.9768C7.72017 16.0147 7.73065 16.0553 7.74008 16.0987C7.80705 16.4039 7.8321 16.6941 7.9336 16.7959C7.98047 16.8433 8.08066 16.8641 8.21124 16.8685C8.30307 16.8717 8.41011 16.8666 8.52401 16.8564C8.69229 16.8417 8.87549 16.8161 9.04699 16.7909C9.0483 16.7907 9.04936 16.7905 9.05062 16.7905C9.09986 16.7833 9.14804 16.7762 9.19471 16.7692C9.84932 16.6722 10.4386 16.4529 10.6169 16.3143C10.7225 16.192 10.7107 15.8969 10.5745 15.721C10.4228 15.5171 10.018 15.3654 9.88269 15.1894C9.75382 15.0218 9.74676 14.5545 9.45305 14.4409C9.39867 14.4199 9.15293 14.3899 8.61498 14.7637C7.9456 15.229 7.57638 15.2285 7.54131 15.2742C7.48053 15.3539 7.53229 15.5072 7.57467 15.6168H7.57462Z" fill="white"/>
<path d="M7.57457 15.6168C7.58611 15.6468 7.59982 15.6792 7.61484 15.7147C7.64266 15.7821 7.67436 15.8609 7.70303 15.9557C7.70495 15.9624 7.70686 15.9691 7.70903 15.9761V15.9768C7.72017 16.0147 7.73065 16.0553 7.74008 16.0987C7.80705 16.4039 7.8321 16.6941 7.9336 16.7959C7.98047 16.8433 8.08066 16.8641 8.21124 16.8685C8.30307 16.8717 8.41011 16.8666 8.52401 16.8564C8.69229 16.8417 8.87549 16.8161 9.04699 16.7909C9.0483 16.7907 9.04936 16.7905 9.05062 16.7905C9.09986 16.7833 9.14804 16.7762 9.19471 16.7692C9.84932 16.6722 10.4386 16.4529 10.6169 16.3143C10.7225 16.192 10.7107 15.8969 10.5745 15.721C10.4228 15.5171 10.018 15.3654 9.88269 15.1894C9.79726 15.0784 9.76536 14.8362 9.66819 14.652C9.61875 14.558 9.55238 14.4793 9.45305 14.4409C9.39867 14.4199 9.15293 14.3899 8.61498 14.7637C7.9456 15.229 7.57633 15.2285 7.54126 15.2742C7.48048 15.3538 7.53229 15.5072 7.57467 15.6168H7.57457Z" fill="white"/>
<path d="M7.57457 15.6168C7.58611 15.6468 7.59982 15.6792 7.61484 15.7147C7.64266 15.7821 7.67436 15.8609 7.70303 15.9557C7.70495 15.9624 7.70686 15.9691 7.70903 15.9761V15.9768C7.72017 16.0147 7.73065 16.0553 7.74008 16.0987C7.80705 16.4039 7.8321 16.6941 7.9336 16.7959C7.98047 16.8433 8.08066 16.8641 8.21124 16.8685C8.30307 16.8717 8.41011 16.8666 8.52401 16.8564C8.69229 16.8417 8.87549 16.8161 9.04699 16.7909C9.0483 16.7907 9.04936 16.7905 9.05062 16.7905C9.09986 16.7833 9.14804 16.7762 9.19471 16.7692C9.84932 16.6722 10.4386 16.4529 10.6169 16.3143C10.7225 16.192 10.7107 15.8969 10.5745 15.721C10.4228 15.5171 10.018 15.3654 9.88269 15.1894C9.79726 15.0784 9.76536 14.8362 9.66819 14.652C9.61875 14.558 9.55238 14.4793 9.45305 14.4409C9.39867 14.4199 9.15293 14.3899 8.61498 14.7637C7.9456 15.229 7.57633 15.2285 7.54126 15.2742C7.48048 15.3538 7.53229 15.5072 7.57467 15.6168H7.57457Z" fill="white"/>
<path d="M7.57457 15.6168C7.58611 15.6469 7.59977 15.6793 7.61488 15.7148C7.6426 15.7822 7.6743 15.8608 7.70303 15.9559C7.70495 15.9625 7.70681 15.9693 7.70913 15.9761V15.9768C7.72027 16.0148 7.73075 16.0553 7.73997 16.0988C7.80715 16.404 7.8321 16.6943 7.9335 16.7961C7.98052 16.8434 8.08066 16.8643 8.21119 16.8686C8.30312 16.8717 8.41016 16.8668 8.52396 16.8566C8.69229 16.8418 8.87553 16.816 9.04704 16.7909C9.0483 16.7907 9.04936 16.7905 9.05062 16.7905C9.09975 16.7835 9.14803 16.7762 9.1946 16.7692C9.84927 16.6722 10.4385 16.4529 10.6169 16.3143C10.7225 16.1921 10.7107 15.8971 10.5745 15.721C10.5122 15.6374 10.4076 15.5627 10.2964 15.4914C10.1612 15.4047 10.0162 15.3232 9.92633 15.2376C9.90975 15.2218 9.89503 15.2057 9.88268 15.1896C9.79726 15.0785 9.76536 14.8362 9.66819 14.6522C9.61885 14.5583 9.55233 14.4794 9.45304 14.441C9.39866 14.4201 9.15287 14.39 8.61513 14.7638C7.94575 15.229 7.57633 15.2285 7.54125 15.2743C7.48037 15.354 7.53223 15.5073 7.57462 15.6168L7.57457 15.6168Z" fill="white"/>
<path d="M8.56236 14.7991C8.60727 14.9462 8.70131 15.0821 8.78633 15.2068C8.99538 15.0873 9.19647 14.9623 9.37109 14.8493L9.22897 14.4507C9.09315 14.4849 8.89292 14.5702 8.61437 14.7638C8.60595 14.7694 8.59779 14.7751 8.58963 14.7807C8.5804 14.7871 8.57138 14.7932 8.56236 14.7991Z" fill="#FFB522"/>
<path d="M8.69755 15.0732C8.76932 15.1859 8.8493 15.2907 8.90096 15.3876C8.98744 15.3225 9.0651 15.2527 9.12891 15.1791L9.05502 14.7637C8.94758 14.8776 8.82561 14.9808 8.69755 15.0731V15.0732Z" fill="#FFB522"/>
<path d="M9.12571 15.5894L9.29761 15.9982C9.51866 15.6958 10.0128 15.5506 10.293 15.4913C10.1578 15.4046 10.0128 15.3232 9.9229 15.2375L9.12571 15.5894Z" fill="#E5E5E5"/>
<path d="M7.51402 15.3904C7.5184 15.464 7.54824 15.5488 7.5747 15.6168C7.58624 15.6469 7.5999 15.6793 7.61501 15.7148C7.64273 15.7822 7.67443 15.8608 7.70316 15.9559C7.70508 15.9625 7.70694 15.9693 7.70926 15.9761V15.9768C7.7204 16.0148 7.73088 16.0553 7.7401 16.0988C7.80728 16.404 7.83223 16.6943 7.93363 16.7961C7.98065 16.8434 8.08079 16.8643 8.21132 16.8686C8.30325 16.8717 8.41029 16.8668 8.52409 16.8566C8.69242 16.8418 8.87566 16.816 9.04717 16.7909C9.04843 16.7907 9.04949 16.7905 9.05075 16.7905C9.09988 16.7835 9.14816 16.7762 9.19473 16.7692C9.8494 16.6722 10.4386 16.4529 10.617 16.3144C10.6672 16.2562 10.6909 16.1591 10.6871 16.0543C10.6842 16.0583 10.6812 16.062 10.6781 16.0656C10.4999 16.2041 9.91114 16.4276 9.25602 16.5206C7.55645 16.7614 8.00983 16.5885 7.51407 15.3904L7.51402 15.3904Z" fill="#E8E8E8"/>
<path d="M9.00698 16.7961C9.05461 16.7895 9.10209 16.7827 9.14845 16.7759C9.16397 16.7736 9.17929 16.7714 9.19462 16.7691C9.35836 16.7449 9.51787 16.713 9.66795 16.6768C9.70555 16.6675 9.74249 16.6582 9.77878 16.6487C9.81486 16.639 9.85054 16.6293 9.88542 16.6193C9.92004 16.6094 9.95426 16.5991 9.98742 16.5888C10.195 16.5242 10.3694 16.4545 10.4903 16.392C10.5 16.387 10.5094 16.3821 10.5185 16.3771C10.5319 16.3696 10.5445 16.3624 10.5563 16.3553C10.564 16.3506 10.5718 16.346 10.5789 16.3413C10.5896 16.3343 10.5993 16.3275 10.6083 16.3209C10.6112 16.3189 10.6142 16.3166 10.6169 16.3144C10.6346 16.294 10.6488 16.2691 10.6598 16.2405C10.6636 16.231 10.6669 16.2211 10.6699 16.2109C10.6833 16.164 10.6892 16.1101 10.6871 16.0542C10.6842 16.0583 10.6812 16.0619 10.6781 16.0655C10.4999 16.2041 9.91112 16.4275 9.256 16.5205C9.17688 16.5318 9.10214 16.5421 9.03203 16.5513C9.01127 16.6369 9.00013 16.7216 9.00704 16.796L9.00698 16.7961Z" fill="#FFB522"/>
<path d="M8.52033 16.8565C8.68866 16.8418 8.87191 16.816 9.04341 16.7909C9.04467 16.7906 9.04573 16.7904 9.04699 16.7904C9.05349 16.7893 9.06019 16.7881 9.06675 16.7873C9.10913 16.7094 9.14693 16.6204 9.17969 16.5308C8.97502 16.5593 8.80332 16.5813 8.65852 16.5955C8.6174 16.6861 8.57144 16.7748 8.52043 16.8565H8.52033Z" fill="#FFB522"/>
<path d="M7.5131 15.3904C7.51749 15.464 7.54732 15.5488 7.57378 15.6168C7.58532 15.6469 7.59898 15.6793 7.6141 15.7148C7.64182 15.7822 7.67352 15.8608 7.70225 15.9559C7.70416 15.9625 7.70603 15.9693 7.70835 15.9761V15.9768C7.71948 16.0148 7.72997 16.0553 7.73919 16.0988C7.80637 16.404 7.83132 16.6943 7.93272 16.7961C7.97974 16.8434 8.07988 16.8643 8.21041 16.8686C8.2912 16.8607 8.37077 16.853 8.4375 16.8509C8.38105 16.7817 8.33484 16.6965 8.29437 16.6134C7.88025 16.6003 7.84875 16.4206 7.71757 15.9786C7.67035 15.8186 7.60967 15.6241 7.5131 15.3905V15.3904Z" fill="#FFB522"/>
<path d="M7.57445 15.6167C7.58599 15.6466 7.59964 15.6787 7.61431 15.7143C7.61451 15.7145 7.61471 15.7145 7.61471 15.7147C8.22342 15.5961 9.18919 14.9783 9.66797 14.652C9.66484 14.6461 9.66167 14.6405 9.65854 14.6346C9.64887 14.6173 9.63839 14.6008 9.6275 14.5848C9.62014 14.5743 9.61238 14.564 9.60442 14.5542C9.60044 14.5492 9.59625 14.5443 9.59202 14.5395C9.58844 14.5354 9.58466 14.5313 9.58088 14.5275C9.5775 14.5238 9.57418 14.5205 9.5708 14.5173C9.56788 14.5144 9.5647 14.5114 9.56158 14.5087C9.53028 14.4802 9.4944 14.4569 9.45287 14.4408C9.39849 14.42 9.1527 14.3899 8.61496 14.7637C8.60654 14.7693 8.59838 14.775 8.59021 14.7806C7.93595 15.2266 7.55353 15.1413 7.51488 15.1827C7.38329 15.3236 7.53211 15.5071 7.5745 15.6167H7.57445Z" fill="#2468FF"/>
<g opacity="0.2">
<path d="M8.56236 14.7991C8.60727 14.9462 8.70131 15.0821 8.78633 15.2068C8.99538 15.0873 9.19647 14.9623 9.37109 14.8493L9.22897 14.4507C9.09315 14.4849 8.89292 14.5702 8.61437 14.7638C8.60595 14.7694 8.59779 14.7751 8.58963 14.7807C8.5804 14.7871 8.57138 14.7932 8.56236 14.7991Z" fill="black"/>
</g>
<g opacity="0.7">
<path d="M7.46972 15.378C7.47768 15.3517 7.49195 15.3259 7.51483 15.3014C7.55343 15.26 7.9359 15.3454 8.59016 14.8994C8.59833 14.8937 8.60654 14.8881 8.61491 14.8824C9.15265 14.5086 9.39844 14.5387 9.45282 14.5596C9.4944 14.5757 9.53028 14.599 9.56153 14.6275C9.56465 14.6302 9.56783 14.6331 9.57075 14.636C9.57413 14.6392 9.57745 14.6426 9.58083 14.6462C9.58461 14.6501 9.58839 14.6541 9.59197 14.6582C9.59615 14.663 9.60039 14.668 9.60437 14.673C9.60835 14.6777 9.61213 14.6827 9.61591 14.6877C9.63375 14.6755 9.65119 14.6637 9.66797 14.6521C9.66484 14.6463 9.66167 14.6406 9.65854 14.6347C9.64887 14.6175 9.63839 14.6009 9.6275 14.5849C9.62014 14.5745 9.61238 14.5641 9.60442 14.5543C9.60044 14.5493 9.59625 14.5444 9.59202 14.5396C9.58844 14.5355 9.58466 14.5315 9.58088 14.5276C9.5775 14.524 9.57418 14.5206 9.5708 14.5174C9.56788 14.5145 9.5647 14.5116 9.56158 14.5088C9.53028 14.4803 9.4944 14.457 9.45287 14.441C9.39849 14.4201 9.1527 14.39 8.61496 14.7638C8.60654 14.7694 8.59838 14.7751 8.59021 14.7807C7.93595 15.2268 7.55353 15.1414 7.51488 15.1828C7.45863 15.2431 7.45359 15.3112 7.46977 15.378H7.46972Z" fill="white"/>
</g>
<path d="M2.24583 3.52661C2.79154 2.76555 2.65315 2.27084 2.41895 1.97806C2.12311 1.60821 1.65875 1.21912 1.08855 1.38763C0.276036 1.62778 -0.163534 2.48892 0.236927 3.28227C0.476216 3.75633 0.830712 3.98197 1.14172 4.08764C1.49102 4.2063 1.84144 4.09057 2.24583 3.52661Z" fill="black"/>
<g opacity="0.2">
<path d="M2.24586 3.52655C1.84137 4.09051 1.49085 4.2063 1.14174 4.08763C0.830538 3.98185 0.476191 3.75627 0.236852 3.28221C0.23156 3.27156 0.226268 3.26112 0.221178 3.25041C0.368239 3.41816 0.617355 3.58499 0.976086 3.43583C1.40638 3.25699 1.64895 2.16755 2.36424 1.91174C2.38314 1.93398 2.40139 1.9561 2.41892 1.97806C2.65312 2.27067 2.79156 2.76532 2.24586 3.52655Z" fill="black"/>
</g>
<g opacity="0.3">
<path d="M2.67578 2.35135C2.37239 1.93959 1.85526 1.44526 1.20795 1.63671C0.530802 1.83707 0.100708 2.44876 0.164108 3.1091C-0.0969021 2.36772 0.336015 1.61062 1.08951 1.38786C1.87053 1.15711 2.45292 1.97226 2.67578 2.35141V2.35135Z" fill="white"/>
</g>
<path d="M2.69914 2.3072C2.504 1.83739 2.07204 1.39318 1.59734 1.27576C1.34309 1.21244 1.07603 1.26429 0.84032 1.37768C0.370512 1.59365 -0.00217891 2.09309 0.000290394 2.65939C-0.00510216 3.07794 0.19281 3.46801 0.460422 3.75812C0.731663 4.04535 1.10083 4.2138 1.47453 4.25767C1.58797 4.26805 1.60692 4.09041 1.49423 4.07291C1.15374 4.0323 0.826158 3.88363 0.581023 3.62522C0.161865 3.17649 0.0138969 2.53322 0.386235 1.99535C0.585357 1.70829 0.906845 1.5139 1.23327 1.45645C1.57114 1.40361 1.8888 1.57022 2.14356 1.81113C2.31975 1.97834 2.4665 2.1706 2.62667 2.35748C2.65862 2.39678 2.7192 2.35515 2.69914 2.30715V2.3072Z" fill="black"/>
<path d="M7.50767 2.69336C6.78219 2.13353 6.78295 1.61686 6.92925 1.2638C7.11406 0.81785 7.4552 0.301233 8.04622 0.285904C8.88841 0.264106 9.5389 0.952657 9.36674 1.83668C9.26383 2.36493 8.98442 2.69091 8.71474 2.8885C8.4118 3.11045 8.04531 3.10822 7.50772 2.69336H7.50767Z" fill="#686779"/>
<path d="M7.50746 2.69347C8.04515 3.10828 8.41174 3.1105 8.71448 2.88867C8.98436 2.69092 9.26367 2.36499 9.36663 1.83674C9.3689 1.82489 9.37117 1.81325 9.37318 1.8014C9.37318 1.80119 9.37313 1.80091 9.37333 1.80091C9.5211 0.934179 8.87692 0.264327 8.04596 0.285907C7.49017 0.300421 7.15548 0.75806 6.96382 1.18352C6.95162 1.2107 6.94003 1.2375 6.92909 1.26397C6.78274 1.61686 6.78198 2.13353 7.50746 2.69353V2.69347Z" fill="black"/>
<g opacity="0.2">
<path d="M7.50928 2.6936C8.04697 3.1084 8.41356 3.11063 8.7163 2.8888C8.98618 2.69105 9.26549 2.36512 9.36845 1.83687C9.37072 1.82502 9.37298 1.81338 9.375 1.80153C9.27884 2.00782 9.08471 2.24477 8.70133 2.21313C8.2415 2.17519 7.71888 1.20691 6.96563 1.18359C6.95344 1.21077 6.94185 1.23757 6.93091 1.26404C6.78456 1.61693 6.7838 2.13361 7.50928 2.6936Z" fill="black"/>
</g>
<g opacity="0.3">
<path d="M6.78383 1.70058C6.96471 1.21218 7.32833 0.578363 7.99933 0.561077C8.70132 0.543084 9.27625 0.995613 9.39141 1.6478C9.44388 0.856784 8.82751 0.265805 8.04645 0.286026C7.23691 0.307063 6.89627 1.26838 6.78383 1.70063V1.70058Z" fill="white"/>
</g>
<path d="M6.83104 1.69188C7.02361 1.25734 7.21094 0.751 7.6182 0.510793C7.81314 0.390281 8.03716 0.367614 8.25946 0.39501C8.70186 0.443008 9.1322 0.752087 9.26233 1.22185C9.39362 1.68422 9.22624 2.21828 8.92986 2.56715C8.7769 2.74697 8.58322 2.88628 8.37331 2.98364C8.32927 3.0037 8.3087 3.05871 8.3276 3.10605C8.34645 3.15324 8.3971 3.17503 8.44085 3.15476C8.67076 3.04816 8.88495 2.89476 9.05656 2.69326C9.14238 2.59286 9.21702 2.48121 9.27906 2.36195C9.45807 2.00118 9.5437 1.56615 9.42703 1.16695C9.25905 0.553083 8.66441 0.180623 8.09114 0.187037C7.61342 0.173937 7.2319 0.490735 6.99856 0.919292C6.86879 1.14933 6.77742 1.4021 6.74809 1.66617C6.74279 1.7189 6.80992 1.73944 6.83094 1.69188H6.83104Z" fill="black"/>
<path d="M5.12666 9.23392C5.12666 9.23392 2.39062 9.62682 1.49595 8.07376C1.0268 7.25943 1.14105 6.1913 1.141 6.1901C1.14367 6.14172 0.582696 3.37469 2.77021 1.85784C3.38698 1.43015 3.99609 1.24555 4.60721 1.14086C5.22045 1.05171 5.85309 1.03975 6.55775 1.25816C9.05718 2.03298 9.25711 4.85719 9.27258 4.90269C9.27283 4.90389 9.66684 5.89151 9.43446 6.81696C8.99131 8.58179 6.266 9.05356 6.266 9.05356" fill="white"/>
<path d="M5.12666 9.23392C5.12666 9.23392 2.39062 9.62682 1.49595 8.07376C1.0268 7.25943 1.14105 6.1913 1.141 6.1901C1.14367 6.14172 0.582696 3.37469 2.77021 1.85784C3.38698 1.43015 3.99609 1.24555 4.60721 1.14086C5.22045 1.05171 5.85309 1.03975 6.55775 1.25816C9.05718 2.03298 9.25711 4.85719 9.27258 4.90269C9.27283 4.90389 9.66684 5.89151 9.43446 6.81696C8.99131 8.58179 6.266 9.05356 6.266 9.05356L5.12661 9.23398L5.12666 9.23392Z" fill="white"/>
<g opacity="0.2">
<path d="M1.13381 6.69516C1.15276 7.07849 1.23229 7.6162 1.49592 8.07373C2.39063 9.62689 5.12663 9.234 5.12663 9.234L6.26597 9.05358C6.26597 9.05358 8.99143 8.58192 9.43437 6.81697C9.55311 6.34433 9.50851 5.85544 9.43629 5.48999C9.44662 5.73411 9.43024 5.99584 9.36583 6.25274C8.92269 8.01768 6.19743 8.48935 6.19743 8.48935L5.05808 8.66976C5.05808 8.66976 2.32204 9.06266 1.42738 7.50971C1.2776 7.24983 1.18728 6.96385 1.13381 6.6951V6.69516Z" fill="black"/>
</g>
<path d="M5.11742 9.18781C4.17977 9.19455 3.19016 9.21597 2.33285 8.75029C2.05057 8.59178 1.79455 8.37815 1.61589 8.09506C1.26971 7.56159 1.18328 6.78242 1.2304 6.19601C1.06071 5.05711 1.22818 3.81373 1.87902 2.87551C2.11694 2.5292 2.4161 2.23099 2.74833 1.9916C3.30195 1.57869 3.95495 1.34735 4.61682 1.23738C5.14817 1.1584 5.69332 1.14905 6.21957 1.26885C6.74204 1.38502 7.24955 1.60897 7.67818 1.95403C8.55203 2.65085 9.04804 3.78992 9.18724 4.93486C9.39322 5.50154 9.51327 6.28891 9.30482 6.9193C9.03232 7.71765 8.3069 8.20078 7.61201 8.52421C7.17325 8.72338 6.71292 8.86487 6.25566 9.00756C6.20435 9.02072 6.21705 9.10399 6.26931 9.09937C7.00048 9.02371 7.70434 8.74099 8.3387 8.3469C8.81647 8.0401 9.25568 7.60589 9.4604 7.03329C9.6952 6.34196 9.59385 5.5647 9.35839 4.89034L9.35411 4.87881C9.35441 4.87968 9.35436 4.88072 9.35391 4.8818L9.35078 4.87039C9.35189 4.87196 9.35265 4.87381 9.35295 4.87571C9.35305 4.87648 9.3531 4.87729 9.35295 4.8755L9.35124 4.86229L9.34771 4.83511C9.14894 3.27074 8.28124 1.80542 6.85993 1.26635C6.40136 1.08279 5.91169 0.989781 5.42319 0.98391C4.45122 0.981084 3.45596 1.23184 2.64551 1.827C2.29555 2.07857 1.98158 2.39123 1.73049 2.75636C1.06524 3.71914 0.872169 4.98166 1.03793 6.15079L1.04186 6.17786L1.04377 6.19101C1.04408 6.19286 1.04387 6.19188 1.04377 6.19101C1.04352 6.18867 1.04377 6.18634 1.04443 6.18411V6.19683C1.04377 6.19558 1.04347 6.19422 1.04352 6.19297L1.04251 6.20536L1.0405 6.23091C1.00023 6.96952 1.12658 7.78989 1.58303 8.36842C2.25554 9.19504 3.43474 9.3735 4.40213 9.36883C4.64676 9.3623 4.88932 9.34002 5.12876 9.27995C5.17921 9.26582 5.16807 9.18651 5.11737 9.18776L5.11742 9.18781Z" fill="black"/>
<path d="M6.81274 6.2781C6.56216 6.26174 5.96722 6.09198 5.84959 5.15154C5.73413 4.22865 6.02432 3.87777 6.5663 3.77851C7.10832 3.67925 7.90602 3.862 8.3917 4.32856C8.73773 4.66096 8.89568 5.28803 8.80113 5.57357C8.61426 6.13797 7.06332 6.29441 6.81274 6.27805V6.2781Z" fill="#B6B6B6"/>
<path d="M3.91349 6.73717C4.1491 6.64384 4.67374 6.29687 4.53586 5.35958C4.40054 4.43979 4.02911 4.19372 3.48355 4.26666C2.93795 4.33961 2.2226 4.76192 1.88171 5.35931C1.63884 5.78493 1.65462 6.43451 1.82128 6.67874C2.15063 7.16138 3.67788 6.83051 3.91349 6.73717Z" fill="#B6B6B6"/>
<path d="M3.44952 6.38433C3.09371 6.38433 2.80528 6.03539 2.80528 5.60494C2.80528 5.1745 3.09371 4.82556 3.44952 4.82556C3.80532 4.82556 4.09375 5.1745 4.09375 5.60494C4.09375 6.03539 3.80532 6.38433 3.44952 6.38433Z" fill="black"/>
<path d="M3.59493 6.0727C3.47527 6.06729 3.38371 5.92273 3.39043 5.74981C3.39715 5.57689 3.4996 5.44109 3.61927 5.4465C3.73893 5.45191 3.83049 5.59648 3.82377 5.7694C3.81705 5.94232 3.7146 6.07811 3.59493 6.0727Z" fill="white"/>
<g opacity="0.35">
<path d="M3.09815 5.56042C3.02727 5.53851 2.99431 5.42853 3.02453 5.31477C3.05476 5.201 3.13672 5.12654 3.2076 5.14844C3.27848 5.17035 3.31144 5.28033 3.28121 5.3941C3.25099 5.50786 3.16902 5.58233 3.09815 5.56042Z" fill="white"/>
</g>
<path d="M7.52485 2.71654C7.56527 2.62 7.10972 1.88682 6.4864 2.22406C6.26188 2.34555 6.27368 2.59722 6.46388 2.62109C6.64511 2.64381 6.71803 2.59059 7.00223 2.65011C7.16304 2.68381 7.48448 2.81308 7.52485 2.71654Z" fill="black"/>
<path d="M2.30619 3.5475C2.24163 3.4677 2.48122 2.6238 3.1683 2.7523C3.41575 2.79856 3.47199 3.04322 3.29626 3.1253C3.12883 3.20353 3.04482 3.17531 2.7887 3.32094C2.64381 3.40329 2.37075 3.6273 2.30619 3.5475Z" fill="black"/>
<path d="M9.00694 16.796C9.07055 16.7873 9.13349 16.7783 9.19462 16.7691C9.84919 16.6724 10.4385 16.453 10.617 16.3143C10.718 16.1972 10.7114 15.9216 10.5911 15.7439C10.3499 15.9859 9.77218 16.2497 9.25178 16.0151C9.25178 16.0151 8.97857 16.4923 9.00694 16.796V16.796Z" fill="#2468FF"/>
<g opacity="0.2">
<path d="M9.00704 16.7961C9.05466 16.7895 9.10214 16.7827 9.1485 16.7759C9.16402 16.7736 9.17934 16.7714 9.19467 16.7691C9.35841 16.7449 9.51792 16.713 9.668 16.6768C9.7056 16.6675 9.74254 16.6582 9.77883 16.6487C9.81491 16.6392 9.85059 16.6295 9.88547 16.6193C9.92009 16.6094 9.95431 16.5991 9.98747 16.5888C10.1951 16.5244 10.3695 16.4547 10.4904 16.392C10.5001 16.387 10.5095 16.3821 10.5185 16.3771C10.532 16.3699 10.5445 16.3626 10.5563 16.3553C10.5641 16.3506 10.5718 16.346 10.579 16.3413C10.5897 16.3345 10.5994 16.3277 10.6084 16.3209C10.6113 16.3189 10.6143 16.3166 10.617 16.3144H10.6172C10.6346 16.2942 10.6489 16.2691 10.6598 16.2405C10.6636 16.231 10.6669 16.2211 10.6699 16.2109C10.6833 16.164 10.6892 16.1101 10.6871 16.0542C10.6842 16.0583 10.6812 16.0619 10.6781 16.0655C10.4999 16.2041 9.91112 16.4275 9.256 16.5205C9.17688 16.5318 9.10214 16.5421 9.03203 16.5513C9.01127 16.6369 9.00013 16.7216 9.00704 16.796V16.7961Z" fill="black"/>
</g>
<path d="M7.57439 15.6169C7.6082 15.7037 7.65916 15.8108 7.7028 15.9558C8.07549 15.8452 8.79386 15.5656 9.12891 15.1791L9.05507 14.7638C8.61303 15.2318 7.92677 15.5208 7.57439 15.6169Z" fill="#2468FF"/>
<g opacity="0.2">
<path d="M8.69755 15.0732C8.76932 15.1859 8.8493 15.2907 8.90096 15.3876C8.98744 15.3225 9.0651 15.2527 9.12891 15.1791L9.05502 14.7637C8.94758 14.8776 8.82561 14.9808 8.69755 15.0731V15.0732Z" fill="black"/>
</g>
<path d="M7.7006 16.0256C7.70629 16.0256 7.71204 16.0248 7.71778 16.0231C8.19349 15.882 8.8603 15.5887 9.17398 15.2268C9.18809 15.2106 9.19413 15.188 9.19025 15.1661L9.11642 14.7507C9.11194 14.7255 9.0949 14.705 9.07217 14.6973C9.04944 14.6896 9.02465 14.6961 9.00761 14.7141C8.56613 15.1815 7.88767 15.4591 7.55641 15.5493C7.53817 15.5543 7.52284 15.5677 7.51443 15.5858C7.50601 15.604 7.50536 15.6252 7.51266 15.644C7.52214 15.6682 7.53282 15.694 7.54436 15.7217C7.57445 15.7938 7.60857 15.8757 7.63921 15.9775C7.64803 16.0068 7.67333 16.0257 7.7007 16.0257L7.7006 16.0256ZM9.0569 15.1568C8.76555 15.4719 8.18406 15.7325 7.74182 15.8708C7.71461 15.7901 7.68608 15.7217 7.66219 15.6644C7.66204 15.664 7.66184 15.6636 7.66164 15.6631C8.00137 15.5586 8.58508 15.3052 9.01129 14.9006L9.05685 15.1568H9.0569Z" fill="black"/>
<path d="M9.32937 16.0681C9.33663 16.0681 9.34388 16.0668 9.35089 16.0641C9.37191 16.0561 9.38763 16.0369 9.39247 16.0134L9.39705 15.9908C9.4028 15.9612 9.3903 15.9311 9.36606 15.916L9.33003 15.8936C9.30624 15.8788 9.2764 15.8818 9.25554 15.9012C9.23472 15.9205 9.22752 15.952 9.23754 15.9795C9.24384 15.9969 9.24853 16.0063 9.24853 16.0063C9.24999 16.0092 9.25201 16.0127 9.25382 16.0154C9.2566 16.0194 9.26733 16.034 9.28895 16.0527C9.30059 16.0628 9.31486 16.068 9.32932 16.068L9.32937 16.0681Z" fill="#232333"/>
<path d="M9.29923 16.0237C9.30725 16.0237 9.31536 16.0222 9.32322 16.0187C9.35638 16.0044 9.37251 15.9638 9.35926 15.9281C9.34197 15.8815 9.30826 15.7582 9.36843 15.6198C9.43894 15.4578 9.61271 15.3274 9.88491 15.2325C9.91887 15.2206 9.93752 15.1813 9.92653 15.1446C9.91555 15.108 9.87911 15.0879 9.84509 15.0997C9.53746 15.207 9.33769 15.3621 9.25136 15.5606C9.16966 15.7484 9.21562 15.9164 9.23921 15.9799C9.24934 16.0071 9.27363 16.0237 9.29928 16.0237H9.29923Z" fill="#232333"/>
<path d="M9.69789 16.1688C9.79994 16.1688 9.92357 16.1556 10.0728 16.1219C10.3605 16.0567 10.5502 15.9361 10.6367 15.7631C10.6537 15.7292 10.642 15.6869 10.6105 15.6687C10.5791 15.6504 10.5399 15.663 10.523 15.6969C10.4563 15.8302 10.2915 15.9299 10.0463 15.9854C9.58686 16.0891 9.41339 15.9797 9.37116 15.9436C9.34319 15.9198 9.30252 15.9248 9.28034 15.955C9.25822 15.9853 9.26296 16.0291 9.29093 16.053C9.34959 16.103 9.47004 16.1688 9.69784 16.1688H9.69789Z" fill="black"/>
<path d="M8.26697 16.9392C8.34186 16.9392 8.42748 16.9348 8.52666 16.926C8.69509 16.9112 8.8792 16.8856 9.05297 16.8601C9.05322 16.8601 9.05352 16.86 9.05383 16.86C9.05473 16.8599 9.05564 16.8598 9.0565 16.8596C9.1011 16.8532 9.14484 16.8467 9.18743 16.8404L9.20079 16.8384C9.84925 16.7423 10.459 16.521 10.652 16.371C10.6554 16.3684 10.6586 16.3653 10.6615 16.3619C10.7944 16.2079 10.7749 15.8747 10.6214 15.6764C10.5354 15.5608 10.3821 15.4654 10.2339 15.3732C10.1125 15.2976 9.98699 15.2195 9.92974 15.1451C9.89199 15.096 9.86311 15.0044 9.83257 14.9073C9.76988 14.7082 9.69186 14.4604 9.47218 14.3754C9.42707 14.3579 9.17201 14.2919 8.57726 14.7052C8.07888 15.0516 7.73759 15.0831 7.59189 15.0965C7.52783 15.1024 7.4925 15.1056 7.4667 15.1333C7.3279 15.2819 7.4222 15.4644 7.47849 15.5735C7.49205 15.5997 7.5048 15.6245 7.51226 15.6438C7.51226 15.6438 7.51226 15.6439 7.51226 15.6439C7.52173 15.6681 7.53242 15.6939 7.54396 15.7216C7.57405 15.7938 7.60817 15.8756 7.63881 15.9774C7.64022 15.9823 7.64183 15.9878 7.64354 15.9936C7.6439 15.995 7.64425 15.9965 7.64465 15.998C7.65574 16.0357 7.66572 16.075 7.67439 16.1147C7.69157 16.193 7.70589 16.27 7.71975 16.3445C7.76263 16.5746 7.79645 16.7565 7.88676 16.8471C7.94296 16.9038 8.04456 16.9329 8.20644 16.9382C8.22579 16.939 8.2459 16.9393 8.26681 16.9393L8.26697 16.9392ZM9.04178 16.721C9.03911 16.7212 9.03654 16.7216 9.03372 16.7221C8.86357 16.7471 8.68159 16.7724 8.51608 16.787C8.39578 16.7977 8.29307 16.8016 8.21067 16.7988C8.04653 16.7932 7.99265 16.7627 7.97511 16.7451C7.91514 16.6849 7.88183 16.5061 7.84665 16.3169C7.83259 16.2413 7.81802 16.1632 7.80033 16.0827C7.79131 16.0411 7.78088 15.9999 7.76929 15.9601C7.76883 15.958 7.76833 15.956 7.76772 15.9541C7.76571 15.9477 7.76395 15.9414 7.76213 15.9352C7.72907 15.8254 7.69188 15.7361 7.66199 15.6644C7.65095 15.6379 7.64067 15.6132 7.6316 15.59C7.62132 15.5635 7.60681 15.5354 7.59148 15.5056C7.53196 15.3904 7.49654 15.3085 7.55006 15.2413C7.56185 15.2392 7.58342 15.2372 7.60292 15.2354C7.75825 15.2211 8.12197 15.1876 8.64737 14.8224C9.21212 14.43 9.42647 14.5059 9.42858 14.5067C9.58955 14.5689 9.65089 14.7637 9.71021 14.9521C9.74473 15.0617 9.77734 15.1652 9.83025 15.2341C9.90232 15.3278 10.032 15.4085 10.1694 15.494C10.3073 15.5797 10.4498 15.6684 10.5215 15.7647C10.6395 15.9173 10.6464 16.1658 10.5709 16.262C10.4061 16.385 9.83993 16.6028 9.18325 16.7001L9.16984 16.7021C9.12821 16.7083 9.08543 16.7146 9.04178 16.721Z" fill="black"/>
<path d="M7.70814 15.9761V15.9768C7.71928 16.0147 7.72976 16.0553 7.73919 16.0987C7.80617 16.4039 7.83121 16.6941 7.93272 16.796C7.97959 16.8433 8.07978 16.8641 8.21036 16.8685C8.29104 16.8606 8.37067 16.8528 8.4375 16.8509C8.32531 16.7133 8.2534 16.5133 8.18748 16.3901C8.0505 16.1338 7.86705 16.0153 7.70819 15.9761H7.70814Z" fill="#2468FF"/>
<g opacity="0.2">
<path d="M7.70835 15.9761V15.9768C7.71948 16.0148 7.72997 16.0553 7.73919 16.0988C7.80637 16.404 7.83132 16.6942 7.93272 16.7961C7.97974 16.8434 8.07988 16.8643 8.21041 16.8686C8.2912 16.8606 8.37077 16.853 8.4375 16.8509C8.38105 16.7817 8.33484 16.6965 8.29437 16.6134C7.88025 16.6003 7.84875 16.4206 7.71757 15.9786C7.71444 15.9777 7.71147 15.9768 7.70835 15.9761V15.9761Z" fill="black"/>
</g>
<path d="M8.20818 16.9382C8.21015 16.9382 8.21206 16.9381 8.21398 16.938L8.22053 16.9373C8.2995 16.9296 8.37409 16.9224 8.43699 16.9207C8.46209 16.92 8.48451 16.9037 8.49459 16.8789C8.50462 16.854 8.50049 16.8252 8.48391 16.8049C8.41083 16.7153 8.35454 16.5937 8.3049 16.4865C8.28282 16.439 8.26201 16.394 8.24135 16.3553C8.0707 16.0361 7.84179 15.9381 7.72054 15.9082C7.70143 15.9034 7.68117 15.9083 7.6658 15.9216C7.65038 15.9348 7.64141 15.9549 7.64141 15.9761V15.9768C7.64141 15.9839 7.64247 15.9911 7.64443 15.9979C7.65552 16.0357 7.6655 16.0749 7.67417 16.1146C7.69135 16.1929 7.70567 16.27 7.71953 16.3444C7.76242 16.5746 7.79623 16.7564 7.88655 16.8471C7.94274 16.9038 8.04434 16.9328 8.20622 16.9382C8.20692 16.9382 8.20758 16.9382 8.20823 16.9382L8.20818 16.9382ZM8.3114 16.7888C8.27834 16.7916 8.24407 16.795 8.20889 16.7984L8.20632 16.7986C8.0453 16.7928 7.99213 16.7626 7.97474 16.7451C7.91477 16.6849 7.88146 16.5061 7.84628 16.317C7.83232 16.2419 7.81785 16.1643 7.80037 16.0844C7.90066 16.1341 8.0261 16.232 8.12926 16.425C8.14806 16.4601 8.16802 16.5032 8.18913 16.5489C8.22492 16.6262 8.26397 16.7105 8.3114 16.7889V16.7888Z" fill="black"/>
<path d="M8.5233 16.8565C8.69158 16.8417 8.87477 16.8161 9.04628 16.791C9.04759 16.7908 9.04864 16.7905 9.0499 16.7905C9.05656 16.7894 9.06316 16.7883 9.06961 16.7873C9.2201 16.511 9.31172 16.097 9.33203 15.9984C9.31535 15.9838 9.3085 15.9741 9.3085 15.9741C9.3085 15.9741 9.30507 15.967 9.30038 15.954L8.93732 15.7273C8.93732 15.7273 8.80759 16.4012 8.5233 16.8565Z" fill="#2468FF"/>
<g opacity="0.2">
<path d="M8.52033 16.8565C8.68866 16.8418 8.87191 16.816 9.04341 16.7909C9.04467 16.7906 9.04573 16.7904 9.04699 16.7904C9.05349 16.7893 9.06019 16.7881 9.06675 16.7873C9.10913 16.7094 9.14693 16.6204 9.17969 16.5308C8.97502 16.5593 8.80332 16.5813 8.65852 16.5955C8.6174 16.6861 8.57144 16.7748 8.52043 16.8565H8.52033Z" fill="black"/>
</g>
<path d="M8.52117 16.9262C8.52293 16.9262 8.5247 16.9261 8.52641 16.926C8.69494 16.9112 8.87905 16.8855 9.05282 16.86C9.05307 16.86 9.05337 16.8599 9.05367 16.8599C9.05508 16.8597 9.0565 16.8596 9.05791 16.8593C9.06557 16.858 9.07091 16.857 9.07605 16.8563C9.09576 16.8535 9.11314 16.841 9.12322 16.8225C9.28092 16.5328 9.37561 16.0977 9.393 16.0134C9.39829 15.9876 9.38963 15.9607 9.37057 15.9441C9.36629 15.9403 9.36307 15.9372 9.3608 15.9349C9.36009 15.9331 9.35929 15.9309 9.35838 15.9285C9.35304 15.9138 9.34326 15.9015 9.33061 15.8936L8.96754 15.6669C8.94955 15.6556 8.92768 15.6544 8.90873 15.6636C8.88978 15.6727 8.87607 15.6911 8.87184 15.713C8.87058 15.7196 8.74116 16.3792 8.46755 16.8175C8.45369 16.8397 8.45283 16.8686 8.46538 16.8917C8.47702 16.9132 8.49834 16.9262 8.52117 16.9262V16.9262ZM9.05004 16.8601C9.04929 16.8601 9.04858 16.8601 9.04783 16.8601C9.04858 16.8601 9.04934 16.8601 9.05004 16.8601ZM9.02696 16.723C8.90203 16.7413 8.77094 16.7598 8.64485 16.7739C8.82945 16.4281 8.93675 16.0166 8.97843 15.8348L9.2474 16.0027C9.24836 16.0049 9.24886 16.006 9.24886 16.006C9.25053 16.0094 9.2528 16.0133 9.25496 16.0164C9.25567 16.0174 9.25688 16.019 9.25864 16.0212C9.23067 16.1484 9.14998 16.4826 9.02691 16.7231L9.02696 16.723Z" fill="black"/>
<path d="M9.74609 15.0637C9.74609 15.0637 9.68662 15.0007 9.60281 14.6301C9.55514 14.4192 9.42718 14.1404 8.95747 14.366C8.67212 14.503 8.7394 14.7179 8.82387 14.9244C8.90032 15.1112 9.03508 15.2838 9.09758 15.3475C9.18738 15.439 9.74604 15.0637 9.74604 15.0637H9.74609Z" fill="white"/>
<path d="M8.82381 14.9245C8.84503 14.9761 8.87043 15.0266 8.8977 15.0739C8.96906 15.1982 9.05217 15.3014 9.09753 15.3476C9.18738 15.4391 9.74609 15.0637 9.74609 15.0637C9.74609 15.0637 9.69655 15.0114 9.62413 14.7207C9.61723 14.6929 9.61007 14.6627 9.60271 14.6301C9.55509 14.4191 9.42703 14.1404 8.95747 14.3659C8.67202 14.5029 8.7394 14.718 8.82376 14.9245H8.82381Z" fill="white"/>
<path d="M8.8977 15.0739C8.96906 15.1982 9.05217 15.3015 9.09753 15.3476C9.18738 15.4391 9.74609 15.0637 9.74609 15.0637C9.74609 15.0637 9.69655 15.0114 9.62413 14.7207C9.36932 14.7302 9.02027 14.835 8.89765 15.0739L8.8977 15.0739Z" fill="#E5E5E5"/>
<path d="M9.13867 15.4321C9.20197 15.4321 9.30432 15.4 9.48354 15.3022C9.63524 15.2194 9.77328 15.1268 9.77907 15.123C9.79706 15.1109 9.81128 15.0928 9.81238 15.07C9.81344 15.0478 9.80729 15.029 9.79157 15.0152C9.7826 15.0016 9.73301 14.9171 9.66447 14.6136C9.62314 14.4308 9.5485 14.3131 9.43632 14.2537C9.30841 14.186 9.13806 14.2023 8.92997 14.3023C8.56852 14.4759 8.69537 14.786 8.76356 14.9525C8.84167 15.1434 8.97886 15.3236 9.05203 15.3982C9.07078 15.4173 9.09573 15.4321 9.13872 15.4321H9.13867ZM9.65671 15.0402C9.42256 15.1917 9.19451 15.3026 9.13635 15.2923C9.07204 15.2251 8.95013 15.0632 8.88184 14.8962C8.78296 14.6546 8.77404 14.5299 8.98259 14.4297C9.15394 14.3474 9.28754 14.3303 9.37937 14.379C9.45501 14.419 9.50718 14.5066 9.53888 14.6467C9.58655 14.8577 9.62753 14.9752 9.65676 15.0401L9.65671 15.0402Z" fill="black"/>
<path d="M9.34837 15.6938C9.34837 15.6938 9.50112 15.9138 9.37276 16.0629C9.22232 16.2378 8.90673 16.0648 8.79006 15.7749C8.63776 15.3964 9.00944 15.0527 9.35084 14.9171C9.79635 14.7402 9.92421 14.9788 9.92184 15.1552C9.91952 15.3316 9.34832 15.6938 9.34832 15.6938H9.34837Z" fill="#2468FF"/>
<g opacity="0.7">
<path d="M8.78702 15.7748C8.80969 15.8314 8.84013 15.8835 8.87536 15.9295C8.86634 15.912 8.85793 15.8941 8.85062 15.8756C8.69842 15.4971 9.06995 15.1534 9.41149 15.018C9.6657 14.917 9.81639 14.9512 9.89844 15.0322C9.84764 14.8925 9.69317 14.78 9.34789 14.917C9.0064 15.0526 8.63486 15.3963 8.78702 15.7748Z" fill="white"/>
</g>
<path d="M9.21532 16.2027C9.2953 16.2027 9.3658 16.1709 9.41796 16.1103C9.53322 15.9763 9.4794 15.8083 9.4352 15.7174C9.61497 15.5987 9.98197 15.3345 9.98433 15.1561C9.986 15.0326 9.9358 14.9197 9.85018 14.8543C9.72968 14.7624 9.55343 14.7615 9.32634 14.8516C9.10615 14.939 8.83365 15.1263 8.72913 15.3897C8.67425 15.5281 8.67404 15.667 8.72857 15.8025C8.80936 16.0033 8.9851 16.1656 9.15595 16.1971C9.17616 16.2008 9.19601 16.2027 9.21527 16.2027H9.21532ZM9.29429 15.7354C9.2955 15.7371 9.41293 15.9111 9.32317 16.0154C9.28819 16.0561 9.23915 16.0709 9.17777 16.0596C9.04961 16.036 8.91056 15.9045 8.84716 15.747C8.80735 15.6481 8.80765 15.5463 8.84802 15.4446C8.92079 15.2612 9.12611 15.0797 9.37099 14.9825C9.55313 14.9102 9.69294 14.9053 9.77539 14.9682C9.84871 15.0242 9.85547 15.1169 9.85501 15.1541C9.85406 15.2272 9.60096 15.4512 9.31334 15.6336C9.29751 15.6437 9.28633 15.6606 9.28275 15.68C9.27912 15.6994 9.2833 15.7196 9.29429 15.7354V15.7354Z" fill="black"/>
<path d="M10.1914 15.4274C10.1914 15.4274 9.70083 15.4056 9.28677 15.8522C9.28677 15.8522 9.00666 15.9258 9.05902 15.6454C9.1141 15.3508 9.73803 15.082 9.89975 15.1247C10.055 15.1658 10.1828 15.2849 10.1914 15.4275L10.1914 15.4274Z" fill="white"/>
<path d="M9.05267 15.7184C9.05917 15.9119 9.28672 15.8521 9.28672 15.8521C9.70063 15.4055 10.1914 15.4274 10.1914 15.4274C10.187 15.3561 10.153 15.2909 10.1007 15.2382C10.1068 15.2578 10.1106 15.278 10.1119 15.2988C10.1119 15.2988 9.66097 15.2787 9.259 15.6704C9.21011 15.7181 9.14333 15.7414 9.07888 15.7266C9.07001 15.7245 9.06124 15.7218 9.05272 15.7184H9.05267Z" fill="#E5E5E5"/>
<path d="M9.21058 15.9308C9.25599 15.9308 9.29213 15.922 9.29989 15.9199C9.31143 15.9169 9.32191 15.9105 9.33033 15.9015C9.71975 15.4815 10.1818 15.4971 10.1866 15.4971C10.205 15.4983 10.2227 15.4903 10.2355 15.4762C10.2483 15.4621 10.255 15.4427 10.2538 15.423C10.2437 15.2554 10.1068 15.1083 9.91303 15.0571C9.77635 15.0209 9.47477 15.1407 9.27857 15.275C9.16432 15.3533 9.0221 15.4787 8.99347 15.6317C8.97412 15.7353 8.99055 15.8151 9.04241 15.8687C9.09059 15.9186 9.15701 15.9309 9.21058 15.9309V15.9308ZM9.25312 15.7877C9.21663 15.7937 9.15751 15.7946 9.13191 15.7679C9.10984 15.7449 9.11342 15.696 9.12032 15.6592C9.13559 15.5774 9.21643 15.4827 9.34797 15.3927C9.55666 15.2497 9.81208 15.1739 9.88228 15.1924C9.98711 15.2201 10.0703 15.2847 10.106 15.3608C9.94332 15.3747 9.57894 15.4456 9.25312 15.7877Z" fill="black"/>
<path d="M8.6875 15.9675L8.50733 16.3504L7.88285 15.9172L8.46474 16.1309L8.6875 15.9675Z" fill="black"/>
<path d="M7.87884 5.35096C7.8543 4.94328 7.56885 4.5544 7.18643 4.47971C6.74973 4.39404 6.3655 4.66121 6.31964 5.14886C6.3089 5.26377 6.31777 5.37645 6.34448 5.48289C6.35406 5.52099 6.39045 5.54355 6.42578 5.53322C6.45123 5.52577 6.46917 5.50338 6.4737 5.47712C6.52355 5.22697 6.57727 4.93398 6.80613 4.81869C7.23088 4.63077 7.6009 4.94659 7.75199 5.37819C7.77724 5.45457 7.88283 5.43152 7.87879 5.35085L7.87884 5.35096Z" fill="black"/>
<path d="M6.03607 6.50121C5.96662 6.72174 5.6219 6.76017 5.50684 6.56666C5.44626 6.48006 5.42585 6.35732 5.40373 6.25269C5.36406 6.2591 5.28554 6.27128 5.24588 6.27769C5.24996 6.34422 5.25903 6.42935 5.25238 6.49556C5.24225 6.71234 5.08748 6.83045 4.89405 6.81431C4.82078 6.80741 4.75284 6.77756 4.70703 6.71163C4.69302 6.68978 4.66474 6.68467 4.64504 6.7007C4.59066 6.74723 4.6845 6.86089 4.72315 6.89362C4.94425 7.07767 5.3183 6.96994 5.40494 6.67717C5.44142 6.56568 5.44399 6.45229 5.42132 6.33857L5.3494 6.4493L5.35081 6.44908L5.25243 6.36531C5.25354 6.38363 5.2549 6.39576 5.25672 6.41027C5.29688 6.70935 5.51601 6.92178 5.80237 6.85415C5.95462 6.82127 6.11141 6.69527 6.12104 6.51676C6.12225 6.49094 6.10385 6.46892 6.07991 6.46762C6.05945 6.46647 6.04151 6.48088 6.03602 6.50121H6.03607Z" fill="black"/>
<path d="M4.81626 6.05301C4.83183 6.16678 4.98323 6.24538 5.11895 6.29354C5.26087 6.34393 5.40894 6.32034 5.53125 6.22782C5.64823 6.13938 5.77205 6.01691 5.75648 5.90314C5.70946 5.55992 4.76924 5.70974 4.81626 6.05301Z" fill="black"/>
<g opacity="0.5">
<path d="M5.09177 5.94048C5.09626 5.97331 5.15482 5.99358 5.20759 6.00527C5.26282 6.0175 5.32149 6.00815 5.37108 5.97923C5.41845 5.95157 5.46905 5.9139 5.46457 5.88106C5.45101 5.78208 5.07822 5.84149 5.09177 5.94048Z" fill="white"/>
</g>
<path d="M4.96479 6.89876C4.70761 6.873 4.72989 6.57153 4.44025 6.54549C4.28321 6.53136 4.17496 6.70394 4.24945 6.86903C4.33039 7.0483 4.5915 7.10184 4.73538 7.05749C4.88799 7.01047 4.96484 6.89876 4.96484 6.89876H4.96479Z" fill="#FF8080"/>
<path d="M4.62531 7.15364C4.67248 7.15364 4.71678 7.14755 4.75488 7.13581C4.93007 7.08183 5.02043 6.95279 5.02421 6.9473C5.04044 6.9237 5.04361 6.89245 5.03253 6.86565C5.02144 6.8388 4.99775 6.82053 4.97064 6.81782C4.87735 6.80847 4.83557 6.75389 4.77771 6.67833C4.71033 6.59033 4.62647 6.4808 4.44534 6.46449C4.3455 6.45541 4.25277 6.50243 4.19723 6.58995C4.13907 6.68154 4.13282 6.79917 4.18045 6.90473C4.25847 7.07765 4.45905 7.15364 4.62536 7.15364H4.62531ZM4.81239 6.93251C4.78527 6.95034 4.75226 6.96735 4.71346 6.97931C4.59623 7.01541 4.37776 6.97007 4.31607 6.83347C4.29248 6.78123 4.2946 6.72459 4.32172 6.68187C4.34661 6.64267 4.38703 6.62245 4.43284 6.62664C4.55062 6.63724 4.59951 6.70105 4.6614 6.78188C4.7005 6.83298 4.74561 6.8919 4.81244 6.93246L4.81239 6.93251Z" fill="black"/>
<path d="M3.02424 1.86924C3.12045 1.5033 2.39976 1.62142 2.43071 1.29365C2.45323 1.05529 3.27391 0.538886 3.96713 1.10937C3.96713 1.10937 3.95987 0.924066 3.91497 0.684565C3.8612 0.397556 3.86387 0.155283 3.97459 0.105817C4.19896 0.00563597 4.63893 0.481321 5.47927 0.884983C5.80428 1.0411 6.4213 1.25239 6.70312 1.31137L4.81114 3.07071L3.02419 1.86929L3.02424 1.86924Z" fill="white"/>
<path d="M3.06579 1.88188C3.15292 1.67766 2.96363 1.55041 2.80992 1.49349L2.73195 1.4636C2.6816 1.44392 2.63237 1.42593 2.59255 1.40299C2.56211 1.38581 2.53268 1.36461 2.5231 1.33515C2.52174 1.33009 2.52078 1.32482 2.52058 1.31841C2.52048 1.31281 2.52144 1.30129 2.52189 1.30156C2.54205 1.24823 2.59391 1.20072 2.64325 1.16153C2.84792 1.00754 3.10893 0.938066 3.35658 0.9572C3.55958 0.973181 3.75281 1.05526 3.91736 1.18523C3.97305 1.23209 4.05943 1.18018 4.05328 1.10543C4.04501 0.921541 4.01357 0.747868 3.98333 0.568704C3.97153 0.485428 3.96403 0.401119 3.96841 0.323985C3.97219 0.2749 3.97703 0.228914 4.00066 0.197169C4.00555 0.191624 4.00908 0.191298 4.01538 0.188961C4.06684 0.175317 4.13951 0.206736 4.19359 0.233099C4.41055 0.346435 4.61375 0.49842 4.82694 0.627737C4.97067 0.717264 5.11748 0.802606 5.26751 0.881153C5.56627 1.0401 5.88378 1.15751 6.20128 1.26372C6.36215 1.31629 6.52035 1.36624 6.68671 1.40266C6.79663 1.42337 6.83317 1.24861 6.72018 1.22024C6.64317 1.20388 6.5643 1.18224 6.48603 1.15925C6.09595 1.04053 5.70779 0.905832 5.34286 0.713894C5.04748 0.560931 4.77251 0.377256 4.49013 0.194559C4.33223 0.102749 4.10892 -0.0705981 3.92088 0.030888C3.72862 0.158955 3.80265 0.53522 3.83561 0.731343C3.85774 0.855931 3.87437 0.988728 3.88102 1.11326L4.01946 1.03542H4.01941C3.65378 0.706882 3.10605 0.660624 2.68569 0.897189C2.52124 0.991391 2.28039 1.16164 2.35301 1.3994C2.42689 1.60047 2.66895 1.62504 2.83144 1.68701C2.91741 1.71821 2.99352 1.75159 2.98283 1.85655C2.97724 1.90939 3.04512 1.93064 3.06579 1.88194V1.88188Z" fill="black"/>
<path d="M5.97864 16.5819C6.01805 16.775 6.03695 17.1412 5.94946 17.2533C5.80714 17.4355 5.23669 17.4775 4.76693 17.5044C4.11997 17.5416 3.56519 17.4779 3.36965 17.38C3.21322 17.2723 3.24638 16.8691 3.31925 16.6446L5.97859 16.582L5.97864 16.5819Z" fill="white"/>
<path d="M5.94942 17.2533C5.80709 17.4356 5.23659 17.4774 4.76683 17.5044C4.11993 17.5415 3.56515 17.4779 3.36976 17.3801C3.27592 17.3156 3.25032 17.1449 3.2606 16.9701C3.26876 17.0909 3.30112 17.1953 3.36976 17.2427C3.56515 17.3407 4.11993 17.4043 4.76683 17.3672C5.23659 17.3402 5.80709 17.2982 5.94942 17.1159C5.98742 17.0672 6.00546 16.9705 6.0103 16.861C6.0166 17.0217 6.00294 17.1849 5.94942 17.2533Z" fill="#E8E8E8"/>
<path d="M4.39487 17.5848C4.51628 17.5848 4.64182 17.5813 4.76867 17.574C5.32763 17.5419 5.8422 17.4966 5.99717 17.2981C6.11112 17.1522 6.07433 16.7349 6.04006 16.5668C6.0324 16.5292 5.99792 16.5054 5.963 16.5137C5.92812 16.522 5.9061 16.5592 5.91376 16.5969C5.9571 16.8093 5.95987 17.1295 5.89824 17.2083C5.7665 17.377 5.11289 17.4146 4.76177 17.4347C4.101 17.4726 3.57853 17.4054 3.39947 17.3188C3.2958 17.2405 3.3028 16.9009 3.37855 16.6676C3.39034 16.6313 3.3726 16.5915 3.33889 16.5788C3.30512 16.566 3.26828 16.5852 3.25649 16.6215C3.19294 16.8173 3.12394 17.2948 3.33309 17.4388C3.33551 17.4405 3.33803 17.442 3.34065 17.4433C3.51891 17.5326 3.92607 17.5848 4.39482 17.5848L4.39487 17.5848Z" fill="black"/>
<path d="M3.97051 15.0174C4.01794 14.9842 4.29699 14.7996 4.97837 15.0512C5.71695 15.324 5.88936 15.2006 5.93366 15.234C6.10067 15.3598 5.97261 15.7461 5.97261 16.205C5.97261 16.5125 6.03359 16.7785 5.9461 16.8905C5.80378 17.0728 5.23333 17.1147 4.76357 17.1417C4.11662 17.1789 3.51144 17.0852 3.3159 16.9872C3.19328 16.8905 3.15417 16.604 3.25496 16.4074C3.36629 16.1808 3.73017 15.9541 3.83026 15.7576C3.92551 15.5705 3.78722 15.1456 3.97041 15.0173L3.97051 15.0174Z" fill="#FCFCFC"/>
<path d="M5.97258 16.2049C5.97258 16.5124 6.03366 16.7784 5.94612 16.8904C5.82209 17.0492 5.3731 17.1015 4.9489 17.1299C4.88616 17.1342 4.82402 17.1381 4.76354 17.1415C4.11663 17.1788 3.51151 17.0851 3.31586 16.9871C3.19854 16.8945 3.15761 16.6278 3.24304 16.4326C3.24682 16.4241 3.2508 16.4157 3.25498 16.4073C3.36621 16.1807 3.73018 15.9541 3.83032 15.7576C3.92562 15.5706 3.78728 15.1456 3.97053 15.0173C4.01795 14.984 4.2969 14.7995 4.97828 15.0512C5.71691 15.3241 5.88927 15.2005 5.93377 15.2339C6.10064 15.3598 5.97258 15.7461 5.97258 16.2049Z" fill="#FCFCFC"/>
<path d="M5.97262 16.2049C5.97262 16.5124 6.0337 16.7784 5.94616 16.8904C5.82213 17.0492 5.37314 17.1015 4.94894 17.1299C4.8862 17.1342 4.82406 17.1381 4.76358 17.1415C4.11667 17.1788 3.51155 17.0851 3.3159 16.9871C3.19858 16.8945 3.15766 16.6278 3.24308 16.4326C3.24686 16.4241 3.25084 16.4157 3.25502 16.4073C3.36625 16.1807 3.73022 15.9541 3.83036 15.7576C3.87633 15.6675 3.86796 15.5219 3.86751 15.3809C3.8671 15.2297 3.87567 15.0839 3.97057 15.0173C4.018 14.984 4.29695 14.7995 4.97832 15.0512C5.71695 15.3241 5.88931 15.2005 5.93382 15.2339C6.05432 15.3249 6.0209 15.5516 5.99323 15.8436C5.98255 15.9557 5.97267 16.0775 5.97267 16.2049H5.97262Z" fill="#FCFCFC"/>
<path d="M5.97262 16.2049C5.97262 16.5124 6.0337 16.7784 5.94616 16.8904C5.82213 17.0492 5.37314 17.1015 4.94894 17.1299C4.8862 17.1342 4.82406 17.1381 4.76358 17.1415C4.11667 17.1788 3.51155 17.0851 3.3159 16.9871C3.19858 16.8945 3.15766 16.6278 3.24308 16.4326C3.24686 16.4241 3.25084 16.4157 3.25502 16.4073C3.36625 16.1807 3.73022 15.9541 3.83036 15.7576C3.87633 15.6675 3.86796 15.5219 3.86751 15.3809C3.8671 15.2297 3.87567 15.0839 3.97057 15.0173C4.018 14.984 4.29695 14.7995 4.97832 15.0512C5.71695 15.3241 5.88931 15.2005 5.93382 15.2339C6.05432 15.3249 6.0209 15.5516 5.99323 15.8436C5.98255 15.9557 5.97267 16.0775 5.97267 16.2049H5.97262Z" fill="#FCFCFC"/>
<path d="M5.97267 16.2051C5.97267 16.5125 6.03375 16.7785 5.94621 16.8906C5.82219 17.0493 5.37319 17.1016 4.94899 17.1301C4.88625 17.1344 4.82411 17.1382 4.76363 17.1416C4.11672 17.1789 3.5116 17.0852 3.31596 16.9872C3.19863 16.8946 3.15771 16.6279 3.24313 16.4328C3.24691 16.4242 3.25089 16.4158 3.25507 16.4074C3.2958 16.3244 3.37054 16.2413 3.45384 16.1595C3.57767 16.0384 3.7204 15.9202 3.79806 15.8104C3.81066 15.7925 3.82155 15.7751 3.83036 15.7577C3.87633 15.6676 3.86791 15.522 3.86751 15.381C3.8671 15.2298 3.87567 15.084 3.97057 15.0174C4.018 14.9841 4.29695 14.7996 4.97832 15.0514C5.71695 15.3242 5.88931 15.2006 5.93382 15.2341C6.05432 15.3251 6.0209 15.5517 5.99323 15.8437C5.98255 15.9558 5.97267 16.0776 5.97267 16.2051Z" fill="#FCFCFC"/>
<path d="M4.91267 15.6124C4.81192 15.5809 4.7263 15.5508 4.66436 15.5257C4.57349 15.4888 4.46685 15.4608 4.35809 15.4397C4.36817 15.319 4.38727 15.0922 4.40154 14.9221C4.5497 14.9276 4.74071 14.962 4.98232 15.0514C4.99598 15.0564 5.00938 15.0613 5.02264 15.0661C5.03105 15.2708 4.97163 15.4691 4.91267 15.6124Z" fill="#FFB522"/>
<path d="M4.97656 15.4259C4.93498 15.5769 4.87476 15.7019 4.83741 15.7714C4.73727 15.7216 4.64242 15.6641 4.55781 15.5975V15.1827C4.69469 15.2807 4.83636 15.3607 4.97656 15.4259Z" fill="#FFB522"/>
<path d="M4.39245 16.3449C4.10529 16.1323 3.66093 16.1414 3.45314 16.1595C3.57697 16.0384 3.7197 15.9202 3.79736 15.8104C4.12313 15.8507 4.59203 16.0155 4.60801 16.1134C4.62942 16.2453 4.39245 16.345 4.39245 16.345V16.3449Z" fill="#E8E8E8"/>
<path d="M5.94887 16.8905C5.82484 17.0493 5.37584 17.1016 4.95165 17.13C4.8889 17.1343 4.82676 17.1382 4.76628 17.1416C4.11938 17.1789 3.51425 17.0852 3.31861 16.9872C3.23676 16.9227 3.19206 16.7735 3.20169 16.6227C3.22099 16.6684 3.24725 16.706 3.27895 16.7312C3.47459 16.8292 4.07972 16.9229 4.72662 16.8855C4.78705 16.8822 4.84919 16.8783 4.91198 16.874C5.33618 16.8455 5.78518 16.7932 5.9092 16.6345C5.93712 16.599 5.96338 16.5412 5.98646 16.469C5.99866 16.6589 6.00995 16.8122 5.94892 16.8905H5.94887Z" fill="#E8E8E8"/>
<path d="M5.99318 15.8436C5.55951 15.8112 4.9118 15.6279 4.66032 15.5255C4.42334 15.4293 4.08014 15.394 3.86751 15.3809C3.8671 15.2297 3.87567 15.0839 3.97057 15.0173C4.018 14.984 4.29695 14.7995 4.97832 15.0512C5.71695 15.3241 5.88931 15.2005 5.93382 15.2339C6.05432 15.3249 6.0209 15.5516 5.99323 15.8436H5.99318Z" fill="#2468FF"/>
<g opacity="0.2">
<path d="M4.91267 15.6124C4.81192 15.5809 4.7263 15.5508 4.66436 15.5257C4.57349 15.4888 4.46685 15.4608 4.35809 15.4397C4.36817 15.319 4.38727 15.0922 4.40154 14.9221C4.5497 14.9276 4.74071 14.962 4.98232 15.0514C4.99598 15.0564 5.00938 15.0613 5.02264 15.0661C5.03105 15.2708 4.97163 15.4691 4.91267 15.6124Z" fill="black"/>
</g>
<g opacity="0.7">
<path d="M6.01772 15.5608C6.01182 15.4688 5.98894 15.3987 5.93375 15.357C5.88925 15.3235 5.71694 15.4472 4.97826 15.1743C4.29694 14.9226 4.01798 15.1071 3.97051 15.1404C3.90187 15.1886 3.87838 15.2782 3.87082 15.3812C3.86956 15.3812 3.8685 15.381 3.86745 15.381C3.86704 15.2298 3.87561 15.084 3.97051 15.0174C4.01793 14.9841 4.29689 14.7996 4.97826 15.0514C5.71689 15.3242 5.88925 15.2006 5.93375 15.2341C6.01142 15.2927 6.02528 15.408 6.01772 15.5608Z" fill="white"/>
</g>
<path d="M4.94922 17.1299C4.88647 17.1342 4.82433 17.1381 4.76386 17.1415C4.11695 17.1788 3.51182 17.0851 3.31618 16.9871C3.19885 16.8945 3.15793 16.6278 3.24335 16.4326C3.51707 16.6176 4.11866 16.7564 4.5796 16.4268C4.5796 16.4268 4.92447 16.8318 4.94922 17.1299Z" fill="#2468FF"/>
<g opacity="0.2">
<path d="M4.94922 17.1301C4.88647 17.1344 4.82433 17.1383 4.76386 17.1416C4.11695 17.179 3.51182 17.0853 3.31618 16.9873C3.23433 16.9227 3.18963 16.7735 3.19926 16.6228C3.21856 16.6685 3.24482 16.7061 3.27652 16.7312C3.47216 16.8293 4.07729 16.923 4.72419 16.8856C4.77288 16.8829 4.82262 16.88 4.87282 16.8765C4.91288 16.9621 4.94252 17.0499 4.94922 17.1301Z" fill="black"/>
</g>
<path d="M6.00781 15.7041C5.99753 15.8119 5.98408 15.9319 5.97757 16.0598C5.63059 16.039 4.97068 15.924 4.5551 15.5975V15.1827C5.09602 15.5703 5.71288 15.6756 6.00781 15.7041Z" fill="#2468FF"/>
<g opacity="0.2">
<path d="M4.97656 15.4259C4.93498 15.5769 4.87476 15.7019 4.83741 15.7714C4.73727 15.7216 4.64242 15.6641 4.55781 15.5975V15.1827C4.69469 15.2807 4.83636 15.3607 4.97656 15.4259Z" fill="black"/>
</g>
<path d="M5.97939 16.1296C5.99526 16.1296 6.01063 16.1233 6.02253 16.1118C6.03528 16.0995 6.04304 16.0821 6.04394 16.0636C6.04904 15.9632 6.05836 15.8689 6.06738 15.7779L6.07388 15.7113C6.07564 15.6928 6.07045 15.6742 6.05947 15.6598C6.04848 15.6454 6.03255 15.6364 6.01537 15.6347C5.7084 15.605 5.11537 15.4992 4.59264 15.1247C4.57273 15.1105 4.54728 15.1092 4.52632 15.1213C4.5053 15.1335 4.4922 15.1571 4.4922 15.1828V15.5975C4.4922 15.6198 4.50208 15.6407 4.51881 15.6539C4.91362 15.9641 5.55045 16.1039 5.97581 16.1295C5.97702 16.1295 5.97823 16.1296 5.97939 16.1296ZM5.93846 15.7666C5.93181 15.834 5.9245 15.9082 5.91911 15.9856C5.52384 15.9526 4.97597 15.825 4.62157 15.5615V15.3093C5.10589 15.6225 5.62705 15.7299 5.93846 15.7666Z" fill="black"/>
<path d="M4.49843 16.4965C4.51722 16.4965 4.53522 16.4877 4.54761 16.472C4.56535 16.4496 4.57322 16.4333 4.57518 16.4288C4.57644 16.4259 4.5778 16.4221 4.57871 16.4191C4.57871 16.4191 4.58173 16.4088 4.58486 16.3905C4.58985 16.3613 4.57725 16.332 4.55341 16.3173C4.52957 16.3026 4.49974 16.3058 4.47897 16.3251L4.44813 16.3538C4.42701 16.3735 4.42001 16.4056 4.43074 16.4334C4.43074 16.4334 4.43356 16.4407 4.43906 16.4544C4.44793 16.4765 4.46673 16.4921 4.4888 16.4957C4.49202 16.4962 4.4952 16.4965 4.49843 16.4965Z" fill="#232333"/>
<path d="M4.52211 16.4475C4.5525 16.4475 4.57956 16.4244 4.58551 16.391C4.59735 16.325 4.61287 16.1535 4.5017 15.9885C4.38432 15.8143 4.16509 15.7047 3.8501 15.6626C3.81422 15.658 3.78237 15.6851 3.77799 15.7233C3.7736 15.7615 3.7988 15.7963 3.83423 15.8011C4.11227 15.8381 4.30162 15.9288 4.39707 16.0705C4.47846 16.1913 4.46717 16.3163 4.45851 16.3645C4.45175 16.4023 4.47463 16.4389 4.50971 16.4462C4.51389 16.4471 4.51803 16.4474 4.52206 16.4474L4.52211 16.4475Z" fill="#232333"/>
<path d="M3.85013 16.6953C4.3033 16.6953 4.48322 16.5566 4.55071 16.4722C4.57404 16.443 4.57102 16.399 4.54395 16.3738C4.51689 16.3487 4.47607 16.3519 4.45273 16.3811C4.41836 16.4242 4.27034 16.5637 3.81072 16.5555C3.56553 16.551 3.39005 16.488 3.30331 16.3733C3.28068 16.3435 3.23996 16.339 3.21229 16.3633C3.18462 16.3877 3.18054 16.4316 3.20307 16.4615C3.31631 16.611 3.51997 16.6896 3.8085 16.6949C3.82256 16.6952 3.83647 16.6953 3.85008 16.6953L3.85013 16.6953Z" fill="black"/>
<path d="M4.47526 17.2196C4.57182 17.2196 4.6701 17.217 4.76883 17.2113C5.32779 17.1791 5.8424 17.1339 5.99732 16.9354C6.07413 16.837 6.0637 16.6772 6.05049 16.4748C6.04485 16.3886 6.03905 16.2994 6.03905 16.2049C6.03905 16.0553 6.05326 15.911 6.06581 15.7837C6.09328 15.5046 6.115 15.2841 5.97243 15.1768C5.94254 15.1543 5.91069 15.1568 5.86649 15.1601C5.76953 15.1676 5.54218 15.185 5.00101 14.9852C4.35002 14.7447 4.04008 14.8867 3.93701 14.9588C3.80099 15.054 3.80306 15.2569 3.80492 15.4359C3.80603 15.5467 3.80724 15.6614 3.77534 15.724C3.73305 15.807 3.62555 15.9072 3.52158 16.0041C3.39458 16.1225 3.2633 16.245 3.19954 16.3748C3.08615 16.5959 3.1247 16.9215 3.27942 17.0435C3.28285 17.0462 3.28653 17.0486 3.29036 17.0505C3.46947 17.1402 3.94472 17.2196 4.47511 17.2196H4.47526ZM5.9059 15.2973C5.97716 15.3633 5.95942 15.5431 5.93725 15.7689C5.9244 15.8997 5.90978 16.0479 5.90978 16.2049C5.90978 16.3043 5.91603 16.4 5.92158 16.4846C5.93186 16.6419 5.94153 16.7904 5.89849 16.8456C5.7668 17.0143 5.11315 17.0518 4.76202 17.072C4.1134 17.1094 3.53106 17.0125 3.35124 16.927C3.26254 16.8498 3.22686 16.6101 3.31349 16.4412C3.36641 16.3334 3.48842 16.2197 3.60635 16.1097C3.72413 15.9999 3.83541 15.8961 3.88883 15.7912C3.93706 15.6965 3.9357 15.5633 3.93439 15.4344C3.93283 15.2844 3.93127 15.1294 4.00757 15.0759C4.07561 15.0283 4.34513 14.8905 4.95928 15.1173C5.5253 15.3264 5.77099 15.3075 5.87586 15.2993C5.88665 15.2985 5.89849 15.2976 5.906 15.2974L5.9059 15.2973Z" fill="black"/>
<path d="M5.94891 16.8904C5.88092 16.9778 5.71486 17.0326 5.50853 17.0695C5.54527 16.9259 5.60005 16.7152 5.63785 16.5818C5.70962 16.3287 5.83158 16.1646 5.97788 16.0951C5.97622 16.1311 5.97536 16.1678 5.97536 16.2049C5.97536 16.5126 6.03645 16.7786 5.94891 16.8904Z" fill="#2468FF"/>
<g opacity="0.2">
<path d="M5.94887 16.8904C5.88088 16.9778 5.71482 17.0326 5.50849 17.0694C5.52905 16.989 5.55531 16.8879 5.58091 16.7907C5.73437 16.7548 5.85402 16.7054 5.9092 16.6345C5.93712 16.599 5.96338 16.5412 5.98646 16.469C5.99866 16.6589 6.00995 16.8122 5.94892 16.8903L5.94887 16.8904Z" fill="black"/>
</g>
<path d="M5.5064 17.1393C5.50993 17.1393 5.51345 17.139 5.51698 17.1383C5.77159 17.0928 5.92389 17.0283 5.99626 16.9353C6.07302 16.8371 6.06254 16.6774 6.04933 16.4751C6.04369 16.3888 6.03784 16.2995 6.03784 16.2049C6.03784 16.1694 6.03865 16.1336 6.04026 16.0986C6.04137 16.0744 6.03084 16.0514 6.01234 16.0377C5.99384 16.024 5.97011 16.0216 5.9496 16.0313C5.77915 16.1123 5.64917 16.2955 5.57378 16.5614C5.53311 16.705 5.475 16.9297 5.44401 17.0509C5.43816 17.0738 5.4435 17.0985 5.45827 17.1161C5.47067 17.1309 5.48815 17.1392 5.50635 17.1392L5.5064 17.1393ZM5.90857 16.2222C5.90923 16.3155 5.91507 16.4053 5.92031 16.485C5.9306 16.6421 5.94032 16.7905 5.89733 16.8454C5.89733 16.8454 5.89728 16.8455 5.89723 16.8456C5.86755 16.8838 5.79069 16.9358 5.59646 16.9803C5.62755 16.8602 5.66747 16.7084 5.69756 16.6022C5.74518 16.4343 5.81841 16.3034 5.90862 16.2221L5.90857 16.2222Z" fill="black"/>
<path d="M5.40625 17.0852C5.24231 17.1089 5.06052 17.1235 4.88609 17.1343C4.69383 16.8982 4.53472 16.5178 4.49818 16.4269C4.51184 16.4096 4.51668 16.3988 4.51668 16.3988C4.51668 16.3988 4.5188 16.3914 4.52106 16.378L4.83192 16.0873C4.83192 16.0873 5.05714 16.7291 5.4062 17.0852L5.40625 17.0852Z" fill="#2468FF"/>
<g opacity="0.2">
<path d="M5.40625 17.0851C5.24231 17.1089 5.06052 17.1234 4.88609 17.1343C4.82647 17.061 4.77003 16.974 4.71943 16.8859C4.72089 16.8859 4.72215 16.8857 4.72361 16.8857C4.78404 16.8823 4.84618 16.8785 4.90898 16.8742C5.01118 16.8674 5.1149 16.859 5.21524 16.8481C5.2734 16.9335 5.33741 17.015 5.40625 17.0852V17.0851Z" fill="black"/>
</g>
<path d="M4.88791 17.204C4.88911 17.204 4.89037 17.204 4.89163 17.2039C5.02937 17.1953 5.23363 17.1808 5.41663 17.1543C5.44132 17.1507 5.46189 17.1322 5.46955 17.1066C5.47716 17.081 5.47055 17.053 5.45246 17.0345C5.11802 16.6933 4.89642 16.0688 4.8942 16.0625C4.88675 16.0412 4.87006 16.0252 4.84955 16.0196C4.82924 16.014 4.80737 16.0196 4.79139 16.0345L4.48054 16.3252C4.46945 16.3355 4.46194 16.3497 4.45932 16.3652C4.45892 16.3676 4.45852 16.3697 4.45816 16.3716C4.4566 16.3739 4.45418 16.3773 4.45086 16.3815C4.43483 16.4018 4.4309 16.4301 4.44073 16.4545C4.48457 16.5638 4.64282 16.939 4.83937 17.1803C4.85167 17.1954 4.86941 17.2041 4.88796 17.2041L4.88791 17.204ZM5.27123 17.0324C5.14418 17.0467 5.01622 17.0562 4.91623 17.0626C4.75722 16.8561 4.62276 16.5518 4.57398 16.4347C4.57539 16.432 4.5763 16.4301 4.57685 16.4289C4.57811 16.426 4.57947 16.4222 4.58038 16.4192C4.58038 16.4192 4.58073 16.418 4.58134 16.4157L4.80808 16.2037C4.87616 16.3752 5.04016 16.7506 5.27128 17.0325L5.27123 17.0324Z" fill="black"/>
<path d="M3.94317 15.6093C3.94317 15.6093 3.98964 15.5368 4.00682 15.1632C4.0166 14.9505 4.09199 14.6566 4.58302 14.7802C4.88132 14.8552 4.85335 15.0756 4.80739 15.2912C4.76581 15.4864 4.66562 15.6795 4.61633 15.7533C4.54552 15.8593 3.94322 15.6093 3.94322 15.6093H3.94317Z" fill="white"/>
<path d="M4.80735 15.2914C4.80443 15.3056 4.80105 15.3197 4.79747 15.3337C4.75151 15.5139 4.6621 15.6851 4.61634 15.7535C4.54558 15.8594 3.94318 15.6095 3.94318 15.6095C3.94318 15.6095 3.98078 15.5511 4.00088 15.269C4.0032 15.2369 4.00527 15.2015 4.00698 15.1633C4.01666 14.9507 4.092 14.6568 4.58318 14.7802C4.88143 14.8554 4.85331 15.0757 4.80735 15.2914Z" fill="white"/>
<path d="M4.79688 15.3338C4.75091 15.514 4.66151 15.6851 4.61575 15.7535C4.54499 15.8595 3.94258 15.6095 3.94258 15.6095C3.94258 15.6095 3.98018 15.5511 4.00029 15.269C4.13964 15.2319 4.39677 15.1957 4.61171 15.3456C4.68162 15.3945 4.74355 15.3804 4.79682 15.3338H4.79688Z" fill="#E5E5E5"/>
<path d="M4.53277 15.8493C4.59969 15.8493 4.64208 15.8309 4.66662 15.7941C4.72438 15.7076 4.82568 15.5066 4.86821 15.307C4.90541 15.1325 4.9746 14.8077 4.59551 14.7123C4.37754 14.6575 4.21037 14.6759 4.09849 14.7669C4.00031 14.8467 3.9485 14.9753 3.94004 15.1599C3.92603 15.4647 3.89297 15.5562 3.88656 15.5712C3.87356 15.588 3.87084 15.6077 3.87573 15.6292C3.88077 15.6515 3.89796 15.6663 3.91771 15.6745C3.92401 15.6771 4.07284 15.7387 4.23315 15.7882C4.36509 15.829 4.46236 15.8493 4.53266 15.8493H4.53277ZM4.56542 15.7069C4.51049 15.7281 4.27327 15.6667 4.02345 15.5683C4.04043 15.4995 4.05958 15.3782 4.06931 15.1668C4.07576 15.026 4.11084 14.9316 4.17645 14.8782C4.25628 14.8132 4.38742 14.8031 4.56623 14.8481C4.78319 14.9027 4.79589 15.0241 4.74227 15.2756C4.70523 15.4495 4.61592 15.6292 4.56547 15.7069H4.56542Z" fill="black"/>
<path d="M4.43419 16.1368C4.43419 16.1368 4.32483 16.3791 4.47396 16.4972C4.64879 16.6355 4.92305 16.406 4.9857 16.1036C5.06749 15.7087 4.65065 15.4519 4.29867 15.3894C3.83935 15.3079 3.75715 15.5631 3.78961 15.7326C3.82206 15.902 4.43424 16.1369 4.43424 16.1369L4.43419 16.1368Z" fill="#2468FF"/>
<g opacity="0.7">
<path d="M4.98563 16.1036C4.96926 16.1824 4.93861 16.2562 4.89915 16.3198C4.91533 16.2815 4.92833 16.241 4.93695 16.1989C5.01673 15.8133 4.60972 15.5625 4.26611 15.5014C3.96594 15.4482 3.83057 15.5424 3.78335 15.6598C3.78627 15.5 3.90153 15.3189 4.29866 15.3893C4.65064 15.4518 5.06753 15.7085 4.98568 16.1035L4.98563 16.1036Z" fill="white"/>
</g>
<path d="M4.58901 16.6081C4.62555 16.6081 4.66345 16.6004 4.7017 16.585C4.86126 16.5204 5.00303 16.3287 5.04647 16.1188C5.07585 15.977 5.05176 15.8429 4.975 15.7203C4.829 15.487 4.53412 15.3609 4.30688 15.3205C4.07228 15.279 3.90239 15.3151 3.80185 15.4281C3.73028 15.5085 3.7012 15.6276 3.72403 15.7467C3.75694 15.9184 4.15468 16.0994 4.34871 16.1782C4.3218 16.2752 4.29947 16.4474 4.43348 16.5534C4.47939 16.5897 4.53256 16.6081 4.58906 16.6082L4.58901 16.6081ZM4.13291 15.4434C4.17902 15.4434 4.23013 15.4483 4.28587 15.4582C4.53801 15.5029 4.76646 15.6364 4.86781 15.7983C4.9239 15.8879 4.94154 15.9854 4.92027 16.0883C4.8863 16.2522 4.77533 16.4061 4.65629 16.4543C4.59954 16.4773 4.55025 16.4727 4.50993 16.4408C4.40647 16.359 4.48927 16.169 4.49013 16.1671C4.49804 16.1493 4.49859 16.1286 4.49164 16.1103C4.48463 16.092 4.47083 16.0777 4.45359 16.0711C4.14576 15.9529 3.86399 15.7881 3.85063 15.7184C3.84383 15.6828 3.8345 15.5927 3.89508 15.5246C3.94306 15.4707 4.02405 15.4433 4.13291 15.4433V15.4434Z" fill="black"/>
<path d="M3.57399 16.0487C3.57399 16.0487 4.04264 15.9299 4.51794 16.2773C4.51794 16.2773 4.80032 16.2923 4.70179 16.0328C4.59822 15.76 3.95132 15.6256 3.80295 15.6991C3.66052 15.7695 3.55781 15.9097 3.57404 16.0487L3.57399 16.0487Z" fill="white"/>
<path d="M4.59766 16.2694C4.55462 16.2793 4.51727 16.2773 4.51727 16.2773C4.04207 15.9298 3.57337 16.0486 3.57337 16.0486C3.57085 16.0276 3.57126 16.0067 3.57398 15.9859C3.60734 15.9544 3.6468 15.9284 3.69045 15.9105C3.92575 15.8145 4.48577 15.9717 4.58924 16.2444C4.59262 16.253 4.59534 16.2612 4.59766 16.2693V16.2694Z" fill="white"/>
<path d="M4.59766 16.2694C4.55462 16.2793 4.51727 16.2773 4.51727 16.2773C4.04207 15.9298 3.57337 16.0486 3.57337 16.0486C3.57085 16.0276 3.57126 16.0067 3.57398 15.9859C3.60734 15.9544 3.6468 15.9284 3.69045 15.9105C3.92575 15.8145 4.48577 15.9717 4.58924 16.2444C4.59262 16.253 4.59534 16.2612 4.59766 16.2693V16.2694Z" fill="#E8E8E8"/>
<path d="M4.52938 16.3473C4.57176 16.3473 4.69544 16.3389 4.75662 16.2456C4.79754 16.1832 4.79976 16.1027 4.76322 16.0064C4.7093 15.8643 4.55049 15.7717 4.42682 15.719C4.21464 15.6286 3.90303 15.5735 3.77754 15.6356C3.59923 15.7239 3.49229 15.8934 3.51144 16.0574C3.51371 16.077 3.52364 16.0947 3.53871 16.106C3.55378 16.1173 3.57252 16.1211 3.59031 16.1167C3.59651 16.1151 4.03976 16.0108 4.48326 16.3351C4.49304 16.3422 4.50453 16.3464 4.51637 16.347C4.51859 16.3471 4.52313 16.3473 4.52943 16.3473H4.52938ZM3.92617 15.7489C4.0379 15.7489 4.21721 15.7797 4.37929 15.8487C4.52106 15.9091 4.6149 15.9839 4.64353 16.0593C4.65638 16.0931 4.66812 16.1389 4.65114 16.165C4.63138 16.1953 4.57514 16.206 4.53915 16.2076C4.16848 15.9445 3.80708 15.9476 3.64656 15.9663C3.66909 15.8873 3.73808 15.8087 3.83147 15.7625C3.84946 15.7535 3.88272 15.7489 3.92617 15.7489Z" fill="black"/>
<path d="M5.11656 16.2685L5.3557 16.6013L5.88281 16.0597L5.35908 16.3815L5.11656 16.2685Z" fill="black"/>
<path d="M4.42872 6.7947C4.47101 6.97061 4.61786 7.10927 4.79239 7.08688C4.81658 7.08487 4.83961 7.07889 4.8636 7.07459C4.89903 7.06823 4.92297 7.03214 4.91708 6.99393C4.91118 6.95571 4.87767 6.92989 4.84229 6.93625C4.83699 6.93707 4.82883 6.94011 4.82364 6.94196C4.76039 6.97039 4.68797 6.98365 4.62361 6.95147C4.55658 6.9207 4.5016 6.85118 4.4697 6.78019C4.46007 6.75312 4.42141 6.76671 4.42872 6.7947Z" fill="black"/>
<path d="M10.8255 3.08648C10.7021 2.86867 10.6412 2.60721 10.6673 2.33368C10.7305 1.66975 11.2807 1.18678 11.8963 1.25495C12.5118 1.32311 12.9596 1.91659 12.8964 2.58052C12.8332 3.24445 12.283 3.72741 11.6674 3.65925C11.4962 3.64028 11.338 3.58059 11.2002 3.49014L10.6817 3.61555L10.8256 3.08648H10.8255Z" fill="white"/>
<g opacity="0.5">
<path d="M11.8756 1.48618C11.3006 1.42253 10.7827 1.83978 10.6654 2.43625C10.6653 2.39363 10.667 2.35069 10.6711 2.30731C10.7343 1.64339 11.2846 1.16042 11.9001 1.22858C12.5157 1.29675 12.9635 1.89022 12.9003 2.55415C12.8962 2.59769 12.8898 2.64036 12.8816 2.68222C12.8794 2.07227 12.4509 1.54984 11.8757 1.48613L11.8756 1.48618Z" fill="white"/>
</g>
<path d="M11.7833 3.77204C12.0624 3.77204 12.3309 3.66952 12.5504 3.47693C12.8029 3.25526 12.9603 2.94075 12.9936 2.59145C13.0622 1.87028 12.5741 1.22331 11.9055 1.14928C11.2367 1.07524 10.637 1.60175 10.5683 2.32292C10.5424 2.59558 10.5941 2.86345 10.7181 3.10078L10.5862 3.58576C10.5763 3.62185 10.585 3.66088 10.6088 3.68833C10.6327 3.71578 10.6683 3.72763 10.7023 3.71937L11.183 3.6031C11.329 3.69197 11.4881 3.74644 11.6565 3.76509C11.6988 3.76976 11.7412 3.7721 11.7833 3.7721V3.77204ZM11.7802 1.35486C11.815 1.35486 11.85 1.35676 11.8854 1.36068C12.4459 1.42275 12.8551 1.96508 12.7975 2.56965C12.7696 2.86253 12.6377 3.12611 12.426 3.31196C12.2143 3.49775 11.9481 3.58364 11.6766 3.55347C11.5241 3.53657 11.3807 3.48471 11.2505 3.39926C11.2287 3.38496 11.2026 3.38034 11.1777 3.38637L10.8224 3.47231L10.9192 3.11638C10.9271 3.08757 10.9233 3.05659 10.9088 3.03104C10.7913 2.82382 10.7414 2.58639 10.7645 2.3445C10.8184 1.77803 11.2633 1.3548 11.7803 1.3548L11.7802 1.35486Z" fill="black"/>
<g opacity="0.3">
<path d="M10.8192 3.07496C11.1261 3.35496 11.5489 3.47753 11.9688 3.36485C12.4344 3.23988 12.7775 2.85742 12.9008 2.39331C12.9038 2.45484 12.9024 2.51741 12.8964 2.58063C12.8332 3.24455 12.283 3.72752 11.6674 3.65936C11.4962 3.64039 11.338 3.5807 11.2002 3.49025L10.6817 3.61566L10.8256 3.08659C10.8234 3.08279 10.8214 3.07882 10.8193 3.07501L10.8192 3.07496Z" fill="black"/>
</g>
<path d="M11.4215 2.11778C11.5184 2.0132 11.6756 2.03195 11.7726 2.13654L11.7876 2.15279L11.8027 2.13654C11.8997 2.03195 12.0569 2.0132 12.1538 2.11778C12.2508 2.22237 12.2508 2.39191 12.1538 2.4965L12.1388 2.51275L11.8339 2.84156C11.8084 2.86912 11.7669 2.86912 11.7413 2.84156L11.4365 2.51275L11.4214 2.4965C11.3244 2.39191 11.3244 2.22237 11.4214 2.11778H11.4215Z" fill="#2468FF"/>
</g>
<defs>
<clipPath id="clip0_1336_27480">
<rect width="13" height="18" fill="white" transform="matrix(-1 0 0 1 13 0)"/>
</clipPath>
</defs>
</svg>
