<svg width="34" height="34" viewBox="0 0 34 34" fill="none" xmlns="http://www.w3.org/2000/svg">
<path d="M18.4875 23.0204H15.8242C13.94 23.0204 12.3958 21.4338 12.3958 19.4788C12.3958 18.8979 12.8775 18.4163 13.4583 18.4163C14.0392 18.4163 14.5208 18.8979 14.5208 19.4788C14.5208 20.2579 15.1017 20.8954 15.8242 20.8954H18.4875C19.04 20.8954 19.4792 20.3996 19.4792 19.7904C19.4792 19.0254 19.2667 18.9121 18.785 18.7421L14.5208 17.2546C13.6142 16.9429 12.3958 16.2771 12.3958 14.1946C12.3958 12.4238 13.7984 10.9646 15.5125 10.9646H18.1758C20.06 10.9646 21.6042 12.5513 21.6042 14.5063C21.6042 15.0871 21.1225 15.5688 20.5417 15.5688C19.9608 15.5688 19.4792 15.0871 19.4792 14.5063C19.4792 13.7271 18.8983 13.0896 18.1758 13.0896H15.5125C14.96 13.0896 14.5208 13.5855 14.5208 14.1946C14.5208 14.9596 14.7333 15.0729 15.215 15.2429L19.4792 16.7304C20.3858 17.0421 21.6042 17.7079 21.6042 19.7904C21.6042 21.5754 20.2017 23.0204 18.4875 23.0204Z" fill="#2468FF"/>
<path d="M17 24.4371C16.4192 24.4371 15.9375 23.9555 15.9375 23.3746V10.6246C15.9375 10.0438 16.4192 9.56213 17 9.56213C17.5808 9.56213 18.0625 10.0438 18.0625 10.6246V23.3746C18.0625 23.9555 17.5808 24.4371 17 24.4371Z" fill="#2468FF"/>
<path d="M17 32.2288C8.59918 32.2288 1.77084 25.4005 1.77084 16.9996C1.77084 8.5988 8.59918 1.77047 17 1.77047C17.5808 1.77047 18.0625 2.25213 18.0625 2.83297C18.0625 3.4138 17.5808 3.89547 17 3.89547C9.77501 3.89547 3.89584 9.77464 3.89584 16.9996C3.89584 24.2246 9.77501 30.1038 17 30.1038C24.225 30.1038 30.1042 24.2246 30.1042 16.9996C30.1042 16.4188 30.5858 15.9371 31.1667 15.9371C31.7475 15.9371 32.2292 16.4188 32.2292 16.9996C32.2292 25.4005 25.4008 32.2288 17 32.2288Z" fill="#2468FF"/>
<path d="M29.75 10.9788H24.0833C23.5025 10.9788 23.0208 10.4971 23.0208 9.9163V4.24963C23.0208 3.6688 23.5025 3.18713 24.0833 3.18713C24.6642 3.18713 25.1458 3.6688 25.1458 4.24963V8.8538H29.75C30.3308 8.8538 30.8125 9.33547 30.8125 9.9163C30.8125 10.4971 30.3308 10.9788 29.75 10.9788Z" fill="#2468FF"/>
<path d="M24.0832 10.9788C23.814 10.9788 23.5449 10.8796 23.3324 10.6671C22.9215 10.2563 22.9215 9.5763 23.3324 9.16546L30.4157 2.08213C30.8265 1.6713 31.5065 1.6713 31.9174 2.08213C32.3282 2.49296 32.3282 3.17296 31.9174 3.58379L24.834 10.6671C24.6215 10.8796 24.3524 10.9788 24.0832 10.9788Z" fill="#2468FF"/>
</svg>
