<svg width="159" height="29" viewBox="0 0 159 29" fill="none" xmlns="http://www.w3.org/2000/svg">
<rect x="0.25" y="0.25" width="158.5" height="28.5" rx="1.75" stroke="black" stroke-width="0.5"/>
<path d="M31.5002 14.5003C33.4562 14.5003 35.0418 12.9147 35.0418 10.9587C35.0418 9.00265 33.4562 7.41699 31.5002 7.41699C29.5442 7.41699 27.9585 9.00265 27.9585 10.9587C27.9585 12.9147 29.5442 14.5003 31.5002 14.5003Z" stroke="#292D32" stroke-linecap="round" stroke-linejoin="round"/>
<path d="M25.4155 21.5833C25.4155 18.8421 28.1426 16.625 31.5001 16.625C32.1801 16.625 32.8389 16.7171 33.4551 16.8871" stroke="#292D32" stroke-linecap="round" stroke-linejoin="round"/>
<path d="M38.5832 18.7503C38.5832 18.977 38.5548 19.1966 38.4982 19.4091C38.4344 19.6924 38.3211 19.9687 38.1723 20.2095C37.6836 21.0312 36.784 21.5837 35.7498 21.5837C35.0203 21.5837 34.3615 21.3074 33.8657 20.8541C33.6532 20.6699 33.469 20.4503 33.3273 20.2095C33.0652 19.7845 32.9165 19.2816 32.9165 18.7503C32.9165 17.9853 33.2211 17.2841 33.7169 16.7741C34.234 16.2428 34.9565 15.917 35.7498 15.917C36.5857 15.917 37.3436 16.2783 37.8536 16.8591C38.3069 17.362 38.5832 18.0278 38.5832 18.7503Z" stroke="#292D32" stroke-miterlimit="10" stroke-linecap="round" stroke-linejoin="round"/>
<path d="M36.8056 18.7363H34.6948" stroke="#292D32" stroke-miterlimit="10" stroke-linecap="round" stroke-linejoin="round"/>
<path d="M35.75 17.7021V19.8201" stroke="#292D32" stroke-miterlimit="10" stroke-linecap="round" stroke-linejoin="round"/>
<path d="M48.111 19H47.121L50.058 11.3H51.191L54.117 19H53.094L52.28 16.921H48.925L48.111 19ZM50.597 12.345L49.211 16.052H51.994L50.597 12.345ZM59.0312 14.248V11.3H59.9332V19H59.1522L59.0312 18.098C58.6572 18.615 58.0522 19.066 57.1062 19.066C55.5552 19.066 54.4112 18.021 54.4112 16.195C54.4112 14.479 55.5552 13.324 57.1062 13.324C58.0522 13.324 58.6902 13.709 59.0312 14.248ZM57.1942 18.263C58.2942 18.263 59.0422 17.416 59.0422 16.217C59.0422 14.985 58.2942 14.127 57.1942 14.127C56.0832 14.127 55.3352 14.974 55.3352 16.195C55.3352 17.416 56.0832 18.263 57.1942 18.263ZM65.5839 14.248V11.3H66.4859V19H65.7049L65.5839 18.098C65.2099 18.615 64.6049 19.066 63.6589 19.066C62.1079 19.066 60.9639 18.021 60.9639 16.195C60.9639 14.479 62.1079 13.324 63.6589 13.324C64.6049 13.324 65.2429 13.709 65.5839 14.248ZM63.7469 18.263C64.8469 18.263 65.5949 17.416 65.5949 16.217C65.5949 14.985 64.8469 14.127 63.7469 14.127C62.6359 14.127 61.8879 14.974 61.8879 16.195C61.8879 17.416 62.6359 18.263 63.7469 18.263ZM70.7255 19V11.3H71.9355L74.6635 17.691L77.3585 11.3H78.5465V19H77.6115V12.928L75.0595 19H74.2125L71.6605 12.928V19H70.7255ZM82.492 19.066C80.809 19.066 79.709 17.911 79.709 16.195C79.709 14.49 80.787 13.324 82.371 13.324C83.955 13.324 84.989 14.325 85.033 15.986C85.033 16.107 85.022 16.239 85.011 16.371H80.655V16.448C80.688 17.515 81.359 18.263 82.426 18.263C83.218 18.263 83.834 17.845 84.021 17.119H84.934C84.714 18.241 83.79 19.066 82.492 19.066ZM80.71 15.623H84.065C83.977 14.655 83.317 14.116 82.382 14.116C81.557 14.116 80.798 14.71 80.71 15.623ZM92.3213 13.324C93.4873 13.324 94.4443 13.995 94.4443 15.766V19H93.5423V15.821C93.5423 14.721 93.0583 14.149 92.2113 14.149C91.2763 14.149 90.7043 14.853 90.7043 15.997V19H89.8023V15.821C89.8023 14.721 89.3073 14.149 88.4493 14.149C87.5253 14.149 86.9643 14.919 86.9643 16.041V19H86.0623V13.39H86.8433L86.9643 14.16C87.2613 13.753 87.7343 13.324 88.6033 13.324C89.3843 13.324 90.0553 13.676 90.3743 14.391C90.7153 13.786 91.3203 13.324 92.3213 13.324ZM98.4284 13.324C99.9794 13.324 101.123 14.369 101.123 16.195C101.123 17.911 99.9794 19.066 98.4284 19.066C97.4824 19.066 96.8444 18.681 96.5034 18.142L96.3824 19H95.6014V11.3H96.5034V14.292C96.8774 13.775 97.4824 13.324 98.4284 13.324ZM98.3404 18.263C99.4514 18.263 100.199 17.416 100.199 16.195C100.199 14.974 99.4514 14.127 98.3404 14.127C97.2404 14.127 96.4924 14.974 96.4924 16.173C96.4924 17.405 97.2404 18.263 98.3404 18.263ZM104.739 19.066C103.056 19.066 101.956 17.911 101.956 16.195C101.956 14.49 103.034 13.324 104.618 13.324C106.202 13.324 107.236 14.325 107.28 15.986C107.28 16.107 107.269 16.239 107.258 16.371H102.902V16.448C102.935 17.515 103.606 18.263 104.673 18.263C105.465 18.263 106.081 17.845 106.268 17.119H107.181C106.961 18.241 106.037 19.066 104.739 19.066ZM102.957 15.623H106.312C106.224 14.655 105.564 14.116 104.629 14.116C103.804 14.116 103.045 14.71 102.957 15.623ZM110.905 13.39H111.158V14.27H110.707C109.53 14.27 109.211 15.249 109.211 16.14V19H108.309V13.39H109.09L109.211 14.237C109.475 13.808 109.904 13.39 110.905 13.39ZM111.591 17.152H112.515C112.548 17.812 113.131 18.296 114.066 18.296C114.858 18.296 115.419 17.955 115.419 17.438C115.419 16.734 114.803 16.679 113.967 16.58C112.713 16.426 111.712 16.173 111.712 15.007C111.712 13.984 112.647 13.313 113.912 13.324C115.188 13.335 116.112 13.929 116.2 15.095H115.276C115.21 14.523 114.682 14.094 113.912 14.094C113.131 14.094 112.603 14.424 112.603 14.941C112.603 15.557 113.197 15.634 114.011 15.733C115.287 15.887 116.31 16.129 116.31 17.372C116.31 18.417 115.309 19.066 114.066 19.066C112.614 19.066 111.613 18.384 111.591 17.152Z" fill="black"/>
</svg>
