<svg width="90" height="109" viewBox="0 0 90 109" fill="none" xmlns="http://www.w3.org/2000/svg">
<path d="M45.0016 92.5154C69.5493 92.5154 89.4491 71.933 89.4491 46.5434C89.4491 21.1537 69.5493 0.571289 45.0016 0.571289C20.454 0.571289 0.554199 21.1537 0.554199 46.5434C0.554199 71.933 20.454 92.5154 45.0016 92.5154Z" fill="black"/>
<g opacity="0.3">
<path d="M89.4473 46.5442C89.4473 46.9313 89.4432 47.3184 89.4321 47.7041C88.8381 22.8498 69.174 2.89074 44.9995 2.89074C43.5629 2.89074 42.1436 2.96032 40.7415 3.09947C40.7567 4.72359 39.1685 6.31911 36.9558 6.79627C34.6992 7.28343 32.5875 6.43492 32.0225 4.88085C14.146 10.5163 1.05041 27.4909 0.566963 47.7041C0.555905 47.3184 0.551758 46.9313 0.551758 46.5442C0.551758 25.6852 13.9832 8.0719 32.3878 2.45075C34.7032 1.74249 37.071 1.23275 39.4674 0.926714C41.3026 0.690193 43.1502 0.571898 44.9995 0.572512C69.5482 0.572512 89.4473 21.1542 89.4473 46.5442Z" fill="white"/>
</g>
<path d="M89.4473 46.5429C89.4473 71.9329 69.5482 92.5146 45.0002 92.5146C20.4522 92.5146 0.551758 71.9329 0.551758 46.5429C0.551758 45.137 0.611654 43.7475 0.731451 42.3743C2.76856 65.8135 21.812 84.1778 44.9995 84.1778C68.187 84.1778 87.2305 65.8135 89.2666 42.3743C89.3862 43.747 89.4464 45.1365 89.4473 46.5429Z" fill="#0F0F0F"/>
<path d="M45 93.0874C32.9802 93.0874 21.6795 88.2458 13.1802 79.455C4.68104 70.6643 0 58.9749 0 46.5438C0 34.1127 4.68104 22.4237 13.1806 13.6311C21.6801 4.8386 32.9815 -0.0012207 45.0003 -0.0012207C57.0191 -0.0012207 68.3206 4.84146 76.8201 13.6311C85.3197 22.4208 90.0004 34.1113 90.0004 46.5424C90.0004 58.9734 85.3193 70.6625 76.8201 79.4536C68.3209 88.2447 57.0202 93.0874 45 93.0874ZM45 1.14288C20.7962 1.14288 1.10478 21.5097 1.10478 46.5438C1.10478 71.5779 20.7965 91.9444 45 91.9444C69.2035 91.9444 88.8949 71.5779 88.8949 46.5438C88.8949 21.5097 69.2042 1.14288 45 1.14288Z" fill="black"/>
<path d="M66.0568 85.2758C68.8822 83.467 75.8039 79.5827 78.2869 74.7156C82.325 66.8023 86.7119 63.305 87.9698 56.8273C89.6899 47.9719 88.2248 46.0968 86.8489 34.5305C85.8215 25.8903 82.1913 18.7261 75.6841 14.8282C69.1768 10.9303 64.6179 4.20585 58.2235 2.46077C48.6797 -0.143855 43.7679 2.29496 37.6806 3.11004C31.4013 3.95074 24.6376 6.44721 20.117 9.6898C15.0184 13.345 13.88 18.4966 8.40444 24.5198C3.52436 29.8884 1.62331 34.9914 2.8732 44.8816C3.8565 52.6596 2.56 57.1035 4.79136 63.4768C6.88069 69.4454 10.7159 70.924 15.4081 79.3932C18.2171 84.4641 23.7039 85.9616 30.6824 88.8195C35.5286 90.8038 33.782 99.6807 38.354 99.9464C43.7949 100.263 41.7445 91.3887 45.9705 90.9478C51.9891 90.3204 46.779 108.097 53.5092 108.398C61.2536 108.745 55.4106 93.2551 60.4564 88.5851C62.4011 86.7854 64.5396 86.2465 66.0568 85.2758Z" fill="white"/>
<path d="M86.2797 47.5729C86.1736 48.8771 85.9649 50.325 85.6293 52.0513C84.4347 58.1954 80.273 61.5108 76.4407 69.0188C74.0846 73.6345 67.5175 77.3199 64.8366 79.034C64.7841 79.0669 64.7329 79.1012 64.679 79.1356L60.6739 65.3434C66.8516 61.4565 70.8363 55.3296 70.8363 48.4357C70.8363 36.6909 59.2695 27.1692 45.0011 27.1692C30.7326 27.1692 19.1645 36.6901 19.1645 48.4357C19.1645 54.8496 22.6146 60.6008 28.0701 64.5006L23.765 79.3182C20.7264 77.8971 18.3234 76.2469 16.7766 73.4565C12.3254 65.4228 8.68585 64.0206 6.70265 58.3587C4.58536 52.3148 5.81592 48.1008 4.88255 40.7211C4.75538 39.71 4.66139 38.7528 4.60333 37.8414C4.4461 39.9212 4.53698 42.2684 4.88255 45.0009C5.81558 52.3777 4.58536 56.5931 6.70265 62.6385C8.68585 68.2997 12.3254 69.7025 16.7766 77.7348C19.4423 82.5446 24.6489 83.9657 31.27 86.6757C35.8691 88.5586 34.2118 96.978 38.5497 97.2296C43.7125 97.5295 41.7666 89.1129 45.7772 88.694C51.488 88.1 46.5437 104.961 52.9304 105.246C60.2779 105.575 54.734 90.8825 59.5225 86.4544C61.3674 84.7474 63.3966 84.2359 64.8369 83.3145C67.5178 81.5989 74.085 77.915 76.4411 73.2978C80.2737 65.792 84.435 62.4759 85.6297 56.3318C86.3647 52.5514 86.487 50.1127 86.2797 47.5729ZM59.0715 83.2134C54.6797 91.1792 59.7733 102.197 53.3596 102.407C47.164 102.608 51.488 83.821 45.7772 84.4161C41.7666 84.8332 44.1724 95.6841 38.5469 95.4486C34.2063 95.267 35.8691 84.2792 31.27 82.3963C30.6525 82.1436 30.4579 80.6149 30.8626 79.8365C32.5766 76.5339 31.6332 72.3113 33.7781 67.5973C37.173 68.9469 40.9794 69.7029 45.0011 69.7029C48.52 69.7029 51.8734 69.1242 54.9299 68.0759C56.8053 72.5969 56.5368 76.3995 57.6353 79.835C58.2103 81.6336 59.2992 82.8005 59.0715 83.2134Z" fill="#E0E0E0"/>
<g opacity="0.5">
<path d="M86.3485 50.7292C86.2272 47.1908 85.3764 43.924 84.5602 37.0615C83.585 28.8662 80.1404 22.0709 73.9654 18.3738C67.7905 14.6766 63.4647 8.29884 57.3976 6.64327C48.3417 4.17314 43.6817 6.48601 37.9045 7.25875C31.9463 8.0558 25.5298 10.4244 21.2399 13.5C16.402 16.967 15.3218 21.8536 10.1262 27.5663C6.62352 31.4189 4.73535 35.1243 4.54079 40.7626C4.35868 34.0388 6.25342 29.9517 10.1303 25.6877C15.3259 19.9754 16.4062 15.0898 21.2455 11.6214C25.534 8.54761 31.9518 6.17755 37.9101 5.38051C43.6872 4.60741 48.3462 2.2949 57.4031 4.76467C63.4702 6.42024 67.796 12.797 73.971 16.4956C80.1459 20.1941 83.5905 26.9876 84.5674 35.1836C85.5226 43.2309 86.5268 46.3308 86.3485 50.7292Z" fill="white"/>
</g>
<g opacity="0.5">
<path d="M79.2996 58.0717C80.5343 59.8195 78.9582 65.9228 75.6504 64.7269C72.5061 63.5903 78.1772 56.4851 79.2996 58.0717Z" fill="white"/>
</g>
<g opacity="0.5">
<path d="M74.7418 26.9961C79.4373 31.5489 83.5883 46.0058 80.9561 53.0641C77.9645 61.0857 80.5974 47.4398 75.399 35.4305C73.0993 30.1181 71.4433 23.7979 74.7418 26.9961Z" fill="white"/>
</g>
<g opacity="0.5">
<path d="M14.546 34.1958C16.7197 23.5382 26.6892 15.833 34.5599 15.0556C40.8233 14.4369 29.3193 17.8878 21.5227 29.0511C18.2274 33.7694 13.6127 38.7715 14.546 34.1958Z" fill="white"/>
</g>
<path d="M53.6492 108.404C53.5608 108.404 53.4714 108.401 53.3808 108.397C49.4646 108.222 49.1262 103.077 48.8291 98.538C48.6347 95.569 48.4339 92.4989 47.2773 91.4861C46.9496 91.1992 46.5401 91.0852 46.0267 91.1396C44.5798 91.2909 44.0549 92.6819 43.3626 94.9549C42.6461 97.3069 41.7522 100.238 38.4228 100.04C35.7375 99.8832 34.9524 97.2256 34.1933 94.6557C33.497 92.2973 32.7766 89.8585 30.6752 88.9959C29.6936 88.5931 28.7415 88.2175 27.8206 87.8542C22.2201 85.6441 17.7966 83.8988 15.3193 79.4172C13.1478 75.4883 11.184 73.1236 9.45151 71.0373C7.55736 68.7561 5.92154 66.7861 4.80345 63.5849C3.42667 59.6421 3.37997 56.4678 3.32571 52.793C3.28978 50.4521 3.25386 48.0312 2.882 45.0711C1.70211 35.7134 3.16942 30.3175 8.48971 24.4513C10.806 21.8973 12.356 19.454 13.7238 17.2969C15.592 14.3532 17.2031 11.8123 20.1363 9.70359C24.6176 6.48152 31.3542 3.94992 37.7168 3.09586C39.1223 2.90732 40.4391 2.63456 41.8334 2.34577C46.2886 1.42316 50.8935 0.469244 58.2035 2.46874C62.0655 3.52513 65.1938 6.29781 68.5056 9.23296C70.7138 11.19 72.9967 13.2133 75.5702 14.7586C81.8624 18.5366 85.7689 25.4268 86.8672 34.6842C87.2369 37.8016 87.6059 40.1558 87.9314 42.2332C88.789 47.707 89.2195 50.4544 87.9673 56.9224C87.1906 60.9299 85.2368 63.8271 82.9733 67.1811C81.5362 69.3113 79.9086 71.727 78.3583 74.7718C76.1059 79.1974 70.4975 82.6904 67.1465 84.7771C66.7512 85.0234 66.3941 85.2454 66.0866 85.4429C65.5336 85.7973 64.9178 86.0894 64.2657 86.3983C63.1221 86.9401 61.8262 87.5535 60.642 88.6527C58.6178 90.5307 58.5287 94.5271 58.4424 98.3923C58.3598 102.104 58.2815 105.611 56.4937 107.346C55.7712 108.049 54.8151 108.404 53.6492 108.404ZM46.2677 89.9353C46.9443 89.9353 47.5321 90.1499 48.0185 90.5758C49.5469 91.9146 49.7549 95.0927 49.9752 98.4572C50.2526 102.695 50.5396 107.077 53.4304 107.207C54.4123 107.252 55.1579 107.013 55.709 106.477C57.1443 105.085 57.218 101.82 57.2942 98.3666C57.3858 94.2476 57.4806 89.9886 59.8763 87.7666C61.1902 86.5478 62.571 85.8934 63.7886 85.3166C64.4066 85.0234 64.9908 84.7469 65.4826 84.4313C65.7938 84.2315 66.1552 84.0065 66.5551 83.7576C69.59 81.8676 75.2393 78.3489 77.3422 74.2184C78.9263 71.1063 80.5758 68.6596 82.0323 66.501C84.3109 63.1224 86.1106 60.4537 86.8399 56.6902C88.0521 50.4343 87.6329 47.7584 86.7975 42.427C86.4864 40.4424 86.0994 37.9723 85.7269 34.8325C84.6745 25.96 80.9631 19.3761 74.9947 15.7915C72.3306 14.1907 70.0067 12.1323 67.7605 10.1407C64.551 7.29607 61.5197 4.60946 57.9114 3.62275C50.859 1.69331 46.3856 2.62003 42.0594 3.51581C40.7064 3.79453 39.3088 4.08555 37.8641 4.27894C31.6725 5.10989 25.1303 7.56399 20.7905 10.6843C18.0406 12.6615 16.4845 15.1137 14.6827 17.9531C13.2894 20.1493 11.7103 22.6384 9.32576 25.2673C4.99818 30.0391 2.74295 34.7841 4.02057 44.9168C4.40213 47.9444 4.44021 50.5106 4.47327 52.7747C4.52608 56.3429 4.57135 59.4242 5.8831 63.1791C6.92898 66.1742 8.42611 67.977 10.3213 70.2589C12.0876 72.3858 14.0892 74.7963 16.3153 78.824C18.5878 82.9359 22.842 84.6146 28.2284 86.7397C29.1529 87.1045 30.1086 87.4816 31.0973 87.8873C33.7125 88.9609 34.5511 91.7999 35.2912 94.3061C36.1057 97.0635 36.7284 98.7471 38.4864 98.8495C40.7649 98.9822 41.4325 97.3307 42.2664 94.5953C42.8948 92.5325 43.6072 90.1942 45.9106 89.9532C46.0325 89.9415 46.1516 89.9355 46.2677 89.9353Z" fill="white"/>
<path d="M55.7814 12.6113C56.0214 11.955 54.5169 10.7581 52.4208 9.93804C50.3248 9.11798 48.431 8.98528 48.191 9.64164C47.9509 10.298 49.4555 11.4949 51.5515 12.3149C53.6476 13.135 55.5413 13.2677 55.7814 12.6113Z" fill="white"/>
<path d="M48.1965 9.61621C47.8606 10.5351 49.4623 11.4687 51.5582 12.2883C53.654 13.1078 55.3539 13.773 55.7879 12.5857C55.9313 12.1925 55.8418 11.859 55.5837 11.5566C55.0363 12.4706 53.416 11.8365 51.4462 11.0659C50.0764 10.5298 48.9174 9.94575 48.3707 9.34814C48.2925 9.4216 48.2327 9.51359 48.1965 9.61621Z" fill="#D8D8D8"/>
<path d="M54.7627 13.5366C53.9026 13.5366 52.7283 13.0773 51.4518 12.578C48.6873 11.4961 47.567 10.5296 47.9302 9.53636C48.2934 8.54344 49.7503 8.58454 52.5158 9.66645C54.6912 10.5175 56.5697 11.2523 56.0375 12.7077C55.8177 13.3086 55.3678 13.5366 54.7627 13.5366ZM48.4468 9.73865C48.3455 10.0157 48.4547 10.7945 51.6467 12.0433C53.8476 12.9043 55.2061 13.3658 55.5209 12.5058C55.8357 11.6458 54.5215 11.0618 52.3209 10.2012C49.1286 8.95233 48.548 9.46165 48.4468 9.73865Z" fill="black"/>
<path d="M82.1866 34.6897C82.6579 34.1849 81.7332 32.4704 80.1212 30.8603C78.5092 29.2502 76.8203 28.3541 76.349 28.8589C75.8777 29.3637 76.8024 31.0782 78.4144 32.6883C80.0265 34.2984 81.7153 35.1945 82.1866 34.6897Z" fill="white"/>
<path d="M76.3625 28.8344C75.7028 29.5414 76.8176 31.0537 78.4294 32.6631C80.0411 34.2726 81.3487 35.5786 82.2012 34.6647C82.4829 34.3627 82.5285 34.0192 82.4068 33.636C81.555 34.2515 80.3086 33.007 78.7936 31.494C77.74 30.4418 76.8988 29.431 76.6265 28.6597C76.526 28.6946 76.4353 28.7547 76.3625 28.8344Z" fill="#D8D8D8"/>
<path d="M81.5399 35.2755C80.6114 35.2755 79.48 34.1453 78.2187 32.8854C77.2995 31.9675 76.6685 31.2123 76.2901 30.5768C75.7887 29.7344 75.7403 29.0871 76.146 28.6525C76.5517 28.2182 77.1789 28.2454 78.0103 28.734C78.6378 29.1028 79.3898 29.7283 80.309 30.6465C81.9819 32.3171 83.4267 33.76 82.3824 34.8794C82.1243 35.155 81.843 35.2755 81.5399 35.2755ZM76.8779 28.918C76.7369 28.918 76.6254 28.9618 76.5434 29.0492C76.336 29.2722 76.4083 29.6854 76.7604 30.2773C77.1094 30.8631 77.728 31.6026 78.6022 32.4744C80.2955 34.1646 81.3668 35.1439 81.9843 34.4827C82.6018 33.8215 81.618 32.7478 79.9251 31.0575C79.0522 30.1854 78.3161 29.5707 77.7373 29.2308C77.3827 29.0224 77.0956 28.918 76.8779 28.918Z" fill="black"/>
<path d="M70.913 58.6252C73.1492 58.4744 74.9263 57.7845 74.8821 57.0842C74.838 56.3839 72.9894 55.9385 70.7531 56.0893C68.5169 56.2401 66.7399 56.93 66.784 57.6302C66.8282 58.3305 68.6768 58.7759 70.913 58.6252Z" fill="white"/>
<path d="M66.7865 57.6051C66.8484 58.5855 68.6802 58.7488 70.9157 58.5987C73.1512 58.4486 74.9654 58.3256 74.8856 57.0589C74.8589 56.6404 74.6437 56.3741 74.2877 56.2097C74.155 57.2759 72.4262 57.3924 70.3248 57.534C68.8634 57.6326 67.5744 57.5969 66.8394 57.2859C66.7967 57.3862 66.7785 57.4958 66.7865 57.6051Z" fill="#D8D8D8"/>
<path d="M69.5946 58.9589C68.9529 58.9589 68.4197 58.9167 67.9846 58.832C67.045 58.649 66.5492 58.2505 66.5112 57.6475C66.4445 56.5881 67.7873 56.0034 70.7381 55.8029C73.0586 55.6467 75.0625 55.5112 75.1614 57.0646C75.2602 58.6179 73.2556 58.7527 70.9354 58.9092C70.443 58.9421 69.9972 58.9589 69.5946 58.9589ZM72.6799 56.2876C72.1422 56.2876 71.5025 56.3233 70.7744 56.3733C67.3682 56.6028 67.0423 57.3151 67.0623 57.6107C67.082 57.9199 67.4266 58.1418 68.0869 58.2705C68.7408 58.3974 69.6866 58.421 70.8978 58.3391C73.2476 58.1805 74.6672 58.0175 74.6095 57.1018C74.5694 56.4695 73.8766 56.2876 72.6795 56.2876H72.6799Z" fill="black"/>
<path d="M57.3587 71.3657C59.0104 69.7992 59.9776 68.11 59.5191 67.5928C59.0605 67.0756 57.3499 67.9262 55.6982 69.4927C54.0465 71.0592 53.0792 72.7484 53.5378 73.2656C53.9963 73.7828 55.707 72.9322 57.3587 71.3657Z" fill="white"/>
<path d="M53.525 73.2461C54.1667 73.9699 55.6938 72.9112 57.3452 71.345C58.9967 69.7788 60.3361 68.5082 59.5064 67.5724C59.2324 67.2633 58.9034 67.1954 58.5264 67.2979C59.0686 68.2147 57.7917 69.4257 56.2398 70.8979C55.1602 71.9215 54.1339 72.7289 53.3716 72.963C53.3997 73.0689 53.4523 73.1661 53.525 73.2461Z" fill="#D8D8D8"/>
<path d="M54.0789 73.7847C53.9395 73.7885 53.8011 73.7609 53.6731 73.7038C53.5451 73.6467 53.4306 73.5615 53.3376 73.4541C52.6437 72.6717 53.3356 71.3453 55.5147 69.2773C57.2287 67.6517 58.7088 66.2478 59.7258 67.3948C60.7428 68.5417 59.2627 69.946 57.5487 71.5716C55.9816 73.0584 54.8498 73.7847 54.0789 73.7847ZM53.744 73.0699C53.9375 73.2875 54.6594 73.5381 57.1745 71.1523C58.9089 69.5082 59.9183 68.4599 59.317 67.7826C58.7157 67.1052 57.6206 68.0556 55.8865 69.7001C53.3708 72.0862 53.5495 72.8515 53.744 73.0699Z" fill="black"/>
<path d="M20.6316 45.7473C22.319 44.2221 23.325 42.5573 22.8786 42.0289C22.4321 41.5005 20.7023 42.3086 19.0148 43.8338C17.3274 45.359 16.3214 47.0238 16.7679 47.5522C17.2143 48.0806 18.9442 47.2726 20.6316 45.7473Z" fill="white"/>
<path d="M16.7495 47.5416C17.3746 48.2814 18.9266 47.2606 20.6129 45.7359C22.2993 44.2111 23.6688 42.9741 22.8612 42.0187C22.5944 41.7027 22.2671 41.6255 21.8877 41.7195C22.4085 42.6488 21.104 43.8283 19.5182 45.2619C18.4151 46.2584 17.3705 47.0401 16.604 47.2553C16.6291 47.3616 16.6791 47.4599 16.7495 47.5416Z" fill="#D8D8D8"/>
<path d="M17.3216 48.0964C17.0064 48.0964 16.7531 47.9795 16.5568 47.7472C15.8813 46.9473 16.6038 45.6384 18.8303 43.6258C19.6683 42.8684 20.4597 42.1536 21.1387 41.7586C21.9705 41.2754 22.6246 41.3051 23.0842 41.8483C24.0743 43.0203 22.5617 44.386 20.8104 45.9697C19.2308 47.3973 18.0911 48.0964 17.3216 48.0964ZM16.9743 47.3719C17.1626 47.5949 17.8783 47.8626 20.4486 45.5401C22.2203 43.9389 23.2539 42.9167 22.6696 42.2251C22.4736 41.9931 22.1709 41.8155 21.4107 42.2576C20.7814 42.6232 20.0111 43.3195 19.1952 44.0568C16.6253 46.3801 16.7859 47.1489 16.9743 47.3719Z" fill="black"/>
<path d="M41.657 82.3649C41.9714 81.7431 40.6165 80.3682 38.6307 79.294C36.645 78.2198 34.7803 77.8531 34.4658 78.4749C34.1514 79.0967 35.5063 80.4716 37.4921 81.5459C39.4778 82.6201 41.3425 82.9868 41.657 82.3649Z" fill="white"/>
<path d="M34.4749 78.4521C34.0346 79.3228 35.5164 80.4483 37.5017 81.5224C39.487 82.5964 41.0977 83.4674 41.6665 82.3423C41.8545 81.9709 41.8047 81.6274 41.5832 81.2958C40.9339 82.1346 39.3985 81.3043 37.5325 80.295C36.2349 79.593 35.1518 78.8689 34.6802 78.208C34.5934 78.2707 34.5229 78.3546 34.4749 78.4521Z" fill="#D8D8D8"/>
<path d="M40.7968 83.1774C39.9156 83.1774 38.6992 82.5194 37.365 81.7978C34.7449 80.3802 33.7462 79.2819 34.2203 78.3408C34.6961 77.4004 36.1382 77.622 38.7579 79.0392C40.8192 80.1543 42.5982 81.1169 41.9026 82.4958C41.6569 82.9819 41.2764 83.1774 40.7968 83.1774ZM34.7117 78.606C34.579 78.868 34.597 79.655 37.621 81.2913C39.7058 82.4193 41.0017 83.0455 41.4133 82.231C41.8248 81.4164 40.5891 80.6737 38.5046 79.546C35.4795 77.9097 34.8444 78.3436 34.7117 78.606Z" fill="black"/>
<path d="M31.7931 14.3855C33.5858 12.9948 34.7092 11.4123 34.3021 10.8509C33.895 10.2895 32.1116 10.9618 30.3189 12.3525C28.5261 13.7432 27.4028 15.3257 27.8098 15.8871C28.2169 16.4485 30.0003 15.7762 31.7931 14.3855Z" fill="white"/>
<path d="M27.7956 15.8238C28.3662 16.6101 29.9858 15.7098 31.7773 14.3184C33.5687 12.9269 35.0221 11.7975 34.285 10.7824C34.0414 10.4471 33.7204 10.346 33.3354 10.41C33.7885 11.3771 32.4024 12.4537 30.7195 13.7615C29.5484 14.6711 28.4505 15.3699 27.6709 15.5268C27.6882 15.6349 27.7311 15.7369 27.7956 15.8238Z" fill="#D8D8D8"/>
<path d="M28.4293 16.4222C28.0644 16.4222 27.7866 16.285 27.5882 16.0115C26.9717 15.1627 27.7859 13.9117 30.1499 12.0753C31.0394 11.384 31.8777 10.7314 32.5851 10.3897C33.449 9.97078 34.1001 10.0508 34.5203 10.6274C34.9405 11.2039 34.8313 11.8726 34.2023 12.6146C33.6885 13.2201 32.8481 13.8727 31.9586 14.564C30.3534 15.8103 29.1985 16.4222 28.4293 16.4222ZM28.0298 15.6673C28.2026 15.9043 28.8965 16.226 31.6237 14.1061C32.4897 13.4331 33.3077 12.7976 33.7839 12.2368C34.3592 11.5577 34.2542 11.2157 34.0752 10.9694C33.8962 10.7232 33.6073 10.5237 32.8177 10.9058C32.1638 11.2225 31.3459 11.858 30.4799 12.531C27.7499 14.6508 27.8564 15.4307 28.0281 15.6673H28.0298Z" fill="black"/>
<path d="M73.6981 20.9486C73.9852 20.3127 72.5718 19.0023 70.5413 18.0216C68.5108 17.041 66.632 16.7614 66.345 17.3973C66.0579 18.0331 67.4713 19.3436 69.5018 20.3242C71.5323 21.3049 73.411 21.5844 73.6981 20.9486Z" fill="#3FE8BE"/>
<path d="M73.7058 20.922C73.3039 21.8124 71.5395 21.2773 69.5093 20.2969C67.4791 19.3165 65.8325 18.5212 66.3515 17.3711C66.5243 16.9911 66.8173 16.8239 67.2068 16.8042C66.9559 17.8475 68.5258 18.6056 70.434 19.527C71.761 20.1675 72.9746 20.6182 73.7687 20.605C73.7731 20.7144 73.7515 20.8232 73.7058 20.922Z" fill="#EEEEEE"/>
<path d="M72.8083 21.6847C72.0401 21.6847 70.9111 21.3176 69.3813 20.5788C67.2734 19.5612 65.4543 18.6823 66.0908 17.2723C66.3856 16.6186 67.0062 16.402 67.9358 16.629C68.694 16.813 69.6025 17.2519 70.654 17.7598C71.812 18.3188 72.6459 18.821 73.2036 19.2967C73.9424 19.9247 74.192 20.5205 73.9449 21.0681C73.7583 21.4774 73.385 21.6847 72.8083 21.6847ZM67.2737 17.1097C66.8449 17.1097 66.6863 17.3059 66.5912 17.5143C66.2156 18.3467 67.4828 19.0319 69.6149 20.0613C72.7074 21.5546 73.3228 21.0917 73.4441 20.8233C73.571 20.5427 73.3719 20.1764 72.8529 19.7353C72.3338 19.2942 71.5204 18.806 70.4204 18.2763C69.439 17.8024 68.5119 17.3549 67.8093 17.184C67.6341 17.1383 67.4544 17.1132 67.2737 17.1093V17.1097Z" fill="black"/>
<path d="M59.0863 23.2435C59.3733 22.6077 57.96 21.2972 55.9295 20.3166C53.899 19.3359 52.0202 19.0564 51.7331 19.6922C51.4461 20.328 52.8594 21.6385 54.89 22.6192C56.9205 23.5998 58.7992 23.8793 59.0863 23.2435Z" fill="#35DCFF"/>
<path d="M59.0925 23.2182C58.6906 24.1085 56.9265 23.5735 54.8963 22.593C52.8661 21.6126 51.2212 20.8174 51.7395 19.6672C51.9123 19.2869 52.205 19.12 52.5948 19.1003C52.3439 20.1437 53.9138 20.9017 55.8217 21.8228C57.149 22.4637 58.3623 22.9144 59.1564 22.9011C59.1608 23.0107 59.1388 23.1196 59.0925 23.2182Z" fill="#EEEEEE"/>
<path d="M58.1955 23.9798C57.4273 23.9798 56.2983 23.6128 54.7681 22.874C53.7162 22.3657 52.8081 21.9272 52.1847 21.4443C51.4206 20.8524 51.1825 20.2208 51.4776 19.5675C52.1142 18.1567 53.9343 19.036 56.0412 20.0536C57.1992 20.6126 58.033 21.1147 58.5908 21.5883C59.3296 22.2167 59.5791 22.8125 59.3317 23.3597C59.1454 23.7725 58.7722 23.9798 58.1955 23.9798ZM52.6712 19.4081C52.3374 19.4081 52.1052 19.5299 51.9801 19.8091C51.855 20.0882 51.8198 20.446 52.5174 20.9886C53.0949 21.4361 54.022 21.8821 55.0038 22.3575C58.0963 23.8508 58.7117 23.3879 58.833 23.1195C58.9598 22.8386 58.7608 22.4726 58.2418 22.0315C57.7227 21.5905 56.9093 21.1022 55.8093 20.5725C54.3908 19.8856 53.3316 19.4081 52.6712 19.4081Z" fill="white"/>
<path d="M83.0141 56.7613C83.0332 54.4436 82.4988 52.5598 81.8203 52.5538C81.1419 52.5478 80.5763 54.4218 80.5572 56.7396C80.538 59.0574 81.0725 60.9411 81.7509 60.9471C82.4294 60.9531 82.9949 59.0791 83.0141 56.7613Z" fill="white"/>
<path d="M81.789 52.5465C82.739 52.5547 83.0009 54.4369 82.9819 56.7544C82.9629 59.0719 82.9474 60.9516 81.7202 60.9405C81.3149 60.9373 81.0457 60.73 80.8667 60.3715C81.8882 60.1742 81.9034 58.3825 81.9207 56.2043C81.9331 54.6896 81.8256 53.3607 81.4839 52.6191C81.5783 52.5694 81.6831 52.5444 81.789 52.5465Z" fill="#EEEEEE"/>
<path d="M81.7544 61.2266H81.7412C81.0439 61.2205 80.5953 60.7262 80.408 59.7583C80.2549 58.9684 80.2632 57.9315 80.2733 56.7309C80.2981 53.6825 80.7851 52.2632 81.8052 52.2632H81.8145C82.8412 52.2721 83.3077 53.7007 83.2825 56.7588C83.2731 57.9093 83.2645 58.9963 83.0983 59.7833C82.8965 60.739 82.4441 61.2266 81.7544 61.2266ZM81.8072 52.8329C81.5194 52.8329 80.8545 53.2171 80.8258 56.7359C80.8165 57.8561 80.8079 58.9144 80.9495 59.646C81.1223 60.5307 81.4482 60.6525 81.7443 60.655C82.0405 60.6575 82.3715 60.5417 82.5575 59.66C82.7109 58.9309 82.7195 57.8729 82.7302 56.7524C82.7593 53.2225 82.0961 52.8354 81.81 52.8329H81.8072Z" fill="black"/>
<path d="M10.7214 47.5523C11.9096 45.587 12.4065 43.6923 11.8313 43.3202C11.256 42.9481 9.82644 44.2396 8.63824 46.2049C7.45004 48.1701 6.95315 50.0648 7.5284 50.4369C8.10366 50.809 9.53322 49.5175 10.7214 47.5523Z" fill="#3FE8BE"/>
<path d="M11.8127 43.3125C12.6182 43.8333 11.8897 45.5793 10.7017 47.544C9.51363 49.5088 8.54984 51.1025 7.50934 50.4295C7.16378 50.2072 7.04076 49.8848 7.06944 49.4827C8.03979 49.8672 8.95865 48.3479 10.0759 46.5011C10.8527 45.2169 11.4329 44.0259 11.5169 43.2092C11.6222 43.218 11.7238 43.2535 11.8127 43.3125Z" fill="#EEEEEE"/>
<path d="M8.02591 50.8916C7.81581 50.8916 7.60156 50.8262 7.38109 50.6836C6.10525 49.8583 7.17029 48.0973 8.40327 46.0583C9.97145 43.4648 11.107 42.5198 11.9775 43.0827C12.8476 43.6457 12.5228 45.1154 10.9549 47.7085C9.9362 49.3951 9.03116 50.8916 8.02591 50.8916ZM11.4781 43.5099C11.1035 43.5099 10.3274 43.9538 8.87186 46.361C7.62402 48.4244 6.92114 49.7122 7.67413 50.1993C8.42711 50.6865 9.23885 49.4688 10.4867 47.4054C12.2964 44.4123 11.927 43.7239 11.6844 43.567C11.6225 43.5288 11.5513 43.5095 11.4792 43.5113L11.4781 43.5099Z" fill="black"/>
<path d="M19.3032 62.4973C19.638 61.8869 18.3291 60.4651 16.3798 59.3216C14.4305 58.1782 12.579 57.746 12.2442 58.3564C11.9095 58.9668 13.2184 60.3886 15.1677 61.5321C17.117 62.6756 18.9685 63.1077 19.3032 62.4973Z" fill="#3FE8BE"/>
<path d="M19.3146 62.4788C18.846 63.3334 17.1282 62.6557 15.1796 61.5138C13.2309 60.3718 11.6496 59.4432 12.255 58.3388C12.4551 57.9739 12.7609 57.8313 13.1507 57.8438C12.8211 58.8631 14.3281 59.747 16.1599 60.8218C17.4337 61.5692 18.609 62.1174 19.4017 62.1693C19.3975 62.2782 19.3676 62.3845 19.3146 62.4788Z" fill="#EEEEEE"/>
<path d="M18.5297 63.1694C18.2553 63.1638 17.9829 63.1209 17.7193 63.0418C17.023 62.8462 16.1439 62.4341 15.0326 61.7822C14.065 61.2146 13.1506 60.6785 12.5663 60.1459C11.8499 59.4933 11.6612 58.8446 12.005 58.2159C12.3489 57.5872 12.9844 57.4235 13.8936 57.7241C14.6352 57.9696 15.5074 58.4811 16.5171 59.0737C19.0892 60.5823 20.0512 61.7154 19.5446 62.6389C19.3504 62.9924 19.0104 63.1694 18.5297 63.1694ZM13.0939 58.1465C12.7401 58.1465 12.5856 58.3152 12.485 58.4986C12.3382 58.7663 12.2777 59.1205 12.9308 59.7167C13.4723 60.2103 14.3622 60.7321 15.3042 61.285C16.3602 61.9044 17.221 62.3098 17.8634 62.4899C18.5117 62.6722 18.9153 62.6275 19.0632 62.3577C19.2046 62.1 19.2129 61.3129 16.2441 59.5716C15.3014 59.0186 14.4126 58.4964 13.7246 58.2691C13.4623 58.1823 13.257 58.1465 13.0939 58.1465Z" fill="black"/>
<path d="M34.8254 71.1233C37.017 70.6394 38.6788 69.6908 38.5372 69.0045C38.3955 68.3182 36.5041 68.1541 34.3125 68.638C32.1209 69.1219 30.4591 70.0705 30.6007 70.7568C30.7423 71.4431 32.6338 71.6072 34.8254 71.1233Z" fill="#3FE8BE"/>
<path d="M38.5333 68.9838C38.7316 69.9445 37.0128 70.6175 34.8208 71.1015C32.6289 71.5854 30.8524 71.9775 30.596 70.7362C30.5113 70.3259 30.6485 70.0092 30.9481 69.7508C31.3558 70.7394 33.0502 70.3652 35.1097 69.9106C36.5418 69.5943 37.7727 69.1957 38.3985 68.6914C38.4659 68.776 38.5122 68.8764 38.5333 68.9838Z" fill="#EEEEEE"/>
<path d="M31.9728 71.8743C31.028 71.8743 30.4758 71.5186 30.331 70.8177C30.1862 70.1168 30.5542 69.5521 31.4275 69.1525C32.1397 68.8269 33.1674 68.5999 34.2556 68.3597C35.5048 68.0838 36.462 67.9666 37.1842 67.9948C38.1397 68.0352 38.6861 68.3551 38.8084 68.9459C38.9307 69.5367 38.5579 70.0596 37.7026 70.5C37.0564 70.8324 36.1348 71.128 34.8848 71.4039C33.797 71.6441 32.7693 71.871 31.9904 71.8743H31.9728ZM36.9634 68.562C36.3148 68.562 35.4429 68.6814 34.3717 68.9195C33.3125 69.1532 32.3121 69.3741 31.6521 69.6761C30.8542 70.0411 30.8103 70.3978 30.8725 70.6991C30.9347 71.0004 31.1144 71.3035 31.9721 71.3035H31.9876C32.7095 71.3006 33.7099 71.0797 34.7694 70.8456C35.9565 70.5836 36.8605 70.2955 37.4562 69.9878C38.0578 69.6783 38.3312 69.3677 38.2686 69.0646C38.2061 68.7615 37.8339 68.5935 37.1628 68.5642C37.0968 68.5631 37.0308 68.562 36.962 68.562H36.9634Z" fill="black"/>
<path d="M70.6542 36.9635C72.5678 35.7572 73.8328 34.2936 73.4797 33.6944C73.1266 33.0951 71.2891 33.5872 69.3755 34.7934C67.4619 35.9997 66.1969 37.4633 66.55 38.0625C66.9031 38.6618 68.7406 38.1697 70.6542 36.9635Z" fill="white"/>
<path d="M73.4708 33.6808C73.965 34.5196 72.5575 35.7431 70.6441 36.949C68.7307 38.1549 67.1787 39.1328 66.5401 38.0488C66.329 37.6914 66.3573 37.345 66.5571 36.9987C67.2582 37.7922 68.7376 36.8596 70.5359 35.7263C71.7865 34.9382 72.8211 34.1422 73.25 33.4509C73.3406 33.5078 73.4164 33.5867 73.4708 33.6808Z" fill="#EEEEEE"/>
<path d="M67.3719 38.8184C66.9047 38.8184 66.5502 38.6172 66.3138 38.2154C65.9509 37.6 66.1199 36.9452 66.8159 36.2696C67.384 35.7185 68.24 35.1788 69.2314 34.554C70.3227 33.8664 71.1887 33.426 71.8791 33.208C72.7939 32.9192 73.4117 33.0343 73.7155 33.5504C74.2497 34.4572 73.3226 35.6206 70.7975 37.2122C69.8061 37.8369 68.9498 38.3766 68.2161 38.6461C67.903 38.7609 67.6211 38.8184 67.3719 38.8184ZM72.741 33.6226C72.5528 33.6226 72.3192 33.6666 72.0402 33.7545C71.4036 33.9554 70.5542 34.3885 69.5175 35.0412C68.5925 35.6241 67.7189 36.1749 67.1926 36.6853C66.5567 37.3022 66.6293 37.6543 66.7841 37.917C66.9389 38.1797 67.2078 38.4081 68.0299 38.1064C68.7099 37.8562 69.5849 37.3062 70.5083 36.7232C73.4231 34.8861 73.3913 34.0994 73.2424 33.8467C73.1553 33.6977 72.987 33.6226 72.741 33.6226Z" fill="black"/>
<path d="M44.2233 17.9187C44.2866 17.22 42.5453 16.48 40.334 16.2658C38.1227 16.0516 36.2789 16.4444 36.2156 17.1431C36.1524 17.8418 37.8937 18.5818 40.1049 18.796C42.3162 19.0102 44.16 18.6174 44.2233 17.9187Z" fill="#C6FF00"/>
<path d="M44.2222 17.9208C44.1334 18.8987 42.3143 19.0109 40.1034 18.7968C37.8924 18.5827 36.0993 18.4094 36.2137 17.1452C36.2517 16.7277 36.4722 16.4661 36.8295 16.3135C36.9311 17.3829 38.6409 17.5484 40.7185 17.7496C42.1636 17.8893 43.4415 17.8901 44.1786 17.6002C44.2179 17.7019 44.2329 17.8119 44.2222 17.9208Z" fill="#688602"/>
<path d="M41.7733 19.1728C41.2822 19.1728 40.7193 19.1417 40.0776 19.0795C38.932 18.9687 37.9423 18.8729 37.2045 18.6356C36.2998 18.345 35.8741 17.8336 35.9391 17.1159C36.0794 15.5661 38.0622 15.7577 40.3582 15.9807C41.6195 16.1026 42.5598 16.2845 43.2333 16.5358C44.1259 16.8692 44.5513 17.3432 44.4967 17.9444C44.4421 18.5455 43.9396 18.9298 43.0024 19.086C42.5956 19.1483 42.1846 19.1774 41.7733 19.1728ZM38.1417 16.4057C37.1285 16.4057 36.5414 16.5897 36.4892 17.1691C36.4612 17.4758 36.5442 17.825 37.3687 18.0902C38.0512 18.3096 39.062 18.4072 40.1291 18.5109C41.3265 18.6267 42.2636 18.6302 42.9147 18.522C43.5713 18.4122 43.9189 18.2003 43.9465 17.8911C43.9742 17.5819 43.6701 17.3071 43.0456 17.0733C42.4236 16.8417 41.5041 16.6655 40.3067 16.5497C39.4566 16.4671 38.7274 16.4057 38.1417 16.4057Z" fill="black"/>
<path d="M79.2283 49.4763C79.752 49.0301 79.0318 47.2311 77.6197 45.4581C76.2076 43.6851 74.6384 42.6095 74.1147 43.0556C73.591 43.5018 74.3112 45.3008 75.7233 47.0739C77.1354 48.8469 78.7047 49.9225 79.2283 49.4763Z" fill="#C6FF00"/>
<path d="M79.228 49.4801C78.4947 50.1046 77.1352 48.8493 75.7236 47.0765C74.312 45.3037 73.1664 43.8658 74.1139 43.0587C74.427 42.7921 74.7608 42.7707 75.1185 42.924C74.4567 43.7525 75.5487 45.1232 76.8754 46.7891C77.7984 47.9479 78.6989 48.8858 79.417 49.2221C79.3751 49.3227 79.3102 49.4112 79.228 49.4801Z" fill="#688602"/>
<path d="M78.7871 49.9294C78.4378 49.9294 78.0304 49.7553 77.5687 49.4083C76.9895 48.9729 76.3163 48.2695 75.5112 47.2584C74.0449 45.4173 72.7788 43.8272 73.9399 42.8378C75.101 41.8485 76.3675 43.4383 77.8337 45.279C78.6392 46.2905 79.1776 47.1086 79.48 47.781C79.8809 48.6709 79.8553 49.3179 79.4047 49.7007C79.2318 49.8507 79.0128 49.9318 78.7871 49.9294ZM74.6977 43.1191C74.5483 43.1199 74.4041 43.1761 74.2913 43.2775C73.6057 43.8615 74.4558 45.0331 75.9373 46.8935C76.702 47.8535 77.36 48.5437 77.8935 48.9447C78.4271 49.3457 78.822 49.4548 79.0536 49.2571C79.2851 49.0598 79.2609 48.6434 78.9793 48.0197C78.6976 47.396 78.172 46.6011 77.4076 45.6411C76.1982 44.1242 75.3436 43.1191 74.6977 43.1191Z" fill="black"/>
<path d="M17.1747 28.9951C19.1519 27.949 20.5044 26.5945 20.1954 25.9697C19.8864 25.345 18.0331 25.6865 16.0558 26.7326C14.0785 27.7787 12.7261 29.1332 13.035 29.7579C13.344 30.3827 15.1974 30.0411 17.1747 28.9951Z" fill="#C6FF00"/>
<path d="M20.1963 25.9754C20.6286 26.85 19.1513 27.9537 17.1747 28.9995C15.1981 30.0453 13.5939 30.8938 13.0352 29.7633C12.8503 29.3898 12.9018 29.0485 13.1233 28.7193C13.7636 29.5657 15.2924 28.755 17.1505 27.7743C18.4426 27.0905 19.5218 26.3803 19.9935 25.7288C20.0794 25.7928 20.149 25.8774 20.1963 25.9754Z" fill="#688602"/>
<path d="M13.9339 30.5833C13.3983 30.5833 13.0137 30.3527 12.7866 29.8935C12.4691 29.2501 12.683 28.6135 13.418 27.9966C14.0182 27.4937 14.9039 27.0259 15.9275 26.4837C17.5703 25.6148 19.8248 24.604 20.4392 25.8457C21.0533 27.0877 18.9405 28.3862 17.298 29.2551C16.2734 29.7969 15.3884 30.2652 14.6427 30.4743C14.4121 30.5426 14.1738 30.5793 13.9339 30.5833ZM19.3396 25.8428C18.8213 25.8428 17.8796 26.093 16.1791 26.9926C15.2236 27.498 14.321 27.9752 13.7656 28.4405C13.0945 29.0028 13.1436 29.3587 13.2784 29.6332C13.4132 29.9077 13.6647 30.1562 14.4982 29.9228C15.1894 29.729 16.0909 29.2519 17.0464 28.7465C20.056 27.1545 20.0774 26.3693 19.9471 26.1059C19.8918 25.9911 19.7394 25.8428 19.341 25.8428H19.3396Z" fill="black"/>
<path d="M48.2594 76.5963C48.8133 76.1911 48.2228 74.3422 46.9403 72.4667C45.6579 70.5913 44.1692 69.3994 43.6153 69.8046C43.0614 70.2098 43.6519 72.0587 44.9344 73.9341C46.2168 75.8096 47.7055 77.0015 48.2594 76.5963Z" fill="#C6FF00"/>
<path d="M48.2583 76.5982C47.4829 77.1654 46.2164 75.8101 44.934 73.9351C43.6516 72.06 42.6118 70.5396 43.6139 69.8061C43.945 69.5638 44.2795 69.5677 44.6254 69.7479C43.907 70.5238 44.8984 71.9739 46.1034 73.736C46.9414 74.9616 47.7728 75.9656 48.4653 76.3555C48.4164 76.4526 48.3454 76.5359 48.2583 76.5982Z" fill="#688602"/>
<path d="M47.8619 77.0151C46.8373 77.0151 45.6036 75.4089 44.7079 74.0989C43.3764 72.1513 42.2264 70.4697 43.4549 69.5711C44.6834 68.6726 45.8334 70.3542 47.1649 72.3011C48.2303 73.8594 49.5192 76.0236 48.4183 76.8293C48.2566 76.9507 48.0617 77.0158 47.8619 77.0151ZM44.1446 69.9089C44.011 69.91 43.8811 69.9551 43.7738 70.0376C43.0482 70.568 43.8136 71.8011 45.1592 73.769C47.111 76.6237 47.865 76.534 48.0993 76.3628C48.3336 76.1916 48.6657 75.4861 46.7139 72.6314C45.5895 70.9869 44.7974 69.9089 44.1446 69.9089Z" fill="black"/>
<path d="M55.8082 83.0039C57.9256 82.3108 59.4762 81.2066 59.2715 80.5376C59.0668 79.8686 57.1843 79.888 55.0669 80.5811C52.9494 81.2741 51.3989 82.3783 51.6036 83.0474C51.8082 83.7164 53.6907 83.697 55.8082 83.0039Z" fill="#C6FF00"/>
<path d="M59.2717 80.5407C59.5586 81.4775 57.924 82.3131 55.8078 83.0069C53.6915 83.7006 51.972 84.2618 51.6033 83.0515C51.481 82.6516 51.5864 82.3235 51.8576 82.0372C52.3535 82.9815 53.9908 82.4454 55.9802 81.7941C57.3642 81.3413 58.5416 80.8273 59.1114 80.2637C59.1856 80.3413 59.2406 80.4363 59.2717 80.5407Z" fill="#688602"/>
<path d="M52.7175 84.0428C52.0367 84.0428 51.5425 83.8004 51.3397 83.1356C50.8856 81.652 52.7841 81.0304 54.9823 80.312C56.7419 79.7358 59.1274 79.1247 59.5344 80.455C59.9412 81.7849 57.6497 82.7042 55.8911 83.2786C54.6778 83.6743 53.5558 84.0428 52.7175 84.0428ZM58.0613 80.2316C57.4914 80.2316 56.5864 80.3842 55.1506 80.8546C52.9286 81.5819 51.5992 82.0866 51.8677 82.9633C52.1362 83.8401 53.504 83.4609 55.7256 82.7335C58.948 81.6788 59.0952 80.9082 59.0085 80.6248C58.9598 80.4686 58.7694 80.2316 58.0613 80.2316Z" fill="black"/>
<path d="M34.5601 62.4486C29.829 65.0882 30.5826 71.8549 29.3866 77.1847C28.022 83.2687 21.5032 84.43 17.8858 79.5305C17.3212 78.7649 16.8751 77.8949 16.5419 76.9463C14.4813 71.0993 16.6539 62.3071 20.9935 56.9973C22.2144 55.5032 23.6064 54.2848 25.1258 53.4863L34.5601 62.4486Z" fill="black"/>
<g opacity="0.2">
<path d="M34.5611 62.4486C29.83 65.0882 30.5837 71.8549 29.3877 77.1847C28.023 83.2687 21.5043 84.43 17.8869 79.5305C17.3222 78.7649 16.8761 77.8949 16.543 76.9463C18.8275 79.6945 22.5385 80.5873 24.9347 79.0462C28.541 76.7276 29.8735 67.8539 26.7662 64.997C23.4999 61.9947 21.8191 58.9566 20.9952 56.9973C22.2161 55.5032 23.6081 54.2848 25.1275 53.4863L34.5611 62.4486Z" fill="black"/>
</g>
<path d="M23.4013 83.1514C21.1856 83.1514 18.9916 81.9719 17.4462 79.8767C15.2266 76.8694 14.6171 72.1329 15.7744 66.8816C17.1566 60.6168 20.7267 55.1583 24.8741 52.978C24.9392 52.9396 25.011 52.9153 25.0854 52.9065C25.1597 52.8977 25.235 52.9047 25.3067 52.9269C25.3784 52.9491 25.445 52.9861 25.5025 53.0357C25.5599 53.0853 25.6071 53.1465 25.641 53.2155C25.6749 53.2845 25.695 53.3599 25.6999 53.4371C25.7048 53.5143 25.6945 53.5918 25.6696 53.6648C25.6447 53.7378 25.6058 53.8049 25.5551 53.8618C25.5045 53.9188 25.4431 53.9646 25.3749 53.9963C21.508 56.0311 18.1622 61.189 16.8515 67.1365C15.7674 72.056 16.3041 76.4476 18.3243 79.1844C19.9443 81.3793 22.2579 82.3894 24.512 81.8879C26.6545 81.4104 28.2766 79.6044 28.8482 77.056C29.1547 75.6895 29.3351 74.1859 29.5096 72.7312C30.0231 68.4554 30.5539 64.0337 34.2971 61.9457C34.3611 61.9067 34.4322 61.8814 34.5059 61.8715C34.5796 61.8615 34.6546 61.8671 34.7262 61.8877C34.7978 61.9084 34.8646 61.9438 34.9227 61.9919C34.9808 62.0399 35.0289 62.0995 35.0642 62.1672C35.0995 62.2349 35.1212 62.3093 35.128 62.3859C35.1349 62.4625 35.1267 62.5397 35.104 62.613C35.0814 62.6862 35.0446 62.754 34.996 62.8122C34.9475 62.8704 34.888 62.9179 34.8213 62.9518C31.5799 64.7596 31.1071 68.7002 30.6054 72.872C30.4274 74.3553 30.2432 75.889 29.9236 77.3137C29.2528 80.3042 27.3166 82.4316 24.7439 83.0041C24.3027 83.1024 23.8526 83.1517 23.4013 83.1514Z" fill="black"/>
<g opacity="0.5">
<path d="M53.2845 91.7505C52.4641 91.7505 51.1558 99.9851 53.7559 99.6137C55.69 99.3396 54.1052 91.7505 53.2845 91.7505Z" fill="white"/>
</g>
<g opacity="0.5">
<path d="M38.5512 87.55C37.7308 87.55 36.2549 94.0551 38.8546 93.6841C40.7891 93.4074 39.3719 87.55 38.5512 87.55Z" fill="white"/>
</g>
<g opacity="0.5">
<path d="M53.2684 87.55C52.3423 87.55 51.3032 90.7275 53.4211 90.5849C54.9966 90.4787 53.9367 87.55 53.2684 87.55Z" fill="white"/>
</g>
<path d="M26.6697 77.8367C26.9873 79.2642 27.3087 81.0945 26.3673 82.3641C25.8414 82.9767 24.9979 82.1407 25.5694 81.5713C26.3338 80.7135 26.226 79.064 26.1292 77.9546C26.0788 77.6008 26.5785 77.4921 26.6697 77.8367Z" fill="black"/>
<path d="M20.5885 78.856C20.9219 79.9998 21.443 81.4141 22.5744 81.8966C23.2552 82.1675 22.8965 83.2115 22.2019 82.9753C21.7814 82.7794 21.4417 82.4488 21.1808 82.1175C20.7111 81.4945 20.4444 80.7811 20.2512 80.0444C20.1586 79.6864 20.0893 79.3223 20.0438 78.9546C20.0346 78.8814 20.0531 78.8072 20.0955 78.7477C20.138 78.6883 20.201 78.6481 20.2714 78.6357C20.3419 78.6232 20.4142 78.6395 20.4734 78.681C20.5325 78.7226 20.5737 78.7862 20.5885 78.8585V78.856Z" fill="black"/>
<g opacity="0.3">
<path d="M18.8235 65.1989C17.9648 66.9349 17.7025 71.1817 18.3687 71.7865C19.5257 72.8373 20.1235 69.113 20.4484 70.0387C20.7732 70.9644 21.6509 71.1824 22.1869 69.1312C22.7398 67.0164 22.4796 64.7114 21.2121 65.7868C19.883 66.9148 20.2199 62.3753 18.8235 65.1989Z" fill="white"/>
</g>
<path d="M54.2871 62.4486C59.0189 65.0882 58.2649 71.8552 59.4609 77.1847C60.8256 83.2687 67.3443 84.43 70.9614 79.5305C71.5264 78.7649 71.9725 77.8949 72.3053 76.9463C74.3659 71.0993 72.1933 62.3071 67.854 56.9973C66.6332 55.5032 65.2409 54.2848 63.7218 53.4863L54.2871 62.4486Z" fill="black"/>
<g opacity="0.2">
<path d="M54.2871 62.4486C59.0189 65.0882 58.2649 71.8552 59.4609 77.1847C60.8256 83.2687 67.3443 84.43 70.9614 79.5305C71.5264 78.7649 71.9725 77.8949 72.3053 76.9463C70.0211 79.6945 66.3097 80.5873 63.9136 79.0462C60.3076 76.7276 58.9747 67.8539 62.0838 64.997C65.3501 61.9947 67.0309 58.9566 67.8547 56.9973C66.6338 55.5032 65.2416 54.2848 63.7225 53.4863L54.2871 62.4486Z" fill="black"/>
</g>
<path d="M65.4453 83.151C64.9938 83.1512 64.5435 83.1018 64.1021 83.0037C61.5294 82.4318 59.5928 80.3034 58.9221 77.3129C58.6024 75.8882 58.4182 74.3545 58.2403 72.8712C57.7395 68.6994 57.2664 64.7578 54.0243 62.951C53.9004 62.8763 53.8095 62.7547 53.7706 62.6118C53.7318 62.469 53.7482 62.3162 53.8162 62.1856C53.8843 62.055 53.9988 61.9569 54.1355 61.912C54.2722 61.8671 54.4205 61.8789 54.5489 61.9449C58.2921 64.0329 58.8229 68.4546 59.3361 72.7304C59.5106 74.1844 59.6909 75.688 59.9978 77.0552C60.5694 79.6036 62.1904 81.41 64.3336 81.8871C66.5885 82.3875 68.9013 81.3785 70.5213 79.1836C72.5415 76.4469 73.0785 72.0556 71.9941 67.1361C70.6838 61.1882 67.338 56.0303 63.4708 53.9955C63.4027 53.9636 63.3416 53.9178 63.2912 53.8607C63.2408 53.8037 63.2021 53.7368 63.1774 53.6639C63.1526 53.5909 63.1425 53.5136 63.1475 53.4365C63.1524 53.3594 63.1725 53.2842 63.2064 53.2153C63.2403 53.1465 63.2873 53.0854 63.3446 53.0359C63.4019 52.9863 63.4684 52.9493 63.5399 52.9271C63.6114 52.9048 63.6866 52.8978 63.7608 52.9064C63.8351 52.915 63.9068 52.9391 63.9718 52.9772C68.1186 55.1593 71.6911 60.6174 73.0716 66.8809C74.2289 72.1321 73.6193 76.8686 71.3998 79.8759C69.8551 81.9693 67.6607 83.151 65.4453 83.151Z" fill="black"/>
<path d="M62.7184 77.9534C62.623 79.0614 62.5138 80.713 63.2779 81.5701C63.8571 82.1492 62.9845 82.9884 62.4675 82.3468C61.718 81.3257 61.8203 80.0711 61.9651 78.9056C62.0176 78.5452 62.0887 78.188 62.1779 77.8354C62.1957 77.7641 62.2394 77.7027 62.2999 77.6638C62.3604 77.625 62.4331 77.6118 62.5027 77.627C62.5724 77.6422 62.6337 77.6846 62.6739 77.7454C62.7141 77.8062 62.73 77.8807 62.7184 77.9534Z" fill="black"/>
<path d="M68.804 78.9515C68.6467 80.0831 68.3509 81.1875 67.6674 82.1161C67.3249 82.5403 66.4368 83.4925 65.9683 82.699C65.9347 82.6323 65.9141 82.5594 65.9078 82.4845C65.9015 82.4095 65.9096 82.334 65.9316 82.2623C65.9535 82.1906 65.9889 82.1241 66.0358 82.0665C66.0827 82.009 66.14 81.9616 66.2046 81.927C66.4808 81.824 66.7329 81.6622 66.9448 81.452C67.6083 80.7704 68.0061 79.7814 68.258 78.8553C68.3368 78.5054 68.842 78.5951 68.8026 78.9515H68.804Z" fill="black"/>
<g opacity="0.3">
<path d="M70.0224 65.1989C70.8811 66.9349 71.1434 71.1817 70.4775 71.7865C69.3202 72.8373 68.7227 69.113 68.3975 70.0387C68.0723 70.9644 67.1953 71.1824 66.659 69.1312C66.1061 67.0164 66.3666 64.7114 67.6338 65.7868C68.9632 66.9148 68.6259 62.3753 70.0224 65.1989Z" fill="white"/>
</g>
<g opacity="0.2">
<path d="M68.3431 53.7735C67.7449 55.6374 66.7615 57.5346 65.0257 59.3188C63.7025 60.6817 62.1046 61.7571 59.5675 62.9245C57.2097 64.0085 51.3361 65.5855 44.3556 65.5072C37.3728 65.45 31.5251 63.7587 29.1853 62.63C26.6675 61.4147 25.0862 60.3067 23.7851 58.9203C22.1333 57.1618 21.1885 55.3104 20.6128 53.4961C21.1231 54.2961 21.7057 55.0443 22.3527 55.7303C23.745 57.2133 25.4355 58.3974 28.1261 59.6977C30.6301 60.9033 36.8807 62.7118 44.347 62.7733C51.8112 62.8576 58.0891 61.1706 60.6111 60.0119C63.3238 58.7648 65.0309 57.6136 66.4477 56.1578C67.1563 55.4318 67.7914 54.6329 68.3431 53.7735Z" fill="black"/>
</g>
<g opacity="0.6">
<path d="M53.4584 37.6369C53.4584 37.6369 52.2892 19.4917 39.3447 19.4968C35.1526 19.4984 33.2116 22.5915 33.9665 24.9953C34.6814 27.2733 36.4277 28.0523 37.6864 27.9159C42.1137 27.4316 47.2978 22.0931 53.4584 37.6369Z" fill="white"/>
</g>
<path d="M26.8097 52.2293C27.4978 50.8347 28.2758 49.4864 29.139 48.1928C29.4079 47.8089 29.9867 47.708 30.4175 47.9566C30.8488 48.2052 31.051 48.756 30.8533 49.181C30.1652 50.5755 29.3871 51.9238 28.5241 53.2175C28.2552 53.6014 27.6763 53.702 27.2455 53.4537C26.8139 53.2042 26.6118 52.6529 26.8097 52.2293Z" fill="#9CEF43"/>
<path d="M28.1393 53.5893C27.8921 53.5896 27.6493 53.5409 27.435 53.448C26.8354 53.1882 26.5685 52.6166 26.8392 52.1772C27.7345 50.8069 28.7468 49.4819 29.8698 48.2106C30.2397 47.812 31.0273 47.7011 31.6262 47.9619C32.2251 48.2228 32.4933 48.7934 32.2223 49.233C31.3259 50.6037 30.3126 51.9291 29.189 53.2009C28.9579 53.4522 28.5553 53.5893 28.1393 53.5893ZM26.9684 52.2232C26.7273 52.6129 26.9684 53.1212 27.5059 53.3547C28.0435 53.5883 28.7457 53.4914 29.0739 53.1388C30.1937 51.8716 31.2032 50.551 32.0963 49.1852C32.3373 48.7954 32.0963 48.288 31.558 48.0544C31.0197 47.8209 30.3182 47.9175 29.9903 48.2703C28.8709 49.5373 27.8615 50.8577 26.9687 52.2232H26.9684Z" fill="black"/>
<path d="M28.3417 55.0315C28.0602 55.0323 27.7834 54.9601 27.5392 54.8223C26.8451 54.4286 26.5406 53.5579 26.8608 52.8788C26.8626 52.8757 26.8643 52.8719 26.8658 52.8688C27.6342 51.3371 28.5027 49.8561 29.4659 48.435C29.9082 47.8137 30.8278 47.6361 31.5223 48.0298C32.2167 48.4235 32.5208 49.2942 32.2006 49.9733C31.431 51.5085 30.5609 52.993 29.5959 54.4174C29.3119 54.8157 28.8322 55.0315 28.3417 55.0315ZM27.739 53.2854C27.6327 53.5176 27.765 53.8484 28.0241 53.9952C28.2833 54.1421 28.6447 54.0889 28.7942 53.8803C29.7317 52.4961 30.5771 51.0537 31.3251 49.5621C31.43 49.3399 31.2979 49.0063 31.037 48.8583C30.7761 48.7103 30.4165 48.7649 30.2669 48.9732C29.3308 50.3556 28.4864 51.796 27.739 53.2854Z" fill="black"/>
<path d="M28.7355 39.7776C28.4229 38.0318 28.2213 36.2671 28.1322 34.4946C28.1174 33.96 28.5679 33.4739 29.1198 33.408C29.6713 33.3422 30.2193 33.7088 30.3255 34.2326C30.6384 35.9783 30.8399 37.7431 30.9288 39.5156C30.9438 40.0503 30.4931 40.5366 29.9412 40.6037C29.3896 40.6684 28.8416 40.3014 28.7355 39.7776Z" fill="#FFF61E"/>
<path d="M29.7986 40.6107C29.2824 40.6107 28.8098 40.2437 28.711 39.7428C28.411 38.024 28.2177 36.2866 28.1322 34.5414C28.1169 33.9853 28.5646 33.4777 29.1301 33.4084C29.6956 33.3392 30.2427 33.7247 30.3497 34.2683C30.6496 35.988 30.843 37.7264 30.9288 39.4724C30.9438 40.0288 30.4961 40.5364 29.9309 40.6057C29.8869 40.6102 29.8428 40.6119 29.7986 40.6107ZM28.8263 39.7191C28.922 40.2012 29.4116 40.5418 29.917 40.4808C30.4225 40.4199 30.8231 39.9675 30.811 39.475C30.7256 37.7352 30.5328 36.003 30.2339 34.2894C30.139 33.8082 29.6511 33.4688 29.1434 33.5285C28.6357 33.5883 28.2373 34.0415 28.2494 34.534C28.3346 36.2736 28.5273 38.0056 28.8263 39.7191Z" fill="black"/>
<path d="M29.7404 42.0554C29.1934 42.0554 28.6926 41.4139 28.586 40.5405C28.586 40.5357 28.5847 40.5309 28.5843 40.526C28.35 38.3544 28.199 36.1591 28.1323 33.9542C28.1158 32.9739 28.5878 32.092 29.1842 31.9739C29.7807 31.8558 30.3594 32.5293 30.4751 33.4754C30.7102 35.6517 30.8617 37.8516 30.9287 40.0613C30.9453 41.0413 30.4734 41.9235 29.8772 42.042C29.8318 42.0509 29.7861 42.0554 29.7404 42.0554ZM29.2984 40.2961C29.3398 40.6178 29.5702 40.8626 29.7923 40.8162C30.0143 40.7697 30.208 40.4421 30.2021 40.1104C30.1367 37.9632 29.9895 35.8254 29.7614 33.7105C29.7233 33.4 29.4927 33.1533 29.2685 33.199C29.0442 33.2447 28.8528 33.5727 28.8584 33.9048C28.9238 36.0491 29.0707 38.184 29.2984 40.2961Z" fill="black"/>
<path d="M39.3225 36.5118C39.29 34.3903 39.3852 32.2687 39.6076 30.1605C39.6883 29.5271 40.2803 29.044 40.9091 29.0765C41.5379 29.1094 42.0839 29.6518 42.1074 30.291C42.1399 32.4125 42.0447 34.534 41.8223 36.6422C41.7415 37.2756 41.1496 37.7587 40.5205 37.7262C39.8917 37.6933 39.3456 37.151 39.3225 36.5118Z" fill="#39D5FF"/>
<path d="M40.5887 37.7278C40.568 37.7278 40.5475 37.7278 40.5268 37.7278C39.8862 37.6922 39.3458 37.1262 39.3222 36.4632V36.4614C39.2913 34.3724 39.3822 32.2834 39.5944 30.2076C39.6758 29.5484 40.259 29.0428 40.9031 29.0765C41.5472 29.1103 42.0841 29.6785 42.1077 30.3415C42.1385 32.4314 42.0476 34.5214 41.8355 36.5982C41.7576 37.2328 41.2051 37.7278 40.5887 37.7278ZM39.4546 36.4553C39.476 37.0434 39.9596 37.5469 40.5335 37.5775C41.1074 37.608 41.6324 37.1589 41.7046 36.5758C41.9159 34.5063 42.0066 32.4237 41.9759 30.3412C41.9548 29.7545 41.4713 29.2507 40.897 29.2197C40.3279 29.1878 39.7977 29.638 39.7259 30.2218C39.5146 32.2909 39.424 34.3731 39.4546 36.4553Z" fill="black"/>
<path d="M40.6185 37.7278C40.5979 37.7278 40.5773 37.7278 40.5564 37.7259C39.8998 37.6837 39.3454 36.9785 39.3208 36.1537C39.3208 36.1496 39.3208 36.1455 39.3208 36.1414C39.2973 34.2556 39.3663 32.3698 39.5273 30.4958C39.6134 29.6656 40.2161 29.0379 40.8733 29.0766C41.5304 29.1154 42.0843 29.824 42.109 30.6488C42.1329 32.5387 42.0639 34.4286 41.9026 36.3067C41.8192 37.1109 41.2507 37.7278 40.6185 37.7278ZM40.1164 36.1173C40.1275 36.3981 40.3499 36.6567 40.5957 36.6729C40.8416 36.6891 41.0842 36.4565 41.1134 36.176C41.2699 34.351 41.3368 32.5144 41.3138 30.678C41.3056 30.4076 41.082 30.1455 40.8344 30.1299C40.583 30.1112 40.346 30.346 40.317 30.6269C40.1608 32.4494 40.0938 34.2833 40.1164 36.1173Z" fill="black"/>
<path d="M50.5231 33.8311C50.4742 32.0632 50.6173 30.2952 50.9513 28.5384C51.0719 28.0103 51.9603 27.608 52.9035 27.6351C53.8467 27.6625 54.6657 28.1145 54.7004 28.6468C54.7492 30.4149 54.6064 32.1829 54.2728 33.9398C54.1517 34.4677 53.2638 34.8703 52.3206 34.8432C51.3774 34.8158 50.5583 34.3635 50.5231 33.8311Z" fill="#FFF61E"/>
<path d="M52.4223 34.8445C52.3917 34.8445 52.3606 34.8445 52.3295 34.843C51.3685 34.8134 50.558 34.3414 50.5225 33.7889C50.4764 32.0482 50.6129 30.3074 50.9309 28.5776C51.053 28.0287 51.9292 27.6067 52.8939 27.6351C53.8587 27.6636 54.6654 28.1385 54.7009 28.6892C54.7474 30.4309 54.6109 32.1725 54.2925 33.9032C54.1757 34.4317 53.3469 34.8445 52.4223 34.8445ZM50.7212 33.7847C50.7533 34.2748 51.4787 34.6944 52.3395 34.7201C53.1927 34.7471 53.9885 34.3713 54.0962 33.8851C54.4132 32.1607 54.5491 30.4254 54.5031 28.6901C54.4715 28.2013 53.7462 27.7814 52.8849 27.7554C52.0235 27.7293 51.2364 28.1042 51.1282 28.5903C50.8112 30.3146 50.6753 32.0497 50.7212 33.7847Z" fill="black"/>
<path d="M52.4671 34.8445C52.4362 34.8445 52.4053 34.8445 52.374 34.8429C51.389 34.8077 50.5575 34.2199 50.5204 33.5326C50.5204 33.5291 50.5204 33.5257 50.5204 33.5222C50.4854 31.9508 50.5889 30.3794 50.8303 28.8178C50.959 28.126 51.8646 27.6032 52.8492 27.6352C53.8339 27.6672 54.6658 28.2582 54.7028 28.9455C54.7387 30.5204 54.6353 32.0953 54.3933 33.6603C54.2682 34.3301 53.4155 34.8445 52.4671 34.8445ZM51.7122 33.5022C51.7287 33.7364 52.0623 33.9517 52.4312 33.9652C52.8 33.9787 53.1635 33.7848 53.2073 33.5513C53.4419 32.0305 53.5424 30.5002 53.5082 28.9698C53.496 28.7445 53.1602 28.5261 52.7892 28.5129C52.4182 28.4997 52.0569 28.693 52.0131 28.927C51.7794 30.4457 51.6795 31.974 51.714 33.5022H51.7122Z" fill="black"/>
<path d="M51.9095 26.7089C51.9095 26.7089 53.8583 18.831 59.8767 18.9824C64.726 19.1044 68.2797 22.7168 67.0494 27.0787C65.4656 32.6898 59.4333 33.4016 59.4333 33.4016" fill="black"/>
<g opacity="0.3">
<path d="M66.8162 26.3752C66.6527 22.8506 63.7148 20.1938 59.9262 20.0886C56.8003 20.0011 54.8554 22.5088 53.7487 24.7385C54.6271 22.4335 56.6041 18.7812 60.2889 18.8845C64.4334 19.0016 67.5185 22.2929 66.8162 26.3752Z" fill="white"/>
</g>
<path d="M60.9441 33.4016C60.8158 33.4015 60.6915 33.3589 60.5932 33.2813C60.4949 33.2036 60.4287 33.0959 60.4062 32.9769C60.3838 32.8579 60.4065 32.7353 60.4704 32.6305C60.5344 32.5257 60.6354 32.4454 60.7558 32.4037C62.6502 31.7492 65.0951 30.3013 65.9866 27.1199C66.4589 25.4347 66.1419 23.7817 65.0947 22.4652C63.8994 20.9628 61.9242 20.0684 59.6761 20.0111C55.637 19.911 53.639 24.1573 52.9699 25.9888C52.9209 26.1156 52.821 26.2192 52.6917 26.2774C52.5624 26.3355 52.414 26.3435 52.2784 26.2996C52.1429 26.2558 52.0311 26.1635 51.9671 26.0428C51.9031 25.922 51.892 25.7824 51.9362 25.6541C52.6839 23.6087 54.9363 18.8604 59.7053 18.9825C62.2895 19.0479 64.5728 20.0926 65.9698 21.8485C67.2204 23.4219 67.6028 25.3872 67.0437 27.383C65.9774 31.1846 62.8838 32.7666 61.1323 33.3706C61.072 33.3913 61.0083 33.4017 60.9441 33.4016Z" fill="black"/>
<path d="M42.1995 65.1146C33.9469 64.8923 20.9404 63.1725 21.1396 49.5566C21.2679 40.7763 23.4747 29.8142 33.2625 22.6667C33.9103 22.3577 34.5606 21.9842 36.705 20.6319C38.926 19.2718 41.5663 17.9926 44.5854 14.8658C47.2707 13.6157 47.9582 18.1932 46.2939 20.4902C48.8219 20.8925 54.1248 15.5434 55.5673 18.1088C56.0508 18.9687 55.7249 21.1157 54.1904 22.4074C56.935 23.3701 58.8367 25.2065 58.8367 25.2065C64.0873 29.2954 64.9188 35.511 66.2998 40.2539C67.2672 43.5757 69.0005 46.6878 68.6437 50.8781C67.7706 61.1383 52.864 65.4017 42.1995 65.1146Z" fill="white"/>
<g opacity="0.15">
<path d="M21.9244 52.6512C23.5274 63.3347 34.928 64.7828 42.3782 64.9839C52.369 65.2542 66.1589 61.4371 68.1039 52.2917C63.2645 58.9625 51.4619 61.7843 42.5052 61.5417C35.6643 61.3563 25.7115 60.1885 21.9244 52.6512Z" fill="black"/>
</g>
<path d="M42.2204 53.2558C42.2204 53.2558 47.535 52.0438 46.0492 45.6081C44.5633 39.1724 43.1024 38.8713 39.9427 39.2982C36.7831 39.7251 32.1508 43.216 30.6745 45.6307C29.1982 48.0454 29.2748 52.1269 30.1823 53.5801C30.9277 54.7718 33.1241 55.3439 36.2321 54.8633C39.3401 54.3828 41.0684 53.7153 42.2204 53.2558Z" fill="#B3B3B3"/>
<path d="M58.4449 50.4064C58.4449 50.4064 54.9946 50.3469 54.7463 45.0994C54.4979 39.8519 55.3329 39.376 57.3317 39.1832C59.3306 38.9904 62.7734 40.9347 64.1041 42.5667C65.4348 44.1986 66.1186 47.3819 65.8259 48.6617C65.5861 49.7115 64.3519 50.5203 62.3751 50.6628C60.3983 50.8053 59.228 50.5721 58.4449 50.4064Z" fill="#B3B3B3"/>
<path d="M32.3541 37.6265C32.0321 37.0885 34.3472 30.9352 38.2607 32.1089C39.6945 32.5391 39.4968 33.9845 38.6883 34.4659C37.9188 34.9244 36.7075 34.9382 35.7184 35.4538C33.7904 36.4591 32.6767 38.1642 32.3541 37.6265Z" fill="black"/>
<path d="M61.6867 33.3295C61.887 33.0045 59.6663 29.7369 56.8099 30.6899C55.7635 31.0385 56.0243 31.8312 56.6707 32.0406C57.286 32.2393 58.1992 32.1542 58.9842 32.369C60.5148 32.7845 61.486 33.6544 61.6867 33.3295Z" fill="black"/>
<path d="M44.143 47.6984C44.7297 45.6221 43.7906 43.5054 42.0455 42.9704C40.3003 42.4355 38.4099 43.6849 37.8232 45.7612C37.2365 47.8374 38.1756 49.9542 39.9208 50.4891C41.6659 51.0241 43.5563 49.7746 44.143 47.6984Z" fill="black"/>
<path d="M41.4219 48.0769C41.8081 48.0769 42.1212 47.1084 42.1212 45.9137C42.1212 44.719 41.8081 43.7505 41.4219 43.7505C41.0356 43.7505 40.7225 44.719 40.7225 45.9137C40.7225 47.1084 41.0356 48.0769 41.4219 48.0769Z" fill="white"/>
<g opacity="0.35">
<path d="M40.3834 49.4829C40.6728 49.356 40.7083 48.7605 40.4627 48.1528C40.217 47.5451 39.7833 47.1554 39.4939 47.2822C39.2046 47.4091 39.1691 48.0046 39.4147 48.6123C39.6604 49.22 40.0941 49.6098 40.3834 49.4829Z" fill="white"/>
</g>
<path d="M59.1512 49.4688C60.8963 48.9338 61.8354 46.8171 61.2487 44.7408C60.662 42.6646 58.7716 41.4151 57.0265 41.9501C55.2813 42.485 54.3422 44.6018 54.9289 46.678C55.5156 48.7543 57.406 50.0037 59.1512 49.4688Z" fill="black"/>
<g opacity="0.35">
<path d="M59.649 47.5921C59.8946 46.9844 59.8592 46.3889 59.5698 46.262C59.2804 46.1351 58.8467 46.5249 58.6011 47.1326C58.3554 47.7403 58.3909 48.3358 58.6803 48.4626C58.9697 48.5895 59.4034 48.1997 59.649 47.5921Z" fill="white"/>
</g>
<path d="M43.2625 65.1281C42.9216 65.1281 42.5824 65.1236 42.2447 65.1147C38.5307 65.0147 33.0787 64.6205 28.6291 62.3626C23.5709 59.7958 21.0508 55.4159 21.1396 49.344C21.3154 37.3211 25.3795 28.3225 33.219 22.5932C33.2446 22.5748 33.2716 22.5587 33.2998 22.5452C33.892 22.2625 34.4839 21.9273 36.616 20.5821C36.9895 20.353 37.3618 20.1334 37.7572 19.9021C39.6626 18.7805 41.8219 17.5125 44.2307 15.0152C44.2747 14.9697 44.3263 14.9329 44.383 14.9066C45.394 14.4355 46.3283 14.6275 46.9476 15.4331C47.8229 16.5723 47.8815 18.6664 47.1909 20.2914C48.0286 20.0671 49.0856 19.4903 50.1173 18.9241C52.2731 17.7442 54.7165 16.4063 55.7799 18.2985C56.3351 19.2859 56.0412 21.1916 54.9206 22.5689C57.1435 23.52 58.6597 24.912 58.8645 25.1055C63.315 28.5847 64.5894 33.4869 65.7142 37.8127C65.9218 38.6115 66.118 39.3659 66.3292 40.0914C66.5649 40.9012 66.8434 41.6856 67.1385 42.5165C68.0111 44.9725 68.9132 47.512 68.6424 50.6928C68.2399 55.4278 64.9022 59.3289 58.9906 61.9752C54.5308 63.971 48.7223 65.1281 43.2625 65.1281ZM42.2716 64.0504C52.2993 64.318 66.794 60.3252 67.6215 50.5989C67.8717 47.6562 67.0099 45.2304 66.1769 42.8847C65.8897 42.0759 65.5924 41.2392 65.3478 40.3993C65.1319 39.6584 64.9342 38.8964 64.7245 38.0898C63.6413 33.924 62.4135 29.2009 58.2285 25.9406C58.214 25.9296 58.2001 25.9177 58.1872 25.9047C58.1696 25.8878 56.3675 24.1708 53.8261 23.2787C53.7392 23.2482 53.6618 23.194 53.602 23.1219C53.5421 23.0497 53.502 22.9622 53.4858 22.8684C53.4696 22.7747 53.478 22.6781 53.5099 22.5889C53.5419 22.4996 53.5963 22.4209 53.6675 22.3609C54.9971 21.2409 55.221 19.4156 54.8947 18.8359C54.3661 17.897 52.7796 18.6703 50.5944 19.8665C48.9496 20.767 47.3951 21.6191 46.1858 21.4245C46.0982 21.4107 46.0155 21.3734 45.9459 21.3165C45.8763 21.2595 45.8221 21.1847 45.7887 21.0994C45.7553 21.0142 45.7437 20.9213 45.7551 20.83C45.7665 20.7387 45.8006 20.6521 45.8539 20.5786C46.8298 19.2307 46.8301 16.9895 46.146 16.0977C45.8394 15.6987 45.4258 15.6145 44.8836 15.8413C42.4048 18.3924 40.2045 19.6867 38.2614 20.8285C37.8713 21.0576 37.5027 21.2742 37.1428 21.495C35.0221 22.8329 34.387 23.195 33.7711 23.4914C26.2394 29.0134 22.3347 37.7162 22.1648 49.3601C22.0824 54.9833 24.4089 59.0376 29.0794 61.4058C33.3495 63.5727 38.6538 63.953 42.2716 64.0504Z" fill="black"/>
<path d="M31.9187 30.0559C35.6832 27.1651 35.4858 24.7468 34.552 23.1488C33.3723 21.1301 31.3099 18.8387 28.0662 18.9871C23.4442 19.1999 20.1384 22.664 21.4128 26.7378C22.1744 29.1725 23.8273 30.5942 25.3788 31.4189C27.1218 32.3449 29.1287 32.198 31.9187 30.0559Z" fill="black"/>
<g opacity="0.3">
<path d="M34.5982 25.2424C33.4992 22.8933 31.4118 19.8984 27.9634 20.0773C24.3565 20.263 21.5659 22.7324 21.2028 26.007C20.6563 22.1094 23.6106 18.9395 27.6245 18.7316C31.7853 18.5169 33.8706 23.1443 34.5982 25.2424Z" fill="white"/>
</g>
<path d="M34.5953 25.7645C33.2922 23.7842 32.1176 21.4952 29.766 20.5087C27.5803 19.5782 24.6668 20.2434 22.8783 21.6353C20.2779 23.692 20.3691 26.8217 22.1301 29.3371C23.1693 30.7975 24.7707 31.8415 26.5669 32.4041C27.2527 32.6408 26.9078 33.5764 26.2031 33.3728C24.2021 32.75 22.3624 31.5462 21.1975 29.897C20.0527 28.2358 19.4063 26.1837 19.9085 24.2245C20.6145 21.2151 23.8197 19.196 27.0382 19.0085C28.8753 18.8345 30.7334 19.4755 32.0697 20.6311C33.5926 21.9527 34.7515 23.6957 35.1172 25.5868C35.1675 25.8697 34.7535 26.0079 34.5953 25.7645Z" fill="black"/>
<path d="M47.7144 51.4458C47.7144 51.4458 48.6722 55.2588 51.5554 55.0251C54.6352 54.7749 54.7077 50.709 54.7077 50.709L47.7144 51.4458Z" fill="black"/>
<path d="M50.616 55.0352C47.4365 55.0352 46.3386 51.7232 46.3278 51.6887C46.3161 51.6522 46.313 51.6137 46.3187 51.5759C46.3245 51.5381 46.3389 51.5021 46.3609 51.4704C46.383 51.4387 46.4121 51.4122 46.4462 51.3928C46.4802 51.3735 46.5183 51.3617 46.5577 51.3585L54.4211 50.7097C54.4581 50.7066 54.4954 50.7111 54.5304 50.7229C54.5655 50.7346 54.5976 50.7534 54.6246 50.778C54.6517 50.8026 54.673 50.8324 54.6874 50.8655C54.7017 50.8986 54.7086 50.9342 54.7077 50.9701C54.7077 51.0085 54.5804 54.7935 50.9163 55.0268C50.8144 55.0321 50.7137 55.0352 50.616 55.0352ZM46.9494 51.8392C47.2901 52.6308 48.4103 54.6707 50.8816 54.5169C53.5394 54.3476 54.0559 52.0648 54.1556 51.2449L46.9494 51.8392Z" fill="black"/>
<path d="M48.0032 52.1844C48.0032 52.1844 47.0997 54.7388 48.4887 55.187C49.2407 55.4296 49.663 54.9599 50.0347 56.3764C50.1934 56.9821 50.1909 57.5877 50.8556 57.8232C51.2506 57.9632 52.5329 58.1351 53.0137 56.8556C53.4023 55.8214 52.9951 54.9663 53.7381 54.7785C54.481 54.5908 54.8254 53.7489 54.6717 52.8154C51.7436 51.9296 48.0032 52.1844 48.0032 52.1844Z" fill="#39D5FF"/>
<path d="M51.4617 57.9189C51.2408 57.9205 51.0211 57.8866 50.8102 57.8185C50.1843 57.6009 50.0705 57.0797 49.9699 56.6197C49.9493 56.5252 49.9284 56.4294 49.9024 56.3332C49.6857 55.5202 49.5145 55.5069 49.1398 55.4775C48.9536 55.469 48.769 55.4378 48.5899 55.3845C48.4364 55.3389 48.2941 55.2601 48.1723 55.1532C48.0505 55.0463 47.952 54.9139 47.8833 54.7646C47.4539 53.8628 47.9761 52.3858 47.9984 52.3253L48.046 52.1931L48.1811 52.184C48.3266 52.1742 51.7656 51.9556 54.5206 52.7752L54.6472 52.8126L54.6698 52.9469C54.8417 53.9674 54.4163 54.816 53.6351 55.0109C53.3853 55.0731 53.3502 55.1991 53.3097 55.7105C53.2857 56.0141 53.2557 56.3916 53.1004 56.7984C52.7587 57.6953 52.0353 57.9189 51.4617 57.9189ZM48.3495 52.6111C48.2391 52.9714 47.9765 53.9754 48.2611 54.5701C48.3045 54.6659 48.3675 54.7508 48.4455 54.819C48.5236 54.8872 48.615 54.9371 48.7134 54.9654C48.8629 55.0091 49.0167 55.0344 49.1719 55.0409C49.6948 55.0819 50.0324 55.1809 50.3079 56.2149C50.3355 56.3178 50.3582 56.4206 50.3801 56.5214C50.4837 56.9954 50.5607 57.2703 50.9439 57.4033C50.9567 57.4078 52.2567 57.823 52.7105 56.6358C52.8428 56.2894 52.8688 55.962 52.8914 55.6731C52.9285 55.2075 52.9664 54.7265 53.5379 54.5844C54.0608 54.4543 54.3535 53.8757 54.2752 53.154C51.9185 52.4901 49.0152 52.58 48.3495 52.6111Z" fill="#3BB4FF"/>
<path d="M47.7299 51.4296C47.5633 53.0863 48.7711 53.8304 50.0609 53.5206C51.3508 53.2107 51.7124 51.6814 51.7361 51.1729C51.7361 51.1729 52.1518 53.9736 53.8181 52.9583C54.5373 52.5213 55.0085 51.391 54.4847 50.305C54.4847 50.305 55.216 47.5153 51.4936 47.8484C47.7711 48.1815 47.7299 51.4296 47.7299 51.4296Z" fill="white"/>
<g opacity="0.15">
<path d="M47.2474 51.9134C47.3457 53.1684 48.4796 53.7155 49.6824 53.4497C51.019 53.1536 51.4012 51.6878 51.4253 51.2013C51.4253 51.2013 51.8579 53.8831 53.5918 52.9103C54.1949 52.5728 54.6299 51.804 54.4903 50.9744C54.3463 51.1201 54.1841 51.2448 54.008 51.3451C51.8066 52.5782 51.2582 49.1753 51.2582 49.1753C51.2273 49.7918 50.7431 51.6531 49.045 52.0283C48.399 52.1709 47.7684 52.1293 47.2474 51.9134Z" fill="black"/>
</g>
<path d="M48.1014 51.6915C48.0764 52.5876 48.8185 53.0615 49.7364 52.9563C50.5948 52.9158 51.1892 52.1974 51.3003 51.4667C51.3072 51.0889 51.9055 51.0475 51.9767 51.4167C52.0317 51.737 52.1786 52.1214 52.4314 52.3478C52.7801 52.6628 53.3776 52.6375 53.7195 52.3208C54.1106 51.9488 54.1835 51.4304 54.0374 50.9076C53.9887 50.7497 54.222 50.6388 54.3378 50.7612C54.68 51.1057 54.7958 51.6448 54.6387 52.1172C54.1678 53.5743 52.0136 53.651 51.467 52.1991C51.3742 51.9774 51.3186 51.7443 51.302 51.5076L51.9855 51.4991C51.9335 52.2888 51.4472 53.0707 50.6377 53.4077C49.6071 53.8384 48.0294 53.5254 47.7576 52.405C47.7084 52.2121 47.6347 51.4669 47.9683 51.5371C48.0069 51.5448 48.0413 51.5644 48.0659 51.5924C48.0905 51.6205 48.1037 51.6554 48.1034 51.6912L48.1014 51.6915Z" fill="black"/>
<path d="M50.7531 49.3003C51.4711 50.0712 51.7158 50.9289 51.9101 51.7811C51.9721 52.222 50.8044 52.2903 50.7022 51.8497C50.7143 51.6291 50.7739 51.4026 50.7821 51.1742C50.8204 50.5679 50.8228 49.9412 50.521 49.3566C50.4726 49.2762 50.6814 49.2253 50.7531 49.3003Z" fill="black"/>
<path d="M47.7154 48.7878C47.8568 50.25 51.741 50.7051 51.741 50.7051C51.741 50.7051 54.954 49.7288 54.6925 48.42C54.5435 47.6735 51.4629 47.8357 51.4629 47.8357C51.4629 47.8357 47.643 48.0367 47.7154 48.7878Z" fill="black"/>
<g opacity="0.5">
<path d="M49.858 47.8596C49.8846 48.284 50.5838 48.4189 51.0899 48.3774C51.596 48.3358 52.2711 48.0897 52.2445 47.6652C52.2306 47.4474 51.0374 47.5446 51.0374 47.5446C51.0374 47.5446 49.8444 47.6417 49.858 47.8596Z" fill="white"/>
</g>
<path d="M48.9441 53.5804C48.9441 53.5804 48.6137 53.6247 48.1713 53.5473C47.7579 53.4751 47.3807 53.3217 47.082 53.1042C46.851 52.9384 46.6312 52.717 46.4478 52.423C46.2993 52.1858 46.2753 51.918 46.3804 51.6692C46.638 51.0371 47.6164 50.5669 48.3038 50.7479C49.4097 51.0383 49.1285 51.8301 48.9198 52.5323C48.7927 52.9575 48.6933 53.3503 48.9441 53.5804Z" fill="#FF8080"/>
<g opacity="0.5">
<path d="M48.933 53.5174C48.8527 53.5301 48.7716 53.5359 48.6904 53.5348C48.6648 53.2529 48.7287 52.9053 48.8032 52.5407C48.9944 51.6076 49.2524 50.555 48.2387 50.1675C47.6517 49.9423 46.8338 50.471 46.5338 51.223C46.5442 51.1395 46.5605 51.0569 46.5826 50.9759C46.8187 50.1354 47.7153 49.5101 48.3453 49.7508C49.3587 50.137 49.101 51.1899 48.9098 52.1237C48.7942 52.6891 48.7031 53.2114 48.933 53.5174Z" fill="white"/>
</g>
<path d="M49.1132 53.5741C49.1132 53.5741 48.7615 53.6405 48.2907 53.5244C47.8507 53.4162 47.4492 53.1862 47.1313 52.8601C46.8855 52.6116 46.6515 52.2797 46.4563 51.8389C46.2982 51.4833 46.2727 51.0819 46.3845 50.7087C46.5855 51.307 46.949 51.8334 47.5361 50.9199C47.5361 50.9199 47.2293 53.6409 49.0694 52.0181C49.0751 52.0126 49.081 52.0075 49.0874 52.0028C48.9521 52.6403 48.8462 53.2291 49.1132 53.5741Z" fill="#E85B5B"/>
<path d="M48.5515 53.5895C48.0882 53.5895 47.0452 53.4087 46.4457 51.894C46.1862 51.239 46.3218 50.4714 46.7997 49.8911C47.2326 49.3652 47.8304 49.1401 48.2878 49.3295C49.3683 49.7788 49.1375 50.996 48.9692 51.8847C48.8723 52.3949 48.7722 52.9243 48.9267 53.1481C48.9514 53.1839 48.9677 53.2263 48.9738 53.2713C48.9799 53.3162 48.9756 53.3622 48.9615 53.4047C48.9473 53.4473 48.9238 53.485 48.893 53.5142C48.8623 53.5435 48.8254 53.5632 48.7859 53.5716C48.7083 53.5846 48.6299 53.5905 48.5515 53.5895ZM47.9399 49.7916C47.6866 49.7916 47.3806 49.9615 47.1414 50.2524C47.0094 50.4118 46.5999 50.9896 46.8721 51.6774C47.3108 52.7859 48.0035 53.0206 48.3989 53.0582C48.3387 52.6877 48.4237 52.2396 48.5115 51.7734C48.7066 50.7431 48.7783 50.098 48.1262 49.8282C48.0665 49.8037 48.0034 49.7913 47.9399 49.7916Z" fill="black"/>
<path d="M50.5138 55.0359C50.5138 55.0359 50.532 57.9202 51.248 57.9202C51.894 57.9202 51.9124 55.6838 51.9124 55.6838C51.9124 55.6838 51.0347 58.0692 50.5138 55.0359Z" fill="white"/>
<path d="M57.0375 48.0762C57.4237 48.0762 57.7368 47.1077 57.7368 45.913C57.7368 44.7183 57.4237 43.7498 57.0375 43.7498C56.6513 43.7498 56.3382 44.7183 56.3382 45.913C56.3382 47.1077 56.6513 48.0762 57.0375 48.0762Z" fill="white"/>
</svg>
