<svg width="69" height="66" viewBox="0 0 69 66" fill="none" xmlns="http://www.w3.org/2000/svg">
<g clip-path="url(#clip0_166_4584)">
<g opacity="0.2">
<path d="M25.3913 61.7114C30.7442 61.7114 35.3157 62.2566 37.1356 63.0253C39.0071 62.1542 44.0891 61.5298 50.0661 61.5298C57.6322 61.5298 63.7656 62.5304 63.7656 63.765C63.7656 64.9996 57.6322 66.0002 50.0661 66.0002C44.0891 66.0002 39.0068 65.3755 37.1356 64.5047C35.316 65.2734 30.7442 65.8185 25.3913 65.8185C18.4402 65.8185 12.8051 64.8991 12.8051 63.765C12.8051 62.6308 18.4402 61.7114 25.3913 61.7114Z" fill="black"/>
</g>
<path d="M56.3827 51.2596C56.3827 51.2596 58.1562 54.0993 61.4451 52.9389C64.096 52.0035 64.3801 48.2463 62.3397 46.7162C61.1473 45.8224 57.2275 45.6551 56.3827 51.2596Z" fill="black"/>
<g opacity="0.3">
<path d="M56.3833 51.2598C56.3833 51.2598 56.4142 51.3097 56.476 51.3936C57.4807 46.3311 61.1865 46.5164 62.3401 47.3808C63.1417 47.9819 63.5845 48.9271 63.6658 49.9093C63.7652 48.7046 63.3221 47.4528 62.3401 46.7162C61.1474 45.8224 57.2273 45.655 56.3833 51.2598Z" fill="white"/>
</g>
<g opacity="0.2">
<path d="M56.3833 51.2595C56.3833 51.2595 58.1561 54.0995 61.4449 52.9389C63.6658 52.1551 64.2257 49.3918 63.1499 47.6154C63.6436 49.3113 61.3236 52.1777 60.0963 51.1657C59.7748 50.9006 61.5294 47.4491 59.2092 46.5601C57.9821 47.1138 56.8029 48.4736 56.3833 51.2595Z" fill="black"/>
</g>
<path d="M59.9114 53.5428C60.4142 53.5428 60.9637 53.4555 61.5588 53.2457C62.8364 52.7948 63.734 51.6787 63.96 50.2598C64.1968 48.7728 63.6406 47.2803 62.5434 46.4576C61.8827 45.9623 60.567 45.6676 59.24 46.1923C58.0606 46.6585 56.55 47.9079 56.0521 51.2123C56.0409 51.2877 56.0568 51.3645 56.0974 51.4297C56.1134 51.4552 57.4515 53.5431 59.9116 53.5431L59.9114 53.5428ZM60.6824 46.5729C61.2844 46.5729 61.8192 46.7377 62.1359 46.9751C63.0423 47.6547 63.499 48.9049 63.2992 50.1596C63.1115 51.3392 62.3757 52.2635 61.3313 52.6319C58.641 53.5815 57.066 51.6522 56.7324 51.1843C57.2011 48.2775 58.4872 47.1934 59.4907 46.7968C59.8889 46.6395 60.2991 46.5726 60.6821 46.5726L60.6824 46.5729Z" fill="black"/>
<path d="M52.1754 34.2495L54.3476 36.9842C61.7597 36.5258 63.8651 32.7022 63.8651 32.7022L59.421 30.2734L52.1754 34.2495Z" fill="#E8E8E8"/>
<path d="M37.1486 47.4044C37.738 51.3805 40.8061 51.2419 42.5071 50.6227C44.7421 49.8089 45.7668 37.2942 45.7668 37.2942L45.8127 37.1082L45.943 36.5812L47.093 31.9258C44.5395 32.0571 42.903 32.9306 41.6159 34.2225C41.3042 34.534 41.0141 34.8701 40.7358 35.2256C39.0575 37.373 37.6742 40.6076 37.2513 43.459C37.0098 45.0877 36.9971 46.3821 37.1484 47.4042L37.1486 47.4044Z" fill="black"/>
<g opacity="0.2">
<path d="M37.1486 47.4041C37.7379 51.3801 40.806 51.2415 42.507 50.6224C44.7421 49.8085 45.7668 37.2939 45.7668 37.2939L45.8126 37.1078L43.9454 35.0117C43.9454 35.0117 39.4923 37.1061 38.6036 43.6491C38.2401 46.3227 37.726 47.2752 37.1486 47.4041Z" fill="black"/>
</g>
<g opacity="0.2">
<path d="M41.6159 34.2225C42.6222 35.2093 44.1251 36.0283 45.943 36.5812L47.093 31.9258C44.5395 32.0571 42.903 32.9306 41.6159 34.2225Z" fill="black"/>
</g>
<path d="M52.5143 33.6924L54.7025 37.1065C59.327 36.3578 62.6971 34.0448 62.6971 31.3067C62.6971 30.3744 62.3059 29.4912 61.6082 28.7017L52.5145 33.6922L52.5143 33.6924Z" fill="#545468"/>
<path d="M42.5462 34.9908C44.5998 36.4328 47.8301 37.3627 51.4634 37.3627C53.7343 37.3627 55.8472 36.9996 57.6143 36.3742C57.1839 35.0579 56.7124 33.6198 56.2058 32.0441L44.7635 31.8965L42.7316 34.5764L42.5459 34.9908H42.5462Z" fill="#545468"/>
<path d="M40.6889 51.2771C41.5551 51.2771 42.3017 51.0454 42.6236 50.9282C43.0141 50.7859 44.2023 50.3531 45.3047 43.7051C45.8365 40.4987 46.0974 37.3513 46.0999 37.32C46.1146 37.1403 45.9773 36.9832 45.7934 36.9688C45.6093 36.9547 45.4483 37.0885 45.4336 37.2679C45.4311 37.2991 45.1719 40.4238 44.6444 43.6044C43.7057 49.2637 42.7552 50.1841 42.3902 50.3168C41.8728 50.5053 40.0836 51.041 38.7858 50.0197C37.5144 49.019 37.0982 46.7666 37.5822 43.5059C37.9946 40.7265 39.337 37.5541 41.0021 35.4235C42.1527 33.9514 43.7779 32.4233 47.1109 32.2519C47.2953 32.2424 47.4369 32.0887 47.4271 31.909C47.4174 31.729 47.2587 31.5926 47.0758 31.6004C43.4707 31.786 41.7136 33.4373 40.4703 35.0281C38.7414 37.2405 37.3479 40.5317 36.9203 43.4126C36.3933 46.9643 36.8797 49.358 38.3659 50.5279C39.0965 51.103 39.9378 51.2773 40.6891 51.2773L40.6889 51.2771Z" fill="black"/>
<path d="M50.7036 45.8909C50.6396 48.2866 50.4459 49.7247 50.3739 51.3189C50.1746 54.0611 50.8471 60.1972 50.4509 62.2469C50.2703 63.1811 48.6615 63.8364 44.9896 63.8364C42.9165 63.8364 41.7229 63.2891 41.4936 62.4895C41.0264 60.8615 42.8535 60.0929 42.8535 60.0929C42.8535 60.0929 40.6797 53.5448 40.2297 48.2982L50.7036 45.8906V45.8909Z" fill="white"/>
<path d="M40.7831 52.1211C41.5833 56.2676 42.8537 60.0929 42.8537 60.0929C42.8537 60.0929 41.4699 60.675 41.4191 61.8986C41.4111 62.0817 41.433 62.2787 41.4936 62.4903C41.7226 63.2891 42.9168 63.8369 44.9891 63.8369C48.661 63.8369 50.2703 63.1821 50.4509 62.2471C50.8467 60.1974 50.1746 54.0611 50.3737 51.3189C50.4457 49.7247 50.6396 48.2871 50.7036 45.8916L40.2292 48.2992C40.3353 49.5355 40.5372 50.8437 40.7829 52.1211H40.7831Z" fill="black"/>
<g opacity="0.2">
<path d="M47.8463 62.0732C45.9293 62.9158 43.076 62.8181 41.4193 61.8986C41.4114 62.0817 41.4333 62.2787 41.4938 62.4903C41.7228 63.2891 42.917 63.8369 44.9893 63.8369C48.6612 63.8369 50.2705 63.1821 50.4512 62.2471C50.8469 60.1974 50.1748 54.0611 50.3739 51.3189C50.4459 49.7247 50.6398 48.2871 50.7039 45.8916L40.2294 48.2992C40.3356 49.5355 40.5374 50.8437 40.7831 52.1211C43.1864 54.3694 47.0855 54.651 47.8628 54.9516C48.8498 55.3343 49.8414 61.1973 47.8461 62.0732H47.8463Z" fill="black"/>
</g>
<path d="M50.3694 45.8824C50.339 47.0897 50.258 48.2912 50.1601 49.5017C50.1125 50.1052 50.0666 50.7207 50.0387 51.3252C49.9976 51.9404 49.9986 52.5588 50.0066 53.1689C50.0278 54.3908 50.0883 55.6052 50.1414 56.8174C50.194 58.0289 50.2493 59.2401 50.2428 60.4406C50.2406 60.7404 50.2323 61.0391 50.2159 61.3347C50.1992 61.6283 50.1725 61.9264 50.1205 62.1936C50.099 62.2909 50.0567 62.3833 49.9886 62.4713C49.9201 62.5589 49.8289 62.641 49.7232 62.7145C49.5117 62.8628 49.248 62.9754 48.9742 63.0661C48.4222 63.246 47.8214 63.3423 47.2191 63.4075C46.6148 63.4717 46.002 63.4987 45.388 63.5079C45.0787 63.5116 44.7757 63.5138 44.4769 63.4985C44.1774 63.4834 43.8796 63.4554 43.5895 63.4061C43.299 63.3582 43.0159 63.2884 42.7522 63.1906C42.4901 63.0926 42.2471 62.962 42.0692 62.7957C41.9817 62.7123 41.91 62.6218 41.8634 62.5248C41.8387 62.474 41.8222 62.4329 41.8073 62.3699L41.7839 62.2763L41.7682 62.1827C41.7315 61.9334 41.7567 61.6871 41.8544 61.4595C41.9498 61.2314 42.1106 61.0211 42.3107 60.8399C42.4108 60.7492 42.52 60.6653 42.6351 60.5892C42.6929 60.5513 42.7522 60.5153 42.8123 60.4815C42.8699 60.4491 42.9394 60.4139 42.9855 60.3934L42.989 60.392C43.1462 60.3227 43.2222 60.15 43.1714 59.9934C42.8629 59.0431 42.5783 58.0746 42.3102 57.1073C42.0433 56.1382 41.7936 55.1648 41.5671 54.1868C41.4599 53.6966 41.354 53.2061 41.2556 52.7147L40.9356 51.245C40.8407 50.7533 40.736 50.2623 40.6493 49.7692C40.5533 49.2763 40.4828 48.7814 40.3959 48.2859L40.3946 48.279C40.3792 48.1903 40.2927 48.1305 40.2015 48.1458C40.1177 48.1599 40.0592 48.2324 40.0627 48.3131C40.0831 48.8196 40.0998 49.3288 40.1539 49.8331C40.1915 50.3401 40.263 50.8423 40.3283 51.3461C40.4038 51.8475 40.4746 52.3509 40.579 52.8472C40.6782 53.3447 40.7973 53.8379 40.9124 54.3315C41.1459 55.318 41.3944 56.3004 41.6645 57.2772C41.9354 58.255 42.2202 59.224 42.5352 60.1948L42.7208 59.7948C42.6252 59.8368 42.5574 59.8731 42.4799 59.9159C42.4051 59.9579 42.3323 60.0022 42.2613 60.0489C42.1193 60.143 41.9832 60.2471 41.8554 60.3628C41.6005 60.5938 41.3762 60.8783 41.2356 61.2132C41.0919 61.5465 41.0532 61.9259 41.1066 62.2763L41.129 62.4071L41.1604 62.5348C41.1803 62.6196 41.2174 62.722 41.2608 62.8076C41.3473 62.9856 41.4704 63.1378 41.6054 63.2657C41.8791 63.5196 42.1963 63.6803 42.5128 63.8002C42.8307 63.9182 43.1539 63.9962 43.4764 64.0497C44.1193 64.1584 44.7727 64.1723 45.3977 64.1609C46.0274 64.1514 46.6586 64.1236 47.2913 64.0568C47.9235 63.9877 48.559 63.8892 49.1885 63.685C49.5022 63.5799 49.8172 63.451 50.1127 63.2456C50.2598 63.1427 50.4018 63.0192 50.5222 62.8652C50.642 62.7116 50.7345 62.5224 50.7761 62.3225C50.8396 61.9932 50.8648 61.6847 50.8835 61.3727C50.9007 61.0622 50.9092 60.7538 50.9114 60.4467C50.9181 59.2192 50.8621 58.0038 50.8095 56.7899C50.7562 55.5765 50.6959 54.3655 50.6749 53.1599C50.6672 52.5564 50.6659 51.9594 50.7061 51.3631C50.7342 50.7547 50.7786 50.1595 50.8264 49.5525C50.9246 48.3425 51.0068 47.1208 51.0375 45.9006V45.8996C51.042 45.7195 50.896 45.5699 50.7115 45.5655C50.5269 45.5612 50.3736 45.7036 50.3692 45.8836L50.3694 45.8824Z" fill="black"/>
<path d="M46.8792 59.848C46.5395 59.7459 46.2079 59.6773 45.8652 59.6248C45.5243 59.5722 45.1792 59.5435 44.8321 59.5346C44.4847 59.5239 44.1351 59.5392 43.7862 59.5803C43.4361 59.6146 43.0907 59.6941 42.7465 59.784C42.5679 59.8307 42.462 60.0099 42.5098 60.1843C42.5576 60.3586 42.7411 60.462 42.9197 60.4153C42.9282 60.4131 42.9364 60.4107 42.9447 60.4078L42.9606 60.4022C43.2581 60.2988 43.5619 60.2008 43.8781 60.1442C44.1926 60.0807 44.5143 60.0401 44.839 60.0238C45.1635 60.0058 45.4912 60.0063 45.8179 60.0299C46.1426 60.0525 46.4753 60.0948 46.7853 60.1612L46.794 60.1631C46.8842 60.1823 46.9731 60.1267 46.9931 60.0389C47.0118 59.9557 46.9609 59.873 46.8792 59.8482V59.848Z" fill="black"/>
<path d="M44.7634 31.8965L56.2063 32.0441C59.7082 42.9519 61.5769 47.2171 59.233 50.7666C58.6613 51.6323 55.6254 54.2638 51.2615 54.2641C38.9064 54.2641 38.5189 47.753 39.0676 44.2008C39.3998 42.05 40.5336 38.8613 42.1118 35.9576" fill="white"/>
<path d="M51.2613 54.2643C55.6259 54.2643 58.6616 51.6323 59.2333 50.7671C60.8438 48.3283 60.4653 45.5514 58.935 40.5149C58.238 38.2206 57.3018 35.4572 56.2061 32.0441L44.7637 31.8965L42.1118 35.9574C41.6981 36.7183 41.3154 37.4988 40.9692 38.2745C39.9946 40.4611 39.3136 42.6136 39.0679 44.2008C38.5197 47.7535 38.9067 54.2646 51.2615 54.2646L51.2613 54.2643Z" fill="white"/>
<path d="M39.0943 47.799C39.7454 50.9764 42.4818 54.2643 51.2612 54.2643C55.6259 54.2643 58.6616 51.6323 59.2332 50.7671C59.4214 50.4816 59.5826 50.192 59.7179 49.8943C60.7394 47.6482 60.2863 44.9624 58.9347 40.5149C58.2377 38.2206 57.3015 35.4572 56.2058 32.0441L44.7635 31.8965L42.1115 35.9574C41.6979 36.7183 41.3151 37.4988 40.969 38.2745C39.9944 40.4611 39.3133 42.6136 39.0676 44.2008C38.9089 45.2292 38.8286 46.5048 39.0943 47.7992V47.799Z" fill="white"/>
<g opacity="0.2">
<path d="M39.0943 47.7993C39.7455 50.9768 42.4819 54.2647 51.2613 54.2647C55.626 54.2647 58.6617 51.6326 59.2333 50.7674C59.4215 50.4819 59.5827 50.1923 59.718 49.8947C58.3198 49.2513 55.3568 48.4029 50.9134 49.7308C46.624 51.0138 41.7194 50.4992 39.0941 47.7996L39.0943 47.7993Z" fill="black"/>
</g>
<path d="M40.9689 38.2743C45.8985 41.2081 54.5526 41.1427 58.9349 40.5149C58.2379 38.2206 57.3017 35.4572 56.206 32.0441L44.7637 31.8965L42.7315 34.5764L42.1117 35.9574C41.6981 36.7183 41.3153 37.4988 40.9692 38.2745L40.9689 38.2743Z" fill="black"/>
<g opacity="0.2">
<path d="M42.5462 34.9908C44.5998 36.4328 47.8301 37.3627 51.4634 37.3627C53.7343 37.3627 55.8472 36.9996 57.6143 36.3742C57.1839 35.0579 56.7124 33.6198 56.2058 32.0441L44.7635 31.8965L42.7316 34.5764L42.5459 34.9908H42.5462Z" fill="black"/>
</g>
<path d="M44.759 32.2225L56.2018 32.3701L55.8873 32.1415L56.9456 35.4501L58.0104 38.7523C58.3588 39.8536 58.7022 40.9557 59.0095 42.0631C59.3165 43.17 59.5918 44.2837 59.7618 45.4018C59.931 46.5167 59.9848 47.6486 59.7311 48.7118C59.606 49.2424 59.4052 49.7518 59.1338 50.2284C59.0645 50.3461 58.99 50.464 58.9183 50.5786L58.8086 50.7252L58.6763 50.8745C58.5873 50.9737 58.4852 51.0695 58.388 51.1661C58.2831 51.258 58.1824 51.3538 58.074 51.4433C57.6444 51.8049 57.1749 52.1288 56.6825 52.413L56.4988 52.5215L56.3099 52.6209C56.1833 52.6861 56.0585 52.7549 55.9304 52.8172C55.67 52.9332 55.4148 53.0608 55.1459 53.1574C54.6181 53.3755 54.0657 53.5253 53.5115 53.6607C53.3717 53.6894 53.2309 53.7125 53.0906 53.7388C52.9498 53.7614 52.8107 53.7974 52.6682 53.8081L52.2426 53.8553L52.0297 53.8786L51.8157 53.8864C51.2513 53.9207 50.6577 53.8959 50.0751 53.8854L49.2001 53.8421C48.9091 53.8236 48.6195 53.793 48.3289 53.7689C47.1709 53.6515 46.0224 53.4518 44.9202 53.1202C44.7819 53.08 44.6481 53.0292 44.5118 52.9842C44.377 52.9356 44.2379 52.8967 44.1068 52.8405C43.8437 52.7304 43.574 52.6319 43.3221 52.5011C42.8053 52.262 42.3218 51.9649 41.8738 51.6286C40.9692 50.9628 40.2652 50.066 39.8276 49.0532C39.3881 48.0377 39.2223 46.9145 39.2433 45.795C39.2602 44.6703 39.4693 43.5532 39.7698 42.4531C40.0726 41.3523 40.4589 40.2699 40.8892 39.2053L41.2132 38.4065L41.5419 37.6082C41.7602 37.0749 41.9887 36.5453 42.1972 36.0018L42.1977 36.0004C42.2167 35.951 42.191 35.8961 42.1404 35.8776C42.0973 35.8618 42.0502 35.8776 42.0253 35.9128C41.3485 36.8743 40.8042 37.9163 40.3432 38.9899C39.8862 40.0657 39.4952 41.1689 39.1747 42.2963C38.8593 43.4236 38.631 44.5942 38.6063 45.7818C38.5772 46.9661 38.7444 48.1804 39.2206 49.3C39.6931 50.4166 40.4741 51.4187 41.4561 52.1499C41.9428 52.5198 42.4654 52.8437 43.0161 53.1027C43.2865 53.2444 43.5711 53.3509 43.8512 53.4694C43.9909 53.5299 44.1365 53.572 44.279 53.624C44.4226 53.6721 44.5646 53.7269 44.7096 53.7699C45.8679 54.1259 47.0595 54.3387 48.2532 54.4668C48.552 54.4933 48.8508 54.5264 49.1498 54.5471L50.0474 54.5964C50.6475 54.6079 51.2376 54.6341 51.8553 54.5984L52.0846 54.5899L52.3128 54.5653L52.7691 54.515C52.9221 54.5031 53.0706 54.4654 53.2217 54.4413C53.3719 54.4133 53.5229 54.388 53.6724 54.3574C54.2658 54.2139 54.8564 54.0527 55.4198 53.821C55.7069 53.7176 55.9792 53.5824 56.2569 53.4584C56.3937 53.3923 56.5267 53.3191 56.6618 53.2495L56.8634 53.1433L57.0595 53.0278C57.5853 52.724 58.0862 52.3795 58.5534 51.9872C58.6711 51.8902 58.7829 51.7847 58.8976 51.6835C59.008 51.5746 59.1196 51.47 59.2255 51.3521L59.3833 51.1736L59.535 50.9703C59.618 50.839 59.6987 50.7108 59.7765 50.5783C60.0805 50.0458 60.3093 49.4678 60.4493 48.8732C60.5909 48.2784 60.6464 47.6708 60.6434 47.0718C60.6405 46.4722 60.5811 45.8798 60.4934 45.2967C60.317 44.1293 60.0257 42.9958 59.7112 41.8753C59.3952 40.7548 59.0449 39.6484 58.6907 38.5447C57.9795 36.3384 57.2422 34.1452 56.5247 31.9463C56.4806 31.8084 56.3503 31.7196 56.2103 31.7175L44.7674 31.5699C44.5828 31.5674 44.4313 31.7116 44.4288 31.8918C44.4263 32.072 44.5741 32.2198 44.7587 32.2223L44.759 32.2225Z" fill="black"/>
<path d="M54.374 49.8874C55.4102 49.696 57.932 49.7724 59.2331 50.7667C59.2889 55.525 59.252 61.0687 58.7793 62.4246C58.2473 63.951 56.535 63.951 53.4605 63.951C51.0866 63.951 50.3258 63.6142 49.9822 62.6603C49.5125 61.3562 50.5778 60.3699 50.5778 60.3699L50.1372 54.5175C50.1372 54.5175 49.8626 50.7202 54.374 49.8874Z" fill="black"/>
<path d="M53.4602 64.2776C56.5943 64.2776 58.4862 64.2776 59.0957 62.5304C59.4917 61.3929 59.646 57.544 59.5675 50.7632C59.5662 50.6643 59.5191 50.5711 59.4394 50.5101C58.0319 49.4338 55.4052 49.3648 54.3114 49.5671C50.3104 50.3056 49.8503 53.2954 49.8047 54.1941C49.794 54.401 49.8025 54.5272 49.8035 54.5411L50.2333 60.2512C49.957 60.56 49.3031 61.4393 49.6059 62.5725C49.6223 62.6359 49.6425 62.7004 49.6677 62.7694C50.0784 63.9104 51.0001 64.2771 53.4604 64.2771L53.4602 64.2776ZM58.9006 50.9335C58.9906 59.0417 58.7127 61.6022 58.4628 62.3203C58.0249 63.5751 56.695 63.6249 53.4602 63.6249C51.0996 63.6249 50.5595 63.2789 50.2979 62.5518C50.2795 62.5012 50.2652 62.4562 50.2543 62.4129C50.254 62.4117 50.2538 62.4105 50.2533 62.4093C49.9822 61.397 50.7746 60.6373 50.8085 60.6055C50.88 60.5381 50.9181 60.4426 50.9109 60.3458L50.4703 54.4939C50.4703 54.4939 50.4639 54.3937 50.4723 54.2269C50.5232 53.229 51.0108 50.8406 54.4358 50.2083C55.4191 50.0262 57.694 50.124 58.9006 50.9335Z" fill="black"/>
<g opacity="0.2">
<path d="M49.9299 62.492C49.9441 62.5474 49.9615 62.6029 49.9824 62.66C50.3261 63.6142 51.0866 63.951 53.4602 63.951C56.5353 63.951 58.247 63.951 58.7793 62.4251C59.2515 61.0687 59.2884 55.5252 59.2331 50.7669C57.9318 49.7718 55.4102 49.696 54.3738 49.8876C50.6443 50.576 50.1855 53.2902 50.1387 54.2104C51.5048 52.0593 56.5178 51.0317 57.7339 54.2641C58.5109 56.3296 58.0506 61.6197 56.383 62.65C54.9888 63.5113 51.5661 63.1084 49.9296 62.4917L49.9299 62.492Z" fill="black"/>
</g>
<path d="M53.4604 64.2775C56.5948 64.2775 58.4867 64.2775 59.0959 62.5298C59.4927 61.3918 59.6469 57.5427 59.5674 50.7629C59.5662 50.6639 59.5191 50.5708 59.4393 50.5098C58.0321 49.4342 55.4054 49.3649 54.3121 49.5668C49.5632 50.4434 49.8009 54.4997 49.8039 54.5405L50.234 60.2513C49.9415 60.5779 49.2258 61.5428 49.6671 62.7686C50.0785 63.9108 51.0003 64.2775 53.4609 64.2775H53.4604ZM58.9006 50.9334C58.9915 59.0404 58.7132 61.6014 58.4627 62.32C58.0254 63.575 56.6952 63.6251 53.4604 63.6251C51.0993 63.6251 50.5592 63.279 50.2976 62.5522C49.9044 61.4601 50.799 60.6149 50.8079 60.6066C50.8807 60.5393 50.9186 60.4437 50.9114 60.3459L50.4708 54.4936C50.4613 54.3518 50.2829 50.9745 54.4362 50.208C55.4196 50.0264 57.6942 50.1244 58.9008 50.9331L58.9006 50.9334Z" fill="black"/>
<path d="M56.2517 59.9757C55.7869 59.8191 55.3085 59.7063 54.8243 59.6275C54.3399 59.5492 53.8487 59.5064 53.3548 59.5023C52.8609 59.4984 52.3637 59.5324 51.8693 59.6202C51.3757 59.7089 50.8825 59.8507 50.4158 60.0846C50.2516 60.1671 50.1868 60.3638 50.271 60.524C50.3555 60.6843 50.5571 60.7475 50.7213 60.6653C50.7268 60.6627 50.7322 60.6597 50.7377 60.6566L50.7402 60.6551C51.117 60.438 51.5459 60.2845 51.9904 60.1787C52.4357 60.0732 52.8985 60.0144 53.3643 59.9915C53.8305 59.9689 54.301 59.9828 54.768 60.0316C55.235 60.0803 55.6992 60.1627 56.1508 60.2867H56.1518C56.2407 60.3115 56.3329 60.2609 56.3581 60.1741C56.3823 60.0905 56.3347 60.0037 56.2517 59.9757Z" fill="black"/>
<path d="M45.7413 60.8482C45.6349 60.9004 45.5551 60.9522 45.4712 61.0162C45.3894 61.0787 45.3127 61.1482 45.2414 61.2236C45.0979 61.3739 44.9835 61.5548 44.902 61.7503C44.8225 61.9463 44.7742 62.1579 44.7684 62.3682C44.7609 62.5756 44.7834 62.7933 44.8581 63.0082C44.9299 63.2225 45.0615 63.4296 45.2322 63.5901C45.4036 63.7516 45.6067 63.8676 45.8133 63.9456C46.0201 64.0247 46.2324 64.0658 46.4415 64.0879C46.5462 64.0996 46.6508 64.1035 46.7555 64.1013C46.8604 64.0998 46.9643 64.0937 47.0745 64.0772C47.2571 64.0497 47.3822 63.8829 47.3541 63.7047C47.3279 63.5391 47.1786 63.4219 47.0112 63.4282H47.0025C46.6882 63.4398 46.3406 63.4065 46.0573 63.309C45.7709 63.2098 45.5511 63.0481 45.4365 62.7947C45.378 62.669 45.3463 62.5204 45.3366 62.3641C45.3264 62.2104 45.3366 62.0569 45.3765 61.9081C45.4153 61.7588 45.4856 61.6171 45.5748 61.4828C45.6202 61.4164 45.6715 61.3523 45.7281 61.2929C45.7829 61.2353 45.8504 61.1738 45.9043 61.1327L45.919 61.1215C45.9917 61.0663 46.0047 60.9639 45.9479 60.8931C45.898 60.8309 45.8111 60.8136 45.7413 60.8479V60.8482Z" fill="black"/>
<path d="M43.4322 60.7743C43.3206 60.8288 43.2371 60.8833 43.1492 60.9506C43.0637 61.017 42.9834 61.0904 42.9102 61.1714C42.7624 61.3326 42.647 61.5272 42.572 61.737C42.4965 61.9471 42.4651 62.172 42.4711 62.3916C42.4778 62.6083 42.5212 62.8361 42.6156 63.0523C42.7108 63.2682 42.8608 63.4669 43.0427 63.6206C43.2237 63.7767 43.433 63.8864 43.6426 63.9664C44.064 64.124 44.5005 64.1633 44.902 64.1626H44.904C45.0889 64.1624 45.2384 64.0157 45.2379 63.8356C45.2377 63.6651 45.1019 63.5253 44.9312 63.5109C44.5521 63.4803 44.198 63.4404 43.8813 63.3337C43.5666 63.2289 43.3074 63.0613 43.1661 62.7992C43.0948 62.6683 43.0505 62.5171 43.0298 62.353C43.0089 62.1917 43.0094 62.0293 43.046 61.8725C43.0809 61.7154 43.1497 61.5649 43.2424 61.4243C43.2895 61.3545 43.3438 61.2881 43.4036 61.2261C43.4616 61.1663 43.5334 61.1028 43.5912 61.0613L43.6054 61.051C43.6794 60.9978 43.6954 60.8959 43.6406 60.8234C43.5917 60.7587 43.503 60.7398 43.432 60.7743H43.4322Z" fill="black"/>
<path d="M55.0672 60.8395C54.9568 60.8794 54.8778 60.921 54.7921 60.9755C54.7096 61.0292 54.6311 61.0898 54.5596 61.1581C54.4145 61.2933 54.2984 61.4594 54.2142 61.6388C54.0467 62.0014 54.0019 62.3963 54.0569 62.7878C54.0876 62.9823 54.1432 63.1761 54.2344 63.3619C54.3271 63.5458 54.4532 63.7245 54.6216 63.8682C54.7881 64.0126 54.9917 64.1223 55.203 64.1809C55.4143 64.2429 55.6301 64.2541 55.8332 64.2388C56.0174 64.2249 56.1554 64.0681 56.1412 63.8884C56.128 63.7208 55.9875 63.5924 55.8192 63.5868H55.8093C55.5187 63.5766 55.2713 63.5059 55.0776 63.3512C54.8845 63.1975 54.7342 62.9519 54.6625 62.673C54.6244 62.5334 54.6054 62.3919 54.6084 62.2433C54.6082 62.0965 54.6288 61.9525 54.6724 61.8159C54.7163 61.6792 54.7846 61.551 54.8728 61.4336C54.9172 61.375 54.968 61.3208 55.0233 61.2707C55.0764 61.223 55.1444 61.1715 55.1933 61.1418L55.213 61.1299C55.291 61.0825 55.3149 60.9823 55.2663 60.9062C55.2237 60.8395 55.1399 60.8135 55.0672 60.8395Z" fill="black"/>
<path d="M52.5304 60.7573C52.4274 60.8062 52.3497 60.8536 52.268 60.913C52.188 60.9708 52.1122 61.0343 52.0414 61.1036C51.8982 61.2412 51.7788 61.4054 51.6846 61.5846C51.5936 61.765 51.5284 61.9608 51.4984 62.1612C51.4703 62.362 51.4636 62.5621 51.4887 62.7649C51.5134 62.9675 51.5692 63.1732 51.6686 63.3673C51.7653 63.562 51.9101 63.741 52.0853 63.8835C52.2612 64.025 52.4653 64.1274 52.6724 64.1884C52.8802 64.2497 53.0891 64.2757 53.2919 64.2762C53.4768 64.2762 53.6268 64.1303 53.6271 63.9499C53.6271 63.7828 53.499 63.645 53.3333 63.6253L53.328 63.6248C53.0173 63.5876 52.7382 63.5032 52.5344 63.3442C52.3275 63.1898 52.1872 62.9495 52.1187 62.6633C52.0492 62.3739 52.0609 62.0663 52.1596 61.7852C52.2084 61.6434 52.2824 61.5085 52.3724 61.3803C52.4603 61.2546 52.5822 61.1323 52.6933 61.0426L52.7098 61.0292C52.7808 60.9718 52.7905 60.8694 52.732 60.8001C52.6819 60.741 52.5981 60.7255 52.5306 60.7576L52.5304 60.7573Z" fill="black"/>
<path d="M52.5147 33.6925L62.2647 28.3413C62.2647 28.3413 68.3187 30.2327 68.1996 33.1461C68.0804 36.0595 65.6647 38.0975 65.6647 38.0975C64.0749 39.3709 61.5435 40.3059 57.9962 40.5946" fill="white"/>
<path d="M52.5142 33.6925L54.9887 37.5535L57.9519 40.5394L57.9963 40.5948C61.5436 40.3062 64.0744 39.3714 65.665 38.0975C65.665 38.0975 68.0805 36.06 68.1993 33.1458C68.2135 32.7969 68.1393 32.4633 67.998 32.1452C66.9566 29.8069 62.265 28.3413 62.265 28.3413L52.5145 33.6925H52.5142Z" fill="black"/>
<g opacity="0.2">
<path d="M52.5143 33.6924L54.7025 37.1065C59.327 36.3578 62.6971 34.0448 62.6971 31.3067C62.6971 30.3744 62.3059 29.4912 61.6082 28.7017L52.5145 33.6922L52.5143 33.6924Z" fill="black"/>
</g>
<g opacity="0.2">
<path d="M57.9522 40.5397L57.9965 40.5951C61.5438 40.3065 64.0746 39.3717 65.6653 38.0978C65.6653 38.0978 68.0807 36.0603 68.1996 33.1461C68.2138 32.7972 68.1395 32.4636 67.9982 32.1455C67.3027 34.6917 65.0871 38.8236 57.9527 40.5397H57.9522Z" fill="black"/>
</g>
<path d="M64.7849 37.2271L65.665 38.0974C65.665 38.0974 68.8036 35.9386 68.629 32.0197C68.6038 31.4609 68.4919 30.8999 68.308 30.3501C68.2387 31.3753 67.8166 34.5528 64.7851 37.2271H64.7849Z" fill="#E8E8E8"/>
<path d="M52.6786 33.977L62.4287 28.6258L62.1628 28.6521C63.0088 28.931 63.8565 29.2843 64.6547 29.6909C65.4521 30.1009 66.2209 30.5746 66.8529 31.164C67.1664 31.4585 67.4402 31.7863 67.6271 32.1435C67.7186 32.3222 67.7896 32.5073 67.8282 32.6962C67.8464 32.7906 67.8611 32.8857 67.8639 32.981C67.8686 33.0287 67.8641 33.0763 67.8651 33.124L67.8551 33.2818C67.7991 34.1302 67.5245 34.9621 67.112 35.7247C66.6986 36.4848 66.1501 37.1956 65.5164 37.7872L65.4584 37.8392C65.4494 37.8485 65.4205 37.8682 65.4011 37.8835L65.2712 37.9808C65.1865 38.0469 65.096 38.1089 65.0041 38.1695C64.8244 38.2952 64.6333 38.4066 64.4429 38.5182C64.0594 38.7382 63.6537 38.9238 63.2418 39.0947C62.414 39.4305 61.5487 39.6893 60.6658 39.8913C59.7842 40.1002 58.8873 40.2624 57.9815 40.4321C57.8903 40.4489 57.8305 40.5348 57.8477 40.6238C57.8626 40.7011 57.9317 40.7556 58.0094 40.7573C58.9439 40.7762 59.8804 40.6894 60.8044 40.5194C61.2674 40.438 61.7232 40.3186 62.1787 40.1963C62.6308 40.0611 63.0783 39.9079 63.5154 39.7245C63.9507 39.5385 64.3804 39.335 64.7905 39.0935C64.9944 38.971 65.1985 38.8482 65.3926 38.7093C65.491 38.6427 65.5887 38.5736 65.6836 38.4982L65.8272 38.3878C65.8524 38.3677 65.8713 38.3555 65.9044 38.3261L65.974 38.2638C66.674 37.609 67.2498 36.86 67.7036 36.0296C68.1519 35.2009 68.4592 34.28 68.5225 33.3265L68.5334 33.1471C68.5332 33.0821 68.5372 33.017 68.532 32.9523C68.5275 32.8224 68.5085 32.6936 68.4836 32.5669C68.4315 32.3135 68.3386 32.073 68.2237 31.8493C67.9895 31.4026 67.6672 31.0252 67.3174 30.6952C66.6109 30.0379 65.7985 29.5431 64.9655 29.1136C64.5476 28.8999 64.1217 28.7046 63.6896 28.5244C63.2552 28.3445 62.8241 28.1796 62.3666 28.0311C62.2761 28.0016 62.1822 28.0131 62.1049 28.0551L62.1007 28.0576L52.3507 33.4085C52.1897 33.4967 52.1326 33.6957 52.2231 33.8527C52.3136 34.0098 52.5174 34.0655 52.6784 33.9772L52.6786 33.977Z" fill="black"/>
<path d="M45.71 10.2568C45.71 10.2568 45.0566 5.1522 41.3969 4.87888C38.4472 4.65857 36.0486 6.72647 36.5019 9.56205C37.0851 13.2098 40.6964 14.0298 40.6964 14.0298" fill="black"/>
<g opacity="0.3">
<path d="M36.4591 9.19662C36.8082 6.96531 38.983 5.47663 41.5619 5.66971C43.6905 5.82874 44.8418 7.55791 45.4429 9.05266C45.002 7.52557 43.9063 5.06592 41.3969 4.87892C38.5755 4.66785 36.2583 6.55095 36.4591 9.19662Z" fill="white"/>
</g>
<path d="M39.658 13.9706C39.7816 13.9706 39.9005 13.9032 39.9586 13.7875C40.0396 13.6255 39.971 13.4303 39.8051 13.3512C38.6398 12.7951 37.1783 11.6775 36.8322 9.5116C36.6485 8.36287 36.968 7.28661 37.7315 6.48075C38.6025 5.56157 39.9282 5.09615 41.3715 5.20387C43.9674 5.39768 44.943 8.34099 45.2418 9.59744C45.2834 9.77301 45.4636 9.88194 45.643 9.84134C45.8229 9.80073 45.9348 9.6254 45.8932 9.44983C45.561 8.05308 44.4603 4.78003 41.4226 4.5534C39.7762 4.43011 38.2511 4.97141 37.2409 6.03794C36.3358 6.99311 35.956 8.26244 36.1718 9.61227C36.583 12.185 38.4407 13.4264 39.5118 13.9375C39.5591 13.9601 39.6092 13.9706 39.6583 13.9708L39.658 13.9706Z" fill="black"/>
<path d="M48.5665 34.7749C51.8093 35.1358 62.6854 36.0686 64.6615 28.4051C65.8103 23.9505 65.2584 14.6253 59.2179 9.49589C58.8072 9.25904 58.3992 8.98159 57.0618 7.99141C55.6738 6.99126 54.0012 6.01348 52.2 3.85463C50.4955 2.89193 49.7347 5.70903 50.6894 7.25753C48.9799 7.33899 45.8054 3.63651 44.6748 5.14391C44.296 5.64921 44.3705 7.01412 45.3058 7.92502C43.4149 8.34254 42.0273 9.36312 42.0273 9.36312C38.2608 11.567 37.2944 15.3988 36.0601 18.2723C35.1956 20.2848 34.0299 22.0451 33.9728 24.6898C33.8463 30.5572 41.7029 34.0109 48.5667 34.7747L48.5665 34.7749Z" fill="white"/>
<g opacity="0.2">
<path d="M34.1011 25.2501C35.1435 30.2611 42.273 33.2233 48.5667 33.9239C51.8097 34.2845 62.6854 35.2176 64.662 27.5541C65.4995 24.3046 65.4325 18.4635 62.9904 13.5493C64.4958 17.9006 64.438 22.5453 63.725 25.3119C61.7491 32.9753 50.8728 32.0423 47.6297 31.6816C42.3408 31.0927 36.4615 28.9071 34.1011 25.2498V25.2501Z" fill="black"/>
</g>
<path d="M52.5506 35.3358C59.4683 35.3358 63.8304 32.9649 64.9857 28.4847C65.506 26.4674 65.7732 22.9527 64.963 19.1374C64.349 16.2458 62.892 12.1835 59.4374 9.24989C59.4219 9.23675 59.4055 9.22508 59.388 9.21511C59.0038 8.99334 58.6235 8.73826 57.2639 7.73154C57.0264 7.56035 56.7844 7.39232 56.5352 7.21943C55.3142 6.37223 53.9304 5.41172 52.4594 3.64875C52.4337 3.61811 52.4026 3.59209 52.3677 3.57239C51.719 3.20594 51.0771 3.26308 50.6069 3.72997C49.9316 4.40038 49.7539 5.74583 50.1257 6.83182C49.563 6.63607 48.8697 6.18475 48.1932 5.74437C46.8126 4.84611 45.2479 3.82796 44.4054 4.9514C43.9613 5.54327 44.0361 6.78489 44.7131 7.7386C43.1255 8.1921 41.9912 8.98435 41.8412 9.09207C38.5817 11.006 37.3831 14.0478 36.3252 16.7322C36.1296 17.2285 35.945 17.6971 35.7518 18.1467C35.5674 18.5759 35.3648 19.0029 35.1687 19.4158C34.4393 20.9526 33.6847 22.5415 33.6386 24.6833C33.5091 30.6869 41.2665 34.2911 48.5288 35.0992C49.9512 35.2575 51.2934 35.3358 52.5508 35.3358H52.5506ZM59.0212 9.76151C64.733 14.6339 65.5698 23.5462 64.3373 28.3257C63.5289 31.4609 61.0673 33.4643 57.0214 34.2799C54.672 34.7534 51.8401 34.811 48.6046 34.4511C44.9653 34.046 41.4006 32.9228 38.8242 31.3692C36.7252 30.1033 34.2377 27.9184 34.3072 24.6972C34.3506 22.692 35.0426 21.2339 35.7755 19.6901C35.9741 19.2718 36.1794 18.8392 36.3686 18.3988C36.5654 17.9405 36.7521 17.4673 36.9495 16.9663C37.9699 14.3766 39.1267 11.4413 42.1995 9.64333C42.2097 9.6375 42.2194 9.63093 42.2289 9.62412C42.2421 9.6144 43.5868 8.63953 45.38 8.24366C45.4989 8.21739 45.5936 8.1301 45.6274 8.01581C45.6611 7.90152 45.6287 7.77848 45.5425 7.69434C44.7079 6.88118 44.681 5.68893 44.9451 5.33658C45.3765 4.76149 46.4097 5.36795 47.8224 6.28712C48.878 6.97407 49.8767 7.62115 50.706 7.58321C50.8234 7.57762 50.9293 7.51221 50.9846 7.41105C51.04 7.30989 51.0367 7.18758 50.9762 7.08934C50.4003 6.15533 50.554 4.7131 51.0838 4.18737C51.3258 3.94712 51.6201 3.92158 51.9819 4.10955C53.4945 5.90997 54.9035 6.88799 56.148 7.75148C56.3939 7.92219 56.6327 8.08779 56.8637 8.25411C58.2163 9.25548 58.623 9.53002 59.0217 9.76151H59.0212Z" fill="black"/>
<path d="M51.43 27.5416C51.43 27.5416 47.8326 26.5836 49.0719 22.5453C50.3111 18.507 51.3216 18.3674 53.4707 18.7504C55.6195 19.1334 58.6711 21.5159 59.5989 23.1036C60.5267 24.691 60.3335 27.2822 59.6612 28.1736C59.1097 28.9048 57.5861 29.1908 55.4745 28.7755C53.3628 28.3602 52.2033 27.8741 51.4303 27.5416H51.43Z" fill="#CECECE"/>
<path d="M41.219 25.2309C41.219 25.2309 43.8634 25.326 44.2502 21.7101C44.6369 18.0942 44.0152 17.7321 42.4919 17.5201C40.9683 17.308 38.2588 18.5151 37.1785 19.5901C36.0982 20.6652 35.4553 22.8379 35.6315 23.7337C35.776 24.4686 36.6908 25.0763 38.1995 25.2528C39.7081 25.4293 40.6132 25.3146 41.219 25.2312V25.2309Z" fill="#CECECE"/>
<path d="M60.2622 14.4399C58.2993 11.9283 58.8126 10.3075 59.6691 9.35213C60.7511 8.14505 62.4449 6.87863 64.5102 7.44569C67.453 8.2535 69.0286 11.0913 67.5574 13.6861C66.6782 15.2368 65.3869 15.969 64.256 16.3084C62.9859 16.6897 61.7167 16.3014 60.2622 14.4402V14.4399Z" fill="black"/>
<g opacity="0.3">
<path d="M58.7324 10.5713C59.8429 9.22678 61.7305 7.61628 64.0749 8.26019C66.5275 8.93425 68.0743 10.9525 67.8291 13.1189C68.793 10.6911 67.2395 8.1955 64.5103 7.44606C61.6814 6.66986 59.5498 9.33183 58.7322 10.5713H58.7324Z" fill="white"/>
</g>
<path d="M58.9133 10.5984C59.5114 9.98443 60.0571 9.3607 60.6834 8.82549C61.3096 8.29782 62.0325 7.88175 62.8073 7.72734C63.1925 7.64685 63.5887 7.63494 63.978 7.69014C64.3622 7.74753 64.7582 7.8747 65.132 8.03009C65.8774 8.34791 66.5435 8.84105 67.0229 9.47183C67.4976 10.1021 67.7852 10.8681 67.7802 11.6475C67.7822 12.0363 67.707 12.4234 67.5831 12.7947C67.461 13.1682 67.2679 13.5145 67.0476 13.8554C66.8243 14.1905 66.5731 14.5064 66.2873 14.7921C66 15.0754 65.679 15.3276 65.3296 15.5406C64.6331 15.9722 63.8287 16.2467 62.9924 16.3929H62.9907C62.8997 16.4092 62.8392 16.494 62.8554 16.5828C62.8703 16.6643 62.9448 16.7207 63.0273 16.7173C63.9182 16.681 64.8178 16.4612 65.6242 16.034C66.0259 15.8193 66.4027 15.5566 66.7453 15.2546C67.0835 14.9475 67.375 14.5956 67.6322 14.2238C67.8747 13.8476 68.0999 13.4416 68.236 13.0026C68.376 12.5664 68.4583 12.1075 68.4505 11.647C68.4583 10.7237 68.1273 9.813 67.5779 9.07547C67.0252 8.33599 66.2626 7.76601 65.4186 7.39858C64.995 7.2179 64.5584 7.07614 64.0827 7.00246C63.6117 6.93413 63.1245 6.94823 62.6597 7.04453C62.193 7.13839 61.7539 7.31833 61.3495 7.5401C60.946 7.76455 60.5752 8.03228 60.2363 8.32797C59.5563 8.91546 58.9893 9.61676 58.6337 10.4204C58.5966 10.5043 58.6362 10.6018 58.7222 10.6381C58.7892 10.6663 58.8647 10.649 58.9121 10.6004L58.9136 10.5989L58.9133 10.5984Z" fill="black"/>
<path d="M54.6388 15.5035C54.4926 15.1273 53.0109 14.8858 51.8857 15.4271C51.0858 15.8121 51.1805 16.9895 52.1823 16.9637C53.7677 16.9229 54.7854 15.8797 54.6388 15.5035Z" fill="black"/>
<path d="M41.984 14.3859C42.1769 14.0304 43.6778 13.9696 44.7257 14.6424C45.4708 15.121 45.1722 16.1975 44.1762 16.0905C42.9085 15.9543 41.7911 14.7414 41.984 14.3857V14.3859Z" fill="black"/>
<path d="M43.5426 26.7188C43.9568 26.8158 44.4275 26.8051 44.8656 26.6123C45.0809 26.5138 45.285 26.3725 45.4455 26.1925C45.526 26.1057 45.5985 26.0009 45.6531 25.9129L45.666 25.8927C45.6626 25.8966 45.67 25.8908 45.6406 25.9231C45.6399 25.9238 45.6292 25.9345 45.6202 25.9421C45.6105 25.9504 45.6023 25.9567 45.59 25.9647C45.5604 25.9846 45.5248 26.0004 45.4894 26.0094C45.4839 26.0116 45.4206 26.025 45.375 26.0187C45.3249 26.0145 45.2738 25.9973 45.2347 25.9737C45.1853 25.9418 45.1986 25.9482 45.1821 25.9355C45.1721 25.9268 45.1629 25.9173 45.1542 25.9073C45.138 25.89 45.1178 25.8567 45.1193 25.8587C45.1126 25.8475 45.1069 25.8358 45.1021 25.8239C45.0949 25.8062 45.0949 25.803 45.0949 25.8035L45.0971 25.812L45.1049 25.8436C45.1163 25.8917 45.13 25.9465 45.1452 25.9997C45.2594 26.4282 45.539 26.8669 45.9598 27.1066C46.3763 27.3522 46.8537 27.3955 47.2726 27.3311C47.3648 27.317 47.4279 27.2323 47.4132 27.1424C47.4014 27.0701 47.3431 27.0162 47.2729 27.0052H47.2704C46.8903 26.9461 46.5392 26.8386 46.2858 26.6378C46.1592 26.5383 46.055 26.4194 45.9718 26.2842C45.8911 26.1473 45.8283 25.9966 45.7857 25.8327C45.7749 25.7911 45.7657 25.7502 45.7555 25.7026L45.7465 25.6624L45.7398 25.6352C45.7368 25.624 45.7331 25.6092 45.7214 25.5798C45.7151 25.5649 45.7082 25.5506 45.7002 25.5367C45.7002 25.5367 45.6798 25.5029 45.6626 25.4844C45.6533 25.474 45.6434 25.4638 45.6332 25.4545C45.6162 25.4414 45.6289 25.4468 45.5788 25.4149C45.539 25.3913 45.4871 25.3736 45.4363 25.3694C45.3899 25.3631 45.3256 25.3757 45.3197 25.3787C45.2828 25.3881 45.2459 25.4047 45.2148 25.4251C45.2015 25.4341 45.1918 25.4414 45.1811 25.4506C45.1709 25.4592 45.1589 25.4708 45.1572 25.4728C45.1191 25.5141 45.1198 25.5187 45.1091 25.5326L45.0824 25.5749C45.0341 25.6551 44.9932 25.7135 44.9426 25.7755C44.843 25.8952 44.7248 26.0009 44.5833 26.0829C44.3034 26.2546 43.9458 26.3389 43.5608 26.3934L43.5579 26.3939C43.4649 26.407 43.4006 26.4912 43.4141 26.5816C43.4243 26.6507 43.4771 26.7037 43.5426 26.719V26.7188Z" fill="black"/>
<path d="M45.4049 26.0197C45.5876 26.0197 45.7368 25.8765 45.7391 25.6978C45.7391 25.6878 45.7558 24.9415 46.1278 24.5031C46.2454 24.3643 46.2258 24.1588 46.0835 24.0438C45.9412 23.9287 45.7306 23.9482 45.6127 24.087C45.0877 24.7061 45.071 25.6501 45.0707 25.69C45.0687 25.8702 45.2168 26.0178 45.4014 26.0197H45.4052H45.4049Z" fill="black"/>
<path d="M47.5832 24.0286C47.4566 25.0715 45.5176 25.2984 45.5176 25.2984C45.5176 25.2984 43.9661 24.5181 44.1463 23.5872C44.249 23.0576 45.7666 23.2514 45.7666 23.2514C45.7666 23.2514 47.6482 23.4934 47.5832 24.0286Z" fill="black"/>
<g opacity="0.5">
<path d="M46.5184 24.0328C46.4715 24.301 45.9879 24.3387 45.647 24.2777C45.3061 24.2166 44.8642 24.0133 44.9111 23.7451C44.935 23.6075 45.7389 23.7514 45.7389 23.7514C45.7389 23.7514 46.5423 23.8952 46.5184 24.0328Z" fill="white"/>
</g>
<path d="M65.6647 38.0978C65.6647 38.0978 68.8039 35.9392 68.6287 32.02C68.4074 27.0657 61.3429 21.9915 58.3499 24.8952C56.0361 27.1399 59.4221 32.3422 61.8309 34.309" fill="black"/>
<g opacity="0.3">
<path d="M58.6273 30.3132C57.8483 28.5573 57.6452 26.7972 58.7561 25.7197C61.1222 23.4247 66.0326 26.1154 68.0955 29.7904C66.3621 25.7124 60.89 22.4311 58.3499 24.8951C57.0643 26.1421 57.5383 28.3019 58.6273 30.3132Z" fill="white"/>
</g>
<g opacity="0.2">
<path d="M64.7849 37.2271L65.665 38.0974C65.665 38.0974 68.8036 35.9386 68.629 32.0197C68.6038 31.4609 68.4919 30.8999 68.308 30.3501C68.2387 31.3753 67.8166 34.5528 64.7851 37.2271H64.7849Z" fill="black"/>
</g>
<path d="M65.8574 38.3644C66.0208 38.2489 66.1524 38.1409 66.2905 38.0222C66.4263 37.9055 66.5564 37.7839 66.6827 37.6587C66.9356 37.4085 67.1729 37.1439 67.3899 36.8635C67.8255 36.304 68.1901 35.6888 68.462 35.033C68.7291 34.3759 68.9073 33.6805 68.9691 32.9741C69.0054 32.6207 69.0059 32.2677 68.99 31.9119C68.9683 31.5537 68.9137 31.1994 68.8323 30.8529C68.5008 29.4632 67.7674 28.2172 66.8599 27.1468C66.4033 26.6111 65.8967 26.1172 65.3475 25.6717C64.7985 25.2262 64.2047 24.8304 63.567 24.504C62.9303 24.1782 62.2483 23.9175 61.5226 23.784C60.8019 23.6507 60.019 23.6512 59.2891 23.9126C58.9257 24.0413 58.5853 24.2373 58.2918 24.4829C57.9995 24.7234 57.7411 25.0339 57.5686 25.3772C57.3917 25.7206 57.2938 26.0934 57.2554 26.461C57.2148 26.8299 57.2337 27.1949 57.282 27.5499C57.3837 28.2605 57.6117 28.9309 57.8918 29.5695C58.1774 30.2063 58.5178 30.8138 58.9046 31.3891C59.2901 31.9652 59.7167 32.513 60.1839 33.0261C60.4167 33.2834 60.6606 33.5309 60.9176 33.7661C61.173 34.0024 61.4391 34.2288 61.7235 34.4338C61.798 34.4875 61.9026 34.472 61.9577 34.3995C62.0083 34.3326 61.9991 34.2407 61.9393 34.1846L61.9383 34.1836C61.694 33.9545 61.4576 33.7169 61.233 33.4682C61.009 33.2192 60.794 32.9621 60.5849 32.701C60.1682 32.1772 59.7845 31.6293 59.4324 31.0652C59.0857 30.4981 58.7643 29.9169 58.5076 29.3132C58.2482 28.7123 58.0436 28.0886 57.9586 27.4612C57.8754 26.838 57.9162 26.2011 58.1901 25.6817C58.3249 25.4205 58.5111 25.1968 58.7476 25.004C58.9803 24.8124 59.2447 24.6621 59.532 24.5624C60.1067 24.3601 60.7571 24.355 61.3875 24.4765C62.0207 24.5969 62.6395 24.8355 63.2229 25.1392C64.3891 25.7532 65.4355 26.6089 66.2907 27.6088C67.1417 28.6085 67.818 29.7691 68.1148 31.0141C68.1881 31.3247 68.2367 31.6391 68.2561 31.9542C68.2726 32.2715 68.2753 32.5947 68.2447 32.9125C68.1941 33.5506 68.0383 34.1785 67.8011 34.7762C67.5594 35.3727 67.2312 35.9376 66.8352 36.4545C66.6373 36.7133 66.4235 36.961 66.194 37.1938C66.0796 37.3102 65.9615 37.4236 65.8397 37.5313C65.7203 37.6375 65.5875 37.7472 65.4724 37.8309L65.4619 37.8384C65.3139 37.9461 65.2832 38.1504 65.3936 38.2948C65.5028 38.4381 65.7098 38.4684 65.8576 38.3641L65.8574 38.3644Z" fill="black"/>
<path d="M60.0451 27.0553C59.8754 26.8805 59.7002 26.7297 59.5051 26.5872C59.3097 26.4474 59.0994 26.319 58.8559 26.2268C58.6152 26.1383 58.3271 26.0763 58.0224 26.1495C57.8724 26.185 57.7283 26.2534 57.6047 26.3421C57.4801 26.4311 57.3839 26.5396 57.2967 26.6504C57.1841 26.7937 57.2115 26.9991 57.3585 27.1091C57.5053 27.219 57.7159 27.1922 57.8285 27.0488C57.8365 27.0388 57.8437 27.0286 57.8502 27.0179L57.8567 27.0072C57.9005 26.9357 57.9464 26.8666 58.0012 26.8158C58.056 26.765 58.1158 26.7251 58.1854 26.6976C58.3229 26.6405 58.5098 26.6466 58.7007 26.692C58.8926 26.7387 59.0879 26.825 59.2756 26.9279C59.4617 27.0312 59.6481 27.157 59.8109 27.288L59.8171 27.2931C59.8884 27.3505 59.9935 27.3408 60.0526 27.2713C60.1069 27.2071 60.1024 27.1142 60.0451 27.0551V27.0553Z" fill="black"/>
<path d="M61.5239 25.0469C61.3225 24.8726 61.1157 24.7303 60.8909 24.5966C60.6664 24.4665 60.4294 24.349 60.1712 24.2668C59.9133 24.1849 59.6367 24.1336 59.3467 24.1353C59.0556 24.1448 58.7611 24.2202 58.4907 24.3515C58.325 24.432 58.2577 24.6282 58.3402 24.7899C58.4226 24.9516 58.6237 25.0173 58.7895 24.9368C58.7994 24.9319 58.8091 24.9266 58.8184 24.921L58.8313 24.9129C58.9973 24.8108 59.1822 24.7359 59.3883 24.7046C59.5954 24.6812 59.8159 24.6941 60.0374 24.7384C60.2595 24.7824 60.48 24.8621 60.6951 24.9565C60.9076 25.0518 61.1234 25.169 61.3101 25.2972L61.3171 25.302C61.3926 25.3538 61.4967 25.3363 61.55 25.2626C61.5996 25.194 61.5872 25.1009 61.5244 25.0467L61.5239 25.0469Z" fill="black"/>
<path d="M21.9838 3.34424H23.5784V63.3047H21.9838V3.34424Z" fill="#AAAAAA"/>
<path d="M21.6496 63.6307H23.9128V3.01758H21.6496V63.6304V63.6307ZM23.2443 62.9782H22.3182V3.67024H23.2443V62.9782Z" fill="black"/>
<path d="M21.5853 3.14356C20.9248 2.49904 20.9248 1.45408 21.5853 0.809566C22.2458 0.165051 23.3167 0.165051 23.9772 0.809566C24.6377 1.45408 24.6377 2.49904 23.9772 3.14356C23.3167 3.78807 22.2458 3.78807 21.5853 3.14356Z" fill="white"/>
<g opacity="0.2">
<path d="M21.7134 1.98802C21.7134 2.56384 22.1916 3.03048 22.7809 3.03048C23.3703 3.03048 23.8492 2.56384 23.8492 1.98802C23.8492 1.84382 23.8191 1.70643 23.7648 1.58168C23.6202 1.88613 23.304 2.09671 22.9377 2.09671C22.4495 2.09671 22.0506 1.72175 22.0274 1.25049C21.8333 1.43894 21.7134 1.70011 21.7134 1.98802Z" fill="black"/>
</g>
<path d="M22.7812 3.95319C23.8981 3.95319 24.8066 3.0666 24.8066 1.97671C24.8066 0.886835 23.8981 0 22.7812 0C21.6643 0 20.7557 0.886591 20.7557 1.97647C20.7557 3.06635 21.6643 3.95294 22.7812 3.95294V3.95319ZM22.7812 0.65242C23.5293 0.65242 24.138 1.24648 24.138 1.97647C24.138 2.70646 23.5293 3.30052 22.7812 3.30052C22.0331 3.30052 21.4243 2.70646 21.4243 1.97647C21.4243 1.24648 22.0331 0.65242 22.7812 0.65242Z" fill="black"/>
<path d="M23.5783 3.3439C23.5783 3.3439 22.1168 2.98766 20.4253 3.67388C18.3666 4.50941 17.2475 5.66275 14.1797 5.46579C11.4485 5.29046 9.17681 4.8958 5.38505 5.77218C3.36308 6.23955 0.333858 7.86732 0.333858 7.86732L0.903023 21.8373C0.903023 21.8373 2.78221 22.1257 5.33073 21.032C7.10176 20.2718 9.0273 19.1793 12.844 20.06C15.9584 20.7788 18.9575 19.6705 20.4796 19.3167C22.0017 18.9631 23.5781 19.1751 23.5781 19.1751C23.5781 19.1751 23.9103 18.2615 23.5781 17.7723C23.5781 17.7723 22.0206 17.4489 20.9244 17.5729C20.9244 17.5729 20.8132 14.4499 20.8479 12.0197C20.8815 9.65922 20.8962 5.44074 20.8962 5.44074C20.8962 5.44074 21.4801 4.77641 23.5781 5.01325C23.5781 5.01325 23.8921 3.94477 23.5781 3.34341L23.5783 3.3439Z" fill="white"/>
<path d="M10.7987 17.0944C8.21815 17.0944 6.12624 15.0531 6.12624 12.535C6.12624 10.0169 8.21815 7.97559 10.7987 7.97559C13.3792 7.97559 15.4711 10.0169 15.4711 12.535C15.4711 15.0531 13.3792 17.0944 10.7987 17.0944Z" fill="#2468FF"/>
<path d="M15.489 16.3891C15.489 16.3891 15.3549 16.6627 14.8072 17.1186C14.2595 17.5748 13.9617 17.6609 13.9617 17.6609L6.10406 8.67607C6.10406 8.67607 6.41581 8.27314 6.79533 7.95726C7.17461 7.64139 7.63138 7.4043 7.63138 7.4043L15.489 16.3891Z" fill="#52BF2E"/>
<path d="M13.9617 17.7723C13.9724 17.7723 13.9834 17.7709 13.9941 17.7677C14.0073 17.7638 14.3215 17.6695 14.8812 17.2033C15.4409 16.7372 15.5859 16.449 15.5919 16.4371C15.6114 16.3975 15.6049 16.3505 15.5757 16.317L7.71809 7.33241C7.68345 7.29277 7.62513 7.28207 7.57804 7.30639C7.55885 7.31636 7.10581 7.55296 6.7213 7.87297C6.3368 8.19298 6.02605 8.59251 6.01309 8.60928C5.98094 8.65087 5.98269 8.70874 6.01733 8.74838L13.875 17.7332C13.8969 17.7582 13.9288 17.7721 13.9617 17.7721V17.7723ZM15.3492 16.4006C15.2807 16.5013 15.1062 16.7238 14.7334 17.0343C14.3606 17.3449 14.108 17.4779 13.9953 17.5282L6.25157 8.67348C6.35673 8.5463 6.59671 8.26909 6.86933 8.04197C7.14219 7.81485 7.46042 7.62713 7.6057 7.54591L15.3495 16.4004L15.3492 16.4006Z" fill="black"/>
<path d="M15.6866 16.2417C15.8366 16.4282 15.7083 16.6397 15.7083 16.6397C15.7083 16.6397 15.5082 16.934 15.0093 17.3495C14.5104 17.7651 14.1812 17.9117 14.1812 17.9117C14.1812 17.9117 13.947 18.002 13.7817 17.8283C13.6193 17.6574 13.7598 17.4303 13.7598 17.4303C13.7598 17.4303 14.1391 17.2063 14.57 16.8476C15.0008 16.489 15.2871 16.1585 15.2871 16.1585C15.2871 16.1585 15.5391 16.0586 15.6866 16.2422V16.2417Z" fill="#52BF2E"/>
<path d="M15.6866 16.2417C15.8366 16.4282 15.7083 16.6397 15.7083 16.6397C15.7083 16.6397 15.5082 16.934 15.0093 17.3495C14.5104 17.7651 14.1812 17.9117 14.1812 17.9117C14.1812 17.9117 13.947 18.002 13.7817 17.8283C13.6193 17.6574 13.7598 17.4303 13.7598 17.4303C13.7598 17.4303 14.1391 17.2063 14.57 16.8476C15.0008 16.489 15.2871 16.1585 15.2871 16.1585C15.2871 16.1585 15.5391 16.0586 15.6866 16.2422V16.2417Z" fill="#52BF2E"/>
<path d="M15.473 16.1324C15.3402 16.2924 15.0526 16.618 14.6572 16.9473C14.2617 17.2765 13.8869 17.5024 13.7042 17.6053C13.7117 17.507 13.7596 17.4299 13.7596 17.4299C13.7596 17.4299 14.1388 17.206 14.5697 16.8471C15.0005 16.4882 15.2869 16.1579 15.2869 16.1579C15.2869 16.1579 15.3723 16.1239 15.473 16.1322V16.1324Z" fill="#80D362"/>
<path d="M15.6866 16.2421C15.8366 16.4286 15.7083 16.6401 15.7083 16.6401C15.7083 16.6401 15.5079 16.9344 15.0093 17.3499C14.5104 17.7653 14.1812 17.9121 14.1812 17.9121C14.1812 17.9121 13.947 18.0024 13.7817 17.8287C13.7384 17.783 13.7165 17.7332 13.708 17.6848C13.8458 17.7371 13.9819 17.6848 13.9819 17.6848C13.9819 17.6848 14.3113 17.5381 14.8099 17.1226C15.3088 16.7072 15.5089 16.4128 15.5089 16.4128C15.5089 16.4128 15.5834 16.2897 15.5523 16.1489C15.5999 16.1645 15.647 16.1934 15.6866 16.2425V16.2421Z" fill="#30A010"/>
<path d="M14.0372 18.0464C14.1396 18.0464 14.2168 18.0174 14.2231 18.0152C14.2425 18.0067 14.5782 17.855 15.0833 17.4343C15.5887 17.0136 15.7947 16.714 15.8032 16.7014C15.8132 16.6851 15.9719 16.4169 15.7763 16.1732C15.6181 15.9765 15.3674 16.0064 15.2443 16.0553C15.2271 16.0621 15.2121 16.0728 15.2002 16.0864C15.1974 16.0896 14.9141 16.4147 14.4962 16.7627C14.0783 17.1107 13.7045 17.3327 13.701 17.3349C13.6853 17.3441 13.6721 17.357 13.6624 17.3725C13.5936 17.4834 13.5238 17.7203 13.6983 17.9039C13.8062 18.0174 13.9345 18.0464 14.0372 18.0464ZM14.1336 17.8107C14.1336 17.8107 13.9736 17.8669 13.8652 17.7526C13.7852 17.6685 13.8246 17.5552 13.8465 17.5085C13.9427 17.4496 14.2727 17.2412 14.644 16.9319C15.0153 16.6226 15.2782 16.3374 15.3527 16.254C15.403 16.2404 15.5241 16.2199 15.5969 16.3104C15.6956 16.4332 15.6133 16.5779 15.6098 16.5839C15.6098 16.5839 15.411 16.8689 14.9353 17.2651C14.4573 17.6631 14.1368 17.8093 14.1336 17.8107Z" fill="black"/>
<path d="M13.0803 13.2617C13.2303 13.4482 13.102 13.6598 13.102 13.6598C13.102 13.6598 12.9019 13.954 12.403 14.3696C11.9041 14.7851 11.5749 14.9318 11.5749 14.9318C11.5749 14.9318 11.3406 15.022 11.1754 14.8484C11.013 14.6774 11.1535 14.4503 11.1535 14.4503C11.1535 14.4503 11.5328 14.2263 11.9636 13.8677C12.3945 13.509 12.6808 13.1785 12.6808 13.1785C12.6808 13.1785 12.9328 13.0786 13.0803 13.2622V13.2617Z" fill="#52BF2E"/>
<path d="M12.9133 13.159C12.7394 13.3455 12.4518 13.6672 12.0683 13.9867C11.6848 14.306 11.314 14.5326 11.0979 14.671C11.0902 14.5523 11.1535 14.45 11.1535 14.45C11.1535 14.45 11.5328 14.226 11.9636 13.8671C12.3945 13.5082 12.6808 13.1779 12.6808 13.1779C12.6808 13.1779 12.7945 13.133 12.9133 13.159Z" fill="#80D362"/>
<path d="M13.0803 13.2619C13.2303 13.4484 13.102 13.6599 13.102 13.6599C13.102 13.6599 12.9016 13.9542 12.403 14.3697C11.9041 14.7851 11.5749 14.9319 11.5749 14.9319C11.5749 14.9319 11.3406 15.0221 11.1754 14.8485C11.1667 14.839 11.1587 14.8298 11.1518 14.8203C11.2542 14.8266 11.3349 14.7955 11.3349 14.7955C11.3349 14.7955 11.6942 14.6355 12.2385 14.182C12.783 13.7287 13.0013 13.4075 13.0013 13.4075C13.0013 13.4075 13.0454 13.3346 13.0551 13.2349C13.0636 13.2431 13.0718 13.2521 13.08 13.2621L13.0803 13.2619Z" fill="#30A010"/>
<path d="M11.4308 15.0662C11.5333 15.0662 11.6103 15.0375 11.6165 15.0351C11.6359 15.0266 11.9716 14.8748 12.4767 14.4541C12.9821 14.0335 13.1882 13.7339 13.1969 13.7212C13.2069 13.7052 13.3656 13.4367 13.17 13.1933C13.0117 12.9966 12.761 13.0265 12.6379 13.0751C12.6208 13.0819 12.6058 13.0926 12.5938 13.1063C12.5911 13.1094 12.3078 13.4345 11.8899 13.7827C11.472 14.1307 11.0984 14.3527 11.0947 14.3549C11.079 14.3642 11.0658 14.3771 11.0561 14.3926C10.9873 14.5035 10.9175 14.7403 11.0919 14.9239C11.1998 15.0375 11.3282 15.0664 11.4308 15.0664V15.0662ZM11.5273 14.8306C11.5273 14.8306 11.3673 14.8865 11.2589 14.7724C11.1789 14.6883 11.2183 14.575 11.2402 14.5283C11.3364 14.4695 11.6663 14.2611 12.0376 13.9518C12.4092 13.6424 12.6718 13.3572 12.7466 13.2738C12.7969 13.2602 12.918 13.2398 12.9908 13.3302C13.0895 13.453 13.0073 13.5977 13.0038 13.6038C13.0038 13.6038 12.8049 13.8888 12.3292 14.2849C11.8512 14.683 11.5308 14.8291 11.5275 14.8306H11.5273Z" fill="black"/>
<path d="M10.474 10.2815C10.624 10.468 10.4956 10.6795 10.4956 10.6795C10.4956 10.6795 10.2148 10.9798 9.76549 11.3538C9.31644 11.7278 8.96832 11.9513 8.96832 11.9513C8.96832 11.9513 8.73407 12.0415 8.56885 11.8679C8.40638 11.6969 8.54693 11.4698 8.54693 11.4698L9.31544 10.8395L10.0742 10.1981C10.0742 10.1981 10.3262 10.0981 10.4737 10.2817L10.474 10.2815Z" fill="#52BF2E"/>
<path d="M8.82453 12.0862C8.92695 12.0862 9.00395 12.0575 9.01018 12.0551C9.01741 12.0524 9.02439 12.0488 9.03087 12.0446C9.04532 12.0354 9.38996 11.8131 9.83926 11.4389C10.2886 11.0647 10.5679 10.7675 10.5794 10.7551C10.5846 10.7495 10.5893 10.7432 10.5933 10.7369C10.6003 10.7254 10.7588 10.4572 10.5632 10.2138C10.4049 10.0171 10.1542 10.047 10.0311 10.0956C10.0197 10.1003 10.0087 10.1066 9.99949 10.1146L9.24069 10.7561L8.47342 11.3854C8.46395 11.3932 8.45572 11.4027 8.44924 11.4131C8.38047 11.524 8.3107 11.7609 8.48513 11.9444C8.59303 12.058 8.72137 12.0869 8.82403 12.0869L8.82453 12.0862ZM8.91748 11.8513C8.8811 11.862 8.74753 11.8927 8.65259 11.7927C8.56811 11.704 8.6167 11.5829 8.63739 11.5415L9.38921 10.9251L10.1328 10.2965C10.1772 10.2834 10.308 10.2554 10.3847 10.3507C10.4707 10.4575 10.4194 10.581 10.4024 10.6153C10.3499 10.6702 10.0847 10.9431 9.69223 11.2699C9.2995 11.597 8.98153 11.8097 8.91798 11.8516L8.91748 11.8513Z" fill="black"/>
<path d="M7.86788 7.30148C8.01789 7.48799 7.88955 7.69955 7.88955 7.69955C7.88955 7.69955 7.4405 7.98162 7.07942 8.28242C6.71833 8.58322 6.36223 8.97156 6.36223 8.97156C6.36223 8.97156 6.12799 9.06177 5.96278 8.88815C5.8003 8.7172 5.94085 8.49009 5.94085 8.49009C5.94085 8.49009 6.16662 8.13749 6.62115 7.75888C7.07593 7.38027 7.46817 7.21807 7.46817 7.21807C7.46817 7.21807 7.7201 7.11813 7.86763 7.30172L7.86788 7.30148Z" fill="#52BF2E"/>
<path d="M7.85059 7.28204C7.723 7.25067 7.59865 7.29979 7.59865 7.29979C7.59865 7.29979 7.18898 7.46928 6.71401 7.86467C6.23904 8.26007 6.0033 8.62822 6.0033 8.62822C6.0033 8.62822 5.93402 8.74032 5.94574 8.86823C5.81042 8.69996 5.94075 8.48962 5.94075 8.48962C5.94075 8.48962 6.16653 8.13702 6.62106 7.75841C7.07559 7.3798 7.46807 7.2176 7.46807 7.2176C7.46807 7.2176 7.70132 7.12496 7.85034 7.2818L7.85059 7.28204Z" fill="#80D362"/>
<path d="M7.92994 7.42285C7.96882 7.569 7.88957 7.69982 7.88957 7.69982C7.88957 7.69982 7.44077 7.98165 7.07944 8.28269C6.7181 8.58349 6.36225 8.97183 6.36225 8.97183C6.36225 8.97183 6.21747 9.02752 6.07567 8.96721C6.12053 8.9142 6.51327 8.45534 6.92818 8.11005C7.34309 7.7645 7.86914 7.45811 7.92994 7.42334V7.42285Z" fill="#30A010"/>
<path d="M6.2182 9.10585C6.32062 9.10585 6.39762 9.07715 6.4041 9.07472C6.42055 9.0684 6.43525 9.05843 6.44721 9.04554C6.4507 9.04165 6.80256 8.65915 7.15343 8.36686C7.50429 8.07457 7.94687 7.79566 7.95135 7.79298C7.9663 7.7835 7.97876 7.77085 7.98773 7.75602C7.99471 7.74459 8.1532 7.47638 7.95758 7.23297C7.79934 7.03624 7.54865 7.06591 7.42555 7.11479C7.40736 7.12232 7.01039 7.28865 6.54764 7.67383C6.08488 8.05925 5.85412 8.41574 5.84465 8.43057C5.77488 8.54291 5.7051 8.77976 5.87954 8.96311C5.98769 9.07667 6.11578 9.10561 6.21844 9.10561L6.2182 9.10585ZM6.29844 8.87435C6.2501 8.88627 6.13247 8.9028 6.04625 8.8121C5.94508 8.70559 6.03504 8.55288 6.03877 8.54632C6.03952 8.5451 6.26106 8.20442 6.69516 7.84283C7.12951 7.48124 7.50903 7.32148 7.51277 7.31978C7.5175 7.31783 7.68646 7.25558 7.77816 7.36987C7.85616 7.46689 7.82127 7.57754 7.80133 7.62276C7.69842 7.68866 7.32213 7.93402 7.00541 8.19761C6.68868 8.46145 6.38117 8.7856 6.29844 8.87435Z" fill="black"/>
<path d="M1.53255 22.1995C2.32599 22.1995 3.74765 22.0684 5.4656 21.3311C5.61886 21.2652 5.77336 21.1969 5.93036 21.1278C7.55187 20.411 9.38993 19.5985 12.7673 20.3781C15.4643 21.0006 18.029 20.3081 19.7258 19.8502C20.0438 19.7644 20.3184 19.6902 20.5574 19.6348C21.9972 19.3002 23.5178 19.4971 23.533 19.4991C23.69 19.5198 23.8405 19.4308 23.8936 19.2851C23.9332 19.1759 24.2699 18.2003 23.8572 17.5929C23.8089 17.5216 23.7336 17.4718 23.6482 17.454C23.5891 17.4419 22.3279 17.1827 21.2479 17.2233C21.2207 16.3493 21.1552 13.9541 21.1826 12.0251C21.2123 9.94403 21.2272 6.37748 21.2305 5.59643C21.439 5.46657 22.0877 5.17429 23.54 5.33818C23.7027 5.35666 23.8547 5.25745 23.8998 5.10401C23.9357 4.98194 24.2397 3.89182 23.8764 3.19611C23.8326 3.11198 23.7533 3.0507 23.6596 3.02784C23.5956 3.01228 22.0705 2.6536 20.2972 3.37314C19.7632 3.5898 19.2947 3.82543 18.8419 4.05328C17.5317 4.71251 16.4003 5.28128 14.2022 5.14073C13.7808 5.11374 13.3641 5.08091 12.9614 5.0493C10.6997 4.87105 8.56336 4.70303 5.30861 5.45539C3.26571 5.92762 0.298538 7.51478 0.173193 7.58214C0.0622997 7.64171 -0.00473213 7.75746 0.000501633 7.88099L0.56966 21.851C0.57589 22.0066 0.69426 22.1362 0.851751 22.1603C0.879412 22.1645 1.12163 22.1997 1.5328 22.1997L1.53255 22.1995ZM10.1991 19.4101C8.1953 19.4101 6.82297 20.0168 5.6545 20.5333C5.49999 20.6016 5.34774 20.669 5.19648 20.7339C3.32477 21.5373 1.81788 21.5667 1.22579 21.5378L0.676565 8.0585C1.35438 7.70615 3.78703 6.47742 5.46237 6.0903C8.61419 5.36177 10.6995 5.52591 12.9073 5.69977C13.3125 5.73163 13.7317 5.7647 14.158 5.79193C16.5413 5.94537 17.8078 5.30803 19.1482 4.63348C19.5893 4.41171 20.045 4.1824 20.5539 3.97571C21.8088 3.46652 22.9285 3.56792 23.3352 3.6309C23.4239 3.9368 23.3775 4.36283 23.3195 4.66144C21.3433 4.50436 20.7114 5.15167 20.6431 5.22924C20.5913 5.28809 20.5629 5.36298 20.5626 5.44055C20.5626 5.48287 20.5474 9.68433 20.5143 12.0161C20.4799 14.4261 20.5898 17.5537 20.591 17.5851C20.5943 17.6761 20.6364 17.7616 20.7072 17.821C20.7779 17.8803 20.8706 17.9083 20.9636 17.8978C21.7959 17.8037 22.9397 17.9875 23.3526 18.0624C23.4221 18.2696 23.392 18.5733 23.3344 18.8226C22.7957 18.7771 21.5923 18.7236 20.4029 18.9999C20.1522 19.058 19.8723 19.1336 19.5481 19.2211C17.9169 19.6615 15.4519 20.3271 12.9218 19.743C11.8963 19.5064 10.9977 19.4101 10.1996 19.4101H10.1991Z" fill="black"/>
<path d="M28.3323 63.6995C28.3323 63.6995 26.9281 62.5372 25.1862 62.2432C23.8428 62.0166 22.9267 62.5729 22.9267 62.5729C22.9267 62.5729 21.9342 61.7194 20.0338 62.0579C18.5294 62.3259 16.9931 63.8092 16.9931 63.8092C16.9931 63.8092 18.751 64.6129 22.6626 64.6129C26.5742 64.6129 28.332 63.6998 28.332 63.6998L28.3323 63.6995Z" fill="#C6FF00"/>
<path d="M28.4405 63.5749C28.0806 63.2192 27.6837 62.924 27.2506 62.6672C26.8177 62.4136 26.3547 62.1984 25.8608 62.0517C25.6131 61.9776 25.3644 61.9163 25.1005 61.8791C24.8376 61.8392 24.569 61.8271 24.3018 61.8438C24.0349 61.8601 23.7691 61.9024 23.5114 61.9754C23.3823 62.0114 23.2555 62.0554 23.1304 62.1057C23.0681 62.131 23.0055 62.1578 22.944 62.1882C22.8794 62.2215 22.8276 62.2475 22.7501 62.2954L23.1478 62.3277C23.1022 62.2886 23.0755 62.2686 23.0412 62.2429C23.008 62.2173 22.9759 62.1972 22.943 62.1743C22.8774 62.1313 22.8111 62.0904 22.7429 62.0554C22.6078 61.9812 22.4675 61.9219 22.326 61.8662C22.0421 61.7575 21.7453 61.6897 21.4473 61.6539C21.2983 61.6308 21.1488 61.6277 20.9995 61.6201C20.8507 61.6233 20.701 61.6184 20.5539 61.6342L20.3326 61.6522L20.1144 61.6855C19.9708 61.7028 19.8193 61.7439 19.671 61.7787C19.382 61.8647 19.1031 61.9708 18.8459 62.1052C18.5873 62.2373 18.3371 62.3788 18.1051 62.5427C17.8701 62.7025 17.6493 62.8788 17.4442 63.0704C17.2386 63.263 17.0463 63.4616 16.8761 63.6931C16.8215 63.7673 16.8389 63.8706 16.9149 63.9239C16.973 63.9645 17.0483 63.9643 17.1051 63.929L17.1113 63.9251C17.5658 63.6401 18.0106 63.3403 18.4637 63.0777C18.9122 62.8077 19.3857 62.586 19.8622 62.4581C19.9823 62.4345 20.0964 62.4031 20.2265 62.3905L20.4161 62.3649L20.6058 62.3504C20.7324 62.3365 20.8582 62.3426 20.9843 62.3394C21.1091 62.3479 21.2355 62.3472 21.3586 62.3652C21.606 62.3927 21.8497 62.4425 22.0822 62.5189C22.1971 62.5592 22.312 62.602 22.4187 62.6555C22.4732 62.6811 22.5246 62.7098 22.5759 62.7372C22.6001 62.7518 22.627 62.7657 22.6489 62.7808L22.706 62.818L22.7648 62.8561C22.8707 62.925 23.006 62.9186 23.104 62.8501C23.1311 62.8367 23.1889 62.8112 23.234 62.7927C23.2834 62.7735 23.3327 62.7533 23.3838 62.7358C23.4855 62.7003 23.5901 62.6689 23.6965 62.6446C23.9091 62.5945 24.1267 62.5617 24.3454 62.549C24.7838 62.5181 25.2224 62.5889 25.6699 62.6988C26.114 62.8112 26.5486 62.9782 26.9757 63.1693C27.1895 63.2649 27.4008 63.3683 27.6094 63.4787C27.8177 63.5866 28.0281 63.7055 28.2244 63.8239L28.2331 63.8293C28.3119 63.8767 28.4153 63.8531 28.4639 63.776C28.5053 63.7106 28.4938 63.6275 28.4405 63.5752V63.5749Z" fill="black"/>
<path d="M24.2898 63.7071C24.1226 63.4617 23.9434 63.2229 23.7528 62.9924C23.6576 62.8767 23.5592 62.7636 23.458 62.652C23.3551 62.5391 23.2559 62.4329 23.1373 62.3196C23.005 62.1926 22.7922 62.1946 22.6623 62.3237C22.5323 62.4528 22.5342 62.6602 22.6666 62.7872C22.6818 62.8018 22.6997 62.8156 22.7167 62.8268C22.8256 62.8971 22.9452 62.9839 23.0573 63.068C23.1709 63.1536 23.2833 63.2419 23.393 63.3333C23.6133 63.5157 23.8256 63.7088 24.0292 63.9113L24.0302 63.9123C24.095 63.977 24.2014 63.978 24.2674 63.9147C24.326 63.8588 24.3334 63.7713 24.2898 63.7071Z" fill="black"/>
<path d="M50.4312 23.4539C50.3392 21.8279 51.3264 20.4525 52.6361 20.382C53.9458 20.3114 55.0821 21.5724 55.1741 23.1984C55.2661 24.8244 54.279 26.1998 52.9692 26.2703C51.6595 26.3409 50.5232 25.0799 50.4312 23.4539Z" fill="black"/>
<path d="M51.387 22.7343C51.3534 22.1408 51.6119 21.6443 51.9642 21.6254C52.3165 21.6064 52.6294 22.0721 52.663 22.6656C52.6965 23.2591 52.4381 23.7556 52.0858 23.7746C51.7334 23.7936 51.4206 23.3278 51.387 22.7343Z" fill="white"/>
<g opacity="0.35">
<path d="M53.6064 24.5429C53.43 24.8583 53.4212 25.1856 53.5867 25.2739C53.7524 25.3621 54.0295 25.1778 54.206 24.8624C54.3824 24.547 54.3911 24.2197 54.2256 24.1315C54.0599 24.0432 53.7828 24.2275 53.6064 24.5429Z" fill="white"/>
</g>
<path d="M40.5917 24.3967C39.3918 24.2207 38.6052 22.8705 38.8347 21.3809C39.0642 19.8914 40.2229 18.8265 41.4227 19.0026C42.6226 19.1786 43.4092 20.5288 43.1797 22.0184C42.9502 23.5079 41.7915 24.5727 40.5917 24.3967Z" fill="black"/>
<path d="M41.6273 22.1732C41.3044 22.1259 41.1106 21.6467 41.1944 21.103C41.2782 20.5593 41.6078 20.1569 41.9306 20.2043C42.2534 20.2516 42.4472 20.7308 42.3635 21.2745C42.2797 21.8182 41.9501 22.2206 41.6273 22.1732Z" fill="white"/>
<g opacity="0.35">
<path d="M39.5773 22.9931C39.4429 22.6876 39.4639 22.3856 39.6243 22.3184C39.7847 22.2512 40.0236 22.4443 40.158 22.7497C40.2924 23.0551 40.2714 23.3572 40.111 23.4244C39.9507 23.4916 39.7117 23.2985 39.5773 22.9931Z" fill="white"/>
</g>
</g>
<defs>
<clipPath id="clip0_166_4584">
<rect width="69" height="66" fill="white" transform="matrix(-1 0 0 1 69 0)"/>
</clipPath>
</defs>
</svg>
