<svg width="119" height="133" viewBox="0 0 119 133" fill="none" xmlns="http://www.w3.org/2000/svg">
<g clip-path="url(#clip0_1_27320)">
<path d="M9.40021 89.8821C9.78533 92.1849 11.0489 94.3828 13.3199 95.3913C18.5407 97.7095 22.7778 93.3454 22.7778 93.3454L22.1754 83.6408C21.3601 84.3412 19.8295 83.7604 18.058 83.1581C15.9083 82.4252 13.4079 81.6621 11.4084 83.1199C9.68666 84.3769 8.94739 87.2014 9.39983 89.8821H9.40021Z" fill="black"/>
<path opacity="0.3" d="M14.7836 84.0545C12.6388 83.0055 10.4623 86.3032 11.3144 87.351C11.8831 88.051 12.5084 86.5617 13.9567 85.5898C14.8363 84.9994 15.2918 84.3026 14.7839 84.0541L14.7836 84.0545Z" fill="white"/>
<path opacity="0.2" d="M9.40311 89.882C9.78823 92.1848 11.0518 94.3827 13.3228 95.3912C18.5436 97.7094 22.7807 93.3453 22.7807 93.3453L22.1783 83.6407C21.363 84.3411 19.8324 83.7602 18.0609 83.158C17.4846 84.0116 16.6891 87.0067 16.8589 90.3501C17.0111 93.3457 11.9839 93.6879 9.40234 89.882H9.40311Z" fill="black"/>
<path d="M22.779 93.3452C22.779 93.3452 18.5408 97.7073 13.3215 95.3899C8.40632 93.2074 8.20745 85.4531 11.4085 83.1202C15.0559 80.4621 20.3677 85.1903 22.1759 83.6407" stroke="black" stroke-linecap="round" stroke-linejoin="round"/>
<path d="M27.3768 52.592C28.8898 67.4444 16.6668 72.8877 16.1402 85.321C15.7547 94.4208 20.2285 101.491 29.024 103.577C32.0572 104.296 34.4685 104.624 39.0146 104.042C54.8938 102.012 54.8938 58.9929 54.8938 58.9929C54.8938 58.9929 27.176 46.0308 27.3768 52.592Z" fill="white"/>
<path d="M54.8941 58.9933C54.8941 58.9933 54.8941 66.8533 53.6542 76.0111C51.9929 88.2797 48.1072 102.879 39.0146 104.042C34.4685 104.624 32.0575 104.296 29.0236 103.576C20.2288 101.49 15.755 94.4209 16.1401 85.3206C16.3417 80.5682 18.2516 76.8373 20.4503 73.2113C24.0032 67.3512 28.3118 61.7678 27.3775 52.5925C27.176 46.0308 54.8945 58.9929 54.8945 58.9929L54.8941 58.9933Z" fill="white"/>
<path d="M54.8941 58.9933C54.8941 58.9933 54.8941 66.8533 53.6542 76.0111C51.9929 88.2797 48.1072 102.879 39.0146 104.042C34.4685 104.624 32.0575 104.296 29.0236 103.576C20.2288 101.49 15.755 94.4209 16.1401 85.3206C16.3417 80.5682 18.2516 76.8373 20.4503 73.2113C24.0032 67.3512 28.3118 61.7678 27.3775 52.5925C27.176 46.0308 54.8945 58.9929 54.8945 58.9929L54.8941 58.9933Z" fill="white"/>
<path d="M54.8944 58.994C54.8944 58.994 54.8944 66.854 53.6545 76.0118C51.9932 88.2803 48.1075 102.88 39.0149 104.042C35.0118 104.555 32.6643 104.363 30.0878 103.817C29.7386 103.744 29.3864 103.662 29.0238 103.577C21.9719 101.905 17.6981 97.0276 16.4804 90.4691C16.1779 88.8489 16.0635 87.1242 16.1404 85.3213C16.3419 80.5689 18.2519 76.838 20.4506 73.212C24.0035 67.3518 28.3121 61.7685 27.3778 52.5932C27.1762 46.0315 54.8948 58.994 54.8948 58.994H54.8944Z" fill="white"/>
<path opacity="0.2" d="M30.0918 103.817C29.7426 103.744 29.3904 103.662 29.0278 103.577C21.9759 101.905 17.7021 97.0277 16.4844 90.4692C18.278 93.8595 21.4022 98.1196 26.4241 100.304C29.6719 101.717 30.4138 102.899 30.0914 103.817H30.0918Z" fill="black"/>
<path opacity="0.2" d="M30.687 96.3329C30.687 96.3329 28.3292 94.0448 29.0819 90.7884C29.8341 87.532 33.7083 87.4347 34.5661 84.3657C35.653 80.4776 32.1766 79.5839 30.8958 77.6317C38.1206 75.5485 42.9769 75.7387 42.9769 75.7387L41.5722 95.4014L30.6866 96.3333L30.687 96.3329Z" fill="black"/>
<path d="M42.9799 75.7387L42.6938 79.7443C38.8457 80.2068 35.2851 79.7896 32.1819 78.9741C31.6867 78.5508 31.222 78.1256 30.8984 77.6321C38.1236 75.5481 42.9799 75.7387 42.9799 75.7387Z" fill="#656572"/>
<path d="M54.8974 58.9934C54.8974 58.9934 54.8974 66.8534 53.6575 76.0112C37.2976 85.4239 22.9845 75.2037 20.4531 73.2118C24.006 67.3516 28.3147 61.7683 27.3804 52.593C27.1788 46.0313 54.8974 58.9934 54.8974 58.9934Z" fill="#777782"/>
<path d="M54.8974 58.9944C54.8974 58.9944 54.8974 66.8543 53.6575 76.0122C37.2976 85.4249 22.9845 75.2046 20.4531 73.2127C21.2325 71.9283 22.0483 70.6566 22.8369 69.3572C25.6437 64.7314 28.1101 59.7571 27.3804 52.5939C27.2737 49.1148 35.0178 51.1253 42.3149 53.7814C48.7813 56.1342 54.8974 58.9948 54.8974 58.9948V58.9944Z" fill="black"/>
<path opacity="0.2" d="M39.2263 64.8028C33.5199 68.6071 27.0095 69.3507 22.832 69.3567C25.6388 64.7309 28.1052 59.7566 27.3755 52.5934C27.2688 49.1143 35.0129 51.1248 42.31 53.7809C42.65 57.8274 42.2905 62.7625 39.2263 64.8028Z" fill="black"/>
<path d="M33.2161 67.7258C31.6947 68.2383 30.1928 68.5976 28.7617 68.8474L28.4336 67.343C30.0708 67.5602 31.6706 67.6773 33.2161 67.7258Z" fill="#656572"/>
<path d="M32.6968 53.9672C32.6968 53.9672 29.2858 61.157 30.038 64.646C30.7903 68.1351 38.035 78.3419 38.035 78.3419L51.8811 72.874C51.8811 72.874 52.6616 60.7742 52.5614 60.3145C52.4612 59.8547 32.6968 53.9668 32.6968 53.9668V53.9672Z" fill="#656572"/>
<path d="M42.9799 75.7387L42.6938 79.7443C38.8457 80.2068 35.2851 79.7896 32.1819 78.9741C31.6867 78.5508 31.222 78.1256 30.8984 77.6321C38.1236 75.5481 42.9799 75.7387 42.9799 75.7387Z" fill="#656572"/>
<path d="M27.3768 52.592C28.8898 67.4444 16.6668 72.8877 16.1402 85.321C15.7547 94.4208 20.2285 101.491 29.024 103.577C32.0572 104.296 34.4685 104.624 39.0146 104.042C54.8938 102.012 54.8938 58.9929 54.8938 58.9929C54.8938 58.9929 27.176 46.0308 27.3768 52.592Z" stroke="black" stroke-linecap="round" stroke-linejoin="round"/>
<path d="M48.9163 111.655L35.1513 131.533L32.1992 107.245L56.1491 9.41623C56.5465 7.79318 57.7409 6.50919 59.2902 6.04348C60.8823 5.56467 63.1383 5.28317 65.882 6.00735C68.7752 6.77083 70.6591 8.32401 71.8069 9.65365C72.8196 10.8273 73.2043 12.4455 72.8303 13.9725L48.9159 111.655H48.9163Z" fill="#FFF2DC"/>
<path d="M72.8314 13.9725L49.6395 108.708L48.9171 111.656L35.1517 131.534L33.0781 114.472L32.1992 107.245L56.1495 9.41704C56.5469 7.794 57.7416 6.50961 59.2902 6.0439C60.8823 5.56429 63.1383 5.2832 65.8831 6.00777C68.7756 6.77006 70.6599 8.32324 71.808 9.65407C72.8207 10.8273 73.2047 12.446 72.8314 13.9721V13.9725Z" fill="#FFF2DC"/>
<path d="M49.6396 108.708L48.9171 111.656L35.1517 131.534L33.0781 114.472C33.8201 115.641 36.0788 118.419 40.1496 117.087C45.0059 115.497 46.8599 108.164 46.8599 108.164C46.8599 108.164 48.1962 108.396 49.6396 108.707V108.708Z" fill="#FFD79C"/>
<path d="M48.9163 111.655L35.1513 131.533L32.1992 107.245L56.1491 9.41623C56.5465 7.79318 57.7409 6.50919 59.2902 6.04348C60.8823 5.56467 63.1383 5.28317 65.882 6.00735C68.7752 6.77083 70.6591 8.32401 71.8069 9.65365C72.8196 10.8273 73.2043 12.4455 72.8303 13.9725L48.9159 111.655H48.9163Z" stroke="black" stroke-linecap="round" stroke-linejoin="round"/>
<path d="M40.7 123.52L35.1511 131.534L33.9609 121.742C34.2952 122.086 34.5036 122.518 34.5036 122.518L36.0411 122.064L37.185 123.225L38.7224 122.772L39.8659 123.933C39.8659 123.933 40.248 123.657 40.6996 123.52H40.7Z" fill="black"/>
<path d="M67.4944 35.7768L61.6598 23.2618L50.7773 31.3659L56.1511 9.41623C56.5485 7.79318 57.7428 6.50919 59.2921 6.04348C60.8842 5.56467 63.1403 5.28317 65.884 6.00735C68.7772 6.77083 70.6611 8.32401 71.8088 9.65365C72.8215 10.8273 73.2063 12.4455 72.8322 13.9725L67.4941 35.7768H67.4944Z" fill="#FF78A9"/>
<path d="M72.8334 13.9725L67.4956 35.7773L61.661 23.2618L50.7773 31.3655L54.624 15.6535L56.1515 9.41704C56.5488 7.794 57.7436 6.50961 59.2921 6.0439C60.8842 5.56429 63.1403 5.2832 65.8851 6.00777C68.0084 6.56718 69.5872 7.553 70.7322 8.56542C71.1476 8.9295 71.5044 9.29952 71.8096 9.65447C72.8223 10.8277 73.2063 12.4464 72.833 13.9725H72.8334Z" fill="#FF78A9"/>
<path opacity="0.4" d="M60.13 13.404C59.4772 14.0818 57.1328 14.2632 57.1328 12.8311C57.1328 11.972 57.6093 9.01649 58.4182 8.32646C59.1732 7.68248 61.1714 6.85547 61.1584 8.83426C61.1512 9.95824 60.6192 12.8962 60.13 13.404Z" fill="white"/>
<path opacity="0.4" d="M63.2275 13.2554C62.7387 14.0681 61.4062 14.263 61.4062 12.8309C61.4062 11.9718 61.7749 8.64311 62.6228 7.96181C63.2749 7.43773 64.4383 7.47346 64.3002 9.32242C64.2165 10.4432 63.795 12.3116 63.2275 13.2558V13.2554Z" fill="white"/>
<path d="M72.8334 13.9726L67.4956 35.7774L61.661 23.2619L50.7773 31.3656L54.624 15.6536C56.5894 15.5973 61.0605 15.6818 65.6338 17.2473C69.0001 18.4003 70.3639 11.0997 70.7326 8.56592C71.1479 8.92999 71.5048 9.30002 71.81 9.65496C72.8227 10.8282 73.2066 12.4469 72.8334 13.973V13.9726Z" fill="#EA3F8D"/>
<path d="M67.4944 35.7768L61.6598 23.2618L50.7773 31.3659L56.1511 9.41623C56.5485 7.79318 57.7428 6.50919 59.2921 6.04348C60.8842 5.56467 63.1403 5.28317 65.884 6.00735C68.7772 6.77083 70.6611 8.32401 71.8088 9.65365C72.8215 10.8273 73.2063 12.4455 72.8322 13.9725L67.4941 35.7768H67.4944Z" stroke="black" stroke-linecap="round" stroke-linejoin="round"/>
<path d="M70.4904 23.5325L68.0023 33.6964C68.0023 33.6964 65.0524 31.6537 59.9346 30.3034C54.8167 28.9531 51.2852 29.2858 51.2852 29.2858L53.7734 19.122C53.7734 19.122 57.3049 18.7892 62.4228 20.1395C67.5406 21.4898 70.4904 23.5325 70.4904 23.5325Z" fill="white" stroke="#232333" stroke-linecap="round" stroke-linejoin="round"/>
<path d="M56.2348 20.9565L35.6118 105.196C35.6118 105.196 34.9318 107.966 32.1992 107.245L52.2367 25.3965C52.2367 25.3965 53.1791 21.2309 56.2348 20.9565Z" fill="#FCA322" stroke="black" stroke-linecap="round" stroke-linejoin="round"/>
<path d="M67.3578 24.4411L46.861 108.164C46.861 108.164 45.3079 110.702 43.3712 110.192C41.433 109.681 41.2372 106.68 41.2372 106.68C41.2372 106.68 39.6856 109.22 37.7473 108.708C35.8091 108.197 35.6133 105.196 35.6133 105.196L56.1296 21.3931C57.8135 21.2431 59.7835 21.3415 61.9868 21.9244C64.1916 22.5056 65.9596 23.4271 67.3578 24.4411Z" fill="#FFC248"/>
<path d="M67.3578 24.4411L59.3245 57.2538L54.2575 77.9493L46.861 108.164C46.861 108.164 45.3079 110.702 43.3712 110.192C41.433 109.681 41.2372 106.68 41.2372 106.68C41.2372 106.68 39.6856 109.22 37.7473 108.708C35.8091 108.197 35.6133 105.196 35.6133 105.196L41.3874 81.6114L50.137 45.8726L56.1296 21.3931C57.8135 21.2431 59.7835 21.3415 61.9868 21.9244C64.1916 22.5056 65.9596 23.4271 67.3578 24.4411Z" fill="#FFC248"/>
<path d="M67.3578 24.4413L59.3245 57.254L54.2575 77.9494L53.171 82.3846L46.861 108.164C46.861 108.164 45.3079 110.702 43.3712 110.192C41.433 109.681 41.2372 106.679 41.2372 106.679C41.2372 106.679 39.6856 109.22 37.7473 108.708C35.8091 108.197 35.6133 105.195 35.6133 105.195L39.4148 89.6665L41.3878 81.6112L50.1374 45.8724L56.13 21.3929C57.8139 21.2428 59.7839 21.3413 61.9871 21.9241C64.1919 22.5054 65.96 23.4269 67.3582 24.4409L67.3578 24.4413Z" fill="#FFC248"/>
<path d="M53.171 82.3848L46.861 108.164C46.861 108.164 45.3079 110.702 43.3712 110.192C41.433 109.681 41.2372 106.68 41.2372 106.68C41.2372 106.68 39.6856 109.22 37.7473 108.708C35.8091 108.197 35.6133 105.196 35.6133 105.196L39.4148 89.6666C41.0356 90.3086 44.2757 91.2135 47.4737 89.887C48.992 89.2573 47.0281 83.255 53.1714 82.3848H53.171Z" fill="#FCA322"/>
<path d="M59.3238 57.2538L54.2568 77.9493C50.3275 81.3677 44.6314 81.7254 41.3867 81.6114L50.1363 45.8726L51.2859 45.3101L59.3238 57.2538Z" fill="#FCA322"/>
<path d="M61.9871 21.9237L41.2375 106.68C41.2375 106.68 39.6863 109.22 37.7473 108.708C35.8083 108.196 35.6133 105.196 35.6133 105.196L56.1296 21.3933C57.8135 21.2428 59.7831 21.342 61.9871 21.9237Z" stroke="black" stroke-linecap="round" stroke-linejoin="round"/>
<path d="M67.3586 24.4416L46.8622 108.164C46.8622 108.164 45.3083 110.703 43.3712 110.192C41.4337 109.681 41.2383 106.68 41.2383 106.68L61.9879 21.9241C64.1919 22.5057 65.96 23.4276 67.359 24.4416H67.3586Z" stroke="black" stroke-linecap="round" stroke-linejoin="round"/>
<path d="M69.0858 29.2749L48.9179 111.655C46.1815 110.933 46.8596 108.163 46.8596 108.163L67.4845 23.9246C70.0225 25.7644 69.0858 29.2749 69.0858 29.2749Z" fill="#FCA322" stroke="black" stroke-linecap="round" stroke-linejoin="round"/>
<path d="M70.4904 23.5325L68.0023 33.6964C68.0023 33.6964 65.0524 31.6537 59.9346 30.3034C54.8167 28.9531 51.2852 29.2858 51.2852 29.2858L53.7734 19.122C53.7734 19.122 57.3049 18.7892 62.4228 20.1395C67.5406 21.4898 70.4904 23.5325 70.4904 23.5325Z" fill="#EDEBEB"/>
<path d="M70.4907 23.5321L68.0032 33.6964C68.0032 33.6964 66.9316 32.9543 64.9605 32.0686L66.8001 24.5354C66.8001 24.5354 60.4293 20.957 53.1953 21.4874L53.7747 19.1219C53.7747 19.1219 57.3066 18.7892 62.4234 20.1407C67.5416 21.4906 70.491 23.5325 70.491 23.5325L70.4907 23.5321Z" fill="#C6C6C6"/>
<path d="M70.4904 23.5325L68.0023 33.6964C68.0023 33.6964 65.0524 31.6537 59.9346 30.3034C54.8167 28.9531 51.2852 29.2858 51.2852 29.2858L53.7734 19.122C53.7734 19.122 57.3049 18.7892 62.4228 20.1395C67.5406 21.4898 70.4904 23.5325 70.4904 23.5325Z" stroke="black" stroke-linecap="round" stroke-linejoin="round"/>
<path d="M59.6759 31.3685C54.558 30.0182 51.0265 30.3509 51.0265 30.3509C51.0265 30.3509 50.5133 29.5958 50.7355 28.6882C50.9799 27.6901 51.749 27.3991 51.749 27.3991C51.749 27.3991 55.2805 27.0663 60.3984 28.4166C65.5163 29.7669 68.4661 31.8096 68.4661 31.8096C68.4661 31.8096 69.008 32.4465 68.7636 33.445C68.5414 34.3526 67.7432 34.7619 67.7432 34.7619C67.7432 34.7619 64.7934 32.7192 59.6755 31.3689L59.6759 31.3685Z" fill="#EDEBEB"/>
<path d="M68.7643 33.4446C68.5417 34.3522 67.744 34.7616 67.744 34.7616C67.744 34.7616 64.793 32.7181 59.6763 31.3682C54.558 30.0183 51.0261 30.351 51.0261 30.351C51.0261 30.351 50.5129 29.5947 50.7358 28.6871C50.784 28.487 51.783 29.0158 55.3011 29.4823C61.4711 30.3006 66.5779 32.616 66.5779 32.616C66.5779 32.616 67.3757 32.2067 67.5982 31.3007C67.5998 31.2943 67.6013 31.2868 67.6028 31.2804C68.17 31.604 68.4668 31.8085 68.4668 31.8085C68.4668 31.8085 69.0087 32.4457 68.7647 33.4442L68.7643 33.4446Z" fill="#C6C6C6"/>
<path d="M59.6759 31.3685C54.558 30.0182 51.0265 30.3509 51.0265 30.3509C51.0265 30.3509 50.5133 29.5958 50.7355 28.6882C50.9799 27.6901 51.749 27.3991 51.749 27.3991C51.749 27.3991 55.2805 27.0663 60.3984 28.4166C65.5163 29.7669 68.4661 31.8096 68.4661 31.8096C68.4661 31.8096 69.008 32.4465 68.7636 33.445C68.5414 34.3526 67.7432 34.7619 67.7432 34.7619C67.7432 34.7619 64.7934 32.7192 59.6755 31.3689L59.6759 31.3685Z" stroke="black" stroke-linecap="round" stroke-linejoin="round"/>
<path d="M62.1525 21.253C57.0346 19.9028 53.5031 20.2355 53.5031 20.2355C53.5031 20.2355 52.9898 19.4803 53.212 18.5727C53.4564 17.5746 54.2255 17.2836 54.2255 17.2836C54.2255 17.2836 57.757 16.9509 62.8749 18.3012C67.9928 19.6514 70.9426 21.6941 70.9426 21.6941C70.9426 21.6941 71.4845 22.331 71.2402 23.3295C71.018 24.2371 70.2198 24.6464 70.2198 24.6464C70.2198 24.6464 67.27 22.6037 62.1521 21.2534L62.1525 21.253Z" fill="#EDEBEB"/>
<path d="M71.2384 23.3287C71.0173 24.2363 70.218 24.6456 70.218 24.6456C70.218 24.6456 67.2686 22.6021 62.1503 21.2522C57.0336 19.9023 53.5017 20.235 53.5017 20.235C53.5017 20.235 53.193 19.7789 53.1602 19.1508C61.3739 18.4961 69.3965 22.7847 69.3965 22.7847C69.3965 22.7847 69.9006 22.6097 69.9442 21.0883C70.5989 21.4555 70.942 21.6929 70.942 21.6929C70.942 21.6929 71.4839 22.3302 71.2384 23.3287Z" fill="#C6C6C6"/>
<path d="M62.1525 21.253C57.0346 19.9028 53.5031 20.2355 53.5031 20.2355C53.5031 20.2355 52.9898 19.4803 53.212 18.5727C53.4564 17.5746 54.2255 17.2836 54.2255 17.2836C54.2255 17.2836 57.757 16.9509 62.8749 18.3012C67.9928 19.6514 70.9426 21.6941 70.9426 21.6941C70.9426 21.6941 71.4845 22.331 71.2402 23.3295C71.018 24.2371 70.2198 24.6464 70.2198 24.6464C70.2198 24.6464 67.27 22.6037 62.1521 21.2534L62.1525 21.253Z" stroke="black" stroke-linecap="round" stroke-linejoin="round"/>
<path d="M28.7499 103.509C28.7499 103.509 37.7963 107.079 47.7541 102.965C52.2268 101.117 54.4759 97.1064 52.574 93.6285C51.6103 91.8661 49.5978 91.4694 48.0302 91.4595C46.3325 91.4488 44.4245 91.951 42.5383 91.5476C38.827 90.754 38.3172 87.4837 33.6081 87.733C25.7324 88.1495 23.3938 99.489 28.7503 103.51L28.7499 103.509Z" fill="#777782"/>
<path d="M53.1876 97.0387C52.8113 99.4495 50.7977 101.709 47.7535 102.966C37.7969 107.08 28.7497 103.509 28.7497 103.509C27.558 102.616 26.7468 101.358 26.2936 99.9398C24.7092 94.9841 27.4842 88.0572 33.6075 87.7336C38.3178 87.4835 38.8279 90.7534 42.5392 91.547C44.4246 91.9516 46.3331 91.4486 48.0307 91.4597C49.5972 91.4692 51.6108 91.8658 52.5742 93.6282C53.1823 94.7407 53.3658 95.906 53.188 97.0387H53.1876Z" fill="#777782"/>
<path d="M53.1876 97.039C52.8113 99.4498 50.7977 101.709 47.7534 102.966C37.7968 107.08 28.7497 103.51 28.7497 103.51C27.558 102.616 26.7468 101.359 26.2936 99.9401C25.0564 96.0703 26.4772 90.9975 30.0768 88.8075C30.0768 88.8075 30.0773 88.8075 30.0783 88.8075C31.0864 88.1921 32.2663 87.8046 33.6071 87.7343C38.3173 87.4842 38.8275 90.7541 42.5388 91.5478C44.4242 91.9523 46.3326 91.4493 48.0303 91.4604C48.1252 91.4604 48.2215 91.4636 48.3206 91.4668H48.3221C49.8374 91.5231 51.6689 91.9746 52.5734 93.629C53.1815 94.7414 53.3651 95.9067 53.1872 97.0394L53.1876 97.039Z" fill="black"/>
<path opacity="0.3" d="M48.3204 91.4659C39.9697 93.5999 39.4431 90.9708 36.4604 89.3569C34.5986 88.3492 31.5964 88.5946 30.0781 88.807C31.0863 88.1916 32.2661 87.8041 33.607 87.7338C38.3172 87.4837 38.8273 90.7536 42.5386 91.5473C44.4241 91.9518 46.3325 91.4488 48.0301 91.4599C48.125 91.4599 48.2214 91.4631 48.3204 91.4663V91.4659Z" fill="white"/>
<path opacity="0.2" d="M53.1869 97.0388C52.8106 99.4496 50.797 101.709 47.7528 102.966C37.7962 107.08 28.749 103.51 28.749 103.51C27.5573 102.616 26.7462 101.358 26.293 99.9399C36.2148 104.58 49.2202 103.078 53.1869 97.0388Z" fill="black"/>
<path d="M28.7499 103.509C28.7499 103.509 37.7963 107.079 47.7541 102.965C52.2268 101.117 54.4759 97.1064 52.574 93.6285C51.6103 91.8661 49.5978 91.4694 48.0302 91.4595C46.3325 91.4488 44.4245 91.951 42.5383 91.5476C38.827 90.754 38.3172 87.4837 33.6081 87.733C25.7324 88.1495 23.3934 99.4886 28.7499 103.509Z" stroke="black" stroke-linecap="round" stroke-linejoin="round"/>
<path d="M30.6912 77.6917C30.6912 77.6917 37.078 80.7202 46.1772 78.8478C52.5353 77.5396 54.3458 74.0934 54.2284 71.3293C54.1156 68.6736 52.4225 67.3066 49.6506 67.0565C45.4559 66.6785 37.524 68.5501 28.4336 67.3424L30.6908 77.6917H30.6912Z" fill="#777782"/>
<path d="M46.1764 78.8475C37.0776 80.7207 30.6908 77.6914 30.6908 77.6914L28.4336 67.3429C37.5232 68.5506 45.4555 66.679 49.6513 67.057C51.1245 67.1896 52.294 67.6398 53.0811 68.4303C53.7764 69.1255 54.1753 70.0863 54.2277 71.3298C54.3466 74.0935 52.5346 77.5397 46.1764 78.8475Z" fill="#777782"/>
<path d="M46.1764 78.8475C37.0776 80.7207 30.6908 77.6914 30.6908 77.6914L28.4336 67.3429C37.5232 68.5506 45.4555 66.679 49.6513 67.057C51.1245 67.1896 52.294 67.6398 53.0811 68.4303C53.7764 69.1255 54.1753 70.0863 54.2277 71.3298C54.3466 74.0935 52.5346 77.5397 46.1764 78.8475Z" fill="black"/>
<path opacity="0.2" d="M33.2161 67.7258C31.6947 68.2383 30.1928 68.5976 28.7617 68.8474L28.4336 67.343C30.0708 67.5602 31.6706 67.6773 33.2161 67.7258Z" fill="black"/>
<path opacity="0.3" d="M54.0687 72.9358C54.0702 72.8266 54.0687 72.7186 54.0641 72.611C54.0113 71.3675 53.6128 70.4067 52.9175 69.7115C52.1304 68.9211 50.9613 68.4712 49.4877 68.3382C45.8415 68.0103 36.3048 69.8676 29.5898 67.4807C38.1903 68.3946 45.6292 66.6949 49.6457 67.0574C51.1189 67.19 52.2884 67.6403 53.0755 68.4307C53.7708 69.1259 54.1696 70.0867 54.222 71.3302C54.2446 71.8472 54.1995 72.3895 54.0687 72.9362V72.9358Z" fill="white"/>
<path opacity="0.2" d="M46.177 78.8474C37.0783 80.7205 30.6914 77.6912 30.6914 77.6912C30.6914 77.6912 39.1083 79.8205 47.4728 77.0663C54.0221 74.9105 53.6232 70.4094 53.0817 68.4302C53.777 69.1254 54.1759 70.0862 54.2283 71.3297C54.3472 74.0934 52.5352 77.5396 46.177 78.8474Z" fill="black"/>
<path d="M30.688 77.6918C32.936 78.1996 35.2131 78.5267 37.4989 78.7093C39.763 78.9019 42.0474 78.8241 44.2939 78.4783C46.4788 78.14 48.7126 77.6139 50.6027 76.3907C52.3837 75.2532 53.6837 73.365 53.4661 71.1233C53.2048 67.9142 50.0256 67.7014 47.5531 67.7994C45.829 67.8606 44.1126 68.0301 42.3809 68.1611C38.3147 68.4879 34.177 68.6407 30.1032 68.1901C29.5188 68.1266 28.9352 68.0519 28.3539 67.9626C28.025 67.9122 27.7978 67.5942 27.8464 67.2527C27.8938 66.9192 28.1868 66.6866 28.5065 66.7227C30.7851 66.98 33.0767 67.0713 35.3691 67.0328C38.8168 66.9931 42.2998 66.6064 45.741 66.3396C47.5424 66.2288 49.3961 66.0708 51.1764 66.5329C52.4633 66.8593 53.7625 67.6895 54.392 68.9615C55.0222 70.2038 55.1048 71.6697 54.8096 73.0207C53.8955 77.0271 49.7907 78.8908 46.2306 79.5514C41.4278 80.4872 34.9243 80.4837 30.688 77.6922V77.6918Z" fill="black"/>
<path d="M43.0977 21.5126C43.3791 18.5055 46.5538 13.9274 51.4162 14.0771C56.5605 14.2355 59.9104 19.03 58.3806 24.1207C57.2876 27.7578 53.9836 29.6477 50.9049 30.3016L43.0977 21.513V21.5126Z" fill="black"/>
<path d="M44.3793 21.1103C44.634 19.9335 45.3648 18.5904 46.3351 17.5545C47.2889 16.5366 48.9044 15.3232 51.1853 15.3232C51.2503 15.3232 51.3157 15.324 51.3815 15.326C53.4731 15.3903 55.3188 16.3682 56.4455 18.0087C57.5557 19.6254 57.8425 21.7174 57.2321 23.7482C56.2271 27.0931 53.127 28.4192 51.3149 28.9179L44.3789 21.1103H44.3793Z" fill="black"/>
<path opacity="0.2" d="M57.2322 23.7474C56.2267 27.0924 53.1266 28.4185 51.3149 28.9171L44.3789 21.1104C44.585 20.1575 51.9785 25.116 51.9785 25.116C53.5993 24.6709 56.2493 23.5632 57.5106 20.9417C57.6039 21.854 57.5136 22.8069 57.2322 23.7474Z" fill="black"/>
<path opacity="0.3" d="M56.8367 18.6637C55.6056 17.3499 53.872 16.5813 51.9487 16.5217C51.8764 16.5201 51.8056 16.5185 51.7349 16.5185C49.2486 16.5185 47.4897 17.8402 46.4495 18.9495C45.7377 19.7102 45.1446 20.621 44.7491 21.5274L44.3789 21.1102C44.6332 19.9338 45.3645 18.5902 46.334 17.5544C47.2882 16.5356 48.9044 15.3235 51.1841 15.3235C51.2503 15.3235 51.3149 15.3235 51.3811 15.3251C53.4731 15.3906 55.318 16.3689 56.4451 18.009C56.5896 18.2198 56.7204 18.4386 56.8363 18.6637H56.8367Z" fill="white"/>
<path d="M42.7998 21.4822C42.6878 19.802 43.4653 18.2048 44.4474 16.9212C45.4421 15.6209 46.7601 14.5577 48.2623 13.9613C50.3436 13.126 52.7388 13.2522 54.762 14.2083C58.6862 16.0687 60.3174 20.714 58.806 24.8434C57.885 27.4003 55.663 29.2322 53.2192 30.0715C52.4887 30.3288 51.7311 30.5106 50.9662 30.6071C50.8006 30.6277 50.6503 30.5051 50.6304 30.3331C50.6124 30.1787 50.7061 30.0366 50.8457 29.9949C51.372 29.8325 51.8875 29.6503 52.3927 29.4323C54.4923 28.5485 56.4593 27.0323 57.4276 24.8637C58.8044 21.8209 58.1967 18.2778 55.5697 16.2037C54.1979 15.1218 52.4279 14.641 50.7184 14.7594C48.634 14.8943 46.7184 16.0731 45.3989 17.7259C44.5117 18.8591 43.8389 20.1494 43.3984 21.5426C43.3001 21.8757 42.8342 21.8296 42.7991 21.4822H42.7998Z" fill="black"/>
<path d="M40.0402 66.5996C29.3803 68.8388 9.74129 69.073 10.1696 49.0287C10.0339 40.1746 10.4102 33.0615 15.5422 26.5768C17.1825 24.5044 18.1788 23.2374 24.3997 20.3733C27.0236 19.2418 31.2447 16.6055 31.9274 13.1184C33.4568 13.3169 34.5762 15.4148 34.5081 17.2574C37.9627 14.8193 40.8353 16.5416 43.252 15.117C43.3067 17.5834 42.0454 18.2845 42.4274 18.9083C57.4881 22.622 58.5651 37.823 59.7002 41.7869C61.2005 44.0095 62.2358 47.3028 61.5478 51.3692C60.2785 58.8706 49.0296 65.3374 41.3638 66.2875" fill="white"/>
<path d="M61.5488 51.369C61.1259 53.8718 59.5911 56.2572 57.4509 58.3634C53.174 62.5707 46.4728 65.6544 41.3649 66.2873L40.0405 66.5997C32.9599 68.087 21.9167 68.6901 15.4262 63.0535C12.1441 60.204 10.0253 55.7593 10.1695 49.0289C10.0341 40.1756 10.4105 33.0624 15.5421 26.5774C17.1824 24.5041 18.1787 23.2372 24.4 20.3734C27.0232 19.2423 31.2442 16.6053 31.9276 13.1182C33.4567 13.3167 34.5761 15.4146 34.5084 17.2584C37.9623 14.8198 40.8348 16.5413 43.2519 15.118C43.3077 17.5831 42.0449 18.2847 42.4273 18.908C57.4884 22.6214 58.5658 37.8224 59.7005 41.7875C61.2008 44.0089 62.2361 47.3022 61.5485 51.369H61.5488Z" fill="white"/>
<path opacity="0.2" d="M57.4583 58.363C53.1814 62.5703 46.4802 65.654 41.3722 66.2869L40.0478 66.5994C32.9672 68.0866 21.9241 68.6897 15.4336 63.0531C25.2036 65.6183 44.8815 66.4807 57.4579 58.363H57.4583Z" fill="black"/>
<path d="M40.0467 66.5997C29.3451 69.683 13.5531 68.8901 10.1849 55.5285C9.62193 53.3568 9.45939 51.108 9.49572 48.8688C9.45595 46.4418 9.45174 44.0144 9.61466 41.5885C9.9428 36.2076 11.2959 31.0895 14.5478 26.7929C15.045 26.1402 15.53 25.5204 16.0772 24.9015C17.0073 23.8386 18.1761 22.9616 19.3544 22.2553C20.7098 21.4362 22.1382 20.7379 23.5659 20.0677C24.1468 19.7945 24.7932 19.5245 25.3558 19.2256C27.2248 18.237 29.0655 16.9661 30.3333 15.2216C30.8205 14.5387 31.1907 13.7831 31.3452 12.9934C31.408 12.6722 31.7002 12.4594 32.008 12.4991C32.288 12.5357 32.5587 12.6218 32.8047 12.7421C34.3597 13.5374 35.1666 15.5562 35.1261 17.2809L34.1704 16.7311C35.4913 15.7591 37.1642 15.2489 38.762 15.1739C40.218 15.052 41.6556 15.2648 42.9284 14.5125C43.3521 14.25 43.9208 14.5724 43.9269 15.0886C43.9101 16.0093 43.73 16.9494 43.3445 17.7844C43.2305 18.0591 43.0205 18.4101 42.959 18.6475C42.9613 18.6265 42.9471 18.58 42.9421 18.5717L42.5735 18.2993C49.1722 19.7965 54.243 23.997 57.1347 30.3328C58.671 33.5972 59.4673 37.1494 60.1821 40.6766C60.2501 40.9846 60.3209 41.2896 60.4008 41.5718L60.2998 41.3547C62.1218 44.06 62.7639 47.4725 62.3348 50.7118C61.5684 57.6328 53.7895 62.7533 47.964 64.8531C46.544 65.3669 45.0869 65.777 43.6034 66.0351C42.8634 66.1637 42.1176 66.2538 41.3711 66.2864C48.083 64.956 59.7526 58.7238 60.9179 51.085C61.3959 48.0231 60.8487 44.7632 59.1139 42.2158C59.0687 42.1491 59.0351 42.0741 59.0137 42.0002C58.9173 41.6616 58.842 41.3368 58.7697 41.0144C58.3016 38.8244 57.8614 36.6189 57.1783 34.4976C54.9777 27.3984 50.6002 22.1116 43.6122 19.8997C43.1689 19.7576 42.7222 19.6278 42.2721 19.5094C41.9306 19.4173 41.7826 19.0326 41.7661 18.6999C41.7631 18.3859 41.8468 18.181 41.9501 17.942C42.0541 17.7117 42.1665 17.4941 42.2583 17.275C42.5486 16.6012 42.6534 15.8683 42.5899 15.1322L43.5885 15.7198C43.2011 15.9437 42.783 16.1065 42.3658 16.2141C40.8421 16.5969 39.2867 16.3372 37.7657 16.5945C36.7198 16.7592 35.7373 17.1598 34.8584 17.782C34.4492 18.0833 33.8736 17.7435 33.9027 17.2321C33.9428 16.1176 33.5175 14.8821 32.701 14.1468C32.4547 13.9304 32.1694 13.7784 31.8592 13.7363L32.522 13.242C31.8994 16.1728 29.4468 18.2012 27.1005 19.6734C26.3172 20.1518 25.5007 20.5822 24.6631 20.9467C23.9992 21.2556 23.2336 21.6204 22.5807 21.9492C20.8635 22.8274 19.0978 23.7707 17.6869 25.1131C16.9094 25.8643 16.2451 26.7504 15.585 27.6203C12.5293 31.699 11.2825 36.5935 10.98 41.687C10.8178 44.1196 10.8232 46.5907 10.8534 49.0403C10.7215 53.732 11.8137 58.6238 15.19 61.9413C21.2601 67.9476 32.2279 67.618 40.0459 66.5989L40.0467 66.5997Z" fill="black"/>
<path d="M42.3535 19.5756C41.4196 19.3577 40.4684 19.2338 39.5123 19.1544C38.5386 19.075 37.5603 19.0631 36.582 19.1147C37.0566 18.9813 37.5359 18.853 38.0216 18.751C39.4619 18.4413 40.9343 18.2559 42.4082 18.2388C42.4522 18.2384 42.5057 18.2396 42.5539 18.2416C42.9153 18.2547 43.1983 18.5696 43.1857 18.9448C43.1769 19.3795 42.7539 19.6979 42.3535 19.5756Z" fill="black"/>
<path d="M32.7801 51.2868C33.9041 50.7524 36.0106 48.7129 35.2545 44.7474C34.2984 39.7321 28.4225 37.396 25.1228 39.9958C21.6486 42.7333 19.897 50.5015 23.2025 53.1521C25.7003 55.1547 29.0605 53.0556 32.7797 51.2868H32.7801Z" fill="black"/>
<path d="M49.3405 47.4761C47.1284 47.7048 44.2979 45.2372 44.8567 40.9144C45.5202 35.7813 47.6642 35.0491 51.1609 36.2104C55.2271 37.5607 58.1436 42.5684 56.6968 46.0011C55.6122 48.5747 53.7853 47.0163 49.3401 47.4761H49.3405Z" fill="black"/>
<path d="M18.1822 26.0756C17.6559 21.7012 12.4466 17.2112 6.91302 18.9907C1.88845 20.6062 -1.01049 26.8483 1.55151 32.228C3.38496 36.0779 8.95184 38.131 13.4421 36.5869C13.4421 36.5869 14.944 35.2366 16.7155 31.53C18.7172 27.3418 18.1822 26.0752 18.1822 26.0752V26.0756Z" fill="#777782"/>
<path d="M18.1822 26.0756C17.6559 21.7012 12.4466 17.2112 6.91302 18.9907C1.88845 20.6062 -1.01049 26.8483 1.55151 32.228C3.38496 36.0779 8.95184 38.131 13.4421 36.5869C13.4421 36.5869 14.944 35.2366 16.7155 31.53C18.7172 27.3418 18.1822 26.0752 18.1822 26.0752V26.0756Z" fill="black"/>
<path d="M10.266 35.8536C6.94216 35.8536 3.80266 34.1348 2.63084 31.6741C1.58638 29.4813 1.52557 27.03 2.45989 24.7721C3.38197 22.5428 5.1351 20.871 7.26953 20.1845C7.9782 19.9566 8.70523 19.8411 9.43073 19.8411C13.4315 19.8411 16.6245 23.2083 16.9879 26.2304L17.0097 26.4107L17.038 26.4782C17.0575 26.7021 17.0793 27.9579 15.6374 30.9749C14.3364 33.6969 13.2082 35.0512 12.8089 35.4835C12.0077 35.7293 11.154 35.8536 10.2671 35.8536H10.266Z" fill="black"/>
<path opacity="0.2" d="M15.6389 30.9747C14.337 33.6963 13.21 35.0506 12.8095 35.4833C12.0091 35.7287 11.1555 35.8538 10.2678 35.8538C7.03536 35.8538 3.97885 34.2291 2.73438 31.8779C4.46494 33.017 8.0672 34.1303 11.8419 33.0619C14.4078 32.3357 17.0688 27.3292 16.5456 28.8176C16.3387 29.4064 16.0477 30.1199 15.6389 30.9751V30.9747Z" fill="black"/>
<path opacity="0.3" d="M9.88262 21.2634C9.15712 21.2634 8.42895 21.379 7.72142 21.6073C5.58584 22.2929 3.83271 23.9664 2.91178 26.1941C2.22988 27.8438 1.94725 29.7757 1.85699 29.0051C1.6914 27.5905 1.89141 26.1457 2.46049 24.7724C3.38142 22.543 5.13456 20.87 7.27013 20.1839C7.97728 19.956 8.70584 19.8401 9.43134 19.8401C12.3299 19.8401 14.8051 21.6092 16.0863 23.7325C16.5135 24.4404 13.1246 21.263 9.88301 21.263L9.88262 21.2634Z" fill="white"/>
<path d="M18.1833 26.0756C17.797 25.2227 17.3622 24.4148 16.8348 23.6541C16.3319 22.9291 15.785 22.2323 15.1379 21.6404C12.8868 19.5607 9.76988 18.7298 6.89962 19.7394C2.13702 21.4085 -0.223433 27.2654 2.13626 31.9234C3.31151 34.2658 5.68191 35.7209 8.08482 36.3979C9.79512 36.8695 11.6267 36.9644 13.4433 36.5872C12.6053 37.0006 11.6859 37.2546 10.7478 37.3738C8.97477 37.5969 7.12947 37.3285 5.46698 36.6357C3.53639 35.8345 1.75381 34.3627 0.886808 32.3502C0.0683732 30.4953 -0.185953 28.3811 0.133771 26.3705C0.713177 22.644 3.37041 19.2999 6.9023 18.2541C10.1217 17.2508 13.5913 18.2879 15.9896 20.6831C16.5178 21.2128 17.0054 21.7928 17.3882 22.4455C18.0127 23.5199 18.4021 24.8194 18.1829 26.0756H18.1833Z" fill="black"/>
<path d="M22.9085 32.962C22.6672 32.605 24.14 28.7122 26.6496 29.3383C27.3178 29.505 27.8356 30.7505 27.3721 31.4572C26.5601 32.6948 23.1495 33.3193 22.9085 32.9624V32.962Z" fill="black"/>
<path d="M50.8017 29.2047C50.96 28.8835 49.0849 25.5632 46.8529 26.6558C46.1806 26.9849 45.9569 28.1482 46.7787 28.708C48.3529 29.78 50.6433 29.5259 50.8013 29.2047H50.8017Z" fill="black"/>
<path d="M29.9074 50.7608C32.046 50.7608 33.7797 48.6814 33.7797 46.1163C33.7797 43.5513 32.046 41.4719 29.9074 41.4719C27.7688 41.4719 26.0352 43.5513 26.0352 46.1163C26.0352 48.6814 27.7688 50.7608 29.9074 50.7608Z" fill="black"/>
<path d="M29.4899 47.1727C30.2578 46.996 30.7121 46.0647 30.5045 45.0926C30.2969 44.1204 29.5061 43.4757 28.7381 43.6524C27.9702 43.8291 27.5159 44.7605 27.7235 45.7326C27.9311 46.7047 28.722 47.3495 29.4899 47.1727Z" fill="white"/>
<g opacity="0.5">
<path d="M32.1914 48.0587C32.4181 47.4677 32.2897 46.8596 31.9047 46.7005C31.5196 46.5413 31.0238 46.8914 30.7971 47.4824C30.5705 48.0734 30.6988 48.6815 31.0839 48.8406C31.4689 48.9998 31.9647 48.6497 32.1914 48.0587Z" fill="white"/>
</g>
<path d="M51.2761 46.8907C53.2753 46.8907 54.8959 44.947 54.8959 42.5493C54.8959 40.1515 53.2753 38.2078 51.2761 38.2078C49.2769 38.2078 47.6562 40.1515 47.6562 42.5493C47.6562 44.947 49.2769 46.8907 51.2761 46.8907Z" fill="black"/>
<path d="M50.8892 43.5354C51.6071 43.3702 52.0316 42.4996 51.8376 41.5909C51.6435 40.6821 50.9043 40.0794 50.1865 40.2446C49.4686 40.4098 49.044 41.2804 49.2381 42.1891C49.4322 43.0979 50.1714 43.7006 50.8892 43.5354Z" fill="white"/>
<g opacity="0.5">
<path d="M53.4174 44.3657C53.6293 43.8132 53.5094 43.2448 53.1495 43.096C52.7896 42.9473 52.326 43.2745 52.1141 43.827C51.9022 44.3795 52.0222 44.948 52.3821 45.0967C52.742 45.2455 53.2055 44.9182 53.4174 44.3657Z" fill="white"/>
</g>
<path d="M37.8828 50.7624C37.8828 50.7624 39.0894 56.6729 42.4339 56.1012C45.3382 55.6049 44.3316 51.2372 45.451 50.1092C43.9924 49.1552 37.8828 50.762 37.8828 50.762V50.7624Z" fill="#232333"/>
<path d="M45.2693 50.2455C44.299 51.223 45.0054 54.7577 43.0553 55.7396C42.8633 55.8377 42.6442 55.9091 42.396 55.9524C40.8138 56.2216 39.7334 54.969 39.0484 53.6389C38.3535 52.2926 38.0625 50.8673 38.0625 50.8673C38.0625 50.8673 43.8807 49.3379 45.2693 50.2455Z" fill="black"/>
<path d="M43.0548 55.7397C42.8629 55.8377 42.6437 55.9092 42.3955 55.9525C40.9445 56.1994 39.9157 55.1664 39.2266 53.9677C39.7543 53.431 40.4034 53.4472 41.021 53.6978C42.1435 53.0534 43.4036 54.2675 43.0548 55.7397Z" fill="#FFA9A9"/>
<path d="M38.0625 50.8676C38.0625 50.8676 39.2118 56.4959 42.3964 55.9515C45.1622 55.4791 44.2034 51.3198 45.2693 50.2459C43.8803 49.3375 38.0625 50.8676 38.0625 50.8676Z" stroke="black" stroke-linejoin="round"/>
<path d="M36.9922 50.2527C37.4549 51.7888 38.5629 52.5364 39.5737 52.5876C41.2473 52.6729 41.8397 51.4652 42.2906 50.5584C42.5602 51.2321 43.2391 51.7769 44.2116 51.6665C46.2183 51.4386 45.8072 48.8611 45.8072 48.8611" fill="white"/>
<path d="M36.9945 50.2527C37.5671 51.0539 38.2811 51.7824 39.2364 51.9674C39.3688 51.9897 39.4984 52.0047 39.6292 51.9996C39.8503 51.9901 40.0813 51.9666 40.2943 51.9154C40.7693 51.8126 41.1414 51.5112 41.4083 51.0721C41.6906 50.6199 42.0501 49.748 42.2895 49.2557L42.7982 50.3408C42.8723 50.4992 42.9817 50.6378 43.1076 50.7462C43.5038 51.0733 44.0889 51.1762 44.5727 51.0019C45.3548 50.6946 45.5843 49.6365 45.8095 48.8611C46.3189 49.7592 46.2436 51.0638 45.4202 51.7574C45.0435 52.0774 44.5689 52.2211 44.0946 52.2719C43.4495 52.347 42.7691 52.1104 42.3128 51.6244C42.0799 51.3822 41.9028 51.0904 41.7874 50.7763L42.7786 50.8188C42.7056 50.9558 42.6299 51.0987 42.548 51.2428C42.1193 52.0309 41.4864 52.8206 40.5999 53.0823C39.8977 53.2939 39.1026 53.1923 38.465 52.8445C37.5544 52.3494 36.9532 51.3092 36.9942 50.2527H36.9945Z" fill="black"/>
<path d="M42.1553 48.372C42.5852 48.2886 42.3045 49.4309 42.8215 50.394C43.0086 50.7422 41.3943 51.2369 41.6681 50.5957C42.2949 49.1279 41.5449 48.4903 42.1553 48.3716V48.372Z" fill="black"/>
<path d="M39.319 47.266C39.4628 48.8251 41.7143 49.6001 42.1866 49.5632C42.6593 49.5262 44.8083 48.1926 44.523 46.8177C44.3398 45.9343 42.7909 45.8025 42.0799 45.8585C41.1636 45.9304 39.2353 46.3603 39.319 47.2664V47.266Z" fill="black"/>
<path opacity="0.5" d="M40.8711 46.9668C40.9101 47.421 41.6651 47.5468 42.2081 47.4892C42.7512 47.4317 43.4713 47.1494 43.4323 46.6952C43.4125 46.4621 42.1316 46.5979 42.1316 46.5979C42.1316 46.5979 40.8512 46.7337 40.8715 46.9668H40.8711Z" fill="white"/>
<path d="M35.0263 17.6657C34.8079 17.8753 34.5635 18.0488 34.3184 18.2179C33.7374 18.611 33.1198 18.9286 32.4715 19.1704C32.3599 19.2153 32.2038 19.2621 32.0898 19.303L32.2401 19.1656C32.7729 18.6749 33.2494 18.1076 33.641 17.4942C33.7703 17.2853 33.9042 17.0741 33.9967 16.8486C33.6678 15.6841 35.2508 15.1303 35.6672 16.2654C35.7755 16.5997 35.6871 16.9534 35.4672 17.1912L35.0266 17.6653L35.0263 17.6657Z" fill="black"/>
<path d="M20.4468 45.5925L9.75207 48.3273C8.50951 49.6224 9.03652 52.5222 9.93794 53.0467C10.7338 53.51 10.9239 50.9405 10.9239 50.9405L20.3653 49.1356" fill="#E2E2E2"/>
<path d="M20.4479 45.5935L20.3668 49.135L10.925 50.9411C10.925 50.9411 10.7353 53.5094 9.93944 53.0469C9.61131 52.8547 9.33288 52.3501 9.17188 51.722C9.25907 51.8296 9.35239 51.9158 9.4503 51.9721C10.2465 52.4363 10.1984 49.8254 10.1984 49.8254L19.2363 48.1785L19.932 45.7261L20.4483 45.5935H20.4479Z" fill="#C6C6C6"/>
<path d="M20.4451 45.5935L20.364 49.135L20.2979 49.1477L20.3579 46.5309L9.66243 49.2648C9.32971 49.6118 9.1251 50.074 9.01993 50.5738C9.00922 49.7397 9.21574 48.8849 9.75116 48.3274L20.4451 45.5935Z" fill="white"/>
<path d="M20.4468 45.5925L9.75207 48.3273C8.50951 49.6224 9.03652 52.5222 9.93794 53.0467C10.7338 53.51 10.9239 50.9405 10.9239 50.9405L20.3653 49.1356" stroke="#2468FF" stroke-miterlimit="10"/>
<path opacity="0.1" d="M37.2231 46.3993C37.2231 51.3522 33.3558 55.3681 28.5836 55.3681C23.8115 55.3681 19.9453 51.3518 19.9453 46.3993C19.9453 41.4468 23.8126 37.4316 28.5836 37.4316C33.3546 37.4316 37.2231 41.4464 37.2231 46.3993Z" fill="white"/>
<path opacity="0.1" d="M37.2231 46.399C37.2231 50.8251 34.1337 54.504 30.0687 55.2353C29.5856 55.3226 29.0904 55.3679 28.5832 55.3679C27.9438 55.3679 27.3208 55.296 26.7203 55.1587C26.1876 55.0368 25.6744 54.8649 25.1837 54.6461C23.3085 53.8119 21.7765 52.3088 20.8632 50.4265C20.2761 49.2156 19.9453 47.847 19.9453 46.399C19.9453 42.0433 22.9372 38.4128 26.9024 37.6017C27.4458 37.4894 28.0084 37.4314 28.5832 37.4314C30.0985 37.4314 31.5254 37.836 32.7638 38.5498C33.238 38.8202 33.6832 39.1374 34.097 39.4936C34.9609 40.2388 35.6818 41.1527 36.213 42.1886C36.8586 43.4432 37.2227 44.8772 37.2227 46.399H37.2231Z" fill="white"/>
<path opacity="0.5" d="M32.7639 38.5501L25.1838 54.6463C23.3086 53.8122 21.7766 52.309 20.8633 50.4267L26.9025 37.602C27.4459 37.4896 28.0085 37.4316 28.5833 37.4316C30.0986 37.4316 31.5255 37.8362 32.7639 38.5501Z" fill="white"/>
<path opacity="0.5" d="M36.2153 42.1892L30.071 55.2359C29.5879 55.3232 29.0927 55.3685 28.5856 55.3685C27.9461 55.3685 27.3231 55.2966 26.7227 55.1592L34.0997 39.4941C34.9636 40.2394 35.6845 41.1533 36.2157 42.1892H36.2153Z" fill="white"/>
<path opacity="0.1" d="M59.8862 41.6462C59.8862 45.4847 57.2068 48.6752 53.6818 49.3092C53.263 49.3851 52.8335 49.4244 52.3937 49.4244C51.8391 49.4244 51.2988 49.362 50.7779 49.2429C50.3159 49.1373 49.8707 48.988 49.4454 48.7986C47.8193 48.0753 46.4906 46.7718 45.6986 45.1392C45.1896 44.0891 44.9023 42.9024 44.9023 41.6466C44.9023 37.8693 47.4969 34.7205 50.9358 34.0173C51.407 33.9197 51.895 33.8696 52.3937 33.8696C53.7078 33.8696 54.945 34.2206 56.0193 34.8396C56.4304 35.0738 56.8167 35.349 57.1754 35.6578C57.9246 36.3042 58.5495 37.0967 59.0104 37.9951C59.5703 39.083 59.8862 40.3269 59.8862 41.6466V41.6462Z" fill="white"/>
<path opacity="0.5" d="M56.0199 34.8396L49.446 48.7986C47.8199 48.0753 46.4913 46.7718 45.6992 45.1392L50.9364 34.0173C51.4076 33.9197 51.8956 33.8696 52.3943 33.8696C53.7084 33.8696 54.9456 34.2206 56.0199 34.8396Z" fill="white"/>
<path opacity="0.5" d="M59.0099 37.9949L53.6813 49.3093C53.2625 49.3852 52.833 49.4245 52.3932 49.4245C51.8386 49.4245 51.2982 49.3621 50.7773 49.243L57.1749 35.658C57.9241 36.3043 58.549 37.0968 59.0099 37.9953V37.9949Z" fill="white"/>
<path d="M28.5811 36.5874C23.3607 36.5874 19.1289 40.9805 19.1289 46.3999C19.1289 51.8193 23.3607 56.214 28.5811 56.214C33.8014 56.214 38.0347 51.8193 38.0347 46.3999C38.0347 40.9805 33.803 36.5874 28.5811 36.5874ZM28.5811 54.3913C24.3298 54.3913 20.8836 50.8137 20.8836 46.4003C20.8836 41.987 24.3298 38.4094 28.5811 38.4094C32.8323 38.4094 36.2801 41.987 36.2801 46.4003C36.2801 50.8137 32.8339 54.3913 28.5811 54.3913Z" fill="#2468FF"/>
<path d="M36.3633 42.9039C37.0349 42.5124 37.6984 42.0288 38.3987 41.6763C40.2069 40.727 41.89 40.696 43.7797 41.4019C44.3591 41.6183 44.906 41.8851 45.4728 42.1444L44.4038 43.6554C43.4332 42.4497 41.8839 41.7326 40.3843 42.1582C39.1896 42.4854 38.2935 43.3708 37.5137 44.349L36.3633 42.9039Z" fill="#2468FF"/>
<path d="M57.2989 80.8943C59.7817 81.8452 60.8545 87.9904 58.0561 91.0681C55.74 93.6158 51.9079 92.3215 50.9893 90.2304C49.7983 87.5195 50.9893 81.5248 56.9394 82.3641L57.2993 80.8943H57.2989Z" fill="#777782"/>
<path d="M58.0567 91.0691C55.7402 93.616 51.9089 92.3213 50.9891 90.2305C49.841 87.6165 50.9072 81.9485 56.3231 82.2999C56.5231 82.313 56.7277 82.3341 56.9403 82.3638L57.2994 80.894C57.9607 81.1473 58.5214 81.7687 58.934 82.6009C60.0791 84.8977 60.1104 88.81 58.0567 91.0695V91.0691Z" fill="black"/>
<path d="M58.9352 82.6009C58.0391 82.9082 56.9052 82.5389 56.3242 82.2999C56.5242 82.313 56.7288 82.3341 56.9415 82.3638L57.3006 80.894C57.9619 81.1473 58.5225 81.7687 58.9352 82.6009Z" fill="#656572"/>
<path opacity="0.3" d="M51.8398 86.2455C51.8398 86.2455 52.22 84.4164 54.1146 83.5957C55.6238 82.9418 57.2109 83.5346 57.2109 83.5346C57.2109 83.5346 53.5505 83.7672 51.8402 86.2459L51.8398 86.2455Z" fill="white"/>
<path opacity="0.2" d="M59.5717 87.8358C59.3495 89.0356 58.8645 90.1803 58.0568 91.0696C55.7403 93.6165 51.909 92.3218 50.9892 90.2311C50.2442 88.5358 50.4316 85.5557 52.1323 83.7671C49.1955 91.2284 56.4915 93.4355 59.5717 87.8362V87.8358Z" fill="black"/>
<path d="M57.2989 80.8943C59.7817 81.8452 60.8545 87.9904 58.0561 91.0681C55.74 93.6158 51.9079 92.3215 50.9893 90.2304C49.7983 87.5195 50.9893 81.5248 56.9394 82.3641L57.2993 80.8943H57.2989Z" stroke="black" stroke-linecap="round" stroke-linejoin="round"/>
<path d="M52.4366 84.2358C52.1598 84.8535 52.4718 85.3847 52.9946 85.7202C53.6154 86.1177 54.4074 86.2399 55.1467 86.205C53.9844 86.5858 52.4344 86.6 51.6087 85.4919C51.2996 85.0659 51.1895 84.468 51.2652 83.9475L52.4366 84.2358Z" fill="black"/>
<path d="M51.1981 87.4441C51.1251 88.1349 51.4035 88.792 51.9561 89.2216C52.2399 89.4479 52.5849 89.6178 52.9551 89.7123C53.3249 89.8056 53.7238 89.8306 54.1147 89.7329C53.759 89.9291 53.3413 90.018 52.9218 90.0228C51.7947 90.047 50.6329 89.3867 50.1973 88.2489C50.1024 88.0142 50.037 87.7673 49.9961 87.5179L51.1977 87.4441H51.1981Z" fill="black"/>
<path d="M58.1329 82.5267C57.7271 83.1321 57.0341 83.175 56.4727 82.7534L57.415 81.9756C57.3416 82.4357 57.7592 82.5707 58.1329 82.5267Z" fill="black"/>
<path d="M49.5977 95.4014C50.1472 95.1505 50.6796 94.8039 51.0919 94.3647C51.4483 93.98 51.7011 93.5207 51.6269 92.9998L52.8263 93.1066C52.7811 93.317 52.7127 93.5195 52.6224 93.7065C52.445 94.0614 52.1857 94.3592 51.8854 94.5875C51.2165 95.0909 50.4 95.32 49.5977 95.4014Z" fill="black"/>
<path d="M50.2891 98.2525C50.883 97.998 51.4418 97.6248 51.8877 97.1587C52.2866 96.7462 52.5998 96.1931 52.6679 95.6206L53.8102 96.0152C53.6347 96.3904 53.401 96.7255 53.1287 96.9987C52.37 97.7618 51.3186 98.1517 50.2891 98.2525Z" fill="black"/>
<path d="M50.5355 73.6338C51.2209 73.4814 51.9116 73.2174 52.5002 72.835C53.0256 72.488 53.48 72.0326 53.6093 71.4045L54.7226 71.8798C54.6094 72.0902 54.4744 72.2828 54.3237 72.4527C54.0299 72.7767 53.675 73.0212 53.2949 73.1971C52.4244 73.5918 51.4683 73.6918 50.5352 73.6342L50.5355 73.6338Z" fill="black"/>
<path d="M49.7426 69.6159C50.7664 69.1764 51.8992 68.8767 53.0201 69.0121C53.2859 69.047 53.5632 69.1185 53.8129 69.2221C54.024 69.311 54.2325 69.4293 54.4279 69.5794L53.6083 70.4949C53.3349 70.1138 52.8855 69.8823 52.4503 69.7517C51.5795 69.496 50.6432 69.4968 49.7422 69.6159H49.7426Z" fill="black"/>
<path d="M40.9492 53.2273L41.0215 53.6978C41.0215 53.6978 41.4418 53.8963 41.7577 54.6125C41.7577 54.6125 41.8055 53.5513 40.9496 53.2277L40.9492 53.2273Z" fill="black"/>
<path d="M59.645 71.3122L60.0301 69.2302C60.0301 69.2302 56.3391 67.3495 57.1736 62.8147C58.0559 58.0194 62.8139 58.4672 64.6741 60.4551C67.4017 63.3697 65.5966 72.5863 59.645 71.3122Z" fill="#777782"/>
<path d="M65.6546 66.6206C64.9696 69.5003 62.9446 72.0186 59.646 71.3127L60.0311 69.2307C60.0311 69.2307 56.3394 67.3503 57.1735 62.8147C57.4351 61.3941 58.0367 60.4345 58.8019 59.8402C60.6197 58.4196 63.3649 59.0572 64.674 60.4564C65.8902 61.7554 66.2046 64.3055 65.6542 66.6206H65.6546Z" fill="black"/>
<path opacity="0.3" d="M65.6528 66.6206C65.6046 66.8203 65.5518 67.0168 65.4891 67.2118C65.8949 65.0297 65.5453 62.7297 64.411 61.5188C63.1019 60.1197 60.3567 59.4817 58.5389 60.9026C57.95 61.3588 57.4593 62.0318 57.1445 62.9648C57.1541 62.9148 57.1621 62.8647 57.1717 62.8147C57.4333 61.3941 58.0349 60.4345 58.8001 59.8402C60.6179 58.4196 63.3631 59.0572 64.6722 60.4564C65.8884 61.7554 66.2028 64.3055 65.6524 66.6206H65.6528Z" fill="white"/>
<path opacity="0.2" d="M65.6546 66.6203C64.9696 69.4999 62.9446 72.0183 59.646 71.3123L60.0311 69.2303C60.0311 69.2303 56.3394 67.35 57.1735 62.8144C57.4351 61.3938 58.0367 60.4342 58.8019 59.8398C58.0879 61.8421 57.3437 65.403 60.1271 67.2099C62.4084 68.6924 64.3501 67.778 65.6542 66.6203H65.6546Z" fill="black"/>
<path d="M59.645 71.3122L60.0301 69.2302C60.0301 69.2302 56.3391 67.3495 57.1736 62.8147C58.0559 58.0194 62.8139 58.4672 64.6741 60.4551C67.4017 63.3697 65.5966 72.5863 59.645 71.3122Z" stroke="black" stroke-linecap="round" stroke-linejoin="round"/>
<path d="M57.2578 60.7574C58.2135 59.72 60.325 59.8943 61.4632 60.4739C61.8709 60.676 62.2438 60.9535 62.5222 61.3025C61.8342 60.7689 60.9576 60.6232 60.13 60.6931C59.4944 60.7578 58.7608 60.9333 58.3011 61.3843C58.2537 61.4371 58.222 61.4887 58.2055 61.528L57.2578 60.7574Z" fill="black"/>
<path d="M56.723 64.1289C57.9534 63.4107 60.0652 63.6827 61.2256 64.4322C61.403 64.549 61.5682 64.6844 61.7059 64.842C61.0294 64.3957 60.1815 64.3453 59.4067 64.4104C58.737 64.4843 57.9086 64.6681 57.4218 65.1465L56.7227 64.1289H56.723Z" fill="black"/>
<path d="M60.1622 68.6213C60.5298 68.8143 60.9183 68.9822 61.3069 69.1264C61.7058 69.2677 62.1085 69.4015 62.5368 69.4047C62.1414 69.6083 61.6848 69.6858 61.248 69.7481C60.8575 69.8005 60.4651 69.8279 60.0712 69.8386C60.0131 69.8394 59.9592 69.8414 59.8945 69.8398L60.1622 68.6213Z" fill="black"/>
<path d="M52.3985 33.0613C47.8314 33.0613 44.1289 36.9049 44.1289 41.6462C44.1289 46.3875 47.8314 50.2327 52.3985 50.2327C56.9657 50.2327 60.6697 46.3879 60.6697 41.6462C60.6697 36.9045 56.9672 33.0613 52.3985 33.0613ZM52.3985 48.6374C48.6793 48.6374 45.664 45.5073 45.664 41.6462C45.664 37.7851 48.6793 34.6549 52.3985 34.6549C56.1178 34.6549 59.1346 37.7851 59.1346 41.6462C59.1346 45.5073 56.1194 48.6374 52.3985 48.6374Z" fill="#2468FF"/>
<path d="M54.3032 133C66.0643 133 75.5985 132.672 75.5985 132.267C75.5985 131.862 66.0643 131.533 54.3032 131.533C42.5421 131.533 33.0078 131.862 33.0078 132.267C33.0078 132.672 42.5421 133 54.3032 133Z" fill="black"/>
</g>
<defs>
<clipPath id="clip0_1_27320">
<rect width="119" height="133" fill="white"/>
</clipPath>
</defs>
</svg>
