<svg width="34" height="34" viewBox="0 0 34 34" fill="none" xmlns="http://www.w3.org/2000/svg">
<rect width="34" height="34" rx="17" fill="#2468FF" fill-opacity="0.05"/>
<path d="M14.9187 10.5477C14.6656 9.91492 14.0528 9.5 13.3713 9.5H11.0789C10.2069 9.5 9.5 10.2067 9.5 11.0788C9.5 18.491 15.509 24.5 22.9212 24.5C23.7933 24.5 24.5 23.793 24.5 22.921L24.5004 20.6283C24.5004 19.9468 24.0856 19.334 23.4528 19.0809L21.2558 18.2024C20.6874 17.9751 20.0402 18.0774 19.57 18.4693L19.0029 18.9422C18.3407 19.4941 17.3664 19.4502 16.7568 18.8407L15.1602 17.2425C14.5507 16.633 14.5056 15.6594 15.0575 14.9972L15.5303 14.4302C15.9222 13.96 16.0254 13.3126 15.7981 12.7442L14.9187 10.5477Z" stroke="#2468FF" stroke-width="1.5" stroke-linecap="round" stroke-linejoin="round"/>
</svg>
