<svg width="475" height="186" viewBox="0 0 475 186" fill="none" xmlns="http://www.w3.org/2000/svg">
<path d="M7 0.25H474.75V174C474.75 180.489 469.489 185.75 463 185.75H0.25V7C0.25 3.27208 3.27208 0.25 7 0.25Z" fill="white" stroke="black" stroke-width="0.5"/>
<path d="M100.428 113.76C98.016 113.76 96.504 112.055 96.504 109.487C96.504 106.943 98.076 105.215 100.512 105.215C102.372 105.215 103.728 106.295 104.04 108.035H102.936C102.612 106.871 101.724 106.175 100.464 106.175C98.7 106.175 97.572 107.543 97.572 109.487C97.572 111.419 98.652 112.799 100.416 112.799C101.712 112.799 102.612 112.115 102.924 110.939H104.028C103.716 112.679 102.324 113.76 100.428 113.76ZM107.977 107.567H108.253V108.527H107.761C106.477 108.527 106.129 109.595 106.129 110.567V113.688H105.145V107.567H105.997L106.129 108.491C106.417 108.023 106.885 107.567 107.977 107.567ZM111.574 113.76C109.738 113.76 108.538 112.499 108.538 110.627C108.538 108.767 109.714 107.495 111.442 107.495C113.17 107.495 114.298 108.587 114.346 110.399C114.346 110.531 114.334 110.675 114.322 110.819H109.57V110.903C109.606 112.067 110.338 112.883 111.502 112.883C112.366 112.883 113.038 112.427 113.242 111.635H114.238C113.998 112.859 112.99 113.76 111.574 113.76ZM109.63 110.003H113.29C113.194 108.947 112.474 108.359 111.454 108.359C110.554 108.359 109.726 109.007 109.63 110.003ZM120.881 112.787H121.193V113.688H120.653C119.837 113.688 119.561 113.339 119.549 112.739C119.165 113.292 118.553 113.76 117.497 113.76C116.153 113.76 115.241 113.087 115.241 111.971C115.241 110.747 116.093 110.063 117.701 110.063H119.501V109.643C119.501 108.851 118.937 108.371 117.977 108.371C117.113 108.371 116.537 108.779 116.417 109.403H115.433C115.577 108.203 116.549 107.495 118.025 107.495C119.585 107.495 120.485 108.275 120.485 109.703V112.379C120.485 112.703 120.605 112.787 120.881 112.787ZM119.501 111.191V110.891H117.605C116.729 110.891 116.237 111.215 116.237 111.911C116.237 112.511 116.753 112.919 117.569 112.919C118.793 112.919 119.501 112.211 119.501 111.191ZM122.405 112.091V108.467H121.301V107.567H122.405V105.851H123.389V107.567H124.973V108.467H123.389V112.079C123.389 112.595 123.569 112.787 124.097 112.787H125.069V113.688H124.001C122.825 113.688 122.405 113.171 122.405 112.091ZM128.59 113.76C126.754 113.76 125.554 112.499 125.554 110.627C125.554 108.767 126.73 107.495 128.458 107.495C130.186 107.495 131.314 108.587 131.362 110.399C131.362 110.531 131.35 110.675 131.338 110.819H126.586V110.903C126.622 112.067 127.354 112.883 128.518 112.883C129.382 112.883 130.054 112.427 130.258 111.635H131.254C131.014 112.859 130.006 113.76 128.59 113.76ZM126.646 110.003H130.306C130.21 108.947 129.49 108.359 128.47 108.359C127.57 108.359 126.742 109.007 126.646 110.003ZM141.037 112.787H141.349V113.688H140.809C139.993 113.688 139.717 113.339 139.705 112.739C139.321 113.292 138.709 113.76 137.653 113.76C136.309 113.76 135.397 113.087 135.397 111.971C135.397 110.747 136.249 110.063 137.857 110.063H139.657V109.643C139.657 108.851 139.093 108.371 138.133 108.371C137.269 108.371 136.693 108.779 136.573 109.403H135.589C135.733 108.203 136.705 107.495 138.181 107.495C139.741 107.495 140.641 108.275 140.641 109.703V112.379C140.641 112.703 140.761 112.787 141.037 112.787ZM139.657 111.191V110.891H137.761C136.885 110.891 136.393 111.215 136.393 111.911C136.393 112.511 136.909 112.919 137.725 112.919C138.949 112.919 139.657 112.211 139.657 111.191ZM145.246 113.688V105.287H146.23V113.688H145.246ZM150.398 113.76C148.61 113.76 147.362 112.487 147.362 110.627C147.362 108.767 148.61 107.495 150.398 107.495C152.186 107.495 153.434 108.767 153.434 110.627C153.434 112.487 152.186 113.76 150.398 113.76ZM150.398 112.883C151.61 112.883 152.426 111.935 152.426 110.627C152.426 109.319 151.61 108.371 150.398 108.371C149.186 108.371 148.37 109.319 148.37 110.627C148.37 111.935 149.186 112.883 150.398 112.883ZM159.387 108.623L159.519 107.567H160.371V113.387C160.371 115.152 159.435 116.16 157.335 116.16C155.775 116.16 154.683 115.428 154.527 114.083H155.535C155.703 114.852 156.387 115.284 157.407 115.284C158.691 115.284 159.387 114.684 159.387 113.351V112.631C158.979 113.327 158.319 113.76 157.287 113.76C155.595 113.76 154.347 112.619 154.347 110.627C154.347 108.755 155.595 107.495 157.287 107.495C158.319 107.495 159.003 107.939 159.387 108.623ZM157.383 112.883C158.583 112.883 159.399 111.959 159.399 110.651C159.399 109.307 158.583 108.371 157.383 108.371C156.171 108.371 155.355 109.295 155.355 110.627C155.355 111.959 156.171 112.883 157.383 112.883ZM164.531 113.76C162.743 113.76 161.495 112.487 161.495 110.627C161.495 108.767 162.743 107.495 164.531 107.495C166.319 107.495 167.567 108.767 167.567 110.627C167.567 112.487 166.319 113.76 164.531 113.76ZM164.531 112.883C165.743 112.883 166.559 111.935 166.559 110.627C166.559 109.319 165.743 108.371 164.531 108.371C163.319 108.371 162.503 109.319 162.503 110.627C162.503 111.935 163.319 112.883 164.531 112.883ZM176.66 108.503V105.287H177.644V113.688H176.792L176.66 112.703C176.252 113.267 175.592 113.76 174.56 113.76C172.868 113.76 171.62 112.619 171.62 110.627C171.62 108.755 172.868 107.495 174.56 107.495C175.592 107.495 176.288 107.915 176.66 108.503ZM174.656 112.883C175.856 112.883 176.672 111.959 176.672 110.651C176.672 109.307 175.856 108.371 174.656 108.371C173.444 108.371 172.628 109.295 172.628 110.627C172.628 111.959 173.444 112.883 174.656 112.883ZM181.805 113.76C179.969 113.76 178.769 112.499 178.769 110.627C178.769 108.767 179.945 107.495 181.673 107.495C183.401 107.495 184.529 108.587 184.577 110.399C184.577 110.531 184.565 110.675 184.553 110.819H179.801V110.903C179.837 112.067 180.569 112.883 181.733 112.883C182.597 112.883 183.269 112.427 183.473 111.635H184.469C184.229 112.859 183.221 113.76 181.805 113.76ZM179.861 110.003H183.521C183.425 108.947 182.705 108.359 181.685 108.359C180.785 108.359 179.957 109.007 179.861 110.003ZM185.424 111.671H186.432C186.468 112.391 187.104 112.919 188.124 112.919C188.988 112.919 189.6 112.547 189.6 111.983C189.6 111.215 188.928 111.155 188.016 111.047C186.648 110.879 185.556 110.604 185.556 109.331C185.556 108.215 186.576 107.483 187.956 107.495C189.348 107.507 190.356 108.155 190.452 109.427H189.444C189.372 108.803 188.796 108.335 187.956 108.335C187.104 108.335 186.528 108.695 186.528 109.259C186.528 109.931 187.176 110.015 188.064 110.123C189.456 110.291 190.572 110.555 190.572 111.911C190.572 113.051 189.48 113.76 188.124 113.76C186.54 113.76 185.448 113.015 185.424 111.671ZM192.168 106.535C191.808 106.535 191.532 106.271 191.532 105.899C191.532 105.527 191.808 105.263 192.168 105.263C192.528 105.263 192.804 105.527 192.804 105.899C192.804 106.271 192.528 106.535 192.168 106.535ZM191.664 113.688V107.567H192.648V113.688H191.664ZM198.82 108.623L198.952 107.567H199.804V113.387C199.804 115.152 198.868 116.16 196.768 116.16C195.208 116.16 194.116 115.428 193.96 114.083H194.968C195.136 114.852 195.82 115.284 196.84 115.284C198.124 115.284 198.82 114.684 198.82 113.351V112.631C198.412 113.327 197.752 113.76 196.72 113.76C195.028 113.76 193.78 112.619 193.78 110.627C193.78 108.755 195.028 107.495 196.72 107.495C197.752 107.495 198.436 107.939 198.82 108.623ZM196.816 112.883C198.016 112.883 198.832 111.959 198.832 110.651C198.832 109.307 198.016 108.371 196.816 108.371C195.604 108.371 194.788 109.295 194.788 110.627C194.788 111.959 195.604 112.883 196.816 112.883ZM204.145 107.495C205.525 107.495 206.617 108.251 206.617 110.279V113.688H205.633V110.339C205.633 109.067 205.045 108.395 203.977 108.395C202.825 108.395 202.129 109.247 202.129 110.627V113.688H201.145V107.567H201.997L202.129 108.395C202.489 107.927 203.113 107.495 204.145 107.495Z" fill="black"/>
<rect x="60.8999" y="98.725" width="20.9625" height="20.9625" rx="1.75" stroke="black" stroke-width="0.5"/>
<path d="M96.4799 161.439H97.5599C97.6439 162.567 98.5199 163.311 99.8039 163.311C100.932 163.311 101.736 162.795 101.736 161.883C101.736 160.839 100.704 160.623 99.4319 160.407C98.0759 160.179 96.6839 159.735 96.6839 158.103C96.6839 156.675 97.8479 155.715 99.5519 155.715C101.424 155.715 102.576 156.759 102.672 158.271H101.592C101.472 157.299 100.692 156.663 99.5519 156.663C98.4599 156.663 97.7279 157.143 97.7279 158.043C97.7279 159.051 98.7479 159.255 100.008 159.471C101.376 159.699 102.78 160.155 102.78 161.787C102.78 163.239 101.556 164.26 99.7919 164.26C97.7399 164.26 96.5399 163.095 96.4799 161.439ZM104.417 162.591V158.967H103.313V158.067H104.417V156.351H105.401V158.067H106.985V158.967H105.401V162.579C105.401 163.095 105.581 163.287 106.109 163.287H107.081V164.188H106.013C104.837 164.188 104.417 163.671 104.417 162.591ZM113.252 163.287H113.564V164.188H113.024C112.208 164.188 111.932 163.839 111.92 163.239C111.536 163.792 110.924 164.26 109.868 164.26C108.524 164.26 107.612 163.587 107.612 162.471C107.612 161.247 108.464 160.563 110.072 160.563H111.872V160.143C111.872 159.351 111.308 158.871 110.348 158.871C109.484 158.871 108.908 159.279 108.788 159.903H107.804C107.948 158.703 108.92 157.995 110.396 157.995C111.956 157.995 112.856 158.775 112.856 160.203V162.879C112.856 163.203 112.976 163.287 113.252 163.287ZM111.872 161.691V161.391H109.976C109.1 161.391 108.608 161.715 108.608 162.411C108.608 163.011 109.124 163.419 109.94 163.419C111.164 163.419 111.872 162.711 111.872 161.691ZM117.152 158.067H117.428V159.027H116.936C115.652 159.027 115.304 160.095 115.304 161.067V164.188H114.32V158.067H115.172L115.304 158.991C115.592 158.523 116.06 158.067 117.152 158.067ZM118.936 162.591V158.967H117.832V158.067H118.936V156.351H119.92V158.067H121.504V158.967H119.92V162.579C119.92 163.095 120.1 163.287 120.628 163.287H121.6V164.188H120.532C119.356 164.188 118.936 163.671 118.936 162.591ZM128.342 164.26C126.554 164.26 125.378 163.047 125.378 161.139C125.378 159.267 126.59 157.995 128.366 157.995C129.866 157.995 130.814 158.835 131.066 160.179H130.034C129.854 159.363 129.254 158.871 128.354 158.871C127.178 158.871 126.386 159.807 126.386 161.139C126.386 162.471 127.178 163.383 128.354 163.383C129.23 163.383 129.83 162.879 130.022 162.099H131.066C130.826 163.419 129.83 164.26 128.342 164.26ZM134.977 158.067H135.253V159.027H134.761C133.477 159.027 133.129 160.095 133.129 161.067V164.188H132.145V158.067H132.997L133.129 158.991C133.417 158.523 133.885 158.067 134.977 158.067ZM138.574 164.26C136.738 164.26 135.538 162.999 135.538 161.127C135.538 159.267 136.714 157.995 138.442 157.995C140.17 157.995 141.298 159.087 141.346 160.899C141.346 161.031 141.334 161.175 141.322 161.319H136.57V161.403C136.606 162.567 137.338 163.383 138.502 163.383C139.366 163.383 140.038 162.927 140.242 162.135H141.238C140.998 163.359 139.99 164.26 138.574 164.26ZM136.63 160.503H140.29C140.194 159.447 139.474 158.859 138.454 158.859C137.554 158.859 136.726 159.507 136.63 160.503ZM147.881 163.287H148.193V164.188H147.653C146.837 164.188 146.561 163.839 146.549 163.239C146.165 163.792 145.553 164.26 144.497 164.26C143.153 164.26 142.241 163.587 142.241 162.471C142.241 161.247 143.093 160.563 144.701 160.563H146.501V160.143C146.501 159.351 145.937 158.871 144.977 158.871C144.113 158.871 143.537 159.279 143.417 159.903H142.433C142.577 158.703 143.549 157.995 145.025 157.995C146.585 157.995 147.485 158.775 147.485 160.203V162.879C147.485 163.203 147.605 163.287 147.881 163.287ZM146.501 161.691V161.391H144.605C143.729 161.391 143.237 161.715 143.237 162.411C143.237 163.011 143.753 163.419 144.569 163.419C145.793 163.419 146.501 162.711 146.501 161.691ZM149.405 162.591V158.967H148.301V158.067H149.405V156.351H150.389V158.067H151.973V158.967H150.389V162.579C150.389 163.095 150.569 163.287 151.097 163.287H152.069V164.188H151.001C149.825 164.188 149.405 163.671 149.405 162.591ZM153.426 157.035C153.066 157.035 152.79 156.771 152.79 156.399C152.79 156.027 153.066 155.763 153.426 155.763C153.786 155.763 154.062 156.027 154.062 156.399C154.062 156.771 153.786 157.035 153.426 157.035ZM152.922 164.188V158.067H153.906V164.188H152.922ZM158.254 157.995C159.634 157.995 160.726 158.751 160.726 160.779V164.188H159.742V160.839C159.742 159.567 159.154 158.895 158.086 158.895C156.934 158.895 156.238 159.747 156.238 161.127V164.188H155.254V158.067H156.106L156.238 158.895C156.598 158.427 157.222 157.995 158.254 157.995ZM166.804 159.123L166.936 158.067H167.788V163.887C167.788 165.652 166.852 166.66 164.752 166.66C163.192 166.66 162.1 165.928 161.944 164.583H162.952C163.12 165.352 163.804 165.784 164.824 165.784C166.108 165.784 166.804 165.184 166.804 163.851V163.131C166.396 163.827 165.736 164.26 164.704 164.26C163.012 164.26 161.764 163.119 161.764 161.127C161.764 159.255 163.012 157.995 164.704 157.995C165.736 157.995 166.42 158.439 166.804 159.123ZM164.8 163.383C166 163.383 166.816 162.459 166.816 161.151C166.816 159.807 166 158.871 164.8 158.871C163.588 158.871 162.772 159.795 162.772 161.127C162.772 162.459 163.588 163.383 164.8 163.383ZM172.726 162.591V158.967H171.622V158.067H172.726V156.351H173.71V158.067H175.294V158.967H173.71V162.579C173.71 163.095 173.89 163.287 174.418 163.287H175.39V164.188H174.322C173.146 164.188 172.726 163.671 172.726 162.591ZM179.242 157.995C180.61 157.995 181.726 158.751 181.726 160.779V164.188H180.742V160.839C180.742 159.567 180.13 158.895 179.074 158.895C177.934 158.895 177.226 159.747 177.226 161.127V164.188H176.242V155.787H177.226V159.075C177.586 158.499 178.21 157.995 179.242 157.995ZM185.73 164.26C183.894 164.26 182.694 162.999 182.694 161.127C182.694 159.267 183.87 157.995 185.598 157.995C187.326 157.995 188.454 159.087 188.502 160.899C188.502 161.031 188.49 161.175 188.478 161.319H183.726V161.403C183.762 162.567 184.494 163.383 185.658 163.383C186.522 163.383 187.194 162.927 187.398 162.135H188.394C188.154 163.359 187.146 164.26 185.73 164.26ZM183.786 160.503H187.446C187.35 159.447 186.63 158.859 185.61 158.859C184.71 158.859 183.882 159.507 183.786 160.503ZM195.85 157.995C197.542 157.995 198.79 159.135 198.79 161.127C198.79 162.999 197.542 164.26 195.85 164.26C194.818 164.26 194.122 163.839 193.75 163.251L193.618 164.188H192.766V155.787H193.75V159.051C194.158 158.487 194.818 157.995 195.85 157.995ZM195.754 163.383C196.966 163.383 197.782 162.459 197.782 161.127C197.782 159.795 196.966 158.871 195.754 158.871C194.554 158.871 193.738 159.795 193.738 161.104C193.738 162.447 194.554 163.383 195.754 163.383ZM202.746 158.067H203.022V159.027H202.53C201.246 159.027 200.898 160.095 200.898 161.067V164.188H199.914V158.067H200.766L200.898 158.991C201.186 158.523 201.654 158.067 202.746 158.067ZM209.076 163.287H209.388V164.188H208.848C208.032 164.188 207.756 163.839 207.744 163.239C207.36 163.792 206.748 164.26 205.692 164.26C204.348 164.26 203.436 163.587 203.436 162.471C203.436 161.247 204.288 160.563 205.896 160.563H207.696V160.143C207.696 159.351 207.132 158.871 206.172 158.871C205.308 158.871 204.732 159.279 204.612 159.903H203.628C203.772 158.703 204.744 157.995 206.22 157.995C207.78 157.995 208.68 158.775 208.68 160.203V162.879C208.68 163.203 208.8 163.287 209.076 163.287ZM207.696 161.691V161.391H205.8C204.924 161.391 204.432 161.715 204.432 162.411C204.432 163.011 204.948 163.419 205.764 163.419C206.988 163.419 207.696 162.711 207.696 161.691ZM213.145 157.995C214.525 157.995 215.617 158.751 215.617 160.779V164.188H214.633V160.839C214.633 159.567 214.045 158.895 212.977 158.895C211.825 158.895 211.129 159.747 211.129 161.127V164.188H210.145V158.067H210.997L211.129 158.895C211.489 158.427 212.113 157.995 213.145 157.995ZM221.625 159.003V155.787H222.609V164.188H221.757L221.625 163.203C221.217 163.767 220.557 164.26 219.525 164.26C217.833 164.26 216.585 163.119 216.585 161.127C216.585 159.255 217.833 157.995 219.525 157.995C220.557 157.995 221.253 158.415 221.625 159.003ZM219.621 163.383C220.821 163.383 221.637 162.459 221.637 161.151C221.637 159.807 220.821 158.871 219.621 158.871C218.409 158.871 217.593 159.795 217.593 161.127C217.593 162.459 218.409 163.383 219.621 163.383ZM230.174 157.995C231.866 157.995 233.114 159.135 233.114 161.127C233.114 162.999 231.866 164.26 230.174 164.26C229.142 164.26 228.446 163.839 228.074 163.251L227.942 164.188H227.09V155.787H228.074V159.051C228.482 158.487 229.142 157.995 230.174 157.995ZM230.078 163.383C231.29 163.383 232.106 162.459 232.106 161.127C232.106 159.795 231.29 158.871 230.078 158.871C228.878 158.871 228.062 159.795 228.062 161.104C228.062 162.447 228.878 163.383 230.078 163.383ZM237.058 164.26C235.27 164.26 234.022 162.987 234.022 161.127C234.022 159.267 235.27 157.995 237.058 157.995C238.846 157.995 240.094 159.267 240.094 161.127C240.094 162.987 238.846 164.26 237.058 164.26ZM237.058 163.383C238.27 163.383 239.086 162.435 239.086 161.127C239.086 159.819 238.27 158.871 237.058 158.871C235.846 158.871 235.03 159.819 235.03 161.127C235.03 162.435 235.846 163.383 237.058 163.383ZM244.043 164.26C242.255 164.26 241.007 162.987 241.007 161.127C241.007 159.267 242.255 157.995 244.043 157.995C245.831 157.995 247.079 159.267 247.079 161.127C247.079 162.987 245.831 164.26 244.043 164.26ZM244.043 163.383C245.255 163.383 246.071 162.435 246.071 161.127C246.071 159.819 245.255 158.871 244.043 158.871C242.831 158.871 242.015 159.819 242.015 161.127C242.015 162.435 242.831 163.383 244.043 163.383ZM248.207 164.188V155.787H249.191V161.319L252.263 158.067H253.475L251.087 160.599L253.643 164.188H252.455L250.427 161.307L249.191 162.579V164.188H248.207Z" fill="black"/>
<rect x="60.8999" y="149.225" width="20.9625" height="20.9625" rx="1.75" stroke="black" stroke-width="0.5"/>
<rect x="15.7" y="20.7" width="418.15" height="57.075" rx="5.5" fill="#C6FF00" stroke="black"/>
<path d="M96.8156 53.0875V44.6875H102.036V45.6475H97.8596V48.4555H101.316V49.4155H97.8596V53.0875H96.8156ZM103.515 45.9355C103.155 45.9355 102.879 45.6715 102.879 45.2995C102.879 44.9275 103.155 44.6635 103.515 44.6635C103.875 44.6635 104.151 44.9275 104.151 45.2995C104.151 45.6715 103.875 45.9355 103.515 45.9355ZM103.011 53.0875V46.9675H103.995V53.0875H103.011ZM108.344 46.8955C109.724 46.8955 110.816 47.6515 110.816 49.6795V53.0875H109.832V49.7395C109.832 48.4675 109.244 47.7955 108.176 47.7955C107.024 47.7955 106.328 48.6475 106.328 50.0275V53.0875H105.344V46.9675H106.196L106.328 47.7955C106.688 47.3275 107.312 46.8955 108.344 46.8955ZM112.574 45.9355C112.214 45.9355 111.938 45.6715 111.938 45.2995C111.938 44.9275 112.214 44.6635 112.574 44.6635C112.934 44.6635 113.21 44.9275 113.21 45.2995C113.21 45.6715 112.934 45.9355 112.574 45.9355ZM112.07 53.0875V46.9675H113.054V53.0875H112.07ZM114.15 51.0715H115.158C115.194 51.7915 115.83 52.3195 116.85 52.3195C117.714 52.3195 118.326 51.9475 118.326 51.3835C118.326 50.6155 117.654 50.5555 116.742 50.4475C115.374 50.2795 114.282 50.0035 114.282 48.7315C114.282 47.6155 115.302 46.8835 116.682 46.8955C118.074 46.9075 119.082 47.5555 119.178 48.8275H118.17C118.098 48.2035 117.522 47.7355 116.682 47.7355C115.83 47.7355 115.254 48.0955 115.254 48.6595C115.254 49.3315 115.902 49.4155 116.79 49.5235C118.182 49.6915 119.298 49.9555 119.298 51.3115C119.298 52.4515 118.206 53.1595 116.85 53.1595C115.266 53.1595 114.174 52.4155 114.15 51.0715ZM123.39 46.8955C124.758 46.8955 125.874 47.6515 125.874 49.6795V53.0875H124.89V49.7395C124.89 48.4675 124.278 47.7955 123.222 47.7955C122.082 47.7955 121.374 48.6475 121.374 50.0275V53.0875H120.39V44.6875H121.374V47.9755C121.734 47.3995 122.358 46.8955 123.39 46.8955ZM130.725 51.4915V47.8675H129.621V46.9675H130.725V45.2515H131.709V46.9675H133.293V47.8675H131.709V51.4795C131.709 51.9955 131.889 52.1875 132.417 52.1875H133.389V53.0875H132.321C131.145 53.0875 130.725 52.5715 130.725 51.4915ZM137.242 46.8955C138.61 46.8955 139.726 47.6515 139.726 49.6795V53.0875H138.742V49.7395C138.742 48.4675 138.13 47.7955 137.074 47.7955C135.934 47.7955 135.226 48.6475 135.226 50.0275V53.0875H134.242V44.6875H135.226V47.9755C135.586 47.3995 136.21 46.8955 137.242 46.8955ZM143.73 53.1595C141.894 53.1595 140.694 51.8995 140.694 50.0275C140.694 48.1675 141.87 46.8955 143.598 46.8955C145.326 46.8955 146.454 47.9875 146.502 49.7995C146.502 49.9315 146.49 50.0755 146.478 50.2195H141.726V50.3035C141.762 51.4675 142.494 52.2835 143.658 52.2835C144.522 52.2835 145.194 51.8275 145.398 51.0355H146.394C146.154 52.2595 145.146 53.1595 143.73 53.1595ZM141.786 49.4035H145.446C145.35 48.3475 144.63 47.7595 143.61 47.7595C142.71 47.7595 141.882 48.4075 141.786 49.4035ZM150.765 53.0875V44.6875H151.749V53.0875H150.765ZM158.509 52.1875H158.821V53.0875H158.281C157.465 53.0875 157.189 52.7395 157.177 52.1395C156.793 52.6915 156.181 53.1595 155.125 53.1595C153.781 53.1595 152.869 52.4875 152.869 51.3715C152.869 50.1475 153.721 49.4635 155.329 49.4635H157.129V49.0435C157.129 48.2515 156.565 47.7715 155.605 47.7715C154.741 47.7715 154.165 48.1795 154.045 48.8035H153.061C153.205 47.6035 154.177 46.8955 155.653 46.8955C157.213 46.8955 158.113 47.6755 158.113 49.1035V51.7795C158.113 52.1035 158.233 52.1875 158.509 52.1875ZM157.129 50.5915V50.2915H155.233C154.357 50.2915 153.865 50.6155 153.865 51.3115C153.865 51.9115 154.381 52.3195 155.197 52.3195C156.421 52.3195 157.129 51.6115 157.129 50.5915ZM162.578 46.8955C163.958 46.8955 165.05 47.6515 165.05 49.6795V53.0875H164.066V49.7395C164.066 48.4675 163.478 47.7955 162.41 47.7955C161.258 47.7955 160.562 48.6475 160.562 50.0275V53.0875H159.578V46.9675H160.43L160.562 47.7955C160.922 47.3275 161.546 46.8955 162.578 46.8955ZM171.058 47.9035V44.6875H172.042V53.0875H171.19L171.058 52.1035C170.65 52.6675 169.99 53.1595 168.958 53.1595C167.266 53.1595 166.018 52.0195 166.018 50.0275C166.018 48.1555 167.266 46.8955 168.958 46.8955C169.99 46.8955 170.686 47.3155 171.058 47.9035ZM169.054 52.2835C170.254 52.2835 171.07 51.3595 171.07 50.0515C171.07 48.7075 170.254 47.7715 169.054 47.7715C167.842 47.7715 167.026 48.6955 167.026 50.0275C167.026 51.3595 167.842 52.2835 169.054 52.2835ZM173.887 45.9355C173.527 45.9355 173.251 45.6715 173.251 45.2995C173.251 44.9275 173.527 44.6635 173.887 44.6635C174.247 44.6635 174.523 44.9275 174.523 45.2995C174.523 45.6715 174.247 45.9355 173.887 45.9355ZM173.383 53.0875V46.9675H174.367V53.0875H173.383ZM178.715 46.8955C180.095 46.8955 181.187 47.6515 181.187 49.6795V53.0875H180.203V49.7395C180.203 48.4675 179.615 47.7955 178.547 47.7955C177.395 47.7955 176.699 48.6475 176.699 50.0275V53.0875H175.715V46.9675H176.567L176.699 47.7955C177.059 47.3275 177.683 46.8955 178.715 46.8955ZM187.265 48.0235L187.397 46.9675H188.249V52.7875C188.249 54.5515 187.313 55.5595 185.213 55.5595C183.653 55.5595 182.561 54.8275 182.405 53.4835H183.413C183.581 54.2515 184.265 54.6835 185.285 54.6835C186.569 54.6835 187.265 54.0835 187.265 52.7515V52.0315C186.857 52.7275 186.197 53.1595 185.165 53.1595C183.473 53.1595 182.225 52.0195 182.225 50.0275C182.225 48.1555 183.473 46.8955 185.165 46.8955C186.197 46.8955 186.881 47.3395 187.265 48.0235ZM185.261 52.2835C186.461 52.2835 187.277 51.3595 187.277 50.0515C187.277 48.7075 186.461 47.7715 185.261 47.7715C184.049 47.7715 183.233 48.6955 183.233 50.0275C183.233 51.3595 184.049 52.2835 185.261 52.2835ZM195.814 46.8955C197.506 46.8955 198.754 48.0355 198.754 50.0275C198.754 51.8995 197.506 53.1595 195.814 53.1595C194.782 53.1595 194.086 52.7395 193.714 52.1515V55.4875H192.73V46.9675H193.582L193.714 47.9515C194.122 47.3875 194.782 46.8955 195.814 46.8955ZM195.718 52.2835C196.93 52.2835 197.746 51.3595 197.746 50.0275C197.746 48.6955 196.93 47.7715 195.718 47.7715C194.518 47.7715 193.702 48.6955 193.702 50.0035C193.702 51.3475 194.518 52.2835 195.718 52.2835ZM205.291 52.1875H205.603V53.0875H205.063C204.247 53.0875 203.971 52.7395 203.959 52.1395C203.575 52.6915 202.963 53.1595 201.907 53.1595C200.563 53.1595 199.651 52.4875 199.651 51.3715C199.651 50.1475 200.503 49.4635 202.111 49.4635H203.911V49.0435C203.911 48.2515 203.347 47.7715 202.387 47.7715C201.523 47.7715 200.947 48.1795 200.827 48.8035H199.843C199.987 47.6035 200.959 46.8955 202.435 46.8955C203.995 46.8955 204.895 47.6755 204.895 49.1035V51.7795C204.895 52.1035 205.015 52.1875 205.291 52.1875ZM203.911 50.5915V50.2915H202.015C201.139 50.2915 200.647 50.6155 200.647 51.3115C200.647 51.9115 201.163 52.3195 201.979 52.3195C203.203 52.3195 203.911 51.6115 203.911 50.5915ZM211.183 48.0235L211.315 46.9675H212.167V52.7875C212.167 54.5515 211.231 55.5595 209.131 55.5595C207.571 55.5595 206.479 54.8275 206.323 53.4835H207.331C207.499 54.2515 208.183 54.6835 209.203 54.6835C210.487 54.6835 211.183 54.0835 211.183 52.7515V52.0315C210.775 52.7275 210.115 53.1595 209.083 53.1595C207.391 53.1595 206.143 52.0195 206.143 50.0275C206.143 48.1555 207.391 46.8955 209.083 46.8955C210.115 46.8955 210.799 47.3395 211.183 48.0235ZM209.179 52.2835C210.379 52.2835 211.195 51.3595 211.195 50.0515C211.195 48.7075 210.379 47.7715 209.179 47.7715C207.967 47.7715 207.151 48.6955 207.151 50.0275C207.151 51.3595 207.967 52.2835 209.179 52.2835ZM216.328 53.1595C214.492 53.1595 213.292 51.8995 213.292 50.0275C213.292 48.1675 214.468 46.8955 216.196 46.8955C217.924 46.8955 219.052 47.9875 219.1 49.7995C219.1 49.9315 219.088 50.0755 219.076 50.2195H214.324V50.3035C214.36 51.4675 215.092 52.2835 216.256 52.2835C217.12 52.2835 217.792 51.8275 217.996 51.0355H218.992C218.752 52.2595 217.744 53.1595 216.328 53.1595ZM214.384 49.4035H218.044C217.948 48.3475 217.228 47.7595 216.208 47.7595C215.308 47.7595 214.48 48.4075 214.384 49.4035ZM226.111 53.1595C224.323 53.1595 223.147 51.9475 223.147 50.0395C223.147 48.1675 224.359 46.8955 226.135 46.8955C227.635 46.8955 228.583 47.7355 228.835 49.0795H227.803C227.623 48.2635 227.023 47.7715 226.123 47.7715C224.947 47.7715 224.155 48.7075 224.155 50.0395C224.155 51.3715 224.947 52.2835 226.123 52.2835C226.999 52.2835 227.599 51.7795 227.791 50.9995H228.835C228.595 52.3195 227.599 53.1595 226.111 53.1595ZM232.914 46.8955C234.282 46.8955 235.398 47.6515 235.398 49.6795V53.0875H234.414V49.7395C234.414 48.4675 233.802 47.7955 232.746 47.7955C231.606 47.7955 230.898 48.6475 230.898 50.0275V53.0875H229.914V44.6875H230.898V47.9755C231.258 47.3995 231.882 46.8955 232.914 46.8955ZM242.064 52.1875H242.376V53.0875H241.836C241.02 53.0875 240.744 52.7395 240.732 52.1395C240.348 52.6915 239.736 53.1595 238.68 53.1595C237.336 53.1595 236.424 52.4875 236.424 51.3715C236.424 50.1475 237.276 49.4635 238.884 49.4635H240.684V49.0435C240.684 48.2515 240.12 47.7715 239.16 47.7715C238.296 47.7715 237.72 48.1795 237.6 48.8035H236.616C236.76 47.6035 237.732 46.8955 239.208 46.8955C240.768 46.8955 241.668 47.6755 241.668 49.1035V51.7795C241.668 52.1035 241.788 52.1875 242.064 52.1875ZM240.684 50.5915V50.2915H238.788C237.912 50.2915 237.42 50.6155 237.42 51.3115C237.42 51.9115 237.936 52.3195 238.752 52.3195C239.976 52.3195 240.684 51.6115 240.684 50.5915ZM246.133 46.8955C247.513 46.8955 248.605 47.6515 248.605 49.6795V53.0875H247.621V49.7395C247.621 48.4675 247.033 47.7955 245.965 47.7955C244.813 47.7955 244.117 48.6475 244.117 50.0275V53.0875H243.133V46.9675H243.985L244.117 47.7955C244.477 47.3275 245.101 46.8955 246.133 46.8955ZM254.683 48.0235L254.815 46.9675H255.667V52.7875C255.667 54.5515 254.731 55.5595 252.631 55.5595C251.071 55.5595 249.979 54.8275 249.823 53.4835H250.831C250.999 54.2515 251.683 54.6835 252.703 54.6835C253.987 54.6835 254.683 54.0835 254.683 52.7515V52.0315C254.275 52.7275 253.615 53.1595 252.583 53.1595C250.891 53.1595 249.643 52.0195 249.643 50.0275C249.643 48.1555 250.891 46.8955 252.583 46.8955C253.615 46.8955 254.299 47.3395 254.683 48.0235ZM252.679 52.2835C253.879 52.2835 254.695 51.3595 254.695 50.0515C254.695 48.7075 253.879 47.7715 252.679 47.7715C251.467 47.7715 250.651 48.6955 250.651 50.0275C250.651 51.3595 251.467 52.2835 252.679 52.2835ZM259.828 53.1595C257.992 53.1595 256.792 51.8995 256.792 50.0275C256.792 48.1675 257.968 46.8955 259.696 46.8955C261.424 46.8955 262.552 47.9875 262.6 49.7995C262.6 49.9315 262.588 50.0755 262.576 50.2195H257.824V50.3035C257.86 51.4675 258.592 52.2835 259.756 52.2835C260.62 52.2835 261.292 51.8275 261.496 51.0355H262.492C262.252 52.2595 261.244 53.1595 259.828 53.1595ZM257.884 49.4035H261.544C261.448 48.3475 260.728 47.7595 259.708 47.7595C258.808 47.7595 257.98 48.4075 257.884 49.4035ZM263.447 51.0715H264.455C264.491 51.7915 265.127 52.3195 266.147 52.3195C267.011 52.3195 267.623 51.9475 267.623 51.3835C267.623 50.6155 266.951 50.5555 266.039 50.4475C264.671 50.2795 263.579 50.0035 263.579 48.7315C263.579 47.6155 264.599 46.8835 265.979 46.8955C267.371 46.9075 268.379 47.5555 268.475 48.8275H267.467C267.395 48.2035 266.819 47.7355 265.979 47.7355C265.127 47.7355 264.551 48.0955 264.551 48.6595C264.551 49.3315 265.199 49.4155 266.087 49.5235C267.479 49.6915 268.595 49.9555 268.595 51.3115C268.595 52.4515 267.503 53.1595 266.147 53.1595C264.563 53.1595 263.471 52.4155 263.447 51.0715Z" fill="black"/>
<rect x="60.8997" y="38.125" width="20.9625" height="20.9625" rx="1.75" stroke="black" stroke-width="0.5"/>
<path d="M41.675 52.9375C41.675 53.6347 42.2402 54.2 42.9375 54.2C43.6347 54.2 44.2 53.6347 44.2 52.9375C44.2 52.2402 43.6347 51.675 42.9375 51.675C42.2402 51.675 41.675 52.2402 41.675 52.9375Z" stroke="black" stroke-width="2" stroke-linecap="round" stroke-linejoin="round"/>
<path d="M34.1 52.9375C34.1 53.6347 34.6652 54.2 35.3625 54.2C36.0597 54.2 36.625 53.6347 36.625 52.9375C36.625 52.2402 36.0597 51.675 35.3625 51.675C34.6652 51.675 34.1 52.2402 34.1 52.9375Z" stroke="black" stroke-width="2" stroke-linecap="round" stroke-linejoin="round"/>
<path d="M41.675 45.3625C41.675 46.0597 42.2402 46.625 42.9375 46.625C43.6347 46.625 44.2 46.0597 44.2 45.3625C44.2 44.6652 43.6347 44.1 42.9375 44.1C42.2402 44.1 41.675 44.6652 41.675 45.3625Z" stroke="black" stroke-width="2" stroke-linecap="round" stroke-linejoin="round"/>
<path d="M34.1 45.3625C34.1 46.0597 34.6652 46.625 35.3625 46.625C36.0597 46.625 36.625 46.0597 36.625 45.3625C36.625 44.6652 36.0597 44.1 35.3625 44.1C34.6652 44.1 34.1 44.6652 34.1 45.3625Z" stroke="black" stroke-width="2" stroke-linecap="round" stroke-linejoin="round"/>
</svg>
