<svg width="17" height="17" viewBox="0 0 17 17" fill="none" xmlns="http://www.w3.org/2000/svg">
<path d="M15.5833 5.85775V2.99609C15.5833 1.86984 15.13 1.4165 14.0038 1.4165H11.1421C10.0158 1.4165 9.5625 1.86984 9.5625 2.99609V5.85775C9.5625 6.984 10.0158 7.43734 11.1421 7.43734H14.0038C15.13 7.43734 15.5833 6.984 15.5833 5.85775Z" stroke="black" stroke-width="1.5" stroke-linecap="round" stroke-linejoin="round"/>
<path d="M7.43783 6.03484V2.819C7.43783 1.82025 6.98449 1.4165 5.85824 1.4165H2.99658C1.87033 1.4165 1.41699 1.82025 1.41699 2.819V6.02775C1.41699 7.03359 1.87033 7.43025 2.99658 7.43025H5.85824C6.98449 7.43734 7.43783 7.03359 7.43783 6.03484Z" stroke="black" stroke-width="1.5" stroke-linecap="round" stroke-linejoin="round"/>
<path d="M7.43783 14.0038V11.1421C7.43783 10.0158 6.98449 9.5625 5.85824 9.5625H2.99658C1.87033 9.5625 1.41699 10.0158 1.41699 11.1421V14.0038C1.41699 15.13 1.87033 15.5833 2.99658 15.5833H5.85824C6.98449 15.5833 7.43783 15.13 7.43783 14.0038Z" stroke="black" stroke-width="1.5" stroke-linecap="round" stroke-linejoin="round"/>
<path d="M10.625 10.979H14.875" stroke="black" stroke-width="1.5" stroke-linecap="round"/>
<path d="M10.625 13.8125H14.875" stroke="black" stroke-width="1.5" stroke-linecap="round"/>
</svg>
