<svg width="188" height="200" viewBox="0 0 188 200" fill="none" xmlns="http://www.w3.org/2000/svg">
<path d="M138 150H136.73C135.233 142.708 132.596 136.003 128.82 129.883C125.044 123.763 120.454 118.49 115.051 114.062C109.647 109.635 103.56 106.185 96.7891 103.711C90.0182 101.237 82.9219 100 75.5 100C69.7708 100 64.237 100.749 58.8984 102.246C53.5599 103.743 48.5794 105.827 43.957 108.496C39.3346 111.165 35.1354 114.421 31.3594 118.262C27.5833 122.103 24.3281 126.335 21.5938 130.957C18.8594 135.579 16.7435 140.56 15.2461 145.898C13.7487 151.237 13 156.771 13 162.5H0.5C0.5 154.688 1.63932 147.168 3.91797 139.941C6.19661 132.715 9.48438 126.042 13.7812 119.922C18.0781 113.802 23.1562 108.366 29.0156 103.613C34.875 98.8607 41.5156 95.1172 48.9375 92.3828C41.5807 87.5651 35.8516 81.5104 31.75 74.2188C27.6484 66.9271 25.5651 58.8542 25.5 50C25.5 43.099 26.8021 36.6211 29.4062 30.5664C32.0104 24.5117 35.5586 19.2057 40.0508 14.6484C44.543 10.0911 49.849 6.51042 55.9688 3.90625C62.0885 1.30208 68.599 0 75.5 0C82.401 0 88.8789 1.30208 94.9336 3.90625C100.988 6.51042 106.294 10.0586 110.852 14.5508C115.409 19.043 118.99 24.349 121.594 30.4688C124.198 36.5885 125.5 43.099 125.5 50C125.5 54.2969 124.979 58.4961 123.938 62.5977C122.896 66.6992 121.333 70.5729 119.25 74.2188C117.167 77.8646 114.725 81.2174 111.926 84.2773C109.126 87.3372 105.839 90.0391 102.062 92.3828C109.354 95.1823 116.06 99.0234 122.18 103.906C128.299 108.789 133.573 114.518 138 121.094V150ZM38 50C38 55.2083 38.9766 60.0586 40.9297 64.5508C42.8828 69.043 45.5521 73.0143 48.9375 76.4648C52.3229 79.9154 56.2943 82.6172 60.8516 84.5703C65.4089 86.5234 70.2917 87.5 75.5 87.5C80.6432 87.5 85.4935 86.5234 90.0508 84.5703C94.6081 82.6172 98.5794 79.9479 101.965 76.5625C105.35 73.1771 108.052 69.2057 110.07 64.6484C112.089 60.0911 113.065 55.2083 113 50C113 44.8568 112.023 40.0065 110.07 35.4492C108.117 30.8919 105.448 26.9206 102.062 23.5352C98.6771 20.1497 94.6732 17.4479 90.0508 15.4297C85.4284 13.4115 80.5781 12.4349 75.5 12.5C70.2917 12.5 65.4414 13.4766 60.9492 15.4297C56.457 17.3828 52.4857 20.0521 49.0352 23.4375C45.5846 26.8229 42.8828 30.8268 40.9297 35.4492C38.9766 40.0716 38 44.9219 38 50ZM163 162.5H188V175H163V200H150.5V175H125.5V162.5H150.5V137.5H163V162.5Z" fill="black"/>
</svg>
