<svg width="24" height="24" viewBox="0 0 24 24" fill="none" xmlns="http://www.w3.org/2000/svg">
<path d="M21.6 2.69981C21.6 2.49981 21.4 2.39981 21.2 2.29981C17.4 1.29981 13.3 2.59981 10.8 5.59981L9.50004 7.09981L6.80004 6.39981C5.70004 5.99981 4.60004 6.49981 4.10004 7.49981L2.00004 11.1998C2.00004 11.1998 2.00004 11.2998 1.90004 11.2998C1.80004 11.5998 2.00004 11.7998 2.30004 11.8998L5.70004 12.5998C5.40004 13.4998 5.10004 14.3998 5.00004 15.2998C5.00004 15.4998 5.00004 15.5998 5.10004 15.6998L8.10004 18.5998C8.20004 18.6998 8.30004 18.6998 8.50004 18.6998C9.40004 18.5998 10.4 18.3998 11.3 18.0998L12 21.3998C12 21.5998 12.3 21.7998 12.5 21.7998C12.6 21.7998 12.7 21.7998 12.7 21.6998L16.4 19.5998C17.3 19.0998 17.7 17.9998 17.5 16.9998L16.8 14.0998L18.2 12.7998C21.3 10.4998 22.6 6.49981 21.6 2.69981ZM3.20004 11.0998L4.90004 7.99981C5.20004 7.39981 5.80004 7.19981 6.40004 7.39981L8.70004 7.99981L7.70004 9.19981C7.10004 9.99981 6.50004 10.7998 6.10004 11.6998L3.20004 11.0998ZM16 18.9998L12.9 20.7998L12.3 17.8998C13.2 17.4998 14 16.8998 14.8 16.2998L16.1 15.0998L16.7 17.3998C16.7 17.9998 16.5 18.6998 16 18.9998ZM17.6 12.2998L14.1 15.4998C12.6 16.7998 10.7 17.5998 8.70004 17.7998L6.10004 15.1998C6.40004 13.1998 7.20004 11.2998 8.50004 9.79981L10.1 7.99981L10.2 7.89981L11.6 6.29981C13.8 3.69981 17.4 2.49981 20.7 3.19981C21.4 6.59981 20.3 10.0998 17.6 12.2998ZM16.4 5.59981C15.3 5.59981 14.5 6.49981 14.5 7.49981C14.5 8.49981 15.4 9.39981 16.4 9.39981C17.5 9.39981 18.3 8.49981 18.3 7.49981C18.3 6.49981 17.5 5.59981 16.4 5.59981ZM16.4 8.49981C15.9 8.49981 15.5 8.09981 15.5 7.59981C15.5 7.09981 15.9 6.69981 16.4 6.69981C16.9 6.69981 17.3 7.09981 17.3 7.59981C17.3 8.09981 16.9 8.49981 16.4 8.49981Z" fill="black"/>
</svg>
