<svg width="24" height="24" viewBox="0 0 24 24" fill="none" xmlns="http://www.w3.org/2000/svg">
<rect x="0.333008" y="0.5" width="23" height="23" rx="11.5" fill="#2468FF" fill-opacity="0.06"/>
<path fill-rule="evenodd" clip-rule="evenodd" d="M12.6036 8.20986C13.5137 7.95505 14.1463 7.7787 14.6291 7.69008C15.117 7.60054 15.327 7.62742 15.4378 7.66938C15.7727 7.79623 16.0372 8.06068 16.164 8.39563C16.206 8.50642 16.2328 8.71641 16.1433 9.20427C16.0547 9.68709 15.8783 10.3197 15.6235 11.2297L14.8446 14.0116C14.6799 14.5995 14.5618 15.0209 14.4637 15.3291C14.3596 15.6557 14.3016 15.7745 14.2791 15.8087C13.8124 16.5147 12.7938 16.5627 12.2629 15.9037C12.2372 15.8718 12.1683 15.759 12.034 15.4435C11.9073 15.1459 11.7501 14.7375 11.531 14.1677L11.5194 14.1376L11.5194 14.1375C11.4528 13.9644 11.4006 13.8285 11.3352 13.7002C11.3191 13.6686 11.3025 13.6373 11.2852 13.6064L12.8222 12.0694C13.1151 11.7765 13.1151 11.3017 12.8222 11.0088C12.5293 10.7159 12.0544 10.7159 11.7615 11.0088L10.2239 12.5465C10.194 12.5298 10.1638 12.5137 10.1332 12.4982C10.0049 12.4328 9.86902 12.3805 9.69586 12.314L9.69584 12.314L9.66576 12.3024C9.09584 12.0832 8.68741 11.926 8.38982 11.7993C8.07435 11.665 7.96151 11.5961 7.92963 11.5704C7.27069 11.0395 7.31868 10.0209 8.02462 9.55429C8.05878 9.53171 8.1776 9.4737 8.5043 9.36965C8.81247 9.27151 9.23388 9.1534 9.82187 8.98876L12.6036 8.20986ZM15.969 6.26661C15.4651 6.07577 14.9199 6.11166 14.3583 6.21473C13.7996 6.31727 13.1005 6.51303 12.2361 6.75509L12.1992 6.76541L9.41743 7.54431L9.40208 7.54861L9.40206 7.54861C8.83273 7.70803 8.38565 7.83321 8.04912 7.94038C7.72808 8.04262 7.42493 8.1526 7.19748 8.30295C5.6444 9.32955 5.53882 11.5703 6.98849 12.7384C7.2008 12.9095 7.49227 13.0475 7.80227 13.1795C8.12724 13.3178 8.56056 13.4845 9.11239 13.6967L9.12729 13.7024C9.34427 13.7859 9.40247 13.8093 9.45232 13.8347C9.68758 13.9545 9.87884 14.1458 9.99869 14.3811C10.0241 14.4309 10.0475 14.4891 10.1309 14.7061L10.1367 14.7211L10.1367 14.7212C10.3489 15.2729 10.5155 15.7061 10.6539 16.031C10.7858 16.341 10.9238 16.6325 11.0948 16.8448C12.2629 18.2945 14.5038 18.189 15.5304 16.6358C15.6807 16.4084 15.7907 16.1053 15.8929 15.7842C16.0001 15.4478 16.1253 15.0008 16.2846 14.4316L16.2847 14.4314L16.289 14.416L17.0679 11.6342L17.0783 11.5973C17.3203 10.7328 17.5161 10.0337 17.6186 9.47507C17.7217 8.91349 17.7576 8.36826 17.5668 7.86437C17.2877 7.12748 16.7059 6.5457 15.969 6.26661Z" fill="#2468FF"/>
</svg>
