<svg width="17" height="17" viewBox="0 0 17 17" fill="none" xmlns="http://www.w3.org/2000/svg">
<path d="M8.49998 8.50033C10.456 8.50033 12.0416 6.91467 12.0416 4.95866C12.0416 3.00265 10.456 1.41699 8.49998 1.41699C6.54397 1.41699 4.95831 3.00265 4.95831 4.95866C4.95831 6.91467 6.54397 8.50033 8.49998 8.50033Z" stroke="white" stroke-linecap="round" stroke-linejoin="round"/>
<path d="M2.41541 15.5833C2.41541 12.8421 5.14249 10.625 8.49999 10.625C9.17999 10.625 9.83874 10.7171 10.455 10.8871" stroke="white" stroke-linecap="round" stroke-linejoin="round"/>
<path d="M15.5834 12.7503C15.5834 12.977 15.555 13.1966 15.4984 13.4091C15.4346 13.6924 15.3213 13.9687 15.1725 14.2095C14.6838 15.0312 13.7842 15.5837 12.75 15.5837C12.0204 15.5837 11.3617 15.3074 10.8659 14.8541C10.6534 14.6699 10.4692 14.4503 10.3275 14.2095C10.0654 13.7845 9.91669 13.2816 9.91669 12.7503C9.91669 11.9853 10.2213 11.2841 10.7171 10.7741C11.2342 10.2428 11.9567 9.91699 12.75 9.91699C13.5859 9.91699 14.3438 10.2783 14.8538 10.8591C15.3071 11.362 15.5834 12.0278 15.5834 12.7503Z" stroke="white" stroke-miterlimit="10" stroke-linecap="round" stroke-linejoin="round"/>
<path d="M13.8054 12.7363H11.6946" stroke="white" stroke-miterlimit="10" stroke-linecap="round" stroke-linejoin="round"/>
<path d="M12.75 11.7021V13.8201" stroke="white" stroke-miterlimit="10" stroke-linecap="round" stroke-linejoin="round"/>
</svg>
