<svg width="21" height="21" viewBox="0 0 21 21" fill="none" xmlns="http://www.w3.org/2000/svg">
<g filter="url(#filter0_d_1_16460)">
<path opacity="0.4" fill-rule="evenodd" clip-rule="evenodd" d="M13.6777 9.67792C13.9706 9.38503 14.4454 9.38503 14.7383 9.67792L16.78 11.7196C17.0729 12.0125 17.0729 12.4874 16.78 12.7802C16.4871 13.0731 16.0122 13.0731 15.7193 12.7802L13.6777 10.7386C13.3848 10.4457 13.3848 9.97082 13.6777 9.67792Z" fill="#22272F"/>
<path fill-rule="evenodd" clip-rule="evenodd" d="M10.417 1.91675C7.93171 1.91675 5.91699 3.93147 5.91699 6.41675C5.91699 8.90203 7.93171 10.9167 10.417 10.9167C12.9023 10.9167 14.917 8.90203 14.917 6.41675C14.917 3.93147 12.9023 1.91675 10.417 1.91675ZM4.41699 6.41675C4.41699 3.10304 7.10328 0.416748 10.417 0.416748C13.7307 0.416748 16.417 3.10304 16.417 6.41675C16.417 9.73046 13.7307 12.4167 10.417 12.4167C7.10328 12.4167 4.41699 9.73046 4.41699 6.41675Z" fill="#737373"/>
</g>
<defs>
<filter id="filter0_d_1_16460" x="0" y="0" width="22" height="22" filterUnits="userSpaceOnUse" color-interpolation-filters="sRGB">
<feFlood flood-opacity="0" result="BackgroundImageFix"/>
<feColorMatrix in="SourceAlpha" type="matrix" values="0 0 0 0 0 0 0 0 0 0 0 0 0 0 0 0 0 0 127 0" result="hardAlpha"/>
<feOffset dy="4"/>
<feGaussianBlur stdDeviation="2"/>
<feComposite in2="hardAlpha" operator="out"/>
<feColorMatrix type="matrix" values="0 0 0 0 0 0 0 0 0 0 0 0 0 0 0 0 0 0 0.25 0"/>
<feBlend mode="normal" in2="BackgroundImageFix" result="effect1_dropShadow_1_16460"/>
<feBlend mode="normal" in="SourceGraphic" in2="effect1_dropShadow_1_16460" result="shape"/>
</filter>
</defs>
</svg>
