<svg width="103" height="122" viewBox="0 0 103 122" fill="none" xmlns="http://www.w3.org/2000/svg">
<g clip-path="url(#clip0_9_29693)">
<g opacity="0.2">
<path d="M42.2504 122C65.5846 122 84.5008 117.848 84.5008 112.727C84.5008 107.606 65.5846 103.454 42.2504 103.454C18.9161 103.454 0 107.606 0 112.727C0 117.848 18.9161 122 42.2504 122Z" fill="black"/>
</g>
<path d="M70.3632 113.278C68.6305 113.484 62.4656 112.306 60.8809 112.227C58.5319 112.111 53.9951 112.496 49.0938 113.326C49.0938 113.326 54.6252 94.216 54.6105 92.0067C63.7811 89.7975 72.6676 95.8178 72.6676 95.8178C72.6676 95.8178 72.7444 112.993 70.3632 113.277V113.278Z" fill="#777782"/>
<path d="M72.348 105.296C72.0501 109.326 71.4768 113.144 70.3636 113.277C68.6317 113.484 62.466 112.305 60.8813 112.227C58.5324 112.111 53.9951 112.496 49.0938 113.326C49.0938 113.326 54.6265 94.2163 54.6105 92.0067C56.2198 91.6192 57.8221 91.4838 59.3664 91.5277C66.6277 91.7247 72.6668 95.8181 72.6668 95.8181C72.6668 95.8181 72.6876 100.697 72.3476 105.295L72.348 105.296Z" fill="black"/>
<g opacity="0.2">
<path d="M72.348 105.296C72.0501 109.326 71.4768 113.144 70.3636 113.277C68.6317 113.484 62.466 112.305 60.8813 112.227C58.5324 112.111 53.9951 112.496 49.0938 113.326C49.0938 113.326 54.6265 94.2163 54.6105 92.0067C56.2198 91.6192 57.8221 91.4838 59.3664 91.5277C59.724 93.6089 60.2814 97.2866 60.6778 101.984C61.0582 106.5 65.5865 104.273 66.179 101.318C66.7924 98.2585 68.3179 97.3711 68.3179 97.3711C68.3179 97.3711 70.3988 101.375 72.348 105.296Z" fill="black"/>
</g>
<path d="M49.0955 114.003C48.905 114.003 48.7211 113.921 48.5924 113.776C48.4383 113.602 48.384 113.361 48.4486 113.137C50.661 105.493 53.949 93.5596 53.9388 92.0115C53.9367 91.6967 54.1509 91.4222 54.4553 91.3487C63.8065 89.0955 72.6734 95.0042 73.0461 95.257C73.2308 95.3822 73.3419 95.5911 73.3432 95.8152C73.3432 95.8583 73.3595 100.182 73.0824 104.485C72.5614 112.588 71.5067 113.822 70.4446 113.95C69.2579 114.091 66.4308 113.674 63.936 113.305C62.6312 113.113 61.3987 112.931 60.8495 112.903C58.4021 112.782 53.8317 113.21 49.2074 113.994C49.1698 114 49.1326 114.003 49.0955 114.003V114.003ZM59.9664 111.53C60.3088 111.53 60.6259 111.537 60.9153 111.551C61.5299 111.582 62.7354 111.76 64.1318 111.966C66.2821 112.283 69.2199 112.717 70.255 112.609C70.4111 112.496 71.3097 111.522 71.7625 103.996C71.9668 100.602 71.9926 97.2771 71.9954 96.1903C70.4291 95.2234 62.9279 90.9485 55.2371 92.5598C54.7753 95.8644 51.1837 108.502 50.039 112.486C53.8477 111.884 57.5337 111.53 59.9664 111.53V111.53ZM70.2852 112.605C70.2852 112.605 70.2848 112.605 70.2844 112.605C70.2844 112.605 70.2848 112.605 70.2852 112.605Z" fill="black"/>
<path d="M65.9727 109.37C66.8451 111.548 68.313 113.615 72.0276 113.232C77.4337 112.674 82.2079 103.772 80.955 96.8873C80.0253 91.7785 74.207 90.6458 70.3947 93.6533C68.5974 95.0713 66.8921 98.373 65.9731 102.735V109.37H65.9727Z" fill="#777782"/>
<path d="M79.3832 106.667C77.6824 110.199 74.9489 112.931 72.0315 113.231C68.3153 113.614 66.8482 111.548 65.9766 109.369V102.734C66.0244 102.509 66.0742 102.286 66.1241 102.067L66.1261 102.065C67.0705 98.0343 68.6949 94.9965 70.3978 93.652C74.2096 90.6453 80.0288 91.778 80.9581 96.886C81.5347 100.056 80.8335 103.652 79.3836 106.667L79.3832 106.667Z" fill="black"/>
<g opacity="0.3">
<path d="M81.1324 100.009C81.1054 99.4876 81.0461 98.9717 80.9542 98.4677C80.0253 93.3602 74.2057 92.227 70.3938 95.2337C68.691 96.5782 66.917 98.7041 65.9727 102.734C66.0205 102.509 66.0703 102.286 66.1202 102.067L66.1222 102.065C67.0666 98.0343 68.691 94.9965 70.3938 93.652C74.2057 90.6453 80.0249 91.778 80.9542 96.886C81.1381 97.894 81.1916 98.9463 81.1324 100.008V100.009Z" fill="white"/>
</g>
<g opacity="0.2">
<path d="M79.3832 106.667C77.6824 110.199 74.9489 112.931 72.0315 113.231C68.3153 113.613 66.8482 111.547 65.9766 109.369V102.734C66.0244 102.509 66.0742 102.286 66.1241 102.067L66.5282 100.968C66.2091 102.642 68.1694 110.594 73.1848 110.843C75.5684 110.961 77.711 109.007 79.3832 106.666V106.667Z" fill="black"/>
</g>
<path d="M77.5742 106.491C78.3813 103.758 77.5343 101.095 75.6824 100.544C73.8304 99.992 71.6748 101.76 70.8677 104.493C70.0606 107.227 70.9075 109.889 72.7595 110.441C74.6115 110.993 76.7671 109.224 77.5742 106.491Z" fill="white"/>
<path d="M80.4887 100.326C80.7851 99.3217 80.474 98.3436 79.7937 98.1409C79.1135 97.9383 78.3216 98.5879 78.0251 99.5918C77.7286 100.596 78.0398 101.574 78.7201 101.777C79.4003 101.979 80.1922 101.33 80.4887 100.326Z" fill="white"/>
<path d="M73.7894 99.1342C74.0859 98.1303 73.7748 97.1521 73.0945 96.9495C72.4142 96.7469 71.6224 97.3965 71.3259 98.4004C71.0294 99.4044 71.3405 100.383 72.0208 100.585C72.7011 100.788 73.4929 100.138 73.7894 99.1342Z" fill="white"/>
<path d="M77.5873 98.0713C77.9163 96.9574 77.5709 95.8721 76.816 95.6472C76.0611 95.4224 75.1824 96.1431 74.8535 97.257C74.5245 98.3709 74.8698 99.4562 75.6247 99.6811C76.3797 99.906 77.2583 99.1853 77.5873 98.0713Z" fill="white"/>
<path d="M5.9057 101.391C5.25758 103.951 5.59431 106.824 7.55174 108.953C12.0522 113.847 18.5771 111.377 18.5771 111.377L22.3976 101.078C21.2064 101.41 19.8411 100.077 18.2298 98.6065C16.2748 96.8199 13.9594 94.8336 11.1573 95.379C8.74337 95.8497 6.65639 98.4091 5.9057 101.391Z" fill="black"/>
<g opacity="0.3">
<path d="M14.3222 97.9594C12.518 95.849 8.68079 98.2073 9.10701 99.6966C9.39184 100.691 10.7428 99.4549 12.7342 99.1467C13.9434 98.9596 14.7497 98.4593 14.3222 97.9594Z" fill="white"/>
</g>
<g opacity="0.2">
<path d="M5.9057 101.391C5.25758 103.951 5.59431 106.824 7.55174 108.953C12.0522 113.847 18.5771 111.377 18.5771 111.377L22.3976 101.078C21.2064 101.41 19.8411 100.077 18.2298 98.6064C17.2225 99.2106 14.9974 101.919 13.641 105.449C12.4257 108.612 6.90853 106.554 5.90611 101.391H5.9057Z" fill="black"/>
</g>
<path d="M14.7311 112.659C12.3883 112.659 9.44726 112.01 7.05788 109.412C4.97458 107.146 4.37713 103.816 5.45924 100.504C6.45675 97.4508 8.64263 95.1783 11.0275 94.715C14.2881 94.0817 16.87 96.4457 18.9443 98.3455C20.232 99.5254 21.4489 100.639 22.2176 100.426C22.5764 100.327 22.9474 100.538 23.0463 100.899C23.1452 101.259 22.9348 101.632 22.576 101.731C21.0905 102.144 19.675 100.846 18.0367 99.3456C16.0886 97.5616 13.8811 95.5391 11.2837 96.0439C9.40026 96.41 7.57441 98.3717 6.73995 100.926C5.81231 103.765 6.30147 106.594 8.04845 108.494C12.177 112.984 18.0914 110.838 18.3411 110.744C18.6897 110.614 19.0775 110.791 19.2079 111.141C19.3382 111.491 19.1629 111.88 18.8148 112.011C18.78 112.024 17.0482 112.659 14.7311 112.659Z" fill="black"/>
<path d="M65.9727 109.37C66.6661 110.254 67.3106 111.09 68.0936 111.642C69.6272 112.773 71.7906 112.787 73.5061 112.043C77.9768 109.855 80.4814 103.971 80.4581 99.1334C80.4495 97.2119 80.0188 95.0901 78.4283 93.8826C76.5236 92.3715 73.7019 92.477 71.6394 93.6585C68.6763 95.3141 67.1512 99.6152 65.9731 102.736C66.2616 99.1174 67.6277 94.3874 70.9312 92.4396C73.4591 90.8719 76.976 90.7717 79.3601 92.708C82.9934 95.6141 82.031 101.897 80.5374 105.712C79.2636 108.846 77.3037 111.973 74.1199 113.444C72.4645 114.167 70.523 114.218 68.8369 113.547C67.1561 112.864 66.1153 111.126 65.9727 109.371V109.37Z" fill="black"/>
<path d="M59.6678 95.7315C59.6796 82.8064 52.9308 78.1741 52.2965 65.4797C51.9835 59.2151 33.8451 56.2405 27.4616 65.0147C24.7858 68.6928 12.9038 86.1759 15.122 102.539C16.3651 111.708 20.7577 116.142 28.992 117.506C30.7361 117.795 32.5894 117.275 35.9558 117.026C40.4236 116.696 54.0701 115.626 57.1444 108.817C57.1444 108.817 58.7446 106.343 59.2922 103.234C59.9285 99.6209 59.6682 95.7315 59.6682 95.7315H59.6678Z" fill="white"/>
<path d="M59.2915 103.234C58.7439 106.344 57.1436 108.817 57.1436 108.817C54.0694 115.626 40.4237 116.697 35.9551 117.027C32.5878 117.276 30.735 117.795 28.9917 117.506C20.7565 116.142 16.3652 111.71 15.1221 102.539C12.9035 86.1772 24.7858 68.6932 27.4609 65.0156C33.8448 56.2406 51.9832 59.2164 52.2966 65.481C52.6489 72.5269 54.8858 77.0894 56.8024 81.9651C57.8351 84.5905 58.7766 87.3074 59.2801 90.5521C59.5277 92.1355 59.6691 93.8461 59.6675 95.7324C59.6675 95.7324 59.9286 99.6214 59.2919 103.235L59.2915 103.234Z" fill="white"/>
<g opacity="0.2">
<path d="M59.2766 90.5512C56.1823 91.0048 50.8628 93.7196 42.1778 92.4071C33.2672 91.0589 28.707 82.272 28.707 82.272L34.7473 76.9092C34.7473 76.9092 47.827 79.5227 56.7985 81.9638C57.8312 84.5892 58.7727 87.3061 59.2761 90.5508L59.2766 90.5512Z" fill="black"/>
</g>
<path d="M33.6579 117.25C31.6522 117.486 30.2902 117.72 28.9895 117.505C24.7644 116.805 21.5512 115.297 19.2566 112.755C17.0777 110.345 15.7259 107.003 15.1194 102.539C15.1072 102.449 15.0949 102.359 15.0859 102.269C15.5927 103.757 16.2396 104.965 17.0528 105.366C17.9767 105.821 18.9567 106.061 20.2856 105.821C22.5156 105.414 30.2166 113.492 33.6579 117.251V117.25Z" fill="#EDEDED"/>
<path d="M33.6598 117.25C31.6541 117.486 30.2921 117.72 28.9913 117.505C22.9241 116.5 18.9447 113.829 16.7706 108.826C16.3763 107.428 16.2026 106.012 16.2341 104.637C16.4866 104.97 16.76 105.22 17.0547 105.366C17.9786 105.82 18.9586 106.061 20.2875 105.82C22.5175 105.413 30.2185 113.491 33.6598 117.25Z" fill="#5D5D6D"/>
<g opacity="0.2">
<path d="M59.2909 103.234C58.7433 106.343 57.143 108.817 57.143 108.817C54.0687 115.626 40.4263 116.697 35.9561 117.027C32.5872 117.276 30.7344 117.795 28.9911 117.506C28.3474 117.399 27.7279 117.274 27.1313 117.129C27.052 117.11 26.9764 117.091 26.8988 117.071C26.8383 117.056 26.779 117.041 26.7202 117.026C26.6004 116.994 26.4811 116.961 26.363 116.928C26.2433 116.896 26.1272 116.861 26.0112 116.826C25.8984 116.793 25.7872 116.758 25.6761 116.723C25.5465 116.681 25.4166 116.639 25.2903 116.595C25.0766 116.522 24.8657 116.446 24.6602 116.367C24.5507 116.324 24.4428 116.282 24.3369 116.238C24.229 116.194 24.1232 116.15 24.0186 116.104C23.914 116.059 23.8098 116.013 23.7068 115.966C23.6042 115.918 23.5012 115.871 23.4003 115.822C23.2994 115.773 23.1997 115.724 23.1004 115.673C23.0011 115.622 22.9018 115.57 22.8057 115.517C22.7081 115.465 22.612 115.412 22.516 115.359C22.3256 115.249 22.1372 115.137 21.9533 115.02C21.8621 114.963 21.7714 114.904 21.6819 114.844C21.5908 114.785 21.5017 114.724 21.4143 114.662C21.3268 114.599 21.239 114.537 21.1531 114.474C20.9795 114.345 20.8111 114.215 20.646 114.08C20.1507 113.674 19.6877 113.234 19.2578 112.757C21.0081 105.134 24.3026 93.4849 28.0708 93.5764C33.6664 93.7119 40.9755 101.874 47.516 102.219C55.5002 102.642 59.9185 98.0392 59.5311 92.6255C59.6202 93.6084 59.6676 94.6418 59.666 95.7331C59.666 95.7331 59.9271 99.6222 59.2905 103.236L59.2909 103.234Z" fill="black"/>
</g>
<path d="M39.4639 113.949C39.4639 113.949 39.0871 115.189 38.5575 116.787C37.5461 116.9 36.6573 116.974 35.956 117.027C32.5883 117.275 30.7355 117.794 28.991 117.506C22.9238 116.5 18.9443 113.83 16.7703 108.826C14.9575 102.41 17.8169 95.6159 23.7476 94.1668C31.4821 92.2776 39.4639 113.949 39.4639 113.949V113.949Z" fill="black"/>
<g opacity="0.2">
<path d="M33.6598 117.25C31.6541 117.486 30.2921 117.72 28.9913 117.505C22.9241 116.5 18.9447 113.829 16.7706 108.826C16.3763 107.428 16.2026 106.012 16.2341 104.637C16.4866 104.97 16.76 105.22 17.0547 105.366C17.9786 105.82 18.9586 106.061 20.2875 105.82C22.5175 105.413 30.2185 113.491 33.6598 117.25Z" fill="black"/>
</g>
<path d="M56.1658 83.4835C45.3913 90.9998 27.9852 85.9362 19.4023 79.1418C22.4403 72.2067 26.1148 66.8652 27.4593 65.0146C33.8441 56.2417 51.9812 59.2151 52.2951 65.4796C52.6665 72.9323 54.7126 78.179 56.1658 83.4835Z" fill="#777782"/>
<path d="M57.5957 84.0754C53.964 85.2188 50.4639 86.2255 49.3282 86.4997C39.0262 88.99 26.3355 84.6302 19.4023 79.1422C19.4596 79.0121 19.5168 78.8816 19.574 78.7515C19.594 78.7092 19.6128 78.667 19.6312 78.6247C19.7844 78.2812 19.9409 77.9414 20.0962 77.6065C20.0979 77.6032 20.0995 77.5995 20.1011 77.5946C20.256 77.2646 20.4109 76.9383 20.5678 76.6149C20.8036 76.1261 21.0427 75.6488 21.2805 75.1822C21.2924 75.16 21.3026 75.1383 21.3124 75.1177C21.4489 74.8522 21.5837 74.5916 21.7182 74.3347C21.7317 74.3092 21.7451 74.2854 21.757 74.262C22.0602 73.687 22.3618 73.1301 22.6597 72.5958C22.7051 72.5161 22.7488 72.4369 22.7929 72.359C22.9699 72.0425 23.1468 71.7347 23.3184 71.4351C23.45 71.2102 23.5796 70.9886 23.7058 70.7735C23.8775 70.4858 24.0463 70.2051 24.2093 69.9326C24.2379 69.8887 24.2632 69.8448 24.2902 69.8005C24.4283 69.5739 24.5648 69.3539 24.696 69.1405C24.7046 69.1303 24.7111 69.1204 24.716 69.1085C24.9874 68.6755 25.2485 68.2659 25.4941 67.8838C25.5313 67.828 25.5681 67.7722 25.602 67.718C25.8157 67.3913 26.0196 67.0868 26.2101 66.8028C26.2758 66.7047 26.3396 66.6099 26.4021 66.5188C26.4021 66.5188 26.4021 66.5172 26.4038 66.5172C26.8316 65.888 27.1904 65.382 27.4581 65.0151C33.842 56.2401 51.9804 59.216 52.2938 65.4805C52.6963 73.5315 55.5581 78.3391 57.5948 84.0758L57.5957 84.0754Z" fill="black"/>
<g opacity="0.2">
<path d="M55.4811 78.6822C51.9099 79.1102 48.1957 79.34 46.4356 79.1476C35.3923 77.9381 36.1152 69.4643 32.667 68.055C31.4492 67.5576 28.9172 67.3901 26.4023 66.5188C26.4023 66.5188 26.4023 66.5172 26.404 66.5172C26.8318 65.888 27.1906 65.382 27.4583 65.0151C33.8422 56.2401 51.9806 59.216 52.294 65.4805C52.567 70.9381 53.9699 74.9052 55.4811 78.6826V78.6822Z" fill="black"/>
</g>
<path d="M59.6679 95.7316C59.0202 92.5337 58.5498 89.47 57.6471 86.4481C56.279 81.9094 53.9129 77.5591 52.6894 72.8984C52.0498 70.5291 51.6551 68.0876 51.528 65.6346C51.4107 63.4491 49.0712 62.2228 47.2461 61.4931C41.8168 59.5071 34.3659 59.8556 29.7706 63.6256C28.8867 64.3401 28.1715 65.2463 27.5287 66.1767C20.4501 76.4628 14.1324 89.8332 15.8499 102.606C16.7641 109.227 19.6839 114.276 26.4 116.138C27.4867 116.438 28.6117 116.714 29.7408 116.81C30.8854 116.856 32.0112 116.657 33.1832 116.533C35.5526 116.251 37.9739 116.17 40.3297 115.874C45.4174 115.225 51.662 114.03 55.6186 110.624C56.1939 110.099 56.7056 109.498 57.1437 108.818C54.7624 116.04 42.1907 117.27 35.7156 117.804C33.6936 117.942 31.7203 118.415 29.6623 118.352C22.8946 117.566 17.7093 114.32 15.5275 107.619C10.9812 93.2376 18.5597 76.565 26.6877 64.8367C29.223 61.1278 33.7026 59.3171 38.0176 58.8837C42.1249 58.5172 46.4705 59.0093 50.0785 61.1615C51.5868 62.0747 53.0437 63.6556 53.0792 65.5517C53.2088 67.8988 53.5569 70.2287 54.1581 72.5032C56.1286 80.1196 61.325 87.5185 59.6671 95.7321L59.6679 95.7316Z" fill="black"/>
<path d="M39.4719 109.557C39.4719 109.557 39.4674 109.564 39.4609 109.58L39.4719 109.557Z" fill="#F9D3B7"/>
<path d="M25.1153 114.52C29.6885 119.763 37.4778 120.073 38.1815 119.981C38.8852 119.888 36.9213 99.9103 36.9213 99.9103C36.9213 99.9103 32.1548 91.1468 23.7476 94.167C23.7476 94.167 18.7972 97.5816 20.2875 105.82C21.2025 110.878 25.1153 114.52 25.1153 114.52Z" fill="#777782"/>
<path d="M38.181 119.981C37.4781 120.073 29.6892 119.763 25.1152 114.521C25.1152 114.521 21.2024 110.879 20.2874 105.82C18.7975 97.5826 23.7479 94.1667 23.7479 94.1667C32.1538 91.1473 36.9203 99.91 36.9203 99.91C36.9203 99.91 37.0605 101.338 37.2533 103.431C37.7793 109.169 38.6979 119.914 38.1806 119.981H38.181Z" fill="black"/>
<g opacity="0.2">
<path d="M38.1787 119.981C37.4759 120.073 29.687 119.763 25.113 114.521C25.113 114.521 21.2001 110.879 20.2852 105.82C20.2852 105.82 21.9365 105.494 23.9454 107.456C25.5232 108.997 26.9678 110.384 27.9318 108.095C28.8958 105.806 28.6997 104.531 29.839 102.538C30.2914 101.748 33.5205 102.38 37.2511 103.431C37.777 109.169 38.6957 119.914 38.1783 119.981L38.1787 119.981Z" fill="black"/>
</g>
<path d="M25.1134 114.521C27.4125 116.272 29.8848 117.496 32.6056 118.327C34.3763 118.861 36.2291 119.318 38.0873 119.31C37.9234 119.319 37.6664 119.482 37.6088 119.673C37.6276 119.602 37.6329 119.474 37.6414 119.372C37.5961 112.918 36.7992 106.416 36.2488 99.9765L36.328 100.234C36.1728 100.005 35.9811 99.7376 35.7976 99.4934C33.7821 96.8036 31.0037 94.4581 27.5678 94.044C26.3042 93.8663 25.0235 93.9672 23.7461 94.1667C26.0873 92.7598 29.195 92.6859 31.6678 93.881C34.1826 95.0524 36.2353 97.1241 37.5111 99.5849C37.9508 102.528 38.0762 105.542 38.3754 108.512C38.6385 112.157 39.0427 115.774 38.9871 119.457C38.97 119.691 38.9532 119.95 38.8572 120.183C38.7685 120.395 38.5858 120.577 38.3488 120.635C38.2385 120.662 38.2319 120.651 38.142 120.663C33.2656 120.641 27.7362 118.937 25.1143 114.52L25.1134 114.521Z" fill="black"/>
<path d="M39.486 119.68C46.639 117.543 43.9562 104.68 42.2006 101.358C39.877 96.4432 34.4784 95.6438 31.1495 97.6482C29.7977 98.4621 25.9421 101.735 27.0601 108.339C28.2379 115.295 33.4461 121.446 39.486 119.68Z" fill="black"/>
<g opacity="0.3">
<path d="M43.5277 105.349C43.2326 104.349 42.911 103.519 42.616 102.962C40.2924 98.0466 34.8925 97.2463 31.5636 99.2507C30.2114 100.065 26.3574 103.339 27.4738 109.943C27.5139 110.184 27.56 110.422 27.6119 110.661C27.3782 109.905 27.1943 109.127 27.0603 108.338C25.9418 101.734 29.7974 98.4619 31.15 97.6481C34.4773 95.6436 39.8772 96.4439 42.2008 101.357C42.6413 102.192 43.1411 103.629 43.5281 105.349L43.5277 105.349Z" fill="white"/>
</g>
<g opacity="0.2">
<path d="M39.4868 119.679C34.5352 121.128 30.1389 117.253 28.0703 111.975C30.5185 116.094 34.4657 118.555 38.7696 117.177C43.1033 115.788 44.1205 110.418 43.5553 105.469C44.6856 110.584 44.8005 118.092 39.4868 119.679Z" fill="black"/>
</g>
<path d="M37.3944 120.662C35.8546 120.662 34.3336 120.207 32.907 119.31C29.6807 117.281 27.1855 113.12 26.3952 108.453C25.0916 100.752 30.214 97.4225 30.8021 97.0683C32.7154 95.9163 35.202 95.6372 37.4533 96.3209C39.7916 97.0314 41.6906 98.712 42.8021 101.055C44.2667 103.84 45.9409 111.521 43.9328 116.333C43.071 118.399 41.6395 119.743 39.6775 120.329C39.6763 120.329 39.6751 120.33 39.6739 120.33C38.9158 120.552 38.1529 120.662 37.3944 120.662V120.662ZM34.9548 97.3039C33.7198 97.3039 32.5086 97.6187 31.4951 98.2285C30.9876 98.5343 26.5701 101.411 27.7237 108.225C28.4515 112.524 30.7118 116.332 33.6222 118.163C35.4411 119.307 37.3503 119.599 39.2955 119.03C40.8504 118.565 41.9921 117.481 42.6901 115.81C44.5127 111.442 42.9292 104.181 41.6052 101.675C41.6002 101.666 41.5958 101.657 41.5917 101.648C40.3796 99.0842 38.4602 98.0401 37.0634 97.6158C36.3748 97.4065 35.6609 97.3035 34.9552 97.3035L34.9548 97.3039Z" fill="black"/>
<path d="M59.1172 12.2757C60.9524 8.795 66.7536 3.93204 73.5328 7.08728C78.8804 9.57642 81.3878 17.2429 77.2547 22.7814C74.3386 26.6889 69.0605 27.339 65.8146 26.7694L59.1172 12.2757Z" fill="black"/>
<path d="M61.5668 12.4222C63.1981 10.1379 66.5789 7.71728 70.3565 8.34069C71.1104 8.46504 71.8738 8.70554 72.6253 9.05563C74.6886 10.016 76.2852 12.0434 76.8961 14.4788C77.5218 16.9729 77.0355 19.4591 75.5271 21.4808C73.6159 24.0422 70.1019 24.9418 67.2675 24.76L61.5664 12.4226L61.5668 12.4222Z" fill="black"/>
<g opacity="0.2">
<path d="M76.5704 19.6373C76.3072 20.2821 75.9587 20.9014 75.5267 21.4809C73.6151 24.0406 70.1011 24.9423 67.2675 24.7605L61.5664 12.4231C61.765 12.1461 61.9881 11.8662 62.2366 11.5908L67.3627 22.6814C70.4321 22.8779 74.1582 22.0313 76.5704 19.6377V19.6373Z" fill="black"/>
</g>
<path d="M67.9602 27.6197C67.1073 27.6197 66.3362 27.547 65.7011 27.4358C65.3346 27.3714 65.0894 27.0209 65.1535 26.6528C65.2177 26.2846 65.5659 26.0388 65.9332 26.1028C69.3414 26.7012 74.1704 25.7897 76.7184 22.3755C78.5009 19.9869 79.0767 17.0528 78.3391 14.1139C77.6198 11.2463 75.718 8.84914 73.2518 7.70122C66.6038 4.60795 61.2607 9.66052 59.7148 12.5921C59.5407 12.9221 59.1329 13.0485 58.8039 12.8732C58.475 12.6984 58.3495 12.2888 58.524 11.9584C59.4095 10.279 61.3588 7.98563 64.1744 6.58613C66.3554 5.50182 69.7987 4.6022 73.8186 6.47327C76.6497 7.79069 78.8282 10.5236 79.6459 13.7831C80.4722 17.0771 79.7984 20.5048 77.7968 23.1873C75.1965 26.6712 71.0455 27.6197 67.9602 27.6197Z" fill="black"/>
<path d="M10.1951 52.3088C5.6525 40.212 12.7536 20.9575 16.5451 16.2666C19.1886 13.6321 22.6025 8.45151 36.1583 6.77416C40.9938 6.01038 46.5862 5.62624 48.7251 0.67627C51.0046 1.05262 53.2072 3.37595 52.4271 6.2004C58.5797 4.85754 59.8898 8.19048 63.4431 5.6603C63.9057 7.44682 63.8583 10.1026 61.1665 11.828C74.0659 18.8333 74.6879 35.1483 73.8935 46.6419C77.6555 64.8346 57.158 66.9917 48.7958 67.8396C41.5345 68.3871 16.2942 68.548 10.1955 52.308L10.1951 52.3088Z" fill="white"/>
<path d="M63.6527 6.9953C63.267 6.73469 62.8673 6.48311 62.457 6.24343C62.7672 6.09896 63.0933 5.90894 63.4407 5.66064C63.5457 6.06736 63.6245 6.51963 63.6527 6.9953Z" fill="white"/>
<g opacity="0.2">
<path d="M60.5442 62.8442C59.5884 60.4346 57.4405 57.0015 53.8452 58.1856C51.1783 59.0639 48.9908 62.6882 48.0526 64.8638C40.4394 65.3378 19.0588 65.1392 10.4023 52.8342C16.8394 68.5444 41.6106 68.3822 48.7926 67.8401C55.933 67.1149 71.919 65.4367 74.0979 53.6374C71.514 58.6498 66.043 61.3326 60.5434 62.8442H60.5442Z" fill="black"/>
</g>
<path d="M43.9834 68.683C40.0424 68.683 34.4868 68.3723 28.9017 67.0278C18.7619 64.5867 12.2557 59.7147 9.56437 52.5477C6.99069 45.6942 8.15779 37.2377 9.5897 31.35C11.3955 23.9273 14.1895 18.1068 16.0215 15.8401C16.0366 15.8212 16.0529 15.8032 16.0701 15.7864C16.3463 15.5114 16.6369 15.2011 16.945 14.8728C19.6482 11.9892 23.7327 7.63273 36.0641 6.10436C36.49 6.03705 36.9211 5.97302 37.3555 5.90818C41.7558 5.25275 46.3058 4.57517 48.1063 0.407442C48.2293 0.123027 48.528 -0.0411374 48.8337 0.00893272C50.3077 0.252306 51.6758 1.16465 52.4935 2.44924C53.0558 3.33285 53.3129 4.33836 53.2483 5.35823C55.7717 4.96382 57.4517 5.34838 58.8309 5.6644C60.4549 6.03623 61.4348 6.26072 63.0523 5.1087C63.2329 4.98024 63.465 4.94864 63.673 5.02498C63.881 5.10131 64.0383 5.27533 64.0943 5.49038C64.4122 6.71874 64.8139 9.61091 62.3902 11.7512C67.7824 15.0021 71.4553 20.2545 73.3159 27.3809C74.6849 32.6243 75.0956 38.9101 74.5713 46.5971C75.5954 51.6427 74.8659 55.9114 72.403 59.2854C67.0088 66.6736 54.753 67.9168 48.8627 68.5143C47.962 68.5824 46.2363 68.6838 43.9834 68.6838V68.683ZM17.0459 16.7205C15.2507 18.9621 12.5704 24.8006 10.899 31.6709C8.93832 39.731 8.91216 46.9755 10.8255 52.07C13.3497 58.7917 19.5371 63.3813 29.2164 65.7116C37.8038 67.7793 46.3348 67.3471 48.745 67.1653C54.424 66.5891 66.2773 65.3866 71.3164 58.4843C73.5591 55.4124 74.2039 51.4745 73.2334 46.7798C73.2207 46.719 73.2166 46.6571 73.2207 46.5955C74.4508 28.7919 70.4027 17.6139 60.8451 12.4239C60.6351 12.3098 60.5006 12.0927 60.4921 11.853C60.4835 11.6133 60.6016 11.3872 60.803 11.2583C62.8279 9.96058 63.1054 8.11824 62.9591 6.75157C61.2934 7.6159 59.9984 7.31958 58.5318 6.98387C57.0402 6.6424 55.3496 6.25539 52.5695 6.86197C52.3391 6.91287 52.0988 6.83776 51.9365 6.66539C51.7743 6.49302 51.7138 6.248 51.7772 6.01981C52.1249 4.76149 51.7412 3.77979 51.3583 3.17813C50.8438 2.36962 50.0081 1.74087 49.1021 1.46015C46.8705 5.85934 41.9307 6.59521 37.5537 7.24735C37.1193 7.31178 36.6882 7.37622 36.2627 7.44353C36.2554 7.44476 36.248 7.44599 36.2407 7.44681C24.3833 8.91403 20.4978 13.0584 17.9266 15.8011C17.6201 16.1278 17.33 16.4373 17.0464 16.7213L17.0459 16.7205Z" fill="black"/>
<path d="M38.9844 29.0017C40.2312 28.5264 42.0942 27.3161 44.4934 28.0614C47.2845 28.9286 46.8464 32.4573 45.314 32.7672C42.4591 33.3442 41.6668 30.1947 38.9844 29.0017Z" fill="black"/>
<path d="M65.1794 30.7303C63.9073 29.5811 61.9114 28.9019 60.4039 29.5955C58.7644 30.3498 58.4547 32.7253 59.7619 33.29C62.0937 34.2972 62.5963 31.414 65.1794 30.7303Z" fill="black"/>
<path d="M46.7299 46.9231C48.642 41.9485 46.8897 34.8262 39.0795 34.47C30.6536 34.0854 20.9829 42.4997 23.7245 50.987C25.6872 57.0631 34.0777 54.5518 38.9712 53.236C43.6879 51.9678 45.4214 50.327 46.7299 46.9231Z" fill="#C8C8C8"/>
<path d="M58.3052 47.1968C56.2901 42.9142 58.7404 36.2471 62.5192 35.8838C66.7369 35.4788 70.5618 38.0722 71.9182 42.8079C72.9594 46.4425 72.9189 51.1585 70.0723 51.809C68.9354 52.0688 66.734 51.5234 65.4267 51.4076C62.3692 51.1376 59.8969 50.5794 58.3052 47.1968Z" fill="#C8C8C8"/>
<path d="M30.0337 12.5424C29.0104 7.9992 23.8863 0.646687 15.176 2.14305C8.30491 3.32339 3.08235 11.296 6.09451 18.9014C8.21991 24.2675 14.0444 26.6487 17.9254 27.0066C17.9254 27.0066 20.3094 27.2212 24.9288 21.5231C29.8081 15.5044 30.0337 12.5424 30.0337 12.5424Z" fill="black"/>
<g opacity="0.2">
<path d="M26.1634 16.0893C25.4875 17.2003 24.5509 18.5555 23.2547 20.1548C20.1089 24.0345 18.2981 24.7203 17.9263 24.8261C17.7285 24.8044 17.5229 24.7773 17.3162 24.7428C14.0658 24.2064 9.70382 22.1453 8.10232 18.0999C7.83914 17.4342 7.6479 16.7566 7.52734 16.075C9.87954 19.664 14.5353 21.9044 18.0673 21.3881C22.5857 20.7278 26.163 16.0893 26.163 16.0893H26.1634Z" fill="black"/>
</g>
<path d="M30.033 12.543C28.4009 8.33872 25.0544 4.46608 20.6974 3.14045C16.3918 1.86202 11.5837 3.35305 8.78236 6.89243C5.92221 10.2988 5.1519 15.3428 7.10362 19.3763C9.15014 23.5518 13.5435 25.8546 17.9251 27.0071C15.5124 27.115 13.085 26.4481 10.956 25.292C2.38493 20.5915 2.39555 8.67813 10.285 3.29313C13.4017 1.14052 17.5238 0.645976 21.1118 1.78076C25.8157 3.27917 29.4221 7.66565 30.0334 12.543H30.033Z" fill="black"/>
<path d="M56.7309 46.823C56.7207 47.9237 55.4898 48.8845 54.5454 49.4603C53.8916 49.8592 53.0673 49.8514 52.4208 49.4402C51.4875 48.8467 50.2746 47.863 50.2852 46.7622C50.302 44.9745 56.7476 45.0352 56.7309 46.823Z" fill="black"/>
<g opacity="0.35">
<path d="M55.2048 46.4211C55.2028 46.6247 54.7491 46.8003 54.401 46.9054C54.1599 46.9781 53.855 46.9752 53.6151 46.898C53.2686 46.7864 52.8183 46.6025 52.8203 46.399C52.8236 46.0682 55.2081 46.0907 55.2052 46.4215L55.2048 46.4211Z" fill="white"/>
</g>
<path d="M57.6585 58.3788C56.1228 56.9917 53.941 57.4201 52.297 58.4063C51.2239 59.0413 50.2856 59.8588 49.3281 60.6677C50.0465 59.3408 51.0837 58.1203 52.3807 57.3208C53.1641 56.841 54.0599 56.5148 54.9839 56.4926C56.1334 56.4491 57.4697 57.1648 57.6585 58.3788Z" fill="black"/>
<path d="M53.0039 10.9128C54.9315 11.6216 57.0467 12.0464 59.0863 11.7809C59.7377 11.675 60.3543 11.4841 60.9027 11.2055L61.4295 12.4511C58.5493 13.3515 55.5294 12.3 53.0039 10.9128Z" fill="black"/>
<path d="M50.6367 7.59365C51.0507 6.91114 51.5174 6.24915 52.0752 5.61712C52.709 4.93214 53.7318 5.83915 53.1336 6.55531C53.0388 6.66325 52.919 6.73466 52.7907 6.76996C52.0756 6.96655 51.3453 7.25301 50.6371 7.59365H50.6367Z" fill="black"/>
<path d="M37.8691 116.287C40.2586 115.76 41.6684 112.92 41.0181 109.941C40.3678 106.963 37.9035 104.976 35.514 105.502C33.1246 106.028 31.7147 108.869 32.365 111.847C33.0154 114.825 35.4796 116.813 37.8691 116.287Z" fill="white"/>
<path d="M39.6186 104.942C40.4965 104.749 41.0144 103.705 40.7755 102.611C40.5367 101.517 39.6314 100.787 38.7535 100.98C37.8757 101.174 37.3577 102.217 37.5966 103.311C37.8355 104.405 38.7408 105.135 39.6186 104.942Z" fill="white"/>
<path d="M31.435 107.589C32.3129 107.396 32.8308 106.352 32.592 105.258C32.3531 104.164 31.4478 103.434 30.5699 103.627C29.6921 103.821 29.1741 104.864 29.413 105.958C29.6519 107.052 30.5572 107.782 31.435 107.589Z" fill="white"/>
<path d="M34.9577 104.737C35.9317 104.522 36.5063 103.364 36.2413 102.151C35.9762 100.937 34.9718 100.127 33.9979 100.341C33.0239 100.556 32.4492 101.714 32.7143 102.927C32.9793 104.141 33.9837 104.951 34.9577 104.737Z" fill="white"/>
<path d="M54.2087 49.3577C54.0126 50.3517 53.1699 51.8275 53.0616 51.8197C52.9893 51.8144 53.1491 50.3484 52.6914 49.2998" fill="black"/>
<path d="M30.3242 43.1674C31.9196 46.3855 35.1161 48.6263 38.7073 48.0402C41.2953 47.7144 42.811 45.7469 43.618 43.3928C43.9286 42.5379 44.1607 41.6263 44.3769 40.6323C45.3045 42.5309 45.3119 44.7931 44.4505 46.7708C43.5057 48.9628 41.368 50.277 39.0179 50.4925C34.6089 51.0252 30.4015 47.5949 30.3242 43.1674Z" fill="black"/>
<path d="M69.9611 43.9593C70.0592 46.5285 68.6215 49.096 65.8378 49.3406C64.0447 49.5323 62.2838 48.741 61.2164 47.314C59.7534 45.3855 59.5017 42.8049 60.1212 40.5398C60.3357 41.2675 60.5266 41.9697 60.7587 42.6411C61.3373 44.3944 62.4129 46.4062 64.0577 47.0846C65.0949 47.5061 66.3286 47.5447 67.3314 47.0071C68.4483 46.4144 69.2697 45.0375 69.9611 43.9598V43.9593Z" fill="black"/>
<path d="M54.4035 80.5102C53.4656 72.9804 48.9063 67.6915 51.3938 62.7243C52.6577 60.2006 55.3556 60.0131 56.4651 60.1838C61.9043 61.0219 65.5666 68.7951 64.981 74.9504C64.3186 81.9134 58.3032 81.9114 54.4035 80.5102Z" fill="#777782"/>
<path d="M64.9799 74.9495C64.9378 75.3895 64.8749 75.7999 64.7923 76.1857L64.7907 76.1873C63.5652 81.9076 58.0553 81.8231 54.402 80.5098C54.0918 78.0239 53.3869 75.7806 52.6717 73.7138C51.2219 69.5218 49.7282 66.0498 51.3939 62.7242C52.6579 60.2014 55.3558 60.013 56.4657 60.1838C61.9036 61.0218 65.5659 68.795 64.9803 74.9499L64.9799 74.9495Z" fill="black"/>
<g opacity="0.3">
<path d="M60.9784 62.7521C59.9159 61.9457 58.7361 61.3965 57.4669 61.2012C56.2765 61.0181 53.3857 61.2205 52.0306 63.9247C50.2444 67.4899 51.8467 71.2119 53.3996 75.7051C53.9361 77.2581 54.4674 78.9022 54.8527 80.6629C54.6982 80.6136 54.5495 80.5623 54.402 80.5098C54.0918 78.0239 53.3869 75.7806 52.6717 73.7138C51.2219 69.5218 49.7282 66.0498 51.3939 62.7242C52.6579 60.2014 55.3558 60.013 56.4657 60.1838C58.1697 60.446 59.7001 61.39 60.978 62.7525L60.9784 62.7521Z" fill="white"/>
</g>
<g opacity="0.2">
<path d="M64.7908 76.1874C63.5653 81.9077 58.0554 81.8232 54.4021 80.5099C54.0919 78.024 53.387 75.7807 52.6719 73.7139C54.2636 73.7262 56.6076 74.0061 58.6795 75.2669C61.2409 76.8268 63.3442 77.9608 64.7908 76.1878V76.1874Z" fill="black"/>
</g>
<path d="M58.4455 81.9179C56.5477 81.9179 54.8653 81.3951 54.1751 81.1472C53.936 81.0614 53.7652 80.8472 53.7333 80.5939C53.3778 77.7391 52.4637 75.1449 51.6574 72.856C50.3072 69.0232 49.1409 65.7133 50.7906 62.4197C52.1862 59.6326 55.1787 59.3006 56.5661 59.5144C62.4266 60.4173 66.2618 68.5882 65.6504 75.0144C65.3926 77.7256 64.3505 79.6816 62.5533 80.8283C61.2635 81.6511 59.7994 81.9179 58.4455 81.9179ZM55.0141 80.0029C56.3745 80.4359 59.5088 81.1681 61.8308 79.6861C63.2586 78.775 64.0926 77.16 64.3088 74.8859C64.8527 69.1681 61.4291 61.6334 56.3614 60.8523C55.3087 60.6902 53.0419 60.9361 51.9941 63.0279C50.6027 65.8064 51.6288 68.7183 52.9275 72.405C53.7174 74.6471 54.6079 77.1744 55.0136 80.0029H55.0141Z" fill="black"/>
<path d="M60.6705 87.612C59.9112 88.5629 58.9366 88.7423 57.096 88.8092C53.8423 88.9253 49.2634 90.862 43.1259 90.0326C37.0129 89.2085 31.0927 85.0802 28.9383 82.5553C28.8558 82.4585 28.779 82.3633 28.707 82.2717L32.6656 68.0547C33.1687 68.2837 33.8683 68.7696 34.7256 69.3926L34.7273 69.3943C37.5216 71.4295 41.9763 74.9118 46.648 75.5738C50.2119 76.079 54.593 74.5244 58.2463 76.6372C59.5908 77.4153 60.4886 78.8608 61.0039 80.47V80.4737C61.8752 83.1902 61.6578 86.3771 60.6709 87.6112L60.6705 87.612Z" fill="black"/>
<g opacity="0.3">
<path d="M61.0071 80.4708V80.4745C57.0101 74.9286 52.1296 77.5995 45.9798 76.6893C39.9265 75.795 34.8461 69.5395 34.7305 69.395C37.5248 71.4302 41.9795 74.9126 46.6512 75.5746C50.2151 76.0798 54.5962 74.5252 58.2495 76.638C59.594 77.4161 60.4918 78.8616 61.0071 80.4708Z" fill="white"/>
</g>
<g opacity="0.2">
<path d="M60.6735 87.6121C59.9143 88.563 58.9396 88.7423 57.0991 88.8092C53.8454 88.9254 49.2665 90.8621 43.1289 90.0327C37.0159 89.2086 31.0958 85.0802 28.9414 82.5554C31.1645 82.869 37.8328 87.6999 43.6128 88.1772C49.4626 88.6615 52.9917 87.0186 57.4182 87.2177C60.6932 87.3654 61.2698 83.2494 61.0066 80.4746C61.8778 83.1911 61.6604 86.378 60.6735 87.6121Z" fill="black"/>
</g>
<path d="M32.666 68.0556C34.1429 68.592 35.4334 69.5388 36.7754 70.3272C38.7443 71.5527 40.7083 72.6805 42.7924 73.6474C44.8353 74.616 46.9917 75.1549 49.2618 74.9813C52.3634 74.822 55.9452 74.3587 58.7682 76.1358C61.8686 78.1488 62.7979 83.0508 61.9892 86.4613C61.3255 89.092 59.3816 89.5365 56.9824 89.5792C54.5934 89.7618 52.2784 90.4702 49.8547 90.7571C46.6934 91.1909 43.3915 91.0957 40.3078 90.1985C37.2491 89.2755 34.3358 87.8485 31.8491 85.8379C30.6355 84.8233 29.4622 83.6803 28.707 82.2726C29.8831 83.2798 31.1732 84.1355 32.4797 84.9522C36.3055 87.3638 40.5632 89.3182 45.1385 89.4462C46.6411 89.5086 48.1498 89.4314 49.6553 89.2312C51.9576 88.9562 54.2354 88.2975 56.5925 88.075C59.1486 87.9544 60.4428 88.0315 60.7726 85.0429C60.9774 82.9178 60.5953 80.5854 59.4404 78.7677C58.2635 76.879 56.0074 76.3007 53.9159 76.1998C51.6462 76.0857 49.2295 76.5318 46.885 76.2856C46.0608 76.1871 45.2619 76.0262 44.4805 75.7972C41.3858 74.9554 38.6716 73.0963 36.2466 71.0672C35.028 70.0847 33.9431 68.9577 32.6656 68.0552L32.666 68.0556Z" fill="black"/>
<path d="M54.6328 59.5796C56.6691 59.7975 58.1909 61.5044 58.951 63.3016C57.9654 62.0088 56.4893 60.8268 54.7934 60.9151C54.7599 60.9188 54.699 60.9225 54.6974 60.9315L54.6328 59.5796Z" fill="black"/>
<path d="M52.749 60.6365C54.3947 61.5287 55.6733 63.1043 56.1658 64.9097C55.3754 63.5188 54.0641 62.4599 52.5525 61.9781C52.463 61.9494 52.3555 61.9194 52.293 61.91L52.749 60.6365Z" fill="black"/>
<path d="M80.0586 42.4019C80.0586 42.4019 84.0209 42.7459 86.1352 40.0404C87.0837 40.5395 88.136 40.8395 89.2483 40.8949C91.0848 40.9864 92.9201 40.9864 94.7565 40.8949C99.0322 40.6827 102.433 36.8355 102.444 32.1306V31.9677C102.432 27.2627 99.0318 23.4139 94.7565 23.2017C92.9201 23.1118 91.0848 23.1118 89.2483 23.2017C84.9726 23.4139 81.5722 27.2627 81.5612 31.9677V32.1306C81.5645 33.7923 81.9915 35.3466 82.732 36.6726C82.4022 38.5987 81.6732 41.1055 80.059 42.4019H80.0586Z" fill="white"/>
<path d="M91.4876 35.198C90.7982 35.1401 90.2138 35.631 90.1566 36.3151C90.1006 36.9882 90.6065 37.5821 91.284 37.6391C91.9542 37.6953 92.5451 37.1938 92.6011 36.5207C92.6571 35.8477 92.1577 35.2542 91.4876 35.198Z" fill="#2468FF"/>
<path d="M92.2568 26.822C90.8707 26.7055 89.6284 27.3687 89.0121 28.5581C88.9165 28.7497 88.9079 28.9722 88.988 29.1683C89.0669 29.3616 89.2254 29.511 89.4163 29.5763L89.8756 29.7445L89.8874 29.7478C89.941 29.7634 89.9961 29.7737 90.0509 29.7782C90.3684 29.8049 90.6684 29.6448 90.8171 29.3698C90.9634 29.1174 91.3055 28.7083 91.9691 28.7641C92.737 28.8285 93.0381 29.44 92.9932 29.9805C92.9458 30.5481 92.5674 30.9019 92.0884 31.3497C91.5343 31.8676 90.8449 32.5124 90.6181 33.6738L90.6152 33.6902C90.5846 33.8983 90.641 34.1113 90.7697 34.2743C90.896 34.4339 91.0762 34.5312 91.2773 34.548L91.8465 34.596C92.2045 34.626 92.5388 34.3785 92.6246 34.0206L92.627 34.0095C92.7656 33.3393 93.1857 32.9433 93.6715 32.484C94.2735 31.916 94.9551 31.2721 95.0589 30.0277C95.1946 28.4013 93.9372 26.9628 92.2564 26.8216L92.2568 26.822Z" fill="#2468FF"/>
<path d="M80.5183 42.977C80.2273 42.977 80.043 42.9622 80.0091 42.9593C79.7823 42.9396 79.5898 42.7833 79.524 42.5641C79.4578 42.3453 79.5314 42.1077 79.7091 41.9649C81.1423 40.8137 81.8247 38.5429 82.1471 36.7687C81.4005 35.3622 81.0054 33.7637 81.0021 32.1319V31.9677C81.0144 26.966 84.6236 22.8709 89.2193 22.6432C91.0647 22.5529 92.9363 22.5529 94.7818 22.6432C99.3779 22.8709 102.987 26.9664 102.999 31.9665V32.131C102.987 37.1315 99.3779 41.2262 94.7822 41.4539C92.9367 41.5459 91.0647 41.5455 89.2193 41.4539C88.1956 41.403 87.2083 41.1613 86.2778 40.7345C84.4327 42.7537 81.6568 42.9774 80.5187 42.9774L80.5183 42.977ZM92.0009 23.6946C91.0896 23.6946 90.1788 23.7168 89.2736 23.7607C85.2709 23.9593 82.1267 27.5648 82.1165 31.9689V32.1306C82.1194 33.6397 82.4998 35.1164 83.2162 36.3989C83.2787 36.5109 83.3012 36.641 83.2795 36.7675C83.0102 38.3418 82.4688 40.3409 81.3842 41.8065C82.631 41.6756 84.5083 41.2151 85.6959 39.6949C85.8618 39.4827 86.1548 39.4195 86.3926 39.5447C87.2949 40.0195 88.2646 40.2855 89.2748 40.336C91.0839 40.4259 92.9184 40.4259 94.7279 40.336C98.731 40.1377 101.875 36.5327 101.886 32.1294V31.9677C101.875 27.5648 98.731 23.9593 94.7283 23.7607C93.8239 23.7164 92.9126 23.6946 92.0018 23.6946H92.0009Z" fill="#2468FF"/>
</g>
<defs>
<clipPath id="clip0_9_29693">
<rect width="103" height="122" fill="white"/>
</clipPath>
</defs>
</svg>
