<svg width="26" height="25" viewBox="0 0 26 25" fill="none" xmlns="http://www.w3.org/2000/svg">
<path d="M12.8957 21.3802C13.0175 21.8391 13.3593 22.5595 13.3686 23.2828C13.3785 24.1611 12.7635 24.5852 11.9278 24.1727C9.08865 22.7652 6.13078 21.5274 3.48751 19.8056C0.702528 17.9905 0.101151 14.9322 0.457056 11.7857C0.970134 7.2438 3.11942 3.52736 7.25715 1.64188C11.7951 -0.426041 16.5332 -0.460194 20.7769 2.68071C23.6895 4.83498 25.4733 7.78881 25.0323 11.5666C24.4996 16.1492 21.8014 19.1358 17.5472 20.5856C16.0371 21.1009 14.3655 21.1432 12.896 21.3832L12.8957 21.3802ZM9.71143 15.1785C11.0356 17.3222 13.938 17.9366 16.4447 16.8942C19.5882 15.5894 21.7035 12.3651 21.1393 9.74426C20.6606 7.51437 18.6246 5.19932 16.9723 5.25762C19.278 7.85906 20.0254 10.6049 17.8842 13.5367C15.7977 16.3946 13.0964 16.9853 9.71405 15.1753L9.71143 15.1785ZM12.9891 12.3644C14.2806 12.2313 15.311 11.0302 15.2004 9.78634C15.1176 8.85567 14.0922 7.83296 13.3032 7.89571C12.4297 7.96678 10.9113 9.98492 11.0142 10.9404C11.1427 12.1557 11.6243 12.5017 12.9917 12.3611L12.9891 12.3644Z" fill="#C6FF00"/>
</svg>
