<svg width="311" height="17" viewBox="0 0 311 17" fill="none" xmlns="http://www.w3.org/2000/svg">
<path d="M310.992 0.306976C310.44 0.733999 310.156 1.19363 309.42 1.48049C297.162 6.26901 284.671 10.9011 268.158 13.5284C252.196 16.071 235.7 16.7197 218.752 16.1231C204.496 15.6211 190.784 14.0663 176.98 12.6809C158.719 10.8489 140.534 8.84418 122.072 7.40013C105.902 6.13536 89.3887 5.92023 72.842 6.62107C50.4259 7.56965 29.9411 10.6109 10.5099 14.917C7.28253 15.6309 3.99661 16.3057 0.735777 17C0.493305 16.9185 0.250833 16.837 0 16.7555C0.668889 16.3024 1.22072 15.8135 2.03175 15.3995C9.57347 11.5563 19.749 8.99088 30.7605 7.02527C53.4275 2.98648 77.4741 1.52939 102.256 2.11614C128.201 2.72896 153.017 5.5258 177.866 8.26722C189.446 9.54503 201.219 10.6175 213.058 11.4683C240.232 13.4176 265.708 11.289 289.286 5.86155C295.055 4.53158 299.738 2.48122 304.888 0.743787C306.527 0.189635 308.074 -0.361267 311 0.306976H310.992Z" fill="black"/>
</svg>
