<svg width="24" height="24" viewBox="0 0 24 24" fill="none" xmlns="http://www.w3.org/2000/svg">
<g filter="url(#filter0_d_1_29352)">
<path d="M20.466 1.96681L14.78 0.22081C13.5249 -0.161429 12.17 -0.0361962 11.0063 0.56961C9.84251 1.17542 8.96277 2.21347 8.556 3.46081L8.368 3.99981H5C3.6744 4.00139 2.40356 4.52869 1.46622 5.46602C0.528882 6.40336 0.00158786 7.67421 0 8.9998L0 18.9998C0.00158786 20.3254 0.528882 21.5962 1.46622 22.5336C2.40356 23.4709 3.6744 23.9982 5 23.9998H11C11.7575 23.9971 12.5044 23.8215 13.1838 23.4864C13.8631 23.1512 14.457 22.6653 14.92 22.0658C15.1482 22.0989 15.3784 22.1163 15.609 22.1178C16.6828 22.1186 17.7281 21.7721 18.5887 21.1299C19.4493 20.4877 20.0791 19.5844 20.384 18.5548L23.8 8.1558C24.1649 6.8931 24.0202 5.53765 23.3968 4.38049C22.7735 3.22333 21.7212 2.35675 20.466 1.96681V1.96681ZM11 21.9998H5C4.20435 21.9998 3.44129 21.6837 2.87868 21.1211C2.31607 20.5585 2 19.7954 2 18.9998V8.9998C2 8.20415 2.31607 7.44109 2.87868 6.87848C3.44129 6.31587 4.20435 5.9998 5 5.9998H11C11.7956 5.9998 12.5587 6.31587 13.1213 6.87848C13.6839 7.44109 14 8.20415 14 8.9998V18.9998C14 19.7954 13.6839 20.5585 13.1213 21.1211C12.5587 21.6837 11.7956 21.9998 11 21.9998V21.9998ZM21.887 7.5628L18.475 17.9628C18.3054 18.5381 17.9669 19.0492 17.5033 19.4297C17.0396 19.8103 16.4723 20.0427 15.875 20.0968C15.9571 19.7369 15.999 19.369 16 18.9998V8.9998C15.9984 7.67421 15.4711 6.40336 14.5338 5.46602C13.5964 4.52869 12.3256 4.00139 11 3.99981H10.493C10.7511 3.27238 11.2797 2.67244 11.9688 2.32472C12.6579 1.977 13.4545 1.90827 14.193 2.13281L19.879 3.87881C20.6279 4.1099 21.2569 4.62436 21.632 5.31253C22.0071 6.0007 22.0986 6.80816 21.887 7.5628V7.5628ZM12 12.9998C12 14.4498 10.456 16.3908 9.286 17.3778C8.92652 17.6819 8.47088 17.8488 8 17.8488C7.52912 17.8488 7.07348 17.6819 6.714 17.3778C5.544 16.3908 4 14.4498 4 12.9998C4 12.4694 4.21071 11.9607 4.58579 11.5856C4.96086 11.2105 5.46957 10.9998 6 10.9998C6.53043 10.9998 7.03914 11.2105 7.41421 11.5856C7.78929 11.9607 8 12.4694 8 12.9998C8 12.4694 8.21071 11.9607 8.58579 11.5856C8.96086 11.2105 9.46957 10.9998 10 10.9998C10.5304 10.9998 11.0391 11.2105 11.4142 11.5856C11.7893 11.9607 12 12.4694 12 12.9998V12.9998Z" fill="black"/>
<path d="M14.7363 0.364303L20.4215 2.11005C20.4216 2.11009 20.4217 2.11012 20.4218 2.11015C21.6394 2.48849 22.6601 3.32914 23.2648 4.45163C23.8691 5.57343 24.0097 6.88733 23.6566 8.11158L20.2415 18.508L20.2414 18.508L20.2402 18.5122C19.9444 19.5108 19.3336 20.3869 18.499 21.0097C17.6644 21.6324 16.6508 21.9685 15.6094 21.9678C15.3859 21.9663 15.1628 21.9494 14.9415 21.9173L14.8548 21.9048L14.8013 21.9741C14.3522 22.5556 13.7763 23.0268 13.1174 23.3518C12.4586 23.6769 11.7342 23.8472 10.9995 23.8498H5.00018C3.7143 23.8482 2.48154 23.3368 1.57229 22.4275C0.663034 21.5182 0.15154 20.2855 0.15 18.9996L0.15 8.99989C0.151563 7.71405 0.663055 6.48132 1.57229 5.57209C2.48154 4.66284 3.7143 4.15135 5.00018 4.14981H8.368H8.47454L8.50963 4.04921L8.69763 3.51021L8.69766 3.51022L8.69861 3.50731C9.0932 2.29731 9.94661 1.29033 11.0755 0.702662C12.2044 0.115022 13.5187 -0.00648134 14.7361 0.364243C14.7362 0.364263 14.7362 0.364283 14.7363 0.364303ZM21.887 7.5628L22.0314 7.6033C22.2536 6.811 22.1576 5.96325 21.7637 5.24074C21.3699 4.51823 20.7095 3.97811 19.9232 3.73547L19.923 3.73541L14.237 1.98942L14.2366 1.9893C13.4612 1.75353 12.6248 1.8257 11.9012 2.1908C11.1777 2.55591 10.6227 3.18585 10.3516 3.94964L10.2806 4.14981H10.493H10.9998C12.2857 4.15135 13.5185 4.66284 14.4277 5.57209C15.337 6.48134 15.8485 7.71411 15.85 8.99998V18.9994C15.8491 19.3575 15.8084 19.7143 15.7288 20.0634L15.6828 20.2648L15.8885 20.2462C16.5158 20.1893 17.1116 19.9453 17.5984 19.5457C18.0847 19.1466 18.44 18.6106 18.6182 18.0074L22.0295 7.60956L21.887 7.5628ZM9.18928 17.2631L9.18911 17.2633C8.85672 17.5445 8.43541 17.6988 8 17.6988C7.56459 17.6988 7.14328 17.5445 6.81089 17.2633L6.81072 17.2631C6.23607 16.7784 5.56696 16.0567 5.04264 15.2786C4.51512 14.4957 4.15 13.679 4.15 12.9998C4.15 12.5091 4.34491 12.0386 4.69185 11.6916C5.03879 11.3447 5.50935 11.1498 6 11.1498C6.49065 11.1498 6.96121 11.3447 7.30815 11.6916C7.65509 12.0386 7.85 12.5091 7.85 12.9998H8H8.15C8.15 12.5091 8.34491 12.0386 8.69185 11.6916C9.0388 11.3447 9.50935 11.1498 10 11.1498C10.4907 11.1498 10.9612 11.3447 11.3081 11.6916C11.6551 12.0386 11.85 12.5091 11.85 12.9998C11.85 13.679 11.4849 14.4957 10.9574 15.2786C10.433 16.0567 9.76393 16.7784 9.18928 17.2631ZM5 22.1498H11C11.8354 22.1498 12.6366 21.8179 13.2274 21.2272C13.8181 20.6364 14.15 19.8352 14.15 18.9998V8.9998C14.15 8.16437 13.8181 7.36315 13.2274 6.77242C12.6366 6.18168 11.8354 5.8498 11 5.8498H5C4.16457 5.8498 3.36335 6.18168 2.77261 6.77242C2.18187 7.36315 1.85 8.16437 1.85 8.9998V18.9998C1.85 19.8352 2.18187 20.6364 2.77261 21.2272C3.36335 21.8179 4.16457 22.1498 5 22.1498Z" stroke="white" stroke-width="0.3"/>
</g>
<defs>
<filter id="filter0_d_1_29352" x="-4" y="0.00341797" width="31.9971" height="31.9963" filterUnits="userSpaceOnUse" color-interpolation-filters="sRGB">
<feFlood flood-opacity="0" result="BackgroundImageFix"/>
<feColorMatrix in="SourceAlpha" type="matrix" values="0 0 0 0 0 0 0 0 0 0 0 0 0 0 0 0 0 0 127 0" result="hardAlpha"/>
<feOffset dy="4"/>
<feGaussianBlur stdDeviation="2"/>
<feComposite in2="hardAlpha" operator="out"/>
<feColorMatrix type="matrix" values="0 0 0 0 0 0 0 0 0 0 0 0 0 0 0 0 0 0 0.25 0"/>
<feBlend mode="normal" in2="BackgroundImageFix" result="effect1_dropShadow_1_29352"/>
<feBlend mode="normal" in="SourceGraphic" in2="effect1_dropShadow_1_29352" result="shape"/>
</filter>
</defs>
</svg>
