<svg width="23" height="24" viewBox="0 0 23 24" fill="none" xmlns="http://www.w3.org/2000/svg">
<path d="M20.125 12.5H18.2917C17.1871 12.5 16.2917 13.3954 16.2917 14.5V16.3333C16.2917 17.3919 17.1498 18.25 18.2083 18.25V18.25C19.2669 18.25 20.125 17.3919 20.125 16.3333V12.5C20.125 7.73654 16.2635 3.875 11.5 3.875C6.73654 3.875 2.875 7.73654 2.875 12.5V16.3333C2.875 17.3919 3.73312 18.25 4.79167 18.25V18.25C5.85021 18.25 6.70833 17.3919 6.70833 16.3333V14.5C6.70833 13.3954 5.8129 12.5 4.70833 12.5H2.875" stroke="black" stroke-width="1.7"/>
<path d="M20.1253 14.4167V18.2501C20.1253 18.2501 20.1253 21.1251 18.2087 21.1251C16.292 21.1251 13.417 21.1251 13.417 21.1251" stroke="black" stroke-width="1.7" stroke-linejoin="round"/>
</svg>
