<svg width="28" height="28" viewBox="0 0 28 28" fill="none" xmlns="http://www.w3.org/2000/svg">
<path d="M13.1713 17.8384C13.1212 17.8938 13.0744 17.9523 13.0313 18.0134C12.9872 18.0784 12.9519 18.149 12.9263 18.2234C12.8927 18.2895 12.8691 18.3603 12.8563 18.4334C12.8506 18.511 12.8506 18.589 12.8563 18.6667C12.8524 18.8197 12.8844 18.9716 12.9497 19.11C13.0021 19.2548 13.0857 19.3863 13.1945 19.4952C13.3034 19.604 13.4349 19.6876 13.5797 19.74C13.7193 19.8018 13.8703 19.8336 14.023 19.8336C14.1757 19.8336 14.3267 19.8018 14.4663 19.74C14.6111 19.6876 14.7426 19.604 14.8515 19.4952C14.9604 19.3863 15.0439 19.2548 15.0963 19.11C15.1482 18.9682 15.1719 18.8176 15.1663 18.6667C15.1672 18.5132 15.1378 18.361 15.0797 18.2188C15.0217 18.0767 14.9361 17.9474 14.828 17.8384C14.7196 17.729 14.5905 17.6422 14.4484 17.583C14.3062 17.5238 14.1537 17.4933 13.9997 17.4933C13.8457 17.4933 13.6932 17.5238 13.551 17.583C13.4088 17.6422 13.2798 17.729 13.1713 17.8384ZM13.9997 2.33337C11.6922 2.33337 9.4366 3.01761 7.51803 4.29956C5.59945 5.58151 4.10411 7.4036 3.22109 9.5354C2.33806 11.6672 2.10702 14.013 2.55718 16.2761C3.00735 18.5392 4.11849 20.618 5.7501 22.2496C7.38171 23.8812 9.46051 24.9924 11.7236 25.4425C13.9867 25.8927 16.3325 25.6617 18.4643 24.7786C20.5961 23.8956 22.4182 22.4003 23.7002 20.4817C24.9821 18.5631 25.6663 16.3075 25.6663 14C25.6663 12.468 25.3646 10.9509 24.7783 9.5354C24.192 8.11994 23.3326 6.83381 22.2493 5.75046C21.1659 4.66711 19.8798 3.80775 18.4643 3.22145C17.0489 2.63514 15.5318 2.33337 13.9997 2.33337ZM13.9997 23.3334C12.1537 23.3334 10.3492 22.786 8.81436 21.7604C7.2795 20.7349 6.08322 19.2772 5.3768 17.5718C4.67039 15.8663 4.48556 13.9897 4.84568 12.1792C5.20581 10.3687 6.09473 8.70567 7.40002 7.40038C8.70531 6.09509 10.3683 5.20617 12.1788 4.84605C13.9893 4.48592 15.8659 4.67075 17.5714 5.37717C19.2768 6.08358 20.7345 7.27986 21.7601 8.81472C22.7856 10.3496 23.333 12.1541 23.333 14C23.333 16.4754 22.3497 18.8494 20.5993 20.5997C18.849 22.35 16.475 23.3334 13.9997 23.3334ZM13.9997 8.16671C13.3849 8.16631 12.7809 8.32785 12.2484 8.63506C11.7159 8.94227 11.2737 9.38431 10.9663 9.91671C10.8819 10.0495 10.8253 10.198 10.7997 10.3532C10.7742 10.5085 10.7803 10.6673 10.8177 10.8202C10.8552 10.973 10.9231 11.1167 11.0175 11.2425C11.1119 11.3684 11.2308 11.4739 11.3671 11.5527C11.5033 11.6314 11.654 11.6818 11.8102 11.7007C11.9664 11.7197 12.1249 11.7069 12.276 11.6631C12.4271 11.6192 12.5678 11.5453 12.6896 11.4456C12.8114 11.346 12.9117 11.2228 12.9847 11.0834C13.0875 10.9053 13.2355 10.7576 13.4137 10.6552C13.592 10.5527 13.7941 10.4992 13.9997 10.5C14.3091 10.5 14.6058 10.623 14.8246 10.8417C15.0434 11.0605 15.1663 11.3573 15.1663 11.6667C15.1663 11.9761 15.0434 12.2729 14.8246 12.4917C14.6058 12.7105 14.3091 12.8334 13.9997 12.8334C13.6903 12.8334 13.3935 12.9563 13.1747 13.1751C12.9559 13.3939 12.833 13.6906 12.833 14V15.1667C12.833 15.4761 12.9559 15.7729 13.1747 15.9917C13.3935 16.2105 13.6903 16.3334 13.9997 16.3334C14.3091 16.3334 14.6058 16.2105 14.8246 15.9917C15.0434 15.7729 15.1663 15.4761 15.1663 15.1667V14.9567C15.9379 14.6767 16.5866 14.1345 16.9989 13.4247C17.4112 12.715 17.561 11.8829 17.422 11.0739C17.283 10.2649 16.8641 9.53056 16.2385 8.99914C15.6129 8.46772 14.8205 8.17308 13.9997 8.16671Z" fill="#2468FF"/>
</svg>
