<svg width="16" height="16" viewBox="0 0 16 16" fill="none" xmlns="http://www.w3.org/2000/svg">
<path d="M5.67871 4.25H5.88925C6.04212 4.25 6.11861 4.25 6.19054 4.26727C6.25432 4.28258 6.31554 4.3079 6.37146 4.34216C6.43451 4.3808 6.48865 4.43494 6.59668 4.54297L8.51089 6.45718C8.61899 6.56527 8.67273 6.61902 8.71138 6.6821C8.74565 6.73802 8.77131 6.79914 8.78662 6.86292C8.80371 6.93411 8.80371 7.00971 8.80371 7.15947V11.75M5.67871 4.25H2.92847C2.57843 4.25 2.40359 4.25 2.2699 4.31812C2.1523 4.37804 2.05675 4.47359 1.99683 4.59119C1.92871 4.72488 1.92871 4.90003 1.92871 5.25006V12.6251C1.92871 12.9751 1.92871 13.1499 1.99683 13.2836C2.05675 13.4012 2.1523 13.497 2.2699 13.5569C2.40346 13.625 2.5781 13.625 2.92746 13.625L7.80437 13.625C8.15372 13.625 8.32901 13.625 8.46257 13.5569C8.58018 13.497 8.67543 13.4013 8.73535 13.2837C8.80347 13.15 8.80371 12.9749 8.80371 12.6249V11.75M5.67871 4.25V6.375C5.67871 6.72503 5.67871 6.89993 5.74683 7.03362C5.80675 7.15122 5.9023 7.24702 6.0199 7.30695C6.15346 7.375 6.32809 7.375 6.67744 7.375H8.80347M6.30371 4.25006V3.37506C6.30371 3.02503 6.30371 2.84988 6.37183 2.71619C6.43175 2.59859 6.5273 2.50304 6.6449 2.44312C6.77859 2.375 6.95343 2.375 7.30347 2.375H10.0537M10.0537 2.375H10.2643C10.4171 2.375 10.4936 2.375 10.5655 2.39227C10.6293 2.40758 10.6905 2.4329 10.7465 2.46716C10.8095 2.5058 10.8637 2.55995 10.9717 2.66797L12.8859 4.58218C12.994 4.69028 13.0477 4.74402 13.0864 4.8071C13.1207 4.86302 13.1463 4.92414 13.1616 4.98792C13.1787 5.05911 13.1787 5.1347 13.1787 5.28447V10.7499C13.1787 11.0999 13.1785 11.275 13.1104 11.4087C13.0504 11.5263 12.9555 11.622 12.8379 11.6819C12.7044 11.75 12.5293 11.75 12.18 11.75H8.80371M10.0537 2.375V4.5C10.0537 4.85003 10.0537 5.02493 10.1218 5.15862C10.1818 5.27622 10.2773 5.37202 10.3949 5.43195C10.5285 5.5 10.7031 5.5 11.0524 5.5H13.1785" stroke="#2468FF" stroke-linecap="round" stroke-linejoin="round"/>
</svg>
