<svg width="16" height="17" viewBox="0 0 16 17" fill="none" xmlns="http://www.w3.org/2000/svg">
<path d="M8.00002 8.49967C9.84097 8.49967 11.3334 7.00729 11.3334 5.16634C11.3334 3.32539 9.84097 1.83301 8.00002 1.83301C6.15907 1.83301 4.66669 3.32539 4.66669 5.16634C4.66669 7.00729 6.15907 8.49967 8.00002 8.49967Z" stroke="#2468FF" stroke-linecap="round" stroke-linejoin="round"/>
<path d="M2.27332 15.1667C2.27332 12.5867 4.83998 10.5 7.99998 10.5C8.63998 10.5 9.25999 10.5867 9.83999 10.7467" stroke="#2468FF" stroke-linecap="round" stroke-linejoin="round"/>
<path d="M14.6666 12.4997C14.6666 12.713 14.64 12.9197 14.5867 13.1197C14.5267 13.3863 14.42 13.6463 14.28 13.873C13.82 14.6463 12.9733 15.1663 12 15.1663C11.3133 15.1663 10.6933 14.9063 10.2266 14.4797C10.0266 14.3063 9.8533 14.0997 9.71997 13.873C9.4733 13.473 9.33331 12.9997 9.33331 12.4997C9.33331 11.7797 9.61998 11.1197 10.0866 10.6397C10.5733 10.1397 11.2533 9.83301 12 9.83301C12.7866 9.83301 13.5 10.173 13.98 10.7197C14.4066 11.193 14.6666 11.8197 14.6666 12.4997Z" stroke="#2468FF" stroke-miterlimit="10" stroke-linecap="round" stroke-linejoin="round"/>
<path d="M12.9933 12.4873H11.0067" stroke="#2468FF" stroke-miterlimit="10" stroke-linecap="round" stroke-linejoin="round"/>
<path d="M12 11.5137V13.507" stroke="#2468FF" stroke-miterlimit="10" stroke-linecap="round" stroke-linejoin="round"/>
</svg>
