<svg xmlns="http://www.w3.org/2000/svg" width="31" height="30" viewBox="0 0 31 30" fill="none">
  <rect width="31" height="30" rx="4" fill="white"/>
  <path fill-rule="evenodd" clip-rule="evenodd" d="M13.8851 12.87V12.0882C13.6062 12.0498 13.325 12.0299 13.0434 12.0286C9.59905 12.0286 6.79688 14.7555 6.79688 18.1067C6.79688 20.1625 7.85282 21.9822 9.46364 23.0826C8.38506 21.9603 7.78543 20.481 7.7863 18.9445C7.7863 15.641 10.5087 12.9472 13.8851 12.87Z" fill="#00F2EA"/>
  <path fill-rule="evenodd" clip-rule="evenodd" d="M14.0331 21.72C15.5699 21.72 16.8235 20.5305 16.8806 19.0482L16.8858 5.81535H19.3704C19.3174 5.53906 19.2905 5.25861 19.2902 4.97754H15.8968L15.8912 18.2108C15.8346 19.6927 14.5804 20.8817 13.0442 20.8817C12.5829 20.8819 12.1286 20.7725 11.7207 20.5631C11.9841 20.9207 12.3312 21.2121 12.7333 21.4132C13.1354 21.6144 13.581 21.7195 14.0331 21.72ZM24.0124 10.3073V9.57181C23.0993 9.57265 22.2057 9.3142 21.4414 8.82812C22.1115 9.57887 23.0138 10.0978 24.0129 10.3073" fill="#00F2EA"/>
  <path fill-rule="evenodd" clip-rule="evenodd" d="M21.4395 8.82745C20.6905 7.99352 20.2779 6.92345 20.2784 5.81592H19.3692C19.4869 6.42807 19.7311 7.01061 20.087 7.52826C20.4429 8.0459 20.903 8.48789 21.4395 8.82745ZM13.0422 15.3307C12.2859 15.3315 11.5608 15.6242 11.026 16.1446C10.4912 16.6649 10.1904 17.3703 10.1895 18.1062C10.19 18.6124 10.3327 19.1089 10.6021 19.5419C10.8716 19.9749 11.2575 20.3281 11.7182 20.5632C11.3674 20.0925 11.1785 19.5259 11.1785 18.9445C11.1792 18.2086 11.48 17.503 12.0148 16.9825C12.5496 16.4621 13.2748 16.1693 14.0312 16.1685C14.3251 16.1685 14.6068 16.2158 14.8729 16.297V12.926C14.594 12.8876 14.3128 12.8676 14.0312 12.8664C13.9816 12.8664 13.933 12.8691 13.8839 12.87V15.4592C13.6117 15.3749 13.3278 15.3316 13.0422 15.3307Z" fill="#FF004F"/>
  <path fill-rule="evenodd" clip-rule="evenodd" d="M24.0122 10.3066V12.8728C22.2523 12.8728 20.6221 12.3252 19.2906 11.3955V18.1059C19.2906 21.4571 16.4889 24.1835 13.0446 24.1835C11.7136 24.1835 10.4793 23.775 9.46484 23.0818C10.0481 23.6937 10.7549 24.1819 11.5411 24.5156C12.3273 24.8494 13.1758 25.0215 14.0335 25.0213C17.4779 25.0213 20.2801 22.2949 20.2801 18.9441V12.2338C21.6556 13.1962 23.3074 13.713 25.0016 13.7111V10.4085C24.6619 10.4085 24.3316 10.3727 24.0122 10.3062" fill="#FF004F"/>
  <path fill-rule="evenodd" clip-rule="evenodd" d="M19.2901 18.1065V11.3962C20.6656 12.3587 22.3175 12.8755 24.0117 12.8735V10.3073C23.0128 10.0977 22.1106 9.57852 21.4407 8.82769C20.9042 8.48813 20.444 8.04615 20.0881 7.5285C19.7323 7.01085 19.4881 6.42832 19.3703 5.81616H16.8857L16.8805 19.049C16.8234 20.5309 15.5698 21.7204 14.033 21.7204C13.5809 21.7199 13.1353 21.6147 12.7332 21.4136C12.3312 21.2124 11.984 20.921 11.7206 20.5635C11.2598 20.3284 10.8737 19.9753 10.6042 19.5423C10.3347 19.1092 10.1919 18.6128 10.1914 18.1065C10.1923 17.3706 10.4931 16.6652 11.0279 16.1448C11.5627 15.6245 12.2878 15.3318 13.0441 15.3309C13.3376 15.3309 13.6192 15.3778 13.8858 15.4595V12.8703C10.5094 12.9474 7.78699 15.6413 7.78699 18.9448C7.78699 20.5424 8.4249 21.9967 9.46433 23.0829C10.5122 23.8006 11.7626 24.1853 13.0441 24.1842C16.4884 24.1842 19.2901 21.4577 19.2901 18.1065Z" fill="black"/>
</svg>