<svg width="58" height="11" viewBox="0 0 58 11" fill="none" xmlns="http://www.w3.org/2000/svg">
<path d="M20.7994 4.86118C21.4886 5.77384 21.6704 6.76823 21.5886 7.82959C21.5208 8.72625 21.0242 9.30859 20.3022 9.8273C19.201 10.6173 17.5393 9.5914 17.4946 8.47738C17.4569 7.51155 17.5117 6.59782 18.1089 5.79408C18.4279 5.3663 18.3574 5.01842 17.9631 4.69155C17.0486 3.93643 16.0186 3.38747 14.8338 3.2296C10.0526 2.59929 5.63382 3.56793 1.60662 6.20348C1.14312 6.50709 0.651752 6.76903 0.173399 7.04991C0.130404 7.00236 0.0873782 6.95668 0.044383 6.90913C0.387618 6.51173 0.674877 6.04595 1.08155 5.72642C5.10997 2.54549 9.62917 0.783805 14.873 1.39536C16.6564 1.60229 18.3913 2.10269 19.6818 3.48989C19.9698 3.80005 20.1719 3.65901 20.4661 3.46698C24.7951 0.643271 29.4303 -0.406207 34.4678 1.30968C35.3951 1.62457 36.2302 2.23033 37.0702 2.76122C37.4922 3.02669 37.83 3.0809 38.2437 2.79897C41.128 0.821511 44.3068 0.522491 47.6882 1.1039C51.064 1.68334 53.8307 3.32684 56.3083 5.55417C56.644 5.85574 57.026 6.12057 57.2981 6.46983C57.4622 6.67866 57.542 7.03792 57.4847 7.28814C57.4581 7.40578 56.9765 7.53293 56.7587 7.46943C56.2909 7.33066 55.8262 7.12446 55.4234 6.8518C53.1289 5.30403 50.7655 3.89759 48.0623 3.14724C44.9443 2.2796 41.9299 2.4182 39.0845 4.10391C38.7348 4.31191 38.7075 4.47453 38.8615 4.83313C39.1659 5.54089 39.5233 6.26638 39.614 7.01191C39.6827 7.58653 39.5003 8.27142 39.2122 8.78967C38.8046 9.52338 38.0429 9.91025 37.1705 9.8474C36.5129 9.79926 35.5653 8.74185 35.4707 8.00563C35.344 7.01586 35.3295 6.02604 35.9942 5.17091C36.3323 4.73407 36.1795 4.42048 35.7985 4.09382C34.5034 2.98768 32.9494 2.48271 31.3036 2.23491C27.5642 1.67394 24.1588 2.56717 21.0374 4.61388C20.9605 4.66324 20.9077 4.74859 20.8012 4.86307L20.7994 4.86118ZM37.4659 6.53106C37.3841 6.52974 37.3004 6.52838 37.2186 6.52518C37.1141 6.75215 36.9181 6.98513 36.9355 7.20282C36.9513 7.40362 37.1956 7.58937 37.3391 7.78099C37.4852 7.56969 37.7148 7.371 37.749 7.14477C37.7767 6.9578 37.571 6.73706 37.4678 6.53109L37.4659 6.53106Z" fill="black"/>
</svg>
