<svg width="30" height="23" viewBox="0 0 30 23" fill="none" xmlns="http://www.w3.org/2000/svg">
<path id="Vector" d="M29.5965 2.77253C26.6643 9.27564 23.5289 15.7073 22.4867 22.9648C22.1321 22.8771 21.8868 22.8219 21.645 22.7544C18.6348 21.9126 15.6512 20.9592 12.6106 20.2566C8.98095 19.4188 5.3026 18.7745 1.56039 18.6336C0.981593 18.6121 0.858538 18.3896 1.05253 17.885C2.57081 13.9474 2.96246 9.78099 3.54087 5.65243C3.57964 5.37401 3.64793 5.09994 3.70146 4.82369C3.77681 4.79962 3.85157 4.77757 3.92491 4.75289C4.08862 5.01626 4.30384 5.26174 4.41018 5.54789C5.24284 7.81622 6.0266 10.101 6.88957 12.3562C7.09513 12.8932 7.42928 13.5082 7.88806 13.7929C8.93906 14.4463 9.81212 14.2477 10.4672 13.1542C11.5418 11.36 12.5075 9.49572 13.4564 7.62866C14.4563 5.66391 15.3857 3.66269 16.3395 1.67537C16.5001 1.34242 16.6282 0.993152 16.9195 0.63488C16.9526 1.0564 17.0285 1.4818 17.0135 1.9023C16.9265 4.28899 16.7901 6.67203 16.7252 9.05863C16.6864 10.5433 16.7304 12.0305 16.7658 13.5173C16.7936 14.6522 17.1409 15.1937 17.8985 15.4056C18.6009 15.6034 19.4861 15.238 20.0265 14.4712C20.9282 13.1922 21.7389 11.8418 22.7008 10.6116C24.6927 8.06311 26.7538 5.57055 28.7971 3.06385C28.9392 2.8892 29.1539 2.77376 29.3357 2.62859C29.4226 2.67657 29.5096 2.72455 29.5959 2.77457L29.5965 2.77253Z" fill="#C4FC01"/>
</svg>
