<svg width="51" height="66" viewBox="0 0 51 66" fill="none" xmlns="http://www.w3.org/2000/svg">
<g clip-path="url(#clip0_166_5813)">
<g opacity="0.2">
<path d="M26.0091 66.0001C15.8832 66.0001 7.67447 64.8965 7.67447 63.5352C7.67447 62.1739 15.8832 61.0703 26.0091 61.0703C36.1351 61.0703 44.3438 62.1739 44.3438 63.5352C44.3438 64.8965 36.1351 66.0001 26.0091 66.0001Z" fill="black"/>
</g>
<path d="M32.0851 45.6374C33.2688 43.1231 37.3321 42.0108 38.1988 45.7198C38.9504 48.9361 35.2223 50.8522 32.3514 50.2625C31.3138 50.0494 30.627 48.7351 32.0853 45.6374H32.0851Z" fill="black"/>
<g opacity="0.2">
<path d="M32.3513 50.2623C35.2219 50.8521 38.9502 48.9363 38.1991 45.7202C37.8827 44.3672 37.1421 43.6557 36.2698 43.4209C36.2921 43.4958 36.2725 43.5955 36.3309 43.6523C39.1234 46.3737 36.2087 49.9605 33.6554 46.3289C32.6743 46.9798 32.4758 48.3571 31.2621 48.2929C31.1589 49.5302 31.683 50.1256 32.3513 50.2623Z" fill="black"/>
</g>
<path d="M33.4201 50.7091C34.9869 50.7091 36.589 50.099 37.5849 49.0639C38.4891 48.1242 38.824 46.9088 38.5278 45.6414C38.0369 43.5402 36.6736 43.0882 35.9047 43.0058C34.2997 42.8342 32.5274 43.9028 31.7794 45.4911C30.9095 47.3389 30.6894 48.7993 31.143 49.7145C31.3735 50.1795 31.7784 50.4926 32.2836 50.5965C32.6539 50.6724 33.0361 50.7091 33.4201 50.7091ZM35.5657 43.6698C35.6556 43.6698 35.7448 43.6743 35.8334 43.6839C36.555 43.7612 37.494 44.1908 37.8696 45.7976C38.179 47.1218 37.6217 48.0467 37.0995 48.5892C36.0113 49.7201 34.0868 50.2706 32.4188 49.9282C32.1134 49.8654 31.8878 49.691 31.7484 49.4097C31.5445 48.9982 31.3567 47.9799 32.3908 45.7835C32.9693 44.5547 34.3232 43.6698 35.5659 43.6698H35.5657Z" fill="black"/>
<g opacity="0.3">
<path d="M33.871 45.102C33.9853 44.6815 35.1803 43.9631 36.1815 44.4461C37.2721 44.9722 36.1892 45.1022 35.4628 45.2433C34.72 45.3876 33.7567 45.5227 33.871 45.102Z" fill="white"/>
</g>
<path d="M34.3905 44.106C35.7169 46.3646 37.0341 52.2786 37.688 56.1566C37.688 56.1566 38.7078 56.1627 39.3901 57.0001C39.9397 57.6745 40.156 59.0159 38.7076 59.6075C37.4968 60.1019 34.343 61.6251 32.8782 60.7724C30.2161 59.2228 29.2331 53.3841 26.7836 51.5078L34.3907 44.106H34.3905Z" fill="#686779"/>
<path d="M26.7835 51.5077C29.2332 53.3838 30.2157 59.2229 32.8775 60.7725C34.3429 61.625 37.4969 60.1016 38.7077 59.6073C40.1561 59.0158 39.9396 57.675 39.39 56.9999C38.7077 56.1628 37.6879 56.1569 37.6879 56.1569C37.5002 55.0393 37.2567 53.7522 36.9725 52.4327C36.5878 50.6341 36.1287 48.7751 35.6358 47.1998C35.2358 45.9194 34.8131 44.8268 34.3902 44.1064L26.7835 51.5079V51.5077Z" fill="black"/>
<g opacity="0.2">
<path d="M26.7835 51.5075C29.2332 53.3836 30.2157 59.2227 32.8775 60.7723C34.3429 61.6248 37.4969 60.1014 38.7077 59.6071C40.1561 59.0156 39.9396 57.6748 39.39 56.9997C38.7077 56.1626 37.6879 56.1567 37.6879 56.1567C37.5002 55.0391 37.2567 53.752 36.9725 52.4325C35.7499 53.4596 33.9792 54.7519 32.5704 54.9923C29.9432 55.4407 30.6477 53.6242 31.2827 52.9858C31.8239 52.4419 35.2704 50.444 35.6358 47.1998C35.2358 45.9194 34.8131 44.8268 34.3902 44.1064L26.7835 51.5079V51.5075Z" fill="black"/>
</g>
<path d="M33.9954 61.3634C35.4509 61.3634 37.2762 60.5853 38.3844 60.1129C38.5539 60.0407 38.7055 59.976 38.8348 59.9231C39.6866 59.5753 39.9887 59.0131 40.0923 58.6025C40.2738 57.8828 39.9835 57.1908 39.6516 56.7834C39.1049 56.1125 38.3759 55.9066 37.9781 55.8434C37.3862 52.4111 36.0735 46.3016 34.682 43.9321L34.0999 44.2795C35.3044 46.3306 36.6028 51.7513 37.3549 56.2135C37.3824 56.3766 37.5222 56.4964 37.6863 56.4974C37.6934 56.4974 38.561 56.5193 39.129 57.2163C39.3457 57.4822 39.5565 57.9607 39.4368 58.4345C39.3421 58.8096 39.0541 59.0978 38.5807 59.2911C38.4489 59.3449 38.2941 59.4111 38.1211 59.4848C36.8511 60.0262 34.2087 61.1529 33.0475 60.4768C31.7388 59.7151 30.8137 57.7357 29.9191 55.8215C29.0816 54.0291 28.2154 52.1757 26.9884 51.2361L26.5793 51.7792C27.6742 52.6179 28.5044 54.3942 29.3073 56.1123C30.2463 58.1216 31.2173 60.199 32.7094 61.0676C33.071 61.2781 33.5131 61.3636 33.9955 61.3636L33.9954 61.3634Z" fill="black"/>
<path d="M35.5541 58.3788C36.1773 58.6883 36.6935 59.4814 36.2739 60.1357C36.1482 60.3307 35.9544 60.5033 35.7407 60.6593C35.6284 60.7387 35.6023 60.8957 35.683 61.0075C35.7573 61.1108 35.8971 61.1387 36.0045 61.0769C36.4114 60.8479 36.8277 60.4517 36.93 59.9494C37.097 59.1163 36.4707 58.1749 35.6063 58.1368C35.4665 58.1313 35.4271 58.325 35.5541 58.3788Z" fill="#232333"/>
<path d="M37.5735 57.6073C38.1967 57.9171 38.713 58.7099 38.2934 59.3643C38.1675 59.5592 37.9739 59.7318 37.7602 59.8878C37.6481 59.9672 37.6218 60.1242 37.7025 60.236C37.7768 60.3393 37.9166 60.3672 38.0241 60.3054C38.431 60.0764 38.8474 59.6802 38.9494 59.1779C39.1167 58.3448 38.4901 57.4034 37.6257 57.3654C37.486 57.3598 37.4466 57.5535 37.5735 57.6073Z" fill="#232333"/>
<path d="M30.911 60.3528C30.8912 61.092 31.0729 62.4511 31.4953 62.7959C32.1819 63.357 34.4527 63.077 36.3171 62.8189C38.885 62.4635 41.0203 61.8077 41.7202 61.2995C42.2596 60.7849 41.8474 59.3295 41.4039 58.5605" fill="white"/>
<path d="M31.0298 61.6852C31.1245 62.1749 31.2777 62.619 31.4942 62.7959C32.1811 63.357 34.452 63.0774 36.3165 62.8193C38.8848 62.4639 41.0201 61.8082 41.72 61.3001C41.8715 61.1556 41.9474 60.9382 41.9688 60.6816C41.1041 61.2012 38.9615 61.8331 36.4187 62.1851C34.4499 62.4573 32.0536 62.7529 31.3282 62.1609C31.2113 62.0655 31.1125 61.897 31.03 61.6854L31.0298 61.6852Z" fill="#E8E8E8"/>
<path d="M33.0875 63.3794C34.0081 63.3794 35.1552 63.2379 36.3502 63.0723C38.7959 62.7336 41.0645 62.0901 41.867 61.5069C41.8761 61.5001 41.8848 61.4929 41.8931 61.4851C42.5485 60.8599 42.1187 59.2935 41.6217 58.4319C41.5513 58.3097 41.3959 58.2684 41.2749 58.3394C41.1539 58.4104 41.1127 58.567 41.1831 58.689C41.6452 59.49 41.9097 60.7349 41.5554 61.1027C40.9125 61.5573 38.9055 62.2023 36.2814 62.5654C34.8871 62.7583 32.2913 63.1177 31.6537 62.5971C31.3555 62.3533 31.1416 61.1736 31.1634 60.3594C31.1671 60.2183 31.0566 60.1007 30.9166 60.0969C30.777 60.0969 30.66 60.2046 30.6562 60.3457C30.639 60.9879 30.7859 62.5465 31.3344 62.9945C31.6784 63.2758 32.3002 63.3794 33.0877 63.3794H33.0875Z" fill="black"/>
<path d="M29.7831 56.9631C29.8956 57.2324 30.0559 57.5557 30.2064 57.9715C32.4948 57.2105 36.2017 55.2463 38.2969 54.1094C38.0768 53.4973 37.7838 52.8792 37.1523 52.6516C36.939 52.5747 35.9749 52.4645 33.8645 53.8351C31.2385 55.541 29.9336 55.8187 29.7958 55.9863C29.5573 56.2783 29.6168 56.5611 29.7831 56.9633V56.9631Z" fill="#FFCE31"/>
<path d="M9.82382 45.4021C9.82382 45.4021 8.79492 47.4016 11.7741 48.5969C15.2558 49.9929 18.2229 46.0916 14.4296 41.8863C14.4296 41.8863 14.7625 41.202 16.1534 40.6629L18.4598 36.0387L19.9375 33.0757C19.9375 33.0757 17.402 33.4972 15.0872 34.718C14.9193 34.8065 14.7532 34.8992 14.5889 34.9963C13.2739 35.7724 3.40463 42.015 9.82382 45.4021Z" fill="#686779"/>
<path d="M9.82362 45.4017C9.82362 45.4017 8.79531 47.4013 11.7743 48.5964C15.2564 49.9926 18.2233 46.0913 14.4294 41.8864C14.4294 41.8864 14.7625 41.2019 16.1534 40.6624L18.4602 36.0382L18.6488 35.6597L19.9375 33.0752C19.9375 33.0752 17.4024 33.4971 15.0874 34.7177C14.9199 34.8064 14.7534 34.8993 14.5893 34.9964C14.5421 35.0245 14.4828 35.0593 14.4134 35.102C12.5802 36.2211 3.63734 42.1377 9.82362 45.4017Z" fill="black"/>
<g opacity="0.2">
<path d="M14.4134 35.1022C15.7434 35.4091 17.1657 35.6009 18.6488 35.6597L19.9375 33.0752C19.9375 33.0752 17.4024 33.4971 15.0874 34.7177C14.9199 34.8064 14.7534 34.8993 14.5893 34.9964C14.5421 35.0245 14.4828 35.0593 14.4134 35.102V35.1022Z" fill="black"/>
</g>
<path d="M25.7093 34.9294C29.921 33.8485 33.2602 31.6912 34.8516 29.0547C32.4814 30.1926 29.6242 31.4311 26.7409 32.4191C25.9503 32.6901 25.6509 33.7122 25.7093 34.9294Z" fill="#545468"/>
<path d="M16.9659 35.5335C18.1903 35.669 19.4679 35.7133 20.7794 35.6545C24.4213 35.4917 27.7359 34.5609 30.3242 33.1356C29.531 31.5297 27.5703 29.0509 23.1369 29.6058C18.165 30.228 17.1638 33.8866 16.9661 35.5333L16.9659 35.5335Z" fill="#545468"/>
<g opacity="0.2">
<path d="M11.7764 48.5963C14.2488 49.5877 16.4626 47.9075 16.1785 45.3436C16.1743 45.3061 16.1692 45.2694 16.164 45.232C16.1599 45.1979 16.1547 45.1638 16.1488 45.1289C16.1421 45.0837 16.1336 45.0386 16.1243 44.9934C15.9552 44.1214 15.5019 43.1625 14.6843 42.1797C13.9552 43.7405 13.8911 45.2587 13.8077 47.4015C13.7875 47.9183 12.776 48.0536 12.4039 47.9743C10.5072 47.5703 11.5482 45.8151 11.5482 45.8151C11.5482 45.8151 10.7018 45.6796 9.81305 45.3932C9.8172 45.3958 9.82155 45.3992 9.8257 45.4018C9.8257 45.4018 8.79739 47.4023 11.7764 48.5965V48.5963Z" fill="black"/>
</g>
<g opacity="0.2">
<path d="M14.1734 41.7728C14.1572 41.7539 14.2737 41.7896 14.4526 41.851C14.541 41.7053 14.9524 41.1296 16.1569 40.6625L16.6328 39.6039L16.5474 39.4429C16.395 38.9914 16.2071 38.7022 15.9867 38.6893C15.2451 38.6426 13.9884 40.6832 12.4053 40.5602C12.4053 40.5602 13.2373 40.9839 14.1736 41.7726L14.1734 41.7728Z" fill="black"/>
</g>
<path d="M13.1923 49.2208C14.3024 49.2208 15.3124 48.7313 15.935 47.8252C16.8112 46.5498 16.9716 44.3307 14.8651 41.866C15.0514 41.6583 15.4652 41.2959 16.2766 40.9812C16.451 40.9136 16.538 40.7163 16.4708 40.5405C16.4036 40.3649 16.208 40.277 16.0336 40.3448C14.5618 40.9156 14.1678 41.6539 14.1277 41.736C14.0664 41.8616 14.0875 42.0123 14.181 42.1157C16.2124 44.3677 16.1317 46.3411 15.3788 47.4369C14.6467 48.5027 13.2814 48.8333 11.901 48.28C10.9332 47.892 10.3254 47.3853 10.0947 46.7742C9.85032 46.1273 10.1158 45.5801 10.1273 45.5572C10.21 45.391 10.1463 45.1865 9.98298 45.1002C8.69942 44.4229 8.03708 43.5884 8.01414 42.6198C7.95266 40.0084 12.401 36.684 14.7615 35.2909C17.113 33.9032 19.9656 33.4175 19.994 33.4127C20.1783 33.382 20.3031 33.2066 20.2728 33.0209C20.2424 32.8351 20.069 32.7096 19.8841 32.7399C19.7625 32.7602 16.8783 33.2517 14.4199 34.7023C14.2079 34.8273 12.2982 35.9695 10.5053 37.5548C8.36865 39.4441 7.30296 41.1536 7.33796 42.6359C7.36524 43.7983 8.0614 44.7809 9.40823 45.5602C9.31708 45.8809 9.23938 46.4129 9.45726 47.002C9.75462 47.8061 10.4927 48.449 11.6513 48.9136C12.1677 49.1209 12.6905 49.221 13.1927 49.221L13.1923 49.2208Z" fill="black"/>
<path d="M9.69766 45.7176C10.3003 45.8914 10.9093 45.9811 11.5326 45.9851C11.6264 45.9853 11.7027 45.9089 11.7029 45.8145C11.7031 45.73 11.6424 45.6596 11.5627 45.6455C11.2806 45.5896 11.003 45.5137 10.7325 45.4178C10.4717 45.3262 10.1935 45.212 9.9539 45.0866C9.50865 44.8743 9.23185 45.5538 9.69766 45.7176Z" fill="black"/>
<path d="M14.651 41.6287C13.9635 41.1366 13.2703 40.6455 12.4534 40.3981C12.3628 40.3744 12.2703 40.429 12.2468 40.5203C12.2246 40.6054 12.2707 40.6923 12.35 40.7228C13.0525 41.0513 13.6505 41.6129 14.2095 42.1455C14.5626 42.4712 15.0235 41.9338 14.651 41.6287Z" fill="black"/>
<path d="M26.7431 32.4195C33.3264 30.1629 39.7741 26.6034 40.5982 25.9176C40.7664 25.4486 41.1901 24.8493 41.6233 24.621C42.1407 24.3486 42.858 24.4983 43.3681 25.267C44.0855 24.6272 45.3384 24.3195 46.0355 24.8885C46.4288 25.2096 46.5877 25.6435 46.5986 26.0318C47.7797 26.1717 48.2153 27.4658 47.7612 28.4735C48.0554 29.6608 47.589 30.9914 45.7037 31.8092C39.537 36.7524 33.3828 39.0488 29.3257 40.1042C26.4292 40.8576 24.365 33.2345 26.7431 32.4193V32.4195Z" fill="black"/>
<g opacity="0.2">
<path d="M25.7093 34.9294C29.921 33.8485 33.2602 31.6912 34.8516 29.0547C32.4814 30.1926 29.6242 31.4311 26.7409 32.4191C25.9503 32.6901 25.6509 33.7122 25.7093 34.9294Z" fill="black"/>
</g>
<g opacity="0.2">
<path d="M30.8035 34.4177C31.2491 36.6135 27.6784 40.5322 29.3248 40.1043C33.3819 39.0489 39.5359 36.7526 45.7026 31.8095C46.0662 31.6518 46.3774 31.4745 46.6404 31.2827C45.7483 31.5205 44.4309 31.7405 43.2834 31.4115C43.2834 31.4115 35.722 38.3248 30.8035 34.4177Z" fill="black"/>
</g>
<path d="M28.9165 40.4985C29.0772 40.4985 29.2415 40.4778 29.4088 40.4344C33.5052 39.3688 39.6848 37.0586 45.878 32.1041C47.6015 31.3407 48.4295 30.004 48.1139 28.5043C48.3579 27.8775 48.321 27.1598 48.0101 26.6043C47.766 26.168 47.3804 25.8694 46.9077 25.7445C46.8312 25.3046 46.6024 24.9135 46.2471 24.6235C45.4788 23.9965 44.2646 24.2133 43.4275 24.7886C42.8043 24.0824 42.0174 24.0282 41.4654 24.3188C40.9668 24.5813 40.5227 25.1972 40.3149 25.707C39.2386 26.522 32.9663 29.9256 26.6329 32.0965C25.1739 32.5966 25.1338 34.9326 25.7139 36.8912C26.2697 38.7675 27.4471 40.4985 28.9163 40.4985H28.9165ZM45.1026 24.9317C45.3788 24.9317 45.6328 24.9992 45.8214 25.1533C46.1892 25.4535 46.2537 25.8383 46.2592 26.0412C46.2639 26.2105 46.3911 26.3506 46.5577 26.3703C47.0398 26.4275 47.2932 26.7113 47.421 26.9393C47.6462 27.3416 47.658 27.8755 47.4518 28.3325C47.4202 28.4027 47.413 28.4814 47.4316 28.5562C47.6096 29.2751 47.6044 30.6129 45.5688 31.4962C45.5413 31.5082 45.5154 31.5237 45.4919 31.5425C39.3801 36.4417 33.2806 38.7231 29.2399 39.774C27.9858 40.1003 26.8692 38.4074 26.3622 36.6961C25.8618 35.0063 25.9077 33.0654 26.8508 32.7421C33.4056 30.4953 39.9375 26.9082 40.8122 26.1802C40.8588 26.1413 40.8942 26.0907 40.915 26.0333C41.0544 25.6446 41.4243 25.1097 41.7786 24.9231C42.1042 24.7515 42.6424 24.7882 43.0857 25.4563C43.1399 25.538 43.2266 25.5922 43.3235 25.6047C43.421 25.6173 43.5179 25.5872 43.591 25.522C43.9859 25.1698 44.5838 24.9317 45.1028 24.9317H45.1026Z" fill="black"/>
<path d="M43.0786 29.269C43.407 29.7667 43.688 30.7865 44.431 30.2739C45.174 29.7615 45.364 28.7388 44.8557 27.9898C44.3472 27.2408 43.3329 27.0492 42.5899 27.5617C41.8469 28.0741 42.7237 28.731 43.0786 29.269Z" fill="white"/>
<path d="M41.7954 26.8053C41.5419 26.5499 41.5419 26.1357 41.7954 25.8802C42.0488 25.6248 42.4596 25.6248 42.713 25.8802C42.9664 26.1357 42.9664 26.5499 42.713 26.8053C42.4596 27.0608 42.0488 27.0608 41.7954 26.8053Z" fill="white"/>
<path d="M44.5055 26.7128C44.27 26.4405 44.2981 26.0273 44.5682 25.7899C44.8384 25.5525 45.2483 25.5808 45.4838 25.8531C45.7193 26.1254 45.6912 26.5386 45.421 26.776C45.1509 27.0134 44.741 26.9851 44.5055 26.7128Z" fill="white"/>
<path d="M45.7345 27.9035C45.6258 27.5592 45.8145 27.1913 46.1559 27.0817C46.4974 26.9721 46.8624 27.1623 46.9711 27.5066C47.0798 27.8508 46.8911 28.2187 46.5497 28.3283C46.2082 28.4379 45.8432 28.2477 45.7345 27.9035Z" fill="white"/>
<path d="M45.7641 30.069C45.5107 29.8135 45.5107 29.3994 45.7641 29.1439C46.0175 28.8884 46.4284 28.8884 46.6818 29.1439C46.9352 29.3994 46.9352 29.8135 46.6818 30.069C46.4284 30.3245 46.0175 30.3245 45.7641 30.069Z" fill="white"/>
<path d="M15.5318 48.708C15.0632 51.0513 15.2666 55.3317 15.7293 59.8119C15.7293 59.8119 14.7674 60.1533 14.3935 61.1692C14.0924 61.9876 14.3222 63.3265 15.8829 63.4093C17.1874 63.4782 20.7081 63.9193 21.7703 62.5921C23.0568 60.9848 22.878 57.0646 24.2031 51.5079L15.5318 48.708Z" fill="#686779"/>
<path d="M15.8827 63.4098C17.1874 63.4787 20.7083 63.9194 21.7705 62.5924C22.4654 61.723 22.7327 60.1775 23.0414 58.0628C23.3035 56.2668 23.5944 54.0608 24.2031 51.5086L15.5318 48.7085C15.4311 49.2124 15.3609 49.8063 15.3186 50.473C15.163 52.9024 15.3669 56.2957 15.7295 59.812C15.7295 59.812 14.7672 60.1538 14.3935 61.1699C14.0924 61.9883 14.3226 63.3272 15.8825 63.41L15.8827 63.4098Z" fill="black"/>
<g opacity="0.2">
<path d="M21.6732 54.7742C22.134 55.8772 19.9406 55.9804 19.9406 55.9804L19.7986 57.6843C19.7986 57.6843 21.5937 57.8872 23.0414 58.0628C23.3035 56.2668 23.5944 54.0608 24.2031 51.5086L15.5318 48.7085C15.4311 49.2124 15.3609 49.8063 15.3186 50.473C16.5625 53.5424 21.2242 53.6985 21.673 54.7742H21.6732Z" fill="black"/>
</g>
<path d="M18.4001 63.878C19.8326 63.878 21.3352 63.6779 22.0327 62.8065C22.8453 61.7912 23.101 60.0176 23.4549 57.5626C23.692 55.9175 23.9869 53.8702 24.5312 51.5879L23.8737 51.4284C23.322 53.741 23.0247 55.8055 22.7856 57.4644C22.4473 59.8119 22.2028 61.508 21.5064 62.378C20.6804 63.4104 17.824 63.2044 16.4513 63.1055C16.2417 63.0904 16.0554 63.077 15.9 63.0686C15.3899 63.0417 15.0246 62.8641 14.8134 62.5407C14.5471 62.1323 14.5912 61.6105 14.71 61.2878C15.0212 60.4419 15.8344 60.136 15.8425 60.133C15.9884 60.0795 16.0811 59.9323 16.0651 59.7766C15.5299 54.5941 15.4599 50.79 15.8627 48.7754L15.1995 48.6406C14.7839 50.7193 14.8405 54.4073 15.3674 59.6038C15.0143 59.7905 14.3792 60.2256 14.0757 61.0506C13.8938 61.5451 13.8436 62.2947 14.2483 62.9152C14.4791 63.2689 14.9469 63.701 15.8644 63.7497C16.0161 63.7576 16.1982 63.7708 16.4028 63.7856C16.9764 63.827 17.6795 63.8776 18.4003 63.8776L18.4001 63.878Z" fill="black"/>
<path d="M18.2843 60.8794C17.316 61.2559 17.1302 62.7698 17.9776 63.3756C18.2485 63.5795 18.5529 63.6827 18.8487 63.7397C18.982 63.7654 19.1107 63.6773 19.1362 63.5428C19.1603 63.4158 19.0834 63.2928 18.9628 63.2582C18.7157 63.1822 18.482 63.0848 18.3044 62.9454C17.7103 62.4755 17.9373 61.5802 18.4118 61.091C18.5146 60.9976 18.4126 60.8284 18.2841 60.8796L18.2843 60.8794Z" fill="#232333"/>
<path d="M16.1671 60.8164C15.1989 61.1929 15.013 62.7069 15.8604 63.3126C16.1313 63.5165 16.4358 63.6197 16.7315 63.6767C16.8648 63.7024 16.9937 63.6143 17.019 63.4798C17.0431 63.3528 16.9662 63.2299 16.8456 63.1952C16.5985 63.1192 16.3648 63.0218 16.187 62.8825C15.5929 62.4125 15.8199 61.5172 16.2944 61.0281C16.3972 60.9346 16.2952 60.7654 16.1667 60.8166L16.1671 60.8164Z" fill="#232333"/>
<path d="M17.927 59.7966C16.9246 59.5511 15.8079 59.4112 14.862 59.9457C14.4826 60.1845 14.815 60.7549 15.2071 60.5355C15.5483 60.2409 16.0058 60.0796 16.4625 60.0085C16.9293 59.9324 17.4209 59.9226 17.8938 59.9638C17.9958 59.9778 18.0275 59.8235 17.9272 59.7966H17.927Z" fill="#232333"/>
<path d="M16.6255 51.4766C16.6255 51.4766 17.4282 52.093 19.0278 52.7675C20.4398 53.3629 21.7376 53.5177 21.7376 53.5177C23.3318 53.7302 24.7555 53.6762 25.4094 53.6074C26.0591 53.5392 27.4508 53.2995 28.9568 52.7673C28.9568 52.7673 30.3117 52.3167 31.8216 51.3576C32.8369 50.7126 33.5698 49.7001 33.5698 49.7001C35.4465 47.1084 35.318 44.336 34.5885 41.6531C34.1545 40.0584 33.2537 38.3118 32.4383 36.934C31.5711 35.4662 30.802 34.4178 30.802 34.4178L23.1341 29.6064L16.9162 36.337C16.7728 37.0418 16.4757 37.9333 16.1372 38.9402C14.8773 42.6957 13.0574 48.0715 16.6255 51.4766Z" fill="white"/>
<g opacity="0.2">
<path d="M14.5388 46.1194C14.5244 48.0834 15.0495 49.9723 16.6257 51.4759C16.6257 51.4759 17.4282 52.0929 19.0279 52.7672C20.44 53.3622 21.738 53.5174 21.738 53.5174C23.332 53.7297 24.7559 53.6759 25.4095 53.6069C26.059 53.5388 27.4507 53.2992 28.9567 52.7672C28.9567 52.7672 30.3123 52.3164 31.8216 51.3573C32.8371 50.7121 33.5702 49.6994 33.5702 49.6994C35.1531 47.513 35.3095 45.1979 34.8808 42.916C34.8893 44.5304 32.8464 51.1366 25.2051 51.5883C17.5286 52.0419 14.8156 47.3382 14.5392 46.1194H14.5388Z" fill="black"/>
</g>
<path d="M16.1403 38.94C22.9337 40.7572 29.174 38.5267 32.4414 36.9338C31.5742 35.466 30.8051 34.4177 30.8051 34.4177C30.8051 34.4177 29.5906 28.7986 23.1372 29.6063C16.6838 30.4139 16.9193 36.3368 16.9193 36.3368C16.7759 37.0416 16.4787 37.9331 16.1403 38.94Z" fill="black"/>
<g opacity="0.2">
<path d="M16.9659 35.5335C18.1903 35.669 19.4679 35.7133 20.7794 35.6545C24.4213 35.4917 27.7359 34.5609 30.3242 33.1356C29.531 31.5297 27.5703 29.0509 23.1369 29.6058C18.165 30.228 17.1638 33.8866 16.9661 35.5333L16.9659 35.5335Z" fill="black"/>
</g>
<path d="M33.7067 49.8003C34.6328 48.7178 35.2305 47.3296 35.3819 45.9015C35.6661 43.1257 34.6451 40.1524 33.3063 37.7662C32.6139 36.5488 31.8367 35.3902 30.9383 34.3167C30.8049 34.1623 30.5538 34.3373 30.6665 34.5194C31.3757 35.6974 32.0669 36.8891 32.7045 38.0985C33.3251 39.3037 33.9307 40.5321 34.2872 41.8408C35.0148 44.4964 34.9122 47.2349 33.4333 49.5996C33.3263 49.772 33.5683 49.9615 33.7065 49.8007L33.7067 49.8003Z" fill="black"/>
<path d="M21.7161 53.6867C23.5307 54.1102 25.4754 54.1122 27.2689 53.583C27.8675 53.4156 28.4544 53.2025 29.0135 52.9285C29.0981 52.887 29.1333 52.7844 29.0922 52.6991C29.057 52.6261 28.9769 52.5895 28.9016 52.6068C27.725 52.8655 26.5535 53.1324 25.3613 53.2711C24.1742 53.3863 22.9607 53.3725 21.7603 53.3488C21.5607 53.344 21.5197 53.6386 21.7159 53.6869L21.7161 53.6867Z" fill="black"/>
<path d="M16.7533 36.3024C16.3573 37.564 15.8227 38.7914 15.4069 40.0552C14.1807 43.7642 13.042 48.75 16.5121 51.6C16.5845 51.6598 16.6914 51.649 16.7506 51.5758C16.8045 51.5093 16.8004 51.4138 16.7444 51.3524C16.3138 50.8617 15.9476 50.3288 15.6645 49.7581C13.8861 46.0788 15.5752 42.0049 16.6432 38.3545C16.8261 37.7093 16.9967 37.052 17.0845 36.3707C17.0966 36.2771 17.0311 36.1913 16.9382 36.1792C16.8536 36.168 16.7755 36.2222 16.7531 36.3024H16.7533Z" fill="black"/>
<path d="M29.7098 57.262C29.8425 57.5803 30.0424 57.9732 30.2136 58.5048C30.2211 58.5293 30.2286 58.5538 30.2371 58.5793V58.5819C30.2808 58.7208 30.3219 58.8697 30.3589 59.029C30.6217 60.1481 30.7199 61.2122 31.1181 61.5855C31.302 61.7591 31.6951 61.8353 32.2073 61.8514C32.5676 61.8632 32.9875 61.8446 33.4343 61.8074C34.0945 61.7531 34.8132 61.6593 35.486 61.567C35.4912 61.5662 35.4953 61.5654 35.5003 61.5654C35.6934 61.5391 35.8824 61.513 36.0655 61.4875C38.6336 61.1319 40.9455 60.3277 41.645 59.8196C42.059 59.371 42.0128 58.2891 41.4787 57.6439C40.8834 56.8963 39.2954 56.3402 38.7645 55.6951C38.259 55.0804 38.2313 53.3669 37.079 52.9505C36.8657 52.8734 35.9016 52.7634 33.7912 54.134C31.1652 55.84 29.7167 55.8384 29.5791 56.006C29.3407 56.298 29.5437 56.86 29.71 57.262H29.7098Z" fill="white"/>
<path d="M29.7096 57.262C29.7549 57.3721 29.8087 57.4907 29.8676 57.621C29.9767 57.8682 30.1011 58.157 30.2136 58.5048C30.2211 58.5293 30.2286 58.5538 30.2371 58.5793V58.5819C30.2808 58.7208 30.3219 58.8697 30.3589 59.029C30.6217 60.1481 30.7199 61.2122 31.1181 61.5855C31.302 61.7591 31.6951 61.8353 32.2073 61.8514C32.5676 61.8632 32.9875 61.8446 33.4343 61.8074C34.0945 61.7531 34.8132 61.6593 35.486 61.567C35.4912 61.5662 35.4953 61.5654 35.5003 61.5654C35.6934 61.5391 35.8824 61.513 36.0655 61.4875C38.6336 61.1319 40.9455 60.3277 41.645 59.8196C42.059 59.371 42.0128 58.2891 41.4787 57.6439C40.8834 56.8963 39.2954 56.3402 38.7645 55.6951C38.4294 55.2879 38.3042 54.3997 37.9231 53.7243C37.7291 53.3796 37.4687 53.091 37.079 52.9505C36.8657 52.8734 35.9016 52.7634 33.7912 54.134C31.1652 55.84 29.7165 55.8382 29.5789 56.0058C29.3405 56.2978 29.5437 56.86 29.71 57.262H29.7096Z" fill="white"/>
<path d="M29.7096 57.262C29.7549 57.3721 29.8087 57.4907 29.8676 57.621C29.9767 57.8682 30.1011 58.157 30.2136 58.5048C30.2211 58.5293 30.2286 58.5538 30.2371 58.5793V58.5819C30.2808 58.7208 30.3219 58.8697 30.3589 59.029C30.6217 60.1481 30.7199 61.2122 31.1181 61.5855C31.302 61.7591 31.6951 61.8353 32.2073 61.8514C32.5676 61.8632 32.9875 61.8446 33.4343 61.8074C34.0945 61.7531 34.8132 61.6593 35.486 61.567C35.4912 61.5662 35.4953 61.5654 35.5003 61.5654C35.6934 61.5391 35.8824 61.513 36.0655 61.4875C38.6336 61.1319 40.9455 60.3277 41.645 59.8196C42.059 59.371 42.0128 58.2891 41.4787 57.6439C40.8834 56.8963 39.2954 56.3402 38.7645 55.6951C38.4294 55.2879 38.3042 54.3997 37.9231 53.7243C37.7291 53.3796 37.4687 53.091 37.079 52.9505C36.8657 52.8734 35.9016 52.7634 33.7912 54.134C31.1652 55.84 29.7165 55.8382 29.5789 56.0058C29.3405 56.2978 29.5437 56.86 29.71 57.262H29.7096Z" fill="white"/>
<path d="M29.7096 57.2615C29.7549 57.3719 29.8085 57.4907 29.8678 57.6208C29.9765 57.8682 30.1009 58.1562 30.2136 58.505C30.2211 58.5291 30.2284 58.554 30.2375 58.5789V58.5815C30.2812 58.721 30.3223 58.8695 30.3585 59.029C30.622 60.1479 30.7199 61.2122 31.1177 61.5857C31.3022 61.7591 31.695 61.8357 32.2071 61.8514C32.5678 61.863 32.9877 61.8448 33.4341 61.8074C34.0945 61.7534 34.8134 61.6587 35.4862 61.5666C35.4912 61.5658 35.4953 61.565 35.5003 61.565C35.693 61.5393 35.8824 61.5128 36.0651 61.4869C38.6334 61.1315 40.9449 60.3273 41.6448 59.8192C42.059 59.371 42.013 58.2893 41.4785 57.6435C41.234 57.3372 40.8239 57.0633 40.3876 56.8018C39.8573 56.4839 39.2883 56.1852 38.9357 55.8712C38.8707 55.8131 38.813 55.7543 38.7645 55.6953C38.4294 55.2877 38.3042 54.3995 37.923 53.7247C37.7295 53.3802 37.4685 53.0912 37.079 52.9501C36.8657 52.8738 35.9014 52.7634 33.7918 54.1338C31.1658 55.8398 29.7165 55.838 29.5789 56.0058C29.3401 56.298 29.5435 56.86 29.7098 57.2617L29.7096 57.2615Z" fill="white"/>
<path d="M33.5851 54.2632C33.7613 54.8028 34.1302 55.3009 34.4637 55.7583C35.2839 55.32 36.0727 54.8618 36.7578 54.4476L36.2003 52.9858C35.6674 53.1112 34.8819 53.4241 33.7891 54.1339C33.7561 54.1546 33.7241 54.1753 33.6921 54.1961C33.6559 54.2194 33.6205 54.2417 33.5851 54.2632Z" fill="#FFB522"/>
<path d="M34.1164 55.2687C34.3979 55.682 34.7117 56.0663 34.9143 56.4217C35.2536 56.1827 35.5583 55.927 35.8086 55.6571L35.5187 54.1338C35.0972 54.5513 34.6187 54.9298 34.1164 55.2685V55.2687Z" fill="#FFB522"/>
<path d="M35.8075 57.161L36.4819 58.6603C37.349 57.5513 39.2874 57.0191 40.3867 56.8017C39.8564 56.4838 39.2874 56.185 38.9349 55.8711L35.8075 57.161Z" fill="#E5E5E5"/>
<path d="M29.4721 56.4316C29.4893 56.7015 29.6063 57.0126 29.7101 57.2618C29.7554 57.3722 29.809 57.491 29.8683 57.6211C29.977 57.8685 30.1014 58.1565 30.2141 58.5053C30.2216 58.5294 30.2289 58.5543 30.238 58.5792V58.5818C30.2817 58.7213 30.3228 58.8698 30.359 59.0293C30.6226 60.1482 30.7204 61.2125 31.1182 61.586C31.3027 61.7594 31.6956 61.836 32.2076 61.8517C32.5683 61.8633 32.9882 61.8452 33.4346 61.8077C34.095 61.7537 34.8139 61.659 35.4867 61.5669C35.4917 61.5661 35.4958 61.5653 35.5008 61.5653C35.6935 61.5396 35.8829 61.5131 36.0656 61.4872C38.6339 61.1318 40.9454 60.3276 41.6453 59.8195C41.8421 59.6063 41.9352 59.2501 41.9203 58.8658C41.9089 58.8808 41.8972 58.8941 41.885 58.9073C41.1858 59.4153 38.8761 60.2347 36.3061 60.5757C29.6385 61.4589 31.4172 60.8247 29.4723 56.4318L29.4721 56.4316Z" fill="#E8E8E8"/>
<path d="M35.3291 61.5854C35.5159 61.5613 35.7022 61.5364 35.8841 61.5115C35.945 61.5031 36.0051 61.495 36.0652 61.4866C36.7075 61.3977 37.3333 61.2807 37.9221 61.148C38.0696 61.1139 38.2145 61.0798 38.3569 61.0451C38.4984 61.0094 38.6384 60.9738 38.7752 60.9373C38.9111 60.9008 39.0453 60.8633 39.1754 60.8253C39.9898 60.5887 40.6741 60.333 41.1484 60.104C41.1864 60.0856 41.2233 60.0675 41.2587 60.0492C41.3115 60.0218 41.3608 59.9951 41.407 59.9694C41.4375 59.9521 41.4679 59.9353 41.496 59.918C41.5379 59.8923 41.5759 59.8674 41.6113 59.8433C41.6227 59.8359 41.6344 59.8275 41.6451 59.8191C41.7143 59.7444 41.7702 59.6531 41.8131 59.5485C41.828 59.5136 41.8412 59.4771 41.8527 59.4397C41.9055 59.2678 41.9284 59.0703 41.9203 58.8652C41.9088 58.8802 41.8972 58.8935 41.8849 58.9067C41.1858 59.4147 38.8761 60.2341 36.306 60.5751C35.9956 60.6166 35.7024 60.6541 35.4273 60.6879C35.3459 61.0017 35.3022 61.3122 35.3293 61.5852L35.3291 61.5854Z" fill="#FFB522"/>
<path d="M33.4329 61.8073C34.0933 61.7533 34.8122 61.6586 35.485 61.5665C35.4899 61.5657 35.4941 61.5649 35.499 61.5649C35.5245 61.5607 35.5508 61.5565 35.5765 61.5533C35.7428 61.2677 35.8911 60.9415 36.0196 60.6128C35.2167 60.7174 34.5431 60.798 33.975 60.8502C33.8137 61.1822 33.6334 61.5077 33.4333 61.8073H33.4329Z" fill="#FFB522"/>
<path d="M29.4712 56.4316C29.4884 56.7015 29.6054 57.0126 29.7092 57.2618C29.7545 57.3722 29.8081 57.491 29.8674 57.6211C29.9761 57.8685 30.1005 58.1565 30.2132 58.5053C30.2207 58.5294 30.228 58.5543 30.2371 58.5792V58.5818C30.2808 58.7213 30.3219 58.8698 30.3581 59.0293C30.6217 60.1482 30.7195 61.2125 31.1174 61.586C31.3018 61.7594 31.6947 61.836 32.2068 61.8517C32.5237 61.8226 32.8359 61.7945 33.0977 61.787C32.8762 61.533 32.6949 61.2209 32.5361 60.9162C30.9115 60.8679 30.788 60.209 30.2733 58.5886C30.0881 58.0016 29.85 57.2887 29.4712 56.432V56.4316Z" fill="#FFB522"/>
<path d="M29.7088 57.2617C29.7541 57.3713 29.8077 57.4891 29.8652 57.6194C29.866 57.6202 29.8668 57.6202 29.8668 57.621C32.2548 57.1861 36.0436 54.9207 37.9219 53.7245C37.9096 53.7029 37.8972 53.6822 37.8849 53.6605C37.8469 53.5973 37.8058 53.5367 37.7631 53.4779C37.7342 53.4396 37.7038 53.4016 37.6726 53.3659C37.6569 53.3476 37.6405 53.3294 37.6239 53.3119C37.6099 53.2969 37.5951 53.282 37.5802 53.2678C37.567 53.2545 37.5539 53.2421 37.5407 53.2306C37.5292 53.2198 37.5168 53.209 37.5045 53.1991C37.3817 53.0944 37.2409 53.0089 37.078 52.9501C36.8647 52.8738 35.9004 52.7634 33.7908 54.1338C33.7578 54.1546 33.7258 54.1753 33.6938 54.196C31.127 55.8314 29.6268 55.5185 29.4751 55.6703C28.9589 56.1868 29.5427 56.8598 29.709 57.2617H29.7088Z" fill="#2468FF"/>
<g opacity="0.2">
<path d="M33.5851 54.2632C33.7613 54.8028 34.1302 55.3009 34.4637 55.7583C35.2839 55.32 36.0727 54.8618 36.7578 54.4476L36.2003 52.9858C35.6674 53.1112 34.8819 53.4241 33.7891 54.1339C33.7561 54.1546 33.7241 54.1753 33.6921 54.1961C33.6559 54.2194 33.6205 54.2417 33.5851 54.2632Z" fill="black"/>
</g>
<g opacity="0.7">
<path d="M29.298 56.3859C29.3292 56.2896 29.3852 56.1949 29.4749 56.1052C29.6264 55.9534 31.1268 56.2663 33.6936 54.6309C33.7256 54.6102 33.7578 54.5895 33.7906 54.5687C35.9002 53.1983 36.8645 53.3087 37.0778 53.385C37.2409 53.444 37.3817 53.5295 37.5043 53.634C37.5166 53.6439 37.529 53.6547 37.5405 53.6655C37.5537 53.677 37.5668 53.6896 37.58 53.7027C37.5949 53.7169 37.6097 53.7318 37.6237 53.7468C37.6401 53.7641 37.6567 53.7825 37.6724 53.8008C37.688 53.8181 37.7028 53.8365 37.7176 53.8548C37.7876 53.81 37.856 53.7669 37.9219 53.7245C37.9096 53.7029 37.8972 53.6822 37.8849 53.6605C37.8469 53.5973 37.8058 53.5367 37.7631 53.4779C37.7342 53.4396 37.7038 53.4016 37.6726 53.3659C37.6569 53.3476 37.6405 53.3294 37.6239 53.3119C37.6099 53.2969 37.5951 53.282 37.5802 53.2678C37.567 53.2545 37.5539 53.2421 37.5407 53.2306C37.5292 53.2198 37.5168 53.209 37.5045 53.1991C37.3817 53.0944 37.2409 53.0089 37.078 52.9501C36.8647 52.8738 35.9004 52.7634 33.7908 54.1338C33.7578 54.1546 33.7258 54.1753 33.6938 54.196C31.127 55.8314 29.6268 55.5185 29.4751 55.6703C29.2545 55.8912 29.2347 56.1409 29.2982 56.3859H29.298Z" fill="white"/>
</g>
<path d="M8.80937 12.9307C10.9502 10.1402 10.4073 8.32623 9.48852 7.25274C8.32793 5.89662 6.5062 4.46994 4.26926 5.08781C1.08171 5.96837 -0.642756 9.12587 0.928282 12.0348C1.86703 13.773 3.25775 14.6004 4.47784 14.9878C5.8482 15.4229 7.22291 14.9986 8.80937 12.9307Z" fill="black"/>
<g opacity="0.2">
<path d="M8.81338 12.9307C7.22652 14.9986 5.85142 15.4231 4.48185 14.988C3.26097 14.6002 1.87084 13.773 0.931894 12.0348C0.911135 11.9958 0.890372 11.9575 0.870403 11.9182C1.44733 12.5333 2.42464 13.145 3.83197 12.5981C5.52005 11.9423 6.47165 7.94773 9.27781 7.00977C9.35195 7.09128 9.42352 7.1724 9.49233 7.25293C10.4111 8.32582 10.9542 10.1396 8.81338 12.9307Z" fill="black"/>
</g>
<g opacity="0.3">
<path d="M10.4922 8.62106C9.30195 7.11127 7.2732 5.29873 4.73376 6.0007C2.07727 6.73537 0.389975 8.97823 0.6387 11.3995C-0.385263 8.68105 1.3131 5.90503 4.26913 5.08825C7.33311 4.24217 9.6179 7.23106 10.4922 8.62126V8.62106Z" fill="white"/>
</g>
<path d="M10.5898 8.45938C9.82429 6.73672 8.12968 5.10795 6.26741 4.67743C5.26994 4.44523 4.22225 4.63538 3.29754 5.05114C1.45445 5.84301 -0.00764751 7.67429 0.00204086 9.75072C-0.0191145 11.2854 0.75731 12.7157 1.80717 13.7794C2.87127 14.8326 4.31953 15.4502 5.78558 15.6111C6.23063 15.6492 6.30497 14.9978 5.86288 14.9336C4.52713 14.7847 3.24198 14.2396 2.2803 13.2921C0.635912 11.6468 0.0554199 9.28812 1.51613 7.31593C2.2973 6.26336 3.55852 5.55062 4.83912 5.33994C6.16459 5.14621 7.41079 5.7571 8.41024 6.64046C9.10144 7.25354 9.67719 7.95851 10.3055 8.64374C10.4309 8.78784 10.6685 8.63517 10.5898 8.45918V8.45938Z" fill="black"/>
<path d="M29.4531 9.87605C26.607 7.82334 26.61 5.92888 27.1839 4.63435C27.9089 2.99919 29.2473 1.10493 31.5659 1.04872C34.8699 0.968797 37.4218 3.49348 36.7464 6.7349C36.3426 8.67181 35.2465 9.86709 34.1885 10.5916C33.0001 11.4054 31.5623 11.3972 29.4533 9.87605H29.4531Z" fill="#686779"/>
<path d="M29.4522 9.87647C31.5616 11.3974 32.9998 11.4056 34.1875 10.5922C35.2462 9.8671 36.342 8.67202 36.7459 6.73511C36.7548 6.69166 36.7637 6.649 36.7716 6.60556C36.7716 6.60476 36.7714 6.60376 36.7722 6.60376C37.3519 3.42573 34.8247 0.969607 31.5648 1.04873C29.3844 1.10195 28.0714 2.77996 27.3195 4.33997C27.2716 4.43963 27.2261 4.53789 27.1832 4.63496C26.6091 5.92889 26.6061 7.82335 29.4522 9.87667V9.87647Z" fill="black"/>
<g opacity="0.2">
<path d="M29.4539 9.87653C31.5633 11.3975 33.0015 11.4057 34.1892 10.5923C35.2479 9.86717 36.3437 8.67209 36.7476 6.73518C36.7565 6.69173 36.7654 6.64907 36.7733 6.60562C36.3961 7.36201 35.6345 8.23081 34.1305 8.11481C32.3265 7.97569 30.2762 4.42535 27.3212 4.33984C27.2733 4.4395 27.2279 4.53776 27.185 4.63483C26.6108 5.92876 26.6078 7.82322 29.4539 9.87653Z" fill="black"/>
</g>
<g opacity="0.3">
<path d="M26.6134 6.23542C27.323 4.4446 28.7495 2.12062 31.3819 2.05724C34.1358 1.99127 36.3913 3.65054 36.8431 6.04189C37.0489 3.1415 34.6309 0.974578 31.5667 1.04872C28.3908 1.12586 27.0545 4.65069 26.6134 6.23562V6.23542Z" fill="white"/>
</g>
<path d="M26.7974 6.20376C27.5528 4.61046 28.2877 2.75387 29.8855 1.87311C30.6502 1.43124 31.5291 1.34812 32.4012 1.44858C34.1367 1.62457 35.825 2.75786 36.3355 4.48031C36.8506 6.17566 36.1939 8.1339 35.0312 9.41308C34.4311 10.0724 33.6713 10.5832 32.8478 10.9402C32.675 11.0138 32.5944 11.2155 32.6685 11.3891C32.7424 11.5621 32.9411 11.642 33.1128 11.5676C34.0147 11.1768 34.855 10.6143 35.5282 9.87549C35.8649 9.50736 36.1578 9.09797 36.4011 8.66068C37.1034 7.33785 37.4393 5.74275 36.9816 4.27901C36.3227 2.02817 33.9898 0.662488 31.7408 0.686007C29.8667 0.637973 28.37 1.79956 27.4546 3.37094C26.9455 4.21443 26.587 5.14123 26.4719 6.10949C26.4512 6.30282 26.7145 6.37816 26.797 6.20376H26.7974Z" fill="black"/>
<path d="M20.1093 33.8581C20.1093 33.8581 9.37556 35.2987 5.86574 29.6042C4.02522 26.6183 4.47343 22.7018 4.47324 22.6974C4.48372 22.52 2.28296 12.3742 10.8647 6.81243C13.2844 5.24424 15.6739 4.56738 18.0714 4.1835C20.4772 3.85663 22.9591 3.81278 25.7236 4.61362C35.529 7.45461 36.3133 17.8101 36.374 17.9769C36.375 17.9813 37.9208 21.6026 37.0091 24.9959C35.2706 31.4669 24.579 33.1968 24.579 33.1968" fill="white"/>
<path d="M20.1093 33.8581C20.1093 33.8581 9.37556 35.2987 5.86574 29.6042C4.02522 26.6183 4.47343 22.7018 4.47324 22.6974C4.48372 22.52 2.28296 12.3742 10.8647 6.81243C13.2844 5.24424 15.6739 4.56738 18.0714 4.1835C20.4772 3.85663 22.9591 3.81278 25.7236 4.61362C35.529 7.45461 36.3133 17.8101 36.374 17.9769C36.375 17.9813 37.9208 21.6026 37.0091 24.9959C35.2706 31.4669 24.579 33.1968 24.579 33.1968L20.1091 33.8583L20.1093 33.8581Z" fill="white"/>
<g opacity="0.2">
<path d="M4.44503 24.5488C4.51937 25.9544 4.83136 27.926 5.86561 29.6036C9.37563 35.2985 20.1091 33.8579 20.1091 33.8579L24.5789 33.1964C24.5789 33.1964 35.2711 31.467 37.0088 24.9955C37.4746 23.2625 37.2996 21.4699 37.0163 20.1299C37.0568 21.025 36.9926 21.9847 36.7399 22.9266C35.0014 29.3981 24.31 31.1275 24.31 31.1275L19.8403 31.789C19.8403 31.789 9.10654 33.2297 5.59671 27.5355C5.00911 26.5826 4.6548 25.534 4.44503 24.5486V24.5488Z" fill="black"/>
</g>
<path d="M20.0836 33.6885C16.4051 33.7132 12.5228 33.7917 9.15945 32.0842C8.05205 31.503 7.04766 30.7197 6.34677 29.6817C4.98867 27.7257 4.64959 24.8687 4.83445 22.7185C4.16875 18.5426 4.82575 13.9835 7.37903 10.5434C8.31244 9.27355 9.48607 8.18013 10.7894 7.30236C12.9613 5.78838 15.5231 4.94011 18.1197 4.5369C20.2042 4.2473 22.3428 4.21302 24.4074 4.6523C26.4571 5.07823 28.4481 5.8994 30.1296 7.16463C33.5578 9.71961 35.5037 13.8962 36.0498 18.0943C36.8578 20.1721 37.3288 23.0592 36.511 25.3706C35.442 28.2979 32.5961 30.0694 29.87 31.2553C28.1487 31.9856 26.3428 32.5044 24.5489 33.0276C24.3477 33.0758 24.3975 33.3811 24.6025 33.3642C27.471 33.0868 30.2322 32.0501 32.7209 30.6051C34.5952 29.4802 36.3183 27.8881 37.1214 25.7886C38.0425 23.2537 37.6449 20.4037 36.7212 17.9311L36.7044 17.8888C36.7056 17.892 36.7054 17.8958 36.7036 17.8998L36.6914 17.8579C36.6957 17.8637 36.6987 17.8705 36.6999 17.8775C36.7003 17.8802 36.7005 17.8832 36.6999 17.8767L36.6931 17.8282L36.6793 17.7286C35.8995 11.9926 32.4955 6.61971 26.9195 4.64313C25.1205 3.97006 23.1995 3.62903 21.2831 3.60751C17.47 3.59714 13.5655 4.51657 10.3861 6.69884C9.01314 7.62125 7.78138 8.7677 6.79637 10.1065C4.18654 13.6367 3.4291 18.2659 4.07938 22.5527L4.0948 22.652L4.10231 22.7002C4.1035 22.707 4.10271 22.7034 4.10231 22.7002C4.10133 22.6916 4.10231 22.6831 4.10488 22.6749V22.7215C4.10231 22.717 4.10113 22.712 4.10133 22.7074L4.09737 22.7528L4.08946 22.8465C3.93149 25.5548 4.42716 28.5628 6.21786 30.6841C8.85616 33.715 13.4823 34.3693 17.2774 34.3522C18.2371 34.3283 19.1887 34.2466 20.128 34.0263C20.326 33.9745 20.2823 33.6837 20.0834 33.6883L20.0836 33.6885Z" fill="black"/>
<path d="M26.7223 23.02C25.7392 22.96 23.4052 22.3375 22.9438 18.8892C22.4908 15.5053 23.6292 14.2188 25.7555 13.8548C27.8819 13.4909 31.0113 14.161 32.9167 15.8717C34.2742 17.0905 34.8938 19.3897 34.5229 20.4367C33.7898 22.5062 27.7053 23.0798 26.7223 23.0198V23.02Z" fill="#B6B6B6"/>
<path d="M15.348 24.7032C16.2723 24.361 18.3305 23.0888 17.7896 19.652C17.2587 16.2795 15.8016 15.3772 13.6613 15.6447C11.5209 15.9122 8.7145 17.4606 7.37716 19.651C6.42438 21.2117 6.48626 23.5934 7.1401 24.489C8.43216 26.2586 14.4237 25.0454 15.348 24.7032Z" fill="#B6B6B6"/>
<path d="M13.539 23.4088C12.1432 23.4088 11.0116 22.1294 11.0116 20.5511C11.0116 18.9728 12.1432 17.6934 13.539 17.6934C14.9349 17.6934 16.0664 18.9728 16.0664 20.5511C16.0664 22.1294 14.9349 23.4088 13.539 23.4088Z" fill="black"/>
<path d="M14.1053 22.266C13.6358 22.2462 13.2767 21.7161 13.303 21.0821C13.3294 20.448 13.7313 19.9501 14.2008 19.9699C14.6702 19.9898 15.0294 20.5198 15.0031 21.1539C14.9767 21.7879 14.5748 22.2858 14.1053 22.266Z" fill="white"/>
<g opacity="0.35">
<path d="M12.1609 20.3876C11.8829 20.3073 11.7536 19.904 11.8722 19.4869C11.9907 19.0697 12.3123 18.7967 12.5903 18.877C12.8684 18.9573 12.9977 19.3606 12.8791 19.7778C12.7605 20.1949 12.439 20.4679 12.1609 20.3876Z" fill="white"/>
</g>
<path d="M29.5137 9.96072C29.6722 9.60674 27.8851 6.91842 25.4398 8.15495C24.5589 8.60042 24.6052 9.52323 25.3514 9.61073C26.0624 9.69404 26.3484 9.49892 27.4634 9.71716C28.0943 9.84074 29.3553 10.3147 29.5137 9.96072Z" fill="black"/>
<path d="M9.05098 13.0074C8.7977 12.7148 9.73764 9.62052 12.4331 10.0917C13.4039 10.2613 13.6245 11.1584 12.9351 11.4594C12.2783 11.7462 11.9487 11.6427 10.9439 12.1767C10.3755 12.4787 9.30425 13.3 9.05098 13.0074Z" fill="black"/>
<path d="M35.3289 61.5852C35.5784 61.5533 35.8254 61.5202 36.0652 61.4868C38.6331 61.132 40.9452 60.3276 41.6453 59.8189C42.0415 59.3896 42.0158 58.3791 41.5437 57.7275C40.5976 58.6149 38.331 59.5821 36.2894 58.7221C36.2894 58.7221 35.2176 60.4717 35.3289 61.5854V61.5852Z" fill="#2468FF"/>
<g opacity="0.2">
<path d="M35.3293 61.5854C35.5161 61.5613 35.7024 61.5364 35.8843 61.5115C35.9452 61.5031 36.0053 61.495 36.0654 61.4866C36.7077 61.3977 37.3335 61.2807 37.9223 61.148C38.0698 61.1139 38.2147 61.0798 38.3571 61.0451C38.4986 61.0102 38.6386 60.9746 38.7754 60.9373C38.9113 60.9008 39.0455 60.8633 39.1756 60.8253C39.99 60.5895 40.6743 60.3338 41.1486 60.104C41.1866 60.0856 41.2235 60.0675 41.2589 60.0492C41.3117 60.0226 41.361 59.9959 41.4072 59.9694C41.4377 59.9521 41.4681 59.9353 41.4962 59.918C41.5381 59.8931 41.5761 59.8682 41.6115 59.8433C41.6229 59.8359 41.6346 59.8275 41.6453 59.8191H41.6461C41.7145 59.7452 41.7704 59.6531 41.8131 59.5485C41.828 59.5136 41.8412 59.4771 41.8527 59.4397C41.9055 59.2678 41.9284 59.0703 41.9203 58.8652C41.9088 58.8802 41.8972 58.8935 41.8849 58.9067C41.1858 59.4147 38.8761 60.2341 36.306 60.5751C35.9956 60.6166 35.7024 60.6541 35.4273 60.6879C35.3459 61.0017 35.3022 61.3122 35.3293 61.5852V61.5854Z" fill="black"/>
</g>
<path d="M29.7101 57.2618C29.8428 57.5801 30.0427 57.9729 30.2139 58.5045C31.676 58.0989 34.4942 57.0738 35.8086 55.6567L35.5189 54.1338C33.7848 55.8499 31.0925 56.9096 29.7101 57.2618Z" fill="#2468FF"/>
<g opacity="0.2">
<path d="M34.1164 55.2687C34.3979 55.682 34.7117 56.0663 34.9143 56.4217C35.2536 56.1827 35.5583 55.927 35.8086 55.6571L35.5187 54.1338C35.0972 54.5513 34.6187 54.9298 34.1164 55.2685V55.2687Z" fill="black"/>
</g>
<path d="M30.2139 58.7602C30.2363 58.7602 30.2588 58.7572 30.2814 58.7511C32.1476 58.2335 34.7635 57.1582 35.9941 55.8313C36.0495 55.7717 36.0732 55.6888 36.058 55.6085L35.7683 54.0856C35.7507 53.9931 35.6839 53.9177 35.5947 53.8896C35.5056 53.8613 35.4083 53.8853 35.3415 53.9512C33.6095 55.6649 30.9479 56.6828 29.6483 57.0139C29.5767 57.0322 29.5166 57.081 29.4836 57.1476C29.4506 57.2142 29.448 57.2921 29.4767 57.3609C29.5138 57.4496 29.5558 57.5442 29.601 57.6457C29.7191 57.9104 29.8529 58.2103 29.9731 58.5836C30.0077 58.6913 30.107 58.7604 30.2143 58.7604L30.2139 58.7602ZM35.5348 55.5744C34.3918 56.73 32.1106 57.6853 30.3757 58.1926C30.2689 57.8966 30.157 57.6457 30.0633 57.4358C30.0627 57.4342 30.0619 57.4326 30.0611 57.431C31.3939 57.0477 33.6838 56.1188 35.3559 54.6351L35.5346 55.5744H35.5348Z" fill="black"/>
<path d="M36.604 58.9161C36.6325 58.9161 36.661 58.9113 36.6885 58.9015C36.7709 58.8722 36.8326 58.8019 36.8516 58.7156L36.8696 58.6326C36.8921 58.5244 36.8431 58.4138 36.748 58.3586L36.6066 58.2765C36.5133 58.2221 36.3962 58.2332 36.3144 58.3042C36.2327 58.3751 36.2045 58.4903 36.2438 58.5914C36.2685 58.655 36.2869 58.6895 36.2869 58.6895C36.2926 58.7004 36.3005 58.7132 36.3077 58.7229C36.3185 58.7377 36.3607 58.7913 36.4455 58.8599C36.4911 58.8967 36.5471 58.9159 36.6038 58.9159L36.604 58.9161Z" fill="#232333"/>
<path d="M36.4798 58.7541C36.5112 58.7541 36.5431 58.7483 36.5739 58.7358C36.704 58.6831 36.7673 58.5344 36.7153 58.4033C36.6475 58.2325 36.5152 57.7803 36.7513 57.273C37.0279 56.6789 37.7096 56.2009 38.7774 55.8527C38.9107 55.8093 38.9839 55.6652 38.9408 55.5306C38.8977 55.3963 38.7547 55.3225 38.6213 55.366C37.4144 55.7594 36.6307 56.3281 36.292 57.0558C35.9715 57.7444 36.1518 58.3604 36.2443 58.5932C36.2841 58.6931 36.3794 58.7541 36.48 58.7541H36.4798Z" fill="#232333"/>
<path d="M38.0441 59.2853C38.4444 59.2853 38.9294 59.2369 39.5151 59.1133C40.6436 58.8746 41.3878 58.4321 41.7273 57.7981C41.7939 57.6737 41.7478 57.5186 41.6245 57.4517C41.5013 57.3845 41.3475 57.4309 41.2808 57.5553C41.0193 58.0438 40.3727 58.4096 39.4109 58.6129C37.6085 58.9934 36.928 58.5919 36.7623 58.4598C36.6526 58.3723 36.493 58.3908 36.406 58.5016C36.3192 58.6125 36.3378 58.7731 36.4475 58.8608C36.6777 59.0444 37.1502 59.2853 38.0439 59.2853H38.0441Z" fill="black"/>
<path d="M32.4346 62.1103C32.7284 62.1103 33.0644 62.0942 33.4535 62.0619C34.1142 62.0077 34.8365 61.9136 35.5182 61.8201C35.5192 61.8201 35.5204 61.8197 35.5216 61.8197C35.5251 61.8193 35.5287 61.8189 35.532 61.8185C35.707 61.7948 35.8786 61.7711 36.0457 61.748L36.0981 61.7406C38.6421 61.3882 41.034 60.5768 41.7913 60.0269C41.8047 60.0172 41.8174 60.006 41.8286 59.9936C42.3498 59.4288 42.2735 58.207 41.6713 57.4799C41.3338 57.0562 40.7325 56.7064 40.151 56.3682C39.6747 56.0911 39.1824 55.8047 38.9578 55.5318C38.8097 55.3519 38.6965 55.0158 38.5766 54.6599C38.3307 53.9298 38.0246 53.0213 37.1628 52.7098C36.9858 52.6456 35.9852 52.4036 33.652 53.919C31.6968 55.189 30.3579 55.3044 29.7863 55.3537C29.535 55.3752 29.3964 55.3871 29.2951 55.4886C28.7506 56.0333 29.1206 56.7028 29.3414 57.1028C29.3946 57.1989 29.4446 57.2898 29.4739 57.3603C29.4739 57.3603 29.4739 57.3607 29.4739 57.3609C29.511 57.4496 29.553 57.5443 29.5982 57.6457C29.7163 57.9104 29.8501 58.2104 29.9703 58.5837C29.9759 58.6016 29.9822 58.6218 29.9889 58.6429C29.9903 58.6483 29.9917 58.6537 29.9933 58.6591C30.0368 58.7976 30.0759 58.9415 30.1099 59.087C30.1773 59.3742 30.2335 59.6566 30.2879 59.9297C30.4561 60.7736 30.5888 61.4403 30.9431 61.7727C31.1635 61.9806 31.5621 62.087 32.1972 62.1068C32.2731 62.1093 32.352 62.1105 32.4341 62.1105L32.4346 62.1103ZM35.4743 61.3101C35.4638 61.3109 35.4537 61.3123 35.4427 61.3143C34.7752 61.4058 34.0612 61.4986 33.4119 61.5521C32.94 61.5915 32.5371 61.6059 32.2138 61.5953C31.5698 61.575 31.3585 61.4632 31.2897 61.3984C31.0544 61.1778 30.9237 60.5222 30.7857 59.8286C30.7305 59.5514 30.6734 59.2648 30.604 58.9696C30.5686 58.8173 30.5277 58.666 30.4822 58.5201C30.4804 58.5126 30.4785 58.5052 30.4761 58.4982C30.4682 58.4747 30.4613 58.4518 30.4541 58.429C30.3244 58.0262 30.1785 57.699 30.0613 57.4361C30.018 57.3388 29.9776 57.2483 29.9421 57.1632C29.9017 57.0659 29.8448 56.9629 29.7847 56.8537C29.5512 56.4313 29.4122 56.131 29.6222 55.8844C29.6684 55.8769 29.753 55.8697 29.8296 55.8631C30.4389 55.8105 31.8658 55.6877 33.927 54.3487C36.1426 52.9099 36.9835 53.1881 36.9918 53.1909C37.6233 53.4191 37.8639 54.1335 38.0966 54.8243C38.232 55.2261 38.3599 55.6054 38.5675 55.8581C38.8503 56.2017 39.3592 56.4977 39.898 56.811C40.4389 57.1255 40.9982 57.4508 41.2792 57.8036C41.7424 58.3633 41.7695 59.2743 41.4734 59.6271C40.8266 60.0783 38.6055 60.8768 36.0293 61.2336L35.9767 61.2409C35.8134 61.2637 35.6455 61.2868 35.4743 61.3101Z" fill="black"/>
<path d="M30.2363 58.5791V58.5817C30.28 58.7206 30.3212 58.8695 30.3581 59.0288C30.6209 60.1479 30.7192 61.212 31.1173 61.5853C31.3012 61.7589 31.6943 61.8351 32.2066 61.8512C32.5231 61.8225 32.8355 61.7936 33.0977 61.7868C32.6575 61.2824 32.3754 60.5491 32.1168 60.0971C31.5794 59.1573 30.8597 58.723 30.2365 58.5791H30.2363Z" fill="#2468FF"/>
<g opacity="0.2">
<path d="M30.2371 58.5791V58.5817C30.2808 58.7212 30.3219 58.8697 30.3581 59.0291C30.6217 60.1481 30.7195 61.2124 31.1174 61.5859C31.3018 61.7593 31.6947 61.8359 32.2068 61.8516C32.5237 61.8225 32.8359 61.7944 33.0977 61.7868C32.8762 61.5329 32.6949 61.2208 32.5361 60.916C30.9115 60.8678 30.788 60.2089 30.2733 58.5885C30.261 58.5851 30.2494 58.5819 30.2371 58.5793V58.5791Z" fill="black"/>
</g>
<path d="M32.2067 62.1068C32.2145 62.1068 32.222 62.1064 32.2295 62.1058L32.2552 62.1034C32.565 62.0753 32.8576 62.0488 33.1044 62.0424C33.2028 62.0398 33.2908 61.98 33.3304 61.8891C33.3697 61.798 33.3535 61.6924 33.2884 61.6178C33.0018 61.2892 32.7809 60.8435 32.5862 60.4505C32.4996 60.2761 32.4179 60.1112 32.3368 59.9691C31.6674 58.7988 30.7694 58.4396 30.2937 58.3298C30.2187 58.3122 30.1392 58.3304 30.0789 58.379C30.0184 58.4275 29.9833 58.5012 29.9833 58.5789V58.5815C29.9833 58.6076 29.9874 58.6337 29.9951 58.6589C30.0386 58.7974 30.0778 58.9413 30.1118 59.0868C30.1792 59.374 30.2353 59.6564 30.2897 59.9295C30.458 60.7734 30.5906 61.4401 30.9449 61.7725C31.1654 61.9804 31.564 62.0868 32.199 62.1066C32.2018 62.1066 32.2044 62.1066 32.2069 62.1066L32.2067 62.1068ZM32.6117 61.5588C32.482 61.5692 32.3475 61.5814 32.2095 61.5939L32.1994 61.5949C31.5677 61.5734 31.3591 61.4628 31.2909 61.3986C31.0557 61.178 30.925 60.5224 30.787 59.8288C30.7322 59.5536 30.6754 59.2691 30.6068 58.9762C31.0003 59.1583 31.4924 59.5171 31.8971 60.2248C31.9709 60.3536 32.0492 60.5117 32.132 60.6791C32.2724 60.9627 32.4256 61.2718 32.6117 61.5592V61.5588Z" fill="black"/>
<path d="M33.4329 61.807C34.093 61.7528 34.8117 61.6589 35.4846 61.5666C35.4897 61.5658 35.4938 61.565 35.4988 61.565C35.5249 61.5609 35.5508 61.5567 35.5761 61.5533C36.1665 60.54 36.5259 59.022 36.6056 58.6605C36.5401 58.6071 36.5133 58.5716 36.5133 58.5716C36.5133 58.5716 36.4998 58.5453 36.4814 58.4978L35.0571 57.6665C35.0571 57.6665 34.5482 60.1376 33.4329 61.807Z" fill="#2468FF"/>
<g opacity="0.2">
<path d="M33.4329 61.8073C34.0933 61.7533 34.8122 61.6586 35.485 61.5665C35.4899 61.5657 35.4941 61.5649 35.499 61.5649C35.5245 61.5607 35.5508 61.5565 35.5765 61.5533C35.7428 61.2677 35.8911 60.9415 36.0196 60.6128C35.2167 60.7174 34.5431 60.798 33.975 60.8502C33.8137 61.1822 33.6334 61.5077 33.4333 61.8073H33.4329Z" fill="black"/>
</g>
<path d="M33.4329 62.0626C33.4398 62.0626 33.4467 62.0624 33.4534 62.0618C34.1146 62.0075 34.8368 61.9135 35.5186 61.82C35.5195 61.82 35.5207 61.8196 35.5219 61.8196C35.5275 61.819 35.533 61.8184 35.5385 61.8174C35.5686 61.8126 35.5895 61.809 35.6097 61.8064C35.687 61.7961 35.7552 61.7502 35.7948 61.6825C36.4134 60.6203 36.7849 59.0248 36.8531 58.7157C36.8739 58.621 36.8399 58.5226 36.7651 58.4616C36.7483 58.4478 36.7357 58.4365 36.7268 58.4279C36.724 58.4211 36.7209 58.4134 36.7173 58.4044C36.6963 58.3504 36.658 58.3053 36.6084 58.2764L35.184 57.4451C35.1134 57.4038 35.0276 57.3995 34.9533 57.4329C34.879 57.4664 34.8252 57.534 34.8086 57.6143C34.8036 57.6386 34.2959 60.0571 33.2225 61.6641C33.1681 61.7457 33.1648 61.8513 33.214 61.9362C33.2597 62.0149 33.3433 62.0628 33.4329 62.0628V62.0626ZM35.5077 61.8202C35.5047 61.8202 35.502 61.8202 35.499 61.8202C35.502 61.8202 35.5049 61.8202 35.5077 61.8202ZM35.4171 61.3177C34.927 61.3847 34.4127 61.4525 33.9181 61.5043C34.6423 60.2365 35.0632 58.7275 35.2267 58.0608L36.2819 58.6766C36.2857 58.6844 36.2877 58.6884 36.2877 58.6884C36.2942 58.701 36.3031 58.7153 36.3116 58.7267C36.3144 58.7303 36.3191 58.7362 36.326 58.7444C36.2163 59.2106 35.8998 60.4362 35.4169 61.3179L35.4171 61.3177Z" fill="black"/>
<path d="M38.2305 55.2337C38.2305 55.2337 37.9972 55.0027 37.6684 53.6438C37.4813 52.8702 36.9793 51.848 35.1366 52.6753C34.0172 53.1778 34.2811 53.9656 34.6125 54.7226C34.9124 55.4077 35.4411 56.0405 35.6863 56.2741C36.0386 56.6097 38.2303 55.2337 38.2303 55.2337H38.2305Z" fill="white"/>
<path d="M34.6121 54.7231C34.6953 54.9124 34.7949 55.0974 34.9019 55.271C35.1819 55.7268 35.5079 56.1053 35.6858 56.2745C36.0384 56.6099 38.2302 55.2335 38.2302 55.2335C38.2302 55.2335 38.0359 55.0418 37.7518 53.9758C37.7247 53.8738 37.6966 53.7634 37.6677 53.6438C37.4809 52.8701 36.9785 51.8482 35.1364 52.6751C34.0165 53.1774 34.2809 53.9659 34.6119 54.7231H34.6121Z" fill="white"/>
<path d="M34.9019 55.2707C35.1819 55.7265 35.5079 56.105 35.6858 56.2742C36.0384 56.6097 38.2302 55.2332 38.2302 55.2332C38.2302 55.2332 38.0359 55.0415 37.7518 53.9756C36.7521 54.0105 35.3827 54.3947 34.9017 55.2705L34.9019 55.2707Z" fill="#E5E5E5"/>
<path d="M35.8526 56.5842C36.1009 56.5842 36.5025 56.4666 37.2056 56.1078C37.8007 55.8043 38.3422 55.4648 38.365 55.4507C38.4355 55.4064 38.4913 55.3401 38.4956 55.2564C38.4998 55.175 38.4757 55.1063 38.414 55.0555C38.3788 55.0056 38.1842 54.6957 37.9153 53.5831C37.7532 52.9128 37.4604 52.4813 37.0203 52.2635C36.5185 52.0151 35.8502 52.0749 35.0339 52.4415C33.6159 53.0781 34.1135 54.215 34.381 54.8256C34.6875 55.5256 35.2256 56.1863 35.5127 56.4598C35.5863 56.5298 35.6841 56.5842 35.8528 56.5842H35.8526ZM37.8849 55.1471C36.9663 55.7026 36.0717 56.1094 35.8435 56.0715C35.5912 55.825 35.1129 55.2314 34.845 54.6194C34.4571 53.7334 34.4221 53.276 35.2403 52.9087C35.9125 52.6069 36.4366 52.5441 36.7969 52.7227C37.0936 52.8696 37.2983 53.1907 37.4226 53.7043C37.6097 54.478 37.7704 54.909 37.8851 55.1469L37.8849 55.1471Z" fill="black"/>
<path d="M36.6681 57.5439C36.6681 57.5439 37.2673 58.3505 36.7637 58.8974C36.1736 59.5384 34.9355 58.9042 34.4778 57.8411C33.8803 56.4533 35.3384 55.193 36.6777 54.6959C38.4255 54.0474 38.9271 54.9222 38.9178 55.5689C38.9087 56.2159 36.6679 57.5439 36.6679 57.5439H36.6681Z" fill="#2468FF"/>
<g opacity="0.7">
<path d="M34.4797 57.841C34.5686 58.0485 34.688 58.2394 34.8262 58.408C34.7909 58.344 34.7578 58.2785 34.7292 58.2105C34.1321 56.8225 35.5896 55.5624 36.9295 55.0659C37.9268 54.6956 38.518 54.821 38.8398 55.1182C38.6405 54.6059 38.0346 54.1934 36.68 54.6956C35.3403 55.1929 33.8828 56.453 34.4797 57.841Z" fill="white"/>
</g>
<path d="M36.1548 59.4099C36.4686 59.4099 36.7452 59.2933 36.9498 59.0711C37.402 58.5799 37.1908 57.9639 37.0174 57.6304C37.7227 57.1951 39.1624 56.2267 39.1717 55.5723C39.1782 55.1195 38.9813 54.7057 38.6454 54.4659C38.1727 54.1287 37.4813 54.1253 36.5904 54.4558C35.7265 54.7763 34.6575 55.4631 34.2474 56.429C34.0321 56.9364 34.0313 57.4457 34.2453 57.9425C34.5622 58.6788 35.2516 59.2737 35.9219 59.3894C36.0012 59.4029 36.0791 59.4099 36.1546 59.4099H36.1548ZM36.4646 57.6964C36.4694 57.7028 36.93 58.3408 36.5779 58.7233C36.4407 58.8723 36.2483 58.9267 36.0075 58.8853C35.5047 58.7986 34.9592 58.3165 34.7105 57.739C34.5543 57.3763 34.5555 57.0032 34.7139 56.6303C34.9994 55.9576 35.8048 55.2923 36.7655 54.9359C37.4801 54.6706 38.0285 54.6529 38.352 54.8835C38.6397 55.0888 38.6662 55.4286 38.6644 55.5652C38.6606 55.833 37.6677 56.6544 36.5393 57.3233C36.4773 57.3602 36.4334 57.4221 36.4193 57.4935C36.4051 57.5645 36.4215 57.6384 36.4646 57.6966V57.6964Z" fill="black"/>
<path d="M39.9805 56.5672C39.9805 56.5672 38.0559 56.4871 36.4315 58.1246C36.4315 58.1246 35.3326 58.3945 35.538 57.3666C35.7541 56.2862 38.2018 55.3006 38.8363 55.4574C39.4453 55.6079 39.9467 56.0446 39.9803 56.5674L39.9805 56.5672Z" fill="white"/>
<path d="M35.517 57.6338C35.5425 58.3435 36.4352 58.1243 36.4352 58.1243C38.059 56.4865 39.9844 56.567 39.9844 56.567C39.967 56.3056 39.8337 56.0666 39.6287 55.873C39.6526 55.9452 39.6674 56.0191 39.6724 56.0955C39.6724 56.0955 37.9034 56.0215 36.3265 57.458C36.1347 57.6328 35.8727 57.7183 35.6198 57.6639C35.585 57.6563 35.5506 57.6465 35.5172 57.6338H35.517Z" fill="#E5E5E5"/>
<path d="M36.1413 58.4125C36.3195 58.4125 36.4612 58.3802 36.4917 58.3729C36.537 58.3617 36.5781 58.3384 36.6111 58.3053C38.1388 56.7654 39.9517 56.8226 39.9703 56.8226C40.0424 56.827 40.1118 56.7977 40.1623 56.7459C40.2125 56.6941 40.2386 56.6231 40.2338 56.5508C40.1943 55.9361 39.6573 55.3967 38.8971 55.209C38.3609 55.0764 37.1778 55.5155 36.4081 56.0082C35.9598 56.2952 35.4019 56.755 35.2896 57.3161C35.2137 57.6958 35.2781 57.9884 35.4816 58.1851C35.6706 58.3681 35.9312 58.4129 36.1413 58.4129V58.4125ZM36.3082 57.8879C36.1651 57.9099 35.9331 57.9135 35.8327 57.8154C35.7461 57.7309 35.7601 57.5519 35.7872 57.4168C35.8471 57.117 36.1643 56.7698 36.6803 56.4395C37.499 55.9153 38.5011 55.6373 38.7765 55.7053C39.1877 55.8069 39.5139 56.0437 39.6541 56.3225C39.0159 56.3738 37.5864 56.6335 36.3082 57.8879Z" fill="black"/>
<path d="M34.078 58.547L33.3712 59.9511L30.9213 58.3628L33.2041 59.1463L34.078 58.547Z" fill="black"/>
<path d="M30.9021 19.6199C30.8058 18.125 29.686 16.6991 28.1857 16.4253C26.4725 16.1112 24.9651 17.0908 24.7852 18.8788C24.7431 19.3002 24.7779 19.7133 24.8827 20.1036C24.9203 20.2433 25.063 20.326 25.2016 20.2882C25.3014 20.2608 25.3718 20.1787 25.3896 20.0825C25.5852 19.1652 25.7959 18.0909 26.6938 17.6682C28.3601 16.9792 29.8117 18.1372 30.4045 19.7197C30.5035 19.9998 30.9177 19.9152 30.9019 19.6195L30.9021 19.6199Z" fill="black"/>
<path d="M23.6821 23.838C23.4096 24.6466 22.0572 24.7875 21.6059 24.078C21.3682 23.7605 21.2881 23.3104 21.2013 22.9268C21.0457 22.9503 20.7377 22.9949 20.5821 23.0184C20.5981 23.2624 20.6337 23.5745 20.6076 23.8173C20.5679 24.6121 19.9607 25.0452 19.2019 24.986C18.9144 24.9607 18.6479 24.8513 18.4681 24.6095C18.4132 24.5294 18.3023 24.5107 18.2249 24.5695C18.0116 24.7401 18.3798 25.1569 18.5314 25.2768C19.3988 25.9517 20.8662 25.5567 21.2061 24.4832C21.3492 24.0744 21.3593 23.6586 21.2703 23.2417L20.9882 23.6477L20.9937 23.6469L20.6078 23.3397C20.6121 23.4069 20.6175 23.4513 20.6246 23.5046C20.7822 24.6012 21.6418 25.3801 22.7653 25.1321C23.3626 25.0116 23.9776 24.5496 24.0154 23.895C24.0201 23.8003 23.948 23.7196 23.8541 23.7148C23.7738 23.7107 23.7034 23.7635 23.6819 23.838H23.6821Z" fill="black"/>
<path d="M18.9 22.1944C18.9611 22.6116 19.555 22.8998 20.0874 23.0764C20.6442 23.2612 21.2251 23.1746 21.7049 22.8354C22.1638 22.5111 22.6496 22.0621 22.5885 21.6449C22.4041 20.3865 18.7155 20.9358 18.9 22.1944Z" fill="black"/>
<g opacity="0.5">
<path d="M19.9778 21.7818C19.9954 21.9022 20.2252 21.9765 20.4322 22.0194C20.6489 22.0642 20.879 22.0299 21.0736 21.9239C21.2594 21.8224 21.4579 21.6843 21.4403 21.5639C21.3871 21.201 19.9246 21.4188 19.9778 21.7818Z" fill="white"/>
</g>
<path d="M19.4725 25.2959C18.4635 25.2014 18.5509 24.096 17.4146 24.0005C16.7986 23.9487 16.3739 24.5815 16.6661 25.1868C16.9836 25.8442 18.008 26.0405 18.5725 25.8779C19.1711 25.7055 19.4727 25.2959 19.4727 25.2959H19.4725Z" fill="#FF8080"/>
<path d="M18.1464 26.2302C18.3314 26.2302 18.5052 26.2078 18.6547 26.1648C19.3419 25.9669 19.6964 25.4937 19.7113 25.4736C19.7749 25.3871 19.7874 25.2725 19.7439 25.1742C19.7004 25.0758 19.6075 25.0088 19.5011 24.9988C19.1351 24.9645 18.9712 24.7644 18.7442 24.4874C18.4799 24.1647 18.1509 23.7631 17.4403 23.7033C17.0486 23.67 16.6848 23.8424 16.467 24.1633C16.2388 24.4991 16.2143 24.9305 16.4011 25.3175C16.7072 25.9515 17.4941 26.2302 18.1466 26.2302H18.1464ZM18.8803 25.4194C18.7739 25.4847 18.6444 25.5471 18.4922 25.591C18.0323 25.7233 17.1752 25.5571 16.9332 25.0562C16.8406 24.8647 16.849 24.657 16.9553 24.5003C17.053 24.3566 17.2116 24.2825 17.3913 24.2978C17.8533 24.3367 18.0451 24.5707 18.2879 24.8671C18.4413 25.0544 18.6183 25.2705 18.8805 25.4192L18.8803 25.4194Z" fill="black"/>
<path d="M11.8604 6.85388C12.2379 5.51211 9.41054 5.94522 9.53194 4.74337C9.62032 3.86938 12.8399 1.97592 15.5595 4.0677C15.5595 4.0677 15.531 3.38824 15.3548 2.51007C15.1439 1.45771 15.1543 0.569371 15.5887 0.387997C16.4689 0.0206652 18.195 1.76485 21.4917 3.24494C22.7667 3.81736 25.1874 4.59209 26.293 4.80834L18.8706 11.2593L11.8602 6.85408L11.8604 6.85388Z" fill="white"/>
<path d="M12.0261 6.90023C12.368 6.15142 11.6253 5.68483 11.0223 5.47615L10.7165 5.36652C10.5189 5.29437 10.3258 5.2284 10.1696 5.14429C10.0502 5.08131 9.93469 5.00358 9.89713 4.89555C9.89179 4.87701 9.88803 4.85768 9.88724 4.83416C9.88684 4.81363 9.8906 4.77138 9.89238 4.77238C9.97147 4.57685 10.1749 4.40265 10.3685 4.25895C11.1714 3.6943 12.1954 3.43958 13.1669 3.50973C13.9633 3.56833 14.7214 3.86929 15.3669 4.34585C15.5854 4.51765 15.9242 4.32731 15.9001 4.05326C15.8677 3.37898 15.7443 2.74218 15.6257 2.08525C15.5794 1.7799 15.55 1.47077 15.5672 1.18795C15.582 1.00797 15.601 0.83935 15.6937 0.722951C15.7129 0.702622 15.7267 0.701426 15.7514 0.692855C15.9533 0.642828 16.2384 0.75803 16.4506 0.854697C17.3017 1.27026 18.0989 1.82754 18.9352 2.3017C19.4991 2.62997 20.0751 2.94289 20.6637 3.2309C21.8357 3.81368 23.0813 4.2442 24.3269 4.63365C24.958 4.82639 25.5786 5.00956 26.2313 5.1431C26.6625 5.21903 26.8058 4.57825 26.3626 4.4742C26.0605 4.41421 25.751 4.33489 25.444 4.25058C23.9137 3.81528 22.3909 3.32138 20.9592 2.61761C19.8004 2.05675 18.7217 1.38327 17.6139 0.713385C16.9945 0.376746 16.1184 -0.25886 15.3807 0.113256C14.6265 0.582835 14.9169 1.96247 15.0462 2.68159C15.133 3.13841 15.1982 3.62533 15.2243 4.08196L15.7675 3.79654H15.7673C14.3328 2.5919 12.1841 2.42229 10.535 3.28969C9.88981 3.6351 8.94493 4.25935 9.22984 5.13114C9.51969 5.86839 10.4693 5.95848 11.1067 6.1857C11.444 6.3001 11.7426 6.42248 11.7007 6.80735C11.6787 7.00108 11.945 7.07901 12.0261 6.90043V6.90023Z" fill="black"/>
<path d="M23.4482 60.7998C23.6028 61.508 23.6769 62.8505 23.3337 63.2615C22.7754 63.9298 20.5374 64.0835 18.6945 64.1823C16.1565 64.3187 13.98 64.0853 13.2129 63.7263C12.5992 63.3313 12.7293 61.853 13.0152 61.0298L23.448 60.8L23.4482 60.7998Z" fill="white"/>
<path d="M23.3335 63.2619C22.7752 63.9302 20.5371 64.0836 18.6942 64.1825C16.1563 64.3186 13.9799 64.0854 13.2133 63.7267C12.8452 63.4901 12.7447 62.8642 12.7851 62.2233C12.8171 62.6665 12.944 63.0492 13.2133 63.2228C13.9799 63.5822 16.1563 63.8156 18.6942 63.6794C20.5371 63.5806 22.7752 63.4263 23.3335 62.758C23.4826 62.5796 23.5534 62.2251 23.5724 61.8232C23.5971 62.4126 23.5435 63.0111 23.3335 63.2619Z" fill="#E8E8E8"/>
<path d="M17.2397 64.4771C17.716 64.4771 18.2085 64.4643 18.7062 64.4376C20.899 64.3198 22.9177 64.1538 23.5257 63.4261C23.9727 62.8911 23.8284 61.3608 23.6939 60.7447C23.6639 60.6068 23.5286 60.5195 23.3916 60.55C23.2548 60.5803 23.1684 60.7166 23.1984 60.8548C23.3685 61.6339 23.3794 62.8076 23.1376 63.0966C22.6207 63.7153 20.0566 63.853 18.6791 63.927C16.0869 64.0657 14.0372 63.8193 13.3347 63.502C12.928 63.2146 12.9555 61.9697 13.2526 61.1143C13.2989 60.9809 13.2293 60.835 13.097 60.7884C12.9646 60.7416 12.82 60.8119 12.7738 60.9453C12.5245 61.663 12.2538 63.4137 13.0743 63.9419C13.0838 63.9481 13.0937 63.9535 13.104 63.9583C13.8033 64.2857 15.4006 64.4773 17.2395 64.4773L17.2397 64.4771Z" fill="black"/>
<path d="M15.5825 55.0632C15.7685 54.9417 16.8632 54.2648 19.5363 55.1874C22.4338 56.1876 23.1102 55.7349 23.284 55.8575C23.9392 56.3189 23.4368 57.7354 23.4368 59.4178C23.4368 60.5453 23.6761 61.5207 23.3329 61.9315C22.7745 62.5998 20.5366 62.7535 18.6937 62.8524C16.1556 62.9887 13.7815 62.6453 13.0143 62.2861C12.5333 61.9315 12.3799 60.881 12.7753 60.16C13.2121 59.3291 14.6396 58.4978 15.0322 57.7773C15.4059 57.0914 14.8634 55.5334 15.5821 55.063L15.5825 55.0632Z" fill="#FCFCFC"/>
<path d="M23.4367 59.4181C23.4367 60.5454 23.6763 61.5209 23.3329 61.9316C22.8463 62.5136 21.0849 62.7054 19.4207 62.8098C19.1746 62.8256 18.9308 62.8397 18.6936 62.8521C16.1557 62.989 13.7817 62.6454 13.0142 62.286C12.5539 61.9466 12.3934 60.9686 12.7285 60.253C12.7433 60.2215 12.759 60.1908 12.7754 60.1602C13.2117 59.3292 14.6396 58.4983 15.0325 57.7778C15.4064 57.0921 14.8636 55.5339 15.5825 55.0633C15.7686 54.9414 16.8629 54.2647 19.536 55.1879C22.4337 56.1883 23.1099 55.735 23.2845 55.8578C23.9391 56.3194 23.4367 57.7355 23.4367 59.4181Z" fill="#FCFCFC"/>
<path d="M23.4369 59.4181C23.4369 60.5454 23.6765 61.5209 23.3331 61.9316C22.8465 62.5136 21.0851 62.7054 19.4209 62.8098C19.1748 62.8256 18.931 62.8397 18.6937 62.8521C16.1559 62.989 13.7819 62.6454 13.0144 62.286C12.5541 61.9466 12.3936 60.9686 12.7287 60.253C12.7435 60.2215 12.7591 60.1908 12.7755 60.1602C13.2119 59.3292 14.6398 58.4983 15.0326 57.7778C15.213 57.4473 15.1801 56.9136 15.1784 56.3965C15.1768 55.8421 15.2104 55.3075 15.5827 55.0633C15.7687 54.9414 16.8631 54.2647 19.5362 55.1879C22.4339 56.1883 23.1101 55.735 23.2846 55.8578C23.7574 56.1915 23.6263 57.0224 23.5177 58.0933C23.4758 58.5043 23.4371 58.9507 23.4371 59.4181H23.4369Z" fill="#FCFCFC"/>
<path d="M23.4369 59.4181C23.4369 60.5454 23.6765 61.5209 23.3331 61.9316C22.8465 62.5136 21.0851 62.7054 19.4209 62.8098C19.1748 62.8256 18.931 62.8397 18.6937 62.8521C16.1559 62.989 13.7819 62.6454 13.0144 62.286C12.5541 61.9466 12.3936 60.9686 12.7287 60.253C12.7435 60.2215 12.7591 60.1908 12.7755 60.1602C13.2119 59.3292 14.6398 58.4983 15.0326 57.7778C15.213 57.4473 15.1801 56.9136 15.1784 56.3965C15.1768 55.8421 15.2104 55.3075 15.5827 55.0633C15.7687 54.9414 16.8631 54.2647 19.5362 55.1879C22.4339 56.1883 23.1101 55.735 23.2846 55.8578C23.7574 56.1915 23.6263 57.0224 23.5177 58.0933C23.4758 58.5043 23.4371 58.9507 23.4371 59.4181H23.4369Z" fill="#FCFCFC"/>
<path d="M23.437 59.4181C23.437 60.5454 23.6766 61.5209 23.3332 61.9316C22.8466 62.5136 21.0852 62.7054 19.421 62.8098C19.1749 62.8256 18.9311 62.8397 18.6939 62.8521C16.156 62.989 13.782 62.6454 13.0145 62.286C12.5542 61.9466 12.3937 60.9686 12.7288 60.253C12.7436 60.2215 12.7593 60.1908 12.7757 60.1602C12.9354 59.8556 13.2286 59.5509 13.5555 59.2511C14.0412 58.807 14.6012 58.3737 14.9058 57.9711C14.9553 57.9055 14.998 57.8416 15.0326 57.7778C15.2129 57.4473 15.1799 56.9136 15.1783 56.3965C15.1767 55.8421 15.2103 55.3075 15.5826 55.0633C15.7687 54.9414 16.863 54.2647 19.5361 55.1879C22.4338 56.1883 23.11 55.735 23.2846 55.8578C23.7573 56.1915 23.6262 57.0224 23.5177 58.0933C23.4758 58.5043 23.437 58.9507 23.437 59.4181Z" fill="#FCFCFC"/>
<path d="M19.2645 57.2449C18.8693 57.1295 18.5333 57.0191 18.2903 56.927C17.9339 56.7917 17.5155 56.6889 17.0888 56.6115C17.1284 56.169 17.2033 55.3373 17.2593 54.7139C17.8405 54.7338 18.5899 54.86 19.5377 55.1878C19.5913 55.2062 19.6439 55.2243 19.6959 55.2418C19.7289 55.9923 19.4958 56.7193 19.2645 57.2449Z" fill="#FFB522"/>
<path d="M19.5154 56.5614C19.3523 57.1151 19.1161 57.5733 18.9696 57.8283C18.5767 57.6457 18.2046 57.4348 17.8726 57.1907V55.6699C18.4096 56.0293 18.9654 56.3225 19.5154 56.5614Z" fill="#FFB522"/>
<path d="M17.2387 59.9315C16.1121 59.152 14.3688 59.1853 13.5537 59.2517C14.0395 58.8076 14.5994 58.3743 14.9041 57.9717C16.1821 58.1194 18.0216 58.7237 18.0843 59.0824C18.1683 59.5664 17.2387 59.9317 17.2387 59.9317V59.9315Z" fill="#E8E8E8"/>
<path d="M23.3341 61.9319C22.8475 62.5139 21.0861 62.7056 19.4219 62.8101C19.1757 62.8258 18.932 62.84 18.6947 62.8523C16.1568 62.9892 13.7829 62.6456 13.0154 62.2863C12.6943 62.0497 12.5189 61.5026 12.5567 60.9499C12.6324 61.1175 12.7354 61.2554 12.8598 61.3475C13.6273 61.7069 16.0012 62.0507 18.5391 61.9136C18.7762 61.9012 19.02 61.8871 19.2663 61.8713C20.9305 61.7667 22.6919 61.5749 23.1785 60.9931C23.288 60.8628 23.391 60.6511 23.4816 60.3862C23.5294 61.0826 23.5737 61.6447 23.3343 61.9319H23.3341Z" fill="#E8E8E8"/>
<path d="M23.5175 58.0933C21.8162 57.9745 19.2752 57.3022 18.2886 56.9269C17.3589 56.5741 16.0125 56.4446 15.1784 56.3965C15.1768 55.8421 15.2104 55.3075 15.5827 55.0633C15.7687 54.9414 16.8631 54.2647 19.5362 55.1879C22.4339 56.1883 23.1101 55.735 23.2846 55.8578C23.7574 56.1915 23.6263 57.0224 23.5177 58.0933H23.5175Z" fill="#2468FF"/>
<g opacity="0.2">
<path d="M19.2645 57.2449C18.8693 57.1295 18.5333 57.0191 18.2903 56.927C17.9339 56.7917 17.5155 56.6889 17.0888 56.6115C17.1284 56.169 17.2033 55.3373 17.2593 54.7139C17.8405 54.7338 18.5899 54.86 19.5377 55.1878C19.5913 55.2062 19.6439 55.2243 19.6959 55.2418C19.7289 55.9923 19.4958 56.7193 19.2645 57.2449Z" fill="black"/>
</g>
<g opacity="0.7">
<path d="M23.614 57.0557C23.5908 56.7186 23.5011 56.4613 23.2846 56.3086C23.11 56.1859 22.434 56.6391 19.5361 55.6388C16.8632 54.7157 15.7689 55.3922 15.5826 55.5142C15.3133 55.691 15.2212 56.0196 15.1915 56.3973C15.1866 56.3973 15.1825 56.3965 15.1783 56.3965C15.1767 55.8421 15.2103 55.3075 15.5826 55.0633C15.7687 54.9414 16.863 54.2647 19.5361 55.1879C22.4338 56.1883 23.11 55.735 23.2846 55.8578C23.5893 56.0729 23.6436 56.4954 23.614 57.0557Z" fill="white"/>
</g>
<path d="M19.4217 62.8097C19.1755 62.8255 18.9318 62.8396 18.6945 62.852C16.1566 62.9889 13.7827 62.6453 13.0152 62.286C12.5549 61.9465 12.3943 60.9685 12.7295 60.253C13.8032 60.9312 16.1634 61.4401 17.9717 60.2314C17.9717 60.2314 19.3246 61.7165 19.4217 62.8097Z" fill="#2468FF"/>
<g opacity="0.2">
<path d="M19.4217 62.8104C19.1755 62.8261 18.9318 62.8403 18.6945 62.8526C16.1566 62.9896 13.7827 62.6459 13.0152 62.2866C12.6941 62.05 12.5187 61.5029 12.5565 60.9502C12.6322 61.1178 12.7352 61.2557 12.8596 61.3478C13.6271 61.7072 16.001 62.051 18.5389 61.9139C18.7299 61.9039 18.925 61.8931 19.122 61.8806C19.2791 62.1943 19.3954 62.5164 19.4217 62.8104Z" fill="black"/>
</g>
<path d="M23.5701 57.5817C23.5298 57.9768 23.477 58.4168 23.4515 58.8858C22.0902 58.8095 19.5014 58.3877 17.871 57.1907V55.6699C19.9931 57.091 22.4131 57.4771 23.5701 57.5817Z" fill="#2468FF"/>
<g opacity="0.2">
<path d="M19.5154 56.5614C19.3523 57.1151 19.1161 57.5733 18.9696 57.8283C18.5767 57.6457 18.2046 57.4348 17.8726 57.1907V55.6699C18.4096 56.0293 18.9654 56.3225 19.5154 56.5614Z" fill="black"/>
</g>
<path d="M23.452 59.1414C23.5143 59.1414 23.5746 59.1183 23.6212 59.0762C23.6713 59.031 23.7017 58.9674 23.7053 58.8996C23.7252 58.5313 23.7618 58.1857 23.7972 57.8518L23.8227 57.6077C23.8296 57.5397 23.8093 57.4715 23.7662 57.4189C23.7231 57.3661 23.6606 57.333 23.5932 57.3268C22.3889 57.218 20.0624 56.8302 18.0117 55.4567C17.9336 55.4047 17.8337 55.3999 17.7515 55.4443C17.6691 55.489 17.6176 55.5755 17.6176 55.6698V57.1905C17.6176 57.2722 17.6564 57.349 17.722 57.3972C19.2709 58.5345 21.7693 59.0473 23.438 59.141C23.4427 59.141 23.4474 59.1414 23.452 59.1414ZM23.2915 57.8106C23.2654 58.0577 23.2367 58.3298 23.2155 58.6134C21.6649 58.4926 19.5155 58.0246 18.1252 57.0584V56.1336C20.0252 57.2822 22.0698 57.676 23.2915 57.8106Z" fill="black"/>
<path d="M17.6526 60.4871C17.7263 60.4871 17.7969 60.4548 17.8456 60.3974C17.9152 60.3153 17.946 60.2553 17.9537 60.2389C17.9587 60.2282 17.964 60.2144 17.9676 60.2033C17.9676 60.2033 17.9794 60.1658 17.9917 60.0984C18.0112 59.9916 17.9618 59.884 17.8683 59.8301C17.7748 59.7761 17.6577 59.7879 17.5763 59.8586L17.4553 59.9641C17.3724 60.0362 17.3449 60.154 17.3871 60.2559C17.3871 60.2559 17.3981 60.2826 17.4197 60.3328C17.4545 60.4137 17.5282 60.4709 17.6148 60.4841C17.6275 60.4861 17.6399 60.4871 17.6526 60.4871Z" fill="#232333"/>
<path d="M17.7461 60.3076C17.8653 60.3076 17.9715 60.2227 17.9948 60.1004C18.0413 59.8582 18.1022 59.2296 17.666 58.6247C17.2056 57.9859 16.3455 57.5838 15.1098 57.4296C14.969 57.4128 14.8441 57.5119 14.8269 57.652C14.8097 57.7923 14.9085 57.9199 15.0475 57.9372C16.1383 58.0732 16.8811 58.4056 17.2556 58.9252C17.5749 59.3681 17.5306 59.8265 17.4966 60.0031C17.4701 60.1418 17.5599 60.276 17.6975 60.3027C17.7139 60.3059 17.7301 60.3072 17.7459 60.3072L17.7461 60.3076Z" fill="#232333"/>
<path d="M15.096 61.2162C16.8739 61.2162 17.5797 60.7076 17.8445 60.3981C17.936 60.291 17.9242 60.1296 17.818 60.0373C17.7118 59.9452 17.5517 59.957 17.4601 60.064C17.3253 60.2219 16.7446 60.7335 14.9414 60.7034C13.9796 60.6869 13.2911 60.4559 12.9508 60.0353C12.8621 59.9261 12.7023 59.9098 12.5938 59.9989C12.4852 60.0881 12.4692 60.2492 12.5576 60.3588C13.0019 60.9071 13.8008 61.1953 14.9327 61.2147C14.9879 61.2157 15.0425 61.216 15.0958 61.216L15.096 61.2162Z" fill="black"/>
<path d="M17.556 63.1382C17.9348 63.1382 18.3204 63.1286 18.7077 63.1077C20.9005 62.9899 22.9194 62.8239 23.5272 62.0962C23.8285 61.7354 23.7876 61.1494 23.7358 60.4074C23.7136 60.0911 23.6909 59.764 23.6909 59.4178C23.6909 58.8691 23.7466 58.3399 23.7959 57.8731C23.9036 56.8499 23.9888 56.0415 23.4295 55.6478C23.3123 55.5653 23.1873 55.5745 23.0139 55.5866C22.6335 55.6141 21.7416 55.6781 19.6186 54.9454C17.0647 54.0637 15.8487 54.5841 15.4444 54.8488C14.9108 55.1978 14.9189 55.9416 14.9262 56.5979C14.9306 57.0043 14.9353 57.4247 14.8102 57.6543C14.6443 57.9586 14.2225 58.3262 13.8147 58.6816C13.3164 59.1157 12.8014 59.5645 12.5513 60.0405C12.1064 60.8515 12.2577 62.0451 12.8646 62.4926C12.8781 62.5026 12.8925 62.5111 12.9075 62.5181C13.6102 62.847 15.4747 63.1382 17.5554 63.1382H17.556ZM23.1685 56.0899C23.4481 56.3317 23.3785 56.9912 23.2915 57.8189C23.2411 58.2985 23.1837 58.842 23.1837 59.4176C23.1837 59.782 23.2083 60.1331 23.23 60.4433C23.2703 61.0199 23.3083 61.5646 23.1395 61.7667C22.6228 62.3854 20.0585 62.5229 18.681 62.597C16.1364 62.734 13.8518 62.379 13.1464 62.0655C12.7984 61.7822 12.6584 60.9035 12.9983 60.284C13.2059 59.889 13.6846 59.4718 14.1472 59.0686C14.6093 58.6658 15.0458 58.2855 15.2554 57.9006C15.4446 57.5534 15.4393 57.0649 15.4341 56.5926C15.428 56.0427 15.4219 55.474 15.7212 55.2781C15.9881 55.1033 17.0455 54.598 19.4549 55.4298C21.6754 56.1963 22.6392 56.1272 23.0507 56.0973C23.093 56.0943 23.1395 56.0909 23.1689 56.0903L23.1685 56.0899Z" fill="black"/>
<path d="M23.3342 61.9313C23.0675 62.2518 22.416 62.4527 21.6066 62.5878C21.7507 62.0614 21.9656 61.2887 22.1139 60.7998C22.3955 59.8718 22.8739 59.2699 23.4479 59.0151C23.4414 59.1471 23.438 59.2816 23.438 59.4177C23.438 60.5459 23.6777 61.5213 23.3342 61.9313Z" fill="#2468FF"/>
<g opacity="0.2">
<path d="M23.3341 61.9308C23.0674 62.2513 22.4159 62.4522 21.6064 62.5873C21.6871 62.2926 21.7901 61.9216 21.8906 61.5655C22.4926 61.4335 22.962 61.2525 23.1785 60.9926C23.288 60.8623 23.391 60.6506 23.4816 60.3857C23.5294 61.0821 23.5737 61.6442 23.3343 61.9306L23.3341 61.9308Z" fill="black"/>
</g>
<path d="M21.6069 62.8441C21.6208 62.8441 21.6346 62.8429 21.6485 62.8405C22.6473 62.6737 23.2448 62.4371 23.5287 62.096C23.8298 61.7359 23.7887 61.1503 23.7369 60.4089C23.7148 60.0922 23.6918 59.7649 23.6918 59.4181C23.6918 59.2877 23.695 59.1566 23.7013 59.0282C23.7057 58.9395 23.6644 58.855 23.5918 58.8048C23.5192 58.7546 23.4261 58.7458 23.3456 58.7813C22.677 59.0783 22.1671 59.7503 21.8713 60.7252C21.7117 61.2516 21.4838 62.0757 21.3622 62.52C21.3392 62.6041 21.3602 62.6944 21.4181 62.7592C21.4668 62.8134 21.5354 62.8439 21.6067 62.8439L21.6069 62.8441ZM23.1847 59.4813C23.1873 59.8235 23.2102 60.1527 23.2308 60.4449C23.2711 61.0212 23.3093 61.5653 23.1406 61.7666C23.1406 61.7666 23.1404 61.767 23.1402 61.7672C23.0238 61.9071 22.7223 62.0978 21.9603 62.2613C22.0823 61.8208 22.2388 61.2643 22.3569 60.8749C22.5437 60.259 22.831 59.779 23.1849 59.4811L23.1847 59.4813Z" fill="black"/>
<path d="M21.2147 62.6453C20.5715 62.7324 19.8583 62.7856 19.1741 62.8255C18.4198 61.9597 17.7956 60.5651 17.6522 60.2314C17.7058 60.1682 17.7248 60.1286 17.7248 60.1286C17.7248 60.1286 17.7331 60.1013 17.742 60.0522L18.9615 58.9863C18.9615 58.9863 19.8451 61.3396 21.2145 62.6455L21.2147 62.6453Z" fill="#2468FF"/>
<g opacity="0.2">
<path d="M21.2147 62.6454C20.5715 62.7325 19.8583 62.7857 19.1741 62.8255C18.9402 62.5567 18.7187 62.2378 18.5202 61.9149C18.5259 61.9149 18.5309 61.9141 18.5366 61.9141C18.7737 61.9017 19.0175 61.8876 19.2638 61.8718C19.6648 61.8469 20.0717 61.8162 20.4653 61.7764C20.6935 62.0893 20.9446 62.3883 21.2147 62.6456V62.6454Z" fill="black"/>
</g>
<path d="M19.1745 63.0812C19.1793 63.0812 19.1842 63.0812 19.1892 63.0808C19.7295 63.0493 20.5309 62.9961 21.2488 62.8988C21.3456 62.8857 21.4263 62.8177 21.4564 62.7238C21.4862 62.6302 21.4603 62.5273 21.3893 62.4595C20.0773 61.2087 19.208 58.9186 19.1993 58.8956C19.17 58.8175 19.1046 58.7587 19.0241 58.7382C18.9444 58.7179 18.8586 58.7382 18.7959 58.793L17.5764 59.8589C17.5329 59.8968 17.5035 59.9486 17.4932 60.0056C17.4916 60.0144 17.49 60.0222 17.4886 60.0289C17.4825 60.0373 17.473 60.0501 17.46 60.0654C17.3971 60.1398 17.3817 60.2434 17.4202 60.3331C17.5922 60.7337 18.2131 62.1094 18.9841 62.9943C19.0324 63.0497 19.102 63.0814 19.1747 63.0814L19.1745 63.0812ZM20.6784 62.452C20.1799 62.5044 19.6779 62.5391 19.2857 62.5628C18.6619 61.8056 18.1344 60.6899 17.943 60.2605C17.9485 60.2506 17.9521 60.2434 17.9543 60.2392C17.9592 60.2284 17.9645 60.2147 17.9681 60.2035C17.9681 60.2035 17.9695 60.1991 17.9718 60.1906L18.8614 59.4133C19.1285 60.0423 19.7718 61.4187 20.6786 62.4524L20.6784 62.452Z" fill="black"/>
<path d="M15.4623 57.2342C15.4623 57.2342 15.6446 56.9683 15.712 55.5984C15.7503 54.8185 16.0461 53.7408 17.9724 54.1939C19.1427 54.4691 19.033 55.2771 18.8527 56.0678C18.6896 56.7833 18.2965 57.4913 18.1031 57.762C17.8253 58.1508 15.4625 57.2342 15.4625 57.2342H15.4623Z" fill="white"/>
<path d="M18.8525 56.0685C18.841 56.1207 18.8278 56.1723 18.8138 56.2237C18.6334 56.8844 18.2827 57.5121 18.1032 57.7628C17.8256 58.1513 15.4623 57.2348 15.4623 57.2348C15.4623 57.2348 15.6098 57.0206 15.6887 55.9863C15.6978 55.8685 15.7059 55.739 15.7126 55.5987C15.7506 54.8192 16.0461 53.7417 17.9731 54.1941C19.1431 54.4698 19.0328 55.2774 18.8525 56.0685Z" fill="white"/>
<path d="M18.8125 56.2235C18.6322 56.8842 18.2814 57.5119 18.1019 57.7626C17.8243 58.151 15.461 57.2346 15.461 57.2346C15.461 57.2346 15.6085 57.0203 15.6874 55.9861C16.2341 55.85 17.2428 55.7172 18.0861 56.2667C18.3603 56.4461 18.6033 56.3945 18.8123 56.2235H18.8125Z" fill="#E5E5E5"/>
<path d="M17.784 58.1139C18.0466 58.1139 18.2128 58.0463 18.3091 57.9116C18.5357 57.5944 18.9331 56.8572 19.1 56.1253C19.2459 55.4857 19.5174 54.2948 18.0302 53.945C17.175 53.7441 16.5192 53.8113 16.0803 54.145C15.6952 54.4377 15.4919 54.9091 15.4587 55.586C15.4037 56.7035 15.274 57.0392 15.2489 57.0944C15.1979 57.156 15.1872 57.2279 15.2064 57.307C15.2262 57.3886 15.2936 57.443 15.3711 57.4731C15.3958 57.4826 15.9797 57.7085 16.6086 57.8898C17.1262 58.0393 17.5078 58.1139 17.7836 58.1139H17.784ZM17.9121 57.5919C17.6966 57.6696 16.766 57.4444 15.7859 57.0834C15.8525 56.8315 15.9277 56.3866 15.9658 55.6113C15.9911 55.0951 16.1287 54.7489 16.3862 54.5531C16.6993 54.315 17.2138 54.2779 17.9153 54.4429C18.7664 54.643 18.8163 55.0883 18.6059 56.0105C18.4606 56.6481 18.1102 57.3068 17.9123 57.5919H17.9121Z" fill="black"/>
<path d="M17.3892 59.168C17.3892 59.168 16.9601 60.0563 17.5452 60.4892C18.2311 60.9965 19.307 60.155 19.5528 59.046C19.8737 57.5982 18.2384 56.6565 16.8575 56.4275C15.0556 56.1287 14.7331 57.0645 14.8604 57.6857C14.9878 58.307 17.3894 59.1682 17.3894 59.1682L17.3892 59.168Z" fill="#2468FF"/>
<g opacity="0.7">
<path d="M19.5525 59.0466C19.4883 59.3354 19.3681 59.606 19.2133 59.8392C19.2767 59.6989 19.3277 59.5504 19.3615 59.396C19.6745 57.9822 18.0778 57.0626 16.7298 56.8384C15.5522 56.6433 15.0211 56.9887 14.8359 57.4194C14.8473 56.8334 15.2995 56.1693 16.8575 56.4274C18.2383 56.6566 19.8738 57.5978 19.5527 59.0464L19.5525 59.0466Z" fill="white"/>
</g>
<path d="M18.0053 60.8966C18.1486 60.8966 18.2973 60.8683 18.4473 60.8117C19.0733 60.5749 19.6295 59.8721 19.7999 59.1024C19.9152 58.5826 19.8207 58.0909 19.5195 57.6412C18.9468 56.786 17.7899 56.3236 16.8984 56.1755C15.9781 56.023 15.3116 56.1556 14.9172 56.5699C14.6364 56.8647 14.5223 57.3014 14.6119 57.7381C14.741 58.3675 16.3013 59.0314 17.0625 59.3204C16.957 59.676 16.8694 60.3072 17.3951 60.6961C17.5752 60.8292 17.7838 60.8966 18.0054 60.8968L18.0053 60.8966ZM16.2159 56.6259C16.3968 56.6259 16.5973 56.6439 16.816 56.6802C17.8052 56.8442 18.7014 57.3337 19.099 57.9273C19.3191 58.2557 19.3883 58.6135 19.3048 58.9906C19.1716 59.5915 18.7362 60.156 18.2692 60.3325C18.0466 60.4169 17.8532 60.4001 17.695 60.2833C17.2891 59.9832 17.614 59.2866 17.6173 59.2796C17.6484 59.2142 17.6506 59.1383 17.6233 59.0713C17.5958 59.0043 17.5416 58.9517 17.474 58.9274C16.2664 58.4941 15.1609 57.8898 15.1085 57.6343C15.0818 57.5039 15.0453 57.1735 15.2829 56.9239C15.4711 56.7262 15.7889 56.6257 16.2159 56.6257V56.6259Z" fill="black"/>
<path d="M14.0169 58.845C14.0169 58.845 15.8555 58.4093 17.7201 59.6833C17.7201 59.6833 18.8279 59.7383 18.4414 58.7868C18.0351 57.7867 15.4972 57.2938 14.9152 57.5631C14.3564 57.8214 13.9535 58.3354 14.0171 58.8452L14.0169 58.845Z" fill="white"/>
<path d="M18.035 59.6541C17.8661 59.6906 17.7196 59.6832 17.7196 59.6832C15.8554 58.409 14.0166 58.8447 14.0166 58.8447C14.0067 58.7675 14.0083 58.691 14.019 58.6147C14.1499 58.4993 14.3047 58.4038 14.4759 58.3382C15.399 57.9862 17.596 58.5624 18.002 59.5626C18.0152 59.5941 18.0259 59.624 18.035 59.6539V59.6541Z" fill="white"/>
<path d="M18.035 59.6541C17.8661 59.6906 17.7196 59.6832 17.7196 59.6832C15.8554 58.409 14.0166 58.8447 14.0166 58.8447C14.0067 58.7675 14.0083 58.691 14.019 58.6147C14.1499 58.4993 14.3047 58.4038 14.4759 58.3382C15.399 57.9862 17.596 58.5624 18.002 59.5626C18.0152 59.5941 18.0259 59.624 18.035 59.6539V59.6541Z" fill="#E8E8E8"/>
<path d="M17.7623 59.94C17.9286 59.94 18.4138 59.9093 18.6538 59.5673C18.8143 59.3383 18.823 59.0431 18.6797 58.6899C18.4681 58.1691 17.8451 57.8295 17.3599 57.6362C16.5276 57.3047 15.3051 57.1026 14.8128 57.3306C14.1133 57.6541 13.6937 58.2756 13.7689 58.8771C13.7778 58.949 13.8167 59.0138 13.8758 59.0553C13.9349 59.0965 14.0085 59.1107 14.0783 59.0943C14.1026 59.0888 15.8415 58.7063 17.5814 59.8952C17.6197 59.9215 17.6648 59.9366 17.7113 59.9388C17.72 59.9392 17.7378 59.94 17.7625 59.94H17.7623ZM15.3959 57.7458C15.8342 57.7458 16.5377 57.8588 17.1735 58.1119C17.7297 58.3334 18.0978 58.6074 18.2101 58.8839C18.2605 59.008 18.3066 59.1759 18.24 59.2715C18.1625 59.3827 17.9418 59.4218 17.8007 59.4278C16.3465 58.4629 14.9287 58.4743 14.2989 58.543C14.3873 58.2532 14.658 57.965 15.0243 57.7956C15.0949 57.7629 15.2254 57.7458 15.3959 57.7458Z" fill="black"/>
<path d="M20.068 59.6515L21.0061 60.8717L23.074 58.8857L21.0194 60.0657L20.068 59.6515Z" fill="black"/>
<path d="M17.3696 24.9142C17.5355 25.5592 18.1116 26.0676 18.7963 25.9855C18.8912 25.9781 18.9816 25.9562 19.0757 25.9405C19.2147 25.9171 19.3086 25.7848 19.2854 25.6447C19.2623 25.5046 19.1308 25.4099 18.992 25.4332C18.9713 25.4362 18.9392 25.4474 18.9189 25.4541C18.6707 25.5584 18.3866 25.607 18.1341 25.489C17.8712 25.3762 17.6555 25.1213 17.5303 24.861C17.4926 24.7617 17.3409 24.8116 17.3696 24.9142Z" fill="black"/>
<path d="M42.4659 11.3173C41.9817 10.5186 41.7429 9.55993 41.8451 8.55699C42.093 6.12259 44.2517 4.3517 46.6666 4.60164C49.0814 4.85158 50.8381 7.02767 50.5902 9.46206C50.3423 11.8965 48.1836 13.6673 45.7687 13.4174C45.0971 13.3479 44.4765 13.129 43.9357 12.7974L41.9016 13.2572L42.4661 11.3173H42.4659Z" fill="white"/>
<g opacity="0.5">
<path d="M46.5817 5.4495C44.3258 5.21611 42.2941 6.74603 41.834 8.93308C41.8334 8.77682 41.8402 8.61936 41.8564 8.46031C42.1043 6.02591 44.263 4.25502 46.6778 4.50496C49.0929 4.7549 50.8496 6.93099 50.6017 9.36539C50.5855 9.52503 50.5605 9.68149 50.5283 9.83496C50.5198 7.59848 48.8385 5.6829 46.5819 5.4493L46.5817 5.4495Z" fill="white"/>
</g>
<path d="M46.2266 13.8307C47.3218 13.8307 48.375 13.4548 49.2362 12.7487C50.2268 11.9359 50.8444 10.7827 50.9747 9.50188C51.244 6.85761 49.3292 4.4854 46.7061 4.21394C44.0826 3.94247 41.7298 5.87301 41.4603 8.51728C41.3585 9.51703 41.5614 10.4992 42.0477 11.3694L41.5303 13.1477C41.4918 13.28 41.5256 13.4232 41.6193 13.5238C41.713 13.6245 41.8526 13.6679 41.9861 13.6376L43.8717 13.2113C44.4444 13.5372 45.0686 13.7369 45.7292 13.8052C45.8955 13.8224 46.0615 13.8309 46.2266 13.8309V13.8307ZM46.2148 4.96773C46.351 4.96773 46.4886 4.97471 46.6272 4.98906C48.8262 5.21668 50.4314 7.20521 50.2056 9.42196C50.0963 10.4959 49.5787 11.4623 48.7481 12.1438C47.9175 12.825 46.8732 13.1399 45.8083 13.0293C45.2098 12.9673 44.6475 12.7772 44.1366 12.4639C44.051 12.4114 43.9488 12.3945 43.8511 12.4166L42.4572 12.7317L42.837 11.4266C42.8677 11.321 42.8528 11.2074 42.7959 11.1137C42.3352 10.3539 42.1395 9.48335 42.2298 8.59641C42.4414 6.51938 44.1868 4.96753 46.215 4.96753L46.2148 4.96773Z" fill="black"/>
<g opacity="0.3">
<path d="M42.4413 11.2748C43.6451 12.3014 45.3038 12.7509 46.9509 12.3377C48.7776 11.8795 50.1234 10.4771 50.6074 8.77539C50.6191 9.00101 50.6138 9.23042 50.5902 9.46222C50.3423 11.8966 48.1837 13.6675 45.7688 13.4176C45.0972 13.348 44.4765 13.1292 43.9358 12.7975L41.9017 13.2573L42.4662 11.3174C42.4577 11.3035 42.4498 11.2889 42.4415 11.275L42.4413 11.2748Z" fill="black"/>
</g>
<path d="M44.8103 7.76529C45.1907 7.38181 45.8073 7.45058 46.1877 7.83405L46.2469 7.89365L46.306 7.83405C46.6864 7.45058 47.303 7.38181 47.6834 7.76529C48.0639 8.14877 48.0639 8.77042 47.6834 9.1539L47.6243 9.21349L46.4284 10.4191C46.3281 10.5202 46.1654 10.5202 46.0652 10.4191L44.8692 9.21349L44.8101 9.1539C44.4297 8.77042 44.4297 8.14877 44.8101 7.76529H44.8103Z" fill="#2468FF"/>
</g>
<defs>
<clipPath id="clip0_166_5813">
<rect width="51" height="66" fill="white" transform="matrix(-1 0 0 1 51 0)"/>
</clipPath>
</defs>
</svg>
