<svg xmlns="http://www.w3.org/2000/svg" width="31" height="30" viewBox="0 0 31 30" fill="none">
  <rect width="31" height="30" rx="4" fill="#FF0000"/>
  <path d="M25.321 10.1549C25.094 9.30666 24.4253 8.6387 23.5762 8.412C22.0375 8 15.8667 8 15.8667 8C15.8667 8 9.69585 8 8.15699 8.412C7.30789 8.6387 6.6392 9.30666 6.41227 10.1549C6 11.6923 6 14.9 6 14.9C6 14.9 6 18.1076 6.41227 19.6451C6.6392 20.4933 7.30789 21.1613 8.15699 21.3881C9.69585 21.8 15.8667 21.8 15.8667 21.8C15.8667 21.8 22.0375 21.8 23.5762 21.3881C24.4253 21.1613 25.094 20.4933 25.321 19.6451C25.7333 18.1076 25.7333 14.9 25.7333 14.9C25.7333 14.9 25.7333 11.6923 25.321 10.1549Z" fill="white"/>
  <path d="M14.0176 18V12L18.9509 15.0001L14.0176 18Z" fill="#FF0000"/>
</svg>