<svg width="789" height="281" viewBox="0 0 789 281" fill="none" xmlns="http://www.w3.org/2000/svg">
<g filter="url(#filter0_d_89_9399)">
<mask id="mask0_89_9399" style="mask-type:alpha" maskUnits="userSpaceOnUse" x="143" y="118" width="318" height="27">
<rect x="143.34" y="118" width="317.324" height="27" fill="white"/>
</mask>
<g mask="url(#mask0_89_9399)">
<rect x="143.34" y="127" width="312.382" height="9" fill="#2468FF"/>
</g>
<mask id="mask1_89_9399" style="mask-type:alpha" maskUnits="userSpaceOnUse" x="452" y="118" width="318" height="27">
<rect x="452.756" y="118" width="316.336" height="27" fill="white"/>
</mask>
<g mask="url(#mask1_89_9399)">
<rect x="452.756" y="127" width="316.336" height="9" fill="#2468FF"/>
</g>
<path d="M162.099 131C162.099 140.411 154.564 148 145.317 148C136.07 148 128.534 140.411 128.534 131C128.534 121.589 136.07 114 145.317 114C154.564 114 162.099 121.589 162.099 131Z" fill="white" stroke="#2468FF" stroke-width="4"/>
<path d="M472.503 131C472.503 140.411 464.968 148 455.721 148C446.474 148 438.938 140.411 438.938 131C438.938 121.589 446.474 114 455.721 114C464.968 114 472.503 121.589 472.503 131Z" fill="white" stroke="#2468FF" stroke-width="4"/>
<path d="M782.909 131C782.909 140.411 775.373 148 766.126 148C756.879 148 749.344 140.411 749.344 131C749.344 121.589 756.879 114 766.126 114C775.373 114 782.909 121.589 782.909 131Z" fill="white" stroke="#2468FF" stroke-width="4"/>
<mask id="mask2_89_9399" style="mask-type:alpha" maskUnits="userSpaceOnUse" x="156" y="0" width="297" height="120">
<rect x="156.19" width="296.565" height="120" fill="#D9D9D9"/>
</mask>
<g mask="url(#mask2_89_9399)">
<path d="M419.099 84.4396C418.532 83.9946 417.885 83.6283 417.41 83.0979C412.236 77.307 407.202 71.3786 401.907 65.7056C392.126 55.2415 381.22 46.0678 369.236 38.3076C346.067 23.3102 320.725 17.0016 293.226 18.6036C277.792 19.5017 262.618 21.4038 247.84 26.0281C238.821 28.8487 229.894 31.9802 221.659 36.75C206.606 45.4699 191.392 53.9601 178.241 65.6153C177.696 66.0997 177.409 66.8849 177.002 67.527C177.839 67.5686 178.712 67.7554 179.51 67.6059C180.23 67.4702 180.906 66.9963 181.573 66.6151C191.695 60.9327 201.705 55.0391 211.949 49.6104C225.497 42.4342 239 35.1101 254.031 31.3675C275.381 26.0485 296.895 24.1013 318.728 27.6454C336.096 30.4639 352.685 35.5902 367.888 44.7563C384.045 54.4976 398.259 66.7122 411.437 80.1964C412.455 81.2407 412.973 82.7914 413.935 84.4779C409.3 82.3712 405.342 80.1928 401.138 78.7603C397.387 77.491 393.383 76.9156 389.45 76.3145C388.363 76.1498 387.132 76.9798 385.967 77.3511C386.011 77.6341 386.059 77.923 386.103 78.206C388.404 79.0316 390.669 79.9576 393.006 80.6673C404.201 84.0582 413.839 90.243 422.926 97.4625C423.327 97.7822 423.717 98.1089 424.104 98.4449C425.427 99.5968 426.796 100.27 428.454 99.0638C430.031 97.9211 429.415 96.5546 428.951 95.139C427.665 91.2266 426.142 87.3655 425.256 83.3613C423.53 75.5961 423.866 67.8384 426.219 60.177C426.57 59.0378 426.602 57.2451 425.948 56.4553C424.583 54.79 422.369 55.4735 421.579 57.5975C418.702 65.3274 417.564 73.2134 419.592 81.3719C419.807 82.2282 419.766 83.1553 419.843 84.0445C419.608 84.1815 419.361 84.3101 419.123 84.4412L419.099 84.4396Z" fill="black"/>
</g>
<mask id="mask3_89_9399" style="mask-type:alpha" maskUnits="userSpaceOnUse" x="460" y="167" width="306" height="124">
<rect width="304.473" height="124" transform="matrix(1 0 0 -1 460.664 291)" fill="#D9D9D9"/>
</mask>
<g mask="url(#mask3_89_9399)">
<path d="M744.561 203.746C743.976 204.206 743.307 204.584 742.816 205.132C737.47 211.116 732.268 217.242 726.797 223.104C716.69 233.917 705.42 243.397 693.037 251.415C669.096 266.913 642.908 273.432 614.493 271.776C598.544 270.848 582.864 268.883 567.594 264.104C558.274 261.19 549.049 257.954 540.54 253.025C524.986 244.014 509.264 235.241 495.675 223.197C495.112 222.697 494.816 221.886 494.394 221.222C495.259 221.179 496.161 220.986 496.986 221.141C497.731 221.281 498.429 221.77 499.118 222.164C509.578 228.036 519.921 234.126 530.507 239.736C544.507 247.151 558.46 254.719 573.991 258.587C596.053 264.083 618.285 266.095 640.845 262.433C658.792 259.521 675.934 254.223 691.644 244.752C708.339 234.686 723.027 222.064 736.644 208.13C737.696 207.051 738.231 205.449 739.226 203.706C734.436 205.883 730.346 208.134 726.002 209.614C722.126 210.926 717.988 211.52 713.925 212.142C712.801 212.312 711.529 211.454 710.325 211.071C710.371 210.778 710.42 210.48 710.466 210.187C712.844 209.334 715.184 208.377 717.599 207.644C729.167 204.14 739.127 197.749 748.516 190.289C748.931 189.958 749.334 189.621 749.734 189.274C751.1 188.083 752.515 187.388 754.229 188.634C755.858 189.815 755.222 191.227 754.742 192.69C753.413 196.732 751.839 200.722 750.924 204.86C749.141 212.884 749.487 220.9 751.919 228.817C752.281 229.994 752.315 231.847 751.639 232.663C750.229 234.384 747.941 233.677 747.124 231.483C744.151 223.495 742.975 215.346 745.071 206.916C745.294 206.031 745.25 205.073 745.33 204.154C745.088 204.012 744.832 203.88 744.586 203.744L744.561 203.746Z" fill="black"/>
</g>
<ellipse cx="145.316" cy="131" rx="10.874" ry="11" fill="#2468FF"/>
<ellipse cx="455.722" cy="131" rx="10.8741" ry="11" fill="#2468FF"/>
<path d="M145.346 162.904V161.2H147.962V178H145.298V166.48C145.058 166.624 144.706 166.696 144.242 166.696H141.506V164.416H144.122C144.938 164.416 145.346 163.912 145.346 162.904Z" fill="#2468FF"/>
<path d="M449.33 178V175.864L455.786 170.368C456.666 169.632 457.322 168.96 457.754 168.352C458.202 167.728 458.426 167.048 458.426 166.312C458.426 165.368 458.138 164.64 457.562 164.128C456.986 163.6 456.21 163.336 455.234 163.336C454.274 163.336 453.498 163.64 452.906 164.248C452.314 164.856 452.018 165.68 452.018 166.72V167.008H449.354V166.576C449.354 164.96 449.89 163.64 450.962 162.616C452.05 161.576 453.474 161.056 455.234 161.056C457.09 161.056 458.53 161.52 459.554 162.448C460.594 163.376 461.114 164.624 461.114 166.192C461.114 167.328 460.818 168.328 460.226 169.192C459.634 170.04 458.746 170.96 457.562 171.952L453.098 175.672H461.234V178H449.33Z" fill="#2468FF"/>
<path d="M769.986 169.264C770.914 169.456 771.674 169.888 772.266 170.56C772.874 171.216 773.178 172.128 773.178 173.296C773.178 174.752 772.61 175.928 771.474 176.824C770.354 177.704 768.85 178.144 766.962 178.144C765.042 178.144 763.522 177.664 762.402 176.704C761.298 175.744 760.746 174.408 760.746 172.696H763.362C763.378 173.704 763.73 174.496 764.418 175.072C765.122 175.648 766.018 175.936 767.106 175.936C768.082 175.936 768.882 175.68 769.506 175.168C770.146 174.656 770.466 173.976 770.466 173.128C770.466 172.328 770.154 171.704 769.53 171.256C768.922 170.792 768.05 170.56 766.914 170.56H765.378V168.352H766.77C767.842 168.352 768.658 168.112 769.218 167.632C769.794 167.152 770.082 166.512 770.082 165.712C770.082 164.96 769.786 164.368 769.194 163.936C768.602 163.488 767.858 163.264 766.962 163.264C766.002 163.264 765.21 163.536 764.586 164.08C763.978 164.608 763.666 165.304 763.65 166.168H761.058C761.074 164.664 761.626 163.44 762.714 162.496C763.818 161.536 765.234 161.056 766.962 161.056C768.754 161.056 770.17 161.464 771.21 162.28C772.266 163.096 772.794 164.184 772.794 165.544C772.794 166.536 772.538 167.352 772.026 167.992C771.514 168.616 770.834 169.04 769.986 169.264Z" fill="#2468FF"/>
<ellipse cx="766.126" cy="131" rx="10.8741" ry="11" fill="#2468FF"/>
<path d="M685.873 70.126C683.745 70.126 682.051 69.447 680.791 68.089C679.545 66.731 678.922 64.918 678.922 62.65C678.922 60.396 679.566 58.59 680.854 57.232C682.142 55.86 683.864 55.174 686.02 55.174C687.7 55.174 689.1 55.643 690.22 56.581C691.354 57.505 692.04 58.744 692.278 60.298H689.779C689.541 59.36 689.079 58.625 688.393 58.093C687.721 57.561 686.895 57.295 685.915 57.295C684.529 57.295 683.43 57.792 682.618 58.786C681.806 59.766 681.4 61.054 681.4 62.65C681.4 64.246 681.799 65.541 682.597 66.535C683.395 67.515 684.48 68.005 685.852 68.005C686.86 68.005 687.7 67.739 688.372 67.207C689.058 66.675 689.52 65.94 689.758 65.002H692.257C692.019 66.556 691.319 67.802 690.157 68.74C689.009 69.664 687.581 70.126 685.873 70.126ZM701.394 64.624V59.248H703.662V70H701.667L701.415 68.635C700.603 69.629 699.497 70.126 698.097 70.126C696.837 70.126 695.815 69.741 695.031 68.971C694.247 68.201 693.855 66.955 693.855 65.233V59.248H696.123V64.981C696.123 67.095 696.956 68.152 698.622 68.152C699.49 68.152 700.169 67.844 700.659 67.228C701.149 66.598 701.394 65.73 701.394 64.624ZM705.435 66.451H707.661C707.703 67.025 707.962 67.487 708.438 67.837C708.914 68.187 709.551 68.362 710.349 68.362C711.049 68.362 711.609 68.236 712.029 67.984C712.463 67.732 712.68 67.389 712.68 66.955C712.68 66.689 712.631 66.472 712.533 66.304C712.435 66.122 712.253 65.982 711.987 65.884C711.735 65.786 711.497 65.716 711.273 65.674C711.049 65.632 710.692 65.583 710.202 65.527C710.132 65.513 710.076 65.506 710.034 65.506C709.334 65.422 708.753 65.324 708.291 65.212C707.829 65.1 707.381 64.939 706.947 64.729C706.513 64.505 706.184 64.204 705.96 63.826C705.75 63.448 705.645 62.993 705.645 62.461C705.645 61.453 706.051 60.641 706.863 60.025C707.689 59.409 708.753 59.108 710.055 59.122C711.399 59.122 712.491 59.423 713.331 60.025C714.185 60.627 714.647 61.467 714.717 62.545H712.491C712.421 62.041 712.169 61.635 711.735 61.327C711.301 61.019 710.755 60.865 710.097 60.865C709.425 60.865 708.886 60.991 708.48 61.243C708.074 61.495 707.871 61.838 707.871 62.272C707.871 62.44 707.892 62.587 707.934 62.713C707.99 62.825 708.081 62.93 708.207 63.028C708.333 63.112 708.452 63.182 708.564 63.238C708.69 63.294 708.872 63.343 709.11 63.385C709.348 63.427 709.551 63.462 709.719 63.49C709.887 63.504 710.132 63.532 710.454 63.574C711.014 63.644 711.483 63.721 711.861 63.805C712.253 63.875 712.652 63.987 713.058 64.141C713.478 64.295 713.807 64.484 714.045 64.708C714.297 64.918 714.5 65.198 714.654 65.548C714.822 65.898 714.906 66.304 714.906 66.766C714.906 67.774 714.479 68.586 713.625 69.202C712.771 69.818 711.679 70.126 710.349 70.126C708.893 70.126 707.717 69.804 706.821 69.16C705.925 68.502 705.463 67.599 705.435 66.451ZM717.441 67.081V61.243H715.572V59.248H717.441V56.245H719.73V59.248H722.355V61.243H719.73V66.85C719.73 67.27 719.814 67.571 719.982 67.753C720.15 67.921 720.451 68.005 720.885 68.005H722.481V70H720.381C719.359 70 718.61 69.762 718.134 69.286C717.672 68.81 717.441 68.075 717.441 67.081ZM732.749 68.614C731.741 69.622 730.418 70.126 728.78 70.126C727.142 70.126 725.819 69.622 724.811 68.614C723.803 67.606 723.299 66.276 723.299 64.624C723.299 62.986 723.803 61.663 724.811 60.655C725.819 59.633 727.142 59.122 728.78 59.122C730.418 59.122 731.741 59.633 732.749 60.655C733.757 61.663 734.261 62.986 734.261 64.624C734.261 66.276 733.757 67.606 732.749 68.614ZM726.491 67.207C727.065 67.865 727.828 68.194 728.78 68.194C729.732 68.194 730.495 67.865 731.069 67.207C731.657 66.535 731.951 65.674 731.951 64.624C731.951 63.574 731.657 62.72 731.069 62.062C730.495 61.39 729.732 61.054 728.78 61.054C727.828 61.054 727.065 61.39 726.491 62.062C725.917 62.72 725.63 63.574 725.63 64.624C725.63 65.674 725.917 66.535 726.491 67.207ZM748.454 59.122C749.658 59.122 750.631 59.5 751.373 60.256C752.115 61.012 752.486 62.195 752.486 63.805V70H750.218V63.952C750.218 62.034 749.469 61.075 747.971 61.075C747.187 61.075 746.564 61.355 746.102 61.915C745.654 62.461 745.43 63.217 745.43 64.183V70H743.141V63.952C743.141 62.034 742.385 61.075 740.873 61.075C740.103 61.075 739.487 61.362 739.025 61.936C738.577 62.51 738.353 63.28 738.353 64.246V70H736.085V59.248H738.059L738.311 60.655C739.081 59.647 740.131 59.136 741.461 59.122C743.057 59.122 744.163 59.773 744.779 61.075C745.549 59.773 746.774 59.122 748.454 59.122ZM679.489 94V79.3H685.285C686.825 79.3 688.057 79.727 688.981 80.581C689.905 81.421 690.367 82.555 690.367 83.983C690.367 85.397 689.905 86.531 688.981 87.385C688.057 88.239 686.825 88.666 685.285 88.666H681.904V94H679.489ZM685.096 81.4H681.904V86.566H685.075C685.943 86.566 686.629 86.335 687.133 85.873C687.651 85.397 687.91 84.767 687.91 83.983C687.91 83.185 687.658 82.555 687.154 82.093C686.65 81.631 685.964 81.4 685.096 81.4ZM701.185 92.026H701.647V94H700.45C699.134 94 698.476 93.426 698.476 92.278C697.664 93.51 696.481 94.126 694.927 94.126C693.723 94.126 692.757 93.846 692.029 93.286C691.301 92.726 690.937 91.956 690.937 90.976C690.937 89.87 691.329 89.023 692.113 88.435C692.897 87.833 694.038 87.532 695.536 87.532H698.245V86.881C698.245 86.279 698.035 85.81 697.615 85.474C697.209 85.124 696.635 84.949 695.893 84.949C695.235 84.949 694.689 85.096 694.255 85.39C693.821 85.67 693.562 86.048 693.478 86.524H691.252C691.364 85.474 691.84 84.648 692.68 84.046C693.534 83.43 694.64 83.122 695.998 83.122C697.44 83.122 698.546 83.458 699.316 84.13C700.1 84.802 700.492 85.768 700.492 87.028V91.333C700.492 91.599 700.548 91.781 700.66 91.879C700.772 91.977 700.947 92.026 701.185 92.026ZM698.245 89.59V89.212H695.431C693.975 89.212 693.247 89.751 693.247 90.829C693.247 91.291 693.422 91.662 693.772 91.942C694.136 92.222 694.626 92.362 695.242 92.362C696.18 92.362 696.908 92.11 697.426 91.606C697.958 91.102 698.231 90.43 698.245 89.59ZM707.736 94.126C706.112 94.126 704.817 93.636 703.851 92.656C702.885 91.662 702.402 90.325 702.402 88.645C702.402 86.979 702.892 85.642 703.872 84.634C704.866 83.626 706.175 83.122 707.799 83.122C709.157 83.122 710.263 83.472 711.117 84.172C711.971 84.872 712.51 85.845 712.734 87.091H710.361C710.207 86.447 709.906 85.95 709.458 85.6C709.01 85.236 708.443 85.054 707.757 85.054C706.847 85.054 706.112 85.39 705.552 86.062C705.006 86.72 704.733 87.581 704.733 88.645C704.733 89.695 705.006 90.549 705.552 91.207C706.112 91.865 706.847 92.194 707.757 92.194C708.443 92.194 709.01 92.012 709.458 91.648C709.906 91.284 710.2 90.787 710.34 90.157H712.734C712.524 91.389 711.978 92.362 711.096 93.076C710.214 93.776 709.094 94.126 707.736 94.126ZM714.469 94V79.3H716.737V88.456L721.609 83.248H724.276L720.223 87.595L724.528 94H721.84L718.669 89.254L716.737 91.27V94H714.469Z" fill="#2468FF"/>
<path d="M660.845 43.3914C660.773 43.5128 660.71 43.7556 660.556 43.8327C660.403 43.9098 660.15 43.8458 659.953 43.7983C659.837 43.7704 659.73 43.6703 659.643 43.5801C657.926 41.782 656.212 39.9806 654.499 38.1776C654.173 37.8331 654.198 37.4919 654.498 37.126C654.959 36.5617 655.546 36.4025 656.049 36.9177C657.848 38.7568 659.614 40.6303 660.723 42.9534C660.776 43.0633 660.79 43.1912 660.844 43.3914H660.845Z" fill="black"/>
<path d="M663.839 42.6167C664.042 40.5622 664.767 38.5201 665.783 36.5617C666.089 35.9742 666.663 35.8621 667.322 36.1576C668.002 36.4638 668.182 36.8697 667.892 37.5124C666.991 39.5029 666.094 41.4933 665.157 43.4695C665.062 43.6689 664.66 43.9075 664.473 43.863C664.235 43.8078 664.034 43.5034 663.887 43.2684C663.802 43.1313 663.854 42.9194 663.839 42.6167Z" fill="black"/>
<path d="M670.417 55.6831C670.117 55.9804 669.868 56.37 669.509 56.5351C669.272 56.6447 668.772 56.5352 668.571 56.3456C667.416 55.2483 666.305 54.1076 665.204 52.9582C664.932 52.6765 664.708 52.3339 664.535 51.9844C664.279 51.4731 664.533 51.0853 665.114 51.1358C665.499 51.1688 665.951 51.2801 666.229 51.5166C667.522 52.6208 668.77 53.7755 670.016 54.9301C670.181 55.0814 670.24 55.3405 670.419 55.6831H670.417Z" fill="black"/>
<path d="M660.248 52.4814C660.174 52.8917 660.195 53.349 660.01 53.702C659.195 55.2669 658.334 56.8075 657.46 58.3428C657.08 59.0105 656.576 59.1531 655.973 58.8453C655.46 58.5845 655.31 58.1341 655.625 57.4421C656.43 55.6738 657.59 54.1489 659.052 52.8587C659.325 52.6187 659.713 52.5109 660.049 52.3423C660.116 52.3875 660.181 52.4344 660.248 52.4796V52.4814Z" fill="black"/>
<path d="M669.955 45.6841C670.977 45.8177 672.001 45.9138 673.018 46.0933C673.837 46.2374 674.19 47.035 673.92 47.9891C673.79 48.4506 673.571 48.7763 673.134 48.699C671.619 48.4297 670.107 48.1541 668.596 47.8743C668.432 47.843 668.273 47.7678 668.112 47.7031C667.731 47.5528 667.381 47.3252 667.433 46.7406C667.485 46.1685 667.824 45.8595 668.251 45.8177C668.813 45.7634 669.382 45.8052 669.95 45.8052C669.951 45.7655 669.953 45.7258 669.955 45.6862V45.6841Z" fill="black"/>
<path d="M654.963 49.1882C653.635 48.9903 652.305 48.8015 650.978 48.5892C650.684 48.5425 650.388 48.4382 650.114 48.3123C649.619 48.0838 649.361 47.6756 649.529 47.1162C649.693 46.5712 650.097 46.1827 650.654 46.3158C652.171 46.6791 653.669 47.1198 655.174 47.5353C655.255 47.5569 655.33 47.6144 655.401 47.6648C655.785 47.9436 656.227 48.2889 655.995 48.7943C655.87 49.0659 655.366 49.1486 655.034 49.3159C655.01 49.2727 654.985 49.2295 654.961 49.1864L654.963 49.1882Z" fill="black"/>
</g>
<defs>
<filter id="filter0_d_89_9399" x="-4" y="0" width="792.908" height="280.027" filterUnits="userSpaceOnUse" color-interpolation-filters="sRGB">
<feFlood flood-opacity="0" result="BackgroundImageFix"/>
<feColorMatrix in="SourceAlpha" type="matrix" values="0 0 0 0 0 0 0 0 0 0 0 0 0 0 0 0 0 0 127 0" result="hardAlpha"/>
<feOffset dy="4"/>
<feGaussianBlur stdDeviation="2"/>
<feComposite in2="hardAlpha" operator="out"/>
<feColorMatrix type="matrix" values="0 0 0 0 0 0 0 0 0 0 0 0 0 0 0 0 0 0 0.25 0"/>
<feBlend mode="normal" in2="BackgroundImageFix" result="effect1_dropShadow_89_9399"/>
<feBlend mode="normal" in="SourceGraphic" in2="effect1_dropShadow_89_9399" result="shape"/>
</filter>
</defs>
</svg>
