<svg width="44" height="42" viewBox="0 0 44 42" fill="none" xmlns="http://www.w3.org/2000/svg">
<path d="M16.2451 25.264C16.5481 23.8137 16.8571 22.4336 17.1245 21.0419C18.307 14.855 19.4775 8.66511 20.6541 2.47526C20.6748 2.36708 20.66 2.25012 20.6986 2.14779C21.0254 1.30279 20.9512 0.168319 22.2614 0.0162771C23.6132 -0.141612 24.0321 0.878823 24.3233 1.79107C25.5384 5.63305 26.6733 9.50134 27.8112 13.3667C28.453 15.545 29.0264 17.7437 29.6652 19.925C29.7989 20.3782 30.087 20.7846 30.5743 21.1588C30.8655 20.27 31.1418 19.3723 31.4537 18.4923C33.4116 12.9924 36.3292 7.96923 39.4369 3.04249C39.7696 2.51327 40.0578 1.95481 40.3906 1.42559C40.8659 0.668304 41.5938 0.285269 42.4733 0.431463C43.3794 0.58058 43.9499 1.20922 43.9647 2.11562C43.9974 4.23835 44.042 6.36401 43.9172 8.4809C43.7241 11.7352 43.3141 14.9778 43.1417 18.235C42.8862 23.0272 42.7139 27.8253 42.6099 32.6234C42.5772 34.0765 42.8981 35.5355 43.0407 36.9946C43.2368 38.9828 42.3633 40.0909 40.3312 40.2137C38.3257 40.3336 36.3024 40.4038 34.297 40.3102C27.4934 39.9944 20.7254 40.4769 13.9633 41.1172C12.3352 41.2722 10.7338 41.6611 9.11459 41.9242C7.76575 42.1435 7.30821 41.9388 7.00516 40.6172C6.6219 38.9448 6.35155 37.2402 6.15843 35.5355C5.39488 28.7989 4.70857 22.0448 2.51001 15.5684C1.93363 13.8755 1.07501 12.2732 0.33522 10.6358C0.0232626 9.94284 -0.321377 9.27328 0.56696 8.71774C1.42261 8.18267 2.12972 8.38441 2.72393 9.11538C4.44415 11.2381 6.13168 13.3842 7.86973 15.4894C10.5021 18.6794 13.1641 21.843 15.8172 25.0125C15.8826 25.0914 16.0014 25.1236 16.2451 25.261V25.264ZM40.6728 7.39614C40.5362 7.3669 40.3995 7.33766 40.2628 7.3055C40.0756 7.56573 39.832 7.80256 39.7102 8.09202C37.9603 12.2059 36.1747 16.3081 34.5079 20.4571C33.7028 22.46 33.1502 24.5622 32.4461 26.606C32.0242 27.8311 30.9754 28.6615 29.9474 28.6761C28.8392 28.6937 28.1529 28.1147 27.6597 26.6265C27.015 24.6792 26.3584 22.7319 25.8147 20.7524C24.9412 17.5742 24.1688 14.3725 23.331 11.1855C23.1824 10.6241 22.912 10.0949 22.6952 9.54812C22.4456 10.1329 22.4099 10.6446 22.3297 11.1504C21.8395 14.1503 21.3879 17.159 20.8264 20.1472C20.2946 22.9863 19.736 25.8283 19.0081 28.6206C18.5625 30.3252 17.4661 30.9304 15.7816 30.4772C15.0507 30.2813 14.3495 29.6001 13.8564 28.9714C11.7856 26.3312 9.80982 23.6207 7.77467 20.9512C7.51916 20.615 7.12996 20.3782 6.80017 20.0916C6.70807 20.153 6.61596 20.2115 6.52683 20.2729C6.56546 20.6589 6.58328 21.0477 6.6427 21.4308C7.51915 27.1118 8.663 32.7696 8.19357 38.5676C8.13415 39.3103 8.38966 39.5559 9.17996 39.357C14.2871 38.0735 19.5132 37.4799 24.7541 37.1612C29.1423 36.8951 33.5542 36.9829 37.9573 36.9127C38.3109 36.9068 38.6674 36.8834 39.1784 36.8601C37.6721 26.8633 39.324 17.1356 40.6728 7.39321V7.39614Z" fill="black"/>
</svg>
