<svg width="20" height="20" viewBox="0 0 20 20" fill="none" xmlns="http://www.w3.org/2000/svg">
<g clip-path="url(#clip0_89_9411)">
<path fill-rule="evenodd" clip-rule="evenodd" d="M9.99967 2.50016C5.85754 2.50016 2.49967 5.85803 2.49967 10.0002C2.49967 14.1423 5.85754 17.5002 9.99967 17.5002C14.1418 17.5002 17.4997 14.1423 17.4997 10.0002C17.4997 5.85803 14.1418 2.50016 9.99967 2.50016ZM0.833008 10.0002C0.833008 4.93755 4.93706 0.833496 9.99967 0.833496C15.0623 0.833496 19.1663 4.93755 19.1663 10.0002C19.1663 15.0628 15.0623 19.1668 9.99967 19.1668C4.93706 19.1668 0.833008 15.0628 0.833008 10.0002Z" fill="black"/>
<path fill-rule="evenodd" clip-rule="evenodd" d="M8.41638 4.4171C7.8615 5.8043 7.49967 7.77785 7.49967 10.0002C7.49967 12.2225 7.8615 14.196 8.41638 15.5832C8.69475 16.2791 9.00537 16.7864 9.30765 17.106C9.60828 17.4239 9.84241 17.5002 9.99967 17.5002C10.1569 17.5002 10.3911 17.4239 10.6917 17.106C10.994 16.7864 11.3046 16.2791 11.583 15.5832C12.1378 14.196 12.4997 12.2225 12.4997 10.0002C12.4997 7.77785 12.1378 5.8043 11.583 4.4171C11.3046 3.72118 10.994 3.21394 10.6917 2.89429C10.3911 2.57641 10.1569 2.50016 9.99967 2.50016C9.84241 2.50016 9.60828 2.57641 9.30765 2.89429C9.00537 3.21394 8.69475 3.72118 8.41638 4.4171ZM8.09673 1.74911C8.59369 1.22362 9.23646 0.833496 9.99967 0.833496C10.7629 0.833496 11.4057 1.22362 11.9026 1.74911C12.3979 2.27285 12.8056 2.98599 13.1304 3.79811C13.782 5.42698 14.1663 7.6201 14.1663 10.0002C14.1663 12.3802 13.782 14.5733 13.1304 16.2022C12.8056 17.0143 12.3979 17.7275 11.9026 18.2512C11.4057 18.7767 10.7629 19.1668 9.99967 19.1668C9.23646 19.1668 8.59369 18.7767 8.09673 18.2512C7.60143 17.7275 7.19377 17.0143 6.86892 16.2022C6.21737 14.5733 5.83301 12.3802 5.83301 10.0002C5.83301 7.6201 6.21737 5.42698 6.86892 3.79811C7.19377 2.98599 7.60143 2.27285 8.09673 1.74911Z" fill="black"/>
<path fill-rule="evenodd" clip-rule="evenodd" d="M1.66602 9.16699H18.3327V10.8337H1.66602V9.16699Z" fill="black"/>
</g>
<defs>
<clipPath id="clip0_89_9411">
<rect width="20" height="20" fill="white"/>
</clipPath>
</defs>
</svg>
