<svg xmlns="http://www.w3.org/2000/svg" width="31" height="30" viewBox="0 0 31 30" fill="none">
  <rect width="31" height="30" rx="4" fill="#1877F2"/>
  <path fill-rule="evenodd" clip-rule="evenodd" d="M15.664 11.459C15.664 10.6679 15.4567 9.98981 15.0436 9.4222C14.355 8.49777 13.1875 8.02413 11.5374 8H5V21.3458H11.0959C11.7832 21.3458 12.4191 21.2874 13.0073 21.1667C13.5955 21.0448 14.104 20.8226 14.5352 20.4963C14.9187 20.2118 15.2379 19.8614 15.4928 19.4461C15.8957 18.8189 16.0965 18.109 16.0965 17.3179C16.0965 16.551 15.9201 15.8983 15.57 15.3624C15.2161 14.8253 14.696 14.4329 14.0061 14.184C14.4605 13.9554 14.8042 13.7015 15.0384 13.4247C15.4567 12.9294 15.664 12.2729 15.664 11.459ZM24.7856 10.283H18.9883V8.62207H24.7856V10.283ZM19.6621 15.4351C19.7574 14.7926 19.9903 14.2834 20.3597 13.9075C20.7292 13.5317 21.2517 13.3438 21.921 13.3438C22.5389 13.3438 23.055 13.5203 23.4746 13.8745C23.8891 14.2314 24.1233 14.7494 24.171 15.4351H19.6621ZM24.2759 11.6778C24.9748 11.9851 25.5501 12.4727 26.0032 13.1381C26.4164 13.7248 26.6815 14.4054 26.8025 15.1787C26.8733 15.6308 26.9016 16.286 26.89 17.1381H19.601C19.6447 18.1272 19.9897 18.8218 20.6487 19.2193C21.0477 19.4669 21.5278 19.5913 22.0916 19.5913C22.685 19.5913 23.1702 19.4402 23.5422 19.1393C23.7468 18.9755 23.927 18.7495 24.0815 18.4599H26.7523C26.6815 19.0441 26.3572 19.6396 25.7831 20.244C24.8873 21.2027 23.6323 21.6827 22.0195 21.6827C20.6873 21.6827 19.5121 21.2789 18.4966 20.4688C17.4759 19.6599 16.9688 18.3418 16.9688 16.5184C16.9688 14.8079 17.4283 13.4962 18.346 12.5832C19.2663 11.6728 20.4569 11.2144 21.923 11.2144C22.7944 11.2144 23.5782 11.3693 24.2759 11.6778ZM7.69727 19.03V15.4707H11.0284C11.6076 15.4758 12.0594 15.552 12.3812 15.6967C12.9565 15.957 13.2423 16.4332 13.2423 17.1291C13.2423 17.9494 12.9462 18.503 12.3529 18.7951C12.0272 18.9513 11.569 19.03 10.9821 19.03H7.69727ZM7.69727 10.3174V13.2621H10.9872C11.5729 13.2621 12.0504 13.1516 12.4185 12.9307C12.7841 12.7097 12.9681 12.3186 12.9681 11.7599C12.9681 11.1364 12.7261 10.7263 12.2422 10.5256C11.8226 10.3872 11.2897 10.3174 10.6422 10.3174H7.69727Z" fill="white"/>
</svg>