<svg width="26" height="25" viewBox="0 0 26 25" fill="none" xmlns="http://www.w3.org/2000/svg">
<path d="M9.83426 15.2756C9.92435 14.5034 10.0213 13.7675 10.095 13.0277C10.4195 9.73931 10.7374 6.45006 11.0585 3.16049C11.0642 3.10298 11.0501 3.04281 11.0659 2.9874C11.1999 2.52945 11.1014 1.94203 11.8048 1.79277C12.5305 1.63825 12.8103 2.14781 13.0151 2.60781C13.8719 4.54568 14.6864 6.50155 15.5024 8.45574C15.9625 9.55698 16.3866 10.6725 16.8452 11.7755C16.941 12.0046 17.1183 12.201 17.402 12.3701C17.5145 11.8912 17.6184 11.4085 17.7426 10.9331C18.5233 7.96145 19.8493 5.18702 21.2835 2.45274C21.437 2.15908 21.5647 1.85256 21.7182 1.55891C21.9374 1.13875 22.3129 0.900188 22.7978 0.929416C23.2973 0.958739 23.6392 1.25597 23.6938 1.72767C23.8204 2.83249 23.9537 3.93819 23.9945 5.04837C24.0567 6.75512 24.0005 8.46735 24.074 10.1745C24.1812 12.6863 24.3338 15.1967 24.5235 17.7035C24.5803 18.4627 24.8294 19.2062 24.9816 19.9591C25.1901 20.9851 24.7728 21.6094 23.6759 21.782C22.5935 21.9516 21.4988 22.0963 20.4054 22.1547C16.6959 22.3535 13.0468 22.9666 9.40898 23.6616C8.53313 23.8294 7.6838 24.1177 6.81834 24.3414C6.0974 24.5277 5.83853 24.4455 5.60623 23.7727C5.31238 22.9214 5.07816 22.0472 4.88588 21.1689C4.12579 17.698 3.40673 14.2138 1.88102 10.9551C1.48129 10.1034 0.932993 9.31404 0.447411 8.50001C0.242519 8.15544 0.0210864 7.82482 0.474803 7.48776C0.911829 7.16312 1.30602 7.23051 1.66607 7.57982C2.70877 8.59448 3.73492 9.62308 4.78639 10.6276C6.37896 12.1499 7.98631 13.6569 9.58912 15.1674C9.62865 15.205 9.69481 15.2154 9.83411 15.2741L9.83426 15.2756ZM22.1777 4.65623C22.1021 4.64829 22.0264 4.64035 21.9505 4.63088C21.8623 4.77653 21.7422 4.91301 21.6909 5.07041C20.952 7.30844 20.1932 9.54227 19.5013 11.7941C19.167 12.8812 18.9749 14.0066 18.6975 15.1097C18.5314 15.7708 18.0047 16.2597 17.4474 16.3223C16.8467 16.3906 16.4445 16.1255 16.1004 15.376C15.6505 14.3954 15.1942 13.4153 14.7975 12.4125C14.1603 10.8024 13.5767 9.17465 12.9584 7.55804C12.849 7.27333 12.6751 7.0119 12.5293 6.73846C12.4238 7.05664 12.4307 7.32527 12.4131 7.59324C12.3009 9.18325 12.2101 10.7758 12.0586 12.3635C11.9156 13.8719 11.7582 15.3832 11.5063 16.8777C11.3519 17.7901 10.7878 18.1642 9.85012 18.018C9.44333 17.9549 9.02777 17.6372 8.7278 17.3359C7.46825 16.0702 6.2567 14.7628 5.015 13.4799C4.85905 13.3183 4.63563 13.2156 4.44191 13.0839C4.39507 13.1208 4.34807 13.1562 4.30283 13.193C4.3436 13.3921 4.37323 13.5939 4.42513 13.7904C5.19236 16.705 6.10354 19.5932 6.14618 22.6408C6.15202 23.0311 6.30332 23.1455 6.72212 22.9996C9.42861 22.0577 12.235 21.4691 15.0636 21.0229C17.432 20.6498 19.8315 20.4598 22.218 20.188C22.4096 20.1661 22.6019 20.1348 22.8781 20.0953C21.5476 14.9646 21.9452 9.80537 22.1776 4.6547L22.1777 4.65623Z" fill="#2468FF"/>
</svg>
