<svg width="27" height="46" viewBox="0 0 27 46" fill="none" xmlns="http://www.w3.org/2000/svg">
<path d="M26.7742 0.157662C26.8799 0.249999 26.9535 0.374855 26.9842 0.513578C27.0148 0.652301 27.0008 0.797446 26.9441 0.92733C24.974 5.44781 20.8367 11.6948 17.8081 14.95C16.9592 15.8607 15.9123 16.5534 14.7525 16.9717C14.7293 17.2709 14.6752 17.6808 14.5464 18.1157C14.2876 18.9842 13.6876 20.0649 12.3471 20.4089C11.0489 20.7253 9.70355 20.7843 8.38366 20.5829C8.13823 20.5432 7.89625 20.4837 7.65999 20.4049C7.44141 20.3369 7.23768 20.2263 7.05993 20.0794C6.94272 19.9774 6.8524 19.8469 6.79725 19.6998C6.7289 19.5112 6.73073 19.3034 6.8024 19.116C6.92473 18.7931 7.2093 18.6152 7.39602 18.5203C7.90336 18.2607 8.20081 17.9233 8.51243 17.4317C8.63475 17.2419 8.74936 17.0403 8.88199 16.8096L9.03264 16.5487C9.22708 16.2126 9.45243 15.837 9.73571 15.4311C10.4156 14.4571 11.2822 14.212 11.984 14.2502C12.1462 14.2595 12.2969 14.2832 12.4321 14.3135C12.5119 14.0868 12.6149 13.8127 12.7386 13.5122C13.0746 12.6964 13.5858 11.6421 14.267 10.7854C17.069 7.26655 22.2248 2.60637 26.0067 0.104945C26.1231 0.0280301 26.2607 -0.00838417 26.399 0.00111336C26.5372 0.0106109 26.6688 0.0655133 26.7742 0.157662ZM12.4553 15.6986C12.2844 15.6226 12.1018 15.5779 11.9157 15.5668C11.599 15.5497 11.1779 15.6327 10.7839 16.1981C10.5302 16.5606 10.3268 16.8993 10.14 17.2221L10.0048 17.4554C9.86834 17.694 9.73056 17.9325 9.59278 18.1513C9.332 18.5837 9.00104 18.9675 8.61415 19.286C9.50264 19.4336 10.8495 19.4323 12.0355 19.1279C12.7553 18.9447 13.121 18.378 13.3141 17.7309C13.4074 17.4094 13.4619 17.0774 13.4764 16.7424L12.4553 15.6986ZM14.3095 15.7329C14.464 15.6802 14.6662 15.6011 14.8993 15.4917C15.6411 15.1395 16.3115 14.6477 16.8758 14.042C19.3224 11.4114 22.557 6.70116 24.6688 2.66699C21.3338 5.20663 17.5017 8.80852 15.2663 11.6183C14.6971 12.334 14.2426 13.2565 13.9245 14.0249C13.7687 14.4044 13.6489 14.7365 13.5704 14.9738V14.9751L14.3108 15.7329H14.3095ZM7.90593 19.7394L7.91495 19.7328C7.91218 19.7349 7.90915 19.7367 7.90593 19.7381V19.7394ZM12.5184 15.7289L12.5209 15.7303H12.5184V15.7289Z" fill="#2468FF"/>
<path d="M14.5132 28.949C14.5132 31.0589 12.7771 32.9097 10.7167 32.9097C8.65639 32.9097 6.92024 31.0589 6.92024 28.949C6.92024 26.803 8.68993 24.8124 10.7167 24.8124C12.7435 24.8124 14.5132 26.803 14.5132 28.949ZM20.6835 40.8538C20.6835 41.9318 20.0886 42.9956 18.5231 43.8307C16.9308 44.6802 14.3913 45.2496 10.7167 45.2496C7.04216 45.2496 4.5027 44.6802 2.91042 43.8307C1.3449 42.9956 0.75 41.9318 0.75 40.8538C0.75 39.886 1.59208 38.7899 3.4635 37.8913C5.28097 37.0186 7.84448 36.458 10.7167 36.458C13.589 36.458 16.1525 37.0186 17.97 37.8913C19.8414 38.7899 20.6835 39.886 20.6835 40.8538Z" stroke="#2468FF" stroke-width="1.5"/>
</svg>
