<svg xmlns="http://www.w3.org/2000/svg" width="41" height="25" viewBox="0 0 41 25" fill="none">
  <path d="M30.4056 18.5147L29.7065 18.2113V18.9734V20.4062C29.7065 21.436 29.303 22.4215 28.5866 23.1462L28.5859 23.1468C27.871 23.8726 26.9016 24.2789 25.8913 24.2789H4.31521C3.30492 24.2789 2.3355 23.8726 1.62055 23.1468L1.61993 23.1462C0.903486 22.4215 0.5 21.436 0.5 20.4062V4.37275C0.5 3.34292 0.903486 2.35744 1.61993 1.63273L1.62055 1.6321C2.3355 0.906327 3.30492 0.5 4.31521 0.5H25.8913C26.9016 0.5 27.871 0.906327 28.5859 1.6321L28.5866 1.63273C29.303 2.35744 29.7065 3.34292 29.7065 4.37275V5.80556V6.56764L30.4056 6.26422L34.459 4.50491L34.4594 4.50474C35.6364 3.99266 36.9883 4.1147 38.0566 4.83043L38.0572 4.83081C39.128 5.54604 39.7753 6.76085 39.7753 8.06481V16.7141C39.7753 18.0181 39.128 19.2329 38.0572 19.9481L38.0566 19.9485C36.9883 20.6642 35.6364 20.7862 34.4594 20.2742L34.459 20.274L30.4056 18.5147ZM29.7065 15.8017V16.1297L30.0074 16.2603L35.1943 18.5123L35.1947 18.5125C35.7941 18.7719 36.4841 18.7115 37.0287 18.3471C37.5736 17.9836 37.8985 17.369 37.8985 16.7141V8.06481C37.8985 7.40992 37.5736 6.79528 37.0287 6.43179C36.4841 6.06745 35.7941 6.007 35.1947 6.26643L35.1943 6.26665L30.0074 8.51861L29.7065 8.64924V8.97725V15.8017ZM38.3349 4.41503C39.546 5.22399 40.2753 6.59557 40.2753 8.06481V16.7141C40.2753 18.1833 39.546 19.5549 38.3349 20.3639V4.41503ZM27.8297 20.4062V4.37275L26.9082 3.34224L27.265 2.99198C27.2647 2.99167 27.2644 2.99135 27.2641 2.99103C26.901 2.62163 26.406 2.41517 25.8913 2.41517H4.31521C3.80051 2.41517 3.30545 2.62164 2.94235 2.99105C2.57805 3.35876 2.37681 3.85726 2.37681 4.37275V20.4062C2.37681 20.9217 2.57806 21.4202 2.94237 21.7879C3.30547 22.1573 3.80052 22.3637 4.31521 22.3637H25.8913C26.4059 22.3637 26.9008 22.1574 27.2639 21.7881C27.6283 21.4204 27.8297 20.9218 27.8297 20.4062Z" fill="black" stroke="white"/>
</svg>