<svg width="491" height="203" viewBox="0 0 491 203" fill="none" xmlns="http://www.w3.org/2000/svg">
<path d="M0.25 8C0.25 3.71979 3.71979 0.25 8 0.25H490.75V191C490.75 197.489 485.489 202.75 479 202.75H0.25V8Z" fill="white" stroke="black" stroke-width="0.5"/>
<rect x="70.25" y="114.25" width="420.5" height="67.5" fill="white" stroke="black" stroke-width="0.5"/>
<path d="M93.2455 153.414H92.0555V143.614H93.1755L98.4395 151.174V143.614H99.6295V153.414H98.5095L93.2455 145.854V153.414ZM102.916 144.678V143.614H104.064V153.414H102.888V146.386C102.748 146.512 102.524 146.568 102.216 146.568H100.634V145.518H102.23C102.692 145.518 102.916 145.168 102.916 144.678ZM105.343 153.414V152.42L109.151 149.116C110.061 148.332 110.817 147.576 110.817 146.512C110.817 145.28 109.977 144.58 108.675 144.58C107.415 144.58 106.575 145.42 106.575 146.764V146.946H105.399V146.694C105.399 144.846 106.701 143.53 108.675 143.53C110.789 143.53 112.021 144.692 112.021 146.456C112.021 147.926 111.069 148.85 109.907 149.844L106.967 152.336H112.091V153.414H105.343ZM118.113 148.318C119.009 148.486 119.947 149.2 119.947 150.698C119.947 152.364 118.547 153.498 116.419 153.498C114.291 153.498 112.919 152.336 112.919 150.39H114.081C114.095 151.678 115.103 152.448 116.489 152.448C117.763 152.448 118.743 151.734 118.743 150.614C118.743 149.592 117.903 148.934 116.377 148.934H115.537V147.912H116.307C117.763 147.912 118.491 147.184 118.491 146.19C118.491 145.196 117.595 144.58 116.419 144.58C115.187 144.58 114.291 145.322 114.277 146.442H113.115C113.129 144.72 114.473 143.53 116.405 143.53C118.421 143.53 119.695 144.58 119.695 146.12C119.695 147.352 119.051 148.066 118.113 148.318ZM120.694 151.02V149.97L125.692 143.614H127.008V149.942H128.59V151.02H127.008V153.414H125.832V151.02H120.694ZM125.832 145.056L122.01 149.942H125.832V145.056ZM142.333 148.514C142.333 151.398 140.415 153.498 137.657 153.498C134.899 153.498 132.981 151.398 132.981 148.514C132.981 145.63 134.899 143.53 137.657 143.53C140.415 143.53 142.333 145.63 142.333 148.514ZM134.227 148.514C134.227 150.768 135.613 152.378 137.657 152.378C139.701 152.378 141.087 150.768 141.087 148.514C141.087 146.26 139.701 144.65 137.657 144.65C135.613 144.65 134.227 146.26 134.227 148.514ZM147.008 146.274H147.33V147.394H146.756C145.258 147.394 144.852 148.64 144.852 149.774V153.414H143.704V146.274H144.698L144.852 147.352C145.188 146.806 145.734 146.274 147.008 146.274ZM153.543 147.366V143.614H154.691V153.414H153.697L153.543 152.266C153.067 152.924 152.297 153.498 151.093 153.498C149.119 153.498 147.663 152.168 147.663 149.844C147.663 147.66 149.119 146.19 151.093 146.19C152.297 146.19 153.109 146.68 153.543 147.366ZM151.205 152.476C152.605 152.476 153.557 151.398 153.557 149.872C153.557 148.304 152.605 147.212 151.205 147.212C149.791 147.212 148.839 148.29 148.839 149.844C148.839 151.398 149.791 152.476 151.205 152.476ZM159.545 153.498C157.403 153.498 156.003 152.028 156.003 149.844C156.003 147.674 157.375 146.19 159.391 146.19C161.407 146.19 162.723 147.464 162.779 149.578C162.779 149.732 162.765 149.9 162.751 150.068H157.207V150.166C157.249 151.524 158.103 152.476 159.461 152.476C160.469 152.476 161.253 151.944 161.491 151.02H162.653C162.373 152.448 161.197 153.498 159.545 153.498ZM157.277 149.116H161.547C161.435 147.884 160.595 147.198 159.405 147.198C158.355 147.198 157.389 147.954 157.277 149.116ZM167.393 146.274H167.715V147.394H167.141C165.643 147.394 165.237 148.64 165.237 149.774V153.414H164.089V146.274H165.083L165.237 147.352C165.573 146.806 166.119 146.274 167.393 146.274ZM171.618 147.324V146.274H172.906V145.476C172.906 144.216 173.438 143.614 174.768 143.614H176.07V144.664H174.838C174.264 144.664 174.054 144.902 174.054 145.448V146.274H176.07V147.324H174.054V153.414H172.906V147.324H171.618ZM179.861 153.498C177.719 153.498 176.319 152.028 176.319 149.844C176.319 147.674 177.691 146.19 179.707 146.19C181.723 146.19 183.039 147.464 183.095 149.578C183.095 149.732 183.081 149.9 183.067 150.068H177.523V150.166C177.565 151.524 178.419 152.476 179.777 152.476C180.785 152.476 181.569 151.944 181.807 151.02H182.969C182.689 152.448 181.513 153.498 179.861 153.498ZM177.593 149.116H181.863C181.751 147.884 180.911 147.198 179.721 147.198C178.671 147.198 177.705 147.954 177.593 149.116ZM187.695 153.498C185.553 153.498 184.153 152.028 184.153 149.844C184.153 147.674 185.525 146.19 187.541 146.19C189.557 146.19 190.873 147.464 190.929 149.578C190.929 149.732 190.915 149.9 190.901 150.068H185.357V150.166C185.399 151.524 186.253 152.476 187.611 152.476C188.619 152.476 189.403 151.944 189.641 151.02H190.803C190.523 152.448 189.347 153.498 187.695 153.498ZM185.427 149.116H189.697C189.585 147.884 188.745 147.198 187.555 147.198C186.505 147.198 185.539 147.954 185.427 149.116ZM197.867 147.366V143.614H199.015V153.414H198.021L197.867 152.266C197.391 152.924 196.621 153.498 195.417 153.498C193.443 153.498 191.987 152.168 191.987 149.844C191.987 147.66 193.443 146.19 195.417 146.19C196.621 146.19 197.433 146.68 197.867 147.366ZM195.529 152.476C196.929 152.476 197.881 151.398 197.881 149.872C197.881 148.304 196.929 147.212 195.529 147.212C194.115 147.212 193.163 148.29 193.163 149.844C193.163 151.398 194.115 152.476 195.529 152.476ZM204.177 146.19C206.151 146.19 207.607 147.52 207.607 149.844C207.607 152.028 206.151 153.498 204.177 153.498C202.973 153.498 202.161 153.008 201.727 152.322L201.573 153.414H200.579V143.614H201.727V147.422C202.203 146.764 202.973 146.19 204.177 146.19ZM204.065 152.476C205.479 152.476 206.431 151.398 206.431 149.844C206.431 148.29 205.479 147.212 204.065 147.212C202.665 147.212 201.713 148.29 201.713 149.816C201.713 151.384 202.665 152.476 204.065 152.476ZM215.233 152.364H215.597V153.414H214.967C214.015 153.414 213.693 153.008 213.679 152.308C213.231 152.952 212.517 153.498 211.285 153.498C209.717 153.498 208.653 152.714 208.653 151.412C208.653 149.984 209.647 149.186 211.523 149.186H213.623V148.696C213.623 147.772 212.965 147.212 211.845 147.212C210.837 147.212 210.165 147.688 210.025 148.416H208.877C209.045 147.016 210.179 146.19 211.901 146.19C213.721 146.19 214.771 147.1 214.771 148.766V151.888C214.771 152.266 214.911 152.364 215.233 152.364ZM213.623 150.502V150.152H211.411C210.389 150.152 209.815 150.53 209.815 151.342C209.815 152.042 210.417 152.518 211.369 152.518C212.797 152.518 213.623 151.692 213.623 150.502ZM219.603 153.498C217.517 153.498 216.145 152.084 216.145 149.858C216.145 147.674 217.559 146.19 219.631 146.19C221.381 146.19 222.487 147.17 222.781 148.738H221.577C221.367 147.786 220.667 147.212 219.617 147.212C218.245 147.212 217.321 148.304 217.321 149.858C217.321 151.412 218.245 152.476 219.617 152.476C220.639 152.476 221.339 151.888 221.563 150.978H222.781C222.501 152.518 221.339 153.498 219.603 153.498ZM224.04 153.414V143.614H225.188V150.068L228.772 146.274H230.186L227.4 149.228L230.382 153.414H228.996L226.63 150.054L225.188 151.538V153.414H224.04Z" fill="black"/>
<path d="M340.016 142.396C340.768 140.519 341.145 139.581 341.756 139.451C341.917 139.417 342.083 139.417 342.244 139.451C342.856 139.581 343.232 140.519 343.985 142.396C344.413 143.463 344.627 143.997 345.027 144.36C345.14 144.461 345.262 144.552 345.392 144.63C345.854 144.909 346.432 144.961 347.588 145.065C349.545 145.24 350.523 145.327 350.821 145.885C350.883 146.001 350.925 146.126 350.946 146.255C351.045 146.88 350.326 147.534 348.888 148.843L348.488 149.206C347.816 149.818 347.479 150.124 347.285 150.506C347.168 150.735 347.09 150.981 347.053 151.236C346.992 151.66 347.091 152.103 347.288 152.991L347.358 153.308C347.711 154.9 347.888 155.695 347.667 156.087C347.469 156.438 347.105 156.663 346.702 156.682C346.253 156.704 345.621 156.189 344.358 155.159C343.525 154.48 343.109 154.141 342.646 154.009C342.224 153.887 341.776 153.887 341.354 154.009C340.892 154.141 340.475 154.48 339.643 155.159C338.379 156.189 337.747 156.704 337.298 156.682C336.896 156.663 336.531 156.438 336.333 156.087C336.113 155.695 336.289 154.9 336.642 153.308L336.713 152.991C336.91 152.103 337.008 151.66 336.947 151.236C336.91 150.981 336.832 150.735 336.715 150.506C336.521 150.124 336.185 149.818 335.512 149.206L335.113 148.843C333.675 147.534 332.955 146.88 333.054 146.255C333.075 146.126 333.117 146.001 333.179 145.885C333.478 145.327 334.456 145.24 336.412 145.065C337.568 144.961 338.146 144.909 338.609 144.63C338.739 144.552 338.861 144.461 338.973 144.36C339.373 143.997 339.588 143.463 340.016 142.396Z" fill="#DFDFDF" stroke="#DFDFDF" stroke-width="2"/>
<path d="M371.671 142.396C372.423 140.519 372.8 139.581 373.411 139.451C373.572 139.417 373.738 139.417 373.899 139.451C374.511 139.581 374.887 140.519 375.64 142.396C376.068 143.463 376.282 143.997 376.682 144.36C376.795 144.461 376.917 144.552 377.047 144.63C377.509 144.909 378.087 144.961 379.243 145.065C381.2 145.24 382.178 145.327 382.477 145.885C382.538 146.001 382.58 146.126 382.601 146.255C382.7 146.88 381.981 147.534 380.543 148.843L380.143 149.206C379.471 149.818 379.134 150.124 378.94 150.506C378.823 150.735 378.745 150.981 378.708 151.236C378.647 151.66 378.746 152.103 378.943 152.991L379.013 153.308C379.366 154.9 379.543 155.695 379.322 156.087C379.124 156.438 378.76 156.663 378.357 156.682C377.908 156.704 377.277 156.189 376.013 155.159C375.18 154.48 374.764 154.141 374.302 154.009C373.879 153.887 373.431 153.887 373.009 154.009C372.547 154.141 372.13 154.48 371.298 155.159C370.034 156.189 369.402 156.704 368.954 156.682C368.551 156.663 368.186 156.438 367.988 156.087C367.768 155.695 367.944 154.9 368.297 153.308L368.368 152.991C368.565 152.103 368.663 151.66 368.602 151.236C368.565 150.981 368.487 150.735 368.37 150.506C368.176 150.124 367.84 149.818 367.167 149.206L366.768 148.843C365.33 147.534 364.61 146.88 364.709 146.255C364.73 146.126 364.772 146.001 364.834 145.885C365.133 145.327 366.111 145.24 368.067 145.065C369.223 144.961 369.801 144.909 370.264 144.63C370.394 144.552 370.516 144.461 370.628 144.36C371.029 143.997 371.243 143.463 371.671 142.396Z" fill="#DFDFDF" stroke="#DFDFDF" stroke-width="2"/>
<path d="M403.326 142.396C404.079 140.519 404.455 139.581 405.067 139.451C405.227 139.417 405.394 139.417 405.554 139.451C406.166 139.581 406.542 140.519 407.295 142.396C407.723 143.463 407.937 143.997 408.338 144.36C408.45 144.461 408.572 144.552 408.702 144.63C409.165 144.909 409.743 144.961 410.898 145.065C412.855 145.24 413.833 145.327 414.132 145.885C414.194 146.001 414.236 146.126 414.256 146.255C414.355 146.88 413.636 147.534 412.198 148.843L411.798 149.206C411.126 149.818 410.79 150.124 410.595 150.506C410.479 150.735 410.4 150.981 410.364 151.236C410.303 151.66 410.401 152.103 410.598 152.991L410.668 153.308C411.022 154.9 411.198 155.695 410.978 156.087C410.78 156.438 410.415 156.663 410.012 156.682C409.564 156.704 408.932 156.189 407.668 155.159C406.835 154.48 406.419 154.141 405.957 154.009C405.534 153.887 405.087 153.887 404.664 154.009C404.202 154.141 403.786 154.48 402.953 155.159C401.689 156.189 401.057 156.704 400.609 156.682C400.206 156.663 399.841 156.438 399.643 156.087C399.423 155.695 399.599 154.9 399.953 153.308L400.023 152.991C400.22 152.103 400.318 151.66 400.257 151.236C400.221 150.981 400.142 150.735 400.026 150.506C399.831 150.124 399.495 149.818 398.823 149.206L398.423 148.843C396.985 147.534 396.266 146.88 396.365 146.255C396.385 146.126 396.427 146.001 396.489 145.885C396.788 145.327 397.766 145.24 399.723 145.065C400.878 144.961 401.456 144.909 401.919 144.63C402.049 144.552 402.171 144.461 402.283 144.36C402.684 143.997 402.898 143.463 403.326 142.396Z" fill="#DFDFDF" stroke="#DFDFDF" stroke-width="2"/>
<path d="M434.981 142.396C435.734 140.519 436.11 139.581 436.722 139.451C436.882 139.417 437.049 139.417 437.209 139.451C437.821 139.581 438.197 140.519 438.95 142.396C439.378 143.463 439.592 143.997 439.993 144.36C440.105 144.461 440.227 144.552 440.357 144.63C440.82 144.909 441.398 144.961 442.553 145.065C444.51 145.24 445.488 145.327 445.787 145.885C445.849 146.001 445.891 146.126 445.911 146.255C446.01 146.88 445.291 147.534 443.853 148.843L443.453 149.206C442.781 149.818 442.445 150.124 442.25 150.506C442.134 150.735 442.055 150.981 442.019 151.236C441.958 151.66 442.056 152.103 442.253 152.991L442.323 153.308C442.677 154.9 442.853 155.695 442.633 156.087C442.435 156.438 442.07 156.663 441.667 156.682C441.219 156.704 440.587 156.189 439.323 155.159C438.49 154.48 438.074 154.141 437.612 154.009C437.189 153.887 436.742 153.887 436.319 154.009C435.857 154.141 435.441 154.48 434.608 155.159C433.344 156.189 432.712 156.704 432.264 156.682C431.861 156.663 431.496 156.438 431.298 156.087C431.078 155.695 431.254 154.9 431.608 153.308L431.678 152.991C431.875 152.103 431.973 151.66 431.912 151.236C431.876 150.981 431.797 150.735 431.681 150.506C431.486 150.124 431.15 149.818 430.478 149.206L430.078 148.843C428.64 147.534 427.921 146.88 428.02 146.255C428.04 146.126 428.082 146.001 428.144 145.885C428.443 145.327 429.421 145.24 431.378 145.065C432.533 144.961 433.111 144.909 433.574 144.63C433.704 144.552 433.826 144.461 433.938 144.36C434.339 143.997 434.553 143.463 434.981 142.396Z" fill="#DFDFDF" stroke="#DFDFDF" stroke-width="2"/>
<path d="M471.326 142.396C472.079 140.519 472.455 139.581 473.067 139.451C473.227 139.417 473.394 139.417 473.554 139.451C474.166 139.581 474.542 140.519 475.295 142.396C475.723 143.463 475.937 143.997 476.338 144.36C476.45 144.461 476.572 144.552 476.702 144.63C477.165 144.909 477.743 144.961 478.898 145.065C480.855 145.24 481.833 145.327 482.132 145.885C482.194 146.001 482.236 146.126 482.256 146.255C482.355 146.88 481.636 147.534 480.198 148.843L479.798 149.206C479.126 149.818 478.79 150.124 478.595 150.506C478.479 150.735 478.4 150.981 478.364 151.236C478.303 151.66 478.401 152.103 478.598 152.991L478.668 153.308C479.022 154.9 479.198 155.695 478.978 156.087C478.78 156.438 478.415 156.663 478.012 156.682C477.564 156.704 476.932 156.189 475.668 155.159C474.835 154.48 474.419 154.141 473.957 154.009C473.534 153.887 473.087 153.887 472.664 154.009C472.202 154.141 471.786 154.48 470.953 155.159C469.689 156.189 469.057 156.704 468.609 156.682C468.206 156.663 467.841 156.438 467.643 156.087C467.423 155.695 467.599 154.9 467.953 153.308L468.023 152.991C468.22 152.103 468.318 151.66 468.257 151.236C468.221 150.981 468.142 150.735 468.026 150.506C467.831 150.124 467.495 149.818 466.823 149.206L466.423 148.843C464.985 147.534 464.266 146.88 464.365 146.255C464.385 146.126 464.427 146.001 464.489 145.885C464.788 145.327 465.766 145.24 467.723 145.065C468.878 144.961 469.456 144.909 469.919 144.63C470.049 144.552 470.171 144.461 470.283 144.36C470.684 143.997 470.898 143.463 471.326 142.396Z" fill="#DFDFDF" stroke="#DFDFDF" stroke-width="2"/>
<g opacity="0.24">
<rect x="135.5" y="39.5" width="355" height="57" fill="white" stroke="black"/>
<path d="M155.142 73H153.952V63.2H155.072L160.336 70.76V63.2H161.526V73H160.406L155.142 65.44V73ZM164.813 64.264V63.2H165.961V73H164.785V65.972C164.645 66.098 164.421 66.154 164.113 66.154H162.531V65.104H164.127C164.589 65.104 164.813 64.754 164.813 64.264ZM167.24 73V72.006L171.048 68.702C171.958 67.918 172.714 67.162 172.714 66.098C172.714 64.866 171.874 64.166 170.572 64.166C169.312 64.166 168.472 65.006 168.472 66.35V66.532H167.296V66.28C167.296 64.432 168.598 63.116 170.572 63.116C172.686 63.116 173.918 64.278 173.918 66.042C173.918 67.512 172.966 68.436 171.804 69.43L168.864 71.922H173.988V73H167.24ZM180.01 67.904C180.906 68.072 181.844 68.786 181.844 70.284C181.844 71.95 180.444 73.084 178.316 73.084C176.188 73.084 174.816 71.922 174.816 69.976H175.978C175.992 71.264 177 72.034 178.386 72.034C179.66 72.034 180.64 71.32 180.64 70.2C180.64 69.178 179.8 68.52 178.274 68.52H177.434V67.498H178.204C179.66 67.498 180.388 66.77 180.388 65.776C180.388 64.782 179.492 64.166 178.316 64.166C177.084 64.166 176.188 64.908 176.174 66.028H175.012C175.026 64.306 176.37 63.116 178.302 63.116C180.318 63.116 181.592 64.166 181.592 65.706C181.592 66.938 180.948 67.652 180.01 67.904ZM187.857 67.904C188.753 68.072 189.691 68.786 189.691 70.284C189.691 71.95 188.291 73.084 186.163 73.084C184.035 73.084 182.663 71.922 182.663 69.976H183.825C183.839 71.264 184.847 72.034 186.233 72.034C187.507 72.034 188.487 71.32 188.487 70.2C188.487 69.178 187.647 68.52 186.121 68.52H185.281V67.498H186.051C187.507 67.498 188.235 66.77 188.235 65.776C188.235 64.782 187.339 64.166 186.163 64.166C184.931 64.166 184.035 64.908 184.021 66.028H182.859C182.873 64.306 184.217 63.116 186.149 63.116C188.165 63.116 189.439 64.166 189.439 65.706C189.439 66.938 188.795 67.652 187.857 67.904ZM203.86 68.1C203.86 70.984 201.942 73.084 199.184 73.084C196.426 73.084 194.508 70.984 194.508 68.1C194.508 65.216 196.426 63.116 199.184 63.116C201.942 63.116 203.86 65.216 203.86 68.1ZM195.754 68.1C195.754 70.354 197.14 71.964 199.184 71.964C201.228 71.964 202.614 70.354 202.614 68.1C202.614 65.846 201.228 64.236 199.184 64.236C197.14 64.236 195.754 65.846 195.754 68.1ZM208.535 65.86H208.857V66.98H208.283C206.785 66.98 206.379 68.226 206.379 69.36V73H205.231V65.86H206.225L206.379 66.938C206.715 66.392 207.261 65.86 208.535 65.86ZM215.07 66.952V63.2H216.218V73H215.224L215.07 71.852C214.594 72.51 213.824 73.084 212.62 73.084C210.646 73.084 209.19 71.754 209.19 69.43C209.19 67.246 210.646 65.776 212.62 65.776C213.824 65.776 214.636 66.266 215.07 66.952ZM212.732 72.062C214.132 72.062 215.084 70.984 215.084 69.458C215.084 67.89 214.132 66.798 212.732 66.798C211.318 66.798 210.366 67.876 210.366 69.43C210.366 70.984 211.318 72.062 212.732 72.062ZM221.072 73.084C218.93 73.084 217.53 71.614 217.53 69.43C217.53 67.26 218.902 65.776 220.918 65.776C222.934 65.776 224.25 67.05 224.306 69.164C224.306 69.318 224.292 69.486 224.278 69.654H218.734V69.752C218.776 71.11 219.63 72.062 220.988 72.062C221.996 72.062 222.78 71.53 223.018 70.606H224.18C223.9 72.034 222.724 73.084 221.072 73.084ZM218.804 68.702H223.074C222.962 67.47 222.122 66.784 220.932 66.784C219.882 66.784 218.916 67.54 218.804 68.702ZM228.92 65.86H229.242V66.98H228.668C227.17 66.98 226.764 68.226 226.764 69.36V73H225.616V65.86H226.61L226.764 66.938C227.1 66.392 227.646 65.86 228.92 65.86ZM233.145 66.91V65.86H234.433V65.062C234.433 63.802 234.965 63.2 236.295 63.2H237.597V64.25H236.365C235.791 64.25 235.581 64.488 235.581 65.034V65.86H237.597V66.91H235.581V73H234.433V66.91H233.145ZM241.388 73.084C239.246 73.084 237.846 71.614 237.846 69.43C237.846 67.26 239.218 65.776 241.234 65.776C243.25 65.776 244.566 67.05 244.622 69.164C244.622 69.318 244.608 69.486 244.594 69.654H239.05V69.752C239.092 71.11 239.946 72.062 241.304 72.062C242.312 72.062 243.096 71.53 243.334 70.606H244.496C244.216 72.034 243.04 73.084 241.388 73.084ZM239.12 68.702H243.39C243.278 67.47 242.438 66.784 241.248 66.784C240.198 66.784 239.232 67.54 239.12 68.702ZM249.222 73.084C247.08 73.084 245.68 71.614 245.68 69.43C245.68 67.26 247.052 65.776 249.068 65.776C251.084 65.776 252.4 67.05 252.456 69.164C252.456 69.318 252.442 69.486 252.428 69.654H246.884V69.752C246.926 71.11 247.78 72.062 249.138 72.062C250.146 72.062 250.93 71.53 251.168 70.606H252.33C252.05 72.034 250.874 73.084 249.222 73.084ZM246.954 68.702H251.224C251.112 67.47 250.272 66.784 249.082 66.784C248.032 66.784 247.066 67.54 246.954 68.702ZM259.394 66.952V63.2H260.542V73H259.548L259.394 71.852C258.918 72.51 258.148 73.084 256.944 73.084C254.97 73.084 253.514 71.754 253.514 69.43C253.514 67.246 254.97 65.776 256.944 65.776C258.148 65.776 258.96 66.266 259.394 66.952ZM257.056 72.062C258.456 72.062 259.408 70.984 259.408 69.458C259.408 67.89 258.456 66.798 257.056 66.798C255.642 66.798 254.69 67.876 254.69 69.43C254.69 70.984 255.642 72.062 257.056 72.062ZM265.704 65.776C267.678 65.776 269.134 67.106 269.134 69.43C269.134 71.614 267.678 73.084 265.704 73.084C264.5 73.084 263.688 72.594 263.254 71.908L263.1 73H262.106V63.2H263.254V67.008C263.73 66.35 264.5 65.776 265.704 65.776ZM265.592 72.062C267.006 72.062 267.958 70.984 267.958 69.43C267.958 67.876 267.006 66.798 265.592 66.798C264.192 66.798 263.24 67.876 263.24 69.402C263.24 70.97 264.192 72.062 265.592 72.062ZM276.76 71.95H277.124V73H276.494C275.542 73 275.22 72.594 275.206 71.894C274.758 72.538 274.044 73.084 272.812 73.084C271.244 73.084 270.18 72.3 270.18 70.998C270.18 69.57 271.174 68.772 273.05 68.772H275.15V68.282C275.15 67.358 274.492 66.798 273.372 66.798C272.364 66.798 271.692 67.274 271.552 68.002H270.404C270.572 66.602 271.706 65.776 273.428 65.776C275.248 65.776 276.298 66.686 276.298 68.352V71.474C276.298 71.852 276.438 71.95 276.76 71.95ZM275.15 70.088V69.738H272.938C271.916 69.738 271.342 70.116 271.342 70.928C271.342 71.628 271.944 72.104 272.896 72.104C274.324 72.104 275.15 71.278 275.15 70.088ZM281.131 73.084C279.045 73.084 277.673 71.67 277.673 69.444C277.673 67.26 279.087 65.776 281.159 65.776C282.909 65.776 284.015 66.756 284.309 68.324H283.105C282.895 67.372 282.195 66.798 281.145 66.798C279.773 66.798 278.849 67.89 278.849 69.444C278.849 70.998 279.773 72.062 281.145 72.062C282.167 72.062 282.867 71.474 283.091 70.564H284.309C284.029 72.104 282.867 73.084 281.131 73.084ZM285.567 73V63.2H286.715V69.654L290.299 65.86H291.713L288.927 68.814L291.909 73H290.523L288.157 69.64L286.715 71.124V73H285.567Z" fill="black"/>
<path d="M365.307 63.2199C365.949 61.6192 366.27 60.8189 366.792 60.708C366.929 60.6788 367.071 60.6788 367.208 60.708C367.73 60.8189 368.051 61.6192 368.693 63.2199C369.058 64.1302 369.24 64.5853 369.582 64.8949C369.678 64.9817 369.782 65.0591 369.893 65.1258C370.287 65.3638 370.78 65.4079 371.766 65.4962C373.435 65.6457 374.269 65.7204 374.524 66.1961C374.577 66.2947 374.613 66.4014 374.63 66.5118C374.715 67.0448 374.101 67.6028 372.874 68.719L372.534 69.0289C371.96 69.5507 371.673 69.8116 371.508 70.1372C371.408 70.3325 371.341 70.5429 371.31 70.7598C371.258 71.1215 371.342 71.5 371.51 72.257L371.57 72.5275C371.871 73.885 372.022 74.5638 371.834 74.8974C371.665 75.1971 371.354 75.389 371.01 75.4054C370.628 75.4236 370.089 74.9844 369.011 74.106C368.301 73.5273 367.945 73.238 367.551 73.1249C367.191 73.0216 366.809 73.0216 366.449 73.1249C366.054 73.238 365.699 73.5273 364.989 74.106C363.911 74.9844 363.372 75.4236 362.99 75.4054C362.646 75.389 362.335 75.1971 362.166 74.8974C361.978 74.5638 362.129 73.885 362.43 72.5275L362.49 72.257C362.658 71.5 362.742 71.1215 362.69 70.7598C362.659 70.5429 362.592 70.3325 362.492 70.1372C362.326 69.8116 362.04 69.5507 361.466 69.0289L361.125 68.719C359.899 67.6028 359.285 67.0448 359.37 66.5118C359.387 66.4014 359.423 66.2947 359.476 66.1961C359.731 65.7204 360.565 65.6457 362.234 65.4962C363.22 65.4079 363.713 65.3638 364.107 65.1258C364.218 65.0591 364.322 64.9817 364.418 64.8949C364.76 64.5853 364.942 64.1302 365.307 63.2199Z" fill="#C6FF00" stroke="#C6FF00" stroke-width="2"/>
<path d="M392.307 63.2199C392.949 61.6192 393.27 60.8189 393.792 60.708C393.929 60.6788 394.071 60.6788 394.208 60.708C394.73 60.8189 395.051 61.6192 395.693 63.2199C396.058 64.1302 396.24 64.5853 396.582 64.8949C396.678 64.9817 396.782 65.0591 396.893 65.1258C397.287 65.3638 397.78 65.4079 398.766 65.4962C400.435 65.6457 401.269 65.7204 401.524 66.1961C401.577 66.2947 401.613 66.4014 401.63 66.5118C401.715 67.0448 401.101 67.6028 399.874 68.719L399.534 69.0289C398.96 69.5507 398.673 69.8116 398.508 70.1372C398.408 70.3325 398.341 70.5429 398.31 70.7598C398.258 71.1215 398.342 71.5 398.51 72.257L398.57 72.5275C398.871 73.885 399.022 74.5638 398.834 74.8974C398.665 75.1971 398.354 75.389 398.01 75.4054C397.628 75.4236 397.089 74.9844 396.011 74.106C395.301 73.5273 394.945 73.238 394.551 73.1249C394.191 73.0216 393.809 73.0216 393.449 73.1249C393.054 73.238 392.699 73.5273 391.989 74.106C390.911 74.9844 390.372 75.4236 389.99 75.4054C389.646 75.389 389.335 75.1971 389.166 74.8974C388.978 74.5638 389.129 73.885 389.43 72.5275L389.49 72.257C389.658 71.5 389.742 71.1215 389.69 70.7598C389.659 70.5429 389.592 70.3325 389.492 70.1372C389.326 69.8116 389.04 69.5507 388.466 69.0289L388.125 68.719C386.899 67.6028 386.285 67.0448 386.37 66.5118C386.387 66.4014 386.423 66.2947 386.476 66.1961C386.731 65.7204 387.565 65.6457 389.234 65.4962C390.22 65.4079 390.713 65.3638 391.107 65.1258C391.218 65.0591 391.322 64.9817 391.418 64.8949C391.76 64.5853 391.942 64.1302 392.307 63.2199Z" fill="#C6FF00" stroke="#C6FF00" stroke-width="2"/>
<path d="M419.307 63.2199C419.949 61.6192 420.27 60.8189 420.792 60.708C420.929 60.6788 421.071 60.6788 421.208 60.708C421.73 60.8189 422.051 61.6192 422.693 63.2199C423.058 64.1302 423.24 64.5853 423.582 64.8949C423.678 64.9817 423.782 65.0591 423.893 65.1258C424.287 65.3638 424.78 65.4079 425.766 65.4962C427.435 65.6457 428.269 65.7204 428.524 66.1961C428.577 66.2947 428.613 66.4014 428.63 66.5118C428.715 67.0448 428.101 67.6028 426.874 68.719L426.534 69.0289C425.96 69.5507 425.673 69.8116 425.508 70.1372C425.408 70.3325 425.341 70.5429 425.31 70.7598C425.258 71.1215 425.342 71.5 425.51 72.257L425.57 72.5275C425.871 73.885 426.022 74.5638 425.834 74.8974C425.665 75.1971 425.354 75.389 425.01 75.4054C424.628 75.4236 424.089 74.9844 423.011 74.106C422.301 73.5273 421.945 73.238 421.551 73.1249C421.191 73.0216 420.809 73.0216 420.449 73.1249C420.054 73.238 419.699 73.5273 418.989 74.106C417.911 74.9844 417.372 75.4236 416.99 75.4054C416.646 75.389 416.335 75.1971 416.166 74.8974C415.978 74.5638 416.129 73.885 416.43 72.5275L416.49 72.257C416.658 71.5 416.742 71.1215 416.69 70.7598C416.659 70.5429 416.592 70.3325 416.492 70.1372C416.326 69.8116 416.04 69.5507 415.466 69.0289L415.125 68.719C413.899 67.6028 413.285 67.0448 413.37 66.5118C413.387 66.4014 413.423 66.2947 413.476 66.1961C413.731 65.7204 414.565 65.6457 416.234 65.4962C417.22 65.4079 417.713 65.3638 418.107 65.1258C418.218 65.0591 418.322 64.9817 418.418 64.8949C418.76 64.5853 418.942 64.1302 419.307 63.2199Z" fill="#C6FF00" stroke="#C6FF00" stroke-width="2"/>
<path d="M446.307 63.2199C446.949 61.6192 447.27 60.8189 447.792 60.708C447.929 60.6788 448.071 60.6788 448.208 60.708C448.73 60.8189 449.051 61.6192 449.693 63.2199C450.058 64.1302 450.24 64.5853 450.582 64.8949C450.678 64.9817 450.782 65.0591 450.893 65.1258C451.287 65.3638 451.78 65.4079 452.766 65.4962C454.435 65.6457 455.269 65.7204 455.524 66.1961C455.577 66.2947 455.613 66.4014 455.63 66.5118C455.715 67.0448 455.101 67.6028 453.874 68.719L453.534 69.0289C452.96 69.5507 452.673 69.8116 452.508 70.1372C452.408 70.3325 452.341 70.5429 452.31 70.7598C452.258 71.1215 452.342 71.5 452.51 72.257L452.57 72.5275C452.871 73.885 453.022 74.5638 452.834 74.8974C452.665 75.1971 452.354 75.389 452.01 75.4054C451.628 75.4236 451.089 74.9844 450.011 74.106C449.301 73.5273 448.945 73.238 448.551 73.1249C448.191 73.0216 447.809 73.0216 447.449 73.1249C447.054 73.238 446.699 73.5273 445.989 74.106C444.911 74.9844 444.372 75.4236 443.99 75.4054C443.646 75.389 443.335 75.1971 443.166 74.8974C442.978 74.5638 443.129 73.885 443.43 72.5275L443.49 72.257C443.658 71.5 443.742 71.1215 443.69 70.7598C443.659 70.5429 443.592 70.3325 443.492 70.1372C443.326 69.8116 443.04 69.5507 442.466 69.0289L442.125 68.719C440.899 67.6028 440.285 67.0448 440.37 66.5118C440.387 66.4014 440.423 66.2947 440.476 66.1961C440.731 65.7204 441.565 65.6457 443.234 65.4962C444.22 65.4079 444.713 65.3638 445.107 65.1258C445.218 65.0591 445.322 64.9817 445.418 64.8949C445.76 64.5853 445.942 64.1302 446.307 63.2199Z" fill="#C6FF00" stroke="#C6FF00" stroke-width="2"/>
<path d="M477.307 63.2199C477.949 61.6192 478.27 60.8189 478.792 60.708C478.929 60.6788 479.071 60.6788 479.208 60.708C479.73 60.8189 480.051 61.6192 480.693 63.2199C481.058 64.1302 481.24 64.5853 481.582 64.8949C481.678 64.9817 481.782 65.0591 481.893 65.1258C482.287 65.3638 482.78 65.4079 483.766 65.4962C485.435 65.6457 486.269 65.7204 486.524 66.1961C486.577 66.2947 486.613 66.4014 486.63 66.5118C486.715 67.0448 486.101 67.6028 484.874 68.719L484.534 69.0289C483.96 69.5507 483.673 69.8116 483.508 70.1372C483.408 70.3325 483.341 70.5429 483.31 70.7598C483.258 71.1215 483.342 71.5 483.51 72.257L483.57 72.5275C483.871 73.885 484.022 74.5638 483.834 74.8974C483.665 75.1971 483.354 75.389 483.01 75.4054C482.628 75.4236 482.089 74.9844 481.011 74.106C480.301 73.5273 479.945 73.238 479.551 73.1249C479.191 73.0216 478.809 73.0216 478.449 73.1249C478.054 73.238 477.699 73.5273 476.989 74.106C475.911 74.9844 475.372 75.4236 474.99 75.4054C474.646 75.389 474.335 75.1971 474.166 74.8974C473.978 74.5638 474.129 73.885 474.43 72.5275L474.49 72.257C474.658 71.5 474.742 71.1215 474.69 70.7598C474.659 70.5429 474.592 70.3325 474.492 70.1372C474.326 69.8116 474.04 69.5507 473.466 69.0289L473.125 68.719C471.899 67.6028 471.285 67.0448 471.37 66.5118C471.387 66.4014 471.423 66.2947 471.476 66.1961C471.731 65.7204 472.565 65.6457 474.234 65.4962C475.22 65.4079 475.713 65.3638 476.107 65.1258C476.218 65.0591 476.322 64.9817 476.418 64.8949C476.76 64.5853 476.942 64.1302 477.307 63.2199Z" fill="#C6FF00" stroke="#C6FF00" stroke-width="2"/>
</g>
<g opacity="0.24">
<path d="M111.333 67L115.458 71.1248L124.298 62.2861" stroke="black" stroke-width="2" stroke-linecap="round" stroke-linejoin="round"/>
</g>
</svg>
