<svg width="134" height="151" viewBox="0 0 134 151" fill="none" xmlns="http://www.w3.org/2000/svg">
<path d="M70.1258 23.2107C70.1258 18.17 70.1013 13.1293 70.1501 8.08855C70.1582 6.89067 70.3291 5.67673 70.5975 4.50297C71.533 0.410914 75.7304 -1.29344 79.2038 1.08622C79.8383 1.52035 80.3997 2.57351 80.3997 3.33725C80.3346 16.6586 79.4397 29.8914 75.5514 42.7625C75.4375 43.1484 75.34 43.6388 75.0634 43.8559C74.1686 44.5312 73.1193 45.6648 72.2651 45.5522C71.468 45.4557 70.3129 44.0408 70.2396 43.1323C69.8817 38.9277 69.8166 34.691 69.7109 30.4622C69.6458 28.0424 69.7027 25.6225 69.7027 23.2027C69.8492 23.2027 69.9956 23.2027 70.142 23.2027L70.1258 23.2107Z" fill="#2468FF"/>
<path d="M55.4104 115.24C57.3021 126.588 55.795 136.909 53.8249 147.206C53.2597 150.171 50.9128 150.155 48.5345 150.047C45.9757 149.931 45.4262 148.287 45.5832 146.257C46.3367 136.237 48.8093 126.634 53.1185 117.517C53.4717 116.776 54.3429 116.274 55.4104 115.24Z" fill="#2468FF"/>
<path d="M27.9892 24.1278C30.017 25.3743 31.8746 26.0323 33.0432 27.3097C37.9424 32.6747 42.6482 38.2255 47.4081 43.7144C47.7254 44.0783 48.1123 44.5195 48.1433 44.9453C48.213 45.9363 48.4064 47.1517 47.9266 47.864C47.6247 48.313 46.0071 48.3672 45.3261 47.9878C42.2921 46.2692 39.1344 44.6202 36.4874 42.3983C32.4086 38.9687 28.6317 35.1753 24.9321 31.3354C24.2123 30.5844 23.8718 28.649 24.3284 27.7665C25.0559 26.3807 26.6038 25.4285 27.9892 24.1201V24.1278Z" fill="#2468FF"/>
<path d="M34.8391 94.7166C34.294 95.7292 33.9747 96.9561 33.1804 97.7248C27.5036 103.187 21.8035 108.634 15.9398 113.919C13.9152 115.744 10.5589 115.567 9.31297 114.067C7.44407 111.798 7.57643 108.945 10.0761 107.185C15.7763 103.172 21.5231 99.1956 27.4881 95.5444C29.357 94.3987 31.9579 94.347 34.2317 93.8C34.4342 94.1031 34.6366 94.4135 34.8391 94.7166Z" fill="#2468FF"/>
<path d="M16.5659 69.6658C11.8387 69.4475 7.89288 69.2221 3.94701 69.0954C1.14544 69.0038 0.143191 67.4544 0.00903125 65.3204C-0.13302 63.0808 1.41373 61.7075 3.72601 61.6582C7.34833 61.5807 11.0101 61.7498 14.6088 62.1582C19.5963 62.7217 24.5602 63.5175 29.4768 64.433C30.4869 64.6232 31.2682 65.7782 32.16 66.4966C31.2288 67.1375 30.3607 68.215 29.3427 68.3559C24.8602 68.9686 20.3382 69.3066 16.5659 69.6799V69.6658Z" fill="#2468FF"/>
<path d="M108.04 93.8C116.42 94.8334 124.011 96.9779 131.356 99.809C133.61 100.68 134.693 102.456 133.522 104.643C132.423 106.689 130.687 107.842 127.946 106.823C121.789 104.53 115.616 102.279 109.482 99.9435C108.494 99.5684 107.459 99.0163 106.798 98.2944C105.866 97.2681 105.26 96.0012 104.52 94.8405C105.786 94.4654 107.053 94.0973 108.048 93.8071L108.04 93.8Z" fill="#2468FF"/>
<path d="M96.4805 45.56C96.7984 42.7855 96.6553 40.4491 97.3787 38.4453C99.7951 31.7201 103.269 25.5708 108.109 20.3139C109.349 18.9591 110.836 18.0586 112.553 19.4783C114.198 20.8412 116.13 22.5205 114.794 24.8407C110.454 32.4015 105.351 39.3783 98.4915 44.838C98.2769 45.0084 97.951 45.0408 96.4805 45.56Z" fill="#2468FF"/>
<path d="M131.319 59.0234C130.868 59.6267 130.195 61.4677 128.957 62.0318C123.032 64.7503 116.985 67.2025 110.907 69.5371C109.852 69.9445 108.445 69.3648 107.199 69.2394C107.574 68.0173 107.612 66.4582 108.384 65.6121C113.292 60.2456 119.072 56.1169 125.968 53.8684C129.079 52.8578 131.327 54.7302 131.319 59.0078V59.0234Z" fill="#2468FF"/>
<path d="M86.8643 115.248C89.4695 118.198 92.2563 120.97 94.631 124.156C96.9708 127.301 98.9473 130.821 100.98 134.259C102.391 136.656 102 139.826 100.316 141.11C98.3048 142.646 96.0418 142.37 94.7008 139.598C91.5857 133.153 88.7571 126.521 85.9843 119.865C85.5233 118.759 85.9214 117.166 85.9214 115.801C86.2357 115.614 86.55 115.427 86.8713 115.24L86.8643 115.248Z" fill="#2468FF"/>
</svg>
