<svg width="150" height="133" viewBox="0 0 150 133" fill="none" xmlns="http://www.w3.org/2000/svg">
<path d="M27.92 115.608L27.9201 115.608C34.3522 120.987 41.3708 125.3 49.3532 127.886C54.2202 129.458 59.2853 130.21 64.3747 130.663C64.3748 130.663 64.375 130.663 64.3752 130.663L64.3309 131.161L27.92 115.608ZM27.92 115.608C20.6193 109.505 15.5963 101.827 12.2552 92.9298M27.92 115.608L12.2552 92.9298M0.785444 43.8876L0.785826 43.8924C1.04429 47.5112 1.73985 51.0617 2.44919 54.6825L2.47976 54.8387L0.785444 43.8876ZM0.785444 43.8876C0.55789 41.0812 0.336653 38.3325 0.669737 35.5542C1.04372 32.7136 1.67671 30.0045 2.82245 27.4156C2.97433 27.0927 3.12602 26.7609 3.27632 26.4321L3.27765 26.4292C3.42874 26.0987 3.57844 25.7713 3.72793 25.4536L3.73176 25.4454M0.785444 43.8876L3.73176 25.4454M3.73176 25.4454L3.7353 25.4372M3.73176 25.4454L3.7353 25.4372M3.7353 25.4372C5.60232 21.0683 8.18027 17.2181 11.3632 13.6981C12.9834 11.9273 14.6209 10.2549 16.5093 8.8475C16.6782 8.72455 16.8254 8.60925 16.9643 8.50042C17.214 8.30482 17.4369 8.1302 17.7112 7.96995C18.3142 7.62536 18.9133 7.27736 19.5109 6.93021C21.8196 5.58909 24.1065 4.26062 26.5157 3.1898C28.7857 2.18506 31.1179 1.48335 33.5904 1.22504L33.5922 1.22484M3.7353 25.4372L33.5922 1.22484M33.5922 1.22484C37.7928 0.770716 41.9181 0.359057 46.1114 0.546253C50.5021 0.77153 54.8203 1.44716 59.1045 2.49941C62.4534 3.33035 65.7644 4.22727 69.0815 5.12582C70.743 5.57591 72.406 6.0264 74.076 6.46922L74.0776 6.46963M33.5922 1.22484L74.0776 6.46963M74.0776 6.46963C78.1211 7.52774 82.2347 8.59488 86.4679 9.16706C88.9041 9.5096 91.3807 9.73831 93.8216 9.81461L93.8258 9.81471M74.0776 6.46963L93.8258 9.81471M93.8258 9.81471C96.5701 9.87779 99.3156 9.80994 102.069 9.74189C102.632 9.72798 103.195 9.71405 103.759 9.70124C107.793 9.62587 111.801 9.73991 115.761 10.4871L115.761 10.4872M93.8258 9.81471L115.761 10.4872M115.761 10.4872C124.908 12.2046 132.372 16.7926 138.279 23.9328L138.28 23.9336M115.761 10.4872L138.28 23.9336M138.28 23.9336C142.312 28.7873 144.967 34.3547 146.54 40.4962L146.54 40.4976M138.28 23.9336L146.54 40.4976M146.54 40.4976C148.381 47.5974 149.094 54.805 148.531 62.047L148.531 62.0497M146.54 40.4976L148.531 62.0497M148.531 62.0497C148.118 67.7554 146.954 73.3512 145.15 78.8002C142.168 87.745 138.623 96.4574 134.249 104.789C132.298 108.505 130.009 111.995 127.383 115.221C121.74 122.097 114.565 126.584 106.066 129.092L106.064 129.093M148.531 62.0497L106.064 129.093M106.064 129.093C98.6289 131.308 91.0443 132.247 83.2705 131.91M106.064 129.093L81.1454 131.909C81.3612 131.909 81.5858 131.905 81.8139 131.901C82.2993 131.893 82.801 131.884 83.2705 131.91M83.2705 131.91C83.2713 131.91 83.2722 131.91 83.273 131.91L83.2452 132.409L83.2669 131.91C83.2681 131.91 83.2693 131.91 83.2705 131.91ZM12.2552 92.9298C9.84373 86.411 7.99545 79.7361 6.29481 73.0092C5.10078 68.2628 4.16713 63.4718 3.22851 58.6555C2.98099 57.3853 2.73312 56.1134 2.48004 54.84L12.2552 92.9298Z" fill="white" stroke="black"/>
<mask id="path-2-inside-1_178_968" fill="white">
<path fill-rule="evenodd" clip-rule="evenodd" d="M126.659 43.8534C128.21 43.8534 129.534 44.156 130.707 44.9126C131.237 45.2531 131.766 45.7448 132.144 46.2744C132.674 47.031 132.523 48.128 131.69 48.6576C131.501 48.7711 131.35 49.0359 131.237 49.2629C131.167 49.3847 131.113 49.5148 131.061 49.6416C130.999 49.7902 130.94 49.9347 130.858 50.0573C129.686 51.7974 126.735 52.7431 124.806 52.0244C123.066 51.3813 121.628 49.1116 121.817 47.2958C121.931 46.2366 122.498 45.4422 123.368 44.8369C124.39 44.156 125.562 43.8534 126.659 43.8534ZM126.848 75.2886C125.714 73.662 124.049 73.0945 122.158 73.0567C121.136 73.0567 120.191 73.2837 119.245 73.6998C117.807 74.4185 117.089 75.7425 117.278 77.3313C117.467 78.958 118.261 80.2441 119.472 81.2655C122.725 83.9514 126.773 81.9086 127.529 78.3527C127.756 77.2179 127.529 76.2343 126.848 75.2886ZM100.482 91.9714C102.335 92.0092 104.038 92.5388 105.589 93.598C106.232 94.052 106.799 94.5816 107.178 95.3003C107.48 95.8678 107.631 96.3974 107.329 97.0404C107.253 97.2296 107.215 97.4565 107.215 97.6457C107.064 100.067 105.248 101.958 102.827 102.185C100.709 102.374 98.893 101.618 97.4556 100.105C96.5098 99.121 95.9046 97.9483 95.6398 96.6243C95.375 95.1868 95.8668 94.0141 97.0016 93.1063C98.023 92.274 99.1957 91.9336 100.482 91.9714ZM33.9791 70.1821C35.3031 70.1443 36.8163 70.4469 38.2159 71.2035C38.5995 71.3953 38.9562 71.7221 39.2861 72.0244C39.313 72.049 39.3394 72.0735 39.3659 72.0978C39.3988 72.1276 39.4318 72.1575 39.4643 72.187C39.8426 72.5275 40.183 72.9058 40.5235 73.2841C42.0745 74.8729 41.961 76.8778 40.183 78.2018C39.3886 78.807 38.5186 79.3745 37.4215 78.9962C37.305 78.9493 37.1741 78.9746 37.038 79.0007C36.9528 79.017 36.8658 79.034 36.7785 79.034C34.2818 79.2232 32.1634 78.3531 30.3476 76.6508C29.6288 75.9699 29.1749 75.1377 28.9101 74.1541C28.494 72.641 29.0992 71.3926 30.4989 70.7117C31.5959 70.2578 32.6551 70.1443 33.9791 70.1821ZM76.6354 102.764C76.3861 102.749 76.1274 102.733 75.8554 102.715C75.7903 102.721 75.7196 102.728 75.6443 102.734L75.6421 102.735C75.2819 102.768 74.8242 102.81 74.4179 102.904C72.5643 103.282 71.4295 104.682 71.3916 106.573C71.3538 107.897 71.8078 109.032 72.6778 109.978C74.3044 111.718 76.3094 112.512 78.6926 112.285C81.1514 112.021 82.7402 110.167 82.778 107.557C82.8159 105.136 81.1892 103.244 78.806 102.942C78.1157 102.855 77.4253 102.813 76.6354 102.764ZM51.1533 29.4785C49.3754 29.4785 47.7488 29.1002 46.2734 28.1545C46.0086 27.9654 45.7438 27.7762 45.479 27.5493C42.9067 25.2795 44.1172 22.3289 46.2734 21.2319C47.7109 20.5131 49.2241 20.3997 50.775 20.7779C50.873 20.804 50.9699 20.8301 51.0663 20.8559L51.0694 20.857L51.0705 20.857C51.5293 20.9811 51.9716 21.1002 52.4395 21.1941C53.7635 21.5345 54.8984 22.2154 55.6928 23.3503C56.9789 25.1282 56.6006 27.2466 54.7849 28.495C53.7257 29.2516 52.4395 29.4407 51.1533 29.4785ZM27.0943 30.2347C25.392 29.4781 23.5384 29.062 22.1388 28.9864C20.55 28.9485 19.4529 29.1377 18.5072 29.7808C17.2967 30.613 16.8049 31.8992 17.0697 33.3367C17.2589 34.4715 17.902 35.3416 18.7342 36.0603C21.3066 38.2922 25.2029 38.7083 28.3048 35.909C29.2506 35.0768 29.4775 33.8663 28.9858 32.6936C28.9638 32.6497 28.9354 32.6024 28.9063 32.554L28.9059 32.5536C28.8348 32.4352 28.7588 32.3092 28.7588 32.2018C28.6831 31.1048 27.9644 30.613 27.0943 30.2347ZM62.2749 78.1261C63.7503 78.2018 65.3391 78.7692 66.7765 79.8284C67.4575 80.3202 68.0249 80.8876 67.9492 81.8333C67.9492 82.0047 68.057 82.1976 68.1588 82.3792C68.1917 82.4386 68.2242 82.4965 68.2519 82.5521C68.8571 83.8004 68.7058 84.9731 67.7223 85.9566C66.4361 87.205 64.8851 87.6211 63.145 87.3941C61.8967 87.2428 60.724 86.8267 59.6648 86.1458C58.3408 85.3136 57.5085 84.103 57.2437 82.5899C56.9789 81.2281 57.4329 80.0932 58.5299 79.2232C59.5134 78.4288 60.6861 78.1261 62.2749 78.1261ZM76.8435 40.1935C76.6385 40.1659 76.4349 40.1382 76.2337 40.1084C74.5692 40.2219 72.9426 40.4867 71.5051 41.3567C70.8242 41.735 70.2568 42.2268 70.5594 43.1725C70.5848 43.2228 70.5764 43.3068 70.5677 43.3908C70.5636 43.4327 70.5594 43.4751 70.5594 43.5129C70.3703 44.7991 70.9377 45.8205 71.8834 46.6149C73.6235 48.0524 75.6284 48.6198 77.8603 48.5063C78.6926 48.4685 79.5248 48.2793 80.2814 47.8632C82.4376 46.6905 82.9294 44.4965 81.4541 42.5294C80.6975 41.5459 79.7518 40.7893 78.5412 40.4867C77.9859 40.3474 77.4098 40.2699 76.8435 40.1935ZM52.78 58.2661C50.9642 58.2283 49.3376 57.5848 48.0514 56.2608C47.7488 55.9582 47.484 55.6181 47.257 55.2773C45.933 53.1214 46.7652 50.8513 49.1862 50.0569C50.3589 49.6786 51.5694 49.603 52.78 49.8678C53.6878 50.0494 54.5957 50.3278 55.5036 50.6062C55.7306 50.6758 55.9576 50.7454 56.1845 50.8135C56.4493 50.8891 56.6763 51.0405 56.9033 51.1918C58.3408 52.0618 58.6056 53.0454 57.8868 54.5585C57.8414 54.6644 57.79 54.7704 57.7374 54.8785L57.7374 54.8789L57.737 54.8797L57.7366 54.8804L57.7366 54.8808C57.658 55.0427 57.5762 55.2099 57.5085 55.3907C57.1681 56.4878 56.4493 57.2065 55.4658 57.6987C54.6336 58.1144 53.7257 58.3036 52.78 58.2661ZM83.5346 19C84.556 19 85.5395 19.1135 86.4474 19.5296C87.8471 20.097 88.5658 21.1562 88.6793 22.6694C88.9063 26.4901 85.0478 28.4572 82.0971 27.3223C81.6432 27.1331 81.2271 26.9062 80.8488 26.6414C80.13 26.1118 79.4113 25.5443 78.7304 24.9769C77.1416 23.6529 77.2929 22.1776 78.7682 20.7779C80.1679 19.4161 81.7567 19.0378 83.5346 19ZM97.8717 55.7694C98.4013 58.3792 100.633 60.2332 103.281 60.2332C104.681 60.2332 106.118 59.7792 107.14 59.0983C108.88 57.85 109.296 55.8072 108.123 53.9915C107.518 53.0458 106.686 52.4027 105.664 52.0622C104.303 51.6083 102.941 51.6083 101.579 52.0244C100.406 52.4027 99.347 52.9701 98.5148 53.878C98.023 54.4072 97.7204 55.0128 97.8717 55.7694ZM52.6665 100.029C51.5316 97.9861 49.7158 96.9648 47.4083 96.8513C46.0086 96.8135 44.9873 97.4565 44.155 98.5158C43.4741 99.3858 43.2093 100.332 43.3985 101.391C43.9281 104.304 47.257 106.346 50.0941 105.514C52.5908 104.795 53.877 102.147 52.6665 100.029ZM109.182 35.3041C107.14 35.3041 105.437 33.6775 105.21 31.5213C104.983 29.592 106.307 27.7762 108.275 27.398C110.052 27.0575 111.793 27.3601 113.344 28.3437C113.798 28.6463 114.214 29.1002 114.554 29.5542C114.932 30.1216 114.932 30.7269 114.478 31.3321C114.214 31.6726 113.958 32.032 113.703 32.3913C113.448 32.7507 113.192 33.1101 112.927 33.4505C111.944 34.6611 110.658 35.2285 109.182 35.3041ZM88.8685 70.5979C87.8471 69.6143 86.6366 69.1982 85.2369 69.1982C83.6859 69.1982 82.2106 69.8413 81.3784 70.787C80.4327 71.884 80.357 73.2837 81.3406 74.2294C82.0593 74.9481 82.8915 75.5534 83.7616 76.083C84.8208 76.7261 86.0313 76.7639 87.204 76.4991C88.528 76.1965 89.5115 75.4403 89.8898 74.0781C90.2303 72.7541 89.852 71.5436 88.8685 70.5979Z"/>
</mask>
<path fill-rule="evenodd" clip-rule="evenodd" d="M126.659 43.8534C128.21 43.8534 129.534 44.156 130.707 44.9126C131.237 45.2531 131.766 45.7448 132.144 46.2744C132.674 47.031 132.523 48.128 131.69 48.6576C131.501 48.7711 131.35 49.0359 131.237 49.2629C131.167 49.3847 131.113 49.5148 131.061 49.6416C130.999 49.7902 130.94 49.9347 130.858 50.0573C129.686 51.7974 126.735 52.7431 124.806 52.0244C123.066 51.3813 121.628 49.1116 121.817 47.2958C121.931 46.2366 122.498 45.4422 123.368 44.8369C124.39 44.156 125.562 43.8534 126.659 43.8534ZM126.848 75.2886C125.714 73.662 124.049 73.0945 122.158 73.0567C121.136 73.0567 120.191 73.2837 119.245 73.6998C117.807 74.4185 117.089 75.7425 117.278 77.3313C117.467 78.958 118.261 80.2441 119.472 81.2655C122.725 83.9514 126.773 81.9086 127.529 78.3527C127.756 77.2179 127.529 76.2343 126.848 75.2886ZM100.482 91.9714C102.335 92.0092 104.038 92.5388 105.589 93.598C106.232 94.052 106.799 94.5816 107.178 95.3003C107.48 95.8678 107.631 96.3974 107.329 97.0404C107.253 97.2296 107.215 97.4565 107.215 97.6457C107.064 100.067 105.248 101.958 102.827 102.185C100.709 102.374 98.893 101.618 97.4556 100.105C96.5098 99.121 95.9046 97.9483 95.6398 96.6243C95.375 95.1868 95.8668 94.0141 97.0016 93.1063C98.023 92.274 99.1957 91.9336 100.482 91.9714ZM33.9791 70.1821C35.3031 70.1443 36.8163 70.4469 38.2159 71.2035C38.5995 71.3953 38.9562 71.7221 39.2861 72.0244C39.313 72.049 39.3394 72.0735 39.3659 72.0978C39.3988 72.1276 39.4318 72.1575 39.4643 72.187C39.8426 72.5275 40.183 72.9058 40.5235 73.2841C42.0745 74.8729 41.961 76.8778 40.183 78.2018C39.3886 78.807 38.5186 79.3745 37.4215 78.9962C37.305 78.9493 37.1741 78.9746 37.038 79.0007C36.9528 79.017 36.8658 79.034 36.7785 79.034C34.2818 79.2232 32.1634 78.3531 30.3476 76.6508C29.6288 75.9699 29.1749 75.1377 28.9101 74.1541C28.494 72.641 29.0992 71.3926 30.4989 70.7117C31.5959 70.2578 32.6551 70.1443 33.9791 70.1821ZM76.6354 102.764C76.3861 102.749 76.1274 102.733 75.8554 102.715C75.7903 102.721 75.7196 102.728 75.6443 102.734L75.6421 102.735C75.2819 102.768 74.8242 102.81 74.4179 102.904C72.5643 103.282 71.4295 104.682 71.3916 106.573C71.3538 107.897 71.8078 109.032 72.6778 109.978C74.3044 111.718 76.3094 112.512 78.6926 112.285C81.1514 112.021 82.7402 110.167 82.778 107.557C82.8159 105.136 81.1892 103.244 78.806 102.942C78.1157 102.855 77.4253 102.813 76.6354 102.764ZM51.1533 29.4785C49.3754 29.4785 47.7488 29.1002 46.2734 28.1545C46.0086 27.9654 45.7438 27.7762 45.479 27.5493C42.9067 25.2795 44.1172 22.3289 46.2734 21.2319C47.7109 20.5131 49.2241 20.3997 50.775 20.7779C50.873 20.804 50.9699 20.8301 51.0663 20.8559L51.0694 20.857L51.0705 20.857C51.5293 20.9811 51.9716 21.1002 52.4395 21.1941C53.7635 21.5345 54.8984 22.2154 55.6928 23.3503C56.9789 25.1282 56.6006 27.2466 54.7849 28.495C53.7257 29.2516 52.4395 29.4407 51.1533 29.4785ZM27.0943 30.2347C25.392 29.4781 23.5384 29.062 22.1388 28.9864C20.55 28.9485 19.4529 29.1377 18.5072 29.7808C17.2967 30.613 16.8049 31.8992 17.0697 33.3367C17.2589 34.4715 17.902 35.3416 18.7342 36.0603C21.3066 38.2922 25.2029 38.7083 28.3048 35.909C29.2506 35.0768 29.4775 33.8663 28.9858 32.6936C28.9638 32.6497 28.9354 32.6024 28.9063 32.554L28.9059 32.5536C28.8348 32.4352 28.7588 32.3092 28.7588 32.2018C28.6831 31.1048 27.9644 30.613 27.0943 30.2347ZM62.2749 78.1261C63.7503 78.2018 65.3391 78.7692 66.7765 79.8284C67.4575 80.3202 68.0249 80.8876 67.9492 81.8333C67.9492 82.0047 68.057 82.1976 68.1588 82.3792C68.1917 82.4386 68.2242 82.4965 68.2519 82.5521C68.8571 83.8004 68.7058 84.9731 67.7223 85.9566C66.4361 87.205 64.8851 87.6211 63.145 87.3941C61.8967 87.2428 60.724 86.8267 59.6648 86.1458C58.3408 85.3136 57.5085 84.103 57.2437 82.5899C56.9789 81.2281 57.4329 80.0932 58.5299 79.2232C59.5134 78.4288 60.6861 78.1261 62.2749 78.1261ZM76.8435 40.1935C76.6385 40.1659 76.4349 40.1382 76.2337 40.1084C74.5692 40.2219 72.9426 40.4867 71.5051 41.3567C70.8242 41.735 70.2568 42.2268 70.5594 43.1725C70.5848 43.2228 70.5764 43.3068 70.5677 43.3908C70.5636 43.4327 70.5594 43.4751 70.5594 43.5129C70.3703 44.7991 70.9377 45.8205 71.8834 46.6149C73.6235 48.0524 75.6284 48.6198 77.8603 48.5063C78.6926 48.4685 79.5248 48.2793 80.2814 47.8632C82.4376 46.6905 82.9294 44.4965 81.4541 42.5294C80.6975 41.5459 79.7518 40.7893 78.5412 40.4867C77.9859 40.3474 77.4098 40.2699 76.8435 40.1935ZM52.78 58.2661C50.9642 58.2283 49.3376 57.5848 48.0514 56.2608C47.7488 55.9582 47.484 55.6181 47.257 55.2773C45.933 53.1214 46.7652 50.8513 49.1862 50.0569C50.3589 49.6786 51.5694 49.603 52.78 49.8678C53.6878 50.0494 54.5957 50.3278 55.5036 50.6062C55.7306 50.6758 55.9576 50.7454 56.1845 50.8135C56.4493 50.8891 56.6763 51.0405 56.9033 51.1918C58.3408 52.0618 58.6056 53.0454 57.8868 54.5585C57.8414 54.6644 57.79 54.7704 57.7374 54.8785L57.7374 54.8789L57.737 54.8797L57.7366 54.8804L57.7366 54.8808C57.658 55.0427 57.5762 55.2099 57.5085 55.3907C57.1681 56.4878 56.4493 57.2065 55.4658 57.6987C54.6336 58.1144 53.7257 58.3036 52.78 58.2661ZM83.5346 19C84.556 19 85.5395 19.1135 86.4474 19.5296C87.8471 20.097 88.5658 21.1562 88.6793 22.6694C88.9063 26.4901 85.0478 28.4572 82.0971 27.3223C81.6432 27.1331 81.2271 26.9062 80.8488 26.6414C80.13 26.1118 79.4113 25.5443 78.7304 24.9769C77.1416 23.6529 77.2929 22.1776 78.7682 20.7779C80.1679 19.4161 81.7567 19.0378 83.5346 19ZM97.8717 55.7694C98.4013 58.3792 100.633 60.2332 103.281 60.2332C104.681 60.2332 106.118 59.7792 107.14 59.0983C108.88 57.85 109.296 55.8072 108.123 53.9915C107.518 53.0458 106.686 52.4027 105.664 52.0622C104.303 51.6083 102.941 51.6083 101.579 52.0244C100.406 52.4027 99.347 52.9701 98.5148 53.878C98.023 54.4072 97.7204 55.0128 97.8717 55.7694ZM52.6665 100.029C51.5316 97.9861 49.7158 96.9648 47.4083 96.8513C46.0086 96.8135 44.9873 97.4565 44.155 98.5158C43.4741 99.3858 43.2093 100.332 43.3985 101.391C43.9281 104.304 47.257 106.346 50.0941 105.514C52.5908 104.795 53.877 102.147 52.6665 100.029ZM109.182 35.3041C107.14 35.3041 105.437 33.6775 105.21 31.5213C104.983 29.592 106.307 27.7762 108.275 27.398C110.052 27.0575 111.793 27.3601 113.344 28.3437C113.798 28.6463 114.214 29.1002 114.554 29.5542C114.932 30.1216 114.932 30.7269 114.478 31.3321C114.214 31.6726 113.958 32.032 113.703 32.3913C113.448 32.7507 113.192 33.1101 112.927 33.4505C111.944 34.6611 110.658 35.2285 109.182 35.3041ZM88.8685 70.5979C87.8471 69.6143 86.6366 69.1982 85.2369 69.1982C83.6859 69.1982 82.2106 69.8413 81.3784 70.787C80.4327 71.884 80.357 73.2837 81.3406 74.2294C82.0593 74.9481 82.8915 75.5534 83.7616 76.083C84.8208 76.7261 86.0313 76.7639 87.204 76.4991C88.528 76.1965 89.5115 75.4403 89.8898 74.0781C90.2303 72.7541 89.852 71.5436 88.8685 70.5979Z" fill="black" stroke="black" stroke-width="2" mask="url(#path-2-inside-1_178_968)"/>
</svg>
