<svg width="214" height="190" viewBox="0 0 214 190" fill="none" xmlns="http://www.w3.org/2000/svg">
<path d="M225.422 85.4508C222.567 95.2398 216.99 102.347 209.136 107.625C204.798 110.44 200.147 112.954 195.618 115.405C188.749 119.158 181.689 122.547 174.246 125.207C166.774 127.959 159.088 129.118 151.188 128.684C148.176 128.557 145.1 128.308 142.175 127.903C134.57 126.849 127.723 123.693 121.23 119.732C115.669 116.367 110.375 112.475 105.023 108.769C98.5814 104.315 92.1401 99.8615 85.1313 96.2478C80.758 93.9661 76.4313 94.1402 72.2669 96.3995C68.618 98.3112 65.0618 100.252 61.4477 102.378C56.3161 105.454 52.4705 109.949 48.9377 114.745C45.2543 119.698 40.8469 123.712 34.7073 125.456C29.0254 127.038 24.3509 125.069 20.0181 121.681C19.0218 120.963 17.9618 120.123 17.2087 119.277C15.7953 117.615 14.3181 115.831 13.1769 113.949C11.9083 111.823 12.1397 109.454 13.5123 107.34C15.4524 104.386 19.281 103.853 21.7544 106.355C22.8492 107.409 23.7356 108.805 24.5582 110.079C26.6784 113.386 27.6051 113.676 30.5995 111.254C36.7387 106.255 43.0054 101.499 47.795 94.9593C52.1386 89.1958 57.606 84.3936 63.2935 79.8637C65.5928 78.039 68.1876 77.222 71.0084 76.9843C76.6788 76.4162 82.1351 77.5104 87.4235 79.4677C97.2879 83.058 106.231 88.2934 115.297 93.465C120.915 96.6444 126.534 99.8238 132.297 102.54C139.764 105.991 147.687 106.025 155.472 103.575C164.843 100.602 173.068 95.4409 179.653 88.038C185.305 81.6662 191.051 75.3233 196.952 69.131C198.817 67.0688 201.088 65.3367 203.329 63.6974C208.542 60.0363 214.125 59.7462 219.443 63.2384C224.946 66.7885 227.744 71.8333 226.794 78.4538C226.505 81.0081 225.816 83.5394 225.422 85.4508ZM137.824 115.456C137.766 115.641 137.737 115.734 137.772 115.948C139.377 116.348 141.016 116.962 142.678 117.176C145.696 117.61 148.679 117.83 151.662 118.05C158.149 118.449 164.486 117.377 170.585 115.111C181.566 111.218 191.592 105.5 201.583 99.5683C209.054 95.1888 213.815 88.7417 215.494 80.1113C215.714 78.7559 216.148 77.3657 216.154 76.0451C216.09 72.6683 212.458 70.6182 209.666 72.3909C207.998 73.4973 206.394 74.7254 205.01 76.2256C199.502 82.1341 193.93 87.921 188.643 94.1016C181.31 102.594 172.304 108.63 161.971 112.726C154.87 115.593 147.393 116.411 139.793 115.664C139.237 115.49 138.531 115.473 137.824 115.456Z" fill="black"/>
<path d="M92.9 49.2381C97.5165 51.3924 102.938 53.8999 108.389 56.3148C115.542 59.4651 121.891 63.8898 128.541 68.0016C135.347 72.2641 142.477 75.8141 150.025 78.6805C152.313 79.497 154.659 80.1282 156.999 80.4523C158.661 80.6665 160.468 80.4173 162.055 79.8959C165.443 78.8182 168.293 76.8602 171.108 74.6879C177.068 69.9379 183.091 65.3094 189.114 60.681C191.113 59.1691 193.174 57.7787 195.427 56.7533C202.245 53.4918 209.172 52.8077 216.059 56.4851C224.869 61.1702 229.162 72.1749 226.087 81.6917C223.997 88.0575 220.383 93.4387 215.211 97.6211C208.528 103.06 201.56 108.106 193.805 112.092C189.455 114.293 185.036 116.066 180.39 117.259C179.412 117.462 178.404 117.758 177.489 118.082C170.144 121.077 162.476 121.53 154.61 121.31C143.211 121.004 133.219 117.171 124.333 110.123C120.655 107.244 117.093 103.995 113.594 100.868C108.908 96.6571 104.193 92.5393 98.6376 89.4815C94.3223 87.0144 89.6826 85.2598 84.6607 84.403C77.2988 83.222 70.4468 84.6417 64.07 88.4477C61.8227 89.7801 59.6103 91.3267 57.5832 92.9313C48.6002 100.195 40.4281 108.12 34.0112 117.915C33.7738 118.349 33.4726 118.662 33.2352 119.097C29.523 125.769 20.1455 125.179 15.6967 120.535C12.4065 117.065 10.0603 113.179 8.28752 108.76C6.25403 103.547 5.99872 98.1777 7.5853 92.7734C8.30912 90.4565 9.03294 88.1396 9.91316 85.9733C13.382 77.8002 18.4669 70.6407 25.1737 64.8016C27.8321 62.4788 30.5542 60.2775 33.34 58.1979C48.1207 47.3537 64.6396 43.9697 82.6013 47.038C85.7755 47.6227 88.8917 48.3928 92.9 49.2381Z" fill="#C6FF00"/>
<mask id="mask0_4005_876" style="mask-type:alpha" maskUnits="userSpaceOnUse" x="6" y="45" width="222" height="80">
<path d="M92.9039 49.2381C97.5204 51.3924 102.942 53.8999 108.393 56.3148C115.546 59.4651 121.895 63.8898 128.545 68.0016C135.351 72.2641 142.481 75.8141 150.029 78.6805C152.317 79.497 154.662 80.1282 157.003 80.4523C158.665 80.6665 160.472 80.4173 162.059 79.8959C165.447 78.8182 168.297 76.8602 171.112 74.6879C177.071 69.9379 183.095 65.3094 189.118 60.681C191.116 59.1691 193.178 57.7787 195.431 56.7533C202.248 53.4918 209.176 52.8077 216.063 56.4851C224.873 61.1702 229.166 72.1749 226.091 81.6917C224.001 88.0575 220.387 93.4387 215.215 97.6211C208.531 103.06 201.564 108.106 193.809 112.092C189.459 114.293 185.04 116.066 180.394 117.259C179.415 117.462 178.408 117.758 177.493 118.082C170.148 121.077 162.48 121.53 154.614 121.31C143.215 121.004 133.223 117.171 124.337 110.123C120.659 107.244 117.097 103.995 113.598 100.868C108.912 96.6571 104.196 92.5393 98.6416 89.4815C94.3262 87.0144 89.6865 85.2598 84.6647 84.403C77.3027 83.222 70.4507 84.6417 64.0739 88.4477C61.8267 89.7801 59.6142 91.3267 57.5871 92.9313C48.6041 100.195 40.432 108.12 34.0152 117.915C33.7777 118.349 33.4766 118.662 33.2391 119.097C29.5269 125.769 20.1494 125.179 15.7006 120.535C12.4104 117.065 10.0642 113.179 8.29143 108.76C6.25794 103.547 6.00262 98.1777 7.58921 92.7734C8.31303 90.4565 9.03685 88.1396 9.91707 85.9733C13.3859 77.8002 18.4708 70.6407 25.1776 64.8016C27.836 62.4788 30.5581 60.2775 33.3439 58.1979C48.1246 47.3537 64.6435 43.9697 82.6052 47.038C85.7794 47.6227 88.8956 48.3928 92.9039 49.2381Z" fill="#EA552B"/>
</mask>
<g mask="url(#mask0_4005_876)">
<path fill-rule="evenodd" clip-rule="evenodd" d="M32.8545 71.4734C30.5375 70.7496 28.4061 71.7113 27.7402 73.8428C27.1611 75.6964 28.1518 77.7351 30.1617 78.4648C32.635 79.3392 34.9518 78.4354 35.5888 76.3965C36.3184 74.3866 35.0787 72.1683 32.8545 71.4734ZM81.5591 53.6294C83.7834 54.3243 84.9652 56.7279 84.2414 59.0448C83.4538 61.2401 81.2645 62.3872 79.0692 61.5996C76.9666 60.841 75.8485 58.559 76.5434 56.3348C77.1166 54.1743 79.3349 52.9345 81.5591 53.6294ZM105.228 77.5026C105.981 75.093 104.434 72.8806 101.561 71.983C99.4005 71.4098 97.4833 72.3367 97.0607 74.3408C96.3658 76.5651 97.9531 79.2988 100.27 80.0226C102.494 80.7175 104.562 79.6342 105.228 77.5026ZM122.558 73.1513C125.245 73.9909 126.549 76.3308 125.668 78.4971C124.91 80.5998 122.506 81.7816 120.369 80.8087C119.378 80.3975 118.411 79.5867 117.658 78.7411C116.528 77.4727 116.378 76.0015 117.177 74.4202C117.947 72.9315 119.326 72.7519 120.803 72.9081C121.48 73.0181 122.158 73.1281 122.558 73.1513ZM138.038 89.7443C137.75 89.5701 137.46 89.396 137.173 89.2116C135.197 88.6963 133.697 88.9397 132.643 90.0345C131.531 91.3147 131.323 93.284 132.151 94.8652C132.98 96.4464 134.167 97.5294 135.957 97.9868C137.932 98.5022 139.82 97.6679 140.741 96.0229C141.662 94.3778 141.407 92.2637 139.878 90.9722C139.317 90.5151 138.684 90.1334 138.038 89.7443ZM187.271 85.7553C187.412 85.8257 187.561 85.9009 187.72 85.9811C188.049 85.9656 188.424 85.9659 188.83 85.9646C189.829 85.9632 191.016 85.9619 192.169 85.7432C194.063 85.216 195.163 83.3218 194.943 81.422C194.694 79.6149 193.222 78.138 191.317 78.0513C189.811 77.9877 188.218 78.2022 186.718 78.4456C185.31 78.7179 184.407 79.6563 184.065 81.0754C183.695 82.5872 184.21 83.8672 185.456 84.7649C185.957 85.0944 186.48 85.3575 187.271 85.7553ZM169.673 96.2116C172.268 97.0222 173.664 99.3911 173.033 101.737C172.309 104.054 169.905 105.236 167.432 104.361C164.773 103.429 163.128 100.881 163.916 98.6853C164.703 96.49 167.171 95.4298 169.673 96.2116ZM213.993 77.0995C214.659 74.9679 213.448 72.6569 211.224 71.962C208.357 71.3715 205.629 71.6382 204.939 74.1694C204.216 76.4863 205.739 79.0985 208.334 79.9091C210.773 80.5692 213.298 79.3237 213.993 77.0995ZM52.1538 70.5856C52.9472 68.6972 55.2002 67.6719 57.1812 68.4942C59.2549 69.3454 60.344 71.7201 59.4638 73.8865C58.6704 75.7748 56.6606 76.6727 54.6507 75.9431C52.4844 75.0629 51.3952 72.6882 52.1538 70.5856ZM28.2237 105.833C28.658 104.443 27.7716 103.047 26.3815 102.613C24.8697 102.242 23.3812 103.099 23.0685 104.426C22.7559 105.752 23.7986 107.299 25.125 107.611C26.4515 107.924 27.8183 107.13 28.2237 105.833Z" fill="black"/>
</g>
<path d="M80.8794 112.401C81.5088 116.419 82.1415 120.442 82.7752 124.458C83.305 127.817 83.8382 131.18 84.3637 134.542C84.4603 135.162 84.5646 135.783 84.5832 136.4C84.6375 138.456 84.582 140.511 82.506 141.652C80.5267 142.739 78.9131 141.574 77.3661 140.506C70.5877 135.836 64.5744 130.263 58.7812 124.429C57.5875 123.229 56.2741 122.142 55.0135 121.007C54.8251 121.138 54.6399 121.273 54.4514 121.404C55.1863 122.831 55.9384 124.244 56.6405 125.682C60.7637 134.112 64.8913 142.538 68.9732 150.986C69.3267 151.717 69.4272 152.593 69.5309 153.411C69.8486 155.909 68.086 157.756 65.601 157.338C60.4921 156.484 55.4031 155.467 50.3013 154.586C49.6602 154.476 48.9587 154.762 48.2876 154.865C48.7159 155.433 49.0414 156.137 49.5864 156.552C53.843 159.759 58.4046 162.62 62.3614 166.163C66.1035 169.506 68.9969 173.698 70.2491 178.746C70.454 179.571 70.4567 180.445 70.5533 181.29C70.3739 181.379 70.1901 181.471 70.0107 181.56C69.4633 180.907 68.8804 180.29 68.3719 179.608C59.2208 167.322 47.2935 158.729 33.4193 152.72C32.023 152.118 30.7537 151.151 31.1783 149.667C31.4374 148.767 32.8346 147.727 33.8264 147.631C36.327 147.377 38.9343 147.308 41.4151 147.729C48.8386 148.984 56.2212 150.51 63.6214 151.924C63.8054 151.958 63.9989 151.914 64.6176 151.887C63.5031 149.174 62.4983 146.623 61.4159 144.096C56.7691 133.249 51.1314 122.94 44.4909 113.171C44.0625 112.54 43.7634 111.107 44.0744 110.84C44.744 110.269 46.06 109.734 46.7434 110.043C48.9277 111.028 51.1144 112.187 53.0031 113.667C61.0942 120.006 69.0816 126.488 77.1171 132.898C77.6346 133.314 78.2487 133.613 79.3422 134.287C79.1827 131.843 79.0963 129.889 78.9224 127.947C78.3275 121.243 77.6724 114.551 77.117 107.845C77.0025 106.475 77.0569 105.037 77.345 103.707C77.5569 102.745 78.176 101.273 78.8249 101.16C79.7505 100.995 81.2026 101.59 81.8412 102.361C83.2049 103.998 84.3755 105.869 85.2992 107.802C90.5225 118.711 97.8265 128.215 105.254 137.638C106.231 138.879 107.547 139.88 108.808 140.853C112.045 143.357 112.278 145.745 109.314 148.544C106.021 151.651 102.732 154.763 99.2807 157.69C94.3684 161.86 89.3292 165.883 84.2899 169.905C83.7645 170.324 82.6755 170.67 82.2102 170.404C80.9433 169.674 81.4503 168.702 82.3087 167.901C88.0165 162.579 93.7489 157.28 99.4254 151.926C101.26 150.192 103.024 148.366 104.67 146.448C105 146.061 104.921 144.683 104.575 144.438C99.3672 140.805 95.6977 135.779 92.3986 130.544C88.9194 125.021 85.9161 119.195 82.684 113.51C82.3839 112.983 81.9458 112.527 81.574 112.042C81.3436 112.163 81.1098 112.279 80.8794 112.401Z" fill="#3FE8BE"/>
</svg>
