<svg width="25" height="26" viewBox="0 0 25 26" fill="none" xmlns="http://www.w3.org/2000/svg">
<path d="M23.9119 6.50014V5.41256V4.33343H22.8266H21.7385H20.6532V3.24584H19.5648V2.16671H18.4795H17.391H16.3057V1.07913H15.2176V0H14.1323H13.0414H11.953V1.07913H10.8677H9.77955H8.69425V2.16671H7.60613V3.24584V4.33343V5.41256H6.52083H5.43242H4.34713H3.25872H2.17342V6.50014H1.0853V7.57927H0V8.66685V9.74598V10.8336V11.9127H1.0853V13.0003V14.0879V15.1667H2.17342V16.2546H3.25872V17.3337V18.421H4.34713V19.5001V20.5874H5.43242V21.6666H6.52083V22.7542V23.8333H7.60613V24.9209V26H8.69425H9.77955H10.8677H11.953H13.0414H14.1323H15.2176H16.3057H17.391H18.4795H19.5648H20.6532H21.7385H22.8266V24.9209V23.8333V22.7542V21.6666H23.9119V20.5874V19.5004V18.4213H25V17.334V16.2549V15.167V14.0879V13.0003V11.913V10.8338V9.74627V8.66714V7.57955V6.50042L23.9119 6.50014ZM23.9119 8.66685V9.74598V10.8336V11.9127V13.0003V14.0879V15.1667V16.2546V17.3337H22.8266V18.421V19.5001V20.5874H21.7385V21.6666V22.7542V23.8333V24.9209H20.6532H19.5648H18.4795H17.391H16.3057H15.2176H14.1323H13.0414H11.953H10.8677H9.77955H8.69425V23.8333V22.7542H7.60613V21.6666V20.5874H6.52083V19.5004H5.43242V18.4213V17.334H4.34713V16.2549V15.167H3.25872V14.0879H2.17342V13.0003V11.913V10.8338H1.0853V9.74627V8.66714H2.17342V7.57955H3.25872V6.50042H4.34713H5.43242V7.57955H6.52083V8.66714V9.74627H5.43242V10.8338H6.52083V11.913H7.60613V10.8338V9.74627V8.66714V7.57955V6.50042H8.69425V5.41284V4.33371V3.24613H9.77955V2.167H10.8677V3.24613V4.33371V5.41284V6.50042H11.953V5.41284V4.33371V3.24613V2.167H13.0414V1.07913H14.1323V2.16671H15.2176V3.24584V4.33343V5.41256V6.50014H16.3057V5.41256V4.33343V3.24584H17.391H18.4795V4.33343H19.5648V5.41256V6.50014V7.57927V8.66685H20.6532V7.57927V6.50014V5.41256H21.7385H22.8266V6.50014V7.57927H23.9119V8.66685Z" fill="black"/>
</svg>
