<svg width="33" height="16" viewBox="0 0 33 16" fill="none" xmlns="http://www.w3.org/2000/svg">
<path fill-rule="evenodd" clip-rule="evenodd" d="M21.2854 12.1767C22.0818 12.989 23.0926 13.5397 24.1908 13.7595C25.289 13.9792 26.4254 13.8583 27.4573 13.4119C28.4892 12.9655 29.3705 12.2135 29.9903 11.2505C30.6101 10.2875 30.9408 9.15648 30.9408 7.99964C30.9408 6.84279 30.6101 5.71176 29.9903 4.74876C29.3705 3.78577 28.4892 3.03379 27.4573 2.58737C26.4254 2.14096 25.289 2.02004 24.1908 2.23982C23.0926 2.45959 22.0818 3.01026 21.2854 3.82257L17.8511 7.99963L21.2834 12.1767L21.2854 12.1767ZM16.5 9.64657L19.7673 13.6252L19.7962 13.6572C20.878 14.7758 22.2563 15.5376 23.7567 15.8461C25.2571 16.1546 26.8122 15.996 28.2255 15.3905C29.6388 14.7849 30.8467 13.7595 31.6966 12.444C32.5464 11.1284 33 9.5818 33 7.99964C33 6.41748 32.5464 4.87084 31.6966 3.5553C30.8467 2.23975 29.6388 1.21437 28.2255 0.608804C26.8122 0.00324088 25.2571 -0.155308 23.7567 0.153203C22.2563 0.461713 20.878 1.22343 19.7962 2.34204L19.7673 2.37404L16.5 6.3527L13.2327 2.37404L13.2038 2.34204C12.122 1.22343 10.7437 0.461712 9.24334 0.153201C7.74294 -0.155309 6.18778 0.00323905 4.77451 0.608802C3.36123 1.21436 2.1533 2.23975 1.30345 3.55529C0.453605 4.87084 6.48561e-07 6.41747 5.11949e-07 7.99963C3.75337e-07 9.58179 0.453605 11.1284 1.30345 12.444C2.1533 13.7595 3.36123 14.7849 4.7745 15.3905C6.18778 15.996 7.74294 16.1546 9.24334 15.8461C10.7437 15.5376 12.122 14.7758 13.2038 13.6572L13.2327 13.6252L16.5 9.64657ZM15.1469 7.99963L11.7166 3.82257C10.9202 3.01025 9.90942 2.45959 8.81126 2.23981C7.71309 2.02004 6.57662 2.14096 5.54472 2.58737C4.51282 3.03378 3.63156 3.78576 3.01176 4.74876C2.39195 5.71176 2.06125 6.84279 2.06125 7.99963C2.06125 9.15648 2.39195 10.2875 3.01175 11.2505C3.63156 12.2135 4.51282 12.9655 5.54472 13.4119C6.57662 13.8583 7.71309 13.9792 8.81126 13.7595C9.90942 13.5397 10.9202 12.989 11.7166 12.1767L15.1469 7.99963Z" fill="#2468FF"/>
</svg>
