<svg width="475" height="187" viewBox="0 0 475 187" fill="none" xmlns="http://www.w3.org/2000/svg">
<path d="M8 0.25H474.75V175C474.75 181.489 469.489 186.75 463 186.75H0.25V8C0.25 3.71979 3.71979 0.25 8 0.25Z" fill="white" stroke="black" stroke-width="0.5"/>
<path d="M99.3648 45.8568C96.9528 45.8568 95.4408 44.1528 95.4408 41.5848C95.4408 39.0408 97.0128 37.3128 99.4488 37.3128C101.309 37.3128 102.665 38.3928 102.977 40.1328H101.873C101.549 38.9688 100.661 38.2728 99.4008 38.2728C97.6368 38.2728 96.5088 39.6408 96.5088 41.5848C96.5088 43.5168 97.5888 44.8968 99.3528 44.8968C100.649 44.8968 101.549 44.2128 101.861 43.0368H102.965C102.653 44.7768 101.261 45.8568 99.3648 45.8568ZM106.913 39.6648H107.189V40.6248H106.697C105.413 40.6248 105.065 41.6928 105.065 42.6648V45.7848H104.081V39.6648H104.933L105.065 40.5888C105.353 40.1208 105.821 39.6648 106.913 39.6648ZM110.511 45.8568C108.675 45.8568 107.475 44.5968 107.475 42.7248C107.475 40.8648 108.651 39.5928 110.379 39.5928C112.107 39.5928 113.235 40.6848 113.283 42.4968C113.283 42.6288 113.271 42.7728 113.259 42.9168H108.507V43.0008C108.543 44.1648 109.275 44.9808 110.439 44.9808C111.303 44.9808 111.975 44.5248 112.179 43.7328H113.175C112.935 44.9568 111.927 45.8568 110.511 45.8568ZM108.567 42.1008H112.227C112.131 41.0448 111.411 40.4568 110.391 40.4568C109.491 40.4568 108.663 41.1048 108.567 42.1008ZM119.818 44.8848H120.13V45.7848H119.59C118.774 45.7848 118.498 45.4368 118.486 44.8368C118.102 45.3888 117.49 45.8568 116.434 45.8568C115.09 45.8568 114.178 45.1848 114.178 44.0688C114.178 42.8448 115.03 42.1608 116.638 42.1608H118.438V41.7408C118.438 40.9488 117.874 40.4688 116.914 40.4688C116.05 40.4688 115.474 40.8768 115.354 41.5008H114.37C114.514 40.3008 115.486 39.5928 116.962 39.5928C118.522 39.5928 119.422 40.3728 119.422 41.8008V44.4768C119.422 44.8008 119.542 44.8848 119.818 44.8848ZM118.438 43.2888V42.9888H116.542C115.666 42.9888 115.174 43.3128 115.174 44.0088C115.174 44.6088 115.69 45.0168 116.506 45.0168C117.73 45.0168 118.438 44.3088 118.438 43.2888ZM121.342 44.1888V40.5648H120.238V39.6648H121.342V37.9488H122.326V39.6648H123.91V40.5648H122.326V44.1768C122.326 44.6928 122.506 44.8848 123.034 44.8848H124.006V45.7848H122.938C121.762 45.7848 121.342 45.2688 121.342 44.1888ZM127.526 45.8568C125.69 45.8568 124.49 44.5968 124.49 42.7248C124.49 40.8648 125.666 39.5928 127.394 39.5928C129.122 39.5928 130.25 40.6848 130.298 42.4968C130.298 42.6288 130.286 42.7728 130.274 42.9168H125.522V43.0008C125.558 44.1648 126.29 44.9808 127.454 44.9808C128.318 44.9808 128.99 44.5248 129.194 43.7328H130.19C129.95 44.9568 128.942 45.8568 127.526 45.8568ZM125.582 42.1008H129.242C129.146 41.0448 128.426 40.4568 127.406 40.4568C126.506 40.4568 125.678 41.1048 125.582 42.1008ZM139.974 44.8848H140.286V45.7848H139.746C138.93 45.7848 138.654 45.4368 138.642 44.8368C138.258 45.3888 137.646 45.8568 136.59 45.8568C135.246 45.8568 134.334 45.1848 134.334 44.0688C134.334 42.8448 135.186 42.1608 136.794 42.1608H138.594V41.7408C138.594 40.9488 138.03 40.4688 137.07 40.4688C136.206 40.4688 135.63 40.8768 135.51 41.5008H134.526C134.67 40.3008 135.642 39.5928 137.118 39.5928C138.678 39.5928 139.578 40.3728 139.578 41.8008V44.4768C139.578 44.8008 139.698 44.8848 139.974 44.8848ZM138.594 43.2888V42.9888H136.698C135.822 42.9888 135.33 43.3128 135.33 44.0088C135.33 44.6088 135.846 45.0168 136.662 45.0168C137.886 45.0168 138.594 44.3088 138.594 43.2888ZM144.183 45.7848V37.3848H145.167V45.7848H144.183ZM149.335 45.8568C147.547 45.8568 146.299 44.5848 146.299 42.7248C146.299 40.8648 147.547 39.5928 149.335 39.5928C151.123 39.5928 152.371 40.8648 152.371 42.7248C152.371 44.5848 151.123 45.8568 149.335 45.8568ZM149.335 44.9808C150.547 44.9808 151.363 44.0328 151.363 42.7248C151.363 41.4168 150.547 40.4688 149.335 40.4688C148.123 40.4688 147.307 41.4168 147.307 42.7248C147.307 44.0328 148.123 44.9808 149.335 44.9808ZM158.323 40.7208L158.455 39.6648H159.307V45.4848C159.307 47.2488 158.371 48.2568 156.271 48.2568C154.711 48.2568 153.619 47.5248 153.463 46.1808H154.471C154.639 46.9488 155.323 47.3808 156.343 47.3808C157.627 47.3808 158.323 46.7808 158.323 45.4488V44.7288C157.915 45.4248 157.255 45.8568 156.223 45.8568C154.531 45.8568 153.283 44.7168 153.283 42.7248C153.283 40.8528 154.531 39.5928 156.223 39.5928C157.255 39.5928 157.939 40.0368 158.323 40.7208ZM156.319 44.9808C157.519 44.9808 158.335 44.0568 158.335 42.7488C158.335 41.4048 157.519 40.4688 156.319 40.4688C155.107 40.4688 154.291 41.3928 154.291 42.7248C154.291 44.0568 155.107 44.9808 156.319 44.9808ZM163.468 45.8568C161.68 45.8568 160.432 44.5848 160.432 42.7248C160.432 40.8648 161.68 39.5928 163.468 39.5928C165.256 39.5928 166.504 40.8648 166.504 42.7248C166.504 44.5848 165.256 45.8568 163.468 45.8568ZM163.468 44.9808C164.68 44.9808 165.496 44.0328 165.496 42.7248C165.496 41.4168 164.68 40.4688 163.468 40.4688C162.256 40.4688 161.44 41.4168 161.44 42.7248C161.44 44.0328 162.256 44.9808 163.468 44.9808ZM175.597 40.6008V37.3848H176.581V45.7848H175.729L175.597 44.8008C175.189 45.3648 174.529 45.8568 173.497 45.8568C171.805 45.8568 170.557 44.7168 170.557 42.7248C170.557 40.8528 171.805 39.5928 173.497 39.5928C174.529 39.5928 175.225 40.0128 175.597 40.6008ZM173.593 44.9808C174.793 44.9808 175.609 44.0568 175.609 42.7488C175.609 41.4048 174.793 40.4688 173.593 40.4688C172.381 40.4688 171.565 41.3928 171.565 42.7248C171.565 44.0568 172.381 44.9808 173.593 44.9808ZM180.741 45.8568C178.905 45.8568 177.705 44.5968 177.705 42.7248C177.705 40.8648 178.881 39.5928 180.609 39.5928C182.337 39.5928 183.465 40.6848 183.513 42.4968C183.513 42.6288 183.501 42.7728 183.489 42.9168H178.737V43.0008C178.773 44.1648 179.505 44.9808 180.669 44.9808C181.533 44.9808 182.205 44.5248 182.409 43.7328H183.405C183.165 44.9568 182.157 45.8568 180.741 45.8568ZM178.797 42.1008H182.457C182.361 41.0448 181.641 40.4568 180.621 40.4568C179.721 40.4568 178.893 41.1048 178.797 42.1008ZM184.361 43.7688H185.369C185.405 44.4888 186.041 45.0168 187.061 45.0168C187.925 45.0168 188.537 44.6448 188.537 44.0808C188.537 43.3128 187.865 43.2528 186.953 43.1448C185.585 42.9768 184.493 42.7008 184.493 41.4288C184.493 40.3128 185.513 39.5808 186.893 39.5928C188.285 39.6048 189.293 40.2528 189.389 41.5248H188.381C188.309 40.9008 187.733 40.4328 186.893 40.4328C186.041 40.4328 185.465 40.7928 185.465 41.3568C185.465 42.0288 186.113 42.1128 187.001 42.2208C188.393 42.3888 189.509 42.6528 189.509 44.0088C189.509 45.1488 188.417 45.8568 187.061 45.8568C185.477 45.8568 184.385 45.1128 184.361 43.7688ZM191.105 38.6328C190.745 38.6328 190.469 38.3688 190.469 37.9968C190.469 37.6248 190.745 37.3608 191.105 37.3608C191.465 37.3608 191.741 37.6248 191.741 37.9968C191.741 38.3688 191.465 38.6328 191.105 38.6328ZM190.601 45.7848V39.6648H191.585V45.7848H190.601ZM197.757 40.7208L197.889 39.6648H198.741V45.4848C198.741 47.2488 197.805 48.2568 195.705 48.2568C194.145 48.2568 193.053 47.5248 192.897 46.1808H193.905C194.073 46.9488 194.757 47.3808 195.777 47.3808C197.061 47.3808 197.757 46.7808 197.757 45.4488V44.7288C197.349 45.4248 196.689 45.8568 195.657 45.8568C193.965 45.8568 192.717 44.7168 192.717 42.7248C192.717 40.8528 193.965 39.5928 195.657 39.5928C196.689 39.5928 197.373 40.0368 197.757 40.7208ZM195.753 44.9808C196.953 44.9808 197.769 44.0568 197.769 42.7488C197.769 41.4048 196.953 40.4688 195.753 40.4688C194.541 40.4688 193.725 41.3928 193.725 42.7248C193.725 44.0568 194.541 44.9808 195.753 44.9808ZM203.081 39.5928C204.461 39.5928 205.553 40.3488 205.553 42.3768V45.7848H204.569V42.4368C204.569 41.1648 203.981 40.4928 202.913 40.4928C201.761 40.4928 201.065 41.3448 201.065 42.7248V45.7848H200.081V39.6648H200.933L201.065 40.4928C201.425 40.0248 202.049 39.5928 203.081 39.5928Z" fill="black"/>
<rect x="59.7437" y="29.8323" width="21.019" height="21.019" rx="1.75" stroke="black" stroke-width="0.5"/>
<path d="M95.4166 163.29H96.4966C96.5806 164.418 97.4566 165.162 98.7406 165.162C99.8686 165.162 100.673 164.646 100.673 163.734C100.673 162.69 99.6406 162.474 98.3686 162.258C97.0126 162.03 95.6206 161.586 95.6206 159.954C95.6206 158.526 96.7846 157.566 98.4886 157.566C100.361 157.566 101.513 158.61 101.609 160.122H100.529C100.409 159.15 99.6286 158.514 98.4886 158.514C97.3966 158.514 96.6646 158.994 96.6646 159.894C96.6646 160.902 97.6846 161.106 98.9446 161.322C100.313 161.55 101.717 162.006 101.717 163.638C101.717 165.09 100.493 166.11 98.7286 166.11C96.6766 166.11 95.4766 164.946 95.4166 163.29ZM103.354 164.442V160.818H102.25V159.918H103.354V158.202H104.338V159.918H105.922V160.818H104.338V164.43C104.338 164.946 104.518 165.138 105.046 165.138H106.018V166.038H104.95C103.774 166.038 103.354 165.522 103.354 164.442ZM112.189 165.138H112.501V166.038H111.961C111.145 166.038 110.869 165.69 110.857 165.09C110.473 165.642 109.861 166.11 108.805 166.11C107.461 166.11 106.549 165.438 106.549 164.322C106.549 163.098 107.401 162.414 109.009 162.414H110.809V161.994C110.809 161.202 110.245 160.722 109.285 160.722C108.421 160.722 107.845 161.13 107.725 161.754H106.741C106.885 160.554 107.857 159.846 109.333 159.846C110.893 159.846 111.793 160.626 111.793 162.054V164.73C111.793 165.054 111.913 165.138 112.189 165.138ZM110.809 163.542V163.242H108.913C108.037 163.242 107.545 163.566 107.545 164.262C107.545 164.862 108.061 165.27 108.877 165.27C110.101 165.27 110.809 164.562 110.809 163.542ZM116.089 159.918H116.365V160.878H115.873C114.589 160.878 114.241 161.946 114.241 162.918V166.038H113.257V159.918H114.109L114.241 160.842C114.529 160.374 114.997 159.918 116.089 159.918ZM117.873 164.442V160.818H116.769V159.918H117.873V158.202H118.857V159.918H120.441V160.818H118.857V164.43C118.857 164.946 119.037 165.138 119.565 165.138H120.537V166.038H119.469C118.293 166.038 117.873 165.522 117.873 164.442ZM127.279 166.11C125.491 166.11 124.315 164.898 124.315 162.99C124.315 161.118 125.527 159.846 127.303 159.846C128.803 159.846 129.751 160.686 130.003 162.03H128.971C128.791 161.214 128.191 160.722 127.291 160.722C126.115 160.722 125.323 161.658 125.323 162.99C125.323 164.322 126.115 165.234 127.291 165.234C128.167 165.234 128.767 164.73 128.959 163.95H130.003C129.763 165.27 128.767 166.11 127.279 166.11ZM133.913 159.918H134.189V160.878H133.697C132.413 160.878 132.065 161.946 132.065 162.918V166.038H131.081V159.918H131.933L132.065 160.842C132.353 160.374 132.821 159.918 133.913 159.918ZM137.511 166.11C135.675 166.11 134.475 164.85 134.475 162.978C134.475 161.118 135.651 159.846 137.379 159.846C139.107 159.846 140.235 160.938 140.283 162.75C140.283 162.882 140.271 163.026 140.259 163.17H135.507V163.254C135.543 164.418 136.275 165.234 137.439 165.234C138.303 165.234 138.975 164.778 139.179 163.986H140.175C139.935 165.21 138.927 166.11 137.511 166.11ZM135.567 162.354H139.227C139.131 161.298 138.411 160.71 137.391 160.71C136.491 160.71 135.663 161.358 135.567 162.354ZM146.818 165.138H147.13V166.038H146.59C145.774 166.038 145.498 165.69 145.486 165.09C145.102 165.642 144.49 166.11 143.434 166.11C142.09 166.11 141.178 165.438 141.178 164.322C141.178 163.098 142.03 162.414 143.638 162.414H145.438V161.994C145.438 161.202 144.874 160.722 143.914 160.722C143.05 160.722 142.474 161.13 142.354 161.754H141.37C141.514 160.554 142.486 159.846 143.962 159.846C145.522 159.846 146.422 160.626 146.422 162.054V164.73C146.422 165.054 146.542 165.138 146.818 165.138ZM145.438 163.542V163.242H143.542C142.666 163.242 142.174 163.566 142.174 164.262C142.174 164.862 142.69 165.27 143.506 165.27C144.73 165.27 145.438 164.562 145.438 163.542ZM148.342 164.442V160.818H147.238V159.918H148.342V158.202H149.326V159.918H150.91V160.818H149.326V164.43C149.326 164.946 149.506 165.138 150.034 165.138H151.006V166.038H149.938C148.762 166.038 148.342 165.522 148.342 164.442ZM152.363 158.886C152.003 158.886 151.727 158.622 151.727 158.25C151.727 157.878 152.003 157.614 152.363 157.614C152.723 157.614 152.999 157.878 152.999 158.25C152.999 158.622 152.723 158.886 152.363 158.886ZM151.859 166.038V159.918H152.843V166.038H151.859ZM157.191 159.846C158.571 159.846 159.663 160.602 159.663 162.63V166.038H158.679V162.69C158.679 161.418 158.091 160.746 157.023 160.746C155.871 160.746 155.175 161.598 155.175 162.978V166.038H154.191V159.918H155.043L155.175 160.746C155.535 160.278 156.159 159.846 157.191 159.846ZM165.741 160.974L165.873 159.918H166.725V165.738C166.725 167.502 165.789 168.51 163.689 168.51C162.129 168.51 161.037 167.778 160.881 166.434H161.889C162.057 167.202 162.741 167.634 163.761 167.634C165.045 167.634 165.741 167.034 165.741 165.702V164.982C165.333 165.678 164.673 166.11 163.641 166.11C161.949 166.11 160.701 164.97 160.701 162.978C160.701 161.106 161.949 159.846 163.641 159.846C164.673 159.846 165.357 160.29 165.741 160.974ZM163.737 165.234C164.937 165.234 165.753 164.31 165.753 163.002C165.753 161.658 164.937 160.722 163.737 160.722C162.525 160.722 161.709 161.646 161.709 162.978C161.709 164.31 162.525 165.234 163.737 165.234ZM171.662 164.442V160.818H170.558V159.918H171.662V158.202H172.646V159.918H174.23V160.818H172.646V164.43C172.646 164.946 172.826 165.138 173.354 165.138H174.326V166.038H173.258C172.082 166.038 171.662 165.522 171.662 164.442ZM178.179 159.846C179.547 159.846 180.663 160.602 180.663 162.63V166.038H179.679V162.69C179.679 161.418 179.067 160.746 178.011 160.746C176.871 160.746 176.163 161.598 176.163 162.978V166.038H175.179V157.638H176.163V160.926C176.523 160.35 177.147 159.846 178.179 159.846ZM184.667 166.11C182.831 166.11 181.631 164.85 181.631 162.978C181.631 161.118 182.807 159.846 184.535 159.846C186.263 159.846 187.391 160.938 187.439 162.75C187.439 162.882 187.427 163.026 187.415 163.17H182.663V163.254C182.699 164.418 183.431 165.234 184.595 165.234C185.459 165.234 186.131 164.778 186.335 163.986H187.331C187.091 165.21 186.083 166.11 184.667 166.11ZM182.723 162.354H186.383C186.287 161.298 185.567 160.71 184.547 160.71C183.647 160.71 182.819 161.358 182.723 162.354ZM194.786 159.846C196.478 159.846 197.726 160.986 197.726 162.978C197.726 164.85 196.478 166.11 194.786 166.11C193.754 166.11 193.058 165.69 192.686 165.102L192.554 166.038H191.702V157.638H192.686V160.902C193.094 160.338 193.754 159.846 194.786 159.846ZM194.69 165.234C195.902 165.234 196.718 164.31 196.718 162.978C196.718 161.646 195.902 160.722 194.69 160.722C193.49 160.722 192.674 161.646 192.674 162.954C192.674 164.298 193.49 165.234 194.69 165.234ZM201.683 159.918H201.959V160.878H201.467C200.183 160.878 199.835 161.946 199.835 162.918V166.038H198.851V159.918H199.703L199.835 160.842C200.123 160.374 200.591 159.918 201.683 159.918ZM208.013 165.138H208.325V166.038H207.785C206.969 166.038 206.693 165.69 206.681 165.09C206.297 165.642 205.685 166.11 204.629 166.11C203.285 166.11 202.373 165.438 202.373 164.322C202.373 163.098 203.225 162.414 204.833 162.414H206.633V161.994C206.633 161.202 206.069 160.722 205.109 160.722C204.245 160.722 203.669 161.13 203.549 161.754H202.565C202.709 160.554 203.681 159.846 205.157 159.846C206.717 159.846 207.617 160.626 207.617 162.054V164.73C207.617 165.054 207.737 165.138 208.013 165.138ZM206.633 163.542V163.242H204.737C203.861 163.242 203.369 163.566 203.369 164.262C203.369 164.862 203.885 165.27 204.701 165.27C205.925 165.27 206.633 164.562 206.633 163.542ZM212.081 159.846C213.461 159.846 214.553 160.602 214.553 162.63V166.038H213.569V162.69C213.569 161.418 212.981 160.746 211.913 160.746C210.761 160.746 210.065 161.598 210.065 162.978V166.038H209.081V159.918H209.933L210.065 160.746C210.425 160.278 211.049 159.846 212.081 159.846ZM220.562 160.854V157.638H221.546V166.038H220.694L220.562 165.054C220.154 165.618 219.494 166.11 218.462 166.11C216.77 166.11 215.522 164.97 215.522 162.978C215.522 161.106 216.77 159.846 218.462 159.846C219.494 159.846 220.19 160.266 220.562 160.854ZM218.558 165.234C219.758 165.234 220.574 164.31 220.574 163.002C220.574 161.658 219.758 160.722 218.558 160.722C217.346 160.722 216.53 161.646 216.53 162.978C216.53 164.31 217.346 165.234 218.558 165.234ZM229.111 159.846C230.803 159.846 232.051 160.986 232.051 162.978C232.051 164.85 230.803 166.11 229.111 166.11C228.079 166.11 227.383 165.69 227.011 165.102L226.879 166.038H226.027V157.638H227.011V160.902C227.419 160.338 228.079 159.846 229.111 159.846ZM229.015 165.234C230.227 165.234 231.043 164.31 231.043 162.978C231.043 161.646 230.227 160.722 229.015 160.722C227.815 160.722 226.999 161.646 226.999 162.954C226.999 164.298 227.815 165.234 229.015 165.234ZM235.995 166.11C234.207 166.11 232.959 164.838 232.959 162.978C232.959 161.118 234.207 159.846 235.995 159.846C237.783 159.846 239.031 161.118 239.031 162.978C239.031 164.838 237.783 166.11 235.995 166.11ZM235.995 165.234C237.207 165.234 238.023 164.286 238.023 162.978C238.023 161.67 237.207 160.722 235.995 160.722C234.783 160.722 233.967 161.67 233.967 162.978C233.967 164.286 234.783 165.234 235.995 165.234ZM242.979 166.11C241.191 166.11 239.943 164.838 239.943 162.978C239.943 161.118 241.191 159.846 242.979 159.846C244.767 159.846 246.015 161.118 246.015 162.978C246.015 164.838 244.767 166.11 242.979 166.11ZM242.979 165.234C244.191 165.234 245.007 164.286 245.007 162.978C245.007 161.67 244.191 160.722 242.979 160.722C241.767 160.722 240.951 161.67 240.951 162.978C240.951 164.286 241.767 165.234 242.979 165.234ZM247.144 166.038V157.638H248.128V163.17L251.2 159.918H252.412L250.024 162.45L252.58 166.038H251.392L249.364 163.158L248.128 164.43V166.038H247.144Z" fill="black"/>
<rect x="59.7437" y="150.085" width="21.019" height="21.019" rx="1.75" stroke="black" stroke-width="0.5"/>
<rect x="14.4241" y="73.1202" width="419.253" height="57.2278" rx="5.5" fill="white" stroke="black"/>
<path d="M95.7522 106.544V98.1444H100.972V99.1044H96.7962V101.912H100.252V102.872H96.7962V106.544H95.7522ZM102.452 99.3924C102.092 99.3924 101.816 99.1284 101.816 98.7564C101.816 98.3844 102.092 98.1204 102.452 98.1204C102.812 98.1204 103.088 98.3844 103.088 98.7564C103.088 99.1284 102.812 99.3924 102.452 99.3924ZM101.948 106.544V100.424H102.932V106.544H101.948ZM107.28 100.352C108.66 100.352 109.752 101.108 109.752 103.136V106.544H108.768V103.196C108.768 101.924 108.18 101.252 107.112 101.252C105.96 101.252 105.264 102.104 105.264 103.484V106.544H104.28V100.424H105.132L105.264 101.252C105.624 100.784 106.248 100.352 107.28 100.352ZM111.511 99.3924C111.151 99.3924 110.875 99.1284 110.875 98.7564C110.875 98.3844 111.151 98.1204 111.511 98.1204C111.871 98.1204 112.147 98.3844 112.147 98.7564C112.147 99.1284 111.871 99.3924 111.511 99.3924ZM111.007 106.544V100.424H111.991V106.544H111.007ZM113.087 104.528H114.095C114.131 105.248 114.767 105.776 115.787 105.776C116.651 105.776 117.263 105.404 117.263 104.84C117.263 104.072 116.591 104.012 115.679 103.904C114.311 103.736 113.219 103.46 113.219 102.188C113.219 101.072 114.239 100.34 115.619 100.352C117.011 100.364 118.019 101.012 118.115 102.284H117.107C117.035 101.66 116.459 101.192 115.619 101.192C114.767 101.192 114.191 101.552 114.191 102.116C114.191 102.788 114.839 102.872 115.727 102.98C117.119 103.148 118.235 103.412 118.235 104.768C118.235 105.908 117.143 106.616 115.787 106.616C114.203 106.616 113.111 105.872 113.087 104.528ZM122.327 100.352C123.695 100.352 124.811 101.108 124.811 103.136V106.544H123.827V103.196C123.827 101.924 123.215 101.252 122.159 101.252C121.019 101.252 120.311 102.104 120.311 103.484V106.544H119.327V98.1444H120.311V101.432C120.671 100.856 121.295 100.352 122.327 100.352ZM129.662 104.948V101.324H128.558V100.424H129.662V98.7084H130.646V100.424H132.23V101.324H130.646V104.936C130.646 105.452 130.826 105.644 131.354 105.644H132.326V106.544H131.258C130.082 106.544 129.662 106.028 129.662 104.948ZM136.178 100.352C137.546 100.352 138.662 101.108 138.662 103.136V106.544H137.678V103.196C137.678 101.924 137.066 101.252 136.01 101.252C134.87 101.252 134.162 102.104 134.162 103.484V106.544H133.178V98.1444H134.162V101.432C134.522 100.856 135.146 100.352 136.178 100.352ZM142.666 106.616C140.83 106.616 139.63 105.356 139.63 103.484C139.63 101.624 140.806 100.352 142.534 100.352C144.262 100.352 145.39 101.444 145.438 103.256C145.438 103.388 145.426 103.532 145.414 103.676H140.662V103.76C140.698 104.924 141.43 105.74 142.594 105.74C143.458 105.74 144.13 105.284 144.334 104.492H145.33C145.09 105.716 144.082 106.616 142.666 106.616ZM140.722 102.86H144.382C144.286 101.804 143.566 101.216 142.546 101.216C141.646 101.216 140.818 101.864 140.722 102.86ZM149.702 106.544V98.1444H150.686V106.544H149.702ZM157.446 105.644H157.758V106.544H157.218C156.402 106.544 156.126 106.196 156.114 105.596C155.73 106.148 155.118 106.616 154.062 106.616C152.718 106.616 151.806 105.944 151.806 104.828C151.806 103.604 152.658 102.92 154.266 102.92H156.066V102.5C156.066 101.708 155.502 101.228 154.542 101.228C153.678 101.228 153.102 101.636 152.982 102.26H151.998C152.142 101.06 153.114 100.352 154.59 100.352C156.15 100.352 157.05 101.132 157.05 102.56V105.236C157.05 105.56 157.17 105.644 157.446 105.644ZM156.066 104.048V103.748H154.17C153.294 103.748 152.802 104.072 152.802 104.768C152.802 105.368 153.318 105.776 154.134 105.776C155.358 105.776 156.066 105.068 156.066 104.048ZM161.514 100.352C162.894 100.352 163.986 101.108 163.986 103.136V106.544H163.002V103.196C163.002 101.924 162.414 101.252 161.346 101.252C160.194 101.252 159.498 102.104 159.498 103.484V106.544H158.514V100.424H159.366L159.498 101.252C159.858 100.784 160.482 100.352 161.514 100.352ZM169.995 101.36V98.1444H170.979V106.544H170.127L169.995 105.56C169.587 106.124 168.927 106.616 167.895 106.616C166.203 106.616 164.955 105.476 164.955 103.484C164.955 101.612 166.203 100.352 167.895 100.352C168.927 100.352 169.623 100.772 169.995 101.36ZM167.991 105.74C169.191 105.74 170.007 104.816 170.007 103.508C170.007 102.164 169.191 101.228 167.991 101.228C166.779 101.228 165.963 102.152 165.963 103.484C165.963 104.816 166.779 105.74 167.991 105.74ZM172.823 99.3924C172.463 99.3924 172.187 99.1284 172.187 98.7564C172.187 98.3844 172.463 98.1204 172.823 98.1204C173.183 98.1204 173.459 98.3844 173.459 98.7564C173.459 99.1284 173.183 99.3924 172.823 99.3924ZM172.319 106.544V100.424H173.303V106.544H172.319ZM177.651 100.352C179.031 100.352 180.123 101.108 180.123 103.136V106.544H179.139V103.196C179.139 101.924 178.551 101.252 177.483 101.252C176.331 101.252 175.635 102.104 175.635 103.484V106.544H174.651V100.424H175.503L175.635 101.252C175.995 100.784 176.619 100.352 177.651 100.352ZM186.202 101.48L186.334 100.424H187.186V106.244C187.186 108.008 186.25 109.016 184.15 109.016C182.59 109.016 181.498 108.284 181.342 106.94H182.35C182.518 107.708 183.202 108.14 184.222 108.14C185.506 108.14 186.202 107.54 186.202 106.208V105.488C185.794 106.184 185.134 106.616 184.102 106.616C182.41 106.616 181.162 105.476 181.162 103.484C181.162 101.612 182.41 100.352 184.102 100.352C185.134 100.352 185.818 100.796 186.202 101.48ZM184.198 105.74C185.398 105.74 186.214 104.816 186.214 103.508C186.214 102.164 185.398 101.228 184.198 101.228C182.986 101.228 182.17 102.152 182.17 103.484C182.17 104.816 182.986 105.74 184.198 105.74ZM194.751 100.352C196.443 100.352 197.691 101.492 197.691 103.484C197.691 105.356 196.443 106.616 194.751 106.616C193.719 106.616 193.023 106.196 192.651 105.608V108.944H191.667V100.424H192.519L192.651 101.408C193.059 100.844 193.719 100.352 194.751 100.352ZM194.655 105.74C195.867 105.74 196.683 104.816 196.683 103.484C196.683 102.152 195.867 101.228 194.655 101.228C193.455 101.228 192.639 102.152 192.639 103.46C192.639 104.804 193.455 105.74 194.655 105.74ZM204.227 105.644H204.539V106.544H203.999C203.183 106.544 202.907 106.196 202.895 105.596C202.511 106.148 201.899 106.616 200.843 106.616C199.499 106.616 198.587 105.944 198.587 104.828C198.587 103.604 199.439 102.92 201.047 102.92H202.847V102.5C202.847 101.708 202.283 101.228 201.323 101.228C200.459 101.228 199.883 101.636 199.763 102.26H198.779C198.923 101.06 199.895 100.352 201.371 100.352C202.931 100.352 203.831 101.132 203.831 102.56V105.236C203.831 105.56 203.951 105.644 204.227 105.644ZM202.847 104.048V103.748H200.951C200.075 103.748 199.583 104.072 199.583 104.768C199.583 105.368 200.099 105.776 200.915 105.776C202.139 105.776 202.847 105.068 202.847 104.048ZM210.12 101.48L210.252 100.424H211.104V106.244C211.104 108.008 210.168 109.016 208.068 109.016C206.508 109.016 205.416 108.284 205.26 106.94H206.268C206.436 107.708 207.12 108.14 208.14 108.14C209.424 108.14 210.12 107.54 210.12 106.208V105.488C209.712 106.184 209.052 106.616 208.02 106.616C206.328 106.616 205.08 105.476 205.08 103.484C205.08 101.612 206.328 100.352 208.02 100.352C209.052 100.352 209.736 100.796 210.12 101.48ZM208.116 105.74C209.316 105.74 210.132 104.816 210.132 103.508C210.132 102.164 209.316 101.228 208.116 101.228C206.904 101.228 206.088 102.152 206.088 103.484C206.088 104.816 206.904 105.74 208.116 105.74ZM215.264 106.616C213.428 106.616 212.228 105.356 212.228 103.484C212.228 101.624 213.404 100.352 215.132 100.352C216.86 100.352 217.988 101.444 218.036 103.256C218.036 103.388 218.024 103.532 218.012 103.676H213.26V103.76C213.296 104.924 214.028 105.74 215.192 105.74C216.056 105.74 216.728 105.284 216.932 104.492H217.928C217.688 105.716 216.68 106.616 215.264 106.616ZM213.32 102.86H216.98C216.884 101.804 216.164 101.216 215.144 101.216C214.244 101.216 213.416 101.864 213.32 102.86ZM225.048 106.616C223.26 106.616 222.084 105.404 222.084 103.496C222.084 101.624 223.296 100.352 225.072 100.352C226.572 100.352 227.52 101.192 227.772 102.536H226.74C226.56 101.72 225.96 101.228 225.06 101.228C223.884 101.228 223.092 102.164 223.092 103.496C223.092 104.828 223.884 105.74 225.06 105.74C225.936 105.74 226.536 105.236 226.728 104.456H227.772C227.532 105.776 226.536 106.616 225.048 106.616ZM231.85 100.352C233.218 100.352 234.334 101.108 234.334 103.136V106.544H233.35V103.196C233.35 101.924 232.738 101.252 231.682 101.252C230.542 101.252 229.834 102.104 229.834 103.484V106.544H228.85V98.1444H229.834V101.432C230.194 100.856 230.818 100.352 231.85 100.352ZM241.001 105.644H241.313V106.544H240.773C239.957 106.544 239.681 106.196 239.669 105.596C239.285 106.148 238.673 106.616 237.617 106.616C236.273 106.616 235.361 105.944 235.361 104.828C235.361 103.604 236.213 102.92 237.821 102.92H239.621V102.5C239.621 101.708 239.057 101.228 238.097 101.228C237.233 101.228 236.657 101.636 236.537 102.26H235.553C235.697 101.06 236.669 100.352 238.145 100.352C239.705 100.352 240.605 101.132 240.605 102.56V105.236C240.605 105.56 240.725 105.644 241.001 105.644ZM239.621 104.048V103.748H237.725C236.849 103.748 236.357 104.072 236.357 104.768C236.357 105.368 236.873 105.776 237.689 105.776C238.913 105.776 239.621 105.068 239.621 104.048ZM245.069 100.352C246.449 100.352 247.541 101.108 247.541 103.136V106.544H246.557V103.196C246.557 101.924 245.969 101.252 244.901 101.252C243.749 101.252 243.053 102.104 243.053 103.484V106.544H242.069V100.424H242.921L243.053 101.252C243.413 100.784 244.037 100.352 245.069 100.352ZM253.62 101.48L253.752 100.424H254.604V106.244C254.604 108.008 253.668 109.016 251.568 109.016C250.008 109.016 248.916 108.284 248.76 106.94H249.768C249.936 107.708 250.62 108.14 251.64 108.14C252.924 108.14 253.62 107.54 253.62 106.208V105.488C253.212 106.184 252.552 106.616 251.52 106.616C249.828 106.616 248.58 105.476 248.58 103.484C248.58 101.612 249.828 100.352 251.52 100.352C252.552 100.352 253.236 100.796 253.62 101.48ZM251.616 105.74C252.816 105.74 253.632 104.816 253.632 103.508C253.632 102.164 252.816 101.228 251.616 101.228C250.404 101.228 249.588 102.152 249.588 103.484C249.588 104.816 250.404 105.74 251.616 105.74ZM258.764 106.616C256.928 106.616 255.728 105.356 255.728 103.484C255.728 101.624 256.904 100.352 258.632 100.352C260.36 100.352 261.488 101.444 261.536 103.256C261.536 103.388 261.524 103.532 261.512 103.676H256.76V103.76C256.796 104.924 257.528 105.74 258.692 105.74C259.556 105.74 260.228 105.284 260.432 104.492H261.428C261.188 105.716 260.18 106.616 258.764 106.616ZM256.82 102.86H260.48C260.384 101.804 259.664 101.216 258.644 101.216C257.744 101.216 256.916 101.864 256.82 102.86ZM262.384 104.528H263.392C263.428 105.248 264.064 105.776 265.084 105.776C265.948 105.776 266.56 105.404 266.56 104.84C266.56 104.072 265.888 104.012 264.976 103.904C263.608 103.736 262.516 103.46 262.516 102.188C262.516 101.072 263.536 100.34 264.916 100.352C266.308 100.364 267.316 101.012 267.412 102.284H266.404C266.332 101.66 265.756 101.192 264.916 101.192C264.064 101.192 263.488 101.552 263.488 102.116C263.488 102.788 264.136 102.872 265.024 102.98C266.416 103.148 267.532 103.412 267.532 104.768C267.532 105.908 266.44 106.616 265.084 106.616C263.5 106.616 262.408 105.872 262.384 104.528Z" fill="black"/>
<rect x="59.7432" y="90.5919" width="21.019" height="21.019" rx="1.75" stroke="black" stroke-width="0.5"/>
<path d="M41.7215 105.987C41.7215 106.686 42.2883 107.253 42.9873 107.253C43.6864 107.253 44.2532 106.686 44.2532 105.987C44.2532 105.288 43.6864 104.722 42.9873 104.722C42.2883 104.722 41.7215 105.288 41.7215 105.987Z" stroke="black" stroke-width="2" stroke-linecap="round" stroke-linejoin="round"/>
<path d="M34.1266 105.987C34.1266 106.686 34.6933 107.253 35.3924 107.253C36.0915 107.253 36.6582 106.686 36.6582 105.987C36.6582 105.288 36.0915 104.722 35.3924 104.722C34.6933 104.722 34.1266 105.288 34.1266 105.987Z" stroke="black" stroke-width="2" stroke-linecap="round" stroke-linejoin="round"/>
<path d="M41.7215 98.3924C41.7215 99.0915 42.2883 99.6582 42.9873 99.6582C43.6864 99.6582 44.2532 99.0915 44.2532 98.3924C44.2532 97.6933 43.6864 97.1266 42.9873 97.1266C42.2883 97.1266 41.7215 97.6933 41.7215 98.3924Z" stroke="black" stroke-width="2" stroke-linecap="round" stroke-linejoin="round"/>
<path d="M34.1266 98.3924C34.1266 99.0915 34.6933 99.6582 35.3924 99.6582C36.0915 99.6582 36.6582 99.0915 36.6582 98.3924C36.6582 97.6933 36.0915 97.1266 35.3924 97.1266C34.6933 97.1266 34.1266 97.6933 34.1266 98.3924Z" stroke="black" stroke-width="2" stroke-linecap="round" stroke-linejoin="round"/>
</svg>
