<svg xmlns="http://www.w3.org/2000/svg" width="31" height="30" viewBox="0 0 31 30" fill="none">
  <rect width="31" height="30" rx="4" fill="#0077B5"/>
  <path fill-rule="evenodd" clip-rule="evenodd" d="M12.5369 9.63162C12.5369 10.5386 11.8541 11.2644 10.7579 11.2644H10.7378C9.68235 11.2644 9 10.5386 9 9.63162C9 8.70544 9.70313 8 10.7786 8C11.8541 8 12.5165 8.70544 12.5369 9.63162ZM12.3298 12.5537V21.9997H9.18594V12.5537H12.3298ZM23.6654 21.9998L23.6656 16.5837C23.6656 13.6822 22.1146 12.3319 20.0458 12.3319C18.3766 12.3319 17.6292 13.2487 17.212 13.8919V12.5539H14.0677C14.1091 13.4403 14.0677 22 14.0677 22H17.212V16.7245C17.212 16.4422 17.2324 16.1606 17.3155 15.9585C17.5427 15.3945 18.0601 14.8105 18.9286 14.8105C20.0667 14.8105 20.5217 15.6767 20.5217 16.9461V21.9998H23.6654Z" fill="white"/>
</svg>