<svg width="370" height="197" viewBox="0 0 370 197" fill="none" xmlns="http://www.w3.org/2000/svg">
<path d="M0.25 53.25H369.75V189C369.75 193.28 366.28 196.75 362 196.75H0.25V53.25Z" fill="white" stroke="black" stroke-width="0.5"/>
<rect x="10.5" y="102.5" width="344" height="45" rx="5.5" fill="#C6FF00" stroke="black"/>
<path d="M0.25 7C0.25 3.27208 3.27208 0.25 7 0.25H369.75V54.75H0.25V7Z" fill="#F5F5F5" stroke="black" stroke-width="0.5"/>
<path d="M26.344 24.214H28.752L24.636 30.752V34H22.508V30.794L18.378 24.214H20.772L23.446 28.68H23.67L26.344 24.214ZM34.0348 27.308H34.1328V26.146H36.2608V34H34.1328V32.908H34.0628C33.5308 33.594 32.6348 34 31.1508 34C27.8608 34 27.4968 31.13 27.4968 30.08C27.4968 28.932 27.8468 26.146 31.1648 26.146C32.6208 26.146 33.5028 26.608 34.0348 27.308ZM31.7808 32.18C33.6148 32.18 33.9928 31.27 33.9928 30.08C33.9928 29.016 33.6148 27.98 31.7808 27.98C29.7368 27.98 29.5268 29.464 29.5268 30.08C29.5268 30.64 29.7508 32.18 31.7808 32.18ZM40.884 29.24C42.662 29.506 44.678 29.814 44.678 31.676C44.678 33.622 43.278 34 40.87 34C39.092 34 37.874 33.678 37.244 33.048C36.698 32.502 36.698 31.844 36.712 31.438V31.284H38.896V31.354C38.896 32.026 39.4 32.334 40.814 32.334C41.668 32.334 42.48 32.222 42.48 31.704C42.48 31.116 41.724 31.004 40.87 30.906C40.758 30.892 40.646 30.878 40.534 30.864C38.28 30.57 36.88 30.066 36.88 28.498C36.88 27.406 37.51 26.104 40.534 26.104C43.782 26.104 44.468 27.546 44.468 28.75V28.82H42.298V28.75C42.298 28.134 41.766 27.798 40.534 27.798C39.344 27.798 39.092 28.232 39.092 28.47C39.092 28.82 39.33 29.016 40.702 29.226L40.884 29.24ZM49.1555 29.24C50.9335 29.506 52.9495 29.814 52.9495 31.676C52.9495 33.622 51.5495 34 49.1415 34C47.3635 34 46.1455 33.678 45.5155 33.048C44.9695 32.502 44.9695 31.844 44.9835 31.438V31.284H47.1675V31.354C47.1675 32.026 47.6715 32.334 49.0855 32.334C49.9395 32.334 50.7515 32.222 50.7515 31.704C50.7515 31.116 49.9955 31.004 49.1415 30.906C49.0295 30.892 48.9175 30.878 48.8055 30.864C46.5515 30.57 45.1515 30.066 45.1515 28.498C45.1515 27.406 45.7815 26.104 48.8055 26.104C52.0535 26.104 52.7395 27.546 52.7395 28.75V28.82H50.5695V28.75C50.5695 28.134 50.0375 27.798 48.8055 27.798C47.6155 27.798 47.3635 28.232 47.3635 28.47C47.3635 28.82 47.6015 29.016 48.9735 29.226L49.1555 29.24ZM55.6834 34H53.5694V26.202H55.6834V34ZM55.6834 25.642H53.5694V23.738H55.6834V25.642ZM61.2985 26.146C64.6165 26.146 64.7005 28.932 64.7005 30.08V34H62.5865V30.08C62.5865 29.464 62.7125 27.98 60.6825 27.98C58.8345 27.98 58.5685 29.156 58.5685 30.22V34H56.4405V26.146H58.5685V27.308H58.6665C59.1705 26.608 59.8845 26.146 61.2985 26.146ZM73.5478 30.57H67.2758C67.4298 31.62 68.0598 32.138 69.4318 32.138C70.7058 32.138 71.3358 31.788 71.5318 31.27H73.5898C73.3798 32.964 72.0078 34 69.4318 34C66.7438 34 65.2178 32.656 65.2178 30.038C65.2178 27.476 66.7858 26.076 69.4318 26.076C70.5378 26.076 71.4338 26.356 72.0918 26.818V26.804C73.6038 27.84 73.7438 29.492 73.6318 30.57H73.5478ZM69.4318 27.938C68.2558 27.938 67.6118 28.372 67.3598 29.17H71.5038C71.3358 28.582 70.9438 27.938 69.4318 27.938ZM82.1498 27.966V30.752V30.92C82.1498 32.054 82.6538 31.9 84.6978 31.788V33.86C84.6978 33.86 84.2778 34 82.1498 34C80.0078 34 80.0078 32.25 80.0078 31.116V27.966H78.9718V26.174H80.0078V23.906H82.1498V26.174H84.6978V27.966H82.1498ZM91.3747 27.308H91.4727V26.146H93.6007V34H91.4727V32.908H91.4027C90.8707 33.594 89.9747 34 88.4907 34C85.2007 34 84.8367 31.13 84.8367 30.08C84.8367 28.932 85.1867 26.146 88.5047 26.146C89.9607 26.146 90.8427 26.608 91.3747 27.308ZM89.1207 32.18C90.9547 32.18 91.3327 31.27 91.3327 30.08C91.3327 29.016 90.9547 27.98 89.1207 27.98C87.0767 27.98 86.8667 29.464 86.8667 30.08C86.8667 30.64 87.0907 32.18 89.1207 32.18ZM96.494 34H94.38V26.202H96.494V34ZM96.494 25.642H94.38V23.738H96.494V25.642ZM99.4334 34H97.3194V23.934H99.4334V34ZM106.578 27.308H106.676V26.146H108.804V34H106.676V32.908H106.606C106.074 33.594 105.178 34 103.694 34C100.404 34 100.04 31.13 100.04 30.08C100.04 28.932 100.39 26.146 103.708 26.146C105.164 26.146 106.046 26.608 106.578 27.308ZM104.324 32.18C106.158 32.18 106.536 31.27 106.536 30.08C106.536 29.016 106.158 27.98 104.324 27.98C102.28 27.98 102.07 29.464 102.07 30.08C102.07 30.64 102.294 32.18 104.324 32.18ZM114.441 26.146C117.759 26.146 117.843 28.932 117.843 30.08V34H115.729V30.08C115.729 29.464 115.855 27.98 113.825 27.98C111.977 27.98 111.711 29.156 111.711 30.22V34H109.583V26.146H111.711V27.308H111.809C112.313 26.608 113.027 26.146 114.441 26.146ZM125.065 23.892H127.193V34H125.065V32.908H124.967C124.435 33.594 123.539 34 122.055 34C118.765 34 118.401 31.13 118.401 30.08C118.401 28.932 118.751 26.146 122.069 26.146C123.525 26.146 124.407 26.608 124.939 27.308H125.065V23.892ZM122.685 32.18C124.519 32.18 124.897 31.27 124.897 30.08C124.897 29.016 124.519 27.98 122.685 27.98C120.641 27.98 120.431 29.464 120.431 30.08C120.431 30.64 120.655 32.18 122.685 32.18ZM130.072 34H127.958V26.202H130.072V34ZM130.072 25.642H127.958V23.738H130.072V25.642Z" fill="black"/>
<mask id="mask0_137_982" style="mask-type:alpha" maskUnits="userSpaceOnUse" x="213" y="5" width="157" height="43">
<rect x="213" y="5" width="157" height="43" fill="#D9D9D9"/>
</mask>
<g mask="url(#mask0_137_982)">
<g filter="url(#filter0_d_137_982)">
<rect x="228" y="14" width="152" height="30" rx="6" fill="black"/>
<rect x="228.5" y="14.5" width="151" height="29" rx="5.5" stroke="black"/>
</g>
<g filter="url(#filter1_d_137_982)">
<rect x="225" y="12" width="152" height="30" rx="6" fill="#2468FF"/>
<rect x="225.5" y="12.5" width="151" height="29" rx="5.5" stroke="black"/>
</g>
<path d="M286 29.03V24H287.52V31H285.33L282.26 25.98H282.09V31H280.57V24H282.62V24.01H282.76L285.82 29.03H286ZM288.167 24H293.917V25.38H289.687V26.82H293.917V28.19H289.687V29.61H293.917V31H289.687H288.167V24ZM302.198 29.61L303.488 24H305.158L303.518 31H300.938L299.848 26.38H299.718L298.638 31H296.008L294.378 24H296.048L297.338 29.61H297.508L298.838 24H300.738L302.068 29.61H302.198ZM308.968 25.39V24H315.778V25.39H313.128V31H311.608V25.39H308.968ZM319.36 24.01L321.86 31H320.28L319.87 29.85H316.3L315.88 31H314.31L316.81 24.01H319.36ZM316.79 28.46H319.37L318.28 25.39H317.89L316.79 28.46ZM325.022 26.76C326.592 27.02 328.382 27.25 328.382 28.83C328.382 30.57 327.222 31 325.172 31C321.722 31 321.732 29.09 321.732 28.42C322.042 28.42 322.432 28.42 323.292 28.42C323.292 29.47 324.222 29.64 325.132 29.64C326.282 29.64 326.762 29.37 326.762 28.83C326.762 28.36 326.282 28.27 324.912 28.07C322.812 27.76 321.872 27.33 321.872 26.05C321.872 25.06 322.602 23.92 324.892 23.92C327.612 23.92 328.152 25.44 328.152 26.5C328.152 26.5 327.092 26.5 326.552 26.5C326.552 26.02 326.342 25.3 324.892 25.3C323.712 25.3 323.442 25.72 323.442 26.06C323.442 26.43 323.852 26.57 325.022 26.76ZM335.419 24.01L332.579 27.15L335.419 31H333.519L331.509 28.32L330.449 29.5V31H328.929V24H330.449V27.22L333.379 24.01H335.419Z" fill="white"/>
</g>
<path d="M60.816 129V120.6H66.036V121.56H61.86V124.368H65.316V125.328H61.86V129H60.816ZM67.5158 121.848C67.1558 121.848 66.8798 121.584 66.8798 121.212C66.8798 120.84 67.1558 120.576 67.5158 120.576C67.8758 120.576 68.1518 120.84 68.1518 121.212C68.1518 121.584 67.8758 121.848 67.5158 121.848ZM67.0118 129V122.88H67.9958V129H67.0118ZM72.3439 122.808C73.7239 122.808 74.8159 123.564 74.8159 125.592V129H73.8319V125.652C73.8319 124.38 73.2439 123.708 72.1759 123.708C71.0239 123.708 70.3279 124.56 70.3279 125.94V129H69.3439V122.88H70.1959L70.3279 123.708C70.6879 123.24 71.3119 122.808 72.3439 122.808ZM76.5744 121.848C76.2144 121.848 75.9384 121.584 75.9384 121.212C75.9384 120.84 76.2144 120.576 76.5744 120.576C76.9344 120.576 77.2104 120.84 77.2104 121.212C77.2104 121.584 76.9344 121.848 76.5744 121.848ZM76.0704 129V122.88H77.0544V129H76.0704ZM78.1505 126.984H79.1585C79.1945 127.704 79.8305 128.232 80.8505 128.232C81.7145 128.232 82.3265 127.86 82.3265 127.296C82.3265 126.528 81.6545 126.468 80.7425 126.36C79.3745 126.192 78.2825 125.916 78.2825 124.644C78.2825 123.528 79.3025 122.796 80.6825 122.808C82.0745 122.82 83.0825 123.468 83.1785 124.74H82.1705C82.0985 124.116 81.5225 123.648 80.6825 123.648C79.8305 123.648 79.2545 124.008 79.2545 124.572C79.2545 125.244 79.9025 125.328 80.7905 125.436C82.1825 125.604 83.2985 125.868 83.2985 127.224C83.2985 128.364 82.2065 129.072 80.8505 129.072C79.2665 129.072 78.1745 128.328 78.1505 126.984ZM87.3908 122.808C88.7588 122.808 89.8748 123.564 89.8748 125.592V129H88.8908V125.652C88.8908 124.38 88.2788 123.708 87.2228 123.708C86.0828 123.708 85.3748 124.56 85.3748 125.94V129H84.3908V120.6H85.3748V123.888C85.7348 123.312 86.3588 122.808 87.3908 122.808ZM94.7257 127.404V123.78H93.6217V122.88H94.7257V121.164H95.7097V122.88H97.2937V123.78H95.7097V127.392C95.7097 127.908 95.8897 128.1 96.4177 128.1H97.3897V129H96.3217C95.1457 129 94.7257 128.484 94.7257 127.404ZM101.242 122.808C102.61 122.808 103.726 123.564 103.726 125.592V129H102.742V125.652C102.742 124.38 102.13 123.708 101.074 123.708C99.9343 123.708 99.2263 124.56 99.2263 125.94V129H98.2423V120.6H99.2263V123.888C99.5863 123.312 100.21 122.808 101.242 122.808ZM107.73 129.072C105.894 129.072 104.694 127.812 104.694 125.94C104.694 124.08 105.87 122.808 107.598 122.808C109.326 122.808 110.454 123.9 110.502 125.712C110.502 125.844 110.49 125.988 110.478 126.132H105.726V126.216C105.762 127.38 106.494 128.196 107.658 128.196C108.522 128.196 109.194 127.74 109.398 126.948H110.394C110.154 128.172 109.146 129.072 107.73 129.072ZM105.786 125.316H109.446C109.35 124.26 108.63 123.672 107.61 123.672C106.71 123.672 105.882 124.32 105.786 125.316ZM114.766 129V120.6H115.75V129H114.766ZM122.51 128.1H122.822V129H122.282C121.466 129 121.19 128.652 121.178 128.052C120.794 128.604 120.182 129.072 119.126 129.072C117.782 129.072 116.87 128.4 116.87 127.284C116.87 126.06 117.722 125.376 119.33 125.376H121.13V124.956C121.13 124.164 120.566 123.684 119.606 123.684C118.742 123.684 118.166 124.092 118.046 124.716H117.062C117.206 123.516 118.178 122.808 119.654 122.808C121.214 122.808 122.114 123.588 122.114 125.016V127.692C122.114 128.016 122.234 128.1 122.51 128.1ZM121.13 126.504V126.204H119.234C118.358 126.204 117.866 126.528 117.866 127.224C117.866 127.824 118.382 128.232 119.198 128.232C120.422 128.232 121.13 127.524 121.13 126.504ZM126.578 122.808C127.958 122.808 129.05 123.564 129.05 125.592V129H128.066V125.652C128.066 124.38 127.478 123.708 126.41 123.708C125.258 123.708 124.562 124.56 124.562 125.94V129H123.578V122.88H124.43L124.562 123.708C124.922 123.24 125.546 122.808 126.578 122.808ZM135.059 123.816V120.6H136.043V129H135.191L135.059 128.016C134.651 128.58 133.991 129.072 132.959 129.072C131.267 129.072 130.019 127.932 130.019 125.94C130.019 124.068 131.267 122.808 132.959 122.808C133.991 122.808 134.687 123.228 135.059 123.816ZM133.055 128.196C134.255 128.196 135.071 127.272 135.071 125.964C135.071 124.62 134.255 123.684 133.055 123.684C131.843 123.684 131.027 124.608 131.027 125.94C131.027 127.272 131.843 128.196 133.055 128.196ZM137.887 121.848C137.527 121.848 137.251 121.584 137.251 121.212C137.251 120.84 137.527 120.576 137.887 120.576C138.247 120.576 138.523 120.84 138.523 121.212C138.523 121.584 138.247 121.848 137.887 121.848ZM137.383 129V122.88H138.367V129H137.383ZM142.715 122.808C144.095 122.808 145.187 123.564 145.187 125.592V129H144.203V125.652C144.203 124.38 143.615 123.708 142.547 123.708C141.395 123.708 140.699 124.56 140.699 125.94V129H139.715V122.88H140.567L140.699 123.708C141.059 123.24 141.683 122.808 142.715 122.808ZM151.266 123.936L151.398 122.88H152.25V128.7C152.25 130.464 151.314 131.472 149.214 131.472C147.654 131.472 146.562 130.74 146.406 129.396H147.414C147.582 130.164 148.266 130.596 149.286 130.596C150.57 130.596 151.266 129.996 151.266 128.664V127.944C150.858 128.64 150.198 129.072 149.166 129.072C147.474 129.072 146.226 127.932 146.226 125.94C146.226 124.068 147.474 122.808 149.166 122.808C150.198 122.808 150.882 123.252 151.266 123.936ZM149.262 128.196C150.462 128.196 151.278 127.272 151.278 125.964C151.278 124.62 150.462 123.684 149.262 123.684C148.05 123.684 147.234 124.608 147.234 125.94C147.234 127.272 148.05 128.196 149.262 128.196ZM159.815 122.808C161.507 122.808 162.755 123.948 162.755 125.94C162.755 127.812 161.507 129.072 159.815 129.072C158.783 129.072 158.087 128.652 157.715 128.064V131.4H156.731V122.88H157.583L157.715 123.864C158.123 123.3 158.783 122.808 159.815 122.808ZM159.719 128.196C160.931 128.196 161.747 127.272 161.747 125.94C161.747 124.608 160.931 123.684 159.719 123.684C158.519 123.684 157.703 124.608 157.703 125.916C157.703 127.26 158.519 128.196 159.719 128.196ZM169.291 128.1H169.603V129H169.063C168.247 129 167.971 128.652 167.959 128.052C167.575 128.604 166.963 129.072 165.907 129.072C164.563 129.072 163.651 128.4 163.651 127.284C163.651 126.06 164.503 125.376 166.111 125.376H167.911V124.956C167.911 124.164 167.347 123.684 166.387 123.684C165.523 123.684 164.947 124.092 164.827 124.716H163.843C163.987 123.516 164.959 122.808 166.435 122.808C167.995 122.808 168.895 123.588 168.895 125.016V127.692C168.895 128.016 169.015 128.1 169.291 128.1ZM167.911 126.504V126.204H166.015C165.139 126.204 164.647 126.528 164.647 127.224C164.647 127.824 165.163 128.232 165.979 128.232C167.203 128.232 167.911 127.524 167.911 126.504ZM175.184 123.936L175.316 122.88H176.168V128.7C176.168 130.464 175.232 131.472 173.132 131.472C171.572 131.472 170.479 130.74 170.324 129.396H171.332C171.5 130.164 172.184 130.596 173.204 130.596C174.488 130.596 175.184 129.996 175.184 128.664V127.944C174.776 128.64 174.116 129.072 173.084 129.072C171.392 129.072 170.144 127.932 170.144 125.94C170.144 124.068 171.392 122.808 173.084 122.808C174.116 122.808 174.8 123.252 175.184 123.936ZM173.18 128.196C174.38 128.196 175.196 127.272 175.196 125.964C175.196 124.62 174.38 123.684 173.18 123.684C171.968 123.684 171.152 124.608 171.152 125.94C171.152 127.272 171.968 128.196 173.18 128.196ZM180.328 129.072C178.492 129.072 177.292 127.812 177.292 125.94C177.292 124.08 178.468 122.808 180.196 122.808C181.924 122.808 183.052 123.9 183.1 125.712C183.1 125.844 183.088 125.988 183.076 126.132H178.324V126.216C178.36 127.38 179.092 128.196 180.256 128.196C181.12 128.196 181.792 127.74 181.996 126.948H182.992C182.752 128.172 181.744 129.072 180.328 129.072ZM178.384 125.316H182.044C181.948 124.26 181.228 123.672 180.208 123.672C179.308 123.672 178.48 124.32 178.384 125.316ZM190.111 129.072C188.323 129.072 187.147 127.86 187.147 125.952C187.147 124.08 188.359 122.808 190.135 122.808C191.635 122.808 192.583 123.648 192.835 124.992H191.803C191.623 124.176 191.023 123.684 190.123 123.684C188.947 123.684 188.155 124.62 188.155 125.952C188.155 127.284 188.947 128.196 190.123 128.196C190.999 128.196 191.599 127.692 191.791 126.912H192.835C192.595 128.232 191.599 129.072 190.111 129.072ZM196.914 122.808C198.282 122.808 199.398 123.564 199.398 125.592V129H198.414V125.652C198.414 124.38 197.802 123.708 196.746 123.708C195.606 123.708 194.898 124.56 194.898 125.94V129H193.914V120.6H194.898V123.888C195.258 123.312 195.882 122.808 196.914 122.808ZM206.064 128.1H206.376V129H205.836C205.02 129 204.744 128.652 204.732 128.052C204.348 128.604 203.736 129.072 202.68 129.072C201.336 129.072 200.424 128.4 200.424 127.284C200.424 126.06 201.276 125.376 202.884 125.376H204.684V124.956C204.684 124.164 204.12 123.684 203.16 123.684C202.296 123.684 201.72 124.092 201.6 124.716H200.616C200.76 123.516 201.732 122.808 203.208 122.808C204.768 122.808 205.668 123.588 205.668 125.016V127.692C205.668 128.016 205.788 128.1 206.064 128.1ZM204.684 126.504V126.204H202.788C201.912 126.204 201.42 126.528 201.42 127.224C201.42 127.824 201.936 128.232 202.752 128.232C203.976 128.232 204.684 127.524 204.684 126.504ZM210.133 122.808C211.513 122.808 212.605 123.564 212.605 125.592V129H211.621V125.652C211.621 124.38 211.033 123.708 209.965 123.708C208.813 123.708 208.117 124.56 208.117 125.94V129H207.133V122.88H207.985L208.117 123.708C208.477 123.24 209.101 122.808 210.133 122.808ZM218.684 123.936L218.816 122.88H219.668V128.7C219.668 130.464 218.732 131.472 216.632 131.472C215.072 131.472 213.979 130.74 213.824 129.396H214.832C215 130.164 215.684 130.596 216.704 130.596C217.988 130.596 218.684 129.996 218.684 128.664V127.944C218.276 128.64 217.616 129.072 216.584 129.072C214.892 129.072 213.644 127.932 213.644 125.94C213.644 124.068 214.892 122.808 216.584 122.808C217.616 122.808 218.3 123.252 218.684 123.936ZM216.68 128.196C217.88 128.196 218.696 127.272 218.696 125.964C218.696 124.62 217.88 123.684 216.68 123.684C215.468 123.684 214.652 124.608 214.652 125.94C214.652 127.272 215.468 128.196 216.68 128.196ZM223.828 129.072C221.992 129.072 220.792 127.812 220.792 125.94C220.792 124.08 221.968 122.808 223.696 122.808C225.424 122.808 226.552 123.9 226.6 125.712C226.6 125.844 226.588 125.988 226.576 126.132H221.824V126.216C221.86 127.38 222.592 128.196 223.756 128.196C224.62 128.196 225.292 127.74 225.496 126.948H226.492C226.252 128.172 225.244 129.072 223.828 129.072ZM221.884 125.316H225.544C225.448 124.26 224.728 123.672 223.708 123.672C222.808 123.672 221.98 124.32 221.884 125.316ZM227.447 126.984H228.455C228.491 127.704 229.127 128.232 230.147 128.232C231.011 128.232 231.623 127.86 231.623 127.296C231.623 126.528 230.951 126.468 230.039 126.36C228.671 126.192 227.579 125.916 227.579 124.644C227.579 123.528 228.599 122.796 229.979 122.808C231.371 122.82 232.379 123.468 232.475 124.74H231.467C231.395 124.116 230.819 123.648 229.979 123.648C229.127 123.648 228.551 124.008 228.551 124.572C228.551 125.244 229.199 125.328 230.087 125.436C231.479 125.604 232.595 125.868 232.595 127.224C232.595 128.364 231.503 129.072 230.147 129.072C228.563 129.072 227.471 128.328 227.447 126.984Z" fill="black"/>
<rect x="32" y="116" width="17" height="17" rx="2" fill="#3FE8BE"/>
<path d="M60.48 166.252H61.56C61.644 167.38 62.52 168.124 63.804 168.124C64.932 168.124 65.736 167.608 65.736 166.696C65.736 165.652 64.704 165.436 63.432 165.22C62.076 164.992 60.684 164.548 60.684 162.916C60.684 161.488 61.848 160.528 63.552 160.528C65.424 160.528 66.576 161.572 66.672 163.084H65.592C65.472 162.112 64.692 161.476 63.552 161.476C62.46 161.476 61.728 161.956 61.728 162.856C61.728 163.864 62.748 164.068 64.008 164.284C65.376 164.512 66.78 164.968 66.78 166.6C66.78 168.052 65.556 169.072 63.792 169.072C61.74 169.072 60.54 167.908 60.48 166.252ZM68.4171 167.404V163.78H67.3131V162.88H68.4171V161.164H69.4011V162.88H70.9851V163.78H69.4011V167.392C69.4011 167.908 69.5811 168.1 70.1091 168.1H71.0811V169H70.0131C68.8371 169 68.4171 168.484 68.4171 167.404ZM77.252 168.1H77.564V169H77.024C76.208 169 75.932 168.652 75.92 168.052C75.536 168.604 74.924 169.072 73.868 169.072C72.524 169.072 71.612 168.4 71.612 167.284C71.612 166.06 72.464 165.376 74.072 165.376H75.872V164.956C75.872 164.164 75.308 163.684 74.348 163.684C73.484 163.684 72.908 164.092 72.788 164.716H71.804C71.948 163.516 72.92 162.808 74.396 162.808C75.956 162.808 76.856 163.588 76.856 165.016V167.692C76.856 168.016 76.976 168.1 77.252 168.1ZM75.872 166.504V166.204H73.976C73.1 166.204 72.608 166.528 72.608 167.224C72.608 167.824 73.124 168.232 73.94 168.232C75.164 168.232 75.872 167.524 75.872 166.504ZM81.1524 162.88H81.4284V163.84H80.9364C79.6524 163.84 79.3044 164.908 79.3044 165.88V169H78.3204V162.88H79.1724L79.3044 163.804C79.5924 163.336 80.0604 162.88 81.1524 162.88ZM82.9366 167.404V163.78H81.8326V162.88H82.9366V161.164H83.9206V162.88H85.5046V163.78H83.9206V167.392C83.9206 167.908 84.1006 168.1 84.6286 168.1H85.6006V169H84.5326C83.3566 169 82.9366 168.484 82.9366 167.404ZM92.3419 169.072C90.5539 169.072 89.3779 167.86 89.3779 165.952C89.3779 164.08 90.5899 162.808 92.3659 162.808C93.8659 162.808 94.8139 163.648 95.0659 164.992H94.0339C93.8539 164.176 93.2539 163.684 92.3539 163.684C91.1779 163.684 90.3859 164.62 90.3859 165.952C90.3859 167.284 91.1779 168.196 92.3539 168.196C93.2299 168.196 93.8299 167.692 94.0219 166.912H95.0659C94.8259 168.232 93.8299 169.072 92.3419 169.072ZM98.9767 162.88H99.2527V163.84H98.7607C97.4767 163.84 97.1287 164.908 97.1287 165.88V169H96.1447V162.88H96.9967L97.1287 163.804C97.4167 163.336 97.8847 162.88 98.9767 162.88ZM102.574 169.072C100.738 169.072 99.538 167.812 99.538 165.94C99.538 164.08 100.714 162.808 102.442 162.808C104.17 162.808 105.298 163.9 105.346 165.712C105.346 165.844 105.334 165.988 105.322 166.132H100.57V166.216C100.606 167.38 101.338 168.196 102.502 168.196C103.366 168.196 104.038 167.74 104.242 166.948H105.238C104.998 168.172 103.99 169.072 102.574 169.072ZM100.63 165.316H104.29C104.194 164.26 103.474 163.672 102.454 163.672C101.554 163.672 100.726 164.32 100.63 165.316ZM111.881 168.1H112.193V169H111.653C110.837 169 110.561 168.652 110.549 168.052C110.165 168.604 109.553 169.072 108.497 169.072C107.153 169.072 106.241 168.4 106.241 167.284C106.241 166.06 107.093 165.376 108.701 165.376H110.501V164.956C110.501 164.164 109.937 163.684 108.977 163.684C108.113 163.684 107.537 164.092 107.417 164.716H106.433C106.577 163.516 107.549 162.808 109.025 162.808C110.585 162.808 111.485 163.588 111.485 165.016V167.692C111.485 168.016 111.605 168.1 111.881 168.1ZM110.501 166.504V166.204H108.605C107.729 166.204 107.237 166.528 107.237 167.224C107.237 167.824 107.753 168.232 108.569 168.232C109.793 168.232 110.501 167.524 110.501 166.504ZM113.405 167.404V163.78H112.301V162.88H113.405V161.164H114.389V162.88H115.973V163.78H114.389V167.392C114.389 167.908 114.569 168.1 115.097 168.1H116.069V169H115.001C113.825 169 113.405 168.484 113.405 167.404ZM117.426 161.848C117.066 161.848 116.79 161.584 116.79 161.212C116.79 160.84 117.066 160.576 117.426 160.576C117.786 160.576 118.062 160.84 118.062 161.212C118.062 161.584 117.786 161.848 117.426 161.848ZM116.922 169V162.88H117.906V169H116.922ZM122.254 162.808C123.634 162.808 124.726 163.564 124.726 165.592V169H123.742V165.652C123.742 164.38 123.154 163.708 122.086 163.708C120.934 163.708 120.238 164.56 120.238 165.94V169H119.254V162.88H120.106L120.238 163.708C120.598 163.24 121.222 162.808 122.254 162.808ZM130.805 163.936L130.937 162.88H131.789V168.7C131.789 170.464 130.853 171.472 128.753 171.472C127.193 171.472 126.101 170.74 125.945 169.396H126.953C127.121 170.164 127.805 170.596 128.825 170.596C130.109 170.596 130.805 169.996 130.805 168.664V167.944C130.397 168.64 129.737 169.072 128.705 169.072C127.013 169.072 125.765 167.932 125.765 165.94C125.765 164.068 127.013 162.808 128.705 162.808C129.737 162.808 130.421 163.252 130.805 163.936ZM128.801 168.196C130.001 168.196 130.817 167.272 130.817 165.964C130.817 164.62 130.001 163.684 128.801 163.684C127.589 163.684 126.773 164.608 126.773 165.94C126.773 167.272 127.589 168.196 128.801 168.196ZM136.726 167.404V163.78H135.622V162.88H136.726V161.164H137.71V162.88H139.294V163.78H137.71V167.392C137.71 167.908 137.89 168.1 138.418 168.1H139.39V169H138.322C137.146 169 136.726 168.484 136.726 167.404ZM143.242 162.808C144.61 162.808 145.726 163.564 145.726 165.592V169H144.742V165.652C144.742 164.38 144.13 163.708 143.074 163.708C141.934 163.708 141.226 164.56 141.226 165.94V169H140.242V160.6H141.226V163.888C141.586 163.312 142.21 162.808 143.242 162.808ZM149.73 169.072C147.894 169.072 146.694 167.812 146.694 165.94C146.694 164.08 147.87 162.808 149.598 162.808C151.326 162.808 152.454 163.9 152.502 165.712C152.502 165.844 152.49 165.988 152.478 166.132H147.726V166.216C147.762 167.38 148.494 168.196 149.658 168.196C150.522 168.196 151.194 167.74 151.398 166.948H152.394C152.154 168.172 151.146 169.072 149.73 169.072ZM147.786 165.316H151.446C151.35 164.26 150.63 163.672 149.61 163.672C148.71 163.672 147.882 164.32 147.786 165.316ZM159.85 162.808C161.542 162.808 162.79 163.948 162.79 165.94C162.79 167.812 161.542 169.072 159.85 169.072C158.818 169.072 158.122 168.652 157.75 168.064L157.618 169H156.766V160.6H157.75V163.864C158.158 163.3 158.818 162.808 159.85 162.808ZM159.754 168.196C160.966 168.196 161.782 167.272 161.782 165.94C161.782 164.608 160.966 163.684 159.754 163.684C158.554 163.684 157.738 164.608 157.738 165.916C157.738 167.26 158.554 168.196 159.754 168.196ZM166.746 162.88H167.022V163.84H166.53C165.246 163.84 164.898 164.908 164.898 165.88V169H163.914V162.88H164.766L164.898 163.804C165.186 163.336 165.654 162.88 166.746 162.88ZM173.076 168.1H173.388V169H172.848C172.032 169 171.756 168.652 171.744 168.052C171.36 168.604 170.748 169.072 169.692 169.072C168.348 169.072 167.436 168.4 167.436 167.284C167.436 166.06 168.288 165.376 169.896 165.376H171.696V164.956C171.696 164.164 171.132 163.684 170.172 163.684C169.308 163.684 168.732 164.092 168.612 164.716H167.628C167.772 163.516 168.744 162.808 170.22 162.808C171.78 162.808 172.68 163.588 172.68 165.016V167.692C172.68 168.016 172.8 168.1 173.076 168.1ZM171.696 166.504V166.204H169.8C168.924 166.204 168.432 166.528 168.432 167.224C168.432 167.824 168.948 168.232 169.764 168.232C170.988 168.232 171.696 167.524 171.696 166.504ZM177.145 162.808C178.525 162.808 179.617 163.564 179.617 165.592V169H178.633V165.652C178.633 164.38 178.045 163.708 176.977 163.708C175.825 163.708 175.129 164.56 175.129 165.94V169H174.145V162.88H174.997L175.129 163.708C175.489 163.24 176.113 162.808 177.145 162.808ZM185.625 163.816V160.6H186.609V169H185.757L185.625 168.016C185.217 168.58 184.557 169.072 183.525 169.072C181.833 169.072 180.585 167.932 180.585 165.94C180.585 164.068 181.833 162.808 183.525 162.808C184.557 162.808 185.253 163.228 185.625 163.816ZM183.621 168.196C184.821 168.196 185.637 167.272 185.637 165.964C185.637 164.62 184.821 163.684 183.621 163.684C182.409 163.684 181.593 164.608 181.593 165.94C181.593 167.272 182.409 168.196 183.621 168.196ZM194.174 162.808C195.866 162.808 197.114 163.948 197.114 165.94C197.114 167.812 195.866 169.072 194.174 169.072C193.142 169.072 192.446 168.652 192.074 168.064L191.942 169H191.09V160.6H192.074V163.864C192.482 163.3 193.142 162.808 194.174 162.808ZM194.078 168.196C195.29 168.196 196.106 167.272 196.106 165.94C196.106 164.608 195.29 163.684 194.078 163.684C192.878 163.684 192.062 164.608 192.062 165.916C192.062 167.26 192.878 168.196 194.078 168.196ZM201.058 169.072C199.27 169.072 198.022 167.8 198.022 165.94C198.022 164.08 199.27 162.808 201.058 162.808C202.846 162.808 204.094 164.08 204.094 165.94C204.094 167.8 202.846 169.072 201.058 169.072ZM201.058 168.196C202.27 168.196 203.086 167.248 203.086 165.94C203.086 164.632 202.27 163.684 201.058 163.684C199.846 163.684 199.03 164.632 199.03 165.94C199.03 167.248 199.846 168.196 201.058 168.196ZM208.043 169.072C206.255 169.072 205.007 167.8 205.007 165.94C205.007 164.08 206.255 162.808 208.043 162.808C209.831 162.808 211.079 164.08 211.079 165.94C211.079 167.8 209.831 169.072 208.043 169.072ZM208.043 168.196C209.255 168.196 210.071 167.248 210.071 165.94C210.071 164.632 209.255 163.684 208.043 163.684C206.831 163.684 206.015 164.632 206.015 165.94C206.015 167.248 206.831 168.196 208.043 168.196ZM212.207 169V160.6H213.191V166.132L216.263 162.88H217.475L215.087 165.412L217.643 169H216.455L214.427 166.12L213.191 167.392V169H212.207Z" fill="black" fill-opacity="0.16"/>
<rect x="32.25" y="156.25" width="16.5" height="16.5" rx="1.75" stroke="black" stroke-opacity="0.16" stroke-width="0.5"/>
<path d="M64.428 89.072C62.016 89.072 60.504 87.368 60.504 84.8C60.504 82.256 62.076 80.528 64.512 80.528C66.372 80.528 67.728 81.608 68.04 83.348H66.936C66.612 82.184 65.724 81.488 64.464 81.488C62.7 81.488 61.572 82.856 61.572 84.8C61.572 86.732 62.652 88.112 64.416 88.112C65.712 88.112 66.612 87.428 66.924 86.252H68.028C67.716 87.992 66.324 89.072 64.428 89.072ZM71.9767 82.88H72.2527V83.84H71.7607C70.4767 83.84 70.1287 84.908 70.1287 85.88V89H69.1447V82.88H69.9967L70.1287 83.804C70.4167 83.336 70.8847 82.88 71.9767 82.88ZM75.574 89.072C73.738 89.072 72.538 87.812 72.538 85.94C72.538 84.08 73.714 82.808 75.442 82.808C77.17 82.808 78.298 83.9 78.346 85.712C78.346 85.844 78.334 85.988 78.322 86.132H73.57V86.216C73.606 87.38 74.338 88.196 75.502 88.196C76.366 88.196 77.038 87.74 77.242 86.948H78.238C77.998 88.172 76.99 89.072 75.574 89.072ZM73.63 85.316H77.29C77.194 84.26 76.474 83.672 75.454 83.672C74.554 83.672 73.726 84.32 73.63 85.316ZM84.8809 88.1H85.1929V89H84.6529C83.8369 89 83.5609 88.652 83.5489 88.052C83.1649 88.604 82.5529 89.072 81.4969 89.072C80.1529 89.072 79.2409 88.4 79.2409 87.284C79.2409 86.06 80.0929 85.376 81.7009 85.376H83.5009V84.956C83.5009 84.164 82.9369 83.684 81.9769 83.684C81.1129 83.684 80.5369 84.092 80.4169 84.716H79.4329C79.5769 83.516 80.5489 82.808 82.0249 82.808C83.5849 82.808 84.4849 83.588 84.4849 85.016V87.692C84.4849 88.016 84.6049 88.1 84.8809 88.1ZM83.5009 86.504V86.204H81.6049C80.7289 86.204 80.2369 86.528 80.2369 87.224C80.2369 87.824 80.7529 88.232 81.5689 88.232C82.7929 88.232 83.5009 87.524 83.5009 86.504ZM86.4053 87.404V83.78H85.3013V82.88H86.4053V81.164H87.3893V82.88H88.9733V83.78H87.3893V87.392C87.3893 87.908 87.5693 88.1 88.0973 88.1H89.0693V89H88.0013C86.8253 89 86.4053 88.484 86.4053 87.404ZM92.5897 89.072C90.7537 89.072 89.5537 87.812 89.5537 85.94C89.5537 84.08 90.7297 82.808 92.4577 82.808C94.1857 82.808 95.3137 83.9 95.3617 85.712C95.3617 85.844 95.3497 85.988 95.3377 86.132H90.5857V86.216C90.6217 87.38 91.3537 88.196 92.5177 88.196C93.3817 88.196 94.0537 87.74 94.2577 86.948H95.2537C95.0137 88.172 94.0057 89.072 92.5897 89.072ZM90.6457 85.316H94.3057C94.2097 84.26 93.4897 83.672 92.4697 83.672C91.5697 83.672 90.7417 84.32 90.6457 85.316ZM105.037 88.1H105.349V89H104.809C103.993 89 103.717 88.652 103.705 88.052C103.321 88.604 102.709 89.072 101.653 89.072C100.309 89.072 99.3971 88.4 99.3971 87.284C99.3971 86.06 100.249 85.376 101.857 85.376H103.657V84.956C103.657 84.164 103.093 83.684 102.133 83.684C101.269 83.684 100.693 84.092 100.573 84.716H99.5891C99.7331 83.516 100.705 82.808 102.181 82.808C103.741 82.808 104.641 83.588 104.641 85.016V87.692C104.641 88.016 104.761 88.1 105.037 88.1ZM103.657 86.504V86.204H101.761C100.885 86.204 100.393 86.528 100.393 87.224C100.393 87.824 100.909 88.232 101.725 88.232C102.949 88.232 103.657 87.524 103.657 86.504ZM109.246 89V80.6H110.23V89H109.246ZM114.398 89.072C112.61 89.072 111.362 87.8 111.362 85.94C111.362 84.08 112.61 82.808 114.398 82.808C116.186 82.808 117.434 84.08 117.434 85.94C117.434 87.8 116.186 89.072 114.398 89.072ZM114.398 88.196C115.61 88.196 116.426 87.248 116.426 85.94C116.426 84.632 115.61 83.684 114.398 83.684C113.186 83.684 112.37 84.632 112.37 85.94C112.37 87.248 113.186 88.196 114.398 88.196ZM123.387 83.936L123.519 82.88H124.371V88.7C124.371 90.464 123.435 91.472 121.335 91.472C119.775 91.472 118.683 90.74 118.527 89.396H119.535C119.703 90.164 120.387 90.596 121.407 90.596C122.691 90.596 123.387 89.996 123.387 88.664V87.944C122.979 88.64 122.319 89.072 121.287 89.072C119.595 89.072 118.347 87.932 118.347 85.94C118.347 84.068 119.595 82.808 121.287 82.808C122.319 82.808 123.003 83.252 123.387 83.936ZM121.383 88.196C122.583 88.196 123.399 87.272 123.399 85.964C123.399 84.62 122.583 83.684 121.383 83.684C120.171 83.684 119.355 84.608 119.355 85.94C119.355 87.272 120.171 88.196 121.383 88.196ZM128.531 89.072C126.743 89.072 125.495 87.8 125.495 85.94C125.495 84.08 126.743 82.808 128.531 82.808C130.319 82.808 131.567 84.08 131.567 85.94C131.567 87.8 130.319 89.072 128.531 89.072ZM128.531 88.196C129.743 88.196 130.559 87.248 130.559 85.94C130.559 84.632 129.743 83.684 128.531 83.684C127.319 83.684 126.503 84.632 126.503 85.94C126.503 87.248 127.319 88.196 128.531 88.196ZM140.66 83.816V80.6H141.644V89H140.792L140.66 88.016C140.252 88.58 139.592 89.072 138.56 89.072C136.868 89.072 135.62 87.932 135.62 85.94C135.62 84.068 136.868 82.808 138.56 82.808C139.592 82.808 140.288 83.228 140.66 83.816ZM138.656 88.196C139.856 88.196 140.672 87.272 140.672 85.964C140.672 84.62 139.856 83.684 138.656 83.684C137.444 83.684 136.628 84.608 136.628 85.94C136.628 87.272 137.444 88.196 138.656 88.196ZM145.805 89.072C143.969 89.072 142.769 87.812 142.769 85.94C142.769 84.08 143.945 82.808 145.673 82.808C147.401 82.808 148.529 83.9 148.577 85.712C148.577 85.844 148.565 85.988 148.553 86.132H143.801V86.216C143.837 87.38 144.569 88.196 145.733 88.196C146.597 88.196 147.269 87.74 147.473 86.948H148.469C148.229 88.172 147.221 89.072 145.805 89.072ZM143.861 85.316H147.521C147.425 84.26 146.705 83.672 145.685 83.672C144.785 83.672 143.957 84.32 143.861 85.316ZM149.424 86.984H150.432C150.468 87.704 151.104 88.232 152.124 88.232C152.988 88.232 153.6 87.86 153.6 87.296C153.6 86.528 152.928 86.468 152.016 86.36C150.648 86.192 149.556 85.916 149.556 84.644C149.556 83.528 150.576 82.796 151.956 82.808C153.348 82.82 154.356 83.468 154.452 84.74H153.444C153.372 84.116 152.796 83.648 151.956 83.648C151.104 83.648 150.528 84.008 150.528 84.572C150.528 85.244 151.176 85.328 152.064 85.436C153.456 85.604 154.572 85.868 154.572 87.224C154.572 88.364 153.48 89.072 152.124 89.072C150.54 89.072 149.448 88.328 149.424 86.984ZM156.168 81.848C155.808 81.848 155.532 81.584 155.532 81.212C155.532 80.84 155.808 80.576 156.168 80.576C156.528 80.576 156.804 80.84 156.804 81.212C156.804 81.584 156.528 81.848 156.168 81.848ZM155.664 89V82.88H156.648V89H155.664ZM162.82 83.936L162.952 82.88H163.804V88.7C163.804 90.464 162.868 91.472 160.768 91.472C159.208 91.472 158.116 90.74 157.96 89.396H158.968C159.136 90.164 159.82 90.596 160.84 90.596C162.124 90.596 162.82 89.996 162.82 88.664V87.944C162.412 88.64 161.752 89.072 160.72 89.072C159.028 89.072 157.78 87.932 157.78 85.94C157.78 84.068 159.028 82.808 160.72 82.808C161.752 82.808 162.436 83.252 162.82 83.936ZM160.816 88.196C162.016 88.196 162.832 87.272 162.832 85.964C162.832 84.62 162.016 83.684 160.816 83.684C159.604 83.684 158.788 84.608 158.788 85.94C158.788 87.272 159.604 88.196 160.816 88.196ZM168.145 82.808C169.525 82.808 170.617 83.564 170.617 85.592V89H169.633V85.652C169.633 84.38 169.045 83.708 167.977 83.708C166.825 83.708 166.129 84.56 166.129 85.94V89H165.145V82.88H165.997L166.129 83.708C166.489 83.24 167.113 82.808 168.145 82.808Z" fill="#8D8D8D"/>
<path d="M60 85.568H171.205V86.288H60V85.568Z" fill="#8D8D8D"/>
<rect x="32.25" y="76.25" width="16.5" height="16.5" rx="1.75" fill="#3FE8BE" stroke="#3FE8BE" stroke-width="0.5"/>
<path d="M37 85L39.8284 87.8284L45.4847 82.1716" stroke="black" stroke-linecap="round" stroke-linejoin="round"/>
<path d="M37 125L39.8284 127.828L45.4847 122.172" stroke="black" stroke-linecap="round" stroke-linejoin="round"/>
<path d="M260.5 27H265M265 27H269.5M265 27V31.5M265 27V22.5" stroke="white" stroke-width="1.5" stroke-linecap="round" stroke-linejoin="round"/>
<defs>
<filter id="filter0_d_137_982" x="213" y="-1" width="182" height="60" filterUnits="userSpaceOnUse" color-interpolation-filters="sRGB">
<feFlood flood-opacity="0" result="BackgroundImageFix"/>
<feColorMatrix in="SourceAlpha" type="matrix" values="0 0 0 0 0 0 0 0 0 0 0 0 0 0 0 0 0 0 127 0" result="hardAlpha"/>
<feOffset/>
<feGaussianBlur stdDeviation="7.5"/>
<feComposite in2="hardAlpha" operator="out"/>
<feColorMatrix type="matrix" values="0 0 0 0 0 0 0 0 0 0 0 0 0 0 0 0 0 0 0.04 0"/>
<feBlend mode="normal" in2="BackgroundImageFix" result="effect1_dropShadow_137_982"/>
<feBlend mode="normal" in="SourceGraphic" in2="effect1_dropShadow_137_982" result="shape"/>
</filter>
<filter id="filter1_d_137_982" x="210" y="-3" width="182" height="60" filterUnits="userSpaceOnUse" color-interpolation-filters="sRGB">
<feFlood flood-opacity="0" result="BackgroundImageFix"/>
<feColorMatrix in="SourceAlpha" type="matrix" values="0 0 0 0 0 0 0 0 0 0 0 0 0 0 0 0 0 0 127 0" result="hardAlpha"/>
<feOffset/>
<feGaussianBlur stdDeviation="7.5"/>
<feComposite in2="hardAlpha" operator="out"/>
<feColorMatrix type="matrix" values="0 0 0 0 0 0 0 0 0 0 0 0 0 0 0 0 0 0 0.04 0"/>
<feBlend mode="normal" in2="BackgroundImageFix" result="effect1_dropShadow_137_982"/>
<feBlend mode="normal" in="SourceGraphic" in2="effect1_dropShadow_137_982" result="shape"/>
</filter>
</defs>
</svg>
