<svg width="505" height="217" viewBox="0 0 505 217" fill="none" xmlns="http://www.w3.org/2000/svg">
<g filter="url(#filter0_d_0_1)">
<path d="M7 15C7 10.5817 10.5817 7 15 7H498V202C498 206.418 494.418 210 490 210H7V15Z" fill="white"/>
</g>
<path d="M77.5 38.5H497.5V105.5H83C79.9624 105.5 77.5 103.038 77.5 100V38.5Z" fill="#2468FF" stroke="black"/>
<path d="M100.246 77.4138H99.0555V67.6138H100.176L105.44 75.1738V67.6138H106.63V77.4138H105.51L100.246 69.8538V77.4138ZM109.916 68.6778V67.6138H111.064V77.4138H109.888V70.3858C109.748 70.5118 109.524 70.5678 109.216 70.5678H107.634V69.5178H109.23C109.692 69.5178 109.916 69.1678 109.916 68.6778ZM112.343 77.4138V76.4198L116.151 73.1158C117.061 72.3318 117.817 71.5758 117.817 70.5118C117.817 69.2798 116.977 68.5798 115.675 68.5798C114.415 68.5798 113.575 69.4198 113.575 70.7638V70.9458H112.399V70.6938C112.399 68.8458 113.701 67.5298 115.675 67.5298C117.789 67.5298 119.021 68.6918 119.021 70.4558C119.021 71.9258 118.069 72.8498 116.907 73.8438L113.967 76.3358H119.091V77.4138H112.343ZM125.113 72.3178C126.009 72.4858 126.947 73.1998 126.947 74.6978C126.947 76.3638 125.547 77.4978 123.419 77.4978C121.291 77.4978 119.919 76.3358 119.919 74.3898H121.081C121.095 75.6778 122.103 76.4478 123.489 76.4478C124.763 76.4478 125.743 75.7338 125.743 74.6138C125.743 73.5918 124.903 72.9338 123.377 72.9338H122.537V71.9118H123.307C124.763 71.9118 125.491 71.1838 125.491 70.1898C125.491 69.1958 124.595 68.5798 123.419 68.5798C122.187 68.5798 121.291 69.3218 121.277 70.4418H120.115C120.129 68.7198 121.473 67.5298 123.405 67.5298C125.421 67.5298 126.695 68.5798 126.695 70.1198C126.695 71.3518 126.051 72.0658 125.113 72.3178ZM127.694 75.0198V73.9698L132.692 67.6138H134.008V73.9418H135.59V75.0198H134.008V77.4138H132.832V75.0198H127.694ZM132.832 69.0558L129.01 73.9418H132.832V69.0558ZM149.333 72.5138C149.333 75.3978 147.415 77.4978 144.657 77.4978C141.899 77.4978 139.981 75.3978 139.981 72.5138C139.981 69.6298 141.899 67.5298 144.657 67.5298C147.415 67.5298 149.333 69.6298 149.333 72.5138ZM141.227 72.5138C141.227 74.7678 142.613 76.3778 144.657 76.3778C146.701 76.3778 148.087 74.7678 148.087 72.5138C148.087 70.2598 146.701 68.6498 144.657 68.6498C142.613 68.6498 141.227 70.2598 141.227 72.5138ZM154.008 70.2738H154.33V71.3938H153.756C152.258 71.3938 151.852 72.6398 151.852 73.7738V77.4138H150.704V70.2738H151.698L151.852 71.3518C152.188 70.8058 152.734 70.2738 154.008 70.2738ZM160.543 71.3658V67.6138H161.691V77.4138H160.697L160.543 76.2658C160.067 76.9238 159.297 77.4978 158.093 77.4978C156.119 77.4978 154.663 76.1678 154.663 73.8438C154.663 71.6598 156.119 70.1898 158.093 70.1898C159.297 70.1898 160.109 70.6798 160.543 71.3658ZM158.205 76.4758C159.605 76.4758 160.557 75.3978 160.557 73.8718C160.557 72.3038 159.605 71.2118 158.205 71.2118C156.791 71.2118 155.839 72.2898 155.839 73.8438C155.839 75.3978 156.791 76.4758 158.205 76.4758ZM166.545 77.4978C164.403 77.4978 163.003 76.0278 163.003 73.8438C163.003 71.6738 164.375 70.1898 166.391 70.1898C168.407 70.1898 169.723 71.4638 169.779 73.5778C169.779 73.7318 169.765 73.8998 169.751 74.0678H164.207V74.1658C164.249 75.5238 165.103 76.4758 166.461 76.4758C167.469 76.4758 168.253 75.9438 168.491 75.0198H169.653C169.373 76.4478 168.197 77.4978 166.545 77.4978ZM164.277 73.1158H168.547C168.435 71.8838 167.595 71.1978 166.405 71.1978C165.355 71.1978 164.389 71.9538 164.277 73.1158ZM174.393 70.2738H174.715V71.3938H174.141C172.643 71.3938 172.237 72.6398 172.237 73.7738V77.4138H171.089V70.2738H172.083L172.237 71.3518C172.573 70.8058 173.119 70.2738 174.393 70.2738ZM178.618 71.3238V70.2738H179.906V69.4758C179.906 68.2158 180.438 67.6138 181.768 67.6138H183.07V68.6638H181.838C181.264 68.6638 181.054 68.9018 181.054 69.4478V70.2738H183.07V71.3238H181.054V77.4138H179.906V71.3238H178.618ZM186.861 77.4978C184.719 77.4978 183.319 76.0278 183.319 73.8438C183.319 71.6738 184.691 70.1898 186.707 70.1898C188.723 70.1898 190.039 71.4638 190.095 73.5778C190.095 73.7318 190.081 73.8998 190.067 74.0678H184.523V74.1658C184.565 75.5238 185.419 76.4758 186.777 76.4758C187.785 76.4758 188.569 75.9438 188.807 75.0198H189.969C189.689 76.4478 188.513 77.4978 186.861 77.4978ZM184.593 73.1158H188.863C188.751 71.8838 187.911 71.1978 186.721 71.1978C185.671 71.1978 184.705 71.9538 184.593 73.1158ZM194.695 77.4978C192.553 77.4978 191.153 76.0278 191.153 73.8438C191.153 71.6738 192.525 70.1898 194.541 70.1898C196.557 70.1898 197.873 71.4638 197.929 73.5778C197.929 73.7318 197.915 73.8998 197.901 74.0678H192.357V74.1658C192.399 75.5238 193.253 76.4758 194.611 76.4758C195.619 76.4758 196.403 75.9438 196.641 75.0198H197.803C197.523 76.4478 196.347 77.4978 194.695 77.4978ZM192.427 73.1158H196.697C196.585 71.8838 195.745 71.1978 194.555 71.1978C193.505 71.1978 192.539 71.9538 192.427 73.1158ZM204.867 71.3658V67.6138H206.015V77.4138H205.021L204.867 76.2658C204.391 76.9238 203.621 77.4978 202.417 77.4978C200.443 77.4978 198.987 76.1678 198.987 73.8438C198.987 71.6598 200.443 70.1898 202.417 70.1898C203.621 70.1898 204.433 70.6798 204.867 71.3658ZM202.529 76.4758C203.929 76.4758 204.881 75.3978 204.881 73.8718C204.881 72.3038 203.929 71.2118 202.529 71.2118C201.115 71.2118 200.163 72.2898 200.163 73.8438C200.163 75.3978 201.115 76.4758 202.529 76.4758ZM211.177 70.1898C213.151 70.1898 214.607 71.5198 214.607 73.8438C214.607 76.0278 213.151 77.4978 211.177 77.4978C209.973 77.4978 209.161 77.0078 208.727 76.3218L208.573 77.4138H207.579V67.6138H208.727V71.4218C209.203 70.7638 209.973 70.1898 211.177 70.1898ZM211.065 76.4758C212.479 76.4758 213.431 75.3978 213.431 73.8438C213.431 72.2898 212.479 71.2118 211.065 71.2118C209.665 71.2118 208.713 72.2898 208.713 73.8158C208.713 75.3838 209.665 76.4758 211.065 76.4758ZM222.233 76.3638H222.597V77.4138H221.967C221.015 77.4138 220.693 77.0078 220.679 76.3078C220.231 76.9518 219.517 77.4978 218.285 77.4978C216.717 77.4978 215.653 76.7138 215.653 75.4118C215.653 73.9838 216.647 73.1858 218.523 73.1858H220.623V72.6958C220.623 71.7718 219.965 71.2118 218.845 71.2118C217.837 71.2118 217.165 71.6878 217.025 72.4158H215.877C216.045 71.0158 217.179 70.1898 218.901 70.1898C220.721 70.1898 221.771 71.0998 221.771 72.7658V75.8878C221.771 76.2658 221.911 76.3638 222.233 76.3638ZM220.623 74.5018V74.1518H218.411C217.389 74.1518 216.815 74.5298 216.815 75.3418C216.815 76.0418 217.417 76.5178 218.369 76.5178C219.797 76.5178 220.623 75.6918 220.623 74.5018ZM226.603 77.4978C224.517 77.4978 223.145 76.0838 223.145 73.8578C223.145 71.6738 224.559 70.1898 226.631 70.1898C228.381 70.1898 229.487 71.1698 229.781 72.7378H228.577C228.367 71.7858 227.667 71.2118 226.617 71.2118C225.245 71.2118 224.321 72.3038 224.321 73.8578C224.321 75.4118 225.245 76.4758 226.617 76.4758C227.639 76.4758 228.339 75.8878 228.563 74.9778H229.781C229.501 76.5178 228.339 77.4978 226.603 77.4978ZM231.04 77.4138V67.6138H232.188V74.0678L235.772 70.2738H237.186L234.4 73.2278L237.382 77.4138H235.996L233.63 74.0538L232.188 75.5378V77.4138H231.04Z" fill="white"/>
<path d="M347.016 66.3957C347.768 64.5191 348.145 63.5807 348.756 63.4507C348.917 63.4165 349.083 63.4165 349.244 63.4507C349.856 63.5807 350.232 64.5191 350.985 66.3957C351.413 67.463 351.627 67.9966 352.027 68.3595C352.14 68.4613 352.262 68.552 352.392 68.6302C352.854 68.9093 353.432 68.961 354.588 69.0645C356.545 69.2397 357.523 69.3273 357.821 69.8851C357.883 70.0006 357.925 70.1257 357.946 70.2551C358.045 70.8801 357.326 71.5343 355.888 72.8429L355.488 73.2063C354.816 73.818 354.479 74.1239 354.285 74.5057C354.168 74.7347 354.09 74.9813 354.053 75.2356C353.992 75.6597 354.091 76.1034 354.288 76.9909L354.358 77.308C354.711 78.8996 354.888 79.6954 354.667 80.0866C354.469 80.4379 354.105 80.6629 353.702 80.6821C353.253 80.7035 352.621 80.1886 351.358 79.1588C350.525 78.4803 350.109 78.141 349.646 78.0085C349.224 77.8874 348.776 77.8874 348.354 78.0085C347.892 78.141 347.475 78.4803 346.643 79.1588C345.379 80.1886 344.747 80.7035 344.298 80.6821C343.896 80.6629 343.531 80.4379 343.333 80.0866C343.113 79.6954 343.289 78.8996 343.642 77.308L343.713 76.9909C343.91 76.1034 344.008 75.6597 343.947 75.2356C343.91 74.9813 343.832 74.7347 343.715 74.5057C343.521 74.1239 343.185 73.818 342.512 73.2063L342.113 72.8429C340.675 71.5343 339.955 70.8801 340.054 70.2551C340.075 70.1257 340.117 70.0006 340.179 69.8851C340.478 69.3273 341.456 69.2397 343.412 69.0645C344.568 68.961 345.146 68.9093 345.609 68.6302C345.739 68.552 345.861 68.4613 345.973 68.3595C346.373 67.9966 346.588 67.463 347.016 66.3957Z" fill="#C6FF00" stroke="#C6FF00" stroke-width="2"/>
<path d="M378.671 66.3957C379.423 64.5191 379.8 63.5807 380.411 63.4507C380.572 63.4165 380.738 63.4165 380.899 63.4507C381.511 63.5807 381.887 64.5191 382.64 66.3957C383.068 67.463 383.282 67.9966 383.682 68.3595C383.795 68.4613 383.917 68.552 384.047 68.6302C384.509 68.9093 385.087 68.961 386.243 69.0645C388.2 69.2397 389.178 69.3273 389.477 69.8851C389.538 70.0006 389.58 70.1257 389.601 70.2551C389.7 70.8801 388.981 71.5343 387.543 72.8429L387.143 73.2063C386.471 73.818 386.134 74.1239 385.94 74.5057C385.823 74.7347 385.745 74.9813 385.708 75.2356C385.647 75.6597 385.746 76.1034 385.943 76.9909L386.013 77.308C386.366 78.8996 386.543 79.6954 386.322 80.0866C386.124 80.4379 385.76 80.6629 385.357 80.6821C384.908 80.7035 384.277 80.1886 383.013 79.1588C382.18 78.4803 381.764 78.141 381.302 78.0085C380.879 77.8874 380.431 77.8874 380.009 78.0085C379.547 78.141 379.13 78.4803 378.298 79.1588C377.034 80.1886 376.402 80.7035 375.954 80.6821C375.551 80.6629 375.186 80.4379 374.988 80.0866C374.768 79.6954 374.944 78.8996 375.297 77.308L375.368 76.9909C375.565 76.1034 375.663 75.6597 375.602 75.2356C375.565 74.9813 375.487 74.7347 375.37 74.5057C375.176 74.1239 374.84 73.818 374.167 73.2063L373.768 72.8429C372.33 71.5343 371.61 70.8801 371.709 70.2551C371.73 70.1257 371.772 70.0006 371.834 69.8851C372.133 69.3273 373.111 69.2397 375.067 69.0645C376.223 68.961 376.801 68.9093 377.264 68.6302C377.394 68.552 377.516 68.4613 377.628 68.3595C378.029 67.9966 378.243 67.463 378.671 66.3957Z" fill="#C6FF00" stroke="#C6FF00" stroke-width="2"/>
<path d="M410.326 66.3957C411.079 64.5191 411.455 63.5807 412.067 63.4507C412.227 63.4165 412.394 63.4165 412.554 63.4507C413.166 63.5807 413.542 64.5191 414.295 66.3957C414.723 67.463 414.937 67.9966 415.338 68.3595C415.45 68.4613 415.572 68.552 415.702 68.6302C416.165 68.9093 416.743 68.961 417.898 69.0645C419.855 69.2397 420.833 69.3273 421.132 69.8851C421.194 70.0006 421.236 70.1257 421.256 70.2551C421.355 70.8801 420.636 71.5343 419.198 72.8429L418.798 73.2063C418.126 73.818 417.79 74.1239 417.595 74.5057C417.479 74.7347 417.4 74.9813 417.364 75.2356C417.303 75.6597 417.401 76.1034 417.598 76.9909L417.668 77.308C418.022 78.8996 418.198 79.6954 417.978 80.0866C417.78 80.4379 417.415 80.6629 417.012 80.6821C416.564 80.7035 415.932 80.1886 414.668 79.1588C413.835 78.4803 413.419 78.141 412.957 78.0085C412.534 77.8874 412.087 77.8874 411.664 78.0085C411.202 78.141 410.786 78.4803 409.953 79.1588C408.689 80.1886 408.057 80.7035 407.609 80.6821C407.206 80.6629 406.841 80.4379 406.643 80.0866C406.423 79.6954 406.599 78.8996 406.953 77.308L407.023 76.9909C407.22 76.1034 407.318 75.6597 407.257 75.2356C407.221 74.9813 407.142 74.7347 407.026 74.5057C406.831 74.1239 406.495 73.818 405.823 73.2063L405.423 72.8429C403.985 71.5343 403.266 70.8801 403.365 70.2551C403.385 70.1257 403.427 70.0006 403.489 69.8851C403.788 69.3273 404.766 69.2397 406.723 69.0645C407.878 68.961 408.456 68.9093 408.919 68.6302C409.049 68.552 409.171 68.4613 409.283 68.3595C409.684 67.9966 409.898 67.463 410.326 66.3957Z" fill="#C6FF00" stroke="#C6FF00" stroke-width="2"/>
<path d="M441.981 66.3957C442.734 64.5191 443.11 63.5807 443.722 63.4507C443.882 63.4165 444.049 63.4165 444.209 63.4507C444.821 63.5807 445.197 64.5191 445.95 66.3957C446.378 67.463 446.592 67.9966 446.993 68.3595C447.105 68.4613 447.227 68.552 447.357 68.6302C447.82 68.9093 448.398 68.961 449.553 69.0645C451.51 69.2397 452.488 69.3273 452.787 69.8851C452.849 70.0006 452.891 70.1257 452.911 70.2551C453.01 70.8801 452.291 71.5343 450.853 72.8429L450.453 73.2063C449.781 73.818 449.445 74.1239 449.25 74.5057C449.134 74.7347 449.055 74.9813 449.019 75.2356C448.958 75.6597 449.056 76.1034 449.253 76.9909L449.323 77.308C449.677 78.8996 449.853 79.6954 449.633 80.0866C449.435 80.4379 449.07 80.6629 448.667 80.6821C448.219 80.7035 447.587 80.1886 446.323 79.1588C445.49 78.4803 445.074 78.141 444.612 78.0085C444.189 77.8874 443.742 77.8874 443.319 78.0085C442.857 78.141 442.441 78.4803 441.608 79.1588C440.344 80.1886 439.712 80.7035 439.264 80.6821C438.861 80.6629 438.496 80.4379 438.298 80.0866C438.078 79.6954 438.254 78.8996 438.608 77.308L438.678 76.9909C438.875 76.1034 438.973 75.6597 438.912 75.2356C438.876 74.9813 438.797 74.7347 438.681 74.5057C438.486 74.1239 438.15 73.818 437.478 73.2063L437.078 72.8429C435.64 71.5343 434.921 70.8801 435.02 70.2551C435.04 70.1257 435.082 70.0006 435.144 69.8851C435.443 69.3273 436.421 69.2397 438.378 69.0645C439.533 68.961 440.111 68.9093 440.574 68.6302C440.704 68.552 440.826 68.4613 440.938 68.3595C441.339 67.9966 441.553 67.463 441.981 66.3957Z" fill="#C6FF00" stroke="#C6FF00" stroke-width="2"/>
<path d="M478.326 66.3957C479.079 64.5191 479.455 63.5807 480.067 63.4507C480.227 63.4165 480.394 63.4165 480.554 63.4507C481.166 63.5807 481.542 64.5191 482.295 66.3957C482.723 67.463 482.937 67.9966 483.338 68.3595C483.45 68.4613 483.572 68.552 483.702 68.6302C484.165 68.9093 484.743 68.961 485.898 69.0645C487.855 69.2397 488.833 69.3273 489.132 69.8851C489.194 70.0006 489.236 70.1257 489.256 70.2551C489.355 70.8801 488.636 71.5343 487.198 72.8429L486.798 73.2063C486.126 73.818 485.79 74.1239 485.595 74.5057C485.479 74.7347 485.4 74.9813 485.364 75.2356C485.303 75.6597 485.401 76.1034 485.598 76.9909L485.668 77.308C486.022 78.8996 486.198 79.6954 485.978 80.0866C485.78 80.4379 485.415 80.6629 485.012 80.6821C484.564 80.7035 483.932 80.1886 482.668 79.1588C481.835 78.4803 481.419 78.141 480.957 78.0085C480.534 77.8874 480.087 77.8874 479.664 78.0085C479.202 78.141 478.786 78.4803 477.953 79.1588C476.689 80.1886 476.057 80.7035 475.609 80.6821C475.206 80.6629 474.841 80.4379 474.643 80.0866C474.423 79.6954 474.599 78.8996 474.953 77.308L475.023 76.9909C475.22 76.1034 475.318 75.6597 475.257 75.2356C475.221 74.9813 475.142 74.7347 475.026 74.5057C474.831 74.1239 474.495 73.818 473.823 73.2063L473.423 72.8429C471.985 71.5343 471.266 70.8801 471.365 70.2551C471.385 70.1257 471.427 70.0006 471.489 69.8851C471.788 69.3273 472.766 69.2397 474.723 69.0645C475.878 68.961 476.456 68.9093 476.919 68.6302C477.049 68.552 477.171 68.4613 477.283 68.3595C477.684 67.9966 477.898 67.463 478.326 66.3957Z" fill="#C6FF00" stroke="#C6FF00" stroke-width="2"/>
<rect x="142.5" y="123.5" width="355" height="57" fill="white" stroke="black"/>
<path d="M162.142 157H160.952V147.2H162.072L167.336 154.76V147.2H168.526V157H167.406L162.142 149.44V157ZM171.813 148.264V147.2H172.961V157H171.785V149.972C171.645 150.098 171.421 150.154 171.113 150.154H169.531V149.104H171.127C171.589 149.104 171.813 148.754 171.813 148.264ZM174.24 157V156.006L178.048 152.702C178.958 151.918 179.714 151.162 179.714 150.098C179.714 148.866 178.874 148.166 177.572 148.166C176.312 148.166 175.472 149.006 175.472 150.35V150.532H174.296V150.28C174.296 148.432 175.598 147.116 177.572 147.116C179.686 147.116 180.918 148.278 180.918 150.042C180.918 151.512 179.966 152.436 178.804 153.43L175.864 155.922H180.988V157H174.24ZM187.01 151.904C187.906 152.072 188.844 152.786 188.844 154.284C188.844 155.95 187.444 157.084 185.316 157.084C183.188 157.084 181.816 155.922 181.816 153.976H182.978C182.992 155.264 184 156.034 185.386 156.034C186.66 156.034 187.64 155.32 187.64 154.2C187.64 153.178 186.8 152.52 185.274 152.52H184.434V151.498H185.204C186.66 151.498 187.388 150.77 187.388 149.776C187.388 148.782 186.492 148.166 185.316 148.166C184.084 148.166 183.188 148.908 183.174 150.028H182.012C182.026 148.306 183.37 147.116 185.302 147.116C187.318 147.116 188.592 148.166 188.592 149.706C188.592 150.938 187.948 151.652 187.01 151.904ZM193.678 150.434C195.596 150.434 196.926 151.778 196.926 153.724C196.926 155.894 195.33 157.07 193.496 157.07C191.312 157.07 190.052 155.656 189.954 153.948H191.116C191.228 155.082 192.082 156.02 193.496 156.02C194.644 156.02 195.722 155.25 195.722 153.738C195.722 152.408 194.868 151.47 193.51 151.47C192.908 151.47 191.704 151.638 191.284 152.8L190.15 152.772L190.472 147.2H196.338V148.278H191.55L191.326 151.372C191.928 150.658 192.768 150.434 193.678 150.434ZM210.969 152.1C210.969 154.984 209.051 157.084 206.293 157.084C203.535 157.084 201.617 154.984 201.617 152.1C201.617 149.216 203.535 147.116 206.293 147.116C209.051 147.116 210.969 149.216 210.969 152.1ZM202.863 152.1C202.863 154.354 204.249 155.964 206.293 155.964C208.337 155.964 209.723 154.354 209.723 152.1C209.723 149.846 208.337 148.236 206.293 148.236C204.249 148.236 202.863 149.846 202.863 152.1ZM215.645 149.86H215.967V150.98H215.393C213.895 150.98 213.489 152.226 213.489 153.36V157H212.341V149.86H213.335L213.489 150.938C213.825 150.392 214.371 149.86 215.645 149.86ZM222.18 150.952V147.2H223.328V157H222.334L222.18 155.852C221.704 156.51 220.934 157.084 219.73 157.084C217.756 157.084 216.3 155.754 216.3 153.43C216.3 151.246 217.756 149.776 219.73 149.776C220.934 149.776 221.746 150.266 222.18 150.952ZM219.842 156.062C221.242 156.062 222.194 154.984 222.194 153.458C222.194 151.89 221.242 150.798 219.842 150.798C218.428 150.798 217.476 151.876 217.476 153.43C217.476 154.984 218.428 156.062 219.842 156.062ZM228.181 157.084C226.039 157.084 224.639 155.614 224.639 153.43C224.639 151.26 226.011 149.776 228.027 149.776C230.043 149.776 231.359 151.05 231.415 153.164C231.415 153.318 231.401 153.486 231.387 153.654H225.843V153.752C225.885 155.11 226.739 156.062 228.097 156.062C229.105 156.062 229.889 155.53 230.127 154.606H231.289C231.009 156.034 229.833 157.084 228.181 157.084ZM225.913 152.702H230.183C230.071 151.47 229.231 150.784 228.041 150.784C226.991 150.784 226.025 151.54 225.913 152.702ZM236.029 149.86H236.351V150.98H235.777C234.279 150.98 233.873 152.226 233.873 153.36V157H232.725V149.86H233.719L233.873 150.938C234.209 150.392 234.755 149.86 236.029 149.86ZM240.255 150.91V149.86H241.543V149.062C241.543 147.802 242.075 147.2 243.405 147.2H244.707V148.25H243.475C242.901 148.25 242.691 148.488 242.691 149.034V149.86H244.707V150.91H242.691V157H241.543V150.91H240.255ZM248.498 157.084C246.356 157.084 244.956 155.614 244.956 153.43C244.956 151.26 246.328 149.776 248.344 149.776C250.36 149.776 251.676 151.05 251.732 153.164C251.732 153.318 251.718 153.486 251.704 153.654H246.16V153.752C246.202 155.11 247.056 156.062 248.414 156.062C249.422 156.062 250.206 155.53 250.444 154.606H251.606C251.326 156.034 250.15 157.084 248.498 157.084ZM246.23 152.702H250.5C250.388 151.47 249.548 150.784 248.358 150.784C247.308 150.784 246.342 151.54 246.23 152.702ZM256.332 157.084C254.19 157.084 252.79 155.614 252.79 153.43C252.79 151.26 254.162 149.776 256.178 149.776C258.194 149.776 259.51 151.05 259.566 153.164C259.566 153.318 259.552 153.486 259.538 153.654H253.994V153.752C254.036 155.11 254.89 156.062 256.248 156.062C257.256 156.062 258.04 155.53 258.278 154.606H259.44C259.16 156.034 257.984 157.084 256.332 157.084ZM254.064 152.702H258.334C258.222 151.47 257.382 150.784 256.192 150.784C255.142 150.784 254.176 151.54 254.064 152.702ZM266.504 150.952V147.2H267.652V157H266.658L266.504 155.852C266.028 156.51 265.258 157.084 264.054 157.084C262.08 157.084 260.624 155.754 260.624 153.43C260.624 151.246 262.08 149.776 264.054 149.776C265.258 149.776 266.07 150.266 266.504 150.952ZM264.166 156.062C265.566 156.062 266.518 154.984 266.518 153.458C266.518 151.89 265.566 150.798 264.166 150.798C262.752 150.798 261.8 151.876 261.8 153.43C261.8 154.984 262.752 156.062 264.166 156.062ZM272.814 149.776C274.788 149.776 276.244 151.106 276.244 153.43C276.244 155.614 274.788 157.084 272.814 157.084C271.61 157.084 270.798 156.594 270.364 155.908L270.21 157H269.216V147.2H270.364V151.008C270.84 150.35 271.61 149.776 272.814 149.776ZM272.702 156.062C274.116 156.062 275.068 154.984 275.068 153.43C275.068 151.876 274.116 150.798 272.702 150.798C271.302 150.798 270.35 151.876 270.35 153.402C270.35 154.97 271.302 156.062 272.702 156.062ZM283.869 155.95H284.233V157H283.603C282.651 157 282.329 156.594 282.315 155.894C281.867 156.538 281.153 157.084 279.921 157.084C278.353 157.084 277.289 156.3 277.289 154.998C277.289 153.57 278.283 152.772 280.159 152.772H282.259V152.282C282.259 151.358 281.601 150.798 280.481 150.798C279.473 150.798 278.801 151.274 278.661 152.002H277.513C277.681 150.602 278.815 149.776 280.537 149.776C282.357 149.776 283.407 150.686 283.407 152.352V155.474C283.407 155.852 283.547 155.95 283.869 155.95ZM282.259 154.088V153.738H280.047C279.025 153.738 278.451 154.116 278.451 154.928C278.451 155.628 279.053 156.104 280.005 156.104C281.433 156.104 282.259 155.278 282.259 154.088ZM288.24 157.084C286.154 157.084 284.782 155.67 284.782 153.444C284.782 151.26 286.196 149.776 288.268 149.776C290.018 149.776 291.124 150.756 291.418 152.324H290.214C290.004 151.372 289.304 150.798 288.254 150.798C286.882 150.798 285.958 151.89 285.958 153.444C285.958 154.998 286.882 156.062 288.254 156.062C289.276 156.062 289.976 155.474 290.2 154.564H291.418C291.138 156.104 289.976 157.084 288.24 157.084ZM292.677 157V147.2H293.825V153.654L297.409 149.86H298.823L296.037 152.814L299.019 157H297.633L295.267 153.64L293.825 155.124V157H292.677Z" fill="black"/>
<path d="M366.307 147.22C366.949 145.619 367.27 144.819 367.792 144.708C367.929 144.679 368.071 144.679 368.208 144.708C368.73 144.819 369.051 145.619 369.693 147.22C370.058 148.13 370.24 148.585 370.582 148.895C370.678 148.982 370.782 149.059 370.893 149.126C371.287 149.364 371.78 149.408 372.766 149.496C374.435 149.646 375.269 149.72 375.524 150.196C375.577 150.295 375.613 150.401 375.63 150.512C375.715 151.045 375.101 151.603 373.874 152.719L373.534 153.029C372.96 153.551 372.673 153.812 372.508 154.137C372.408 154.333 372.341 154.543 372.31 154.76C372.258 155.122 372.342 155.5 372.51 156.257L372.57 156.527C372.871 157.885 373.022 158.564 372.834 158.897C372.665 159.197 372.354 159.389 372.01 159.405C371.628 159.424 371.089 158.984 370.011 158.106C369.301 157.527 368.945 157.238 368.551 157.125C368.191 157.022 367.809 157.022 367.449 157.125C367.054 157.238 366.699 157.527 365.989 158.106C364.911 158.984 364.372 159.424 363.99 159.405C363.646 159.389 363.335 159.197 363.166 158.897C362.978 158.564 363.129 157.885 363.43 156.527L363.49 156.257C363.658 155.5 363.742 155.122 363.69 154.76C363.659 154.543 363.592 154.333 363.492 154.137C363.326 153.812 363.04 153.551 362.466 153.029L362.125 152.719C360.899 151.603 360.285 151.045 360.37 150.512C360.387 150.401 360.423 150.295 360.476 150.196C360.731 149.72 361.565 149.646 363.234 149.496C364.22 149.408 364.713 149.364 365.107 149.126C365.218 149.059 365.322 148.982 365.418 148.895C365.76 148.585 365.942 148.13 366.307 147.22Z" fill="#DFDFDF" stroke="#DFDFDF" stroke-width="2"/>
<path d="M393.307 147.22C393.949 145.619 394.27 144.819 394.792 144.708C394.929 144.679 395.071 144.679 395.208 144.708C395.73 144.819 396.051 145.619 396.693 147.22C397.058 148.13 397.24 148.585 397.582 148.895C397.678 148.982 397.782 149.059 397.893 149.126C398.287 149.364 398.78 149.408 399.766 149.496C401.435 149.646 402.269 149.72 402.524 150.196C402.577 150.295 402.613 150.401 402.63 150.512C402.715 151.045 402.101 151.603 400.874 152.719L400.534 153.029C399.96 153.551 399.673 153.812 399.508 154.137C399.408 154.333 399.341 154.543 399.31 154.76C399.258 155.122 399.342 155.5 399.51 156.257L399.57 156.527C399.871 157.885 400.022 158.564 399.834 158.897C399.665 159.197 399.354 159.389 399.01 159.405C398.628 159.424 398.089 158.984 397.011 158.106C396.301 157.527 395.945 157.238 395.551 157.125C395.191 157.022 394.809 157.022 394.449 157.125C394.054 157.238 393.699 157.527 392.989 158.106C391.911 158.984 391.372 159.424 390.99 159.405C390.646 159.389 390.335 159.197 390.166 158.897C389.978 158.564 390.129 157.885 390.43 156.527L390.49 156.257C390.658 155.5 390.742 155.122 390.69 154.76C390.659 154.543 390.592 154.333 390.492 154.137C390.326 153.812 390.04 153.551 389.466 153.029L389.125 152.719C387.899 151.603 387.285 151.045 387.37 150.512C387.387 150.401 387.423 150.295 387.476 150.196C387.731 149.72 388.565 149.646 390.234 149.496C391.22 149.408 391.713 149.364 392.107 149.126C392.218 149.059 392.322 148.982 392.418 148.895C392.76 148.585 392.942 148.13 393.307 147.22Z" fill="#DFDFDF" stroke="#DFDFDF" stroke-width="2"/>
<path d="M420.307 147.22C420.949 145.619 421.27 144.819 421.792 144.708C421.929 144.679 422.071 144.679 422.208 144.708C422.73 144.819 423.051 145.619 423.693 147.22C424.058 148.13 424.24 148.585 424.582 148.895C424.678 148.982 424.782 149.059 424.893 149.126C425.287 149.364 425.78 149.408 426.766 149.496C428.435 149.646 429.269 149.72 429.524 150.196C429.577 150.295 429.613 150.401 429.63 150.512C429.715 151.045 429.101 151.603 427.874 152.719L427.534 153.029C426.96 153.551 426.673 153.812 426.508 154.137C426.408 154.333 426.341 154.543 426.31 154.76C426.258 155.122 426.342 155.5 426.51 156.257L426.57 156.527C426.871 157.885 427.022 158.564 426.834 158.897C426.665 159.197 426.354 159.389 426.01 159.405C425.628 159.424 425.089 158.984 424.011 158.106C423.301 157.527 422.945 157.238 422.551 157.125C422.191 157.022 421.809 157.022 421.449 157.125C421.054 157.238 420.699 157.527 419.989 158.106C418.911 158.984 418.372 159.424 417.99 159.405C417.646 159.389 417.335 159.197 417.166 158.897C416.978 158.564 417.129 157.885 417.43 156.527L417.49 156.257C417.658 155.5 417.742 155.122 417.69 154.76C417.659 154.543 417.592 154.333 417.492 154.137C417.326 153.812 417.04 153.551 416.466 153.029L416.125 152.719C414.899 151.603 414.285 151.045 414.37 150.512C414.387 150.401 414.423 150.295 414.476 150.196C414.731 149.72 415.565 149.646 417.234 149.496C418.22 149.408 418.713 149.364 419.107 149.126C419.218 149.059 419.322 148.982 419.418 148.895C419.76 148.585 419.942 148.13 420.307 147.22Z" fill="#DFDFDF" stroke="#DFDFDF" stroke-width="2"/>
<path d="M447.307 147.22C447.949 145.619 448.27 144.819 448.792 144.708C448.929 144.679 449.071 144.679 449.208 144.708C449.73 144.819 450.051 145.619 450.693 147.22C451.058 148.13 451.24 148.585 451.582 148.895C451.678 148.982 451.782 149.059 451.893 149.126C452.287 149.364 452.78 149.408 453.766 149.496C455.435 149.646 456.269 149.72 456.524 150.196C456.577 150.295 456.613 150.401 456.63 150.512C456.715 151.045 456.101 151.603 454.874 152.719L454.534 153.029C453.96 153.551 453.673 153.812 453.508 154.137C453.408 154.333 453.341 154.543 453.31 154.76C453.258 155.122 453.342 155.5 453.51 156.257L453.57 156.527C453.871 157.885 454.022 158.564 453.834 158.897C453.665 159.197 453.354 159.389 453.01 159.405C452.628 159.424 452.089 158.984 451.011 158.106C450.301 157.527 449.945 157.238 449.551 157.125C449.191 157.022 448.809 157.022 448.449 157.125C448.054 157.238 447.699 157.527 446.989 158.106C445.911 158.984 445.372 159.424 444.99 159.405C444.646 159.389 444.335 159.197 444.166 158.897C443.978 158.564 444.129 157.885 444.43 156.527L444.49 156.257C444.658 155.5 444.742 155.122 444.69 154.76C444.659 154.543 444.592 154.333 444.492 154.137C444.326 153.812 444.04 153.551 443.466 153.029L443.125 152.719C441.899 151.603 441.285 151.045 441.37 150.512C441.387 150.401 441.423 150.295 441.476 150.196C441.731 149.72 442.565 149.646 444.234 149.496C445.22 149.408 445.713 149.364 446.107 149.126C446.218 149.059 446.322 148.982 446.418 148.895C446.76 148.585 446.942 148.13 447.307 147.22Z" fill="#DFDFDF" stroke="#DFDFDF" stroke-width="2"/>
<path d="M478.307 147.22C478.949 145.619 479.27 144.819 479.792 144.708C479.929 144.679 480.071 144.679 480.208 144.708C480.73 144.819 481.051 145.619 481.693 147.22C482.058 148.13 482.24 148.585 482.582 148.895C482.678 148.982 482.782 149.059 482.893 149.126C483.287 149.364 483.78 149.408 484.766 149.496C486.435 149.646 487.269 149.72 487.524 150.196C487.577 150.295 487.613 150.401 487.63 150.512C487.715 151.045 487.101 151.603 485.874 152.719L485.534 153.029C484.96 153.551 484.673 153.812 484.508 154.137C484.408 154.333 484.341 154.543 484.31 154.76C484.258 155.122 484.342 155.5 484.51 156.257L484.57 156.527C484.871 157.885 485.022 158.564 484.834 158.897C484.665 159.197 484.354 159.389 484.01 159.405C483.628 159.424 483.089 158.984 482.011 158.106C481.301 157.527 480.945 157.238 480.551 157.125C480.191 157.022 479.809 157.022 479.449 157.125C479.054 157.238 478.699 157.527 477.989 158.106C476.911 158.984 476.372 159.424 475.99 159.405C475.646 159.389 475.335 159.197 475.166 158.897C474.978 158.564 475.129 157.885 475.43 156.527L475.49 156.257C475.658 155.5 475.742 155.122 475.69 154.76C475.659 154.543 475.592 154.333 475.492 154.137C475.326 153.812 475.04 153.551 474.466 153.029L474.125 152.719C472.899 151.603 472.285 151.045 472.37 150.512C472.387 150.401 472.423 150.295 472.476 150.196C472.731 149.72 473.565 149.646 475.234 149.496C476.22 149.408 476.713 149.364 477.107 149.126C477.218 149.059 477.322 148.982 477.418 148.895C477.76 148.585 477.942 148.13 478.307 147.22Z" fill="#DFDFDF" stroke="#DFDFDF" stroke-width="2"/>
<path d="M43 71L49.1872 77.1872L62.4466 63.9291" stroke="black" stroke-width="2" stroke-linecap="round" stroke-linejoin="round"/>
<defs>
<filter id="filter0_d_0_1" x="0" y="0" width="505" height="217" filterUnits="userSpaceOnUse" color-interpolation-filters="sRGB">
<feFlood flood-opacity="0" result="BackgroundImageFix"/>
<feColorMatrix in="SourceAlpha" type="matrix" values="0 0 0 0 0 0 0 0 0 0 0 0 0 0 0 0 0 0 127 0" result="hardAlpha"/>
<feOffset/>
<feGaussianBlur stdDeviation="3.5"/>
<feComposite in2="hardAlpha" operator="out"/>
<feColorMatrix type="matrix" values="0 0 0 0 0 0 0 0 0 0 0 0 0 0 0 0 0 0 0.11 0"/>
<feBlend mode="normal" in2="BackgroundImageFix" result="effect1_dropShadow_0_1"/>
<feBlend mode="normal" in="SourceGraphic" in2="effect1_dropShadow_0_1" result="shape"/>
</filter>
</defs>
</svg>
