<svg width="150" height="111" viewBox="0 0 150 111" fill="none" xmlns="http://www.w3.org/2000/svg">
<mask id="mask0_4_1890" style="mask-type:alpha" maskUnits="userSpaceOnUse" x="0" y="0" width="150" height="111">
<rect x="0.859375" y="0.597656" width="148.277" height="110.402" fill="#D9D9D9"/>
</mask>
<g mask="url(#mask0_4_1890)">
<path d="M71.0111 63.5337H98.1875V61.9204H71.0111V63.5337Z" fill="#E2D2CA"/>
<path d="M92.6641 140.599V68.2317H94.0449V140.599H92.6641Z" fill="#F9F9F9" stroke="black"/>
<path d="M56.3748 63.7675H75.2656V61.4639H56.3748V63.7675Z" fill="#CCBDB7"/>
<path d="M68.8945 42.3069V63.0337H62.7406V42.3069H68.8945Z" fill="#F9F9F9" stroke="black"/>
<path d="M107.438 64.0613V67.2329L3.7734 67.2329V64.0613L107.438 64.0613Z" fill="#F9F9F9" stroke="black"/>
<path d="M130.276 90.3855C130.278 90.5816 130.279 90.7353 130.279 90.8403C127.89 93.9783 125.162 95.1412 122.078 95.3922C119.408 95.6094 116.491 95.1456 113.267 94.6329C112.648 94.5346 112.018 94.4344 111.377 94.3369C107.357 93.7261 103.389 94.1377 99.1208 94.6548C98.7975 94.6939 98.4724 94.7337 98.1452 94.7738C94.1403 95.2639 89.8317 95.7911 84.8647 95.667L84.3609 95.6544L84.3522 96.1582L83.7061 133.686H75.6395C75.4424 130.723 75.1157 126.754 74.7557 122.38C74.7345 122.123 74.7133 121.865 74.6919 121.606C74.2873 116.687 73.8479 111.306 73.5053 106.279C73.1625 101.25 72.9173 96.5846 72.8995 93.0943C72.8906 91.3469 72.9389 89.9097 73.0571 88.874C73.1165 88.3543 73.1914 87.9554 73.2778 87.6759C73.3209 87.5364 73.3625 87.4414 73.3975 87.3812C73.4152 87.3507 73.4276 87.3354 73.4327 87.3296C73.7456 87.1425 74.3678 86.8805 75.2691 86.5598C76.1674 86.24 77.3056 85.8748 78.6106 85.4812C81.2198 84.6943 84.4785 83.7996 87.7834 82.9374C94.4038 81.2102 101.166 79.6253 103.25 79.2979C105.367 78.9655 111.105 78.0074 116.311 77.1329C118.914 76.6956 121.386 76.279 123.206 75.9717C124.116 75.8181 124.864 75.6918 125.384 75.6039L125.985 75.5022L126.071 75.4876C127.015 75.8246 127.8 76.8108 128.427 78.2941C129.068 79.8091 129.492 81.7194 129.769 83.6147C130.046 85.5046 130.173 87.3529 130.231 88.7309C130.26 89.4193 130.272 89.9888 130.276 90.3855ZM73.4216 87.3362L73.4217 87.3362L73.4216 87.3362Z" fill="#F9F9F9" stroke="black"/>
<path d="M133.619 79.7046L127.01 95.0679C126.663 95.1105 126.335 95.1515 126.021 95.1908C123.101 95.5558 121.4 95.7683 117.333 95.6668L116.833 95.6543L116.821 96.1552L115.974 133.202L108.133 133.687C107.933 130.698 107.602 126.69 107.237 122.277L107.183 121.63C106.776 116.708 106.333 111.324 105.987 106.293C105.641 101.26 105.393 96.5911 105.372 93.0978C105.362 91.349 105.41 89.9106 105.527 88.874C105.586 88.3538 105.661 87.9545 105.747 87.6748C105.79 87.5351 105.832 87.44 105.867 87.3797C105.884 87.3493 105.897 87.3341 105.902 87.3282C106.19 87.1557 106.746 86.9176 107.548 86.6267C108.349 86.3365 109.362 86.0056 110.528 85.648C112.861 84.9329 115.79 84.1159 118.836 83.3094C124.369 81.8439 130.264 80.4179 133.619 79.7046Z" fill="#F9F9F9" stroke="black"/>
<path d="M110.115 24.3875L110.115 24.3875C109.356 24.179 108.677 23.4516 108.131 22.311C107.589 21.1797 107.204 19.6907 107.005 18.0539C106.607 14.7751 106.966 10.973 108.246 8.3682C109.503 5.81189 111.773 4.98224 113.765 4.79519C114.762 4.70162 115.681 4.77041 116.352 4.86313C116.687 4.90942 116.959 4.96152 117.147 5.00183C117.24 5.02198 117.313 5.03916 117.361 5.05117C117.386 5.05717 117.404 5.06188 117.416 5.06502L117.42 5.06611C119.22 5.78834 121.575 7.22617 121.902 10.1239C122.069 11.6108 121.874 13.5209 121.454 15.4818C121.035 17.4393 120.394 19.4295 119.684 21.071C119.006 22.6375 117.48 23.703 115.666 24.2593C113.855 24.8151 111.796 24.8491 110.115 24.3875Z" fill="#F9F9F9" stroke="black" stroke-width="0.5"/>
<path d="M112.091 23.7393C112.091 23.7198 112.091 23.7018 112.09 23.6853L112.099 23.6784C112.167 23.6246 112.267 23.5459 112.394 23.4472C112.647 23.2498 113.009 22.9721 113.44 22.6516C114.303 22.01 115.442 21.1996 116.551 20.5179C117.671 19.8291 118.724 19.2958 119.426 19.1741C119.783 19.1122 119.961 19.1717 120.043 19.2597C120.127 19.351 120.2 19.5714 120.093 20.0668L120.093 20.0668C119.637 22.1829 119.813 24.4701 120.097 26.2171C120.239 27.0928 120.41 27.8377 120.545 28.364C120.599 28.573 120.647 28.7476 120.686 28.8825C120.655 28.883 120.622 28.8836 120.587 28.8841C120.315 28.8883 119.927 28.8934 119.462 28.8968C118.533 28.9036 117.3 28.9037 116.082 28.8769C114.861 28.8501 113.663 28.7964 112.8 28.6968C112.366 28.6465 112.033 28.5864 111.829 28.5183C111.793 28.5065 111.763 28.4951 111.739 28.4845C111.787 28.3646 111.825 28.2229 111.856 28.0721C111.899 27.868 111.934 27.6303 111.962 27.3752C112.019 26.8648 112.052 26.2703 112.07 25.7073C112.089 25.1435 112.094 24.6073 112.093 24.2124C112.093 24.0149 112.092 23.8525 112.091 23.7393Z" fill="#F9F9F9" stroke="black" stroke-width="0.5"/>
<path d="M120.879 18.5855C120.879 18.5855 120.344 19.6722 117.756 19.497C115.168 19.3219 111.755 16.1989 110.655 15.92C109.556 15.6412 109.491 15.0154 109.491 15.0154L108.909 16.0491L107.784 16.2208C107.784 16.2208 108.549 13.0921 106.881 11.9893C105.215 10.8876 107.633 2.01321 116.071 4.15316C116.071 4.15316 122.512 5.3332 122.598 8.92975C122.685 12.5263 122.128 16.6806 120.878 18.5855H120.879Z" fill="black"/>
<path d="M111.206 28.1469C111.206 28.1441 111.206 28.1413 111.206 28.1384C111.22 27.9883 111.245 27.7893 111.292 27.5879C111.34 27.3839 111.406 27.1919 111.494 27.0472C111.582 26.9027 111.674 26.8326 111.769 26.8127C112.129 26.7366 114.083 26.4536 116.07 26.2343C117.061 26.1249 118.054 26.0321 118.855 25.989C119.255 25.9674 119.604 25.9585 119.878 25.9657C120.054 25.9703 120.186 25.9815 120.277 25.9957L120.608 27.8232C120.557 27.8428 120.492 27.8658 120.41 27.8911C120.133 27.9773 119.671 28.0893 118.95 28.1811C117.537 28.3613 115.139 28.463 111.206 28.1469Z" fill="#F9F9F9" stroke="black" stroke-width="0.5"/>
<path d="M109.173 16.957C109.022 16.2284 109.004 15.3091 109.111 14.4537L109.131 14.3131C109.174 14.0121 109.293 13.6936 109.462 13.4168C109.632 13.1383 109.841 12.9191 110.053 12.7989C110.259 12.6821 110.452 12.6643 110.632 12.7503C110.825 12.8422 111.053 13.0758 111.262 13.5745C111.668 14.5481 111.537 15.771 111.168 16.7454C110.984 17.23 110.749 17.635 110.511 17.9037C110.259 18.1873 110.063 18.2583 109.951 18.2397C109.8 18.2144 109.649 18.1078 109.508 17.8839C109.367 17.6595 109.253 17.3423 109.173 16.957Z" fill="#F9F9F9" stroke="black" stroke-width="0.5"/>
<path d="M81.1561 47.8664C81.1561 47.8664 81.1631 47.8641 81.169 47.8664C81.1165 47.8897 81.1095 47.8909 81.1561 47.8664Z" fill="#323657"/>
<path d="M119.496 5.79425C119.496 5.79425 127.86 5.40014 120.956 18.4577L119.496 5.79425Z" fill="black"/>
<path d="M112.809 102.94V130.522H110.82V102.94H112.809Z" fill="#F9F9F9" stroke="black"/>
<path d="M120.125 101.42V102.105H103.501V101.42H120.125Z" fill="#F9F9F9" stroke="black"/>
<path d="M129.425 100.421H93.9709C92.5092 100.421 91.3214 99.2336 91.3214 97.772V97.6913C91.3214 96.2297 92.5092 95.0419 93.9709 95.0419H129.425C130.886 95.0419 132.074 96.2297 132.074 97.6913V97.772C132.074 99.2336 130.886 100.421 129.425 100.421Z" fill="#F9F9F9" stroke="black"/>
<path d="M18.5466 68.2331L18.5466 140.6H17.1647L17.1647 68.2331H18.5466Z" fill="#F9F9F9" stroke="black"/>
<path d="M93.5618 51.7727L38.0762 51.7727C36.6181 51.7727 35.4348 50.5885 35.4348 49.1313L35.4348 11.8394C35.4348 10.3813 36.619 9.19802 38.0762 9.19802L93.5618 9.19802C95.0198 9.19802 96.2031 10.3822 96.2031 11.8394V49.1313C96.2031 50.5894 95.0189 51.7727 93.5618 51.7727Z" fill="#F9F9F9" stroke="black"/>
<path d="M53.5312 63.1168V62.9064C53.539 62.8797 53.5505 62.8421 53.5665 62.7951C53.6051 62.6816 53.6698 62.5134 53.7706 62.3086C53.9723 61.8991 54.318 61.345 54.8893 60.7879C56.0213 59.6842 58.0911 58.5186 61.8331 58.5186C65.5503 58.5186 67.2681 59.8566 68.0853 61.0933C68.5039 61.7268 68.7054 62.3624 68.8019 62.8409C68.822 62.9406 68.8374 63.0331 68.8493 63.1168H53.5312Z" fill="#F5EBE0" fill-opacity="0.745098" stroke="black"/>
<path d="M58.8511 62.8676C58.9385 62.9604 59.0297 63.0841 59.1307 63.2209C59.4787 63.6926 59.9424 64.3211 60.7606 64.3819C61.3584 64.4262 63.2683 63.8712 65.0049 63.3666C66.3351 62.9801 67.5636 62.6231 68.0229 62.5876C68.4702 62.5531 69.0779 62.5594 69.6411 62.5652C70.4127 62.5732 71.1008 62.5804 71.1781 62.4804C71.3118 62.3076 69.4806 58.7352 69.4806 58.7352L58.8511 62.8676ZM58.8511 62.8676L59.0334 62.6966C58.9192 62.5748 58.7739 62.4682 58.6434 62.3724L58.639 62.3692L58.6375 62.3681C58.4996 62.2669 58.3688 62.1708 58.2507 62.0575C58.0253 61.8412 57.8497 61.5658 57.8566 61.1036C57.8574 61.0444 57.8877 60.9541 57.9848 60.8299C58.08 60.7081 58.2229 60.5752 58.4069 60.4354C58.7745 60.1562 59.2714 59.8755 59.7791 59.6232C60.2847 59.372 60.791 59.1537 61.1717 58.9981C61.3619 58.9203 61.5201 58.8584 61.6307 58.816C61.686 58.7948 61.7293 58.7785 61.7586 58.7675L61.7919 58.7551L61.8002 58.7521L61.8022 58.7513L61.8027 58.7512L61.8028 58.7511L61.8028 58.7511L62.4162 58.5274L61.8102 58.2843C61.7435 58.2575 61.6674 58.2521 61.6137 58.2503C61.5512 58.2483 61.4783 58.2507 61.3991 58.256C61.2402 58.2667 61.0387 58.2903 60.8119 58.3225C60.3573 58.3869 59.7846 58.4879 59.2136 58.5976C58.6421 58.7075 58.0694 58.8266 57.6136 58.9277C57.168 59.0266 56.8114 59.113 56.6906 59.1574C56.4954 59.2292 56.3311 59.2584 56.2081 59.2193C56.1139 59.1895 55.9764 59.0961 55.8886 58.7395C55.8895 58.7375 55.8907 58.735 55.8923 58.732C55.9054 58.7072 55.9354 58.667 55.9941 58.6127C56.1113 58.5042 56.3016 58.3767 56.5575 58.2354C57.0659 57.9547 57.7788 57.6488 58.5358 57.3526C59.2905 57.0572 60.0791 56.7753 60.7356 56.5417C60.7736 56.5282 60.8111 56.5148 60.8482 56.5016C61.4453 56.2892 61.9331 56.1157 62.1485 56.0171L62.1486 56.017L67.0629 58.448C67.0629 58.448 67.063 58.4481 67.0631 58.4481C67.2473 58.5592 67.4946 58.6439 67.7445 58.7099C67.9987 58.777 68.2746 58.8295 68.527 58.8696C68.78 58.9099 69.0129 58.9382 69.1824 58.9565C69.2346 58.9621 69.2809 58.9668 69.32 58.9706L69.3362 59.0023C69.3858 59.1001 69.4567 59.2399 69.5413 59.4083C69.7105 59.7453 69.9346 60.1959 70.1543 60.6516C70.3744 61.1081 70.5887 61.5666 70.7392 61.9202C70.804 62.0723 70.8552 62.2011 70.8898 62.3C70.8533 62.3034 70.8115 62.3064 70.7644 62.309C70.5539 62.3203 70.2703 62.3207 69.9499 62.3182C69.8518 62.3174 69.7503 62.3163 69.6469 62.3153C69.0846 62.3094 68.463 62.3029 68.0037 62.3384L68.0036 62.3384C67.7099 62.3611 67.164 62.4964 66.5235 62.6724C66.0454 62.8039 65.4976 62.9631 64.9335 63.127C64.7306 63.186 64.5256 63.2455 64.3211 63.3046C63.5454 63.5287 62.7744 63.7464 62.1324 63.9032C61.8114 63.9816 61.5259 64.0439 61.2902 64.0842C61.0491 64.1253 60.8787 64.1399 60.7791 64.1325C60.3377 64.0998 60.0118 63.8716 59.7382 63.5792C59.6005 63.4321 59.4803 63.2733 59.3659 63.1186C59.3543 63.1029 59.3427 63.0871 59.331 63.0713C59.2323 62.9375 59.1315 62.8008 59.0332 62.6963L58.8511 62.8676Z" fill="#F9F9F9" stroke="black" stroke-width="0.5"/>
<path d="M118.64 98.8335H118.59C118.005 98.8069 117.539 98.3246 117.539 97.7328C117.539 97.1239 118.032 96.631 118.641 96.631C122.102 96.631 124.814 95.5489 126.865 93.2888C129.37 90.5272 130.356 86.5447 130.728 83.3053C131.103 80.0498 130.868 77.4485 130.859 77.3637L130.859 77.3635C130.799 76.7584 131.241 76.2193 131.847 76.159L131.847 76.159C132.45 76.0988 132.991 76.5406 133.052 77.1461C133.073 77.3677 133.34 80.2369 132.891 83.8296C132.441 87.4362 131.28 91.6957 128.503 94.7605L128.503 94.7605C126.063 97.4546 122.761 98.8335 118.64 98.8335Z" fill="#F9F9F9" stroke="black"/>
<path d="M133.407 32.059C133.406 32.0584 133.406 32.0585 133.408 32.0597C133.417 32.0667 133.474 32.1102 133.564 32.2592C133.662 32.4205 133.767 32.6545 133.877 32.9657C134.095 33.5863 134.305 34.4461 134.501 35.4856C134.894 37.56 135.224 40.282 135.475 43.0816C135.725 45.8789 135.897 48.7418 135.976 51.0937C136.056 53.4667 136.04 55.2674 135.93 55.9748C135.891 56.2252 135.679 56.6331 135.227 57.1951C134.791 57.7378 134.183 58.3623 133.453 59.0385C131.992 60.3895 130.081 61.9091 128.175 63.3394C126.271 64.7681 124.38 66.1004 122.965 67.076C122.258 67.5636 121.67 67.9618 121.259 68.238C121.171 68.2967 121.092 68.3498 121.021 68.3972C120.918 68.2481 120.79 68.0627 120.643 67.85C120.247 67.2753 119.717 66.5015 119.18 65.7044C118.642 64.9065 118.1 64.0881 117.678 63.4231C117.466 63.0902 117.288 62.7997 117.156 62.5712C117.096 62.4674 117.048 62.3796 117.011 62.3083C117.029 62.29 117.049 62.269 117.074 62.2453C117.241 62.0863 117.511 61.8781 117.871 61.629C118.586 61.1345 119.59 60.5263 120.676 59.8971C121.709 59.2984 122.824 58.6767 123.811 58.126C124.871 57.5345 125.785 57.0248 126.294 56.7131L126.294 56.7131C126.816 56.3934 127.194 55.82 127.478 55.161C127.768 54.491 127.989 53.6664 128.159 52.7601C128.5 50.9459 128.652 48.728 128.705 46.5914C128.759 44.4507 128.713 42.3728 128.655 40.8314C128.626 40.0603 128.593 39.4225 128.568 38.9772C128.555 38.7544 128.544 38.5798 128.537 38.4605L128.528 38.3242L128.525 38.2889L128.524 38.2797L128.524 38.2773L128.524 38.2767C128.524 38.2765 128.524 38.2764 128.025 38.312L128.524 38.2764L128.518 38.1901L128.484 38.1119L128.484 38.1117L128.484 38.1115L128.483 38.1112L128.483 38.1108L128.482 38.1079L128.473 38.0866C128.465 38.0665 128.453 38.0349 128.437 37.9927C128.407 37.9084 128.364 37.7827 128.321 37.6247C128.233 37.3071 128.144 36.867 128.133 36.373C128.11 35.394 128.389 34.2267 129.593 33.333L129.593 33.333C130.592 32.5917 131.22 32.1367 131.78 31.9283C132.278 31.7432 132.732 31.7514 133.407 32.059ZM133.407 32.059C133.407 32.059 133.407 32.059 133.407 32.0591L133.614 31.604M133.407 32.059L133.614 31.604M133.614 31.604C132.066 30.8988 131.248 31.4819 129.295 32.9315L120.89 69.0849C120.89 69.0849 135.939 59.1745 136.424 56.0516C136.898 53.0001 135.683 32.5466 133.614 31.604ZM116.932 62.406C116.932 62.406 116.933 62.4033 116.937 62.3974C116.934 62.403 116.932 62.4059 116.932 62.406Z" fill="black" stroke="black"/>
<mask id="mask1_4_1890" style="mask-type:alpha" maskUnits="userSpaceOnUse" x="37" y="11" width="58" height="35">
<path d="M93.7852 11.5536V44.9451L37.8533 44.9451L37.8533 11.5536L93.7852 11.5536Z" fill="#F5EBE0" stroke="black"/>
</mask>
<g mask="url(#mask1_4_1890)">
</g>
<mask id="mask2_4_1890" style="mask-type:alpha" maskUnits="userSpaceOnUse" x="37" y="11" width="58" height="35">
<path d="M93.7852 11.5536V44.9451L37.8533 44.9451L37.8533 11.5536L93.7852 11.5536Z" fill="#F5EBE0" stroke="black"/>
</mask>
<g mask="url(#mask2_4_1890)">
<rect x="39.2266" y="11.5742" width="52.9923" height="33.6518" stroke="black"/>
<path d="M51.9527 52.7277H76.8711C76.5442 50.8303 76.0699 48.8893 75.5275 47.0153C75.25 46.0556 74.9553 45.1145 74.6526 44.205C74.0396 42.3585 73.3984 40.6455 72.8191 39.189C72.7808 39.0912 72.7416 38.9944 72.7039 38.8993C72.4139 38.1769 72.1419 37.5239 71.8988 36.955C71.2497 35.4317 70.8107 34.5146 70.8107 34.5146H58.0129C58.0129 34.5146 57.5739 35.4317 56.9241 36.9559C56.6866 37.5121 56.4209 38.1502 56.1379 38.8525C56.0988 38.9503 56.0604 39.0479 56.0211 39.1474C55.437 40.6123 54.7896 42.3411 54.1703 44.2051C53.8686 45.1147 53.573 46.0559 53.2954 47.0154C52.7537 48.8895 52.2788 50.8304 51.9527 52.7279V52.7277Z" fill="white"/>
<path d="M54.1709 43.5817C54.1709 43.5817 54.7314 43.0514 55.9477 42.445C57.5706 41.6349 60.361 40.6903 64.5482 40.6903C67.0828 40.6903 69.0733 41.036 70.5927 41.4896C71.877 41.8722 72.825 42.3306 73.48 42.7206C74.264 43.1892 74.6301 43.5583 74.6523 43.5808C74.5588 43.2961 74.4635 43.0155 74.3684 42.7382C73.8443 41.2132 73.3103 39.7976 72.82 38.5657C72.782 38.468 72.7422 38.3712 72.705 38.276C72.6735 38.1975 72.6421 38.1198 72.6115 38.0439C72.5965 38.0072 72.5817 37.9695 72.5667 37.9337C72.3804 37.4742 72.2024 37.0459 72.036 36.6534C71.9904 36.5431 71.945 36.4362 71.9002 36.3317C71.251 34.8084 70.8114 33.8914 70.8114 33.8914H58.0138C58.0138 33.8914 57.7041 34.5386 57.2197 35.6485C57.1278 35.8599 57.0292 36.0887 56.9249 36.3326C56.6872 36.8888 56.4215 37.5269 56.1392 38.2292C56.1301 38.2534 56.1201 38.2768 56.111 38.3011C56.0995 38.3286 56.0886 38.357 56.0771 38.3854C56.0588 38.4314 56.0407 38.4773 56.0225 38.5241C55.4379 39.989 54.7903 41.7178 54.1711 43.5818L54.1709 43.5817Z" fill="black"/>
<path d="M51.9487 53.0621H76.868C76.9657 53.0621 77.0584 53.0186 77.1215 52.943C77.1843 52.8675 77.211 52.768 77.1944 52.6707C75.7132 44.0656 71.1518 34.4651 71.1058 34.3692C71.0265 34.2031 70.8283 34.1334 70.6637 34.2134C70.4989 34.2936 70.4298 34.4934 70.5093 34.6596C70.5541 34.7532 74.9393 43.9848 76.4724 52.3939H52.3446C53.8775 43.9848 58.2629 34.7532 58.3077 34.6596C58.3872 34.4934 58.3181 34.2936 58.1533 34.2134C57.9887 34.1332 57.7905 34.2031 57.7111 34.3692C57.6652 34.4651 53.1036 44.0656 51.6226 52.6707C51.6058 52.7679 51.6326 52.8675 51.6955 52.943C51.7584 53.0184 51.8513 53.0621 51.949 53.0621H51.9487Z" fill="black"/>
<path d="M53.8672 46.8992C53.8672 46.8992 52.7916 45.1148 51.4253 44.9257C49.9183 44.717 48.3392 45.9581 48.6687 48.0945C49.0546 50.5961 52.4441 50.273 52.4441 50.273L53.867 46.8994L53.8672 46.8992Z" fill="black"/>
<g opacity="0.3">
<path d="M51.426 44.9256C52.3791 45.0576 53.1901 45.9653 53.5938 46.5026C53.1592 46.0523 52.5728 45.5972 51.9198 45.5067C50.4128 45.298 48.8336 46.5391 49.1632 48.6755C49.2134 49.0014 49.3151 49.279 49.4532 49.516C49.0661 49.1928 48.7685 48.7369 48.6694 48.0944C48.34 45.958 49.9191 44.7169 51.426 44.9256Z" fill="white"/>
</g>
<path d="M52.0143 50.6263C52.1801 50.6263 52.3357 50.6187 52.4762 50.6054C52.5972 50.5938 52.7023 50.5164 52.7498 50.4035L54.1727 47.0298C54.2146 46.9307 54.2065 46.8174 54.151 46.7255C54.1038 46.6471 52.9762 44.8029 51.4713 44.5946C50.6066 44.4749 49.7254 44.7777 49.1149 45.4048C48.4495 46.0881 48.1752 47.0615 48.3423 48.1457C48.6477 50.126 50.6709 50.6265 52.0143 50.6265V50.6263ZM52.2206 49.9514C51.5355 49.9749 49.2847 49.9095 48.9968 48.0428C48.8625 47.1724 49.0722 46.4017 49.5873 45.8727C50.052 45.3955 50.7233 45.1649 51.3811 45.2562C52.3651 45.3925 53.2198 46.5309 53.4936 46.9328L52.2204 49.9512L52.2206 49.9514Z" fill="black"/>
<g opacity="0.3">
<path d="M51.3921 42.7039C51.6021 45.0785 53.8372 46.2416 53.8372 46.2416C53.4339 45.3237 55.3028 45.9211 56.2881 44.5042C56.4345 44.2938 56.5107 44.067 56.543 43.847C56.1792 44.3654 55.592 44.7368 54.6535 44.7265C52.4844 44.7036 51.677 43.4336 51.3922 42.704L51.3921 42.7039Z" fill="black"/>
</g>
<g opacity="0.3">
<path d="M51.9946 43.1271L52.2789 49.6707C52.281 49.7245 52.2869 49.777 52.2952 49.8291C52.7235 49.5238 54.2793 50.1582 55.5356 49.235C55.7655 49.0663 55.9203 48.8586 56.0182 48.6421C56.5562 47.455 56.2432 46.6459 56.2432 46.6459C56.2432 46.6459 56.8805 45.6962 56.5796 44.3609C56.3425 43.3121 55.3762 43.3172 55.3762 43.3172C55.3762 43.3172 55.194 42.6931 54.5191 42.451C53.6254 42.1312 52.6777 42.5926 51.9946 43.1268V43.1271Z" fill="black"/>
</g>
<path d="M70.7452 41.1073L73.8768 43.3515C74.0407 43.3581 74.203 43.3614 74.3629 43.3614C81.2635 43.4041 85.1518 38.5952 85.8696 33.8715C86.0435 32.7257 85.9052 31.828 85.4142 31.2032C85.0491 30.7388 84.6102 30.6712 84.6102 30.6712C84.6102 30.6712 84.4984 29.897 83.8145 29.5888C83.2075 29.3165 82.4574 29.5428 82.4574 29.5428C82.4574 29.5428 81.9904 29.1661 81.395 29.223C80.5703 29.3016 79.7862 30.1367 79.2231 31.2709C78.5697 32.5862 77.7136 33.6369 76.8178 34.4687C74.8248 36.3212 72.6338 37.0894 72.0302 37.2766C71.9258 37.3083 71.8687 37.3234 71.8687 37.3234L71.3396 39.1048L70.745 41.1075L70.7452 41.1073Z" fill="black"/>
<path d="M50.7486 45.5217H55.8275C55.8275 45.5217 55.8715 44.34 55.9442 43.068C56.0046 42.0149 56.085 40.9008 56.1777 40.3404C56.1777 40.3404 57.0463 40.216 57.5555 39.5044C57.7178 39.2781 57.8435 38.9917 57.8924 38.6309C58.0696 37.3363 57.3973 36.4771 57.2159 36.2715C57.1877 36.2398 57.1711 36.2239 57.1711 36.2239C57.1711 36.2239 56.1335 37.1384 54.8932 38.473C53.0683 40.4357 50.8037 43.3078 50.7482 45.5217H50.7486Z" fill="#686779"/>
<path d="M50.7484 45.5218H55.8273C55.8273 45.5218 55.8713 44.3402 55.944 43.0682C56.0044 42.015 56.0848 40.9009 56.1774 40.3406C56.1774 40.3406 57.0461 40.2162 57.5553 39.5046C57.5676 39.4878 57.5793 39.4704 57.59 39.4528C57.7357 39.2348 57.8466 38.965 57.8922 38.6309C57.8972 38.595 57.9013 38.559 57.9054 38.524C58.0321 37.2888 57.392 36.4711 57.2157 36.2715C57.1875 36.2398 57.1709 36.2239 57.1709 36.2239C57.1709 36.2239 56.1798 37.0974 54.9776 38.3837C54.9486 38.4129 54.9213 38.4429 54.8931 38.473C53.0682 40.4357 50.8037 43.3078 50.7482 45.5217L50.7484 45.5218Z" fill="black"/>
<g opacity="0.3">
<path d="M52.4353 45.5222H55.826C55.826 45.5222 55.8699 44.3405 55.9427 43.0685C56.0031 42.0153 56.4421 41.0935 56.5348 40.5331C56.5348 40.5331 56.8426 39.5441 56.1364 40.3048C54.7851 41.758 53.1936 43.7089 52.4353 45.5222Z" fill="black"/>
</g>
<path d="M57.1367 36.1852C56.7262 36.4475 56.3424 36.7422 55.9678 37.0486L55.6891 37.281L55.4165 37.5204C55.2341 37.6797 55.0591 37.8465 54.8838 38.0136C54.1796 38.6789 53.548 39.4196 52.9621 40.1969C52.3723 40.9708 51.8051 41.769 51.3321 42.6378C51.0957 43.0718 50.884 43.5243 50.7173 44.0013C50.5512 44.4777 50.4315 44.9829 50.4131 45.5137C50.4067 45.6977 50.5494 45.8519 50.7318 45.8584H50.7393L50.7464 45.8586C51.593 45.8647 52.4395 45.8647 53.2859 45.876C54.1323 45.8855 54.979 45.8956 55.8254 45.8961C56.0121 45.8964 56.1666 45.7568 56.1925 45.5758C56.2555 45.1323 56.3204 44.6887 56.3785 44.2444L56.4682 43.5781L56.5522 42.9109C56.6081 42.4663 56.6705 42.0227 56.6939 41.573C56.7184 41.1236 56.7234 40.672 56.6671 40.2091C56.6636 40.1798 56.6374 40.1589 56.6085 40.1624C56.59 40.1646 56.5745 40.1767 56.567 40.1923C56.3663 40.6143 56.2371 41.0494 56.1276 41.4864C56.0177 41.9235 55.9485 42.3668 55.8736 42.8093L55.7623 43.473L55.6578 44.1376C55.5869 44.5806 55.5232 45.0244 55.4585 45.4684L55.8254 45.1481C54.979 45.1486 54.1323 45.1589 53.2859 45.1682C52.4393 45.1795 51.5929 45.1795 50.7464 45.1856L51.0798 45.5305C51.0872 45.0965 51.1925 44.6528 51.3422 44.2221C51.4929 43.7904 51.6893 43.3685 51.9127 42.9586C52.3609 42.1387 52.9017 41.3592 53.4943 40.6215C53.7923 40.2535 54.1045 39.8967 54.4145 39.5378C54.7259 39.1798 55.0357 38.8198 55.3446 38.4572C55.964 37.7331 56.5927 37.0134 57.2029 36.2621L57.2032 36.2616C57.2211 36.2395 57.218 36.2068 57.1961 36.1887C57.1785 36.1742 57.1543 36.1734 57.136 36.185L57.1367 36.1852Z" fill="black"/>
<g opacity="0.3">
<path d="M72.1564 37.7943C72.1564 37.7943 75.6347 36.9624 77.7362 34.7894C78.4656 34.0352 79.1479 33.1257 79.6903 32.0333C80.2533 30.8992 81.0375 30.064 81.8622 29.9855C82.4576 29.9287 82.9246 30.3052 82.9246 30.3052C82.9246 30.3052 83.6747 30.0789 84.2817 30.3512C84.3959 30.403 84.4937 30.4673 84.5781 30.5384C84.5128 30.3037 84.3207 29.8176 83.8122 29.5888C83.2053 29.3165 82.4551 29.5428 82.4551 29.5428C82.4551 29.5428 81.9881 29.1661 81.3927 29.223C80.568 29.3016 79.7839 30.1367 79.2208 31.2709C78.6784 32.3632 77.9962 33.2728 77.2667 34.0269C75.1652 36.2 72.6779 37.0753 72.0279 37.2766C71.9235 37.3083 71.8664 37.3234 71.8664 37.3234L72.1564 37.7944V37.7943Z" fill="white"/>
</g>
<path d="M84.5828 30.5387C84.6051 30.6206 84.6125 30.6715 84.6125 30.6715C84.6125 30.6715 84.6656 30.6798 84.75 30.7099C84.7019 30.6506 84.6465 30.593 84.5828 30.5387Z" fill="#686779"/>
<g opacity="0.3">
<path d="M70.325 44.0049C70.5048 45.6946 72.4316 43.3882 73.4793 43.343C80.9445 44.1093 87.3773 37.1597 85.555 31.397C85.0032 36.5241 82.7549 39.7012 73.3448 41.4502C71.6289 41.7692 70.2217 43.479 70.325 44.0049Z" fill="black"/>
</g>
<path d="M74.4494 43.696C77.6059 43.696 80.3865 42.6928 82.5209 40.7773C84.4895 39.0107 85.7955 36.5759 86.1985 33.9217C86.3896 32.664 86.2135 31.6792 85.6754 30.9953C85.4016 30.6475 85.0928 30.4815 84.8879 30.4041C84.7949 30.0987 84.5502 29.5535 83.9509 29.284C83.4156 29.0433 82.8065 29.1243 82.5237 29.1834C82.3108 29.0521 81.8797 28.8417 81.3658 28.8907C80.4795 28.975 79.5911 29.7881 78.9286 31.1214C76.6666 35.6724 71.8362 36.9871 71.7876 36.9998C71.6107 37.0463 71.5045 37.2286 71.5504 37.4071C71.5964 37.5856 71.7768 37.693 71.9539 37.6465C72.1638 37.5918 77.1206 36.2499 79.5208 31.4207C80.0706 30.3144 80.7837 29.6172 81.428 29.556C81.8773 29.5128 82.2508 29.802 82.2546 29.805C82.339 29.8713 82.4518 29.8939 82.5543 29.8628C82.5597 29.8612 83.1976 29.6772 83.6813 29.8945C84.1851 30.121 84.2839 30.7134 84.2847 30.7192C84.3058 30.8645 84.4184 30.9789 84.5623 31.0013C84.571 31.003 84.8839 31.0642 85.1567 31.4109C85.5756 31.9434 85.706 32.7543 85.544 33.8209C84.8428 38.439 80.8967 43.2869 73.8916 43.0174C73.7087 43.0105 73.5549 43.1543 73.548 43.3386C73.5411 43.5229 73.6837 43.6781 73.8664 43.6851C74.0621 43.6925 74.2567 43.6964 74.4496 43.6964L74.4494 43.696Z" fill="black"/>
<path d="M81.9482 35.5734C81.2893 35.4526 80.8668 34.7344 81.0047 33.9693C81.1425 33.2041 81.7885 32.6817 82.4475 32.8025C83.1064 32.9233 83.5289 33.6415 83.391 34.4067C83.2531 35.1719 82.6072 35.6942 81.9482 35.5734Z" fill="white"/>
<path d="M83.9794 33.4352C83.7331 33.3671 83.5972 33.0768 83.676 32.7868C83.7548 32.4968 84.0185 32.317 84.2648 32.3851C84.5112 32.4532 84.647 32.7435 84.5682 33.0335C84.4894 33.3235 84.2258 33.5033 83.9794 33.4352Z" fill="white"/>
<path d="M82.8974 32.2876C82.651 32.2195 82.5152 31.9292 82.594 31.6392C82.6728 31.3492 82.9364 31.1694 83.1828 31.2375C83.4292 31.3056 83.565 31.5959 83.4862 31.8859C83.4074 32.1759 83.1438 32.3557 82.8974 32.2876Z" fill="white"/>
<path d="M81.374 32.33C81.1276 32.2618 80.9917 31.9715 81.0706 31.6816C81.1494 31.3916 81.413 31.2117 81.6594 31.2799C81.9057 31.348 82.0416 31.6383 81.9628 31.9283C81.884 32.2182 81.6203 32.3981 81.374 32.33Z" fill="white"/>
<path d="M51.7412 42.9294L53.7432 56.5564H74.9972L75.0696 56.0633L77 42.9293C77.0634 42.4977 76.7315 42.1107 76.2999 42.1107H52.4414C52.009 42.1107 51.678 42.4977 51.7414 42.9293L51.7412 42.9294Z" fill="#FF66AC"/>
<path d="M51.7412 42.9294L53.7432 56.5564H74.9972L75.0696 56.0633L77 42.9293C77.0634 42.4977 76.7315 42.1107 76.2999 42.1107H52.4414C52.009 42.1107 51.678 42.4977 51.7414 42.9293L51.7412 42.9294Z" fill="#F9F9F9"/>
<g opacity="0.4">
<path d="M76.2671 43.7598C76.3305 43.3283 75.9986 42.9413 75.567 42.9413H51.7508L51.7492 42.9296C51.6858 42.4981 52.0168 42.1111 52.4493 42.1111H76.3077C76.7394 42.1111 77.0712 42.4981 77.0078 42.9296L75.0774 56.0637L75.005 56.5568H74.3862L76.2671 43.76V43.7598Z" fill="white"/>
</g>
<g opacity="0.25">
<path d="M51.7458 42.9291L53.7478 56.5562H75.0018L75.0742 56.063C73.1058 55.9845 63.834 56.0067 58.6893 52.5291C54.591 49.7588 54.2405 44.4582 54.8759 42.1106H52.4459C52.0135 42.1106 51.6824 42.4976 51.7458 42.9291Z" fill="black"/>
</g>
<path d="M53.463 56.8906H75.2882L77.3325 42.9779C77.3768 42.6762 77.2889 42.3707 77.0915 42.1399C76.894 41.9089 76.6074 41.7766 76.305 41.7766H52.4462C52.1438 41.7766 51.8572 41.9091 51.6597 42.1399C51.4621 42.3709 51.3744 42.6762 51.4187 42.9779L53.463 56.8906ZM74.7167 56.2225H54.0344L52.0737 42.8799C52.0574 42.769 52.0883 42.6611 52.1611 42.5762C52.2337 42.4914 52.3349 42.4446 52.446 42.4446H76.305C76.4161 42.4446 76.5174 42.4912 76.5899 42.5762C76.6625 42.6611 76.6937 42.769 76.6774 42.8799L74.7167 56.2225Z" fill="black"/>
<g opacity="0.3">
<path d="M73.3999 53.2996C74.2062 51.5069 74.7934 48.4468 74.661 46.6459C74.5288 44.8449 73.4933 45.3959 73.1723 47.703C72.3179 53.8423 73.0399 54.1 73.3999 53.2996Z" fill="white"/>
</g>
<path d="M50.8054 45.091V45.0919C50.3468 47.5953 52.3156 49.4377 52.3156 49.4377C52.1614 48.3769 53.9143 49.5315 55.3305 48.3586C55.5409 48.1844 55.6836 47.9732 55.7792 47.7562C56.052 47.1446 55.9529 46.4864 55.9529 46.4864C55.9529 46.4864 56.4665 45.3464 56.3335 44.629C56.1432 43.599 55.3762 43.3173 55.3762 43.3173C55.3762 43.3173 55.0567 42.4524 54.461 42.2326C53.2167 41.775 51.9564 42.6716 51.5531 43.2859C51.1422 43.9129 50.9105 44.5197 50.8054 45.091Z" fill="black"/>
<g opacity="0.3">
<path d="M50.8468 46.8373C50.8302 46.5233 50.8477 46.1934 50.9106 45.8519V45.8511C51.0157 45.2797 51.2475 44.6727 51.6582 44.0454C52.0615 43.4316 53.3216 42.5347 54.5661 42.9923C54.7457 43.0582 55.0389 43.1651 55.3594 43.2828C55.2932 43.1216 54.9826 42.4267 54.4576 42.233C53.2132 41.7754 51.9529 42.6715 51.5497 43.2861C51.139 43.9134 50.9073 44.5196 50.8021 45.091V45.0918C50.687 45.7216 50.725 46.3103 50.8468 46.8373Z" fill="white"/>
</g>
<g opacity="0.3">
<path d="M50.7765 46.4046C51.0107 48.2136 52.3199 49.4379 52.3199 49.4379C52.165 48.3773 53.9188 49.5314 55.3346 48.3589C55.545 48.1844 55.6874 47.9738 55.7833 47.7566C56.0558 47.1445 55.9572 46.4863 55.9572 46.4863C55.9572 46.4863 56.4706 45.3463 56.3373 44.6289C56.2487 44.1462 56.0326 43.8279 55.8281 43.6259C55.7396 44.2496 55.4505 44.8929 55.4505 44.8929C55.4505 44.8929 55.5499 45.551 55.2767 46.1624C55.1815 46.3795 55.0381 46.5907 54.8279 46.7654C53.4121 47.938 51.6591 46.783 51.8132 47.8445C51.8132 47.8445 51.2328 47.3015 50.7765 46.4046Z" fill="black"/>
</g>
<path d="M52.3129 49.7722C52.3654 49.7722 52.4184 49.7596 52.467 49.7338C52.5913 49.6679 52.6609 49.53 52.6405 49.3897C52.6339 49.3443 52.6339 49.3154 52.6351 49.299C52.725 49.2661 52.9811 49.2703 53.1714 49.2736C53.7854 49.2837 54.7136 49.2992 55.5375 48.6169C56.3385 47.9536 56.3173 46.8767 56.2885 46.5395C56.4174 46.2333 56.7863 45.2708 56.6562 44.5678C56.4844 43.6395 55.9043 43.2211 55.6307 43.072C55.5035 42.7849 55.1586 42.1354 54.5711 41.9192C53.1355 41.3907 51.7152 42.429 51.2739 43.1021C50.052 44.967 50.3405 46.6624 50.7978 47.7564C51.2867 48.9258 52.055 49.6528 52.0874 49.683C52.1501 49.7417 52.231 49.7722 52.3128 49.7722H52.3129ZM52.9748 48.6031C52.6545 48.6031 52.3778 48.629 52.184 48.8021C51.507 47.9652 50.2413 45.89 51.8267 43.4705C52.1565 42.9669 53.2688 42.1512 54.3441 42.5468C54.7122 42.6823 54.9881 43.2341 55.0633 43.4351C55.0974 43.5261 55.1695 43.5983 55.26 43.6317C55.2809 43.64 55.8539 43.8743 56.0049 44.6904C56.0977 45.192 55.7787 46.0578 55.648 46.3491C55.6215 46.4078 55.6124 46.4734 55.6221 46.5373C55.6235 46.5465 55.7619 47.5664 55.1171 48.1004C54.4812 48.6271 53.7607 48.6149 53.1823 48.6055C53.1115 48.6043 53.0422 48.6031 52.9748 48.6031Z" fill="black"/>
<path d="M50.2257 21.0783C50.7468 21.6103 51.3569 21.9281 51.8728 21.3916C52.0139 21.2454 52.1418 21.0604 52.3013 20.8384C52.5487 20.4951 52.8708 20.0612 53.433 19.5382C54.6118 18.4404 55.5675 18.1935 56.061 17.9175C56.3043 17.781 56.4347 17.6381 56.4253 17.3826C56.3766 16.0885 55.4877 15.1477 53.4641 14.8147C52.4081 14.6407 51.3253 14.8977 50.5578 15.3787C50.4882 15.4213 50.4214 15.467 50.3575 15.5138C50.3379 15.5284 50.3185 15.5426 50.2996 15.5578C50.2806 15.5724 50.2617 15.5871 50.2434 15.6023C50.2252 15.6169 50.2067 15.6322 50.1885 15.6475C50.1848 15.651 50.1807 15.6545 50.1766 15.6575C50.1499 15.6809 50.1239 15.7044 50.0984 15.7278C50.0936 15.732 50.0889 15.7366 50.0848 15.7408C50.0681 15.7566 50.0515 15.7725 50.0355 15.7883C49.8737 15.9492 49.7435 16.1235 49.6515 16.3065C48.5909 18.4158 49.3242 20.1587 50.2258 21.0787L50.2257 21.0783Z" fill="black"/>
<g opacity="0.3">
<path d="M50.5578 15.3787C53.6409 14.2141 55.5356 16.9997 56.061 17.9175C56.3043 17.781 56.4347 17.6381 56.4253 17.3826C56.3766 16.0885 55.4877 15.1477 53.4641 14.8147C52.4081 14.6407 51.3253 14.8977 50.5578 15.3787Z" fill="white"/>
</g>
<g opacity="0.3">
<path d="M50.233 21.079C50.7542 21.6109 51.3642 21.9287 51.8801 21.3923C52.0212 21.246 52.1491 21.061 52.3086 20.839C51.9356 20.8274 51.5667 20.6771 51.2831 20.3873C50.336 19.4206 49.5517 17.6624 50.3647 15.5143C50.3451 15.5289 50.3257 15.543 50.3067 15.5583C50.2878 15.5729 50.2689 15.5875 50.2506 15.6028C50.2323 15.6174 50.2139 15.6327 50.1956 15.6479C50.192 15.6514 50.1879 15.6549 50.1838 15.6579C50.1571 15.6813 50.1311 15.7049 50.1056 15.7283C50.1008 15.7325 50.096 15.7371 50.0919 15.7413C50.0753 15.757 50.0587 15.773 50.0427 15.7887C49.8809 15.9496 49.7507 16.124 49.6587 16.3069C48.5981 18.4162 49.3314 20.1591 50.233 21.0791V21.079Z" fill="black"/>
</g>
<path d="M51.3679 22.0266C51.5445 22.0266 51.691 21.8862 51.6986 21.7065C51.7061 21.5222 51.5642 21.3665 51.3815 21.3588C51.0669 21.3455 50.3808 20.9462 49.9076 20.1312C49.5466 19.5097 49.0723 18.206 49.9514 16.4578C50.4366 15.4926 51.6564 14.8959 52.9876 14.9719C54.4957 15.0584 55.7146 15.9756 56.2488 17.4254C56.3125 17.5983 56.503 17.6866 56.6746 17.6222C56.8462 17.5579 56.9334 17.3657 56.8699 17.1927C56.2411 15.4865 54.804 14.4069 53.0252 14.3048C51.4358 14.2142 49.9629 14.9575 49.3604 16.1556C48.3391 18.1866 48.9067 19.7297 49.3359 20.4689C49.8437 21.3435 50.6925 21.9986 51.3539 22.0265C51.3585 22.0266 51.3632 22.0268 51.3679 22.0268V22.0266Z" fill="black"/>
<path d="M71.6586 17.5413C71.6435 18.5855 72.7332 18.0548 74.4633 19.723C75.3734 20.6005 75.4022 20.8972 75.7542 21.2764C76.2607 21.8222 77.1132 21.8426 77.6433 21.3201C78.5607 20.4157 79.324 18.6864 78.3002 16.5587C77.8095 15.5389 76.1385 14.762 74.514 15C72.4853 15.2975 71.6774 16.2466 71.6586 17.5413Z" fill="black"/>
<g opacity="0.3">
<path d="M75.3731 20.7707C75.5043 20.9603 75.597 21.1104 75.7506 21.2766C76.2569 21.8222 77.1099 21.8427 77.6397 21.3199C78.5571 20.416 79.3205 18.6862 78.2968 16.5587C78.1589 16.2718 77.9274 16.0043 77.6298 15.7728C78.4255 17.8428 77.6537 19.5154 76.7376 20.4182C76.3642 20.7858 75.8409 20.9022 75.3731 20.7707Z" fill="#343C47"/>
</g>
<g opacity="0.3">
<path d="M77.4531 15.6159C74.3908 14.397 72.4481 17.1487 71.9067 18.0571C71.6658 17.9163 71.5378 17.7712 71.5518 17.5158C71.6229 16.2228 72.5281 15.2979 74.5571 15.0006C75.616 14.8452 76.6941 15.1214 77.4531 15.6157V15.6159Z" fill="white"/>
</g>
<path d="M76.4903 22.2485C76.4931 22.2485 76.4957 22.2485 76.4985 22.2485C77.1602 22.2322 78.0202 21.5923 78.5431 20.7267C78.9851 19.9954 79.5792 18.4625 78.5935 16.4138C78.0119 15.2052 76.5513 14.4355 74.9615 14.4986C73.1812 14.5692 71.7255 15.6233 71.0676 17.3182C71.0009 17.4901 71.0849 17.6838 71.2552 17.7511C71.4251 17.8183 71.6177 17.7336 71.6844 17.5618C72.2434 16.1216 73.4783 15.226 74.9875 15.1662C76.3217 15.1129 77.5293 15.7319 77.9978 16.7055C78.8462 18.4688 78.3494 19.7641 77.9777 20.3791C77.4903 21.1857 76.7974 21.5729 76.4825 21.5805C76.2996 21.585 76.1549 21.7381 76.1596 21.9225C76.1638 22.1042 76.3113 22.2485 76.4904 22.2485H76.4903Z" fill="black"/>
<g opacity="0.3">
<path d="M54.9782 38.3835C55.2771 38.553 55.6572 38.7376 56.1076 38.9237C56.5399 39.1024 57.0383 39.2829 57.5906 39.4524C59.2474 39.9626 61.3969 40.381 63.7708 40.3978C66.8667 40.4303 69.5941 39.7723 71.3422 39.1041C71.8299 38.9169 72.2414 38.73 72.5634 38.5561C72.6173 38.5277 72.6686 38.4994 72.7175 38.471C74.2104 37.6091 75.151 36.8156 75.9327 35.8126C76.2756 35.3724 76.5686 34.9223 76.8203 34.468C74.8273 36.3205 72.6363 37.0887 72.0327 37.2758C71.9871 37.1656 71.9417 37.0587 71.8969 36.9542C71.2477 35.4309 70.8082 34.5138 70.8082 34.5138H58.0105C58.0105 34.5138 57.7009 35.161 57.2164 36.271C57.1883 36.2393 57.1716 36.2233 57.1716 36.2233C57.1716 36.2233 56.1805 37.0969 54.9783 38.3831L54.9782 38.3835Z" fill="black"/>
</g>
<path d="M49.5784 30.0431C49.5883 30.2201 49.6041 30.3838 49.6265 30.5342C49.8533 32.081 50.3088 33.8089 51.949 35.3982C52.7141 36.1399 53.643 36.732 55.1227 37.3825C56.4989 37.9856 59.936 38.8899 64.0405 38.9208C68.1441 38.9625 71.596 38.119 72.9821 37.5394C74.4733 36.9156 75.4123 36.3401 76.1905 35.6119C77.8581 34.0527 78.3425 32.3322 78.5959 30.7898C78.629 30.5877 78.6513 30.3589 78.6637 30.1083C78.7937 27.5561 77.8688 22.7397 76.1698 20.5683C75.4544 19.6554 74.725 18.8037 73.8456 18.0494C71.9877 16.4568 69.4655 15.3058 65.0224 14.9568C64.7649 14.9367 64.5065 14.9259 64.2482 14.9243C63.9899 14.9218 63.7315 14.9276 63.4732 14.9435C58.9796 15.2166 56.4311 16.3432 54.539 17.9283C53.673 18.6549 52.9451 19.4768 52.2305 20.3569C50.4494 22.5526 49.4352 27.5443 49.5784 30.0431Z" fill="#F9F9F9"/>
<g opacity="0.3">
<path d="M49.3054 29.8502C49.3152 30.0272 49.331 30.1909 49.3534 30.3413C49.5803 31.8881 50.0357 33.616 51.6759 35.2053C52.4411 35.947 53.37 36.5391 54.8497 37.1896C56.2258 37.7926 59.663 38.697 63.7674 38.7279C67.871 38.7696 71.323 37.9261 72.709 37.3465C74.2002 36.7227 75.1392 36.1472 75.9175 35.419C77.585 33.8598 78.0695 32.1393 78.3228 30.5968C78.3559 30.3948 78.3783 30.166 78.3906 29.9154C78.3824 29.71 78.3691 29.4962 78.3518 29.2765C78.3485 29.295 78.346 29.3116 78.3435 29.3292C78.0902 30.8708 77.6049 32.5913 75.9382 34.1513C75.1591 34.8795 74.2202 35.455 72.7289 36.078C71.3429 36.6584 67.8918 37.5011 63.7873 37.4602C59.6829 37.4285 56.2458 36.5248 54.8704 35.9203C53.3899 35.2714 52.4618 34.6791 51.6959 33.9376C50.0555 32.3483 49.6002 30.6196 49.3742 29.0728C49.3709 29.056 49.3692 29.0386 49.3668 29.021C49.3378 29.3091 49.317 29.5863 49.3055 29.8503L49.3054 29.8502Z" fill="black"/>
</g>
<path d="M64.0715 39.0639C68.3351 39.0639 71.6593 38.1499 72.8419 37.6553C74.3359 37.0305 75.3249 36.4349 76.1491 35.6642C77.9024 34.0241 78.4004 32.2098 78.6562 30.6516C79.0472 28.2693 78.0858 22.6255 76.163 20.1688C74.9491 18.618 73.7962 17.3849 72.1135 16.4064C70.215 15.3025 67.8851 14.6747 64.7812 14.4311C64.5229 14.4109 64.2547 14.3994 63.9844 14.3969C63.7136 14.3943 63.445 14.4012 63.1872 14.417C60.0795 14.6058 57.739 15.1922 55.8216 16.2627C54.1223 17.2112 52.9478 18.4239 51.7074 19.9529C49.7423 22.3752 48.683 28.0013 49.0326 30.3899C49.2613 31.9526 49.7276 33.7754 51.4523 35.446C52.2628 36.2312 53.2415 36.8442 54.7243 37.4952C55.9256 38.0227 59.3623 39.0291 63.7706 39.0623C63.8712 39.0633 63.9719 39.0638 64.0715 39.0638V39.0639ZM63.8779 15.0645C63.9115 15.0645 63.9449 15.0645 63.9785 15.065C64.2338 15.0672 64.4865 15.0782 64.7296 15.0971C71.2519 15.6091 73.531 17.8845 75.643 20.5829C77.4336 22.8707 78.366 28.3278 78.0025 30.5425C77.765 31.9893 77.3054 33.6713 75.6984 35.1744C74.9353 35.8882 74.0051 36.4456 72.5879 37.0383C71.4208 37.5264 68.0767 38.4383 63.776 38.3945C59.474 38.3619 56.1467 37.3915 54.9883 36.8829C53.5817 36.2652 52.6612 35.6914 51.9106 34.9644C50.33 33.433 49.8998 31.7434 49.6873 30.2925C49.3624 28.0717 50.3892 22.6321 52.2194 20.3762C54.378 17.7155 56.6962 15.4808 63.2264 15.084C63.4371 15.0712 63.6557 15.0647 63.8774 15.0647L63.8779 15.0645Z" fill="black"/>
<g opacity="0.26">
<path d="M73.6692 31.8093C73.6692 31.8093 75.6437 31.4017 75.0422 28.9289C74.4408 26.456 70.3914 24.7829 69.2166 24.9597C68.0419 25.1365 67.6202 26.0663 67.5043 26.7011C67.3884 27.3357 67.1672 30.2992 68.8452 31.2157C70.5231 32.1321 72.628 32.0589 73.6692 31.8095V31.8093Z" fill="black"/>
</g>
<path d="M68.4678 28.7097C68.2709 27.3713 68.9088 26.167 69.8925 26.0198C70.8763 25.8726 71.8333 26.8382 72.0302 28.1765C72.2271 29.5149 71.5892 30.7192 70.6055 30.8664C69.6218 31.0137 68.6647 30.0481 68.4678 28.7097Z" fill="black"/>
<path d="M69.0774 28.13C69.0139 27.6676 69.1766 27.2629 69.4406 27.2261C69.7046 27.1892 69.9701 27.5341 70.0336 27.9965C70.097 28.4588 69.9344 28.8635 69.6704 28.9004C69.4063 28.9372 69.1408 28.5923 69.0774 28.13Z" fill="white"/>
<path d="M70.9707 29.0141C71.0227 29.2412 71.1686 29.394 71.2968 29.3551C71.4249 29.3165 71.4866 29.1009 71.4348 28.8738C71.3827 28.6467 71.2369 28.4939 71.1087 28.5328C70.9806 28.5715 70.9189 28.787 70.9707 29.0141Z" fill="white"/>
<g opacity="0.26">
<path d="M58.7842 31.9906C58.7842 31.9906 61.5716 31.6559 61.1082 28.4094C60.6448 25.1628 59.9081 24.9423 58.2647 24.9964C56.6212 25.0507 54.0781 26.5428 53.2068 27.6608C52.3355 28.7787 52.1845 30.7943 52.5837 31.5558C52.9111 32.1802 54.013 32.5709 55.6325 32.4876C57.252 32.4042 58.1705 32.16 58.784 31.9906H58.7842Z" fill="black"/>
</g>
<path d="M64.2695 32.0058C63.9418 32.92 62.3982 33.7279 61.9947 31.7682L64.2695 32.0058Z" fill="white"/>
<path d="M64.4378 31.9532C64.4207 32.9335 66.1285 33.6793 66.4062 31.7717L64.4378 31.9532Z" fill="white"/>
<path d="M66.3643 31.7598C66.3218 31.8857 66.278 32.0102 66.2232 32.1234C66.1699 32.238 66.1088 32.3439 66.0375 32.4304C65.9664 32.5173 65.8891 32.5863 65.8076 32.6287C65.7259 32.6707 65.6423 32.6901 65.5513 32.6869C65.3699 32.6816 65.1641 32.5837 64.9929 32.4362C64.8222 32.289 64.6824 32.0919 64.614 31.8981L64.3058 31.0276L63.9889 31.8926C63.9181 32.0861 63.7716 32.2778 63.5999 32.4231C63.4264 32.5674 63.2204 32.6635 63.0378 32.6683C62.9463 32.6722 62.861 32.6532 62.7777 32.6102C62.6956 32.5666 62.6134 32.4993 62.5415 32.4102C62.5045 32.3672 62.4727 32.3157 62.4379 32.2659C62.4077 32.2119 62.3746 32.1591 62.3487 32.0998C62.29 31.9858 62.2442 31.8599 62.1966 31.7329L62.1933 31.7239C62.1591 31.6326 62.0579 31.5865 61.9672 31.6212C61.8913 31.6502 61.847 31.7268 61.8547 31.8045C61.8699 31.9539 61.8906 32.1048 61.9334 32.2557C61.9751 32.4057 62.031 32.5586 62.1199 32.7034C62.2068 32.8475 62.3227 32.9901 62.4804 33.0959C62.6358 33.2018 62.8282 33.2726 63.0185 33.2807C63.209 33.2908 63.3922 33.2548 63.5576 33.1938C63.7241 33.1332 63.8714 33.0424 64.0052 32.939C64.2717 32.7304 64.4856 32.4595 64.6122 32.1201L63.9871 32.1146C64.1068 32.4572 64.3191 32.729 64.5804 32.9433C64.7121 33.0494 64.8576 33.1427 65.0227 33.207C65.1867 33.2719 65.369 33.3122 65.5603 33.3066C65.7513 33.3039 65.947 33.2387 66.1063 33.1361C66.2672 33.0331 66.3915 32.896 66.4833 32.7524C66.5766 32.6086 66.6431 32.4588 66.6899 32.3084C66.7413 32.1585 66.7687 32.0075 66.7938 31.8581C66.814 31.7371 66.7332 31.6225 66.6134 31.6021C66.5054 31.5836 66.4023 31.6481 66.3681 31.7495L66.3645 31.7603L66.3643 31.7598Z" fill="black"/>
<path d="M64.2616 30.41L63.9706 32.2285L64.6328 32.2421L64.461 30.4222L64.2616 30.41Z" fill="black"/>
<path d="M62.44 30.0341C62.4285 30.6673 63.2703 31.1965 64.3202 31.2157C65.3701 31.2352 66.2305 30.7374 66.2421 30.1041C66.2536 29.4709 65.4017 29.4996 64.3518 29.4802C63.3019 29.4607 62.4517 29.4006 62.4402 30.0339L62.44 30.0341Z" fill="black"/>
<g opacity="0.3">
<path d="M63.5649 29.9371C63.562 30.1029 63.8737 30.2431 64.2614 30.2502C64.6491 30.2573 64.9658 30.1287 64.9687 29.963C64.9717 29.7971 64.6573 29.8029 64.2696 29.7958C63.882 29.7886 63.5679 29.7712 63.5649 29.9371Z" fill="white"/>
</g>
<path d="M57.791 30.867C56.8072 30.7198 56.1694 29.5155 56.3663 28.1771C56.5632 26.8388 57.5202 25.8732 58.504 26.0204C59.4877 26.1676 60.1255 27.3719 59.9287 28.7103C59.7318 30.0487 58.7747 31.0143 57.791 30.867Z" fill="black"/>
<path d="M58.7259 28.9017C58.4619 28.8649 58.2993 28.4602 58.3627 27.9978C58.4262 27.5355 58.6916 27.1906 58.9557 27.2274C59.2197 27.2643 59.3823 27.669 59.3189 28.1313C59.2555 28.5937 58.99 28.9386 58.7259 28.9017Z" fill="white"/>
<path d="M57.4309 29.0133C57.3788 29.2404 57.233 29.3931 57.1048 29.3543C56.9767 29.3156 56.915 29.1001 56.9668 28.873C57.0188 28.6458 57.1647 28.4931 57.2929 28.5319C57.421 28.5706 57.4827 28.7861 57.4309 29.0133Z" fill="white"/>
<path d="M56.8835 34.0938C53.9542 34.0938 51.5795 31.6986 51.5795 28.744C51.5795 25.7894 53.9542 23.3942 56.8835 23.3942C59.8128 23.3942 62.1875 25.7894 62.1875 28.744C62.1875 31.6986 59.8128 34.0938 56.8835 34.0938Z" stroke="black" stroke-miterlimit="10"/>
<path d="M66.5053 28.7442C66.5053 27.9631 66.6712 27.2211 66.9695 26.5522C67.7995 24.6906 69.6543 23.3942 71.8093 23.3942C74.7386 23.3942 77.1133 25.7894 77.1133 28.744C77.1133 31.6986 74.7386 34.0938 71.8093 34.0938C68.88 34.0938 66.5053 31.6986 66.5053 28.744V28.7442Z" stroke="black" stroke-miterlimit="10"/>
<path d="M66.8438 26.6255C66.8438 26.6255 64.269 24.9902 61.7353 26.5743" stroke="black" stroke-miterlimit="10"/>
<path d="M51.7422 27.456L49.6289 24.6686L49.2807 26.2537L51.5873 28.7439L51.7422 27.456Z" fill="black"/>
<path d="M77.014 27.4829L78.1923 25.2177L78.4727 26.826L77.2004 28.855L77.014 27.4829Z" fill="black"/>
</g>
<path d="M111.012 28.8727L110.995 28.8769L110.806 28.9215C110.641 28.9603 110.4 29.0168 110.094 29.0875C109.482 29.2288 108.611 29.4269 107.572 29.6545C105.513 30.1056 102.794 30.6729 100.135 31.1418C99.8663 31.2765 99.5187 31.56 99.1039 32.0057C98.6723 32.4695 98.2012 33.0722 97.7082 33.7722C96.7229 35.1715 95.6756 36.9234 94.7142 38.645C93.7539 40.3645 92.8845 42.0442 92.2549 43.2947C91.9402 43.9197 91.6857 44.4369 91.51 44.7977C91.4222 44.978 91.354 45.1192 91.3079 45.2152L91.2556 45.3244L91.2424 45.3521L91.2401 45.3569L91.2391 45.359L91.2379 45.3617L91.2294 45.3801L91.1966 45.4512C91.1678 45.5135 91.1255 45.6047 91.0712 45.7209C90.9627 45.9532 90.8064 46.2856 90.6149 46.6865C90.232 47.488 89.7074 48.5649 89.1419 49.6643C88.5772 50.762 87.9677 51.8899 87.4151 52.7901C87.1393 53.2396 86.8722 53.6412 86.6276 53.9569C86.3984 54.2527 86.1407 54.5387 85.8755 54.6795L85.8754 54.6795C84.9199 55.1864 83.3304 55.5971 81.5397 55.9362C79.7302 56.2788 77.6533 56.559 75.6822 56.784C73.7097 57.0091 71.8362 57.1797 70.4325 57.3024C70.1639 57.3258 69.9131 57.3475 69.6823 57.3675C69.3083 57.3998 68.9866 57.4276 68.7263 57.4512C68.5548 57.4668 68.4126 57.4803 68.3016 57.4919C68.28 57.6457 68.2645 57.8625 68.2565 58.1342C68.2387 58.7346 68.2589 59.5338 68.2995 60.3458C68.34 61.1558 68.4002 61.9675 68.4607 62.5892C68.491 62.9007 68.521 63.1597 68.5479 63.3449C68.5488 63.3512 68.5497 63.3574 68.5506 63.3635C68.5538 63.3637 68.5569 63.3639 68.5602 63.3641C68.767 63.3778 69.071 63.3786 69.4613 63.3675C70.2379 63.3453 71.3017 63.2777 72.4959 63.1927C73.0234 63.1552 73.5761 63.1143 74.139 63.0727C76.112 62.9267 78.2115 62.7713 79.8015 62.7185M111.012 28.8727L79.8181 63.2183M111.012 28.8727L120.846 28.4717L120.885 28.4804C120.953 28.4955 121.052 28.5177 121.18 28.5467C121.435 28.6045 121.805 28.6891 122.259 28.7957C123.169 29.0089 124.419 29.3099 125.78 29.6614C128.421 30.3434 131.437 31.2041 133.22 31.9747C133.225 32.0029 133.23 32.0355 133.235 32.0729C133.267 32.2925 133.298 32.6112 133.329 33.0117C133.364 33.4648 133.399 34.0004 133.437 34.588C133.466 35.0421 133.497 35.5272 133.533 36.0293C133.613 37.1709 133.712 38.3833 133.851 39.4451C133.972 40.3681 134.128 41.2262 134.348 41.8263L131.46 47.9172L131.428 47.9867L131.417 48.063L111.012 28.8727ZM79.8015 62.7185L79.8181 63.2183M79.8015 62.7185C79.8015 62.7185 79.8014 62.7186 79.8014 62.7186L79.8181 63.2183M79.8015 62.7185C80.696 62.6887 83.6072 62.3461 86.5502 61.7372C88.0186 61.4334 89.4784 61.0666 90.688 60.6454C91.9243 60.2149 92.8089 59.757 93.2165 59.3142C94.8675 57.5204 96.5064 54.7103 97.9076 52.092C98.3586 51.2491 98.7799 50.4363 99.1679 49.6875C99.3816 49.2752 99.5852 48.8823 99.7781 48.5145C100.311 47.4986 100.774 46.6526 101.122 46.1849L101.911 45.1257L102.021 46.4416L101.523 46.4835M79.8181 63.2183C81.6849 63.156 91.585 61.8251 93.5843 59.6528C95.8325 57.2103 98.0206 52.9881 99.6146 49.9123C100.187 48.8069 100.684 47.8496 101.078 47.1762C101.073 47.1083 101.068 47.0452 101.063 46.9871C101.051 46.8392 101.041 46.7237 101.035 46.6452L101.027 46.5558L101.025 46.533L101.025 46.5273L101.025 46.5259L101.025 46.5255C101.025 46.5255 101.025 46.5254 101.523 46.4835M101.523 46.4835C102.021 46.4416 102.021 46.4416 102.021 46.4417L102.021 46.4421L102.021 46.4436L102.022 46.4495L102.024 46.4726L102.031 46.5627C102.038 46.6416 102.047 46.7576 102.06 46.906C102.084 47.2028 102.118 47.6293 102.158 48.1482C102.239 49.1859 102.344 50.594 102.442 52.0747C102.54 53.5548 102.631 55.1103 102.683 56.4419C102.734 57.7608 102.749 58.8958 102.688 59.5135M101.523 46.4835L101.924 46.7821C101.827 46.9124 101.715 47.0845 101.589 47.2943C101.792 49.828 102.382 57.5418 102.19 59.4638M102.688 59.5135L102.19 59.4638M102.688 59.5135C102.688 59.5135 102.688 59.5134 102.688 59.5134L102.19 59.4638M102.688 59.5135L102.19 59.4638M129.916 90.3084C129.88 90.3187 129.836 90.3303 129.786 90.3431L129.79 90.4752L129.795 90.6601L129.796 90.7075L129.797 90.7195L129.797 90.7225L129.797 90.7233C129.797 90.7233 129.797 90.7234 129.826 90.7226C129.873 90.7213 129.992 90.718 130.297 90.7093C130.075 90.261 130.076 90.2608 130.076 90.2605L130.077 90.2601L130.079 90.2591L130.082 90.2575L130.088 90.255L130.093 90.2529C130.093 90.2527 130.088 90.2548 130.076 90.2591C130.052 90.2678 130.002 90.2844 129.916 90.3084ZM99.2546 90.6914C99.2562 90.653 99.2587 90.6066 99.2622 90.5519C99.2165 90.5381 99.1783 90.5251 99.1474 90.5131C99.1125 90.4995 99.0989 90.4917 99.0988 90.4919C99.0988 90.4919 99.1009 90.4933 99.1048 90.496C99.1125 90.5015 99.1385 90.5209 99.1671 90.5577C99.1966 90.5957 99.2377 90.664 99.2506 90.7605L98.755 90.8268L99.2506 90.7606C99.2518 90.769 99.2522 90.774 99.2524 90.774C99.2528 90.7739 99.2521 90.7514 99.2546 90.6914Z" fill="black" stroke="black"/>
<path d="M136.284 89.574H119.585C116.524 89.574 114.038 87.0885 114.038 84.0263V56.2415C114.038 53.1803 116.523 50.6938 119.585 50.6938H136.284C139.346 50.6938 141.832 53.1792 141.832 56.2415V84.0263C141.832 87.0875 139.347 89.574 136.284 89.574Z" fill="#F9F9F9" stroke="black"/>
<path d="M16.1178 39.8652C19.5638 39.8652 22.3568 37.0722 22.3568 33.6262C22.3568 32.6951 22.1531 31.8144 21.7883 31.0209C20.801 28.8744 18.6327 27.3871 16.1178 27.3871C12.6717 27.3871 9.87869 30.1801 9.87869 33.6262C9.87869 34.81 10.2082 35.9156 10.7799 36.8584L16.1178 39.8652ZM16.1178 39.8652C13.8555 39.8652 11.8743 38.6617 10.78 36.8586L16.1178 39.8652Z" fill="#F9F9F9" stroke="black"/>
<path d="M27.1808 35.0444C27.1808 37.3715 25.2934 39.2599 22.9653 39.2599C22.1129 39.2599 21.3203 39.0066 20.6569 38.5719C19.5082 37.8191 18.7498 36.5201 18.7498 35.0444C18.7498 32.7161 20.6371 30.8289 22.9653 30.8289C25.1583 30.8289 26.9614 32.5039 27.1623 34.6451C27.1746 34.7769 27.1808 34.91 27.1808 35.0444Z" fill="#F9F9F9" stroke="black"/>
<path d="M18.6663 45.1171C18.6295 45.1138 18.584 45.1088 18.5313 45.1012C18.7695 45.1066 19.0191 45.0795 19.2792 45.0192C20.7593 44.6764 21.7046 43.7661 22.3043 42.6795C22.2546 42.8593 22.2016 43.0231 22.1454 43.168C22.0437 43.4304 21.943 43.6001 21.8567 43.6948C21.7116 43.8537 21.6166 44.0722 21.5477 44.2742C21.4739 44.4901 21.4095 44.7503 21.3521 45.0405C21.237 45.6218 21.1414 46.367 21.0612 47.2091C20.9006 48.8957 20.7976 51.016 20.7314 53.0872C20.6651 55.1604 20.6354 57.1925 20.6223 58.7057C20.6158 59.4625 20.6134 60.0899 20.6126 60.5283C20.6125 60.595 20.6124 60.6573 20.6124 60.715H19.2665V45.6234V45.1234H18.7684C18.768 45.1234 18.7676 45.1234 18.7669 45.1234L18.7495 45.1228C18.7322 45.1221 18.704 45.1205 18.6663 45.1171Z" fill="#F9F9F9" stroke="black"/>
<path d="M14.3573 34.2189L14.2051 34.2474L14.2031 34.2494C12.2011 34.6416 10.9808 35.2537 10.3517 36.0133C10.047 35.278 9.87869 34.472 9.87869 33.626C9.87869 30.18 12.6717 27.387 16.1178 27.387C18.5132 27.387 20.5941 28.7363 21.6397 30.7193C20.2913 32.0735 17.9123 33.5549 14.3573 34.2189Z" fill="#F9F9F9" stroke="black"/>
<path d="M24.2039 35.8581L24.2039 35.8581C22.0935 36.4663 20.9015 37.3674 20.2471 38.2676C19.3313 37.4945 18.7498 36.3378 18.7498 35.0456C18.7498 32.7174 20.6371 30.8301 22.9653 30.8301C25.075 30.8301 26.8238 32.3802 27.1325 34.4043C26.5062 34.9455 25.5718 35.464 24.2039 35.8581Z" fill="#F9F9F9" stroke="black"/>
<path d="M12.3346 56.4084L11.7945 54.4664H26.3015L25.6534 56.4084H12.3346Z" fill="#F9F9F9" stroke="black"/>
<path d="M15.2731 63.0657L13.8836 57.4095H24.4218L23.4494 63.0657H15.2731Z" fill="#F9F9F9" stroke="black"/>
<mask id="path-99-inside-1_4_1890" fill="white">
<path d="M23.3904 30.9213L23.7972 31.0469C23.7972 31.0469 24.4368 29.308 24.4794 29.0718C24.5209 28.8355 23.3916 30.9213 23.3916 30.9213H23.3904Z"/>
</mask>
<path d="M23.3904 30.9213L23.7972 31.0469C23.7972 31.0469 24.4368 29.308 24.4794 29.0718C24.5209 28.8355 23.3916 30.9213 23.3916 30.9213H23.3904Z" fill="#F9F9F9"/>
<path d="M23.3904 30.9213V29.9213L23.0954 31.8768L23.3904 30.9213ZM23.7972 31.0469L23.5022 32.0024L24.4084 32.2822L24.7357 31.3921L23.7972 31.0469ZM24.4794 29.0718L25.4635 29.2494L25.4643 29.2447L24.4794 29.0718ZM23.3916 30.9213V31.9213H23.9873L24.2709 31.3974L23.3916 30.9213ZM23.0954 31.8768L23.5022 32.0024L24.0922 30.0914L23.6854 29.9658L23.0954 31.8768ZM23.7972 31.0469C24.7357 31.3921 24.7357 31.3921 24.7358 31.3921C24.7358 31.3921 24.7358 31.392 24.7358 31.392C24.7358 31.3919 24.7358 31.3918 24.7359 31.3917C24.736 31.3915 24.7361 31.3911 24.7363 31.3907C24.7366 31.3898 24.7371 31.3885 24.7377 31.3868C24.739 31.3834 24.7408 31.3783 24.7432 31.3718C24.748 31.3588 24.755 31.3397 24.7638 31.3154C24.7816 31.2669 24.807 31.1974 24.8376 31.1133C24.8987 30.9452 24.9808 30.7182 25.0644 30.4832C25.1477 30.2491 25.234 30.0031 25.3027 29.7986C25.3578 29.6348 25.4367 29.3981 25.4635 29.2494L23.4953 28.8941C23.5008 28.8636 23.4838 28.9328 23.4069 29.1615C23.3438 29.3494 23.2621 29.5825 23.1802 29.8126C23.0986 30.0419 23.0182 30.2644 22.958 30.4298C22.928 30.5124 22.9031 30.5806 22.8857 30.628C22.877 30.6518 22.8702 30.6703 22.8656 30.6828C22.8633 30.6891 22.8615 30.6939 22.8604 30.6971C22.8598 30.6987 22.8594 30.6999 22.8591 30.7006C22.8589 30.701 22.8588 30.7013 22.8588 30.7015C22.8587 30.7016 22.8587 30.7017 22.8587 30.7017C22.8587 30.7017 22.8587 30.7017 22.8587 30.7017C22.8587 30.7017 22.8587 30.7017 23.7972 31.0469ZM25.4643 29.2447C25.4658 29.2363 25.5141 29.0163 25.4355 28.7614C25.3867 28.6035 25.2452 28.3009 24.8855 28.1403C24.5428 27.9873 24.2409 28.0719 24.1157 28.12C23.8932 28.2054 23.7587 28.3519 23.7493 28.3616C23.7067 28.4048 23.6746 28.4447 23.6567 28.4675C23.5914 28.5511 23.5244 28.6573 23.4756 28.7364C23.3645 28.9167 23.219 29.17 23.0798 29.4171C22.9386 29.6676 22.7968 29.9246 22.6906 30.1182C22.6374 30.2152 22.5929 30.2967 22.5617 30.354C22.5461 30.3827 22.5338 30.4053 22.5254 30.4209C22.5211 30.4287 22.5179 30.4347 22.5157 30.4388C22.5146 30.4408 22.5137 30.4424 22.5131 30.4435C22.5128 30.444 22.5126 30.4444 22.5125 30.4447C22.5124 30.4448 22.5123 30.445 22.5123 30.445C22.5122 30.4451 22.5122 30.4451 22.5122 30.4451C22.5122 30.4452 22.5122 30.4452 23.3916 30.9213C24.2709 31.3974 24.2709 31.3974 24.2709 31.3974C24.2709 31.3974 24.271 31.3974 24.271 31.3974C24.271 31.3974 24.271 31.3973 24.2711 31.3972C24.2712 31.397 24.2714 31.3966 24.2716 31.3962C24.2721 31.3952 24.2729 31.3938 24.2739 31.3919C24.276 31.3881 24.2791 31.3825 24.2831 31.375C24.2912 31.3601 24.3031 31.3382 24.3183 31.3103C24.3487 31.2545 24.3921 31.1749 24.4442 31.08C24.5484 30.8899 24.6863 30.6402 24.8223 30.3988C24.9602 30.154 25.0893 29.9301 25.1782 29.7858C25.2295 29.7026 25.2439 29.6845 25.2324 29.6993C25.228 29.7049 25.2076 29.731 25.1749 29.7643C25.1584 29.781 25.1277 29.8109 25.085 29.8444C25.0497 29.872 24.9621 29.9374 24.8323 29.9872C24.7101 30.0341 24.4107 30.1186 24.07 29.9665C23.7123 29.8067 23.5722 29.5061 23.5244 29.3511C23.4781 29.2011 23.4795 29.0774 23.481 29.0292C23.483 28.9697 23.4902 28.9234 23.4945 28.8988L25.4643 29.2447ZM23.3916 29.9213H23.3904V31.9213H23.3916V29.9213Z" fill="black" mask="url(#path-99-inside-1_4_1890)"/>
<mask id="path-101-inside-2_4_1890" fill="white">
<path d="M27.2313 31.0459L25.2146 31.6578C25.2146 31.6578 25.2285 31.8387 25.4923 31.8387C25.7562 31.8387 27.2313 31.0459 27.2313 31.0459Z"/>
</mask>
<path d="M27.2313 31.0459L25.2146 31.6578C25.2146 31.6578 25.2285 31.8387 25.4923 31.8387C25.7562 31.8387 27.2313 31.0459 27.2313 31.0459Z" fill="#F9F9F9"/>
<path d="M27.2313 31.0459L27.7047 31.9267L26.9409 30.089L27.2313 31.0459ZM25.2146 31.6578L24.9243 30.7009L24.1564 30.9339L24.2175 31.734L25.2146 31.6578ZM26.9409 30.089L24.9243 30.7009L25.505 32.6147L27.5216 32.0028L26.9409 30.089ZM25.2146 31.6578C24.2175 31.734 24.2176 31.7347 24.2176 31.7354C24.2177 31.7357 24.2177 31.7364 24.2178 31.7368C24.2178 31.7378 24.2179 31.7388 24.218 31.7397C24.2181 31.7417 24.2183 31.7436 24.2185 31.7456C24.2188 31.7496 24.2192 31.7536 24.2196 31.7578C24.2205 31.7661 24.2214 31.7748 24.2226 31.7839C24.2248 31.8021 24.2278 31.822 24.2317 31.8433C24.2393 31.8857 24.2508 31.9356 24.2684 31.9904C24.3031 32.0991 24.3649 32.238 24.4758 32.3757C24.7294 32.6904 25.1042 32.8387 25.4923 32.8387V30.8387C25.541 30.8387 25.6321 30.8473 25.7416 30.8957C25.8548 30.9457 25.9552 31.024 26.0332 31.1209C26.1077 31.2133 26.1496 31.3069 26.1735 31.3817C26.1856 31.4196 26.1939 31.4553 26.1998 31.4879C26.2028 31.5043 26.2052 31.5202 26.2071 31.5358C26.2081 31.5435 26.209 31.5513 26.2097 31.5589C26.2101 31.5627 26.2105 31.5665 26.2108 31.5703C26.211 31.5722 26.2111 31.5741 26.2113 31.576C26.2114 31.5769 26.2114 31.5778 26.2115 31.5788C26.2115 31.5793 26.2116 31.58 26.2116 31.5802C26.2117 31.5809 26.2117 31.5816 25.2146 31.6578ZM25.4923 32.8387C25.7028 32.8387 25.8917 32.7756 25.9567 32.7541C26.0587 32.7204 26.1659 32.6778 26.2656 32.6356C26.467 32.5502 26.696 32.4414 26.9032 32.3391C27.1131 32.2356 27.3129 32.1328 27.4594 32.0563C27.5329 32.0179 27.5936 31.9859 27.6362 31.9633C27.6575 31.952 27.6743 31.943 27.6859 31.9368C27.6917 31.9337 27.6963 31.9313 27.6994 31.9296C27.701 31.9287 27.7022 31.9281 27.7031 31.9276C27.7036 31.9273 27.7039 31.9271 27.7042 31.927C27.7043 31.9269 27.7044 31.9269 27.7045 31.9268C27.7046 31.9268 27.7046 31.9268 27.7046 31.9268C27.7047 31.9267 27.7047 31.9267 27.2313 31.0459C26.7578 30.1651 26.7579 30.1651 26.7579 30.165C26.7579 30.165 26.7579 30.165 26.7579 30.165C26.7579 30.165 26.7579 30.1651 26.7578 30.1651C26.7577 30.1651 26.7576 30.1652 26.7573 30.1654C26.7568 30.1657 26.7559 30.1661 26.7547 30.1668C26.7522 30.1681 26.7484 30.1701 26.7434 30.1728C26.7333 30.1782 26.7181 30.1863 26.6986 30.1967C26.6595 30.2174 26.6029 30.2473 26.534 30.2833C26.3957 30.3555 26.2102 30.4509 26.0183 30.5455C25.8238 30.6415 25.6345 30.7308 25.4852 30.7941C25.4095 30.8262 25.3581 30.8456 25.329 30.8552C25.2627 30.8771 25.3479 30.8387 25.4923 30.8387V32.8387Z" fill="black" mask="url(#path-101-inside-2_4_1890)"/>
<mask id="path-103-inside-3_4_1890" fill="white">
<path d="M26.5383 35.2751H26.0232C26.0232 35.2751 26.1212 36.0403 26.5383 36.5266C26.9555 37.0141 26.5383 35.2751 26.5383 35.2751Z"/>
</mask>
<path d="M26.5383 35.2751H26.0232C26.0232 35.2751 26.1212 36.0403 26.5383 36.5266C26.9555 37.0141 26.5383 35.2751 26.5383 35.2751Z" fill="#F9F9F9"/>
<path d="M26.5383 35.2751L27.5107 35.0419L27.3268 34.2751H26.5383V35.2751ZM26.0232 35.2751V34.2751H24.8871L25.0313 35.4021L26.0232 35.2751ZM26.5383 36.5266L27.2981 35.8764L27.2973 35.8755L26.5383 36.5266ZM26.5383 34.2751H26.0232V36.2751H26.5383V34.2751ZM26.0232 35.2751C25.0313 35.4021 25.0313 35.4023 25.0314 35.4026C25.0314 35.4026 25.0314 35.4029 25.0314 35.403C25.0315 35.4034 25.0315 35.4037 25.0316 35.404C25.0317 35.4047 25.0318 35.4055 25.0319 35.4062C25.0321 35.4078 25.0323 35.4096 25.0326 35.4115C25.0331 35.4155 25.0337 35.4201 25.0345 35.4256C25.0361 35.4364 25.0381 35.4502 25.0408 35.4667C25.046 35.4996 25.0536 35.5436 25.0641 35.5964C25.0848 35.7014 25.1177 35.8453 25.1676 36.0094C25.2618 36.3192 25.4408 36.783 25.7793 37.1777L27.2973 35.8755C27.2187 35.7839 27.1402 35.622 27.0811 35.4277C27.0543 35.3396 27.0367 35.2619 27.026 35.2082C27.0208 35.1817 27.0175 35.1621 27.0157 35.1513C27.0149 35.1459 27.0144 35.1428 27.0143 35.1422C27.0143 35.1418 27.0143 35.1422 27.0145 35.1432C27.0145 35.1437 27.0146 35.1443 27.0147 35.1452C27.0148 35.1456 27.0149 35.146 27.0149 35.1465C27.015 35.1468 27.015 35.1471 27.015 35.1473C27.015 35.1475 27.0151 35.1477 27.0151 35.1477C27.0151 35.148 27.0151 35.1482 26.0232 35.2751ZM25.7786 37.1768C25.8326 37.2399 25.9164 37.3292 26.0298 37.4094C26.1297 37.4801 26.3629 37.6226 26.6896 37.6123C27.0813 37.6 27.3587 37.3814 27.5075 37.1726C27.6327 36.9969 27.6762 36.8231 27.6936 36.7394C27.7301 36.5628 27.7255 36.3919 27.7203 36.2928C27.7142 36.1754 27.7004 36.0548 27.6852 35.9455C27.6546 35.7261 27.6103 35.4989 27.5757 35.334C27.5581 35.2498 27.5422 35.1783 27.5306 35.1273C27.5248 35.1017 27.52 35.0812 27.5166 35.0666C27.5149 35.0594 27.5135 35.0536 27.5125 35.0494C27.512 35.0473 27.5116 35.0457 27.5113 35.0444C27.5112 35.0438 27.5111 35.0432 27.511 35.0428C27.5109 35.0426 27.5109 35.0424 27.5108 35.0423C27.5108 35.0422 27.5108 35.0421 27.5108 35.042C27.5108 35.042 27.5107 35.0419 26.5383 35.2751C25.5659 35.5084 25.5659 35.5084 25.5659 35.5083C25.5659 35.5083 25.5659 35.5082 25.5659 35.5082C25.5659 35.5081 25.5658 35.5081 25.5658 35.5081C25.5658 35.5081 25.5659 35.5082 25.5659 35.5084C25.566 35.5088 25.5662 35.5096 25.5665 35.5108C25.5671 35.5132 25.568 35.5171 25.5692 35.5225C25.5717 35.5332 25.5755 35.5495 25.5803 35.5706C25.5899 35.6128 25.6033 35.6732 25.6183 35.7445C25.6489 35.8904 25.6828 36.0674 25.7044 36.2218C25.7152 36.2995 25.721 36.3582 25.723 36.397C25.726 36.454 25.7181 36.4162 25.7351 36.334C25.7426 36.2976 25.7723 36.1613 25.8789 36.0117C25.9375 35.9295 26.0293 35.8294 26.1655 35.7482C26.307 35.6639 26.4662 35.6183 26.6266 35.6133C26.9248 35.6039 27.1241 35.7338 27.1844 35.7763C27.2581 35.8285 27.2962 35.8742 27.2981 35.8764L25.7786 37.1768Z" fill="black" mask="url(#path-103-inside-3_4_1890)"/>
<mask id="path-105-inside-4_4_1890" fill="white">
<path d="M14.1548 25.6204C13.9462 25.7737 14.8923 28.083 14.8923 28.083H15.3648C15.3648 28.083 14.3634 25.4683 14.1548 25.6204Z"/>
</mask>
<path d="M14.1548 25.6204C13.9462 25.7737 14.8923 28.083 14.8923 28.083H15.3648C15.3648 28.083 14.3634 25.4683 14.1548 25.6204Z" fill="#F9F9F9"/>
<path d="M14.1548 25.6204L13.5656 24.8124L13.5627 24.8146L14.1548 25.6204ZM14.8923 28.083L13.967 28.4621L14.2214 29.083H14.8923V28.083ZM15.3648 28.083V29.083H16.8186L16.2987 27.7254L15.3648 28.083ZM13.5627 24.8146C13.2394 25.0521 13.1647 25.3834 13.1443 25.4974C13.1187 25.6409 13.1236 25.7682 13.1295 25.8459C13.1418 26.0081 13.1777 26.1752 13.2118 26.3118C13.2829 26.597 13.3944 26.9359 13.5023 27.2419C13.6125 27.5542 13.7285 27.8587 13.8162 28.0834C13.8603 28.1962 13.8976 28.29 13.924 28.3559C13.9373 28.3889 13.9478 28.415 13.9551 28.433C13.9588 28.4421 13.9617 28.4491 13.9637 28.454C13.9647 28.4564 13.9654 28.4584 13.966 28.4597C13.9663 28.4604 13.9665 28.4609 13.9667 28.4613C13.9667 28.4615 13.9668 28.4617 13.9669 28.4618C13.9669 28.4619 13.9669 28.462 13.9669 28.462C13.967 28.4621 13.967 28.4621 14.8923 28.083C15.8177 27.7039 15.8177 27.704 15.8177 27.704C15.8177 27.704 15.8177 27.704 15.8177 27.704C15.8177 27.704 15.8177 27.7039 15.8177 27.7039C15.8176 27.7037 15.8175 27.7034 15.8173 27.703C15.817 27.7021 15.8164 27.7007 15.8156 27.6988C15.814 27.6949 15.8116 27.689 15.8084 27.6811C15.802 27.6652 15.7924 27.6415 15.7801 27.611C15.7557 27.5501 15.7207 27.4623 15.6793 27.3562C15.5962 27.1431 15.4887 26.8607 15.3884 26.5765C15.2859 26.286 15.2 26.0188 15.1523 25.8279C15.127 25.7264 15.1233 25.688 15.1238 25.6945C15.1241 25.6996 15.1251 25.7145 15.1247 25.737C15.1242 25.7583 15.1223 25.7979 15.1131 25.8493C15.1018 25.9126 15.0441 26.2079 14.747 26.4262L13.5627 24.8146ZM14.8923 29.083H15.3648V27.083H14.8923V29.083ZM15.3648 28.083C16.2987 27.7254 16.2986 27.7253 16.2986 27.7253C16.2986 27.7252 16.2986 27.7252 16.2986 27.7251C16.2985 27.725 16.2984 27.7248 16.2984 27.7246C16.2982 27.7241 16.298 27.7236 16.2977 27.7228C16.2971 27.7213 16.2963 27.7192 16.2953 27.7165C16.2932 27.7111 16.2902 27.7033 16.2863 27.6933C16.2785 27.6732 16.2673 27.6441 16.2529 27.6074C16.2243 27.534 16.1833 27.4297 16.1335 27.3053C16.0343 27.0574 15.8985 26.7253 15.7549 26.3954C15.6141 26.0723 15.4544 25.7247 15.3078 25.4586C15.2398 25.3351 15.1464 25.1764 15.0356 25.0432C14.9882 24.9862 14.8756 24.8562 14.7009 24.7559C14.5119 24.6473 14.0319 24.4724 13.5656 24.8124L14.7441 26.4284C14.3038 26.7494 13.8561 26.5771 13.7047 26.4901C13.5676 26.4113 13.4978 26.3219 13.4978 26.3219C13.4817 26.3026 13.5007 26.3232 13.5559 26.4234C13.6558 26.6048 13.7855 26.8824 13.9212 27.194C14.054 27.4987 14.1816 27.8108 14.2767 28.0484C14.324 28.1667 14.3629 28.2656 14.3898 28.3346C14.4033 28.369 14.4137 28.396 14.4207 28.4141C14.4242 28.4232 14.4269 28.43 14.4286 28.4345C14.4295 28.4368 14.4301 28.4384 14.4305 28.4394C14.4307 28.44 14.4308 28.4403 14.4309 28.4405C14.4309 28.4406 14.431 28.4407 14.431 28.4407C14.431 28.4407 14.431 28.4407 14.431 28.4407C14.431 28.4407 14.431 28.4407 15.3648 28.083Z" fill="black" mask="url(#path-105-inside-4_4_1890)"/>
<mask id="path-107-inside-5_4_1890" fill="white">
<path d="M16.3562 27.5126C16.4392 26.8869 15.9529 25.829 15.9529 25.829V27.4146C15.9529 27.4146 16.2733 28.1383 16.3562 27.5114V27.5126Z"/>
</mask>
<path d="M16.3562 27.5126C16.4392 26.8869 15.9529 25.829 15.9529 25.829V27.4146C15.9529 27.4146 16.2733 28.1383 16.3562 27.5114V27.5126Z" fill="#F9F9F9"/>
<path d="M16.3562 27.5126H15.3562L17.3476 27.644L16.3562 27.5126ZM15.9529 25.829L16.8615 25.4113L14.9529 25.829H15.9529ZM15.9529 27.4146H14.9529V27.6261L15.0385 27.8194L15.9529 27.4146ZM16.3562 27.5114H17.3562L15.3649 27.3802L16.3562 27.5114ZM17.3476 27.644C17.4214 27.0871 17.2496 26.475 17.1369 26.1275C17.072 25.9275 17.0048 25.7524 16.954 25.6274C16.9284 25.5645 16.9065 25.5131 16.8904 25.4762C16.8824 25.4578 16.8758 25.4429 16.8709 25.432C16.8684 25.4265 16.8664 25.422 16.8648 25.4186C16.864 25.4168 16.8634 25.4154 16.8628 25.4142C16.8625 25.4135 16.8623 25.413 16.8621 25.4125C16.862 25.4123 16.8619 25.4121 16.8618 25.4119C16.8617 25.4118 16.8617 25.4116 16.8616 25.4116C16.8616 25.4114 16.8615 25.4113 15.9529 25.829C15.0443 26.2467 15.0443 26.2465 15.0442 26.2464C15.0442 26.2464 15.0441 26.2463 15.0441 26.2462C15.044 26.2461 15.044 26.2459 15.0439 26.2458C15.0438 26.2456 15.0438 26.2454 15.0437 26.2453C15.0436 26.2452 15.0437 26.2452 15.0438 26.2455C15.044 26.2461 15.0447 26.2476 15.0458 26.25C15.048 26.2549 15.0518 26.2634 15.0569 26.2751C15.0671 26.2985 15.0825 26.3347 15.1012 26.3807C15.139 26.4736 15.1882 26.6021 15.2345 26.7448C15.2815 26.8896 15.3209 27.0349 15.3443 27.1639C15.3558 27.2275 15.3621 27.2799 15.3645 27.3208C15.3671 27.3629 15.3649 27.3816 15.3649 27.3811L17.3476 27.644ZM14.9529 25.829V27.4146H16.9529V25.829H14.9529ZM15.9529 27.4146C15.0385 27.8194 15.0386 27.8196 15.0387 27.8198C15.0387 27.8199 15.0388 27.8201 15.0388 27.8202C15.039 27.8205 15.0391 27.8208 15.0392 27.8211C15.0395 27.8217 15.0398 27.8223 15.0401 27.823C15.0407 27.8244 15.0414 27.8259 15.0422 27.8277C15.0438 27.8312 15.0457 27.8354 15.048 27.8403C15.0525 27.8502 15.0584 27.8628 15.0655 27.8777C15.0796 27.907 15.0996 27.9472 15.1242 27.9929C15.1649 28.0682 15.2509 28.2206 15.3735 28.3596C15.431 28.4248 15.5508 28.5505 15.7331 28.6447C15.936 28.7496 16.3031 28.8512 16.6961 28.6598C17.036 28.4943 17.1821 28.2069 17.2386 28.0709C17.3026 27.9169 17.3316 27.7633 17.3476 27.6427L15.3649 27.3802C15.3601 27.4163 15.361 27.3772 15.3916 27.3037C15.4147 27.248 15.5222 27.007 15.8204 26.8617C15.9787 26.7846 16.1486 26.7569 16.3085 26.7702C16.4595 26.7827 16.5763 26.8292 16.6513 26.8679C16.7879 26.9385 16.8611 27.0227 16.8734 27.0366C16.9056 27.0731 16.9063 27.0838 16.8843 27.043C16.8776 27.0306 16.8719 27.0191 16.8682 27.0113C16.8664 27.0077 16.8653 27.0054 16.8651 27.0049C16.865 27.0047 16.8651 27.0049 16.8655 27.0057C16.8657 27.0061 16.8659 27.0067 16.8662 27.0073C16.8664 27.0077 16.8665 27.0081 16.8667 27.0085C16.8668 27.0087 16.8669 27.0089 16.867 27.0091C16.8671 27.0093 16.8671 27.0094 16.8672 27.0095C16.8672 27.0097 16.8673 27.0099 15.9529 27.4146ZM15.3562 27.5114V27.5126H17.3562V27.5114H15.3562Z" fill="black" mask="url(#path-107-inside-5_4_1890)"/>
<mask id="path-109-inside-6_4_1890" fill="white">
<path d="M12.6265 36.6131C12.918 36.3746 12.933 34.2738 12.933 34.2738L12.4744 34.4409C12.4744 34.4409 12.3349 36.8528 12.6277 36.6131H12.6265Z"/>
</mask>
<path d="M12.6265 36.6131C12.918 36.3746 12.933 34.2738 12.933 34.2738L12.4744 34.4409C12.4744 34.4409 12.3349 36.8528 12.6277 36.6131H12.6265Z" fill="#F9F9F9"/>
<path d="M12.6265 36.6131L11.9933 35.8392L9.82509 37.6131H12.6265V36.6131ZM12.933 34.2738L13.933 34.2809L13.9433 32.8414L12.5907 33.3342L12.933 34.2738ZM12.4744 34.4409L12.1321 33.5013L11.514 33.7265L11.4761 34.3832L12.4744 34.4409ZM12.6277 36.6131L13.2612 37.3868L15.4272 35.6131H12.6277V36.6131ZM13.2597 37.3871C13.5237 37.1711 13.6296 36.8813 13.6664 36.7767C13.7194 36.6266 13.7551 36.4678 13.7809 36.3279C13.8331 36.0441 13.8654 35.7168 13.8865 35.4262C13.9079 35.1299 13.9195 34.8447 13.9257 34.6355C13.9288 34.5303 13.9306 34.443 13.9317 34.3814C13.9322 34.3506 13.9325 34.3262 13.9327 34.3092C13.9328 34.3006 13.9329 34.2939 13.9329 34.2892C13.933 34.2868 13.933 34.2849 13.933 34.2836C13.933 34.2829 13.933 34.2823 13.933 34.2819C13.933 34.2816 13.933 34.2815 13.933 34.2813C13.933 34.2812 13.933 34.2811 13.933 34.2811C13.933 34.281 13.933 34.2809 12.933 34.2738C11.9331 34.2667 11.9331 34.2666 11.9331 34.2666C11.9331 34.2666 11.9331 34.2665 11.9331 34.2665C11.9331 34.2665 11.9331 34.2665 11.9331 34.2665C11.9331 34.2666 11.9331 34.2668 11.933 34.2671C11.933 34.2677 11.933 34.2689 11.933 34.2705C11.933 34.2737 11.9329 34.2788 11.9329 34.2857C11.9327 34.2996 11.9324 34.3205 11.932 34.3476C11.931 34.4019 11.9294 34.4806 11.9266 34.5761C11.9209 34.7682 11.9104 35.0231 11.8917 35.2818C11.8726 35.5462 11.8465 35.7889 11.8139 35.966C11.7972 36.0566 11.784 36.1011 11.7803 36.1115C11.7606 36.1675 11.8021 35.9955 11.9933 35.8392L13.2597 37.3871ZM12.5907 33.3342L12.1321 33.5013L12.8167 35.3805L13.2753 35.2134L12.5907 33.3342ZM12.4744 34.4409C11.4761 34.3832 11.476 34.3833 11.476 34.3833C11.476 34.3834 11.476 34.3834 11.476 34.3835C11.476 34.3837 11.476 34.3839 11.476 34.3841C11.476 34.3845 11.4759 34.3851 11.4759 34.3858C11.4758 34.3873 11.4757 34.3894 11.4756 34.392C11.4753 34.3972 11.4749 34.4046 11.4743 34.4141C11.4733 34.433 11.4719 34.4603 11.4702 34.4946C11.4668 34.5632 11.4623 34.6603 11.4579 34.7758C11.4491 35.0053 11.4403 35.3144 11.4413 35.6199C11.4421 35.9112 11.4516 36.2513 11.4907 36.5193C11.5054 36.6199 11.5421 36.8596 11.6655 37.079C11.7235 37.1819 11.905 37.4709 12.2914 37.5864C12.744 37.7216 13.1002 37.5187 13.2612 37.3868L11.9941 35.8394C12.1186 35.7375 12.4415 35.5439 12.864 35.6701C13.2202 35.7765 13.3748 36.0383 13.4086 36.0982C13.4836 36.2316 13.4831 36.3222 13.4697 36.2304C13.4527 36.1136 13.4421 35.8956 13.4413 35.6139C13.4404 35.3464 13.4482 35.0674 13.4564 34.8522C13.4605 34.7454 13.4647 34.6559 13.4677 34.5935C13.4693 34.5623 13.4706 34.538 13.4714 34.5218C13.4719 34.5137 13.4722 34.5076 13.4724 34.5037C13.4725 34.5017 13.4726 34.5003 13.4727 34.4994C13.4727 34.499 13.4727 34.4987 13.4727 34.4986C13.4727 34.4985 13.4727 34.4985 13.4727 34.4985C13.4727 34.4985 13.4727 34.4985 13.4727 34.4985C13.4727 34.4986 13.4727 34.4986 12.4744 34.4409ZM12.6277 35.6131H12.6265V37.6131H12.6277V35.6131Z" fill="black" mask="url(#path-109-inside-6_4_1890)"/>
<path d="M18.9653 57.4095C18.7786 57.5426 18.5903 57.6919 18.4062 57.8588C17.8059 58.4032 17.2455 59.1405 16.9391 60.1167C16.6787 60.9462 16.6094 61.9237 16.8295 63.0668H15.2731L13.8836 57.4095H18.9653Z" fill="#F9F9F9" stroke="black"/>
<path d="M15.2306 63.3145H13.7667C13.7345 63.2518 13.6918 63.1662 13.6409 63.0587C13.5196 62.8027 13.3516 62.4219 13.1675 61.9279C12.819 60.9925 12.413 59.6516 12.1566 57.9823H17.436C17.3879 58.1398 17.3234 58.3484 17.2457 58.5921L17.2456 58.5923C16.995 59.3803 16.611 60.5302 16.2105 61.5144C16.01 62.0072 15.8081 62.4517 15.6193 62.7865C15.5248 62.9541 15.437 63.0881 15.3581 63.1851C15.3026 63.2533 15.2597 63.2929 15.2306 63.3145Z" fill="#F9F9F9" stroke="black" stroke-width="0.5"/>
<path d="M17.1898 54.2372L16.9964 54.0787C16.8271 54.2855 16.5969 54.5315 16.3665 54.7777C16.2824 54.8676 16.1982 54.9576 16.117 55.0456C15.9687 55.2064 15.8296 55.3617 15.7268 55.4922C15.6757 55.5571 15.629 55.6216 15.5938 55.6815C15.5833 55.6994 15.5701 55.7229 15.5576 55.7506C15.5359 55.7459 15.5136 55.7401 15.492 55.7338C15.4881 55.6751 15.4848 55.6007 15.4844 55.514C15.4833 55.2814 15.5026 54.9639 15.5834 54.6228C15.7321 53.9946 16.0838 53.2994 16.8953 52.8839C16.9419 52.984 16.995 53.1122 17.037 53.2518C17.1389 53.59 17.1468 53.8948 16.9962 54.079L17.1898 54.2372ZM17.1898 54.2372C17.0148 54.4508 16.7756 54.7065 16.5433 54.9547C16.2941 55.2211 16.0528 55.4789 15.9073 55.6673L15.2585 55.9173C15.2585 55.9173 14.8932 53.4317 17.0078 52.557C17.0078 52.557 17.6635 53.6575 17.1898 54.2372Z" fill="#F9F9F9" stroke="black" stroke-width="0.5"/>
<path d="M11.7537 49.9726C11.6865 50.5161 11.6908 51.316 12.1591 51.8288C12.9243 52.6678 13.799 53.6519 13.6538 54.4539L11.7537 49.9726ZM11.7537 49.9726C11.7787 50.033 11.8083 50.0962 11.8433 50.1613C11.8806 50.2307 11.9238 50.3018 11.9737 50.3734M11.7537 49.9726L11.9737 50.3734M11.9737 50.3734C11.9618 50.8407 12.0447 51.3329 12.3437 51.6602L12.3438 51.6604C12.7244 52.0776 13.148 52.5476 13.4568 53.018C13.76 53.4798 13.9905 53.9974 13.8998 54.4985L13.8997 54.4988C13.8479 54.7824 14.0086 55.0942 14.2451 55.3724C14.3575 55.5046 14.4753 55.6151 14.5655 55.6929C14.5691 55.696 14.5726 55.699 14.5761 55.702C14.5768 55.6008 14.5765 55.4773 14.574 55.3366C14.5667 54.9309 14.5408 54.386 14.4672 53.8253C14.3933 53.262 14.2728 52.6958 14.0819 52.2408C13.8881 51.7791 13.6424 51.4802 13.3476 51.3706C12.647 51.1099 12.225 50.7339 11.9737 50.3734Z" fill="#F9F9F9" stroke="black" stroke-width="0.5"/>
<path d="M13.7507 63.2845C13.7209 63.2256 13.6838 63.1507 13.6409 63.0601C13.5196 62.804 13.3516 62.4233 13.1675 61.9293C12.819 60.9938 12.413 59.6529 12.1566 57.9836H17.436C17.3966 58.1127 17.3462 58.276 17.2865 58.4649C16.6224 58.6656 15.7557 59.0536 15.0445 59.8008C14.3221 60.5598 13.7772 61.6721 13.7507 63.2845Z" fill="#F9F9F9" stroke="black" stroke-width="0.5"/>
<path d="M11.7851 57.4836L12.0298 56.1675H17.5528L17.7282 57.4836H11.7851Z" fill="#F9F9F9" stroke="black" stroke-width="0.5"/>
<mask id="mask3_4_1890" style="mask-type:alpha" maskUnits="userSpaceOnUse" x="3" y="3" width="58" height="36">
<path d="M59.9414 4.30083L59.9414 37.6923L4.00956 37.6923L4.00956 4.30083L59.9414 4.30083Z" fill="#F5EBE0" stroke="black"/>
</mask>
<g mask="url(#mask3_4_1890)">
</g>
</g>
</svg>
