<svg width="72" height="108" viewBox="0 0 72 108" fill="none" xmlns="http://www.w3.org/2000/svg">
<g id="8500_1_2_01 [Converti] 1" clip-path="url(#clip0_2004_19)">
<path id="Vector" d="M12.4093 74.4131C10.3172 65.9741 13.3131 58.712 15.8906 54.4123C17.4677 51.7804 18.8881 50.2593 18.8881 50.2593L19.5373 50.584L22.8338 52.2322C22.6036 53.1448 22.4196 54.0686 22.2826 54.9999C22.2027 55.5378 22.1374 56.0737 22.0867 56.6075C21.4604 63.3072 23.0509 69.5484 23.4576 74.7404C23.7964 79.0735 14.6451 83.4288 12.4083 74.4131" fill="black"/>
<path id="Vector_2" d="M18.188 80.3919C16.4066 80.3919 13.301 79.6204 12.0519 74.5838C10.2594 67.3528 12.1616 60.9934 14.0729 56.9317C16.1376 52.5453 18.596 49.8866 18.6998 49.7757C18.8285 49.6429 19.0041 49.5661 19.1887 49.5617C19.3733 49.5574 19.5523 49.6259 19.6871 49.7524C19.8219 49.879 19.9018 50.0536 19.9096 50.2386C19.9174 50.4237 19.8525 50.6044 19.7289 50.742C19.6936 50.78 17.2914 53.3879 15.3279 57.5779C13.5259 61.4223 11.7324 67.4343 13.4198 74.2427C14.2635 77.6471 16.2653 79.3513 18.91 78.9215C21.2322 78.5437 23.2203 76.5774 23.0812 74.7969C22.9566 73.1956 22.7163 71.4888 22.4611 69.6812C21.7173 64.3896 20.8742 58.3924 22.4755 52.0599C22.4982 51.9699 22.5384 51.8853 22.5938 51.8109C22.6491 51.7365 22.7186 51.6738 22.7981 51.6263C22.8776 51.5788 22.9657 51.5475 23.0573 51.5342C23.1489 51.5208 23.2422 51.5257 23.3319 51.5486C23.4216 51.5714 23.506 51.6117 23.5801 51.6672C23.6543 51.7227 23.7168 51.7924 23.7642 51.8721C23.8115 51.9519 23.8427 52.0402 23.856 52.1321C23.8694 52.2239 23.8645 52.3175 23.8417 52.4075C22.3077 58.4703 23.1312 64.3229 23.8571 69.4838C24.1143 71.3133 24.3571 73.0417 24.4854 74.6869C24.6812 77.1908 22.1804 79.8223 19.1345 80.3173C18.8215 80.3672 18.505 80.3922 18.188 80.3919Z" fill="black"/>
<path id="Vector_3" d="M55.8461 65.4231C57.3765 67.4945 56.8579 71.7736 52.953 73.484C50.4352 74.5871 48.4456 74.0925 47.1309 72.0358C45.0009 68.7044 46.8815 66.8235 49.3382 65.591C51.795 64.3586 54.3973 63.4633 55.8461 65.4231Z" fill="black"/>
<g id="Group" opacity="0.2">
<path id="Vector_4" d="M53.2801 73.4834C50.7616 74.5865 48.7713 74.0919 47.457 72.0349C46.0137 69.7788 46.4125 68.187 47.5826 67.0128C48.4338 68.9768 50.1696 69.7805 52.6811 69.3696C54.6114 69.0538 55.9835 68.0354 56.809 66.7964C57.3873 69.0145 56.4483 72.0964 53.2801 73.4847" fill="black"/>
</g>
<path id="Vector_5" d="M50.8651 74.7568C49.2299 74.7568 47.8541 73.9659 46.8636 72.4169C45.9281 70.9533 45.6233 69.5939 45.9568 68.3758C46.324 67.037 47.4338 65.9207 49.3493 64.9584C50.9555 64.1524 54.7171 62.2656 56.7388 65.0016C57.6344 66.2127 57.9108 68.0203 57.4598 69.7153C56.9343 71.6918 55.5497 73.2598 53.5617 74.1306C52.6064 74.5499 51.7019 74.7568 50.8651 74.7568ZM53.8176 64.9881C52.8711 64.9881 51.6246 65.3976 49.9796 66.2226C48.4423 66.9941 47.5708 67.821 47.3159 68.751C47.0924 69.5654 47.3394 70.5422 48.05 71.6539C49.1754 73.4143 50.7936 73.8006 52.9971 72.8356C54.5836 72.1406 55.6845 70.9042 56.0978 69.3516C56.4405 68.0622 56.2521 66.7178 55.6062 65.8435C55.1858 65.2746 54.6078 64.9881 53.8176 64.9881Z" fill="black"/>
<path id="Vector_6" d="M35.9149 69.9546C32.7163 80.8823 35.7517 94.7107 32.4108 95.7625C30.0193 96.5154 18.8304 97.6869 18.5118 93.9513C18.2905 91.3594 21.2842 90.3354 21.2842 90.3354C21.2842 90.3354 17.2457 80.3501 20.7544 69.9546" fill="black"/>
<g id="Group_2" opacity="0.2">
<path id="Vector_7" d="M35.9152 69.9548C32.7166 80.8819 35.752 94.7113 32.4114 95.7627C30.0892 96.4937 19.4691 97.6194 18.5676 94.2622C21.9102 95.5493 29.0493 95.2177 30.6381 94.1623C32.7708 92.7456 32.2394 86.1875 29.8998 84.2146C26.2884 81.1684 19.4531 78.6426 19.833 73.4777C20.0588 72.2835 20.3667 71.1064 20.7544 69.9548H35.9152Z" fill="black"/>
</g>
<path id="Vector_8" d="M25.3317 97.2605C22.9011 97.2605 20.4789 96.9541 19.0738 96.0091C18.1146 95.3642 17.8567 94.5668 17.8094 94.0123C17.6136 91.7268 19.3862 90.4789 20.3934 89.9594C19.5556 87.5512 17.0039 78.8624 20.0869 69.7295C20.1152 69.6398 20.161 69.5566 20.2217 69.4849C20.2824 69.4132 20.3567 69.3543 20.4404 69.3118C20.5241 69.2692 20.6154 69.2439 20.7089 69.2372C20.8025 69.2304 20.8964 69.2425 20.9853 69.2727C21.0741 69.3029 21.1561 69.3505 21.2263 69.4128C21.2966 69.4752 21.3538 69.5509 21.3944 69.6357C21.4351 69.7205 21.4585 69.8125 21.4633 69.9065C21.4681 70.0004 21.4541 70.0944 21.4222 70.1829C18.0428 80.1941 21.8984 89.9738 21.9376 90.0717C21.9735 90.1607 21.991 90.2562 21.989 90.3523C21.987 90.4483 21.9655 90.5429 21.9258 90.6304C21.886 90.7178 21.829 90.7962 21.7581 90.8607C21.6871 90.9253 21.6039 90.9747 21.5133 91.006C21.4153 91.0406 19.0448 91.8898 19.2155 93.8925C19.2351 94.1246 19.3235 94.4752 19.8601 94.8359C22.3593 96.5165 30.1694 95.7289 32.2012 95.0893C33.4176 94.7063 33.4679 90.4082 33.5165 86.2536C33.574 81.3306 33.6471 75.204 35.2395 69.7554C35.2928 69.5761 35.4147 69.4253 35.5785 69.336C35.7424 69.2467 35.9349 69.2261 36.1138 69.2788C36.2928 69.3315 36.4436 69.4531 36.5333 69.6171C36.623 69.7811 36.6443 69.9741 36.5924 70.1537C35.0529 75.4135 34.9827 81.4324 34.9259 86.2683C34.8606 91.9759 34.8152 95.7466 32.6232 96.4366C31.6398 96.7463 28.4787 97.2605 25.3317 97.2605Z" fill="black"/>
<path id="Vector_9" d="M51.2933 72.2194C47.2095 81.9288 23.2484 84.1767 17.999 73.532C15.7362 68.9427 15.997 63.4963 17.1765 58.5305C19.064 50.5796 23.3042 43.8599 23.3042 43.8599L45.9882 43.9253C45.9882 43.9253 49.1421 49.0227 51.105 55.567C52.6808 60.8153 53.4896 66.9914 51.292 72.2184" fill="white"/>
<g id="Group_3" opacity="0.2">
<path id="Vector_10" d="M51.6246 71.3616C51.5221 71.65 51.4121 71.9371 51.2933 72.2196C47.2095 81.9289 23.2484 84.1768 17.9987 73.5322C17.8016 73.1335 17.6239 72.7281 17.4657 72.3161C24.1009 81.4909 45.3312 79.7881 51.6246 71.3616Z" fill="black"/>
</g>
<path id="Vector_11" d="M50.7799 55.568C44.7773 56.568 37.8135 54.4878 27.5436 55.6796C25.5957 55.9049 23.7278 56.2266 22.089 56.6077C19.709 57.1589 17.811 57.8372 16.8502 58.5305C17.1573 57.2391 17.405 55.9654 17.8068 54.7627C18.3098 53.2625 18.9844 51.8638 19.5367 50.5842C21.2665 46.57 22.9771 43.8599 22.9771 43.8599L45.6612 43.9253C45.6612 43.9253 45.9516 44.3954 46.4096 45.2321C46.7471 45.8426 47.172 46.6479 47.6388 47.6103C48.6375 49.6634 49.8334 52.4291 50.7646 55.5215C50.7688 55.5369 50.7734 55.552 50.778 55.567" fill="black"/>
<path id="Vector_12" d="M17.3861 58.9627C17.373 59.8419 17.2738 60.6911 17.1873 61.5402L17.044 62.8083C17.0049 63.2313 16.9621 63.6542 16.9435 64.0774C16.8397 65.7701 16.9223 67.4674 17.216 69.1186C17.3694 69.9401 17.581 70.7496 17.8492 71.5409C17.9165 71.7373 17.9971 71.9298 18.0702 72.1249L18.1825 72.4159C18.2233 72.5118 18.2683 72.6051 18.3111 72.6997L18.5722 73.266C18.6701 73.4428 18.7572 73.6261 18.8633 73.798C19.279 74.4965 19.7821 75.1387 20.3605 75.709C20.9489 76.2816 21.5973 76.7887 22.2943 77.2217C23.6926 78.0999 25.2645 78.7173 26.8873 79.1373C28.5101 79.5573 30.1929 79.7867 31.881 79.864C33.5722 79.9394 35.2666 79.8671 36.9453 79.6479C38.6226 79.427 40.2836 79.0764 41.8891 78.5621C43.4946 78.0479 45.0469 77.3778 46.4562 76.4956C47.1572 76.0613 47.8184 75.5656 48.4322 75.0144C49.0319 74.4689 49.5637 73.8526 50.0158 73.1789C50.2277 72.8398 50.4333 72.4958 50.59 72.1314C50.6774 71.9576 50.744 71.7543 50.8184 71.5622L51.0381 70.9795C51.1686 70.5851 51.2773 70.1828 51.3971 69.7844C51.483 69.3759 51.5848 68.9713 51.6582 68.5601C51.9494 66.9126 52.014 65.2192 51.9151 63.5311C51.8162 61.843 51.5629 60.1555 51.1938 58.49C50.8191 56.8212 50.3438 55.1768 49.7704 53.5657C49.2012 51.9506 48.5565 50.3578 47.8346 48.8016C47.4779 48.0212 47.103 47.2496 46.7098 46.4869C46.3182 45.7278 45.905 44.9641 45.4771 44.2466L45.9872 44.5323L23.3032 44.4669C23.2241 44.4666 23.1458 44.4508 23.0728 44.4202C22.9997 44.3896 22.9335 44.3449 22.8777 44.2886C22.8219 44.2323 22.7777 44.1656 22.7476 44.0922C22.7176 44.0188 22.7022 43.9401 22.7025 43.8608C22.7027 43.7814 22.7185 43.7029 22.749 43.6297C22.7795 43.5564 22.8241 43.49 22.8802 43.434C22.9363 43.3781 23.0029 43.3338 23.0761 43.3036C23.1493 43.2735 23.2277 43.2581 23.3068 43.2583L45.9908 43.3238H45.9937C46.0955 43.3241 46.1955 43.3505 46.2843 43.4005C46.373 43.4504 46.4476 43.5223 46.501 43.6092C46.9693 44.3768 47.3891 45.1356 47.8006 45.9137C48.2122 46.6918 48.6019 47.4742 48.9756 48.268C49.7224 49.8545 50.3923 51.4762 50.9852 53.133C51.5849 54.7895 52.0839 56.4809 52.4794 58.198C52.8711 59.9195 53.1508 61.6741 53.2592 63.4509C53.3675 65.2277 53.2993 67.0252 52.987 68.7981C52.9076 69.2407 52.799 69.679 52.7053 70.1193C52.5777 70.552 52.4589 70.9884 52.3172 71.4169L52.0786 72.0526C51.9964 72.2647 51.9278 72.4748 51.8221 72.6902C51.6347 73.123 51.3958 73.5269 51.1478 73.9223C50.6339 74.6913 50.0288 75.3948 49.3458 76.0174C48.6715 76.6258 47.9446 77.1728 47.1736 77.6521C45.6445 78.6096 43.9933 79.3196 42.3026 79.864C40.6122 80.402 38.8758 80.7822 37.1156 80.9995C35.3585 81.2207 33.5855 81.2881 31.8167 81.2009C30.0483 81.1112 28.2816 80.8637 26.556 80.4087C24.8304 79.9537 23.1442 79.2869 21.6096 78.3137C20.8364 77.8279 20.1178 77.2598 19.4662 76.6193C18.8118 75.968 18.2435 75.2352 17.7751 74.4389C17.6554 74.2425 17.5555 74.032 17.4455 73.8287L17.1645 73.211C17.1188 73.1079 17.0701 73.0058 17.0264 72.9017L16.906 72.5855C16.8273 72.374 16.7428 72.1648 16.6693 71.9514C16.3842 71.0979 16.1603 70.2251 15.9996 69.3395C15.6931 67.5718 15.6171 65.776 15.7336 64.0038C15.7868 63.1177 15.8759 62.2361 16.0345 61.3647C16.078 61.148 16.1237 60.9318 16.1716 60.7159C16.2232 60.5012 16.2826 60.2881 16.3452 60.076C16.4079 59.8639 16.4712 59.6524 16.5512 59.4452C16.6258 59.2368 16.7085 59.0306 16.7992 58.8265C16.8284 58.762 16.8787 58.7095 16.9419 58.6779C17.005 58.6463 17.0771 58.6374 17.146 58.6527C17.2149 58.6681 17.2764 58.7068 17.3203 58.7622C17.3641 58.8177 17.3876 58.8867 17.3867 58.9574L17.3861 58.9627Z" fill="black"/>
<path id="Vector_13" d="M51.9899 68.9372C51.1357 82.2255 49.4466 89.8218 49.4466 89.8218C49.4466 89.8218 52.6479 90.4972 52.6296 93.4619C52.6139 96.0682 50.3684 96.9396 44.414 96.9396C41.9922 96.9396 38.526 96.8362 37.5024 95.0826C35.7399 92.0612 36.7191 82.578 36.5102 77.8426C36.5102 77.8426 37.4417 74.671 41.5963 71.7642C46.1684 68.565 52.0241 68.4096 51.9899 68.9366" fill="black"/>
<g id="Group_4" opacity="0.2">
<path id="Vector_14" d="M52.8776 94.2142C52.438 96.2401 50.0804 96.9413 44.7407 96.9413C42.3183 96.9413 38.8523 96.8369 37.8298 95.083C36.1169 92.149 36.9919 83.1211 36.8506 78.2656C38.538 83.6046 37.9714 90.5492 39.5032 93.1719C40.5277 94.9258 43.9936 95.0299 46.4158 95.0299C49.4903 95.0299 51.5766 94.7975 52.8763 94.2142" fill="black"/>
</g>
<path id="Vector_15" d="M53.016 67.3639L52.8349 70.1991C52.7614 71.1435 52.7007 72.0885 52.6168 73.0319C52.5329 73.9753 52.4569 74.9197 52.3609 75.8621C52.2735 76.8052 52.169 77.747 52.0672 78.6891C51.8524 80.572 51.6148 82.4536 51.338 84.3293C51.1983 85.2674 51.0531 86.2046 50.8915 87.1408C50.73 88.077 50.5635 89.0067 50.3618 89.9537L49.898 89.2313H49.9006C49.9799 89.2483 50.0286 89.2614 50.0893 89.2777L50.2596 89.3272C50.3713 89.3619 50.4809 89.3998 50.5896 89.4407C50.8071 89.5224 51.0195 89.617 51.2258 89.7239C51.6498 89.9415 52.0407 90.2189 52.3864 90.5475C52.562 90.7193 52.7232 90.9055 52.8681 91.104C53.0123 91.3079 53.1379 91.5244 53.2435 91.7508C53.4465 92.2048 53.5646 92.6924 53.5921 93.1892C53.6063 93.4314 53.6016 93.6744 53.578 93.9159C53.556 94.168 53.5069 94.4171 53.4315 94.6586C53.2768 95.1671 52.9917 95.626 52.6048 95.9893C52.2271 96.353 51.7888 96.5923 51.3596 96.7818C50.9304 96.9713 50.4894 97.0895 50.0563 97.1893C49.1894 97.3825 48.333 97.4715 47.4827 97.5308C46.6325 97.59 45.7878 97.6074 44.9457 97.6123C44.1036 97.6172 43.2596 97.608 42.4018 97.5488C41.5441 97.4895 40.6772 97.3851 39.8028 97.1389C39.3495 97.0142 38.9125 96.8358 38.5012 96.6076C38.2824 96.4821 38.0755 96.3368 37.883 96.1736C37.6817 95.9976 37.5036 95.7966 37.3529 95.5755C36.8039 94.6855 36.6306 93.8219 36.4648 92.9591C36.1756 91.2385 36.1332 89.5458 36.1201 87.861C36.1139 86.1768 36.1642 84.5024 36.2122 82.8346C36.2331 82.0005 36.2775 81.1687 36.33 80.3396C36.3826 79.5104 36.4485 78.6845 36.5363 77.856V77.8531C36.543 77.7793 36.5762 77.7104 36.6298 77.6594C36.6833 77.6084 36.7536 77.5787 36.8274 77.5758C36.9012 77.5729 36.9736 77.597 37.0309 77.6437C37.0883 77.6904 37.1268 77.7565 37.1391 77.8295C37.2955 78.6685 37.3621 79.5124 37.3983 80.3501C37.4345 81.1877 37.4378 82.0264 37.4211 82.8611C37.3934 84.5306 37.364 86.1928 37.3905 87.8466C37.4042 88.6731 37.4319 89.4974 37.4884 90.3141C37.5448 91.1308 37.6219 91.9423 37.7638 92.725C37.8328 93.1088 37.9231 93.4885 38.0344 93.8622C38.0955 94.0386 38.1529 94.2193 38.2276 94.3807C38.2456 94.4216 38.2603 94.4642 38.2808 94.5041L38.3409 94.6174L38.4003 94.7313C38.4202 94.766 38.4401 94.7922 38.4594 94.8233C38.7766 95.3028 39.4493 95.6351 40.1729 95.8345C40.9021 96.0413 41.6958 96.1425 42.4968 96.2001C43.2978 96.2577 44.1177 96.2656 44.9424 96.2639C45.7672 96.2623 46.5848 96.2443 47.3943 96.189C48.2037 96.1336 49.0066 96.0492 49.7655 95.8806C50.5162 95.7114 51.244 95.4531 51.7052 95.0256C51.8187 94.9236 51.9175 94.8064 51.999 94.6773C52.0827 94.549 52.148 94.4095 52.1928 94.2629C52.2934 93.9683 52.3234 93.6062 52.3097 93.2579C52.2959 92.9191 52.2202 92.5857 52.0864 92.2742C52.0171 92.122 51.9348 91.976 51.8403 91.8379C51.7409 91.6987 51.6303 91.5679 51.5097 91.4467C51.2541 91.1967 50.9649 90.9836 50.6507 90.8136C50.4891 90.7256 50.3226 90.6471 50.1519 90.5786C50.0661 90.5459 49.9796 90.5131 49.8934 90.4837L49.7648 90.4431L49.6516 90.4103L49.5994 90.394C49.4557 90.3483 49.334 90.2507 49.2579 90.1202C49.1818 89.9897 49.1567 89.8356 49.1875 89.6876C49.379 88.788 49.5465 87.8544 49.7058 86.933C49.865 86.0115 50.0093 85.0786 50.1477 84.1486C50.4225 82.2883 50.6588 80.4204 50.8716 78.551C50.9728 77.6151 51.0769 76.6795 51.1637 75.742C51.2594 74.8055 51.3377 73.867 51.4183 72.9288C51.4989 71.9906 51.5619 71.0508 51.635 70.1136L51.8152 67.2939V67.2857C51.8203 67.2065 51.8408 67.1291 51.8757 67.0578C51.9106 66.9866 51.9592 66.923 52.0186 66.8705C52.078 66.8181 52.1471 66.778 52.222 66.7523C52.2969 66.7267 52.3761 66.7161 52.4551 66.7212C52.5341 66.7263 52.6113 66.7469 52.6823 66.7819C52.7533 66.8169 52.8168 66.8656 52.8691 66.9252C52.9213 66.9848 52.9614 67.0541 52.9869 67.1292C53.0125 67.2043 53.023 67.2838 53.018 67.363" fill="black"/>
<path id="Vector_16" d="M62.7515 95.4898L60.2475 96.9403C57.8084 98.353 55.0414 99.0966 52.2248 99.0962H18.2713C15.4547 99.0963 12.6878 98.3527 10.2486 96.9403L7.74391 95.4898C7.25433 95.2054 7.03663 94.5896 7.27979 94.076C7.34403 93.942 7.43512 93.8228 7.54735 93.7256C7.65959 93.6285 7.79057 93.5556 7.93214 93.5114C8.07371 93.4673 8.22282 93.4529 8.37019 93.4691C8.51756 93.4853 8.66002 93.5318 8.78868 93.6056L10.8244 94.7841C13.2636 96.1965 16.0305 96.94 18.847 96.94H51.6471C54.4635 96.941 57.2305 96.1981 59.6698 94.786L61.7058 93.6076C61.8345 93.5337 61.9769 93.4873 62.1243 93.4711C62.2717 93.4548 62.4208 93.4693 62.5623 93.5134C62.7039 93.5575 62.8349 93.6304 62.9471 93.7276C63.0594 93.8247 63.1504 93.944 63.2147 94.078C63.4592 94.5916 63.2424 95.2073 62.7515 95.4918" fill="white"/>
<g id="Group_5" opacity="0.25">
<path id="Vector_17" d="M62.7515 95.4897L60.2475 96.9402C57.8083 98.3528 55.0412 99.0964 52.2245 99.0961H18.2712C15.4546 99.0961 12.6876 98.3526 10.2483 96.9402L7.74423 95.4897C7.25464 95.2053 7.03629 94.5889 7.2801 94.0756C7.2915 94.0503 7.30435 94.0257 7.31861 94.002C7.41878 94.182 7.56532 94.3318 7.74292 94.4357L10.247 95.8862C12.6862 97.2987 15.4533 98.0422 18.2699 98.042H52.2235C55.0406 98.0426 57.808 97.2991 60.2475 95.8862L62.7525 94.4357C62.9308 94.3332 63.0776 94.1835 63.1768 94.0029C63.1909 94.0265 63.2039 94.0511 63.2157 94.0756C63.4604 94.5889 63.2434 95.2053 62.7525 95.4897" fill="black"/>
</g>
<path id="Vector_18" d="M52.2232 99.6266H18.2713C15.3622 99.6257 12.5044 98.858 9.98424 97.4007L7.47954 95.9499C6.74385 95.5243 6.44619 94.6015 6.80228 93.8496C6.89776 93.6492 7.03349 93.4708 7.20095 93.3255C7.36841 93.1802 7.56399 93.0712 7.77543 93.0053C7.98688 92.9394 8.20962 92.918 8.4297 92.9424C8.64978 92.9669 8.86244 93.0367 9.05436 93.1475L11.0904 94.3259C13.4495 95.691 16.125 96.4101 18.8486 96.4111H51.6471C54.3708 96.4104 57.0463 95.6914 59.4054 94.3262L61.4414 93.1478C61.6332 93.0372 61.8456 92.9675 62.0655 92.9431C62.2853 92.9187 62.5078 92.9401 62.719 93.0059C62.9303 93.0717 63.1257 93.1806 63.293 93.3257C63.4604 93.4707 63.596 93.6489 63.6916 93.849C64.0506 94.6019 63.7526 95.5233 63.0159 95.9499L60.5086 97.3997C57.9892 98.8575 55.1319 99.6255 52.2232 99.6266ZM8.25373 93.9927C8.14969 93.992 8.0476 94.0211 7.95945 94.0765C7.87129 94.1319 7.80072 94.2114 7.75599 94.3056C7.63588 94.5596 7.74587 94.8788 8.00796 95.0303L10.5127 96.4815C12.8719 97.8462 15.5474 98.5651 18.2709 98.5663H52.2232C54.9468 98.5656 57.6224 97.8466 59.9815 96.4815L62.4872 95.0303C62.7483 94.8791 62.8589 94.5599 62.7375 94.3046C62.6929 94.2105 62.6224 94.1311 62.5342 94.0758C62.4461 94.0205 62.344 93.9917 62.2401 93.9927C62.1451 93.9924 62.0517 94.0175 61.9695 94.0653L59.9342 95.2438C57.4142 96.7018 54.5563 97.4694 51.6471 97.4697H18.847C15.9379 97.469 13.0801 96.7013 10.56 95.2438L8.52463 94.0653C8.44233 94.0175 8.34885 93.9924 8.25373 93.9927Z" fill="black"/>
<path id="Vector_19" d="M21.1683 103.465H18.7527L18.1945 99.0962H21.7264L21.1683 103.465Z" fill="#D9DBD9"/>
<path id="Vector_20" d="M52.5489 103.465H50.1333L49.5752 99.0962H53.107L52.5489 103.465Z" fill="#D9DBD9"/>
<g id="Group_6" opacity="0.35">
<path id="Vector_21" d="M21.1683 103.465H18.7527L18.1945 99.0962H21.7264L21.1683 103.465Z" fill="#371B45"/>
</g>
<g id="Group_7" opacity="0.35">
<path id="Vector_22" d="M52.5489 103.465H50.1333L49.5752 99.0962H53.107L52.5489 103.465Z" fill="#371B45"/>
</g>
<path id="Vector_23" d="M21.6337 103.995H18.2876L17.594 98.5662H22.3266L21.6337 103.995ZM19.2184 102.934H20.7035L21.1278 99.6264H18.7961L19.2184 102.934Z" fill="black"/>
<path id="Vector_24" d="M22.7379 103.278C22.7379 103.847 22.5696 104.403 22.2544 104.876C21.9392 105.349 21.4912 105.718 20.967 105.936C20.4428 106.154 19.8661 106.211 19.3096 106.1C18.7531 105.989 18.242 105.715 17.8408 105.312C17.4396 104.91 17.1664 104.397 17.0557 103.839C16.945 103.281 17.0019 102.703 17.219 102.177C17.4361 101.651 17.8038 101.202 18.2755 100.886C18.7473 100.57 19.3019 100.401 19.8692 100.401C20.246 100.401 20.619 100.475 20.9671 100.62C21.3151 100.764 21.6314 100.976 21.8978 101.243C22.1642 101.511 22.3755 101.828 22.5196 102.177C22.6637 102.526 22.7379 102.9 22.7379 103.278Z" fill="#A7A7A6"/>
<path id="Vector_25" d="M22.7379 103.278C22.7379 103.847 22.5696 104.403 22.2544 104.876C21.9392 105.349 21.4912 105.718 20.967 105.936C20.4428 106.154 19.8661 106.211 19.3096 106.1C18.7531 105.989 18.242 105.715 17.8408 105.312C17.4396 104.91 17.1664 104.397 17.0557 103.839C16.945 103.281 17.0019 102.703 17.219 102.177C17.4361 101.651 17.8038 101.202 18.2755 100.886C18.7473 100.57 19.3019 100.401 19.8692 100.401C20.246 100.401 20.619 100.475 20.9671 100.62C21.3151 100.764 21.6314 100.976 21.8978 101.243C22.1642 101.511 22.3755 101.828 22.5196 102.177C22.6637 102.526 22.7379 102.9 22.7379 103.278Z" fill="#C6FF00"/>
<g id="Group_8" opacity="0.25">
<path id="Vector_26" d="M22.7382 103.278C22.7392 103.561 22.6976 103.844 22.6148 104.115C22.2577 103.378 21.1637 102.841 19.8705 102.841C18.5774 102.841 17.484 103.378 17.1259 104.115C17.0064 103.72 16.9732 103.303 17.0287 102.893C17.0841 102.484 17.227 102.091 17.4474 101.742C17.6679 101.392 17.9608 101.095 18.3062 100.869C18.6516 100.644 19.0414 100.496 19.449 100.435C19.8567 100.374 20.2726 100.402 20.6685 100.517C21.0645 100.632 21.431 100.831 21.7433 101.101C22.0556 101.37 22.3062 101.705 22.4782 102.08C22.6502 102.456 22.7394 102.864 22.7398 103.278" fill="black"/>
</g>
<path id="Vector_27" d="M19.8692 106.685C19.1973 106.685 18.5406 106.485 17.982 106.11C17.4234 105.736 16.9881 105.204 16.7311 104.581C16.4742 103.958 16.407 103.273 16.5383 102.612C16.6695 101.951 16.9932 101.344 17.4684 100.868C17.9436 100.391 18.549 100.067 19.208 99.9357C19.867 99.8044 20.5501 99.8719 21.1708 100.13C21.7915 100.388 22.322 100.825 22.6953 101.385C23.0685 101.945 23.2677 102.604 23.2676 103.278C23.2666 104.182 22.9082 105.048 22.271 105.686C21.6339 106.325 20.7701 106.684 19.8692 106.685ZM19.8692 100.931C19.4064 100.931 18.9539 101.068 18.569 101.326C18.1841 101.584 17.8841 101.951 17.7069 102.38C17.5298 102.808 17.4834 103.28 17.5736 103.736C17.6639 104.191 17.8868 104.609 18.214 104.938C18.5413 105.266 18.9583 105.489 19.4122 105.58C19.8662 105.671 20.3368 105.624 20.7644 105.446C21.192 105.269 21.5575 104.968 21.8147 104.582C22.0719 104.196 22.2091 103.742 22.2091 103.278C22.2084 102.656 21.9617 102.059 21.523 101.619C21.0844 101.179 20.4896 100.932 19.8692 100.931Z" fill="black"/>
<path id="Vector_28" d="M53.0141 103.995H49.6682L48.9747 98.5662H53.7073L53.0141 103.995ZM50.5988 102.934H52.0838L52.5062 99.6264H50.1761L50.5988 102.934Z" fill="black"/>
<path id="Vector_29" d="M21.027 103.278C21.027 103.508 20.959 103.732 20.8318 103.923C20.7045 104.114 20.5236 104.263 20.312 104.351C20.1004 104.439 19.8675 104.462 19.6429 104.417C19.4182 104.372 19.2119 104.262 19.05 104.099C18.888 103.937 18.7778 103.73 18.7331 103.505C18.6885 103.279 18.7115 103.046 18.7992 102.833C18.8868 102.621 19.0353 102.44 19.2258 102.312C19.4163 102.185 19.6402 102.117 19.8693 102.117C20.0213 102.117 20.1719 102.147 20.3124 102.205C20.4528 102.263 20.5805 102.349 20.688 102.457C20.7955 102.565 20.8808 102.693 20.9389 102.834C20.9971 102.975 21.027 103.126 21.027 103.278Z" fill="white"/>
<path id="Vector_30" d="M19.8693 104.527C19.6228 104.528 19.3818 104.454 19.1768 104.317C18.9718 104.18 18.8121 103.984 18.7177 103.756C18.6233 103.528 18.5986 103.276 18.6467 103.034C18.6948 102.791 18.8135 102.569 18.9878 102.394C19.1621 102.219 19.3841 102.1 19.6259 102.052C19.8677 102.004 20.1182 102.028 20.346 102.123C20.5737 102.218 20.7683 102.378 20.9052 102.583C21.0421 102.789 21.1151 103.031 21.1151 103.278C21.1146 103.609 20.9833 103.927 20.7497 104.161C20.5162 104.395 20.1995 104.527 19.8693 104.527ZM19.8693 102.203C19.6576 102.203 19.4507 102.266 19.2748 102.384C19.0988 102.502 18.9616 102.669 18.8806 102.865C18.7995 103.062 18.7783 103.277 18.8195 103.485C18.8608 103.694 18.9627 103.885 19.1123 104.035C19.2619 104.185 19.4525 104.287 19.6601 104.329C19.8676 104.37 20.0828 104.349 20.2783 104.268C20.4738 104.187 20.6409 104.049 20.7585 103.873C20.8761 103.696 20.9388 103.489 20.9388 103.276C20.9381 102.992 20.8252 102.72 20.6247 102.519C20.4242 102.318 20.1526 102.205 19.8693 102.205V102.203Z" fill="black"/>
<path id="Vector_31" d="M19.8693 104.793C19.5705 104.793 19.2784 104.704 19.0299 104.537C18.7815 104.371 18.5878 104.134 18.4734 103.858C18.3591 103.581 18.3291 103.276 18.3874 102.982C18.4457 102.688 18.5896 102.418 18.8008 102.206C19.0121 101.995 19.2813 101.85 19.5743 101.792C19.8674 101.733 20.1711 101.763 20.4471 101.878C20.7232 101.993 20.9591 102.187 21.125 102.436C21.291 102.685 21.3795 102.978 21.3795 103.278C21.379 103.68 21.2198 104.065 20.9367 104.349C20.6535 104.632 20.2697 104.792 19.8693 104.793ZM19.8693 102.468C19.7099 102.468 19.5541 102.516 19.4216 102.604C19.2891 102.693 19.1858 102.819 19.1248 102.967C19.0638 103.115 19.0478 103.277 19.0788 103.434C19.1099 103.59 19.1866 103.734 19.2992 103.847C19.4119 103.961 19.5554 104.037 19.7117 104.069C19.8679 104.1 20.0299 104.084 20.1771 104.023C20.3243 103.962 20.4502 103.858 20.5387 103.725C20.6272 103.592 20.6745 103.436 20.6745 103.276C20.6738 103.062 20.5887 102.858 20.4378 102.707C20.2869 102.555 20.0825 102.47 19.8693 102.47V102.468Z" fill="black"/>
<g id="Group_9" opacity="0.25">
<path id="Vector_32" d="M20.9901 102.984C20.2547 102.794 19.4834 102.794 18.7481 102.984C18.8129 102.735 18.9581 102.515 19.161 102.358C19.3638 102.201 19.6128 102.116 19.8691 102.116C20.1253 102.116 20.3744 102.201 20.5772 102.358C20.78 102.515 20.9252 102.735 20.9901 102.984Z" fill="#6B184E"/>
</g>
<path id="Vector_33" d="M54.2093 103.278C54.2093 103.847 54.0411 104.403 53.7259 104.876C53.4106 105.349 52.9626 105.718 52.4385 105.936C51.9143 106.154 51.3375 106.211 50.781 106.1C50.2246 105.989 49.7134 105.715 49.3123 105.312C48.9111 104.91 48.6379 104.397 48.5272 103.839C48.4165 103.281 48.4733 102.703 48.6904 102.177C48.9075 101.651 49.2752 101.202 49.747 100.886C50.2187 100.57 50.7733 100.401 51.3407 100.401C51.7174 100.401 52.0905 100.475 52.4385 100.62C52.7866 100.764 53.1028 100.976 53.3692 101.243C53.6356 101.511 53.8469 101.828 53.991 102.177C54.1352 102.526 54.2094 102.9 54.2093 103.278Z" fill="#A7A7A6"/>
<path id="Vector_34" d="M54.2093 103.278C54.2093 103.847 54.0411 104.403 53.7259 104.876C53.4106 105.349 52.9626 105.718 52.4385 105.936C51.9143 106.154 51.3375 106.211 50.781 106.1C50.2246 105.989 49.7134 105.715 49.3123 105.312C48.9111 104.91 48.6379 104.397 48.5272 103.839C48.4165 103.281 48.4733 102.703 48.6904 102.177C48.9075 101.651 49.2752 101.202 49.747 100.886C50.2187 100.57 50.7733 100.401 51.3407 100.401C51.7174 100.401 52.0905 100.475 52.4385 100.62C52.7866 100.764 53.1028 100.976 53.3692 101.243C53.6356 101.511 53.8469 101.828 53.991 102.177C54.1352 102.526 54.2094 102.9 54.2093 103.278Z" fill="#C6FF00"/>
<path id="Vector_35" d="M51.341 106.685C50.669 106.685 50.0121 106.485 49.4534 106.111C48.8947 105.737 48.4592 105.204 48.202 104.582C47.9448 103.959 47.8775 103.274 48.0086 102.613C48.1396 101.952 48.4632 101.345 48.9384 100.868C49.4135 100.392 50.0189 100.067 50.678 99.9358C51.337 99.8044 52.0202 99.8719 52.641 100.13C53.2618 100.388 53.7924 100.825 54.1656 101.385C54.5389 101.945 54.7381 102.604 54.7381 103.278C54.7369 104.181 54.3787 105.047 53.7419 105.686C53.105 106.325 52.2416 106.684 51.341 106.685ZM51.341 100.931C50.8782 100.931 50.4257 101.068 50.0408 101.326C49.6559 101.584 49.3559 101.951 49.1787 102.38C49.0015 102.808 48.9551 103.28 49.0454 103.736C49.1357 104.191 49.3585 104.609 49.6858 104.938C50.0131 105.266 50.43 105.489 50.884 105.58C51.338 105.671 51.8085 105.624 52.2362 105.446C52.6638 105.269 53.0293 104.968 53.2865 104.582C53.5436 104.196 53.6809 103.742 53.6809 103.278C53.6802 102.656 53.4335 102.059 52.9948 101.619C52.5562 101.179 51.9614 100.932 51.341 100.931Z" fill="black"/>
<path id="Vector_36" d="M52.4987 103.278C52.4986 103.508 52.4307 103.732 52.3034 103.923C52.1762 104.114 51.9953 104.263 51.7838 104.351C51.5722 104.438 51.3395 104.461 51.1149 104.417C50.8904 104.372 50.6841 104.261 50.5223 104.099C50.3604 103.936 50.2502 103.729 50.2055 103.504C50.1609 103.279 50.1838 103.046 50.2714 102.833C50.3591 102.621 50.5075 102.44 50.6978 102.312C50.8882 102.185 51.112 102.117 51.341 102.117C51.4931 102.117 51.6436 102.147 51.7841 102.205C51.9246 102.263 52.0522 102.349 52.1597 102.457C52.2672 102.565 52.3525 102.693 52.4107 102.834C52.4688 102.975 52.4987 103.126 52.4987 103.278Z" fill="white"/>
<path id="Vector_37" d="M51.341 104.793C51.0422 104.793 50.7501 104.704 50.5017 104.537C50.2532 104.371 50.0596 104.134 49.9452 103.858C49.8308 103.581 49.8009 103.276 49.8591 102.982C49.9174 102.688 50.0613 102.418 50.2726 102.206C50.4838 101.995 50.753 101.85 51.0461 101.792C51.3391 101.733 51.6428 101.763 51.9189 101.878C52.1949 101.993 52.4308 102.187 52.5968 102.436C52.7627 102.685 52.8513 102.978 52.8512 103.278C52.8508 103.68 52.6915 104.065 52.4084 104.349C52.1253 104.632 51.7414 104.792 51.341 104.793ZM51.341 102.468C51.1817 102.468 51.0259 102.516 50.8935 102.605C50.761 102.693 50.6578 102.82 50.5968 102.967C50.5358 103.115 50.5199 103.277 50.5509 103.434C50.582 103.591 50.6587 103.735 50.7714 103.848C50.8841 103.961 51.0276 104.038 51.1838 104.069C51.3401 104.1 51.5021 104.084 51.6493 104.023C51.7965 103.962 51.9223 103.858 52.0108 103.725C52.0993 103.592 52.1465 103.436 52.1465 103.276C52.1458 103.062 52.0607 102.858 51.9097 102.706C51.7588 102.555 51.5543 102.47 51.341 102.47V102.468Z" fill="black"/>
<g id="Group_10" opacity="0.25">
<path id="Vector_38" d="M54.2093 103.278C54.2099 103.562 54.1678 103.844 54.0846 104.115C53.7276 103.378 52.6335 102.841 51.3404 102.841C50.0472 102.841 48.9544 103.378 48.5954 104.115C48.4758 103.72 48.4427 103.303 48.4982 102.893C48.5536 102.484 48.6965 102.091 48.9169 101.742C49.1374 101.392 49.4303 101.095 49.7757 100.869C50.1211 100.644 50.5109 100.496 50.9185 100.435C51.3262 100.374 51.7421 100.402 52.138 100.517C52.5339 100.632 52.9005 100.831 53.2128 101.101C53.5251 101.37 53.7757 101.705 53.9477 102.08C54.1196 102.456 54.2089 102.864 54.2093 103.278Z" fill="black"/>
</g>
<path id="Vector_39" d="M50.7666 55.5231C50.2828 55.5885 49.7873 55.6409 49.2798 55.6802L46.7582 52.0391L44.949 49.4272L43.0977 46.7548C43.0977 46.7548 44.4744 46.2366 46.4115 45.2336C48.1561 44.3298 50.3524 43.0339 52.407 41.3677C54.7968 39.4321 56.995 36.994 58.0568 34.0964C60.6659 26.9792 63.4481 30.3437 63.4481 30.3437C63.4481 30.3437 66.4473 28.1986 67.5211 31.3584C67.5211 31.3584 70.0503 30.8854 70.1873 34.2109C70.2765 36.3485 67.7277 53.2703 50.7672 55.5227" fill="black"/>
<path id="Vector_40" d="M43.2129 46.1881C43.7306 45.9871 44.2697 45.7517 44.7916 45.5118C45.3135 45.2718 45.8361 45.0175 46.3511 44.7517C47.3809 44.2243 48.3855 43.6485 49.3627 43.0331C51.3119 41.7974 53.1488 40.3783 54.7119 38.7121C55.4903 37.8794 56.1953 36.9825 56.7815 36.0197C56.9235 35.7772 57.0593 35.531 57.1967 35.2858C57.3158 35.0325 57.4457 34.7834 57.558 34.527L57.7153 34.1391C57.7679 34.0082 57.8201 33.8848 57.8753 33.7385C57.983 33.456 58.0904 33.1731 58.2134 32.8942C58.4527 32.3345 58.7177 31.7813 59.0444 31.2441C59.3711 30.7069 59.7429 30.1822 60.2612 29.7311C60.526 29.4906 60.8286 29.2955 61.1568 29.1537C61.5122 28.9994 61.8983 28.9292 62.2851 28.9484C62.6662 28.9755 63.037 29.0846 63.3723 29.2682C63.5322 29.3542 63.6841 29.4542 63.8263 29.5671C63.8971 29.6228 63.9654 29.6807 64.0316 29.7429C64.0643 29.7733 64.0969 29.8064 64.1295 29.8388C64.1622 29.8712 64.1902 29.9013 64.2379 29.9573L63.4242 29.8512C63.5453 29.7671 63.6357 29.7128 63.7421 29.6512C63.8485 29.5897 63.9494 29.536 64.0558 29.4843C64.2709 29.3781 64.4933 29.2874 64.7213 29.2129C65.1825 29.0653 65.7004 28.9772 66.2465 29.0627C66.5242 29.1057 66.7922 29.197 67.0386 29.3324C67.2796 29.47 67.4974 29.6449 67.6839 29.8506C68.0407 30.2549 68.2636 30.7128 68.4173 31.1619L67.7361 30.7632C67.7867 30.7541 67.8177 30.7505 67.8497 30.7462C67.8817 30.7419 67.915 30.7387 67.9454 30.7367C68.007 30.7321 68.0691 30.7272 68.1291 30.7275C68.2498 30.7257 68.3705 30.7301 68.4907 30.7406C68.7361 30.7643 68.9774 30.8193 69.2088 30.9043C69.6854 31.0791 70.1015 31.3883 70.407 31.7947L70.516 31.9456C70.5535 31.994 70.5863 32.046 70.6139 32.1008L70.7771 32.4219C70.8277 32.5296 70.858 32.6392 70.8982 32.7492C70.9394 32.8556 70.9721 32.965 70.9961 33.0766C71.0389 33.2939 71.1006 33.5162 71.1113 33.7313C71.1293 33.9496 71.1629 34.1542 71.156 34.3912C71.159 34.5113 71.1485 34.6069 71.1449 34.7153C71.1413 34.8236 71.1319 34.9244 71.1224 35.0262C71.1064 35.2318 71.0819 35.4328 71.0571 35.6335C71.0059 36.0341 70.9416 36.4296 70.8675 36.8227C70.72 37.6083 70.53 38.3832 70.3094 39.1485C69.4131 42.1993 68.0426 45.134 66.099 47.6821C65.1309 48.9593 64.0264 50.1265 62.8054 51.163C61.5795 52.1932 60.2393 53.0914 58.8074 53.8028C57.382 54.5198 55.8797 55.0716 54.3297 55.4477C53.9413 55.531 53.5527 55.6101 53.1638 55.685C52.7754 55.7635 52.3805 55.7963 51.9888 55.847L51.4013 55.9158C51.2055 55.9328 51.0071 55.9357 50.8103 55.9465C50.4162 55.9629 50.0229 55.9738 49.6304 55.9793C49.5548 55.9806 49.4814 55.9535 49.4248 55.9031C49.3683 55.8528 49.3326 55.783 49.3249 55.7076C49.3172 55.6321 49.3381 55.5565 49.3834 55.4958C49.4286 55.435 49.495 55.3936 49.5693 55.3796L49.5834 55.3766C51.0981 55.0876 52.594 54.8067 54.0467 54.3691C55.4939 53.9252 56.9092 53.3939 58.246 52.6996C59.5842 52.0122 60.8311 51.1526 61.9688 50.1715C63.1093 49.1882 64.1396 48.0832 65.0415 46.8761C65.9466 45.6656 66.7361 44.3723 67.3996 43.0135C68.0615 41.6495 68.6086 40.2326 69.0352 38.7773C69.248 38.0493 69.4239 37.3114 69.5766 36.572C69.6514 36.2017 69.7167 35.8305 69.7686 35.459C69.7947 35.274 69.8195 35.0894 69.8358 34.9074C69.8456 34.8158 69.8551 34.7244 69.859 34.637C69.8629 34.5496 69.8743 34.4534 69.8717 34.3788C69.8619 33.7162 69.7473 32.9898 69.4056 32.5528C69.2466 32.3323 69.028 32.162 68.7757 32.0618C68.6435 32.0093 68.5052 31.9738 68.3641 31.9561C68.2913 31.9505 68.2182 31.9417 68.1454 31.9433C68.1098 31.9422 68.0742 31.943 68.0387 31.9456C68.0223 31.9458 68.006 31.947 67.9897 31.9492C67.9737 31.9492 67.9571 31.9521 67.9587 31.9515L67.2779 31.5528C67.1604 31.2035 66.9949 30.8929 66.7925 30.6624C66.695 30.5554 66.5819 30.4638 66.457 30.3907C66.3329 30.3228 66.1977 30.2774 66.0578 30.2565C65.769 30.2094 65.4302 30.2539 65.0921 30.3639C64.9191 30.4203 64.7505 30.4891 64.5875 30.5698C64.5046 30.61 64.4243 30.6545 64.343 30.7007C64.2617 30.7469 64.1775 30.7989 64.1253 30.8366C64.0048 30.9197 63.8586 30.9569 63.7132 30.9414C63.5677 30.9259 63.4326 30.8588 63.3322 30.7521L63.3116 30.7302L63.2705 30.6866C63.2509 30.6676 63.2326 30.6483 63.2114 30.6293C63.1706 30.591 63.1269 30.5534 63.0809 30.5187C62.9931 30.4487 62.8993 30.3868 62.8005 30.3338C62.6194 30.2336 62.4191 30.1731 62.213 30.1563C61.8272 30.1354 61.4199 30.3108 61.051 30.6441C60.6783 30.9642 60.3578 31.4071 60.0719 31.8733C59.786 32.3394 59.5408 32.8507 59.3186 33.3722C59.204 33.6314 59.1025 33.8985 59.0007 34.1653C58.9524 34.2943 58.8916 34.4419 58.8339 34.5843L58.6596 35.0135C58.5359 35.296 58.3942 35.57 58.262 35.8475C58.1126 36.1156 57.9641 36.3847 57.809 36.6492C57.1716 37.6967 56.4147 38.6562 55.5896 39.5397C53.9328 41.3073 52.0182 42.7781 50.0041 44.057C48.994 44.6934 47.9588 45.2841 46.8985 45.8293C46.3693 46.1029 45.8338 46.3639 45.292 46.6123C44.7469 46.8624 44.2103 47.0977 43.6339 47.3216C43.5598 47.3524 43.4802 47.3679 43.4 47.3674C43.3198 47.3668 43.2404 47.3502 43.1667 47.3185C43.0929 47.2868 43.0262 47.2407 42.9705 47.1828C42.9148 47.1248 42.8712 47.0564 42.8422 46.9813C42.8132 46.9063 42.7995 46.8262 42.8018 46.7457C42.8041 46.6653 42.8224 46.5861 42.8556 46.5129C42.8888 46.4396 42.9363 46.3738 42.9952 46.3192C43.0542 46.2646 43.1234 46.2223 43.1989 46.1949L43.2129 46.1881Z" fill="black"/>
<path id="Vector_41" d="M66.0373 37.7037C66.0682 38.2285 65.9432 38.7507 65.6782 39.2043C65.4132 39.6579 65.02 40.0224 64.5484 40.2519C64.0768 40.4814 63.5479 40.5654 63.0287 40.4934C62.5094 40.4214 62.0231 40.1966 61.6313 39.8475C61.2394 39.4983 60.9596 39.0404 60.8272 38.5317C60.6949 38.023 60.7159 37.4864 60.8876 36.9897C61.0593 36.493 61.374 36.0585 61.792 35.7412C62.2099 35.4239 62.7123 35.238 63.2356 35.207C63.9372 35.1655 64.6265 35.4052 65.1519 35.8734C65.6774 36.3416 65.9958 37 66.0373 37.7037Z" fill="white"/>
<path id="Vector_42" d="M62.4695 33.6569C62.481 33.8526 62.4344 34.0473 62.3355 34.2165C62.2366 34.3856 62.09 34.5215 61.9141 34.607C61.7382 34.6925 61.5409 34.7238 61.3473 34.6969C61.1537 34.67 60.9724 34.5861 60.8263 34.4559C60.6802 34.3256 60.5759 34.1548 60.5266 33.9651C60.4773 33.7754 60.4852 33.5753 60.5493 33.3901C60.6134 33.2049 60.7308 33.0429 60.8867 32.9246C61.0426 32.8063 61.23 32.7371 61.4251 32.7256C61.5547 32.7179 61.6844 32.7359 61.8071 32.7786C61.9297 32.8213 62.0427 32.8877 62.1397 32.9742C62.2367 33.0607 62.3157 33.1655 62.3723 33.2826C62.4289 33.3998 62.462 33.5269 62.4695 33.6569Z" fill="white"/>
<path id="Vector_43" d="M65.7873 33.4603C65.7988 33.656 65.7522 33.8507 65.6534 34.0199C65.5546 34.1891 65.4079 34.325 65.232 34.4106C65.0562 34.4962 64.8589 34.5275 64.6653 34.5006C64.4716 34.4738 64.2903 34.3899 64.1441 34.2597C63.998 34.1294 63.8937 33.9586 63.8444 33.7689C63.795 33.5792 63.8029 33.3791 63.867 33.1939C63.9311 33.0086 64.0485 32.8466 64.2044 32.7283C64.3603 32.61 64.5477 32.5408 64.7428 32.5293C65.0044 32.5139 65.2614 32.6033 65.4572 32.7779C65.6531 32.9525 65.7718 33.1979 65.7873 33.4603Z" fill="white"/>
<path id="Vector_44" d="M68.2032 35.3036C68.2147 35.4993 68.168 35.694 68.0691 35.8632C67.9703 36.0323 67.8236 36.1682 67.6477 36.2537C67.4718 36.3392 67.2746 36.3705 67.081 36.3436C66.8873 36.3167 66.706 36.2328 66.5599 36.1026C66.4138 35.9723 66.3095 35.8015 66.2602 35.6118C66.2109 35.4221 66.2188 35.222 66.2829 35.0368C66.347 34.8516 66.4644 34.6896 66.6203 34.5713C66.7762 34.453 66.9636 34.3838 67.1587 34.3723C67.4204 34.3569 67.6774 34.4464 67.8732 34.621C68.0691 34.7957 68.1878 35.0412 68.2032 35.3036Z" fill="white"/>
<path id="Vector_45" d="M42.6375 44.7457C42.6375 44.7457 37.8379 58.4477 29.4984 59.3472C19.8196 60.3911 16.842 44.7745 16.842 44.7745L15.7975 44.7162C15.7975 44.7162 17.7905 61.8891 29.5467 60.9214C40.1331 60.0504 44.0384 44.2939 44.0384 44.2939L42.6375 44.7457Z" fill="#C6FF00"/>
<g id="Group_11" opacity="0.3">
<path id="Vector_46" d="M44.0361 44.2939C44.0361 44.2939 40.1325 60.05 29.5464 60.9231C17.7902 61.89 15.7966 44.7172 15.7966 44.7172L16.3008 44.7454C16.8254 48.2915 19.4015 60.8835 29.5121 60.0513C38.4297 59.3161 42.4045 48.0273 43.4378 44.4887L44.0361 44.2939Z" fill="#6B184E"/>
</g>
<path id="Vector_47" d="M28.6116 61.6672C23.9442 61.6672 20.1581 58.8569 17.6256 53.4836C15.6314 49.2546 15.1177 44.9775 15.0968 44.7975L14.9989 43.9634L17.4292 44.0986L17.533 44.641C17.5607 44.786 20.3213 58.687 28.5975 58.6887C28.8727 58.6884 29.1477 58.6735 29.4213 58.6438C37.2198 57.8026 41.9243 44.6433 41.971 44.5107L42.0872 44.1798L45.0247 43.2305L44.7192 44.4632C44.6784 44.6269 43.693 48.5439 41.3721 52.6299C38.243 58.1381 34.1732 61.2485 29.6022 61.6246C29.2684 61.653 28.9382 61.6672 28.6116 61.6672ZM18.3486 51.6138C18.5216 52.0439 18.7096 52.477 18.9136 52.9081C21.3863 58.1319 24.9446 60.5906 29.4886 60.2167C36.141 59.6697 40.0766 52.7359 41.9671 48.1495C39.9569 52.3775 35.7298 59.3863 29.5738 60.0501C25.3033 60.511 21.6177 57.9963 18.9155 52.7785C18.7138 52.3896 18.5252 51.9997 18.3486 51.6138Z" fill="black"/>
<path id="Vector_48" d="M32.5553 62.939C32.5843 63.6721 32.3958 64.3973 32.0137 65.023C31.6317 65.6487 31.0732 66.1466 30.409 66.454C29.7448 66.7613 29.0046 66.8642 28.282 66.7497C27.5595 66.6351 26.887 66.3082 26.3497 65.8103C25.8124 65.3125 25.4343 64.666 25.2634 63.9526C25.0924 63.2393 25.1362 62.4911 25.3892 61.8027C25.6422 61.1143 26.0931 60.5166 26.6848 60.0852C27.2765 59.6539 27.9825 59.4081 28.7134 59.3791C29.6936 59.3402 30.649 59.6934 31.3695 60.3611C32.09 61.0287 32.5165 61.956 32.5553 62.939Z" fill="#C6FF00"/>
<path id="Vector_49" d="M28.8577 67.5018C26.5077 67.5018 24.5532 65.634 24.4596 63.2601C24.4231 62.0955 24.8469 60.9637 25.6387 60.1112C26.4305 59.2586 27.5261 58.7544 28.6869 58.7083C29.8477 58.6622 30.9796 59.078 31.8361 59.8652C32.6926 60.6523 33.2043 61.747 33.2597 62.9108C33.3556 65.3443 31.4596 67.4023 29.0336 67.4985C28.9748 67.5008 28.9161 67.5018 28.8577 67.5018ZM28.8629 60.0832C28.8224 60.0832 28.7819 60.0832 28.7415 60.0855C28.1498 60.1089 27.5784 60.3078 27.0994 60.657C26.6205 61.0062 26.2556 61.49 26.0508 62.0472C25.846 62.6044 25.8106 63.21 25.949 63.7874C26.0874 64.3648 26.3935 64.8881 26.8284 65.291C27.2634 65.694 27.8077 65.9585 28.3926 66.0512C28.9775 66.1438 29.5766 66.0605 30.1142 65.8116C30.6519 65.5627 31.1038 65.1595 31.413 64.653C31.7221 64.1466 31.8745 63.5595 31.851 62.9661C31.8205 62.1915 31.4924 61.4588 30.9354 60.9213C30.3785 60.3838 29.6358 60.0833 28.8629 60.0825V60.0832Z" fill="black"/>
<path id="Vector_50" d="M42.1365 13.2913C42.1365 13.2913 50.2009 15.1332 51.8789 19.1507C52.9638 21.7485 49.0977 25.2096 45.1226 25.2066L42.1365 13.2913Z" fill="white"/>
<path id="Vector_51" d="M49.24 24.0098C48.0457 24.7372 46.591 25.2089 45.1213 25.2086L42.6894 15.4995L42.1345 13.2913C42.1345 13.2913 50.1989 15.1339 51.8776 19.1507C52.561 20.7875 51.2767 22.7679 49.2384 24.0085" fill="white"/>
<g id="Group_12" opacity="0.35">
<path id="Vector_52" d="M51.3553 22.0828C51.6599 21.3659 51.7144 20.6307 51.4307 19.955C50.0534 16.6567 44.3745 14.8242 42.3829 14.2743L42.1362 13.2922C42.1362 13.2922 50.2006 15.1349 51.8792 19.1517C52.2683 20.0846 52.0189 21.1292 51.3553 22.0831" fill="white"/>
</g>
<g id="Group_13" opacity="0.35">
<path id="Vector_53" d="M49.24 24.0098C48.0458 24.7372 46.591 25.2089 45.1213 25.2086L42.6894 15.4995C45.2078 16.3637 48.9887 18.0564 50.0795 20.665C50.5263 21.7345 50.134 22.9499 49.24 24.0098Z" fill="#371B45"/>
</g>
<path id="Vector_54" d="M45.1233 25.916H44.5713L41.173 12.3462L42.2931 12.6018C42.6368 12.6804 50.7316 14.5744 52.529 18.8784C52.9781 19.9534 52.7901 21.1992 52.0035 22.3865C50.6245 24.4648 47.7954 25.916 45.1233 25.916ZM43.112 14.288L45.6641 24.4792C47.9309 24.2887 49.9427 22.9384 50.8289 21.6032C51.1954 21.0509 51.5619 20.2247 51.2277 19.4244C50.0677 16.6446 45.3175 14.9427 43.112 14.288Z" fill="black"/>
<path id="Vector_55" d="M3.76032 29.3755C4.85078 29.9922 5.98694 30.222 6.57836 29.1166C6.74156 28.8148 6.86297 28.4567 7.01996 28.0242C7.2641 27.3551 7.58788 26.505 8.26024 25.3999C9.66991 23.0803 11.1083 22.2381 11.783 21.5631C12.1152 21.2299 12.2618 20.9389 12.1289 20.5307C11.4556 18.4641 9.58081 17.3587 6.14263 17.7603C4.34749 17.9698 2.70869 18.8877 1.6835 20.019C1.58983 20.1202 1.50236 20.2249 1.42011 20.33C1.3953 20.3627 1.37017 20.3955 1.34634 20.4282C1.32252 20.4609 1.29804 20.4937 1.27552 20.5264C1.253 20.5591 1.2295 20.5919 1.20665 20.6246C1.20255 20.6322 1.19774 20.6395 1.19229 20.6462C1.15965 20.6966 1.1281 20.7467 1.09764 20.7965C1.09176 20.805 1.08621 20.8148 1.08132 20.8233C1.06173 20.856 1.04215 20.8888 1.02322 20.9231C0.841138 21.2384 0.710977 21.5811 0.637753 21.9379C-0.115879 25.8353 1.87444 28.3084 3.76032 29.3749" fill="black"/>
<g id="Group_14" opacity="0.3">
<path id="Vector_56" d="M2.00989 20.0203C6.48142 16.7089 10.8351 20.3254 12.1093 21.5634C12.4416 21.2298 12.5882 20.9388 12.4553 20.5306C11.782 18.4644 9.90719 17.3587 6.46901 17.7603C4.67387 17.9698 3.03508 18.8877 2.00989 20.019" fill="white"/>
</g>
<g id="Group_15" opacity="0.2">
<path id="Vector_57" d="M4.0867 29.3755C5.17717 29.9922 6.31333 30.222 6.90475 29.1166C7.06794 28.8148 7.18935 28.4567 7.34635 28.0242C6.71312 28.1854 6.04227 28.0948 5.47418 27.7712C3.493 26.6504 1.4126 24.1776 1.74649 20.3313C1.72169 20.364 1.69656 20.3968 1.67273 20.4295C1.6489 20.4622 1.62442 20.495 1.6019 20.5277C1.57938 20.5604 1.55588 20.5932 1.53304 20.6259C1.52894 20.6335 1.52413 20.6408 1.51868 20.6475C1.48604 20.6979 1.45448 20.748 1.42402 20.7978C1.41815 20.8063 1.4126 20.8161 1.4077 20.8246C1.38812 20.8573 1.36853 20.8901 1.3496 20.9244C1.16752 21.2397 1.03736 21.5824 0.964139 21.9392C0.210507 25.8366 2.20083 28.3097 4.0867 29.3762" fill="black"/>
</g>
<path id="Vector_58" d="M5.82148 30.589C4.72449 30.589 3.34093 29.9536 2.2547 28.9127C1.1972 27.8979 -0.466729 25.6258 0.272216 21.805C0.711209 19.5349 2.80532 17.6042 5.48367 17.0009C8.47666 16.3263 11.361 17.4229 13.1995 19.9336C13.2543 20.0084 13.2939 20.0933 13.316 20.1834C13.3381 20.2736 13.3422 20.3672 13.3282 20.459C13.3142 20.5507 13.2824 20.6388 13.2344 20.7182C13.1865 20.7976 13.1235 20.8667 13.0489 20.9217C12.9743 20.9767 12.8897 21.0164 12.7998 21.0385C12.7099 21.0607 12.6166 21.0648 12.5251 21.0508C12.4336 21.0368 12.3458 21.0048 12.2666 20.9567C12.1874 20.9087 12.1185 20.8454 12.0637 20.7706C10.5665 18.7264 8.22207 17.8327 5.79243 18.381C3.65165 18.8625 1.99 20.3477 1.6561 22.0741C1.04478 25.236 2.37906 27.0756 3.22897 27.8907C4.33249 28.9494 5.56592 29.2688 6.05061 29.1516C6.14062 29.1299 6.23401 29.1262 6.32545 29.1407C6.41689 29.1552 6.50459 29.1876 6.58355 29.2361C6.6625 29.2846 6.73116 29.3482 6.7856 29.4233C6.84004 29.4984 6.87921 29.5835 6.90085 29.6738C6.9225 29.764 6.9262 29.8577 6.91175 29.9494C6.8973 30.0411 6.86499 30.1291 6.81664 30.2083C6.7683 30.2875 6.70489 30.3563 6.63001 30.4109C6.55514 30.4655 6.47027 30.5048 6.38026 30.5265C6.19711 30.5694 6.00955 30.5903 5.82148 30.589Z" fill="black"/>
<path id="Vector_59" d="M36.927 13.7164C37.3816 15.4091 38.9072 14.0463 42.4818 15.9361C44.3618 16.9302 44.5449 17.3957 45.2887 17.8445C45.5434 17.998 45.8261 18.099 46.1202 18.1415C46.4143 18.184 46.7139 18.1672 47.0014 18.092C47.2889 18.0169 47.5586 17.8849 47.7946 17.7038C48.0306 17.5228 48.2282 17.2963 48.3757 17.0376C49.4499 15.1518 49.8954 12.006 47.2569 9.04645C45.9918 7.62806 42.9227 7.14981 40.3945 8.28799C37.2393 9.709 36.3633 11.6174 36.927 13.7164Z" fill="black"/>
<g id="Group_16" opacity="0.2">
<path id="Vector_60" d="M44.7714 17.2053C45.0714 17.4504 45.2907 17.6495 45.6164 17.8465C45.8711 18 46.1538 18.1009 46.4479 18.1434C46.742 18.1858 47.0416 18.169 47.3291 18.0938C47.6167 18.0186 47.8863 17.8866 48.1223 17.7055C48.3583 17.5245 48.5559 17.2979 48.7034 17.0393C49.7779 15.1541 50.2234 12.0073 47.5849 9.04815C47.2291 8.64911 46.7304 8.32504 46.1413 8.08936C48.3832 11.0613 47.8979 14.12 46.8247 16.0026C46.6178 16.3661 46.3191 16.6687 45.9587 16.8798C45.5983 17.0909 45.1888 17.2031 44.7714 17.2053Z" fill="black"/>
</g>
<g id="Group_17" opacity="0.3">
<path id="Vector_61" d="M45.794 7.91249C40.263 7.36681 38.3719 12.7107 37.9101 14.4286C37.4531 14.3131 37.18 14.1383 37.0853 13.7196C36.6075 11.5991 37.6526 9.68605 40.8101 8.26373C42.458 7.52131 44.3351 7.46665 45.794 7.91249Z" fill="white"/>
</g>
<path id="Vector_62" d="M47.1126 19.2364C46.9441 19.2363 46.7812 19.1756 46.6534 19.0654C46.5256 18.9552 46.4414 18.8027 46.416 18.6356C46.3907 18.4685 46.4259 18.2978 46.5152 18.1545C46.6046 18.0111 46.7422 17.9046 46.9031 17.8543C47.3803 17.7054 48.2739 16.7973 48.6819 15.3213C48.9949 14.1848 49.2009 11.9192 47.0601 9.51813C45.8906 8.20679 43.7051 7.78648 41.6208 8.47259C39.2548 9.25135 37.6983 11.2223 37.4574 13.7484C37.4375 13.9334 37.3457 14.1031 37.2019 14.2206C37.0581 14.3382 36.8739 14.3942 36.6892 14.3764C36.5045 14.3587 36.3343 14.2686 36.2154 14.1258C36.0964 13.983 36.0384 13.799 36.0539 13.6135C36.35 10.5126 38.2668 8.08829 41.1812 7.12917C43.789 6.27087 46.5741 6.85191 48.1107 8.57571C50.6977 11.477 50.4304 14.2833 50.0407 15.6981C49.569 17.4098 48.4515 18.8514 47.3225 19.2043C47.2545 19.2254 47.1838 19.2363 47.1126 19.2364Z" fill="black"/>
<g id="Group_18" opacity="0.2">
<path id="Vector_63" d="M52.733 41.3672C52.3763 42.3659 51.858 43.3869 51.1213 44.4249C50.335 45.5323 49.368 46.5278 47.9671 47.6113C47.5154 47.9602 47.0206 48.3197 46.4699 48.6945C46.1475 48.9132 45.747 49.1613 45.2754 49.4271C42.677 50.8834 37.9094 52.8989 32.1568 54.0318C29.0123 54.6583 25.8155 54.9825 22.6096 55.0001C20.885 55.0093 19.4012 54.917 18.2536 54.7782C17.7249 54.7127 17.2686 54.6391 16.8919 54.5605C16.6598 54.5121 16.4348 54.4627 16.2169 54.4125C17.7941 51.7807 19.2145 50.2592 19.2145 50.2592L19.8637 50.5842C21.5936 46.57 23.3042 43.8599 23.3042 43.8599L45.9882 43.9254C45.9882 43.9254 46.2787 44.3955 46.7366 45.2322C48.4812 44.3287 50.6771 43.0324 52.7317 41.3662" fill="black"/>
</g>
<path id="Vector_64" d="M6.49677 43.9555C6.59468 44.2366 6.69488 44.4939 6.80031 44.726C7.87739 47.1176 9.41142 49.6955 12.8036 51.4995C14.3859 52.3414 16.1654 52.8658 18.8669 53.2291C21.3778 53.5637 27.3729 53.4275 34.0505 51.5718C40.7314 49.7338 45.9484 46.7693 47.9328 45.1886C50.0674 43.489 51.3273 42.1243 52.2568 40.5874C54.2478 37.296 54.2452 34.2939 53.9488 31.6859C53.9023 31.3052 53.8345 30.9274 53.7458 30.5543C52.7856 26.3741 49.0732 19.0285 45.3185 16.3122C43.7377 15.171 42.1626 14.1343 40.39 13.3251C36.6427 11.617 32.0201 10.9303 24.6463 12.4298C24.2189 12.5171 23.7946 12.6194 23.3734 12.7366C22.9526 12.8524 22.5362 12.9817 22.1239 13.1274C14.9542 15.6548 11.3335 18.6569 8.98973 22.0944C7.91721 23.6692 7.11266 25.3351 6.35642 27.0867C4.47283 31.4581 5.11614 39.9871 6.49677 43.9542" fill="white"/>
<g id="Group_19" opacity="0.2">
<path id="Vector_65" d="M6.62178 43.9621C6.71904 44.2432 6.82023 44.5 6.92532 44.7327C8.00241 47.1242 9.53643 49.7021 12.9283 51.5061C14.5109 52.348 16.2901 52.8724 18.9916 53.2358C21.5025 53.57 27.4976 53.4341 34.1752 51.5781C40.8564 49.7404 46.0734 46.7756 48.0575 45.1949C50.1924 43.4956 51.452 42.1306 52.3818 40.5937C54.3728 37.3023 54.3702 34.3002 54.0735 31.6922C54.0272 31.3116 53.9595 30.9339 53.8708 30.5609C53.7631 30.2336 53.6424 29.8938 53.5144 29.5461C53.5173 29.5789 53.5213 29.6054 53.5252 29.6349C53.8215 32.2415 53.8232 35.2439 51.8335 38.536C50.903 40.0745 49.6428 41.4383 47.5075 43.1365C45.5238 44.7173 40.3077 47.6797 33.6256 49.5198C26.9477 51.3742 20.9529 51.5113 18.4426 51.1738C15.7411 50.8137 13.9626 50.29 12.3786 49.4474C8.98614 47.6434 7.45342 45.0639 6.37633 42.6714C6.36328 42.6462 6.35284 42.6187 6.34076 42.5915C6.42562 43.0701 6.51929 43.5274 6.62178 43.9585" fill="black"/>
</g>
<path id="Vector_66" d="M21.6641 54.082C20.4698 54.082 19.5269 54.0195 18.8983 53.9354C16.1742 53.5704 14.2896 53.0306 12.5967 52.1307C8.99137 50.2138 7.38195 47.4621 6.28299 45.0231C4.60862 41.3064 3.74108 31.6703 5.83388 26.8148C7.15282 23.7551 8.51027 21.2385 10.8502 18.9019C13.4877 16.2678 17.0352 14.2235 22.0153 12.468C22.4288 12.3223 22.8639 12.1858 23.3101 12.0627C23.7526 11.9403 24.1962 11.8336 24.629 11.7455C29.8019 10.6931 33.8932 10.6247 37.5041 11.5311C40.7072 12.335 43.1591 13.798 45.855 15.7476C50.133 18.841 54.3121 27.5615 54.7736 31.6137C55.0765 34.2727 55.1 37.4624 52.9844 40.962C51.9905 42.6046 50.6481 44.0368 48.4952 45.7508C46.7546 47.1361 41.5601 50.2799 34.3606 52.261C29.2206 53.6895 24.6548 54.082 21.6641 54.082ZM23.6851 13.4258C23.2702 13.5407 22.8658 13.6673 22.4827 13.8022C12.1192 17.4554 9.3974 22.1109 7.12802 27.3762C5.20591 31.8356 6.03102 41.0301 7.56766 44.4414C8.56837 46.6624 10.027 49.1643 13.2569 50.8816C14.7933 51.6999 16.5362 52.1909 19.0849 52.534C21.1892 52.8162 27.0113 52.8368 33.9859 50.8973C40.9674 48.9761 45.9562 45.9658 47.6189 44.6424C49.633 43.0384 50.8772 41.7188 51.779 40.2281C53.675 37.0928 53.6489 34.1948 53.3731 31.7738C52.9488 28.0545 48.9597 19.735 45.0306 16.8937C40.3916 13.539 35.6753 10.9402 24.9094 13.1292C24.5079 13.2117 24.0963 13.3118 23.6851 13.4254V13.4258Z" fill="black"/>
<path id="Vector_67" d="M48.0986 36.2894C48.0986 36.2894 51.4575 34.5371 49.1078 30.4057C46.7581 26.2742 38.5876 25.3606 36.5555 26.2854C34.5234 27.2101 34.2382 29.0986 34.3514 30.2983C34.4647 31.498 35.5803 36.9365 39.0798 37.7156C42.5794 38.4947 46.3449 37.2753 48.0986 36.2894Z" fill="black" fill-opacity="0.28"/>
<path id="Vector_68" d="M22.5871 42.7905C22.5871 42.7905 26.9588 40.9574 24.7165 35.9304C22.4742 30.9033 21.1768 30.8892 18.5334 31.7403C15.8899 32.5914 12.4465 36.1808 11.545 38.3897C10.6436 40.5986 11.3241 43.9218 12.3215 44.9667C13.1395 45.8231 15.1079 45.9416 17.6988 45.0554C20.2897 44.1693 21.669 43.348 22.5871 42.7899" fill="black" fill-opacity="0.28"/>
<path id="Vector_69" d="M34.8871 38.7446C35.0731 42.0989 32.2071 41.4616 31.2785 40.1195C31.1662 41.7474 29.0313 43.7684 27.4767 40.7922" fill="white"/>
<g id="Group_20" opacity="0.2">
<path id="Vector_70" d="M34.8694 39.5303C34.5874 41.9821 32.1258 41.3441 31.2791 40.1195C31.1753 41.6142 29.3698 43.4385 27.8716 41.4289C28.9024 41.6557 29.8626 40.9336 30.4103 39.9811L30.9426 38.7954L32.0089 39.5395C32.9414 40.0632 34.1008 40.1942 34.8707 39.53" fill="black"/>
</g>
<path id="Vector_71" d="M35.2863 38.7204C35.3156 38.9744 35.3421 39.2323 35.3284 39.5004C35.3231 39.7791 35.2792 40.0556 35.1978 40.3221C35.1109 40.6206 34.9601 40.8965 34.7559 41.1306C34.5354 41.383 34.2503 41.5703 33.9314 41.672C33.6291 41.7654 33.3112 41.7965 32.9966 41.7637C32.7032 41.734 32.416 41.6589 32.1454 41.5411C31.616 41.3139 31.1405 40.9705 30.7831 40.4645L31.8791 40.1613C31.8293 40.7507 31.6152 41.3141 31.2612 41.7873C31.0881 42.0273 30.8789 42.2389 30.6411 42.4144C30.3868 42.6025 30.0973 42.7371 29.7899 42.8102C29.4649 42.8825 29.1264 42.8648 28.8107 42.7588C28.5006 42.659 28.2434 42.4786 28.0342 42.2829C27.8344 42.0935 27.6626 41.8765 27.5241 41.6383C27.3925 41.416 27.2814 41.1822 27.1921 40.9398C27.1641 40.8678 27.163 40.7881 27.189 40.7154C27.215 40.6427 27.2663 40.5818 27.3335 40.5441C27.4006 40.5063 27.4792 40.4942 27.5546 40.5099C27.63 40.5257 27.6972 40.5682 27.7437 40.6298L27.7552 40.6442C27.8847 40.8238 28.0244 40.9958 28.1736 41.1594C28.3073 41.3121 28.4596 41.4474 28.6269 41.562C28.7665 41.6603 28.9243 41.7295 29.0911 41.7653C29.2341 41.7937 29.3821 41.7834 29.5199 41.7355C29.801 41.6455 30.0843 41.4007 30.2951 41.0926C30.506 40.7846 30.6493 40.4127 30.6744 40.0779L30.8 38.4146L31.7707 39.7747C31.9666 40.0474 32.2763 40.2985 32.6141 40.4533C32.9519 40.6082 33.323 40.6704 33.6073 40.5993C33.7469 40.5658 33.8755 40.4966 33.9804 40.3983C34.0991 40.2807 34.1931 40.1405 34.2568 39.9859C34.3347 39.8024 34.3895 39.61 34.42 39.413C34.4548 39.1987 34.4766 38.9825 34.4853 38.7655V38.7443C34.4909 38.6437 34.5339 38.549 34.6058 38.4787C34.6778 38.4085 34.7733 38.3679 34.8737 38.3649C34.974 38.362 35.0718 38.3969 35.1477 38.4627C35.2236 38.5286 35.2722 38.6207 35.2836 38.7207" fill="black"/>
<path id="Vector_72" d="M30.8193 37.4868L31.9626 40.337L30.7971 40.6444L30.4645 37.5657L30.8193 37.4868Z" fill="black"/>
<path id="Vector_73" d="M27.4353 38.3301C27.7075 39.358 29.3169 39.8208 31.0301 39.3648C32.7434 38.9088 33.9122 37.7059 33.6413 36.678C33.3704 35.6501 31.9995 36.0924 30.286 36.5487C28.5724 37.005 27.1647 37.3016 27.4366 38.3301" fill="black"/>
<g id="Group_21" opacity="0.3">
<path id="Vector_74" d="M29.2275 37.649C29.2986 37.918 29.8695 37.9992 30.502 37.831C31.1346 37.6627 31.5899 37.3072 31.5184 37.0388C31.4469 36.7704 30.9394 36.9252 30.3069 37.0935C29.6743 37.2617 29.156 37.3799 29.2275 37.6499" fill="white"/>
</g>
<path id="Vector_75" d="M16.6093 38.5206C15.9503 36.203 16.9406 33.8881 18.8209 33.3486C20.7012 32.8091 22.7601 34.2534 23.419 36.571C24.078 38.8886 23.0881 41.2039 21.2074 41.7414C19.3268 42.2789 17.2682 40.8396 16.6093 38.5206Z" fill="black"/>
<path id="Vector_76" d="M19.3144 36.887C19.0683 36.0211 19.4381 35.156 20.1408 34.9556C20.8435 34.7553 21.6125 35.2941 21.8589 36.1599C22.1054 37.0258 21.7352 37.8909 21.0325 38.0913C20.3298 38.2916 19.5608 37.7528 19.3144 36.887Z" fill="white"/>
<g id="Group_22" opacity="0.3">
<path id="Vector_77" d="M19.0157 39.978C18.8682 39.4589 19.0902 38.9403 19.5112 38.8199C19.9322 38.6994 20.3924 39.0225 20.5409 39.54C20.6895 40.0576 20.4665 40.5774 20.0458 40.6979C19.6251 40.8183 19.1646 40.4952 19.0157 39.9777" fill="white"/>
</g>
<path id="Vector_78" d="M43.3562 31.0978C42.7723 28.7602 40.7611 27.2514 38.8644 27.7281C36.9678 28.2047 35.9034 30.4863 36.4873 32.8242C37.0712 35.1621 39.0828 36.6708 40.9794 36.1939C42.8761 35.7169 43.9404 33.4357 43.3562 31.0978Z" fill="black"/>
<path id="Vector_79" d="M40.1991 31.0387C39.981 30.1654 39.2294 29.6014 38.5208 29.7798C37.8122 29.9582 37.4143 30.8103 37.6327 31.6839C37.851 32.5576 38.602 33.1213 39.311 32.9429C40.0199 32.7645 40.4171 31.9124 40.1991 31.0387Z" fill="white"/>
<g id="Group_23" opacity="0.3">
<path id="Vector_80" d="M41.9978 33.5665C41.8672 33.0428 41.4165 32.705 40.9919 32.8117C40.5672 32.9184 40.3286 33.4294 40.4595 33.9531C40.5904 34.4769 41.0408 34.8144 41.4654 34.706C41.8901 34.5977 42.1287 34.0883 41.9978 33.5649" fill="white"/>
</g>
<path id="Vector_81" d="M15.4183 28.7235C15.0704 28.4174 15.8142 23.7036 19.1029 23.7259C20.3076 23.7341 20.4049 24.7701 19.8536 25.2664C19.3281 25.7391 18.376 25.9915 17.6874 26.5466C15.8903 27.9948 15.3507 28.6639 15.4186 28.7235" fill="black"/>
<path id="Vector_82" d="M38.62 21.9947C38.7545 21.5505 35.6436 17.9393 32.8612 19.6978C31.8419 20.342 32.304 21.2739 33.0338 21.4035C33.7287 21.527 34.6703 21.2379 35.547 21.3453C37.257 21.5545 38.4845 22.4389 38.6197 21.9947" fill="black"/>
<path id="Vector_83" d="M25.4871 2.46688C25.5664 2.86371 25.5267 3.27523 25.3729 3.64941C25.219 4.02358 24.958 4.34362 24.6229 4.56904C24.2877 4.79447 23.8934 4.91517 23.4899 4.91587C23.0863 4.91658 22.6916 4.79726 22.3557 4.57301C22.0197 4.34876 21.7576 4.02964 21.6025 3.656C21.4474 3.28236 21.4062 2.87099 21.4842 2.47388C21.5622 2.07677 21.7558 1.71177 22.0406 1.42502C22.3254 1.13827 22.6886 0.942647 23.0842 0.862887C23.347 0.809909 23.6176 0.809376 23.8806 0.86132C24.1436 0.913264 24.3938 1.01667 24.617 1.16562C24.8401 1.31457 25.0318 1.50616 25.1811 1.72943C25.3304 1.95271 25.4344 2.20329 25.4871 2.46688Z" fill="white"/>
<g id="Group_24" opacity="0.35">
<path id="Vector_84" d="M25.5197 3.0282C25.333 2.61414 25.0143 2.27416 24.6137 2.06184C24.2131 1.84952 23.7534 1.77693 23.3071 1.85552C22.8609 1.9341 22.4534 2.15939 22.1489 2.49588C21.8443 2.83236 21.6601 3.26091 21.6252 3.71398C21.5618 3.57265 21.5144 3.42464 21.4839 3.27272C21.3773 2.74032 21.486 2.18726 21.7861 1.73522C22.0861 1.28318 22.5528 0.96919 23.0837 0.862318C23.6146 0.755446 24.166 0.86445 24.6167 1.16535C25.0674 1.46625 25.3805 1.93439 25.4871 2.4668C25.524 2.65148 25.5357 2.84034 25.522 3.0282" fill="white"/>
</g>
<path id="Vector_85" d="M23.4801 5.7404C22.9385 5.73941 22.4083 5.5843 21.9512 5.2931C21.494 5.0019 21.1287 4.58657 20.8975 4.09536C20.6664 3.60416 20.579 3.05726 20.6455 2.51822C20.712 1.97917 20.9296 1.47012 21.2732 1.05022C21.6167 0.630316 22.0719 0.316805 22.5861 0.146119C23.1002 -0.0245676 23.6521 -0.0454204 24.1776 0.0859833C24.703 0.217387 25.1805 0.495652 25.5546 0.88844C25.9286 1.28123 26.1839 1.77241 26.2906 2.30491C26.4399 3.05068 26.2879 3.82541 25.8679 4.45881C25.448 5.09221 24.7944 5.53245 24.0509 5.68278C23.863 5.72095 23.6718 5.74025 23.4801 5.7404ZM23.4882 1.64564C23.4067 1.64571 23.3253 1.65394 23.2454 1.67019C23.0086 1.7177 22.7912 1.83458 22.6206 2.00606C22.4501 2.17754 22.3341 2.3959 22.2873 2.63352C22.2405 2.87114 22.265 3.11733 22.3578 3.34095C22.4506 3.56458 22.6074 3.75558 22.8084 3.88979C23.0094 4.02401 23.2456 4.0954 23.4871 4.09494C23.7286 4.09449 23.9646 4.0222 24.1651 3.88722C24.3656 3.75225 24.5217 3.56065 24.6136 3.33668C24.7056 3.11271 24.7292 2.86642 24.6815 2.62898C24.6258 2.35237 24.4766 2.10353 24.259 1.92458C24.0415 1.74563 23.769 1.64755 23.4876 1.64695L23.4882 1.64564Z" fill="black"/>
<path id="Vector_86" d="M23.5117 3.00279C14.0328 4.9135 7.73639 13.4575 9.35756 22.1482C9.36201 22.1707 9.37083 22.192 9.3835 22.211C9.39618 22.2301 9.41247 22.2464 9.43145 22.2591C9.45042 22.2718 9.47171 22.2806 9.49409 22.2851C9.51647 22.2895 9.53951 22.2895 9.56188 22.2851C9.56951 22.2834 9.57703 22.2814 9.5844 22.2788C20.611 18.4041 32.1207 16.0838 43.7838 15.3843C43.8085 15.3827 43.8326 15.3758 43.8544 15.3641C43.8762 15.3524 43.8953 15.3361 43.9104 15.3164C43.9254 15.2967 43.9361 15.2739 43.9417 15.2498C43.9472 15.2256 43.9476 15.2004 43.9427 15.1761C42.0908 6.53419 32.9911 1.09241 23.5108 3.00279M29.8525 14.1774C27.1642 14.3384 24.5111 14.8727 21.9692 15.765C21.9673 15.765 21.9656 15.7666 21.963 15.7673C21.9604 15.7679 21.9601 15.7673 21.9591 15.7673C21.9492 15.7683 21.9394 15.7655 21.9315 15.7594C21.9237 15.7533 21.9185 15.7444 21.917 15.7345C21.5426 13.7315 22.9941 11.7612 25.1809 11.321C27.3677 10.8807 29.4644 12.1351 29.8904 14.1276C29.8917 14.1332 29.8917 14.139 29.8905 14.1446C29.8893 14.1502 29.8869 14.1555 29.8835 14.1601C29.88 14.1646 29.8756 14.1684 29.8705 14.171C29.8654 14.1737 29.8598 14.1752 29.8541 14.1754" fill="#E53640"/>
<path id="Vector_87" d="M23.5117 3.00279C14.0328 4.9135 7.73639 13.4575 9.35756 22.1482C9.36201 22.1707 9.37083 22.192 9.3835 22.211C9.39618 22.2301 9.41247 22.2464 9.43145 22.2591C9.45042 22.2718 9.47171 22.2806 9.49409 22.2851C9.51647 22.2895 9.53951 22.2895 9.56188 22.2851C9.56951 22.2834 9.57703 22.2814 9.5844 22.2788C20.611 18.4041 32.1207 16.0838 43.7838 15.3843C43.8085 15.3827 43.8326 15.3758 43.8544 15.3641C43.8762 15.3524 43.8953 15.3361 43.9104 15.3164C43.9254 15.2967 43.9361 15.2739 43.9417 15.2498C43.9472 15.2256 43.9476 15.2004 43.9427 15.1761C42.0908 6.53419 32.9911 1.09241 23.5108 3.00279M29.8525 14.1774C27.1642 14.3384 24.5111 14.8727 21.9692 15.765C21.9673 15.765 21.9656 15.7666 21.963 15.7673C21.9604 15.7679 21.9601 15.7673 21.9591 15.7673C21.9492 15.7683 21.9394 15.7655 21.9315 15.7594C21.9237 15.7533 21.9185 15.7444 21.917 15.7345C21.5426 13.7315 22.9941 11.7612 25.1809 11.321C27.3677 10.8807 29.4644 12.1351 29.8904 14.1276C29.8917 14.1332 29.8917 14.139 29.8905 14.1446C29.8893 14.1502 29.8869 14.1555 29.8835 14.1601C29.88 14.1646 29.8756 14.1684 29.8705 14.171C29.8654 14.1737 29.8598 14.1752 29.8541 14.1754" fill="white"/>
<g id="Group_25" opacity="0.4">
<path id="Vector_88" d="M27.5635 2.62183C33.5113 4.4363 36.6851 8.02302 38.3037 10.7233C39.262 12.3227 38.3014 14.3859 36.4622 14.6675C30.5069 15.5798 17.9413 17.8067 9.24692 21.4609C9.27782 21.6898 9.31469 21.9189 9.35756 22.1483C9.36193 22.1708 9.37069 22.1922 9.38335 22.2112C9.39601 22.2303 9.4123 22.2467 9.4313 22.2594C9.45029 22.2721 9.47161 22.2809 9.49402 22.2853C9.51644 22.2898 9.5395 22.2897 9.56188 22.2851C9.56955 22.2835 9.57708 22.2813 9.5844 22.2786C20.6111 18.4038 32.121 16.0834 43.7841 15.384C43.8087 15.3824 43.8327 15.3755 43.8544 15.3638C43.8761 15.3521 43.8951 15.3359 43.9101 15.3162C43.9251 15.2966 43.9357 15.2739 43.9413 15.2498C43.9468 15.2257 43.9472 15.2007 43.9424 15.1765C42.3581 7.77849 35.4625 2.72559 27.5635 2.62183Z" fill="black"/>
</g>
<g id="Group_26" opacity="0.35">
<path id="Vector_89" d="M23.5121 3.00248C14.0331 4.91352 7.73607 13.4575 9.35757 22.1482C9.36198 22.1707 9.37077 22.1921 9.38344 22.2111C9.39611 22.2302 9.4124 22.2465 9.43138 22.2592C9.45037 22.2719 9.47167 22.2808 9.49407 22.2852C9.51647 22.2896 9.53951 22.2896 9.56189 22.2851C9.56953 22.2832 9.57705 22.2809 9.58442 22.2782C9.69441 22.2399 9.80473 22.2003 9.91505 22.163C9.12192 13.9401 15.2535 6.14106 24.2553 4.32822C31.8082 2.80672 39.1197 5.95054 42.7168 11.664C39.4699 5.12203 31.6304 1.36673 23.5121 3.00248Z" fill="white"/>
</g>
<path id="Vector_90" d="M23.5114 3.00266C23.155 3.07424 22.8036 3.15542 22.4572 3.24621C31.5116 1.93683 39.9794 7.24931 41.8013 15.519C42.461 15.4684 43.122 15.4233 43.7841 15.3838C43.8089 15.3823 43.833 15.3754 43.8548 15.3637C43.8767 15.352 43.8958 15.3358 43.9109 15.316C43.9259 15.2963 43.9366 15.2736 43.9421 15.2493C43.9477 15.2251 43.948 15.2 43.9431 15.1756C42.0908 6.53373 32.9911 1.09195 23.5111 3.00266" fill="white"/>
<path id="Vector_91" d="M22.2385 19.1988C21.7245 19.1988 21.2287 19.0078 20.847 18.6625C20.4653 18.3172 20.2248 17.8422 20.1721 17.3294C20.1193 16.8166 20.258 16.3024 20.5613 15.8862C20.8646 15.47 21.311 15.1814 21.8142 15.0762C21.9038 15.0544 21.9968 15.0505 22.0879 15.0649C22.179 15.0793 22.2663 15.1116 22.3449 15.16C22.4234 15.2084 22.4917 15.2719 22.5457 15.3468C22.5997 15.4217 22.6384 15.5067 22.6596 15.5967C22.7025 15.7796 22.6716 15.9721 22.5737 16.1324C22.4757 16.2926 22.3187 16.4076 22.1367 16.4523L22.1018 16.4599C21.9365 16.5034 21.7942 16.6088 21.7041 16.7544C21.614 16.9 21.583 17.0747 21.6175 17.2426C21.652 17.4104 21.7494 17.5586 21.8896 17.6566C22.0298 17.7545 22.2021 17.7949 22.371 17.7692C22.4618 17.7509 22.5552 17.7507 22.646 17.7686C22.7369 17.7865 22.8233 17.8222 22.9003 17.8736C22.9774 17.925 23.0436 17.9911 23.0952 18.0682C23.1468 18.1453 23.1828 18.2318 23.201 18.3228C23.2193 18.4138 23.2195 18.5075 23.2017 18.5986C23.1838 18.6897 23.1482 18.7763 23.097 18.8536C23.0457 18.9309 22.9798 18.9974 22.903 19.0491C22.8261 19.1009 22.7399 19.1369 22.6491 19.1552C22.514 19.1834 22.3765 19.198 22.2385 19.1988Z" fill="black"/>
<path id="Vector_92" d="M9.52959 22.9942C9.35459 22.9939 9.18358 22.9418 9.03805 22.8443C8.94151 22.7798 8.85881 22.6966 8.7948 22.5996C8.73079 22.5025 8.68677 22.3937 8.66531 22.2793C8.65943 22.2495 8.65291 22.2109 8.64671 22.1733C7.88818 17.9777 8.87811 13.6446 11.437 9.98588C13.9753 6.35595 17.8264 3.71918 22.2803 2.56169C22.6348 2.46905 23.0029 2.38394 23.3727 2.30931C28.1256 1.35117 32.947 2.13778 36.9479 4.5238C40.9651 6.91996 43.694 10.6501 44.6321 15.027V15.0299C44.6581 15.154 44.6571 15.2822 44.6291 15.4057C44.6011 15.5293 44.5469 15.6454 44.4701 15.746C44.3932 15.8467 44.2956 15.9294 44.1839 15.9887C44.0723 16.048 43.9491 16.0824 43.8229 16.0895C43.1346 16.1308 42.4903 16.1747 41.8561 16.2234C36.373 16.64 30.9229 17.4164 25.5409 18.5476L25.5122 18.5535C20.1915 19.6757 14.9487 21.1421 9.81681 22.9435L9.7982 22.9497C9.76457 22.961 9.73022 22.9701 9.69539 22.9769C9.64084 22.9882 9.58529 22.994 9.52959 22.9942ZM27.2744 3.33226C26.0577 3.33284 24.8441 3.45455 23.6515 3.69561C23.3078 3.76468 22.966 3.84357 22.6364 3.92999C14.3363 6.08687 8.86277 13.6914 9.95128 21.401C14.9523 19.6738 20.0557 18.2603 25.2318 17.1688L25.2606 17.1629C30.7003 16.0195 36.209 15.2347 41.751 14.8136C42.1952 14.7808 42.6444 14.7481 43.1108 14.7176C41.3372 7.9236 34.716 3.33226 27.2744 3.33226Z" fill="black"/>
<path id="Vector_93" d="M9.34223 22.5032C9.23958 22.5031 9.14018 22.4671 9.06117 22.4014C8.98217 22.3356 8.92851 22.2443 8.90943 22.1432C8.89899 22.0865 8.8892 22.0293 8.87941 21.9723L8.87451 21.9422C8.85134 21.8067 8.83077 21.6724 8.81217 21.5382C8.80303 21.4711 8.79357 21.4034 8.78508 21.3363C8.76876 21.2021 8.75244 21.0688 8.74004 20.9359L8.71817 20.7068C8.70773 20.5794 8.69859 20.4577 8.69108 20.3369C8.66791 19.9392 8.65844 19.5378 8.66562 19.1421C8.66562 19.0766 8.66791 19.0088 8.67019 18.9411L8.68651 18.5515C8.69206 18.4504 8.69826 18.3525 8.70577 18.2553C8.71001 18.196 8.71524 18.1342 8.72078 18.0723L8.74037 17.8641C8.74689 17.7986 8.75408 17.7299 8.76158 17.6635C8.77301 17.5652 8.78541 17.4697 8.79748 17.3731L8.80042 17.3512C8.80858 17.2913 8.81674 17.231 8.82588 17.1715C8.84612 17.034 8.86798 16.8922 8.89116 16.7511L8.91955 16.596C8.97047 16.3256 9.02138 16.0827 9.07589 15.8513C9.09156 15.7858 9.10853 15.7171 9.12453 15.6506C9.23844 15.1923 9.37486 14.7324 9.52957 14.2853C9.55144 14.2198 9.57429 14.1543 9.59811 14.0908C9.62194 14.0273 9.64577 13.9599 9.67058 13.8944C9.69538 13.8289 9.71725 13.7716 9.7401 13.7124L9.78807 13.591C9.80146 13.5546 9.82071 13.5072 9.83997 13.46C9.98423 13.1075 10.1438 12.7516 10.3145 12.4037L10.322 12.3886C10.3497 12.3325 10.3779 12.2763 10.4066 12.22C10.4346 12.1624 10.4666 12.1009 10.4996 12.038C10.5267 11.9857 10.5561 11.931 10.5858 11.8744L10.5952 11.8567C10.6279 11.7968 10.6605 11.7349 10.6932 11.6743C10.7911 11.4946 10.8971 11.3143 11.0042 11.1352C11.0665 11.0305 11.1308 10.927 11.1961 10.8239C11.608 10.1728 12.0621 9.54947 12.5555 8.95804L12.5715 8.93905L12.691 8.79764C12.752 8.72595 12.8163 8.65263 12.8793 8.58028L12.9025 8.55409C12.9407 8.51088 12.9782 8.46833 13.017 8.4261C13.2024 8.2202 13.4054 8.00546 13.6179 7.79138C13.6506 7.75865 13.6812 7.72591 13.7132 7.69645C14.0426 7.36911 14.3934 7.047 14.7492 6.74519L14.8683 6.64469C14.9336 6.59079 14.9989 6.53754 15.0642 6.48495C15.1219 6.43814 15.1712 6.39787 15.2208 6.35859C15.2907 6.30294 15.3621 6.24697 15.4343 6.19164C15.4721 6.16218 15.5129 6.13109 15.5537 6.09999L15.6089 6.05842C15.6415 6.03517 15.6716 6.01193 15.7029 5.98804C15.7512 5.9517 15.7966 5.91864 15.8413 5.88623L15.8739 5.86332C16.1677 5.64956 16.4699 5.44366 16.7702 5.25086C16.9131 5.1592 17.0587 5.06885 17.2056 4.98047C17.8807 4.5737 18.58 4.2089 19.2997 3.88812C19.3611 3.85997 19.4303 3.83018 19.4955 3.80137L19.726 3.70317C19.8435 3.65385 19.9622 3.60551 20.0821 3.55815L20.2812 3.48123C20.3484 3.45504 20.4156 3.43016 20.4829 3.40528C20.6134 3.35684 20.744 3.31003 20.8745 3.26518C21.0155 3.21608 21.1588 3.16894 21.3041 3.12213C21.573 3.03637 21.8514 2.9542 22.1324 2.87793C22.2016 2.85862 22.2728 2.84029 22.3446 2.82163L22.3916 2.81213C26.8837 2.16268 31.3875 3.08907 35.0751 5.41976C38.7845 7.76486 41.3257 11.3185 42.2305 15.4264C42.2557 15.5408 42.2346 15.6605 42.1718 15.7593C42.1407 15.8082 42.1003 15.8505 42.0529 15.8837C42.0055 15.917 41.9521 15.9405 41.8956 15.9531C41.7816 15.9784 41.6622 15.9572 41.5637 15.8942C41.4652 15.8312 41.3957 15.7316 41.3704 15.6172C39.6174 7.65979 31.3503 2.42194 22.5411 3.68353C22.4817 3.69891 22.4229 3.71397 22.3645 3.73034C22.0942 3.80399 21.8279 3.88223 21.5723 3.96373C21.4346 4.00825 21.2975 4.05343 21.1608 4.10089C21.0338 4.14443 20.9095 4.18862 20.7857 4.23445C20.7231 4.25769 20.6594 4.28126 20.5961 4.30581L20.4003 4.3811C20.2776 4.42987 20.1529 4.4793 20.0295 4.53266L19.8376 4.6145C19.7769 4.64047 19.7172 4.66676 19.6584 4.69339C18.9701 4.99998 18.3013 5.34872 17.6557 5.73762C17.516 5.82164 17.378 5.90729 17.2418 5.99458C16.9552 6.17888 16.6677 6.37529 16.387 6.57857L16.3544 6.60181C16.3132 6.63171 16.2722 6.66182 16.2313 6.69216C16.1987 6.71605 16.166 6.74224 16.1295 6.76843L15.9686 6.89151C15.8987 6.94519 15.8315 6.99757 15.7646 7.05093C15.7166 7.08922 15.6703 7.12687 15.6239 7.16452C15.5524 7.22213 15.4914 7.27287 15.431 7.32295L15.3178 7.41886C14.9783 7.7066 14.6447 8.01299 14.3249 8.33085C14.2922 8.36096 14.2694 8.38518 14.2456 8.40941C14.0386 8.61825 13.8455 8.8223 13.6662 9.02154C13.628 9.06279 13.5947 9.10076 13.5608 9.13906L13.5386 9.16427C13.4795 9.23203 13.4178 9.30273 13.3581 9.37278C13.319 9.41828 13.2814 9.46313 13.2436 9.50798L13.2289 9.52566C12.7619 10.0865 12.332 10.6775 11.9419 11.2946C11.8806 11.3928 11.8205 11.4884 11.7617 11.5873C11.6593 11.7586 11.5597 11.931 11.4631 12.1045C11.4305 12.1618 11.4011 12.2174 11.372 12.2718L11.3622 12.2904C11.3345 12.3421 11.3071 12.3932 11.281 12.4439C11.2503 12.5025 11.2216 12.5579 11.1938 12.6138C11.1661 12.6698 11.1377 12.7255 11.1116 12.7775C10.9438 13.1196 10.792 13.4567 10.6546 13.7923C10.6383 13.8316 10.622 13.8699 10.608 13.9085L10.4954 14.2001C10.4725 14.2614 10.449 14.3252 10.4255 14.3903C10.402 14.4555 10.3828 14.5108 10.3625 14.5704C10.2156 14.9959 10.0867 15.4297 9.97836 15.8647C9.96204 15.9279 9.94768 15.9894 9.93332 16.051C9.88175 16.2699 9.83344 16.5004 9.78514 16.7561L9.75837 16.9024C9.7365 17.0333 9.71562 17.1665 9.69571 17.3021C9.68657 17.3594 9.67971 17.4127 9.67253 17.4657L9.66992 17.4847C9.6585 17.5754 9.64675 17.669 9.63728 17.7626C9.63043 17.8219 9.62358 17.8838 9.6177 17.9456L9.59877 18.1486C9.59387 18.2036 9.58898 18.2609 9.58473 18.3175C9.57788 18.4105 9.57168 18.5018 9.56678 18.5931L9.55112 18.9683C9.54883 19.0295 9.54785 19.0903 9.54687 19.1522C9.541 19.5274 9.54883 19.9051 9.5707 20.2802C9.57788 20.3935 9.58669 20.5094 9.59616 20.6259L9.61737 20.8479C9.62978 20.9719 9.64414 21.0983 9.66013 21.2253C9.66764 21.2875 9.67645 21.351 9.68493 21.4132C9.70256 21.5389 9.72193 21.6647 9.74303 21.7906L9.74826 21.8204C9.75739 21.8734 9.76653 21.9265 9.77632 21.9792C9.7869 22.0362 9.78616 22.0948 9.77415 22.1516C9.76214 22.2084 9.73909 22.2622 9.70633 22.3101C9.67357 22.3579 9.63173 22.3988 9.5832 22.4305C9.53467 22.4621 9.4804 22.4838 9.4235 22.4944C9.39672 22.4998 9.36953 22.5027 9.34223 22.5032Z" fill="black"/>
<path id="Vector_94" d="M21.791 16.5141L21.6324 16.4022C21.5265 16.3513 21.4341 16.2758 21.363 16.1821C21.2919 16.0884 21.2441 15.979 21.2234 15.863C20.7831 13.4911 22.4941 11.1447 25.0402 10.6311C27.5864 10.1175 30.0695 11.6174 30.5787 13.9765C30.6021 14.0822 30.6023 14.1917 30.5793 14.2975C30.5563 14.4032 30.5106 14.5027 30.4453 14.589C30.3801 14.6752 30.2969 14.7462 30.2016 14.797C30.1063 14.8477 30.0011 14.8771 29.8933 14.883C27.2799 15.0401 24.7008 15.5587 22.229 16.4241L22.1817 16.4454L22.0795 16.4657L21.791 16.5141ZM26.0491 11.9424C25.8038 11.9424 25.5591 11.967 25.3186 12.0157C23.8172 12.3185 22.7219 13.494 22.5799 14.8168C24.6421 14.1613 26.7693 13.7328 28.9239 13.5389C28.3883 12.5634 27.2766 11.9424 26.0484 11.9424H26.0491Z" fill="black"/>
<path id="Vector_95" d="M21.9692 16.4732C21.8025 16.4735 21.6411 16.4146 21.5136 16.3068C21.3861 16.1991 21.3008 16.0495 21.2729 15.8846C21.2449 15.7198 21.2761 15.5504 21.3609 15.4064C21.4458 15.2625 21.5787 15.1533 21.7362 15.0984C24.3396 14.1839 27.0569 13.6362 29.8104 13.4708C29.9957 13.4618 30.1771 13.5265 30.3152 13.6508C30.4533 13.7751 30.537 13.949 30.5481 14.1348C30.5592 14.3206 30.4968 14.5033 30.3744 14.6432C30.2521 14.7831 30.0797 14.869 29.8946 14.8823C27.2713 15.0397 24.6825 15.5614 22.2023 16.4326C22.1274 16.4593 22.0486 16.473 21.9692 16.4732Z" fill="#1D1D1D"/>
<path id="Vector_96" d="M21.9692 16.4732C21.8025 16.4735 21.6411 16.4146 21.5136 16.3068C21.3861 16.1991 21.3008 16.0495 21.2729 15.8846C21.2449 15.7198 21.2761 15.5504 21.3609 15.4064C21.4458 15.2625 21.5787 15.1533 21.7362 15.0984C24.3396 14.1839 27.0569 13.6362 29.8104 13.4708C29.9957 13.4618 30.1771 13.5265 30.3152 13.6508C30.4533 13.7751 30.537 13.949 30.5481 14.1348C30.5592 14.3206 30.4968 14.5033 30.3744 14.6432C30.2521 14.7831 30.0797 14.869 29.8946 14.8823C27.2713 15.0397 24.6825 15.5614 22.2023 16.4326C22.1274 16.4593 22.0486 16.473 21.9692 16.4732Z" fill="black"/>
<path id="Vector_97" d="M23.7504 16.7191C23.7613 16.8043 23.7467 16.8909 23.7085 16.9678C23.6704 17.0447 23.6103 17.1085 23.5359 17.1512C23.4616 17.1938 23.3762 17.2134 23.2908 17.2073C23.2053 17.2013 23.1236 17.17 23.0559 17.1174C22.9882 17.0647 22.9376 16.9931 22.9105 16.9116C22.8834 16.83 22.8811 16.7423 22.9037 16.6595C22.9264 16.5766 22.9731 16.5024 23.0379 16.4461C23.1027 16.3899 23.1826 16.3542 23.2676 16.3436C23.324 16.3364 23.3813 16.3403 23.4361 16.3553C23.491 16.3702 23.5424 16.3958 23.5874 16.4307C23.6324 16.4656 23.67 16.509 23.6983 16.5585C23.7265 16.608 23.7448 16.6625 23.752 16.7191" fill="black"/>
<path id="Vector_98" d="M25.9953 16.1644C26.0062 16.2496 25.9917 16.3362 25.9535 16.4131C25.9154 16.4901 25.8554 16.554 25.781 16.5967C25.7067 16.6394 25.6214 16.6591 25.5359 16.6532C25.4504 16.6473 25.3686 16.6161 25.3008 16.5635C25.233 16.511 25.1823 16.4394 25.155 16.358C25.1278 16.2765 25.1253 16.1887 25.1478 16.1058C25.1702 16.0229 25.2168 15.9485 25.2814 15.8921C25.346 15.8357 25.4259 15.7998 25.5109 15.7889C25.5673 15.7817 25.6245 15.7856 25.6794 15.8006C25.7343 15.8155 25.7857 15.8412 25.8306 15.876C25.8756 15.9109 25.9133 15.9543 25.9416 16.0038C25.9698 16.0533 25.988 16.1078 25.9953 16.1644Z" fill="black"/>
<path id="Vector_99" d="M28.0923 15.7842C28.1033 15.8695 28.0887 15.9561 28.0506 16.0331C28.0124 16.1101 27.9524 16.174 27.878 16.2167C27.8036 16.2594 27.7183 16.279 27.6328 16.2731C27.5473 16.2671 27.4654 16.2359 27.3976 16.1833C27.3299 16.1306 27.2792 16.059 27.252 15.9775C27.2248 15.896 27.2223 15.8082 27.2449 15.7253C27.2675 15.6424 27.3141 15.568 27.3789 15.5117C27.4436 15.4553 27.5235 15.4195 27.6086 15.4088C27.7225 15.3942 27.8375 15.4256 27.9284 15.496C28.0192 15.5663 28.0786 15.67 28.0933 15.7842" fill="black"/>
<path id="Vector_100" d="M30.1192 15.4945C30.13 15.5797 30.1155 15.6661 30.0773 15.743C30.0392 15.8198 29.9792 15.8836 29.9049 15.9263C29.8306 15.9689 29.7454 15.9885 29.66 15.9826C29.5746 15.9767 29.4929 15.9455 29.4252 15.893C29.3575 15.8405 29.3068 15.7691 29.2796 15.6877C29.2523 15.6063 29.2498 15.5186 29.2722 15.4358C29.2946 15.353 29.3411 15.2787 29.4056 15.2223C29.4702 15.1659 29.5499 15.13 29.6348 15.119C29.6912 15.1117 29.7485 15.1157 29.8034 15.1306C29.8582 15.1455 29.9096 15.1712 29.9546 15.206C29.9996 15.2409 30.0373 15.2843 30.0655 15.3338C30.0938 15.3833 30.112 15.4379 30.1192 15.4945Z" fill="black"/>
<path id="Vector_101" d="M45.2241 89.219C45.6142 89.1689 45.9944 89.1339 46.3815 89.1057C46.7686 89.0776 47.1547 89.0605 47.5448 89.0543C48.3255 89.0468 49.1131 89.0746 49.9339 89.2399C50.0149 89.2563 50.0918 89.2891 50.1596 89.3364C50.2275 89.3836 50.285 89.4444 50.3285 89.5148C50.372 89.5853 50.4007 89.664 50.4127 89.746C50.4247 89.828 50.4198 89.9116 50.3983 89.9916C50.3768 90.0716 50.3392 90.1464 50.2877 90.2113C50.2363 90.2761 50.1721 90.3297 50.0992 90.3687C50.0262 90.4077 49.9461 90.4312 49.8637 90.4379C49.7814 90.4446 49.6985 90.4343 49.6203 90.4076L49.6134 90.4053C48.9642 90.1797 48.2334 90.0485 47.4994 89.9598C47.1312 89.9166 46.7591 89.8845 46.3861 89.8616C46.013 89.8386 45.6354 89.8239 45.2672 89.8223H45.261C45.1843 89.8222 45.1104 89.7928 45.0545 89.7401C44.9986 89.6873 44.9649 89.6152 44.9602 89.5383C44.9555 89.4615 44.9801 89.3858 45.0292 89.3265C45.0782 89.2673 45.1479 89.2291 45.2241 89.2196" fill="black"/>
<path id="Vector_102" d="M25.7263 90.3668C25.3588 90.3688 24.9795 90.3835 24.6074 90.4061C24.2353 90.4287 23.8623 90.4611 23.4941 90.5043C22.7601 90.593 22.0293 90.7243 21.3801 90.9495H21.3765C21.3015 90.9755 21.2221 90.9865 21.1429 90.9817C21.0636 90.977 20.9861 90.9566 20.9147 90.9218C20.8433 90.8871 20.7795 90.8385 20.7268 90.779C20.6741 90.7194 20.6336 90.6501 20.6077 90.5748C20.5817 90.4996 20.5708 90.42 20.5755 90.3405C20.5803 90.2611 20.6006 90.1833 20.6352 90.1117C20.6699 90.0401 20.7183 89.9761 20.7777 89.9232C20.8371 89.8704 20.9062 89.8298 20.9812 89.8038C21.007 89.795 21.0333 89.7878 21.0599 89.7822C21.8804 89.6169 22.668 89.589 23.4487 89.5969C23.8404 89.6028 24.2262 89.6211 24.612 89.648C24.9978 89.6748 25.3793 89.7115 25.7694 89.7615C25.8455 89.771 25.9153 89.8092 25.9643 89.8685C26.0133 89.9277 26.038 90.0034 26.0333 90.0803C26.0286 90.1571 25.9949 90.2292 25.939 90.282C25.8831 90.3347 25.8092 90.3641 25.7325 90.3642L25.7263 90.3668Z" fill="black"/>
<path id="Vector_103" d="M57.6671 18.7561C56.9421 17.5625 56.6784 16.1438 56.9259 14.7684C57.1735 13.3929 57.915 12.1562 59.0103 11.292C60.1056 10.4279 61.4786 9.99626 62.8698 10.0788C64.2609 10.1614 65.5736 10.7525 66.5596 11.7402C67.5456 12.7279 68.1365 14.0437 68.2205 15.4388C68.3045 16.8339 67.8758 18.2116 67.0155 19.3111C66.1552 20.4106 64.9229 21.1558 63.5518 21.4057C62.1807 21.6556 60.7658 21.3928 59.5748 20.6672L56.9346 21.261L57.6671 18.7561Z" fill="white"/>
<g id="Group_27" opacity="0.5">
<path id="Vector_104" d="M63.0074 11.1786C61.608 11.0347 60.2049 11.4143 59.0675 12.2446C57.9301 13.075 57.1387 14.2975 56.8452 15.6773C56.8415 14.9001 56.9958 14.1303 57.2985 13.4149C57.6013 12.6994 58.0462 12.0533 58.6061 11.516C59.166 10.9787 59.8292 10.5614 60.5553 10.2897C61.2813 10.0179 62.0549 9.89732 62.8289 9.9353C63.6029 9.97329 64.3611 10.169 65.0572 10.5106C65.7533 10.8521 66.3727 11.3324 66.8777 11.9219C67.3826 12.5115 67.7625 13.1981 67.9942 13.9397C68.2258 14.6814 68.3044 15.4626 68.2251 16.2358C68.2043 16.4394 68.1725 16.6418 68.1298 16.842C68.1227 15.4306 67.5957 14.0717 66.6502 13.0263C65.7047 11.9809 64.4073 11.3229 63.0074 11.1786Z" fill="white"/>
</g>
<path id="Vector_105" d="M62.5485 22.0022C62.3329 22.0024 62.1174 21.9915 61.9029 21.9695C61.055 21.8842 60.2339 21.623 59.4919 21.2025L57.044 21.7531C56.9588 21.7723 56.87 21.7688 56.7866 21.743C56.7031 21.7172 56.6278 21.67 56.5681 21.6061C56.5084 21.5422 56.4663 21.4638 56.446 21.3786C56.4258 21.2934 56.428 21.2044 56.4526 21.1204L57.1243 18.824C56.4942 17.7055 56.2282 16.4176 56.3635 15.1401C56.713 11.7256 59.768 9.23447 63.1723 9.58309C64.7547 9.74564 66.2145 10.5112 67.2504 11.7218C68.2864 12.9324 68.8194 14.4957 68.7396 16.089C68.6597 17.6823 67.973 19.1841 66.8213 20.2844C65.6695 21.3848 64.1405 21.9997 62.5498 22.0022H62.5485ZM59.5748 20.1642C59.6669 20.1641 59.7573 20.1895 59.8359 20.2375C60.5032 20.6441 61.2531 20.8948 62.0301 20.9712C62.8071 21.0476 63.5913 20.9476 64.3246 20.6788C65.0578 20.4099 65.7214 19.979 66.2661 19.418C66.8107 18.857 67.2226 18.1803 67.4711 17.438C67.7195 16.6957 67.7983 15.9068 67.7015 15.1298C67.6047 14.3529 67.3349 13.6077 66.9119 12.9495C66.489 12.2913 65.9238 11.737 65.2583 11.3277C64.5927 10.9183 63.8438 10.6644 63.0672 10.5848C60.2129 10.2902 57.6524 12.3806 57.3593 15.2429C57.2398 16.3781 57.4981 17.5211 58.094 18.4938C58.1305 18.5536 58.1541 18.6205 58.1633 18.69C58.1726 18.7596 58.1672 18.8303 58.1475 18.8977L57.6547 20.5832L59.4642 20.1763C59.5005 20.1682 59.5376 20.1641 59.5748 20.1642Z" fill="black"/>
<g id="Group_28" opacity="0.3">
<path id="Vector_106" d="M57.6363 18.7013C58.4769 19.416 59.4827 19.9079 60.5618 20.1321C61.6409 20.3562 62.7588 20.3054 63.8132 19.9844C64.8677 19.6633 65.825 19.0822 66.5977 18.2941C67.3704 17.5061 67.9337 16.5364 68.2362 15.4736C68.279 16.2986 68.1434 17.1231 67.8386 17.8905C67.5338 18.6579 67.0671 19.3502 66.4704 19.9196C65.8738 20.4891 65.1613 20.9224 64.382 21.1897C63.6026 21.457 62.7749 21.5521 61.9555 21.4683C61.1127 21.3825 60.2998 21.1088 59.5761 20.6673L56.9359 21.2611L57.6683 18.7562C57.6559 18.7379 57.6458 18.7193 57.6363 18.7013Z" fill="black"/>
</g>
<path id="Vector_107" d="M60.7126 14.1692C61.2064 13.6739 62.0068 13.7626 62.5006 14.2579L62.5773 14.3351L62.6543 14.2579C63.1481 13.7626 63.9484 13.6739 64.4423 14.1692C64.5597 14.2869 64.6528 14.4267 64.7164 14.5805C64.7799 14.7344 64.8126 14.8993 64.8126 15.0658C64.8126 15.2323 64.7799 15.3972 64.7164 15.551C64.6528 15.7049 64.5597 15.8446 64.4423 15.9624L64.3656 16.0396L62.8133 17.5981C62.7507 17.6608 62.6659 17.696 62.5774 17.696C62.489 17.696 62.4042 17.6608 62.3416 17.5981L60.7893 16.0413L60.7126 15.964C60.595 15.8462 60.5016 15.7064 60.4379 15.5524C60.3742 15.3984 60.3414 15.2333 60.3414 15.0666C60.3414 14.8999 60.3742 14.7348 60.4379 14.5808C60.5016 14.4268 60.595 14.2869 60.7126 14.1692Z" fill="#FF0068"/>
<g id="XSUSTAIN.">
<path d="M30.0035 63.0894L30.0508 63.0975C30.4446 63.1645 30.8723 63.2373 30.8723 63.645C30.8723 64.112 30.5724 64.2274 30.0423 64.2274C29.1527 64.2274 29.1527 63.7177 29.1527 63.5365V63.5349H29.5561C29.5561 63.8167 29.7966 63.8624 30.0319 63.8624C30.3293 63.8624 30.4534 63.7899 30.4534 63.645C30.4534 63.5188 30.3293 63.4947 29.975 63.441C29.432 63.3578 29.1889 63.2424 29.1889 62.8988C29.1889 62.6331 29.3777 62.3271 29.9699 62.3271C30.6732 62.3271 30.8129 62.7351 30.8129 63.0196H30.3991C30.3991 62.8908 30.3448 62.6975 29.9699 62.6975C29.6647 62.6975 29.5949 62.8103 29.5949 62.9015C29.5949 63.0008 29.7009 63.0384 30.0035 63.0894ZM28.37 63.2907L29.0113 64.2274H28.5174L28.0623 63.5457H28.0183L27.5632 64.2274H27.0719L27.7106 63.2907L27.0719 62.3513H27.5632L28.0183 63.033H28.0623L28.5174 62.3513H29.0113L28.37 63.2907Z" fill="black"/>
<path d="M30.0035 63.0894L30.0508 63.0975C30.4446 63.1645 30.8723 63.2373 30.8723 63.645C30.8723 64.112 30.5724 64.2274 30.0423 64.2274C29.1527 64.2274 29.1527 63.7177 29.1527 63.5365V63.5349H29.5561C29.5561 63.8167 29.7966 63.8624 30.0319 63.8624C30.3293 63.8624 30.4534 63.7899 30.4534 63.645C30.4534 63.5188 30.3293 63.4947 29.975 63.441C29.432 63.3578 29.1889 63.2424 29.1889 62.8988C29.1889 62.6331 29.3777 62.3271 29.9699 62.3271C30.6732 62.3271 30.8129 62.7351 30.8129 63.0196H30.3991C30.3991 62.8908 30.3448 62.6975 29.9699 62.6975C29.6647 62.6975 29.5949 62.8103 29.5949 62.9015C29.5949 63.0008 29.7009 63.0384 30.0035 63.0894ZM28.37 63.2907L29.0113 64.2274H28.5174L28.0623 63.5457H28.0183L27.5632 64.2274H27.0719L27.7106 63.2907L27.0719 62.3513H27.5632L28.0183 63.033H28.0623L28.5174 62.3513H29.0113L28.37 63.2907Z" stroke="black"/>
</g>
</g>
<defs>
<clipPath id="clip0_2004_19">
<rect width="71.0683" height="107.552" fill="white" transform="translate(0.0887756)"/>
</clipPath>
</defs>
</svg>
