<svg width="23" height="36" viewBox="0 0 23 36" fill="none" xmlns="http://www.w3.org/2000/svg">
<path d="M0.281798 18.7467C0.917615 18.0805 1.41751 17.5968 1.86946 17.0769C5.76227 12.6083 8.75013 7.695 9.65718 1.7559C9.76567 1.05409 9.91334 0.0889228 10.8577 0.211783C11.4423 0.28839 12.1759 0.886901 12.4345 1.43886C13.5216 3.73479 14.3652 6.14217 15.4638 8.43406C16.6969 11.0102 18.4482 13.1678 21.1555 14.4557C22.3695 15.0332 22.3168 16.0619 21.3702 17.269C20.1316 18.8461 18.8674 20.4344 17.8899 22.1695C16.2952 25.0006 15.9706 28.1674 15.7956 31.3516C15.7383 32.3925 16.0216 33.5573 15.0573 34.4337C14.1746 35.238 13.5298 35.3014 12.8562 34.3208C12.3104 33.526 11.9399 32.5884 11.6277 31.6714C10.6266 28.7167 9.32058 25.9407 7.22512 23.5632C5.90232 22.0604 4.4247 20.7885 2.55129 19.9756C1.82176 19.6595 1.14533 19.2216 0.275646 18.7444L0.281798 18.7467ZM3.1757 17.6599C4.53917 18.3131 5.89776 18.646 6.80392 19.4637C8.57766 21.068 10.1162 22.9288 11.7206 24.7072C12.1426 25.176 12.4612 25.7366 13.0348 26.5433C13.7675 22.4411 15.383 19.1006 17.7236 16.0299C14.1346 13.7527 12.8914 9.96156 10.9817 6.52472C9.52421 10.9899 7.15431 14.7546 3.17542 17.6571L3.1757 17.6599Z" fill="#797979"/>
</svg>
