<svg width="61" height="65" viewBox="0 0 61 65" fill="none" xmlns="http://www.w3.org/2000/svg">
<path d="M51.6015 3.61402C51.5874 4.47408 51.5733 5.33414 51.6127 6.19842C51.7407 7.98471 52.3712 9.54158 53.6732 10.7747C55.0245 12.0656 56.318 13.4057 58.1606 13.9281C58.4238 14.0027 58.7321 14.1885 58.8756 14.4151C59.0642 14.753 59.3514 15.2062 59.2725 15.523C59.1937 15.8397 58.732 16.2338 58.3533 16.2577C53.3604 16.7783 50.7899 20.0199 49.1061 24.3004C48.7007 25.3448 48.4473 26.5089 48.1446 27.6153C47.9545 27.9771 47.9784 28.3557 47.7926 28.664C47.611 28.9188 47.2647 29.2143 47.055 29.1439C46.841 29.127 46.6032 28.7315 46.4638 28.4514C46.3737 28.2289 46.4484 27.9657 46.4695 27.6983C46.6117 26.5792 46.7497 25.5137 46.8919 24.3946C47.0426 23.1686 47.2468 21.9467 47.344 20.7165C47.558 18.6881 46.3715 17.3564 44.8302 16.4273C43.8519 15.8656 42.7498 15.5094 41.5068 15.5727C40.7495 15.6205 40.0176 15.3474 39.2237 15.177C38.9604 15.1024 38.6972 15.0278 38.5494 14.8547C38.3566 14.5703 38.1187 14.1748 38.1399 13.9073C38.1779 13.4259 38.6635 13.4104 39.0872 13.4977C39.7783 13.6062 40.416 13.7104 41.1029 13.8723C42.374 14.1342 43.5761 13.9062 44.7867 13.5712C45.3385 13.3995 45.9072 13.0139 46.2127 12.5536C46.8729 11.6907 47.5331 10.8279 47.8809 9.83273C48.7087 7.52989 49.3267 5.15666 50.0476 2.84537C50.1926 2.37242 50.2306 1.89101 50.4784 1.47999C50.6065 1.221 51.0063 0.929639 51.2202 0.946542C51.4342 0.963445 51.779 1.36745 51.7579 1.6349C51.7607 2.281 51.6523 2.97214 51.6015 3.61402Z" fill="#2468FF"/>
<path d="M31.8209 19.1926C31.8162 19.4765 31.8115 19.7604 31.8245 20.0456C31.8668 20.6352 32.0749 21.1491 32.5046 21.5561C32.9506 21.9822 33.3776 22.4245 33.9857 22.5969C34.0726 22.6215 34.1743 22.6828 34.2217 22.7576C34.284 22.8691 34.3788 23.0187 34.3527 23.1233C34.3267 23.2278 34.1743 23.3579 34.0493 23.3658C32.4014 23.5376 31.553 24.6075 30.9972 26.0203C30.8634 26.3651 30.7798 26.7493 30.6799 27.1144C30.6171 27.2338 30.625 27.3588 30.5637 27.4606C30.5038 27.5447 30.3895 27.6422 30.3202 27.619C30.2496 27.6134 30.1711 27.4828 30.1251 27.3904C30.0954 27.317 30.12 27.2301 30.127 27.1418C30.1739 26.7725 30.2195 26.4208 30.2664 26.0514C30.3162 25.6468 30.3836 25.2435 30.4156 24.8374C30.4863 24.168 30.0947 23.7284 29.5859 23.4218C29.263 23.2364 28.8993 23.1188 28.489 23.1397C28.2391 23.1555 27.9975 23.0653 27.7355 23.0091C27.6486 22.9845 27.5617 22.9599 27.5129 22.9027C27.4493 22.8089 27.3708 22.6783 27.3777 22.59C27.3903 22.4311 27.5506 22.426 27.6904 22.4548C27.9185 22.4906 28.129 22.525 28.3557 22.5785C28.7752 22.6649 29.172 22.5897 29.5716 22.4791C29.7537 22.4224 29.9414 22.2951 30.0422 22.1432C30.2601 21.8584 30.4781 21.5736 30.5928 21.2452C30.8661 20.4851 31.0701 19.7018 31.308 18.939C31.3558 18.7828 31.3684 18.624 31.4502 18.4883C31.4924 18.4028 31.6244 18.3066 31.695 18.3122C31.7656 18.3178 31.8794 18.4512 31.8725 18.5394C31.8734 18.7527 31.8376 18.9808 31.8209 19.1926Z" fill="#2468FF"/>
<path d="M15.1374 49.0605C15.4198 47.6794 15.7077 46.365 15.9569 45.0395C17.0587 39.1472 18.1495 33.2521 19.2458 27.357C19.2652 27.254 19.2514 27.1426 19.2874 27.0451C19.5919 26.2404 19.5227 25.1599 20.7436 25.0151C22.0032 24.8648 22.3936 25.8366 22.6649 26.7054C23.7972 30.3644 24.8547 34.0485 25.915 37.7298C26.513 39.8044 27.0473 41.8984 27.6425 43.9758C27.7671 44.4074 28.0357 44.7945 28.4897 45.1509C28.761 44.3044 29.0185 43.4495 29.3092 42.6113C31.1336 37.3734 33.8522 32.5894 36.748 27.8972C37.0581 27.3932 37.3266 26.8614 37.6367 26.3573C38.0796 25.6361 38.7579 25.2713 39.5774 25.4106C40.4217 25.5526 40.9533 26.1513 40.9671 27.0145C40.9976 29.0362 41.0391 31.0606 40.9228 33.0767C40.7429 36.176 40.3608 39.2642 40.2003 42.3663C39.9622 46.9303 39.8016 51.4999 39.7047 56.0695C39.6742 57.4535 39.9732 58.843 40.1061 60.2325C40.2888 62.1261 39.4749 63.1815 37.5813 63.2984C35.7126 63.4126 33.8273 63.4794 31.9586 63.3903C25.6188 63.0896 19.3123 63.5491 13.0113 64.1589C11.4942 64.3065 10.002 64.6768 8.49314 64.9274C7.23627 65.1363 6.80992 64.9414 6.52754 63.6827C6.17041 62.0899 5.91849 60.4664 5.73854 58.843C5.02704 52.4272 4.38753 45.9947 2.33887 39.8267C1.80179 38.2144 1.00171 36.6884 0.312364 35.129C0.0216765 34.469 -0.299465 33.8313 0.528303 33.3022C1.32562 32.7927 1.98451 32.9848 2.5382 33.6809C4.14114 35.7026 5.71361 37.7465 7.33316 39.7515C9.78601 42.7895 12.2665 45.8025 14.7388 48.8211C14.7997 48.8962 14.9104 48.9269 15.1374 49.0578V49.0605ZM37.8997 32.0436C37.7723 32.0157 37.645 31.9879 37.5176 31.9573C37.3432 32.2051 37.1162 32.4306 37.0027 32.7063C35.3721 36.6243 33.7082 40.5312 32.1551 44.4826C31.4049 46.3901 30.8899 48.3922 30.2338 50.3387C29.8407 51.5055 28.8634 52.2963 27.9055 52.3102C26.8729 52.3269 26.2334 51.7756 25.7738 50.3582C25.1731 48.5036 24.5613 46.649 24.0546 44.7638C23.2407 41.7369 22.5209 38.6877 21.7402 35.6525C21.6018 35.1178 21.3499 34.6138 21.1478 34.0931C20.9152 34.65 20.882 35.1373 20.8072 35.6191C20.3504 38.4761 19.9296 41.3415 19.4064 44.1874C18.9108 46.8913 18.3904 49.598 17.7121 52.2573C17.2968 53.8808 16.2753 54.4572 14.7056 54.0256C14.0245 53.839 13.3712 53.1902 12.9116 52.5915C10.982 50.0769 9.14097 47.4956 7.24458 44.9532C7.00649 44.633 6.64382 44.4074 6.33652 44.1345C6.2507 44.193 6.16488 44.2487 6.08182 44.3072C6.11781 44.6747 6.13442 45.0451 6.18979 45.4099C7.00648 50.8204 8.07234 56.2087 7.63492 61.7307C7.57955 62.438 7.81764 62.6719 8.55405 62.4825C13.313 61.2601 18.1827 60.6948 23.0663 60.3913C27.1553 60.1379 31.2665 60.2214 35.3693 60.1546C35.6987 60.149 36.031 60.1267 36.5071 60.1045C35.1035 50.5837 36.6428 41.3192 37.8997 32.0408V32.0436Z" fill="#2468FF"/>
</svg>
