<svg width="18" height="18" viewBox="0 0 18 18" fill="none" xmlns="http://www.w3.org/2000/svg">
<path d="M6.90897 4.5527C7.39119 2.89682 7.63229 2.06888 8.1405 1.90741C8.27413 1.86495 8.41519 1.85106 8.55453 1.86666C9.08447 1.92596 9.48235 2.69102 10.2781 4.22112C10.7306 5.09126 10.9569 5.52633 11.3272 5.80095C11.4311 5.87798 11.5422 5.94475 11.6589 6.00033C12.0752 6.19849 12.57 6.19415 13.5597 6.18546C15.2351 6.17075 16.0728 6.16339 16.3729 6.61189C16.4351 6.70478 16.4813 6.80743 16.5095 6.91558C16.6457 7.43777 16.09 8.05323 14.9784 9.28414L14.6697 9.62595C14.15 10.2014 13.8902 10.4892 13.757 10.8294C13.6771 11.0336 13.6313 11.2494 13.6215 11.4684C13.605 11.8335 13.7257 12.2019 13.967 12.9388L14.0532 13.2021C14.4859 14.5236 14.7022 15.1844 14.5478 15.5348C14.4091 15.8496 14.1184 16.071 13.778 16.121C13.3991 16.1766 12.8197 15.7923 11.6609 15.0237C10.8974 14.5174 10.5157 14.2642 10.1123 14.1903C9.74365 14.1228 9.36346 14.1602 9.01506 14.2983C8.63382 14.4494 8.30876 14.7721 7.65865 15.4176C6.67189 16.3974 6.17851 16.8873 5.79604 16.9065C5.45248 16.9239 5.12414 16.7634 4.92673 16.4817C4.70697 16.1681 4.79036 15.4778 4.95715 14.0973L4.99038 13.8223C5.08338 13.0525 5.12988 12.6676 5.0426 12.3127C4.99024 12.0999 4.90324 11.8971 4.78509 11.7124C4.58812 11.4046 4.27717 11.1731 3.65528 10.71L3.28589 10.4349C1.95568 9.44427 1.29057 8.94897 1.32244 8.41024C1.32903 8.29866 1.35429 8.18898 1.39716 8.08575C1.60414 7.58734 2.42719 7.43125 4.07329 7.11908C5.04569 6.93466 5.53189 6.84246 5.90152 6.56695C6.0052 6.48968 6.10114 6.40253 6.18799 6.30673C6.49764 5.9652 6.63475 5.49436 6.90897 4.5527Z" fill="#C6FF00" stroke="#C6FF00" stroke-width="2"/>
</svg>
