<svg width="28" height="25" viewBox="0 0 28 25" fill="none" xmlns="http://www.w3.org/2000/svg">
<path d="M8.81768 10.1291C9.00209 9.85858 9.1494 9.65996 9.2778 9.45146C10.3843 7.65859 11.1476 5.76221 11.1217 3.62658C11.119 3.37414 11.1149 3.02706 11.4533 3.01544C11.6627 3.00844 11.9547 3.17586 12.0774 3.35448C12.5917 4.09677 13.0271 4.89226 13.5452 5.63247C14.1269 6.46457 14.8661 7.11989 15.8903 7.41475C16.3496 7.54697 16.3907 7.91084 16.1286 8.38907C15.7856 9.01398 15.4342 9.64431 15.1918 10.3095C14.7965 11.3949 14.8661 12.5244 14.9893 13.6514C15.0294 14.0198 15.1963 14.4119 14.9089 14.7752C14.6459 15.1084 14.4234 15.168 14.1303 14.8631C13.8928 14.6159 13.7086 14.3085 13.5459 14.005C13.0236 13.0266 12.4047 12.1287 11.532 11.4162C10.981 10.9657 10.3891 10.6052 9.68487 10.4286C9.41069 10.36 9.14807 10.2456 8.81539 10.1286L8.81768 10.1291ZM9.76973 9.58026C10.2858 9.73037 10.7816 9.7684 11.1468 10.0027C11.8619 10.4627 12.5093 11.0262 13.1751 11.557C13.3502 11.697 13.4944 11.8751 13.7424 12.1249C13.7617 10.6436 14.1348 9.37833 14.7778 8.16571C13.3871 7.57494 12.7314 6.31726 11.8625 5.22245C11.61 6.87302 10.9969 8.33076 9.76946 9.57927L9.76973 9.58026Z" fill="black"/>
<path d="M7.24515 23.6288C6.79929 23.7482 6.69902 23.6965 6.5545 23.2505C6.32054 22.5327 6.07382 21.8101 5.48893 21.298C5.09727 20.9553 4.64173 20.6774 4.19267 20.408C3.58464 20.0427 3.62827 19.9607 4.00214 19.3861C4.34788 18.8541 4.57376 18.2167 4.72065 17.5954C4.88883 16.8826 4.90164 16.1338 5.00715 15.4047C5.02926 15.2541 5.12307 15.0563 5.24445 14.9886C5.49277 14.8508 5.6734 14.9771 5.81738 15.2269C6.15464 15.8095 6.50861 16.3845 6.88622 16.9428C7.28802 17.537 7.87881 17.9235 8.48348 18.2917C8.9961 18.604 9.08598 18.9201 8.67549 19.3464C7.77001 20.2878 7.55244 21.4108 7.62469 22.6402C7.63354 22.7897 7.60562 22.9419 7.62346 23.0901C7.66199 23.4127 7.53433 23.5968 7.24638 23.6295L7.24515 23.6288ZM7.42996 19.0537C6.79819 18.3123 6.15201 17.552 5.48821 16.7726C5.53075 17.7784 5.14489 18.6891 4.6827 19.5014C5.3418 20.0029 5.95009 20.4663 6.53347 20.9106C6.84081 20.2742 7.14297 19.6495 7.43022 19.0546L7.42996 19.0537Z" fill="black"/>
<path d="M25.7247 11.4247C25.6816 11.6506 25.6692 11.8344 25.6115 12.0018C25.3368 12.8115 25.1503 13.6379 25.1587 14.5084C25.1596 14.6252 25.1465 14.7479 25.1121 14.8577C24.9625 15.3418 24.5826 15.4075 24.248 15.0215C23.9238 14.6468 23.6196 14.2417 23.249 13.9243C22.8351 13.5704 22.3627 13.2869 21.9014 12.9981C21.6287 12.8273 21.5675 12.6185 21.7501 12.3825C22.5665 11.3227 22.6889 10.0694 22.6582 8.76419C22.6552 8.6436 22.7402 8.44581 22.8229 8.42256C22.9205 8.39641 23.0876 8.49275 23.1731 8.58574C23.2749 8.69626 23.3362 8.85482 23.3906 9.0032C23.7557 9.98699 24.4084 10.6816 25.3284 11.1208C25.4676 11.1874 25.5818 11.3131 25.7259 11.4255L25.7247 11.4247ZM23.3381 10.2006C23.0541 10.9755 22.7637 11.7697 22.4889 12.5203C23.0855 12.9433 23.735 13.4036 24.3857 13.8647C24.434 13.5685 24.4683 13.2673 24.5356 12.9758C24.6065 12.6703 24.6802 12.3597 24.8055 12.0778C24.9542 11.7427 25.0224 11.5013 24.5652 11.3799C24.403 11.337 24.2479 11.1992 24.1213 11.0702C23.8432 10.786 23.5862 10.4786 23.3383 10.2016L23.3381 10.2006Z" fill="black"/>
<path d="M23.3247 10.1286C23.5922 10.4094 23.8692 10.7212 24.1699 11.0088C24.3057 11.1396 24.4739 11.2787 24.6528 11.3194C25.1553 11.435 25.0742 11.6857 24.9035 12.0345C24.7596 12.3278 24.6724 12.6509 24.5879 12.9665C24.5078 13.2685 24.4638 13.58 24.4046 13.8865C23.6968 13.4241 22.9904 12.9624 22.3415 12.538C22.6596 11.7581 22.9968 10.9326 23.3244 10.1276L23.3247 10.1286Z" fill="#F5EBE0"/>
</svg>
