<svg width="18" height="18" viewBox="0 0 18 18" fill="none" xmlns="http://www.w3.org/2000/svg">
<g clip-path="url(#clip0_4_1868)">
<path d="M5.24661 10.5894V13.7047M13.0523 9.03166V13.7047M9.14951 5.91624V13.7047M16.9552 4.98163V13.0817C16.9552 14.3902 16.9552 15.0445 16.6361 15.5443C16.3555 15.984 15.9077 16.3414 15.357 16.5654C14.7308 16.8201 13.9111 16.8201 12.2718 16.8201H6.02718C4.38783 16.8201 3.56815 16.8201 2.942 16.5654C2.39122 16.3414 1.94343 15.984 1.66279 15.5443C1.34375 15.0445 1.34375 14.3902 1.34375 13.0817V4.98163C1.34375 3.67305 1.34375 3.01875 1.66279 2.51894C1.94343 2.07929 2.39122 1.72185 2.942 1.49784C3.56815 1.24316 4.38783 1.24316 6.02718 1.24316H12.2718C13.9111 1.24316 14.7308 1.24316 15.357 1.49784C15.9077 1.72185 16.3555 2.07929 16.6361 2.51894C16.9552 3.01875 16.9552 3.67305 16.9552 4.98163Z" stroke="#2468FF" stroke-width="2.2" stroke-linecap="round" stroke-linejoin="round"/>
</g>
<defs>
<clipPath id="clip0_4_1868">
<rect width="18" height="18" fill="white"/>
</clipPath>
</defs>
</svg>
