<svg width="101" height="156" viewBox="0 0 101 156" fill="none" xmlns="http://www.w3.org/2000/svg">
<path d="M53.2148 1.86554C53.2135 1.86481 53.212 1.86645 53.213 1.86771C55.2454 4.61436 57.5996 7.18029 59.2636 10.136C68.0386 25.7021 73.0309 42.6208 76.2454 60.0686C79.2463 76.3662 79.7191 92.6909 75.4879 108.92C72.7356 119.494 67.4874 128.625 59.9337 136.402C55.926 140.529 51.6257 144.365 47.4316 148.304C46.8498 148.851 46.1392 149.288 45.4319 149.67C43.4035 150.745 41.7408 149.853 40.4565 148.367C39.1441 146.857 40.0755 145.427 41.2016 144.278C44.9315 140.434 48.6513 136.58 52.4913 132.852C61.4089 124.191 66.7321 113.706 69.111 101.507C71.6546 88.4632 71.0236 75.5441 68.9515 62.4928C66.4197 46.5532 61.3139 31.3683 56.4183 16.098C55.2503 12.45 53.9606 8.84641 52.7697 5.21229C52.5158 4.42928 52.404 3.59709 52.2515 2.78148C52.2146 2.58382 52.3055 2.38327 52.4804 2.28414C52.7251 2.14551 52.9684 2.00729 53.2149 1.86812C53.2159 1.86755 53.2159 1.86608 53.2148 1.86554Z" fill="black"/>
<path d="M90.7096 122.158C90.7075 122.157 90.7051 122.158 90.7054 122.161C91.2146 125.683 90.23 128.636 88.7764 131.457C85.4784 137.867 79.9078 142.362 74.1155 146.558C70.6524 149.066 66.8618 151.153 63.1959 153.402C62.578 153.78 61.8237 154.245 61.1789 154.206C59.9096 154.128 58.269 154.08 57.5427 153.337C56.9642 152.742 57.1885 151.003 57.66 150.019C58.12 149.064 59.23 148.231 60.2494 147.677C69.9371 142.393 79.2204 136.616 86.3557 128.181C87.8806 126.382 89.1214 124.368 90.7106 122.162C90.7117 122.16 90.7112 122.158 90.7096 122.158Z" fill="black"/>
</svg>
