<svg width="219" height="8" viewBox="0 0 219 8" fill="none" xmlns="http://www.w3.org/2000/svg">
<path id="Vector" d="M218.12 2.17827C217.73 2.34632 217.528 2.53025 217.011 2.63955C208.39 4.46445 199.606 6.22348 188.014 7.12865C176.809 8.00481 165.24 8.10635 153.363 7.69761C143.372 7.35371 133.768 6.58743 124.098 5.8891C111.308 4.9656 98.5705 3.97266 85.6367 3.20477C74.3079 2.53221 62.7326 2.28267 51.1285 2.40491C35.4082 2.57015 21.0296 3.60449 7.38212 5.16297C5.11538 5.42128 2.80785 5.66313 0.517778 5.91317C0.348271 5.87768 0.178764 5.84219 0.00339508 5.80663C0.474973 5.62913 0.864698 5.43592 1.43569 5.27571C6.74532 3.78853 13.8938 2.84629 21.625 2.15592C37.5393 0.737797 54.4056 0.381988 71.7758 0.863677C89.9606 1.36737 107.341 2.7472 124.746 4.10484C132.856 4.73763 141.103 5.28888 149.398 5.75075C168.437 6.80943 186.309 6.19487 202.871 4.22159C206.923 3.73796 210.217 2.95101 213.838 2.29578C214.99 2.08676 216.078 1.87816 218.126 2.17835L218.12 2.17827Z" fill="#2468FF"/>
</svg>
