<svg width="11" height="15" viewBox="0 0 11 15" fill="none" xmlns="http://www.w3.org/2000/svg">
<path d="M3.1776 14.7382C2.08305 10.6986 1.06352 6.98366 0.0884387 3.25555C-0.0451804 2.7455 0.0103197 2.16099 0.0647846 1.62067C0.0892651 1.37724 0.329457 1.16548 0.47112 0.936968C0.674589 1.09036 0.959631 1.19753 1.06669 1.41038C1.51608 2.31262 1.92751 3.23916 2.32351 4.1731C2.49184 4.57098 2.54509 5.03016 2.73093 5.41456C3.06317 6.11082 3.45386 6.77193 3.81903 7.44731C4.60024 6.82665 5.50036 6.32067 6.1355 5.55567C6.90795 4.62724 7.40979 3.43739 8.12148 2.43852C8.52119 1.87892 9.06713 1.41074 9.62463 1.03255C9.91746 0.836188 10.4345 0.785297 10.7401 0.937459C10.9186 1.02865 10.9994 1.68499 10.9169 2.02231C10.6364 3.13747 10.3757 4.2889 9.90017 5.30862C8.45629 8.41062 6.50301 11.1219 4.318 13.6384C4.05204 13.9438 3.73828 14.201 3.17731 14.7353L3.1776 14.7382Z" fill="white"/>
</svg>
