<svg width="17" height="11" viewBox="0 0 17 11" fill="none" xmlns="http://www.w3.org/2000/svg">
<path d="M1.414 10H0.154L3.892 0.199999H5.334L9.058 10H7.756L6.72 7.354H2.45L1.414 10ZM4.578 1.53L2.814 6.248H6.356L4.578 1.53ZM16.1488 8.95H16.5128V10H15.8828C14.9308 10 14.6088 9.594 14.5948 8.894C14.1468 9.538 13.4328 10.084 12.2008 10.084C10.6328 10.084 9.56878 9.3 9.56878 7.998C9.56878 6.57 10.5628 5.772 12.4388 5.772H14.5388V5.282C14.5388 4.358 13.8808 3.798 12.7608 3.798C11.7528 3.798 11.0808 4.274 10.9408 5.002H9.79278C9.96078 3.602 11.0948 2.776 12.8168 2.776C14.6368 2.776 15.6868 3.686 15.6868 5.352V8.474C15.6868 8.852 15.8268 8.95 16.1488 8.95ZM14.5388 7.088V6.738H12.3268C11.3048 6.738 10.7308 7.116 10.7308 7.928C10.7308 8.628 11.3328 9.104 12.2848 9.104C13.7128 9.104 14.5388 8.278 14.5388 7.088Z" fill="black"/>
</svg>
