<svg width="9" height="3" viewBox="0 0 9 3" fill="none" xmlns="http://www.w3.org/2000/svg">
<path d="M1.168 0.32C1.648 0.32 1.968 0.624 1.968 1.088C1.968 1.68 1.472 2.112 0.928 2.096C0.448 2.08 0.144 1.776 0.144 1.312C0.144 0.72 0.64 0.32 1.168 0.32ZM4.46488 0.32C4.94488 0.32 5.26488 0.624 5.26488 1.088C5.26488 1.68 4.76888 2.112 4.22488 2.096C3.74488 2.08 3.44088 1.776 3.44088 1.312C3.44088 0.72 3.93688 0.32 4.46488 0.32ZM7.76175 0.32C8.24175 0.32 8.56175 0.624 8.56175 1.088C8.56175 1.68 8.06575 2.112 7.52175 2.096C7.04175 2.08 6.73775 1.776 6.73775 1.312C6.73775 0.72 7.23375 0.32 7.76175 0.32Z" fill="black"/>
</svg>
